<svg xmlns="http://www.w3.org/2000/svg" xmlns:xlink="http://www.w3.org/1999/xlink" width="610" height="138" viewBox="0 0 610 138">
  <defs>
    <linearGradient id="linear-gradient" x1="0.352" y1="0.5" x2="1" y2="0.396" gradientUnits="objectBoundingBox">
      <stop offset="0" stop-color="#fff5db"/>
      <stop offset="1" stop-color="#fffbf1"/>
    </linearGradient>
    <linearGradient id="linear-gradient-2" x1="0.523" y1="0.402" x2="1" y2="0.5" gradientUnits="objectBoundingBox">
      <stop offset="0" stop-color="#f3e6e3"/>
      <stop offset="1" stop-color="#fff6f5"/>
    </linearGradient>
    <clipPath id="clip-path">
      <rect id="Rectángulo_44084" data-name="Rectángulo 44084" width="528.47" height="112.286" transform="translate(0 0)" fill="none"/>
    </clipPath>
  </defs>
  <g id="Grupo_154008" data-name="Grupo 154008" transform="translate(-495 -5752)">
    <g id="Grupo_153960" data-name="Grupo 153960">
      <rect id="Rectángulo_42783" data-name="Rectángulo 42783" width="610" height="46" transform="translate(495 5798)" fill="url(#linear-gradient)"/>
      <rect id="Rectángulo_42785" data-name="Rectángulo 42785" width="190" height="39" transform="translate(705 5752)" fill="#9f321d"/>
      <rect id="Rectángulo_42786" data-name="Rectángulo 42786" width="190" height="39" transform="translate(915 5752)" fill="#9f321d"/>
      <rect id="Rectángulo_42784" data-name="Rectángulo 42784" width="610" height="46" transform="translate(495 5844)" fill="url(#linear-gradient-2)"/>
      <rect id="Rectángulo_42787" data-name="Rectángulo 42787" width="3" height="49" transform="translate(682 5820)" fill="#9f321d"/>
      <g id="Grupo_153995" data-name="Grupo 153995" transform="translate(-12.235 20)">
        <g id="Grupo_154007" data-name="Grupo 154007" transform="translate(548 5747)">
          <path id="Trazado_214680" data-name="Trazado 214680" d="M0,48.664V60.75H7.33v-1.3H1.6V48.664Z" fill="#0c1d30"/>
          <g id="Grupo_153996" data-name="Grupo 153996">
            <g id="Grupo_153995-2" data-name="Grupo 153995" clip-path="url(#clip-path)">
              <path id="Trazado_214681" data-name="Trazado 214681" d="M8.5,56.175A5.305,5.305,0,0,1,9.019,53.8a3.864,3.864,0,0,1,1.444-1.627,3.93,3.93,0,0,1,2.113-.573,3.786,3.786,0,0,1,2.968,1.271,4.888,4.888,0,0,1,1.132,3.378v.108a5.35,5.35,0,0,1-.5,2.353,3.819,3.819,0,0,1-1.436,1.623,3.979,3.979,0,0,1-2.146.581,3.78,3.78,0,0,1-2.959-1.27A4.862,4.862,0,0,1,8.5,56.284Zm1.544.184a3.84,3.84,0,0,0,.693,2.4,2.215,2.215,0,0,0,1.855.9,2.207,2.207,0,0,0,1.86-.917,4.206,4.206,0,0,0,.689-2.57,3.832,3.832,0,0,0-.7-2.394,2.229,2.229,0,0,0-1.863-.917,2.206,2.206,0,0,0-1.835.905,4.168,4.168,0,0,0-.7,2.59" fill="#0c1d30"/>
              <path id="Trazado_214682" data-name="Trazado 214682" d="M30.4,56.359a5.378,5.378,0,0,1-.938,3.3,3.01,3.01,0,0,1-2.54,1.253,3.294,3.294,0,0,1-2.574-1.037V64.2H22.811V51.768h1.4l.074,1A3.167,3.167,0,0,1,26.9,51.6a3.062,3.062,0,0,1,2.56,1.22,5.432,5.432,0,0,1,.943,3.4Zm-1.536-.175a3.973,3.973,0,0,0-.647-2.4,2.087,2.087,0,0,0-1.777-.879,2.258,2.258,0,0,0-2.092,1.236v4.291a2.263,2.263,0,0,0,2.109,1.229,2.073,2.073,0,0,0,1.755-.875,4.33,4.33,0,0,0,.652-2.6" fill="#0c1d30"/>
              <path id="Trazado_214683" data-name="Trazado 214683" d="M31.941,56.175A5.305,5.305,0,0,1,32.46,53.8,3.864,3.864,0,0,1,33.9,52.175a3.93,3.93,0,0,1,2.113-.573,3.786,3.786,0,0,1,2.968,1.271,4.888,4.888,0,0,1,1.132,3.378v.108a5.35,5.35,0,0,1-.5,2.353,3.819,3.819,0,0,1-1.436,1.623,3.979,3.979,0,0,1-2.146.581,3.78,3.78,0,0,1-2.959-1.27,4.862,4.862,0,0,1-1.133-3.362Zm1.544.184a3.84,3.84,0,0,0,.693,2.4,2.349,2.349,0,0,0,3.715-.012,4.206,4.206,0,0,0,.689-2.57,3.832,3.832,0,0,0-.7-2.394,2.229,2.229,0,0,0-1.863-.917,2.206,2.206,0,0,0-1.835.905,4.168,4.168,0,0,0-.7,2.59" fill="#0c1d30"/>
              <path id="Trazado_214684" data-name="Trazado 214684" d="M47.273,58.367A1.131,1.131,0,0,0,46.8,57.4a4.53,4.53,0,0,0-1.635-.594,7.736,7.736,0,0,1-1.851-.6,2.631,2.631,0,0,1-1.013-.83,1.98,1.98,0,0,1-.328-1.145,2.332,2.332,0,0,1,.934-1.868A3.648,3.648,0,0,1,45.3,51.6a3.756,3.756,0,0,1,2.478.788,2.508,2.508,0,0,1,.951,2.018H47.182a1.388,1.388,0,0,0-.536-1.088,2,2,0,0,0-1.349-.456,2.1,2.1,0,0,0-1.311.365,1.147,1.147,0,0,0-.473.954.931.931,0,0,0,.44.839,5.393,5.393,0,0,0,1.59.54,8.258,8.258,0,0,1,1.863.614,2.717,2.717,0,0,1,1.058.859,2.111,2.111,0,0,1,.345,1.225,2.3,2.3,0,0,1-.963,1.929,4.035,4.035,0,0,1-2.5.727,4.515,4.515,0,0,1-1.909-.382,3.115,3.115,0,0,1-1.3-1.066,2.571,2.571,0,0,1-.469-1.482h1.536a1.59,1.59,0,0,0,.618,1.224,2.4,2.4,0,0,0,1.523.452,2.47,2.47,0,0,0,1.4-.353,1.083,1.083,0,0,0,.527-.942" fill="#0c1d30"/>
              <path id="Trazado_214685" data-name="Trazado 214685" d="M50.817,49.387a.92.92,0,0,1,.228-.631.858.858,0,0,1,.677-.258.87.87,0,0,1,.681.258.9.9,0,0,1,.232.631.877.877,0,0,1-.232.622.887.887,0,0,1-.681.249.875.875,0,0,1-.677-.249.892.892,0,0,1-.228-.622M52.478,60.75H50.942V51.769h1.536Z" fill="#0c1d30"/>
              <path id="Trazado_214686" data-name="Trazado 214686" d="M57.018,49.594v2.175h1.677v1.186H57.018v5.577a1.249,1.249,0,0,0,.224.811.945.945,0,0,0,.764.271,3.753,3.753,0,0,0,.73-.1v1.237a4.436,4.436,0,0,1-1.178.165,1.912,1.912,0,0,1-1.553-.623,2.674,2.674,0,0,1-.523-1.767V52.955H53.847V51.769h1.635V49.594Z" fill="#0c1d30"/>
              <path id="Trazado_214687" data-name="Trazado 214687" d="M60.5,49.387a.915.915,0,0,1,.228-.631A.856.856,0,0,1,61.4,48.5a.87.87,0,0,1,.681.258.909.909,0,0,1,.232.631.909.909,0,1,1-1.818,0m1.66,11.363H60.62V51.769h1.536Z" fill="#0c1d30"/>
              <path id="Trazado_214688" data-name="Trazado 214688" d="M67.577,58.666l2.225-6.9H71.37L68.15,60.75H66.979l-3.254-8.981h1.569Z" fill="#0c1d30"/>
              <path id="Trazado_214689" data-name="Trazado 214689" d="M72.316,56.175a5.305,5.305,0,0,1,.519-2.373,3.865,3.865,0,0,1,1.444-1.627,3.93,3.93,0,0,1,2.113-.573,3.786,3.786,0,0,1,2.968,1.271,4.888,4.888,0,0,1,1.132,3.378v.108a5.35,5.35,0,0,1-.5,2.353,3.819,3.819,0,0,1-1.436,1.623,3.979,3.979,0,0,1-2.146.581,3.78,3.78,0,0,1-2.959-1.27,4.862,4.862,0,0,1-1.133-3.362Zm1.544.184a3.84,3.84,0,0,0,.693,2.4,2.349,2.349,0,0,0,3.715-.012,4.206,4.206,0,0,0,.689-2.57,3.832,3.832,0,0,0-.7-2.394,2.229,2.229,0,0,0-1.863-.917,2.206,2.206,0,0,0-1.835.905,4.168,4.168,0,0,0-.7,2.59" fill="#0c1d30"/>
            </g>
          </g>
          <path id="Trazado_214690" data-name="Trazado 214690" d="M0,96.664V108.75H7.33v-1.3H1.6V96.664Z" fill="#0c1d30"/>
          <g id="Grupo_153998" data-name="Grupo 153998">
            <g id="Grupo_153997" data-name="Grupo 153997" clip-path="url(#clip-path)">
              <path id="Trazado_214691" data-name="Trazado 214691" d="M8.5,104.175a5.305,5.305,0,0,1,.519-2.373,3.864,3.864,0,0,1,1.444-1.627,3.93,3.93,0,0,1,2.113-.573,3.786,3.786,0,0,1,2.968,1.271,4.888,4.888,0,0,1,1.132,3.378v.108a5.35,5.35,0,0,1-.5,2.353,3.819,3.819,0,0,1-1.436,1.623,3.979,3.979,0,0,1-2.146.581,3.78,3.78,0,0,1-2.959-1.27A4.862,4.862,0,0,1,8.5,104.284Zm1.544.184a3.84,3.84,0,0,0,.693,2.4,2.215,2.215,0,0,0,1.855.9,2.207,2.207,0,0,0,1.86-.917,4.206,4.206,0,0,0,.689-2.57,3.832,3.832,0,0,0-.7-2.394,2.229,2.229,0,0,0-1.863-.917,2.206,2.206,0,0,0-1.835.9,4.168,4.168,0,0,0-.7,2.59" fill="#0c1d30"/>
              <path id="Trazado_214692" data-name="Trazado 214692" d="M24.263,99.768l.05,1.129A3.272,3.272,0,0,1,27,99.6q2.847,0,2.872,3.212v5.935H28.339v-5.943a2.064,2.064,0,0,0-.445-1.435,1.773,1.773,0,0,0-1.357-.465,2.218,2.218,0,0,0-1.311.4,2.7,2.7,0,0,0-.88,1.045v6.4H22.81V99.768Z" fill="#0c1d30"/>
              <path id="Trazado_214693" data-name="Trazado 214693" d="M35.918,108.916a3.928,3.928,0,0,1-2.972-1.2,4.457,4.457,0,0,1-1.145-3.209v-.282a5.392,5.392,0,0,1,.51-2.386,3.981,3.981,0,0,1,1.428-1.644,3.6,3.6,0,0,1,1.988-.594,3.367,3.367,0,0,1,2.723,1.154,5,5,0,0,1,.971,3.3v.639H33.336a3.184,3.184,0,0,0,.777,2.145,2.438,2.438,0,0,0,1.888.818,2.681,2.681,0,0,0,1.378-.332,3.472,3.472,0,0,0,.988-.879l.938.73a3.772,3.772,0,0,1-3.387,1.735m-.191-8.052a2.05,2.05,0,0,0-1.561.677,3.293,3.293,0,0,0-.78,1.9h4.5v-.116a2.916,2.916,0,0,0-.631-1.813,1.927,1.927,0,0,0-1.527-.644" fill="#0c1d30"/>
              <path id="Trazado_214694" data-name="Trazado 214694" d="M40.831,104.184a5.283,5.283,0,0,1,.971-3.341,3.348,3.348,0,0,1,5.138-.079l.075-1h1.4v8.766a3.655,3.655,0,0,1-1.033,2.747,3.815,3.815,0,0,1-2.777,1.005,4.63,4.63,0,0,1-1.9-.415,3.279,3.279,0,0,1-1.419-1.137l.8-.922a3,3,0,0,0,2.416,1.221,2.353,2.353,0,0,0,1.747-.631,2.414,2.414,0,0,0,.627-1.777v-.772a3.158,3.158,0,0,1-2.515,1.063,3.069,3.069,0,0,1-2.552-1.27,5.55,5.55,0,0,1-.976-3.462m1.544.175A4.027,4.027,0,0,0,43,106.745a2.024,2.024,0,0,0,1.743.868,2.251,2.251,0,0,0,2.133-1.32v-4.1a2.276,2.276,0,0,0-2.117-1.286,2.039,2.039,0,0,0-1.751.871,4.382,4.382,0,0,0-.631,2.582" fill="#0c1d30"/>
              <path id="Trazado_214695" data-name="Trazado 214695" d="M56.279,108.75a3.234,3.234,0,0,1-.215-.946,3.428,3.428,0,0,1-2.557,1.112,3.17,3.17,0,0,1-2.179-.751,2.432,2.432,0,0,1-.851-1.9,2.539,2.539,0,0,1,1.067-2.179,5.023,5.023,0,0,1,3-.776h1.5V102.6a1.728,1.728,0,0,0-.482-1.284,1.935,1.935,0,0,0-1.419-.476,2.235,2.235,0,0,0-1.378.414,1.224,1.224,0,0,0-.556,1.005H50.66a2.119,2.119,0,0,1,.477-1.3,3.251,3.251,0,0,1,1.295-.992,4.364,4.364,0,0,1,1.8-.366,3.546,3.546,0,0,1,2.432.777,2.8,2.8,0,0,1,.913,2.137v4.134a5.037,5.037,0,0,0,.316,1.967v.133Zm-2.548-1.17a2.7,2.7,0,0,0,1.37-.374,2.263,2.263,0,0,0,.938-.972v-1.842h-1.2q-2.822,0-2.822,1.652a1.4,1.4,0,0,0,.481,1.129,1.853,1.853,0,0,0,1.237.407" fill="#0c1d30"/>
              <path id="Trazado_214696" data-name="Trazado 214696" d="M62.065,97.594v2.175h1.677v1.186H62.065v5.577a1.249,1.249,0,0,0,.224.811.945.945,0,0,0,.764.271,3.753,3.753,0,0,0,.73-.1v1.237a4.436,4.436,0,0,1-1.178.165,1.912,1.912,0,0,1-1.553-.623,2.674,2.674,0,0,1-.523-1.767v-5.571H58.894V99.769h1.635V97.594Z" fill="#0c1d30"/>
              <path id="Trazado_214697" data-name="Trazado 214697" d="M65.543,97.387a.915.915,0,0,1,.228-.631.856.856,0,0,1,.677-.258.866.866,0,0,1,.68.258.9.9,0,0,1,.233.631.951.951,0,0,1-1.59.622.887.887,0,0,1-.228-.622M67.2,108.75H65.667V99.769H67.2Z" fill="#0c1d30"/>
              <path id="Trazado_214698" data-name="Trazado 214698" d="M72.623,106.666l2.225-6.9h1.568L73.2,108.75H72.025l-3.254-8.981H70.34Z" fill="#0c1d30"/>
              <path id="Trazado_214699" data-name="Trazado 214699" d="M77.363,104.175a5.305,5.305,0,0,1,.519-2.373,3.864,3.864,0,0,1,1.444-1.627,3.93,3.93,0,0,1,2.113-.573,3.786,3.786,0,0,1,2.968,1.271,4.887,4.887,0,0,1,1.132,3.378v.108a5.35,5.35,0,0,1-.5,2.353,3.819,3.819,0,0,1-1.436,1.623,3.979,3.979,0,0,1-2.146.581,3.78,3.78,0,0,1-2.959-1.27,4.862,4.862,0,0,1-1.133-3.362Zm1.544.184a3.84,3.84,0,0,0,.693,2.4,2.349,2.349,0,0,0,3.715-.012,4.206,4.206,0,0,0,.689-2.57,3.832,3.832,0,0,0-.7-2.394,2.229,2.229,0,0,0-1.863-.917,2.206,2.206,0,0,0-1.835.9,4.168,4.168,0,0,0-.7,2.59" fill="#0c1d30"/>
            </g>
          </g>
          <path id="Trazado_214700" data-name="Trazado 214700" d="M226.948,7.5h-4.781V10.75h5.611v2h-8.1V.664h8.084V2.682h-5.594V5.561h4.781Z" fill="#fff"/>
          <g id="Grupo_154000" data-name="Grupo 154000">
            <g id="Grupo_153999" data-name="Grupo 153999" clip-path="url(#clip-path)">
              <path id="Trazado_214701" data-name="Trazado 214701" d="M231.289,3.768l.075,1.038a3.134,3.134,0,0,1,2.581-1.2,2.6,2.6,0,0,1,2.125.839,3.907,3.907,0,0,1,.714,2.506v5.8h-2.4V6.992a1.567,1.567,0,0,0-.332-1.111,1.484,1.484,0,0,0-1.1-.344,1.651,1.651,0,0,0-1.519.864v6.348h-2.4V3.768Z" fill="#fff"/>
              <path id="Trazado_214702" data-name="Trazado 214702" d="M238.228,8.193a5.416,5.416,0,0,1,.942-3.346A3.057,3.057,0,0,1,241.748,3.6a2.748,2.748,0,0,1,2.166.98V0h2.407V12.75h-2.166l-.116-.955a2.822,2.822,0,0,1-2.308,1.121,3.048,3.048,0,0,1-2.544-1.249,5.584,5.584,0,0,1-.959-3.474m2.4.17a3.556,3.556,0,0,0,.44,1.943,1.43,1.43,0,0,0,1.278.676,1.6,1.6,0,0,0,1.569-.942V6.478a1.581,1.581,0,0,0-1.552-.941q-1.735,0-1.735,2.826" fill="#fff"/>
              <path id="Trazado_214703" data-name="Trazado 214703" d="M247.807,8.176a5.326,5.326,0,0,1,.515-2.382A3.771,3.771,0,0,1,249.8,4.176a4.318,4.318,0,0,1,2.246-.573,4.086,4.086,0,0,1,2.967,1.112A4.463,4.463,0,0,1,256.3,7.736l.016.615a4.694,4.694,0,0,1-1.152,3.316,4.474,4.474,0,0,1-6.2,0,4.777,4.777,0,0,1-1.158-3.387Zm2.4.171a3.359,3.359,0,0,0,.482,1.958,1.731,1.731,0,0,0,2.74.008,3.688,3.688,0,0,0,.489-2.141,3.333,3.333,0,0,0-.489-1.945,1.6,1.6,0,0,0-1.379-.69,1.564,1.564,0,0,0-1.361.686,3.734,3.734,0,0,0-.482,2.124M252.523,0h2.614l-2.3,2.573h-1.95Z" fill="#fff"/>
              <path id="Trazado_214704" data-name="Trazado 214704" d="M257.445,8.193a5.261,5.261,0,0,1,.984-3.329A3.187,3.187,0,0,1,261.081,3.6a2.8,2.8,0,0,1,2.3,1.013l.1-.847h2.174v8.683a3.842,3.842,0,0,1-.535,2.051,3.45,3.45,0,0,1-1.506,1.328,5.306,5.306,0,0,1-2.275.456,4.925,4.925,0,0,1-1.926-.395,3.41,3.41,0,0,1-1.419-1.016l1.062-1.461a2.81,2.81,0,0,0,2.175,1,2.059,2.059,0,0,0,1.486-.51,1.916,1.916,0,0,0,.531-1.449v-.481a2.775,2.775,0,0,1-2.183.938,3.176,3.176,0,0,1-2.618-1.266,5.261,5.261,0,0,1-1-3.357Zm2.4.17a3.3,3.3,0,0,0,.49,1.923,1.556,1.556,0,0,0,1.344.7,1.663,1.663,0,0,0,1.569-.826V6.362a1.658,1.658,0,0,0-1.552-.825,1.563,1.563,0,0,0-1.357.708,3.716,3.716,0,0,0-.494,2.118" fill="#fff"/>
              <path id="Trazado_214705" data-name="Trazado 214705" d="M271.63,12.916a4.406,4.406,0,0,1-3.215-1.212,4.306,4.306,0,0,1-1.242-3.229V8.242a5.407,5.407,0,0,1,.524-2.419,3.823,3.823,0,0,1,1.481-1.643,4.154,4.154,0,0,1,2.187-.578,3.727,3.727,0,0,1,2.9,1.163,4.718,4.718,0,0,1,1.059,3.3v.979h-5.72a2.233,2.233,0,0,0,.7,1.412,2.121,2.121,0,0,0,1.482.531,2.589,2.589,0,0,0,2.166-1.005l1.179,1.32a3.6,3.6,0,0,1-1.461,1.191,4.8,4.8,0,0,1-2.043.428m-.273-7.379a1.5,1.5,0,0,0-1.158.483A2.507,2.507,0,0,0,269.63,7.4h3.337V7.213a1.786,1.786,0,0,0-.431-1.239,1.549,1.549,0,0,0-1.179-.437" fill="#fff"/>
              <path id="Trazado_214706" data-name="Trazado 214706" d="M278.894,3.768l.074,1.038a3.137,3.137,0,0,1,2.582-1.2,2.6,2.6,0,0,1,2.125.839,3.906,3.906,0,0,1,.714,2.506v5.8h-2.4V6.992a1.567,1.567,0,0,0-.332-1.111,1.484,1.484,0,0,0-1.1-.344,1.65,1.65,0,0,0-1.519.864v6.348h-2.4V3.768Z" fill="#fff"/>
              <path id="Trazado_214707" data-name="Trazado 214707" d="M285.834,8.176a5.328,5.328,0,0,1,.514-2.382,3.761,3.761,0,0,1,1.482-1.618,4.31,4.31,0,0,1,2.246-.573,4.091,4.091,0,0,1,2.967,1.112,4.468,4.468,0,0,1,1.283,3.022l.015.614a4.7,4.7,0,0,1-1.153,3.316,4.472,4.472,0,0,1-6.2,0,4.771,4.771,0,0,1-1.158-3.386Zm2.4.171a3.357,3.357,0,0,0,.482,1.958,1.728,1.728,0,0,0,2.739.008,3.668,3.668,0,0,0,.49-2.141,3.318,3.318,0,0,0-.49-1.945,1.59,1.59,0,0,0-1.377-.69,1.567,1.567,0,0,0-1.362.686,3.734,3.734,0,0,0-.482,2.124" fill="#fff"/>
            </g>
          </g>
          <path id="Trazado_214708" data-name="Trazado 214708" d="M226.665,55.412h-5.072V60.75H220V48.664h7.488v1.3h-5.894v4.142h5.072Z" fill="#0c1d30"/>
          <g id="Grupo_154002" data-name="Grupo 154002">
            <g id="Grupo_154001" data-name="Grupo 154001" clip-path="url(#clip-path)">
              <path id="Trazado_214709" data-name="Trazado 214709" d="M228.575,56.175a5.305,5.305,0,0,1,.519-2.373,3.865,3.865,0,0,1,1.444-1.627,3.93,3.93,0,0,1,2.113-.573,3.786,3.786,0,0,1,2.968,1.271,4.888,4.888,0,0,1,1.132,3.378v.108a5.35,5.35,0,0,1-.5,2.353,3.819,3.819,0,0,1-1.436,1.623,3.979,3.979,0,0,1-2.146.581,3.78,3.78,0,0,1-2.959-1.27,4.862,4.862,0,0,1-1.133-3.362Zm1.544.184a3.84,3.84,0,0,0,.693,2.4,2.349,2.349,0,0,0,3.715-.012,4.206,4.206,0,0,0,.689-2.57,3.832,3.832,0,0,0-.7-2.394,2.229,2.229,0,0,0-1.863-.917,2.206,2.206,0,0,0-1.835.905,4.168,4.168,0,0,0-.7,2.59" fill="#0c1d30"/>
              <path id="Trazado_214710" data-name="Trazado 214710" d="M243.018,53.146a4.562,4.562,0,0,0-.755-.059,2.025,2.025,0,0,0-2.051,1.288V60.75h-1.535V51.768h1.494l.025,1.038a2.389,2.389,0,0,1,2.141-1.2,1.578,1.578,0,0,1,.681.116Z" fill="#0c1d30"/>
              <path id="Trazado_214711" data-name="Trazado 214711" d="M246.928,49.594v2.175H248.6v1.186h-1.677v5.577a1.249,1.249,0,0,0,.224.811.945.945,0,0,0,.764.271,3.753,3.753,0,0,0,.73-.1v1.237a4.436,4.436,0,0,1-1.178.165,1.912,1.912,0,0,1-1.553-.623,2.674,2.674,0,0,1-.523-1.767V52.955h-1.635V51.769h1.635V49.594Z" fill="#0c1d30"/>
              <path id="Trazado_214712" data-name="Trazado 214712" d="M255.942,60.75a3.233,3.233,0,0,1-.215-.946,3.428,3.428,0,0,1-2.557,1.112,3.17,3.17,0,0,1-2.179-.751,2.432,2.432,0,0,1-.851-1.905,2.539,2.539,0,0,1,1.067-2.179,5.023,5.023,0,0,1,3-.776H255.7V54.6a1.728,1.728,0,0,0-.482-1.284,1.935,1.935,0,0,0-1.419-.476,2.235,2.235,0,0,0-1.378.414,1.224,1.224,0,0,0-.556,1h-1.544a2.119,2.119,0,0,1,.477-1.3,3.251,3.251,0,0,1,1.295-.992,4.364,4.364,0,0,1,1.8-.366,3.546,3.546,0,0,1,2.432.777,2.8,2.8,0,0,1,.913,2.137V58.65a5.037,5.037,0,0,0,.316,1.967v.133Zm-2.548-1.17a2.7,2.7,0,0,0,1.37-.374,2.263,2.263,0,0,0,.938-.972V56.392h-1.2q-2.821,0-2.822,1.652a1.4,1.4,0,0,0,.481,1.129,1.853,1.853,0,0,0,1.237.407" fill="#0c1d30"/>
              <rect id="Rectángulo_44087" data-name="Rectángulo 44087" width="1.536" height="12.75" transform="translate(259.777 48)" fill="#0c1d30"/>
              <path id="Trazado_214713" data-name="Trazado 214713" d="M267.5,60.916a3.928,3.928,0,0,1-2.972-1.2,4.457,4.457,0,0,1-1.145-3.209v-.282a5.391,5.391,0,0,1,.51-2.386,3.981,3.981,0,0,1,1.428-1.644,3.594,3.594,0,0,1,1.988-.594,3.365,3.365,0,0,1,2.723,1.154,5,5,0,0,1,.97,3.3V56.7h-6.084a3.184,3.184,0,0,0,.777,2.145,2.438,2.438,0,0,0,1.887.818,2.682,2.682,0,0,0,1.379-.332,3.472,3.472,0,0,0,.988-.879l.938.73a3.772,3.772,0,0,1-3.387,1.735m-.191-8.052a2.05,2.05,0,0,0-1.561.677,3.294,3.294,0,0,0-.78,1.9h4.5v-.116a2.922,2.922,0,0,0-.631-1.813,1.927,1.927,0,0,0-1.527-.644" fill="#0c1d30"/>
              <path id="Trazado_214714" data-name="Trazado 214714" d="M274.22,59.5h5.255V60.75h-7.13V59.621l4.955-6.582h-4.881V51.768h6.807v1.087Z" fill="#0c1d30"/>
              <path id="Trazado_214715" data-name="Trazado 214715" d="M286.747,60.75a3.193,3.193,0,0,1-.216-.946,3.428,3.428,0,0,1-2.557,1.112,3.169,3.169,0,0,1-2.178-.751,2.429,2.429,0,0,1-.851-1.905,2.541,2.541,0,0,1,1.066-2.179,5.023,5.023,0,0,1,3-.776h1.5V54.6a1.731,1.731,0,0,0-.481-1.284,1.937,1.937,0,0,0-1.42-.476,2.235,2.235,0,0,0-1.378.414,1.225,1.225,0,0,0-.555,1h-1.545a2.125,2.125,0,0,1,.477-1.3,3.258,3.258,0,0,1,1.295-.992,4.372,4.372,0,0,1,1.8-.366,3.548,3.548,0,0,1,2.432.777,2.8,2.8,0,0,1,.913,2.137V58.65a5.038,5.038,0,0,0,.315,1.967v.133ZM284.2,59.58a2.7,2.7,0,0,0,1.369-.374,2.258,2.258,0,0,0,.938-.972V56.392h-1.2q-2.822,0-2.823,1.652a1.4,1.4,0,0,0,.482,1.129,1.851,1.851,0,0,0,1.237.407" fill="#0c1d30"/>
              <path id="Trazado_214716" data-name="Trazado 214716" d="M295.678,58.367a1.131,1.131,0,0,0-.469-.967,4.53,4.53,0,0,0-1.635-.594,7.736,7.736,0,0,1-1.851-.6,2.639,2.639,0,0,1-1.013-.83,1.98,1.98,0,0,1-.328-1.145,2.332,2.332,0,0,1,.934-1.868A3.648,3.648,0,0,1,293.7,51.6a3.758,3.758,0,0,1,2.478.788,2.507,2.507,0,0,1,.95,2.018h-1.543a1.388,1.388,0,0,0-.536-1.088,2,2,0,0,0-1.349-.456,2.1,2.1,0,0,0-1.311.365,1.148,1.148,0,0,0-.474.954.932.932,0,0,0,.441.839,5.4,5.4,0,0,0,1.59.54,8.258,8.258,0,0,1,1.863.614,2.717,2.717,0,0,1,1.058.859,2.111,2.111,0,0,1,.345,1.225,2.3,2.3,0,0,1-.963,1.929,4.033,4.033,0,0,1-2.5.727,4.512,4.512,0,0,1-1.909-.382,3.115,3.115,0,0,1-1.3-1.066,2.578,2.578,0,0,1-.469-1.482h1.536a1.59,1.59,0,0,0,.618,1.224,2.4,2.4,0,0,0,1.523.452,2.47,2.47,0,0,0,1.4-.353,1.083,1.083,0,0,0,.527-.942" fill="#0c1d30"/>
              <path id="Trazado_214717" data-name="Trazado 214717" d="M220,108.75V96.664h3.412a5.492,5.492,0,0,1,2.789.7,4.71,4.71,0,0,1,1.872,1.984,6.458,6.458,0,0,1,.668,2.955v.771a6.482,6.482,0,0,1-.66,3,4.646,4.646,0,0,1-1.884,1.976,5.845,5.845,0,0,1-2.852.705Zm1.594-10.783v9.48h1.677a3.647,3.647,0,0,0,2.867-1.146,4.739,4.739,0,0,0,1.026-3.266v-.706a4.811,4.811,0,0,0-.967-3.2,3.445,3.445,0,0,0-2.744-1.159Z" fill="#0c1d30"/>
              <path id="Trazado_214718" data-name="Trazado 214718" d="M234.634,108.916a3.928,3.928,0,0,1-2.972-1.2,4.457,4.457,0,0,1-1.145-3.209v-.282a5.392,5.392,0,0,1,.51-2.386,3.981,3.981,0,0,1,1.428-1.644,3.6,3.6,0,0,1,1.988-.594,3.367,3.367,0,0,1,2.723,1.154,5,5,0,0,1,.971,3.3v.639h-6.085a3.184,3.184,0,0,0,.777,2.145,2.438,2.438,0,0,0,1.888.818,2.681,2.681,0,0,0,1.378-.332,3.472,3.472,0,0,0,.988-.879l.938.73a3.772,3.772,0,0,1-3.387,1.735m-.191-8.052a2.05,2.05,0,0,0-1.561.677,3.293,3.293,0,0,0-.78,1.9h4.5v-.116a2.915,2.915,0,0,0-.631-1.813,1.927,1.927,0,0,0-1.527-.644" fill="#0c1d30"/>
              <path id="Trazado_214719" data-name="Trazado 214719" d="M247.517,104.359a5.338,5.338,0,0,1-.947,3.307,3.022,3.022,0,0,1-2.54,1.249,3.132,3.132,0,0,1-2.631-1.2l-.075,1.037h-1.411V96h1.536v4.756a3.114,3.114,0,0,1,2.565-1.153,3.042,3.042,0,0,1,2.569,1.237,5.5,5.5,0,0,1,.934,3.387Zm-1.536-.175a4.15,4.15,0,0,0-.606-2.424,2.005,2.005,0,0,0-1.743-.854,2.253,2.253,0,0,0-2.183,1.41V106.2a2.317,2.317,0,0,0,2.2,1.412,2,2,0,0,0,1.719-.856,4.415,4.415,0,0,0,.614-2.573" fill="#0c1d30"/>
              <path id="Trazado_214720" data-name="Trazado 214720" d="M249.459,97.387a.92.92,0,0,1,.228-.631.858.858,0,0,1,.677-.258.87.87,0,0,1,.681.258.9.9,0,0,1,.232.631.877.877,0,0,1-.232.622.887.887,0,0,1-.681.249.875.875,0,0,1-.677-.249.892.892,0,0,1-.228-.622m1.661,11.363h-1.536V99.769h1.536Z" fill="#0c1d30"/>
              <rect id="Rectángulo_44088" data-name="Rectángulo 44088" width="1.536" height="12.75" transform="translate(253.709 96)" fill="#0c1d30"/>
              <path id="Trazado_214721" data-name="Trazado 214721" d="M257.71,97.387a.92.92,0,0,1,.228-.631.858.858,0,0,1,.677-.258.87.87,0,0,1,.681.258.9.9,0,0,1,.232.631.877.877,0,0,1-.232.622.887.887,0,0,1-.681.249.875.875,0,0,1-.677-.249.892.892,0,0,1-.228-.622m1.661,11.363h-1.536V99.769h1.536Z" fill="#0c1d30"/>
              <path id="Trazado_214722" data-name="Trazado 214722" d="M261.454,104.184a5.259,5.259,0,0,1,.98-3.324,3.333,3.333,0,0,1,5.064-.179V96h1.535v12.75h-1.411l-.075-.963a3.126,3.126,0,0,1-2.565,1.129,3.067,3.067,0,0,1-2.544-1.279,5.321,5.321,0,0,1-.984-3.337Zm1.536.175a3.986,3.986,0,0,0,.631,2.391,2.039,2.039,0,0,0,1.743.863A2.242,2.242,0,0,0,267.5,106.3v-4.125a2.26,2.26,0,0,0-2.117-1.269,2.048,2.048,0,0,0-1.76.871,4.382,4.382,0,0,0-.631,2.582" fill="#0c1d30"/>
              <path id="Trazado_214723" data-name="Trazado 214723" d="M276.961,108.75a3.219,3.219,0,0,1-.217-.946,3.425,3.425,0,0,1-2.557,1.112,3.165,3.165,0,0,1-2.177-.751,2.426,2.426,0,0,1-.852-1.9,2.541,2.541,0,0,1,1.066-2.179,5.024,5.024,0,0,1,3-.776h1.495V102.6a1.732,1.732,0,0,0-.482-1.284,1.934,1.934,0,0,0-1.42-.476,2.234,2.234,0,0,0-1.377.414,1.224,1.224,0,0,0-.556,1.005h-1.544a2.119,2.119,0,0,1,.477-1.3,3.258,3.258,0,0,1,1.3-.992,4.367,4.367,0,0,1,1.8-.366,3.546,3.546,0,0,1,2.432.777,2.8,2.8,0,0,1,.914,2.137v4.134a5.059,5.059,0,0,0,.314,1.967v.133Zm-2.549-1.17a2.7,2.7,0,0,0,1.369-.374,2.266,2.266,0,0,0,.939-.972v-1.842h-1.2q-2.821,0-2.823,1.652a1.4,1.4,0,0,0,.483,1.129,1.847,1.847,0,0,0,1.236.407" fill="#0c1d30"/>
              <path id="Trazado_214724" data-name="Trazado 214724" d="M280.289,104.184a5.259,5.259,0,0,1,.979-3.324,3.333,3.333,0,0,1,5.064-.179V96h1.535v12.75h-1.41l-.075-.963a3.129,3.129,0,0,1-2.566,1.129,3.064,3.064,0,0,1-2.543-1.279,5.32,5.32,0,0,1-.984-3.337Zm1.535.175a3.993,3.993,0,0,0,.631,2.391,2.042,2.042,0,0,0,1.744.863,2.24,2.24,0,0,0,2.133-1.313v-4.125a2.258,2.258,0,0,0-2.117-1.269,2.05,2.05,0,0,0-1.76.871,4.39,4.39,0,0,0-.631,2.582" fill="#0c1d30"/>
              <path id="Trazado_214725" data-name="Trazado 214725" d="M293.976,108.916a3.924,3.924,0,0,1-2.97-1.2,4.454,4.454,0,0,1-1.147-3.209v-.282a5.392,5.392,0,0,1,.511-2.386A3.981,3.981,0,0,1,291.8,100.2a3.6,3.6,0,0,1,1.988-.594,3.367,3.367,0,0,1,2.723,1.154,5,5,0,0,1,.971,3.3v.639h-6.085a3.189,3.189,0,0,0,.777,2.145,2.44,2.44,0,0,0,1.888.818,2.675,2.675,0,0,0,1.377-.332,3.462,3.462,0,0,0,.989-.879l.937.73a3.77,3.77,0,0,1-3.387,1.735m-.19-8.052a2.05,2.05,0,0,0-1.561.677,3.293,3.293,0,0,0-.78,1.9h4.5v-.116a2.922,2.922,0,0,0-.631-1.813,1.927,1.927,0,0,0-1.527-.644" fill="#0c1d30"/>
              <path id="Trazado_214726" data-name="Trazado 214726" d="M304.486,106.367a1.131,1.131,0,0,0-.469-.967,4.529,4.529,0,0,0-1.636-.594,7.71,7.71,0,0,1-1.85-.6,2.643,2.643,0,0,1-1.014-.83,1.988,1.988,0,0,1-.328-1.145,2.335,2.335,0,0,1,.934-1.868,3.65,3.65,0,0,1,2.386-.764,3.759,3.759,0,0,1,2.479.788,2.51,2.51,0,0,1,.95,2.018h-1.544a1.387,1.387,0,0,0-.535-1.088,2.009,2.009,0,0,0-1.35-.456,2.1,2.1,0,0,0-1.31.365,1.146,1.146,0,0,0-.474.954.932.932,0,0,0,.441.839,5.382,5.382,0,0,0,1.59.54,8.292,8.292,0,0,1,1.863.614,2.725,2.725,0,0,1,1.058.859,2.118,2.118,0,0,1,.344,1.225,2.3,2.3,0,0,1-.963,1.929,4.032,4.032,0,0,1-2.5.727,4.52,4.52,0,0,1-1.91-.382,3.115,3.115,0,0,1-1.3-1.066,2.578,2.578,0,0,1-.469-1.482h1.536a1.591,1.591,0,0,0,.619,1.224,2.4,2.4,0,0,0,1.523.452,2.475,2.475,0,0,0,1.4-.353,1.083,1.083,0,0,0,.527-.942" fill="#0c1d30"/>
            </g>
          </g>
          <path id="Trazado_214727" data-name="Trazado 214727" d="M425.948,7.5h-4.781V10.75h5.611v2h-8.1V.664h8.084V2.682h-5.594V5.561h4.781Z" fill="#fff"/>
          <path id="Trazado_214728" data-name="Trazado 214728" d="M431.5,6.449l1.51-2.681h2.565l-2.556,4.4,2.665,4.582H433.11l-1.6-2.822-1.594,2.822h-2.582L430,8.168l-2.548-4.4h2.572Z" fill="#fff"/>
          <g id="Grupo_154004" data-name="Grupo 154004">
            <g id="Grupo_154003" data-name="Grupo 154003" clip-path="url(#clip-path)">
              <path id="Trazado_214729" data-name="Trazado 214729" d="M436.025,8.176a5.325,5.325,0,0,1,.515-2.382,3.765,3.765,0,0,1,1.481-1.618,4.315,4.315,0,0,1,2.246-.573,4.09,4.09,0,0,1,2.967,1.112,4.463,4.463,0,0,1,1.283,3.021l.016.615a4.7,4.7,0,0,1-1.153,3.316,4.473,4.473,0,0,1-6.2,0,4.777,4.777,0,0,1-1.158-3.387Zm2.4.171a3.359,3.359,0,0,0,.482,1.958,1.729,1.729,0,0,0,2.738.008,3.672,3.672,0,0,0,.491-2.141,3.318,3.318,0,0,0-.491-1.945,1.59,1.59,0,0,0-1.377-.69,1.564,1.564,0,0,0-1.361.686,3.733,3.733,0,0,0-.482,2.124M440.74,0h2.615l-2.3,2.573h-1.95Z" fill="#fff"/>
              <path id="Trazado_214730" data-name="Trazado 214730" d="M445.662,8.193a5.261,5.261,0,0,1,.984-3.329A3.186,3.186,0,0,1,449.3,3.6a2.8,2.8,0,0,1,2.3,1.013l.1-.847h2.175v8.683a3.843,3.843,0,0,1-.536,2.051,3.45,3.45,0,0,1-1.506,1.328,5.309,5.309,0,0,1-2.275.456,4.925,4.925,0,0,1-1.926-.395,3.4,3.4,0,0,1-1.419-1.016l1.063-1.461a2.808,2.808,0,0,0,2.174,1,2.057,2.057,0,0,0,1.486-.51,1.917,1.917,0,0,0,.531-1.449v-.481a2.774,2.774,0,0,1-2.183.938,3.179,3.179,0,0,1-2.618-1.266,5.261,5.261,0,0,1-1-3.357Zm2.4.17a3.3,3.3,0,0,0,.489,1.923,1.56,1.56,0,0,0,1.346.7,1.662,1.662,0,0,0,1.568-.826V6.362a1.658,1.658,0,0,0-1.552-.825,1.564,1.564,0,0,0-1.357.708,3.716,3.716,0,0,0-.494,2.118" fill="#fff"/>
              <path id="Trazado_214731" data-name="Trazado 214731" d="M459.848,12.916a4.4,4.4,0,0,1-3.215-1.212,4.3,4.3,0,0,1-1.243-3.229V8.242a5.421,5.421,0,0,1,.524-2.419A3.825,3.825,0,0,1,457.4,4.18a4.152,4.152,0,0,1,2.187-.578,3.727,3.727,0,0,1,2.9,1.163,4.723,4.723,0,0,1,1.059,3.3v.979h-5.72a2.228,2.228,0,0,0,.7,1.412,2.117,2.117,0,0,0,1.481.531,2.591,2.591,0,0,0,2.167-1.005l1.178,1.32a3.585,3.585,0,0,1-1.461,1.191,4.793,4.793,0,0,1-2.042.428m-.274-7.379a1.5,1.5,0,0,0-1.158.483,2.522,2.522,0,0,0-.569,1.384h3.338V7.213a1.79,1.79,0,0,0-.431-1.239,1.553,1.553,0,0,0-1.18-.437" fill="#fff"/>
              <path id="Trazado_214732" data-name="Trazado 214732" d="M467.111,3.768l.075,1.038a3.135,3.135,0,0,1,2.581-1.2,2.6,2.6,0,0,1,2.125.839,3.912,3.912,0,0,1,.715,2.506v5.8h-2.4V6.992a1.567,1.567,0,0,0-.332-1.111,1.486,1.486,0,0,0-1.105-.344,1.648,1.648,0,0,0-1.518.864v6.348h-2.4V3.768Z" fill="#fff"/>
              <path id="Trazado_214733" data-name="Trazado 214733" d="M474.051,8.176a5.315,5.315,0,0,1,.515-2.382,3.759,3.759,0,0,1,1.481-1.618,4.315,4.315,0,0,1,2.246-.573,4.09,4.09,0,0,1,2.967,1.112,4.459,4.459,0,0,1,1.283,3.022l.016.614a4.7,4.7,0,0,1-1.153,3.316,4.473,4.473,0,0,1-6.2,0,4.776,4.776,0,0,1-1.158-3.386Zm2.4.171a3.365,3.365,0,0,0,.481,1.958,1.729,1.729,0,0,0,2.74.008,3.669,3.669,0,0,0,.489-2.141,3.319,3.319,0,0,0-.489-1.945,1.593,1.593,0,0,0-1.378-.69,1.569,1.569,0,0,0-1.362.686,3.742,3.742,0,0,0-.481,2.124" fill="#fff"/>
              <path id="Trazado_214734" data-name="Trazado 214734" d="M428.3,55.1a7.468,7.468,0,0,1-.6,3.1,4.525,4.525,0,0,1-1.693,2.021,4.672,4.672,0,0,1-6.8-2,7.167,7.167,0,0,1-.627-3.008v-.871a7.375,7.375,0,0,1,.607-3.081,4.483,4.483,0,0,1,4.25-2.755,4.683,4.683,0,0,1,2.56.7,4.512,4.512,0,0,1,1.7,2.034,7.5,7.5,0,0,1,.6,3.1Zm-1.585-.781a5.422,5.422,0,0,0-.863-3.3,2.848,2.848,0,0,0-2.415-1.15,2.818,2.818,0,0,0-2.379,1.15,5.32,5.32,0,0,0-.893,3.192V55.1a5.433,5.433,0,0,0,.876,3.275,3.07,3.07,0,0,0,4.8.066,5.4,5.4,0,0,0,.872-3.226Z" fill="#0c1d30"/>
              <path id="Trazado_214735" data-name="Trazado 214735" d="M438.034,56.359a5.372,5.372,0,0,1-.938,3.3,3.006,3.006,0,0,1-2.539,1.253,3.3,3.3,0,0,1-2.575-1.037V64.2h-1.535V51.768h1.4l.075,1a3.166,3.166,0,0,1,2.606-1.162,3.064,3.064,0,0,1,2.561,1.22,5.432,5.432,0,0,1,.942,3.4Zm-1.536-.175a3.973,3.973,0,0,0-.646-2.4,2.089,2.089,0,0,0-1.778-.879,2.258,2.258,0,0,0-2.092,1.236v4.291a2.264,2.264,0,0,0,2.11,1.229,2.076,2.076,0,0,0,1.755-.875,4.338,4.338,0,0,0,.651-2.6" fill="#0c1d30"/>
              <path id="Trazado_214736" data-name="Trazado 214736" d="M439.578,56.175a5.292,5.292,0,0,1,.52-2.373,3.856,3.856,0,0,1,1.443-1.627,3.93,3.93,0,0,1,2.113-.573,3.784,3.784,0,0,1,2.967,1.271,4.878,4.878,0,0,1,1.133,3.378v.108a5.35,5.35,0,0,1-.5,2.353,3.812,3.812,0,0,1-1.436,1.623,3.982,3.982,0,0,1-2.146.581,3.782,3.782,0,0,1-2.959-1.27,4.862,4.862,0,0,1-1.133-3.362Zm1.544.184a3.846,3.846,0,0,0,.692,2.4,2.349,2.349,0,0,0,3.715-.012,4.2,4.2,0,0,0,.69-2.57,3.844,3.844,0,0,0-.7-2.394,2.232,2.232,0,0,0-1.864-.917,2.206,2.206,0,0,0-1.835.905,4.168,4.168,0,0,0-.7,2.59" fill="#0c1d30"/>
              <path id="Trazado_214737" data-name="Trazado 214737" d="M454.021,53.146a4.566,4.566,0,0,0-.756-.059,2.025,2.025,0,0,0-2.05,1.288V60.75h-1.536V51.768h1.494l.026,1.038a2.39,2.39,0,0,1,2.141-1.2,1.575,1.575,0,0,1,.681.116Z" fill="#0c1d30"/>
              <path id="Trazado_214738" data-name="Trazado 214738" d="M457.931,49.594v2.175h1.676v1.186h-1.676v5.577a1.244,1.244,0,0,0,.224.811.941.941,0,0,0,.763.271,3.762,3.762,0,0,0,.731-.1v1.237a4.438,4.438,0,0,1-1.179.165,1.915,1.915,0,0,1-1.553-.623,2.68,2.68,0,0,1-.522-1.767V52.955h-1.636V51.769h1.636V49.594Z" fill="#0c1d30"/>
              <path id="Trazado_214739" data-name="Trazado 214739" d="M466.945,59.861a3.262,3.262,0,0,1-2.631,1.055,2.8,2.8,0,0,1-2.187-.834,3.621,3.621,0,0,1-.76-2.47V51.768H462.9v5.8q0,2.042,1.66,2.043A2.3,2.3,0,0,0,466.9,58.3V51.768h1.535V60.75h-1.461Z" fill="#0c1d30"/>
              <path id="Trazado_214740" data-name="Trazado 214740" d="M472.224,51.768l.051,1.129a3.271,3.271,0,0,1,2.689-1.295q2.847,0,2.871,3.212v5.935H476.3V54.806a2.064,2.064,0,0,0-.444-1.435,1.775,1.775,0,0,0-1.357-.465,2.223,2.223,0,0,0-1.312.4,2.7,2.7,0,0,0-.879,1.045v6.4h-1.536V51.768Z" fill="#0c1d30"/>
              <path id="Trazado_214741" data-name="Trazado 214741" d="M480.16,49.387a.915.915,0,0,1,.228-.631.858.858,0,0,1,.677-.258.87.87,0,0,1,.681.258.909.909,0,0,1,.232.631.909.909,0,1,1-1.818,0m1.66,11.363h-1.535V51.769h1.535Z" fill="#0c1d30"/>
              <path id="Trazado_214742" data-name="Trazado 214742" d="M483.9,56.184a5.259,5.259,0,0,1,.979-3.324,3.333,3.333,0,0,1,5.064-.179V48h1.535V60.75h-1.41L490,59.787a3.129,3.129,0,0,1-2.566,1.129,3.064,3.064,0,0,1-2.543-1.279A5.32,5.32,0,0,1,483.9,56.3Zm1.535.175a3.992,3.992,0,0,0,.631,2.391,2.042,2.042,0,0,0,1.744.863,2.24,2.24,0,0,0,2.133-1.313V54.175a2.258,2.258,0,0,0-2.117-1.269,2.05,2.05,0,0,0-1.76.871,4.39,4.39,0,0,0-.631,2.582" fill="#0c1d30"/>
              <path id="Trazado_214743" data-name="Trazado 214743" d="M499.41,60.75a3.259,3.259,0,0,1-.216-.946,3.427,3.427,0,0,1-2.557,1.112,3.165,3.165,0,0,1-2.178-.751,2.429,2.429,0,0,1-.852-1.905,2.539,2.539,0,0,1,1.067-2.179,5.024,5.024,0,0,1,3-.776h1.5V54.6a1.729,1.729,0,0,0-.483-1.284,1.932,1.932,0,0,0-1.419-.476,2.237,2.237,0,0,0-1.378.414,1.224,1.224,0,0,0-.556,1h-1.543a2.117,2.117,0,0,1,.476-1.3,3.258,3.258,0,0,1,1.3-.992,4.367,4.367,0,0,1,1.8-.366,3.551,3.551,0,0,1,2.433.777,2.8,2.8,0,0,1,.913,2.137V58.65a5.057,5.057,0,0,0,.315,1.967v.133Zm-2.549-1.17a2.7,2.7,0,0,0,1.37-.374,2.266,2.266,0,0,0,.939-.972V56.392h-1.205q-2.821,0-2.822,1.652a1.4,1.4,0,0,0,.482,1.129,1.849,1.849,0,0,0,1.236.407" fill="#0c1d30"/>
              <path id="Trazado_214744" data-name="Trazado 214744" d="M502.738,56.184a5.259,5.259,0,0,1,.98-3.324,3.332,3.332,0,0,1,5.063-.179V48h1.536V60.75h-1.411l-.074-.963a3.13,3.13,0,0,1-2.566,1.129,3.067,3.067,0,0,1-2.544-1.279,5.321,5.321,0,0,1-.984-3.337Zm1.536.175a3.986,3.986,0,0,0,.631,2.391,2.04,2.04,0,0,0,1.743.863,2.238,2.238,0,0,0,2.133-1.313V54.175a2.256,2.256,0,0,0-2.116-1.269,2.049,2.049,0,0,0-1.76.871,4.382,4.382,0,0,0-.631,2.582" fill="#0c1d30"/>
              <path id="Trazado_214745" data-name="Trazado 214745" d="M516.426,60.916a3.924,3.924,0,0,1-2.971-1.2,4.453,4.453,0,0,1-1.146-3.209v-.282a5.392,5.392,0,0,1,.511-2.386,3.974,3.974,0,0,1,1.428-1.644,3.592,3.592,0,0,1,1.988-.594,3.368,3.368,0,0,1,2.723,1.154,5,5,0,0,1,.97,3.3V56.7h-6.084a3.188,3.188,0,0,0,.776,2.145,2.441,2.441,0,0,0,1.888.818,2.676,2.676,0,0,0,1.378-.332,3.459,3.459,0,0,0,.988-.879l.938.73a3.772,3.772,0,0,1-3.387,1.735m-.19-8.052a2.049,2.049,0,0,0-1.561.677,3.294,3.294,0,0,0-.781,1.9h4.5v-.116a2.928,2.928,0,0,0-.631-1.813,1.929,1.929,0,0,0-1.527-.644" fill="#0c1d30"/>
              <path id="Trazado_214746" data-name="Trazado 214746" d="M526.935,58.367a1.131,1.131,0,0,0-.469-.967,4.515,4.515,0,0,0-1.635-.594,7.736,7.736,0,0,1-1.851-.6,2.632,2.632,0,0,1-1.013-.83,1.98,1.98,0,0,1-.328-1.145,2.332,2.332,0,0,1,.934-1.868,3.65,3.65,0,0,1,2.386-.764,3.754,3.754,0,0,1,2.478.788,2.508,2.508,0,0,1,.951,2.018h-1.545a1.387,1.387,0,0,0-.535-1.088,2.007,2.007,0,0,0-1.349-.456,2.1,2.1,0,0,0-1.311.365,1.147,1.147,0,0,0-.473.954.933.933,0,0,0,.44.839,5.393,5.393,0,0,0,1.59.54,8.292,8.292,0,0,1,1.863.614,2.717,2.717,0,0,1,1.058.859,2.111,2.111,0,0,1,.344,1.225,2.294,2.294,0,0,1-.963,1.929,4.03,4.03,0,0,1-2.5.727,4.518,4.518,0,0,1-1.909-.382,3.109,3.109,0,0,1-1.3-1.066,2.572,2.572,0,0,1-.47-1.482h1.537a1.59,1.59,0,0,0,.618,1.224,2.4,2.4,0,0,0,1.523.452,2.473,2.473,0,0,0,1.4-.353,1.083,1.083,0,0,0,.527-.942" fill="#0c1d30"/>
            </g>
          </g>
          <path id="Trazado_214747" data-name="Trazado 214747" d="M425.673,105.588h-5.062l-1.138,3.162h-1.644l4.616-12.086h1.394l4.623,12.086h-1.635Zm-4.582-1.3H425.2l-2.058-5.653Z" fill="#0c1d30"/>
          <g id="Grupo_154006" data-name="Grupo 154006">
            <g id="Grupo_154005" data-name="Grupo 154005" clip-path="url(#clip-path)">
              <path id="Trazado_214748" data-name="Trazado 214748" d="M431.293,99.768l.042,1A3.318,3.318,0,0,1,434,99.6a2.568,2.568,0,0,1,2.565,1.444A3.4,3.4,0,0,1,437.73,100a3.451,3.451,0,0,1,1.7-.4q2.953,0,3.005,3.13v6.017H440.9v-5.926a2.062,2.062,0,0,0-.44-1.441,1.939,1.939,0,0,0-1.477-.476,2.042,2.042,0,0,0-1.42.509,2.081,2.081,0,0,0-.656,1.374v5.96H435.36v-5.884a1.713,1.713,0,0,0-1.918-1.959,2.054,2.054,0,0,0-2.066,1.286v6.557h-1.535V99.768Z" fill="#0c1d30"/>
              <path id="Trazado_214749" data-name="Trazado 214749" d="M448.476,108.916a3.926,3.926,0,0,1-2.971-1.2,4.453,4.453,0,0,1-1.146-3.209v-.282a5.392,5.392,0,0,1,.51-2.386A3.989,3.989,0,0,1,446.3,100.2a3.6,3.6,0,0,1,1.988-.594,3.364,3.364,0,0,1,2.723,1.154,4.993,4.993,0,0,1,.971,3.3v.639h-6.085a3.189,3.189,0,0,0,.778,2.145,2.436,2.436,0,0,0,1.887.818,2.681,2.681,0,0,0,1.378-.332,3.476,3.476,0,0,0,.989-.879l.937.73a3.77,3.77,0,0,1-3.387,1.735m-.191-8.052a2.052,2.052,0,0,0-1.561.677,3.3,3.3,0,0,0-.779,1.9h4.5v-.116a2.916,2.916,0,0,0-.631-1.813,1.926,1.926,0,0,0-1.527-.644" fill="#0c1d30"/>
              <path id="Trazado_214750" data-name="Trazado 214750" d="M455.208,99.768l.049,1.129a3.274,3.274,0,0,1,2.689-1.3q2.848,0,2.873,3.212v5.935h-1.536v-5.943a2.059,2.059,0,0,0-.444-1.435,1.774,1.774,0,0,0-1.358-.465,2.215,2.215,0,0,0-1.31.4,2.706,2.706,0,0,0-.881,1.045v6.4h-1.535V99.768Z" fill="#0c1d30"/>
              <path id="Trazado_214751" data-name="Trazado 214751" d="M468.68,108.75a3.2,3.2,0,0,1-.216-.946,3.428,3.428,0,0,1-2.557,1.112,3.169,3.169,0,0,1-2.178-.751,2.429,2.429,0,0,1-.851-1.9,2.541,2.541,0,0,1,1.066-2.179,5.023,5.023,0,0,1,3-.776h1.495V102.6a1.731,1.731,0,0,0-.481-1.284,1.937,1.937,0,0,0-1.42-.476,2.235,2.235,0,0,0-1.378.414,1.225,1.225,0,0,0-.555,1.005H463.06a2.125,2.125,0,0,1,.477-1.3,3.258,3.258,0,0,1,1.3-.992,4.372,4.372,0,0,1,1.8-.366,3.548,3.548,0,0,1,2.432.777,2.8,2.8,0,0,1,.913,2.137v4.134a5.038,5.038,0,0,0,.315,1.967v.133Zm-2.548-1.17a2.7,2.7,0,0,0,1.369-.374,2.258,2.258,0,0,0,.938-.972v-1.842h-1.2q-2.821,0-2.823,1.652a1.4,1.4,0,0,0,.482,1.129,1.851,1.851,0,0,0,1.237.407" fill="#0c1d30"/>
              <path id="Trazado_214752" data-name="Trazado 214752" d="M473.827,107.5h5.255v1.254h-7.131v-1.129l4.955-6.582h-4.881V99.768h6.807v1.087Z" fill="#0c1d30"/>
              <path id="Trazado_214753" data-name="Trazado 214753" d="M486.353,108.75a3.219,3.219,0,0,1-.217-.946,3.425,3.425,0,0,1-2.557,1.112,3.165,3.165,0,0,1-2.177-.751,2.426,2.426,0,0,1-.852-1.9,2.541,2.541,0,0,1,1.066-2.179,5.024,5.024,0,0,1,3-.776h1.495V102.6a1.732,1.732,0,0,0-.482-1.284,1.934,1.934,0,0,0-1.42-.476,2.234,2.234,0,0,0-1.377.414,1.224,1.224,0,0,0-.556,1.005h-1.544a2.119,2.119,0,0,1,.477-1.3,3.258,3.258,0,0,1,1.3-.992,4.367,4.367,0,0,1,1.8-.366,3.546,3.546,0,0,1,2.432.777,2.8,2.8,0,0,1,.914,2.137v4.134a5.059,5.059,0,0,0,.314,1.967v.133Zm-2.549-1.17a2.7,2.7,0,0,0,1.369-.374,2.266,2.266,0,0,0,.939-.972v-1.842h-1.2q-2.821,0-2.823,1.652a1.4,1.4,0,0,0,.483,1.129,1.847,1.847,0,0,0,1.236.407" fill="#0c1d30"/>
              <path id="Trazado_214754" data-name="Trazado 214754" d="M495.285,106.367a1.131,1.131,0,0,0-.469-.967,4.529,4.529,0,0,0-1.636-.594,7.711,7.711,0,0,1-1.85-.6,2.643,2.643,0,0,1-1.014-.83,1.988,1.988,0,0,1-.328-1.145,2.335,2.335,0,0,1,.934-1.868,3.65,3.65,0,0,1,2.386-.764,3.759,3.759,0,0,1,2.479.788,2.51,2.51,0,0,1,.95,2.018h-1.544a1.387,1.387,0,0,0-.535-1.088,2.009,2.009,0,0,0-1.35-.456,2.1,2.1,0,0,0-1.31.365,1.146,1.146,0,0,0-.474.954.932.932,0,0,0,.441.839,5.382,5.382,0,0,0,1.59.54,8.292,8.292,0,0,1,1.863.614,2.725,2.725,0,0,1,1.058.859,2.118,2.118,0,0,1,.344,1.225,2.3,2.3,0,0,1-.963,1.929,4.032,4.032,0,0,1-2.5.727,4.52,4.52,0,0,1-1.91-.382,3.115,3.115,0,0,1-1.3-1.066,2.578,2.578,0,0,1-.469-1.482h1.536a1.591,1.591,0,0,0,.619,1.224,2.4,2.4,0,0,0,1.523.452,2.475,2.475,0,0,0,1.4-.353,1.083,1.083,0,0,0,.527-.942" fill="#0c1d30"/>
            </g>
          </g>
        </g>
      </g>
    </g>
  </g>
</svg>
