<svg xmlns="http://www.w3.org/2000/svg" xmlns:xlink="http://www.w3.org/1999/xlink" width="820" height="434" viewBox="0 0 820 434">
  <defs>
    <linearGradient id="linear-gradient" x1="0.858" y1="0.211" x2="-0.122" y2="1.124" gradientUnits="objectBoundingBox">
      <stop offset="0" stop-color="#fff"/>
      <stop offset="1" stop-color="#fff5db"/>
    </linearGradient>
    <clipPath id="clip-path">
      <rect id="Rectángulo_44378" data-name="Rectángulo 44378" width="602.883" height="420.25" fill="none"/>
    </clipPath>
  </defs>
  <g id="Grupo_154392" data-name="Grupo 154392" transform="translate(-390 -8282)">
    <g id="Grupo_153966" data-name="Grupo 153966">
      <rect id="Rectángulo_43184" data-name="Rectángulo 43184" width="820" height="423" transform="translate(390 8283)" fill="#fff"/>
      <rect id="Rectángulo_43027" data-name="Rectángulo 43027" width="552" height="352" transform="translate(553 8282)" fill="url(#linear-gradient)"/>
      <path id="Trazado_213249" data-name="Trazado 213249" d="M-6184-3242h-550.828" transform="translate(7289 11700)" fill="none" stroke="#707070" stroke-width="2"/>
      <path id="Trazado_213250" data-name="Trazado 213250" d="M-6382.828-3242h-352" transform="translate(-2412.414 15016.828) rotate(90)" fill="none" stroke="#707070" stroke-width="2"/>
      <path id="Trazado_213251" data-name="Trazado 213251" d="M-6637.933-3340.707h352.664V-3065.6" transform="translate(7190.933 11700)" fill="none" stroke="#9f321d" stroke-width="2" stroke-dasharray="4"/>
      <path id="Trazado_213252" data-name="Trazado 213252" d="M-6637.934-3340.707h138v192.855" transform="translate(7190.933 11782)" fill="none" stroke="#9f321d" stroke-width="2" stroke-dasharray="4"/>
      <path id="Trazado_213253" data-name="Trazado 213253" d="M-6637.934-3340.707h71.408v87.869" transform="translate(7190.933 11886)" fill="none" stroke="#9f321d" stroke-width="2" stroke-dasharray="4"/>
      <g id="Grupo_153315" data-name="Grupo 153315" transform="translate(-116 999.758)">
        <g id="cow" transform="translate(677 7381.242)">
          <g id="Grupo_153280" data-name="Grupo 153280" transform="translate(0 0)">
            <g id="Grupo_153279" data-name="Grupo 153279">
              <g id="Grupo_153278" data-name="Grupo 153278">
                <g id="Grupo_153277" data-name="Grupo 153277">
                  <g id="Grupo_153276" data-name="Grupo 153276">
                    <g id="Grupo_153275" data-name="Grupo 153275">
                      <g id="Grupo_153274" data-name="Grupo 153274">
                        <circle id="Elipse_4914" data-name="Elipse 4914" cx="22.5" cy="22.5" r="22.5" transform="translate(0 0)" fill="#fa6447"/>
                      </g>
                    </g>
                  </g>
                </g>
              </g>
            </g>
          </g>
          <path id="Trazado_213181" data-name="Trazado 213181" d="M138.892,80.462a21.835,21.835,0,0,0-.253-3.32L116.476,62.718l7.576,17.473-7.576-7.8-8.4,5.018-5.282,1.558L114,89.949l-8.461,5.425,9.378,7.162q.688.041,1.386.041A22.353,22.353,0,0,0,138.892,80.462Z" transform="translate(-93.892 -57.597)" fill="#9f321d"/>
        </g>
        <g id="estrella_1_" data-name="estrella (1)" transform="translate(681.786 7386.161)">
          <path id="Trazado_213145" data-name="Trazado 213145" d="M17.3,12.53l-5.659,10.4L0,25.1l10.743,4.559,6.554.9.946-6.908Z" transform="translate(0 -12.53)" fill="#ffdd46"/>
          <path id="Trazado_213146" data-name="Trazado 213146" d="M273.3,198.524l-11.351,2.127L256,203.978l3.648,6.942,7.041,7.937-1.533-11.738Z" transform="translate(-238.704 -185.957)" fill="#ff9e00"/>
          <path id="Trazado_213147" data-name="Trazado 213147" d="M97.783,294.128l10.69-5.085.878-4-.878-5.794-5.54,4.442Z" transform="translate(-91.176 -261.228)" fill="#ffdd46"/>
          <g id="Grupo_153262" data-name="Grupo 153262" transform="translate(0 0)">
            <path id="Trazado_213148" data-name="Trazado 213148" d="M256,279.249v9.794l10.69,5.085Z" transform="translate(-238.704 -261.228)" fill="#fcbe00"/>
            <path id="Trazado_213149" data-name="Trazado 213149" d="M273.3,25.1l-11.637-2.169L256,12.53V30.551Z" transform="translate(-238.704 -12.53)" fill="#fcbe00"/>
            <path id="Trazado_213150" data-name="Trazado 213150" d="M0,198.524l8.14,8.6L6.607,218.857,17.3,203.978Z" transform="translate(0 -185.957)" fill="#fcbe00"/>
          </g>
        </g>
      </g>
      <g id="cow-2" data-name="cow" transform="translate(561.033 8569.033)">
        <g id="Grupo_153280-2" data-name="Grupo 153280" transform="translate(-0.033 -0.033)">
          <g id="Grupo_153279-2" data-name="Grupo 153279" transform="translate(0 0)">
            <g id="Grupo_153278-2" data-name="Grupo 153278">
              <g id="Grupo_153277-2" data-name="Grupo 153277">
                <g id="Grupo_153276-2" data-name="Grupo 153276">
                  <g id="Grupo_153275-2" data-name="Grupo 153275">
                    <g id="Grupo_153274-2" data-name="Grupo 153274">
                      <circle id="Elipse_4914-2" data-name="Elipse 4914" cx="22.5" cy="22.5" r="22.5" transform="translate(0 0)" fill="#fa6447"/>
                    </g>
                  </g>
                </g>
              </g>
            </g>
          </g>
        </g>
        <path id="Trazado_213181-2" data-name="Trazado 213181" d="M138.705,81.548a22.647,22.647,0,0,0-.251-3.373L125.043,64.764l-1.1,16.509L107.432,64.764l.614,13.683-5.255,1.583,11.156,11.156-6.056,5.821,6.968,6.968q.684.041,1.379.042A22.468,22.468,0,0,0,138.705,81.548Z" transform="translate(-93.782 -59.093)" fill="#9f321d"/>
        <g id="Grupo_153281" data-name="Grupo 153281" transform="translate(11.848 5.671)">
          <path id="Trazado_213182" data-name="Trazado 213182" d="M141.394,72.063s-4.066-1.654-4.454-7.3c0,0-4.569,6.911.841,11.053S141.394,72.063,141.394,72.063Z" transform="translate(-135.137 -64.764)" fill="#555a66"/>
        </g>
        <g id="Grupo_153282" data-name="Grupo 153282" transform="translate(6.63 14.221)">
          <path id="Trazado_213183" data-name="Trazado 213183" d="M83.59,165.883s-3.107-3.981-7.864-3.69c0,0-.971,7.411,7.087,9Z" transform="translate(-75.69 -162.177)" fill="#ffb89c"/>
        </g>
        <g id="Grupo_153283" data-name="Grupo 153283" transform="translate(26.519 5.671)">
          <path id="Trazado_213184" data-name="Trazado 213184" d="M302.6,72.063s4.066-1.654,4.454-7.3c0,0,4.569,6.911-.841,11.053S302.6,72.063,302.6,72.063Z" transform="translate(-302.31 -64.764)" fill="#333940"/>
        </g>
        <g id="Grupo_153284" data-name="Grupo 153284" transform="translate(30.379 14.221)">
          <path id="Trazado_213185" data-name="Trazado 213185" d="M346.291,165.883s3.107-3.981,7.864-3.69c0,0,.971,7.411-7.087,9Z" transform="translate(-346.291 -162.177)" fill="#ff936b"/>
        </g>
        <g id="Grupo_153285" data-name="Grupo 153285" transform="translate(12.5 10.87)">
          <path id="Trazado_213186" data-name="Trazado 213186" d="M153.6,124h-2.821a8.214,8.214,0,0,0-8.146,9.269l1.616,12.478h16.541l.989-7.635Z" transform="translate(-142.568 -124.003)" fill="#fff"/>
        </g>
        <g id="Grupo_153286" data-name="Grupo 153286" transform="translate(22.455 10.87)">
          <path id="Trazado_213187" data-name="Trazado 213187" d="M257.081,124H256V145.75h8.27l.989-7.635-.563-4.759Z" transform="translate(-256 -124.003)" fill="#e9edf5"/>
        </g>
        <g id="Grupo_153287" data-name="Grupo 153287" transform="translate(12.848 29.252)">
          <path id="Trazado_213188" data-name="Trazado 213188" d="M161.335,343.429H150.944a4.412,4.412,0,0,1-4.412-4.412v-1.163a4.412,4.412,0,0,1,4.412-4.412h10.391a4.412,4.412,0,0,1,4.412,4.412v1.163A4.412,4.412,0,0,1,161.335,343.429Z" transform="translate(-146.532 -333.442)" fill="#ffb89c"/>
        </g>
        <g id="Grupo_153288" data-name="Grupo 153288" transform="translate(22.455 29.252)">
          <path id="Trazado_213189" data-name="Trazado 213189" d="M261.2,333.442H256v9.987h5.2a4.412,4.412,0,0,0,4.412-4.412v-1.163A4.412,4.412,0,0,0,261.2,333.442Z" transform="translate(-256 -333.442)" fill="#ff936b"/>
        </g>
        <g id="Grupo_153291" data-name="Grupo 153291" transform="translate(16.696 32.876)">
          <g id="Grupo_153289" data-name="Grupo 153289">
            <circle id="Elipse_4915" data-name="Elipse 4915" cx="1.694" cy="1.694" r="1.694" fill="#555a66"/>
          </g>
          <g id="Grupo_153290" data-name="Grupo 153290" transform="translate(8.129)">
            <circle id="Elipse_4916" data-name="Elipse 4916" cx="1.694" cy="1.694" r="1.694" fill="#333940"/>
          </g>
        </g>
        <g id="Grupo_153294" data-name="Grupo 153294" transform="translate(16.396 21.582)">
          <g id="Grupo_153292" data-name="Grupo 153292">
            <circle id="Elipse_4917" data-name="Elipse 4917" cx="1.65" cy="1.65" r="1.65" fill="#555a66"/>
          </g>
          <g id="Grupo_153293" data-name="Grupo 153293" transform="translate(8.817)">
            <circle id="Elipse_4918" data-name="Elipse 4918" cx="1.65" cy="1.65" r="1.65" fill="#333940"/>
          </g>
        </g>
        <g id="Grupo_153295" data-name="Grupo 153295" transform="translate(22.878 10.87)">
          <path id="Trazado_213190" data-name="Trazado 213190" d="M262.141,124h-1.317a6.055,6.055,0,0,1,1.947,3.107c.676,2.848.665,5.566,3.389,5.7,1.632.078,2.814,2.987,3.5,5.309l.627-4.843A8.214,8.214,0,0,0,262.141,124Z" transform="translate(-260.824 -124.003)" fill="#555a66"/>
        </g>
      </g>
      <g id="Grupo_153318" data-name="Grupo 153318" transform="translate(838.936 8568.503)">
        <g id="perro" transform="translate(0.065 0.327)">
          <g id="XMLID_181_" transform="translate(0 0)">
            <g id="XMLID_182_">
              <g id="XMLID_183_">
                <g id="XMLID_184_">
                  <g id="XMLID_185_">
                    <g id="XMLID_186_">
                      <g id="XMLID_187_">
                        <g id="XMLID_188_">
                          <g id="XMLID_189_">
                            <g id="XMLID_190_">
                              <g id="XMLID_191_">
                                <g id="XMLID_192_">
                                  <g id="XMLID_193_">
                                    <g id="XMLID_194_">
                                      <circle id="XMLID_195_" cx="23" cy="23" r="23" transform="translate(0 0.17)" fill="#fa6447"/>
                                    </g>
                                  </g>
                                </g>
                              </g>
                            </g>
                          </g>
                        </g>
                      </g>
                    </g>
                  </g>
                </g>
              </g>
            </g>
          </g>
          <path id="Trazado_213191" data-name="Trazado 213191" d="M122.335,146.973a22.666,22.666,0,0,0-1.583-8.348l-2.3-2.273-31.7,2.506-2.378,7.113,5.3,5.3,5,12.506,5.9,5.9A22.725,22.725,0,0,0,122.335,146.973Z" transform="translate(-76.73 -124.784)" fill="#9f321d"/>
          <g id="Grupo_153304" data-name="Grupo 153304" transform="translate(3.649 8.174)">
            <g id="Grupo_153298" data-name="Grupo 153298">
              <g id="Grupo_153296" data-name="Grupo 153296">
                <path id="Trazado_213192" data-name="Trazado 213192" d="M119.823,104.149s-4.257-3.454-5.634-3.287-3.021,4.969-3.021,4.969,2.422,4.355,3.3,6.34Z" transform="translate(-104.794 -100.613)" fill="#b56f40"/>
                <path id="Trazado_213193" data-name="Trazado 213193" d="M49.892,98.651a3.516,3.516,0,0,0-3.064-.358,38.347,38.347,0,0,0-6,2.329c-1.831.911-1.831,2.641-.61,5.208.851,1.789,3.037,6.208,3.98,5.608.448-.285,3.1-7.725,3.641-9.181C48.292,101.056,49.723,99.155,49.892,98.651Z" transform="translate(-39.368 -98.119)" fill="#cc8656"/>
              </g>
              <g id="Grupo_153297" data-name="Grupo 153297" transform="translate(23.432)">
                <path id="Trazado_213194" data-name="Trazado 213194" d="M303.328,104.149s4.257-3.454,5.634-3.287,3.022,4.969,3.022,4.969-2.422,4.355-3.3,6.34Z" transform="translate(-303.328 -100.613)" fill="#a35d2e"/>
                <path id="Trazado_213195" data-name="Trazado 213195" d="M354.079,98.651a3.516,3.516,0,0,1,3.064-.358,38.349,38.349,0,0,1,6,2.329c1.831.911,1.831,2.641.61,5.208-.851,1.789-3.037,6.208-3.98,5.608-.448-.285-3.1-7.725-3.641-9.181C355.679,101.056,354.248,99.155,354.079,98.651Z" transform="translate(-349.574 -98.119)" fill="#b56f40"/>
              </g>
            </g>
            <g id="Grupo_153302" data-name="Grupo 153302" transform="translate(8.147 1.969)">
              <path id="Trazado_213196" data-name="Trazado 213196" d="M163.58,138.383q-.176.364-.384.761c-3.13,5.953-2,11.454-9.739,11.454s-6.609-5.5-9.739-11.454q-.209-.4-.384-.761a42.486,42.486,0,0,0,2.624-8.946c.792-4.445,5.4-8.946,5.4-8.946a11.352,11.352,0,0,1,4.209,0s4.477,4.5,5.269,8.946A38.383,38.383,0,0,0,163.58,138.383Z" transform="translate(-142.252 -120.295)" fill="#fcf0e5"/>
              <path id="Trazado_213197" data-name="Trazado 213197" d="M266.246,138.388c-.117.243-.245.5-.384.762-3.131,5.953-2,11.454-9.74,11.454H256V120.3h.122a11.279,11.279,0,0,1,2.1.2s4.478,4.5,5.269,8.946A38.387,38.387,0,0,0,266.246,138.388Z" transform="translate(-244.917 -120.3)" fill="#eaddd3"/>
              <g id="Grupo_153299" data-name="Grupo 153299" transform="translate(7.326 20.163)">
                <path id="Trazado_213198" data-name="Trazado 213198" d="M217.434,347.437c-2.254,0-4.236.138-3.655,2.759.376,1.694,2.767,2.9,3.655,2.9s3.279-1.21,3.654-2.9C221.67,347.575,219.688,347.437,217.434,347.437Z" transform="translate(-213.677 -347.437)" fill="#70695e"/>
              </g>
              <g id="Grupo_153300" data-name="Grupo 153300" transform="translate(11.083 20.164)">
                <path id="Trazado_213199" data-name="Trazado 213199" d="M259.655,350.2c-.375,1.694-2.767,2.9-3.655,2.9V347.44C258.254,347.44,260.236,347.578,259.655,350.2Z" transform="translate(-256 -347.44)" fill="#5b554a"/>
              </g>
              <g id="Grupo_153301" data-name="Grupo 153301" transform="translate(0 0.197)">
                <path id="Trazado_213200" data-name="Trazado 213200" d="M139.046,138.167a22.931,22.931,0,0,1-6.814,2.236c-2.518-5.2.027-5.43.941-10.558a8.656,8.656,0,0,1,7.2-7.334C140.623,126.456,142.01,136.292,139.046,138.167Z" transform="translate(-131.15 -122.511)" fill="#cc8656"/>
                <path id="Trazado_213201" data-name="Trazado 213201" d="M282.562,140.4a22.526,22.526,0,0,1-6.76-2.2c-2.964-1.875-1.632-11.745-1.381-15.69a8.656,8.656,0,0,1,7.2,7.334C282.535,134.973,285.08,135.2,282.562,140.4Z" transform="translate(-261.234 -122.512)" fill="#b56f40"/>
              </g>
            </g>
            <g id="Grupo_153303" data-name="Grupo 153303" transform="translate(11.32 11.288)">
              <ellipse id="Elipse_4919" data-name="Elipse 4919" cx="1.425" cy="1.425" rx="1.425" ry="1.425" transform="translate(0 1.675) rotate(-35.851)" fill="#5b554a"/>
              <ellipse id="Elipse_4920" data-name="Elipse 4920" cx="1.425" cy="1.425" rx="1.425" ry="1.425" transform="translate(11.877 1.67) rotate(-35.851)" fill="#3a352e"/>
            </g>
          </g>
        </g>
      </g>
      <g id="Grupo_153319" data-name="Grupo 153319" transform="translate(839 8381)">
        <g id="cow-3" data-name="cow" transform="translate(0 0)">
          <g id="Grupo_153280-3" data-name="Grupo 153280" transform="translate(0 0)">
            <g id="Grupo_153279-3" data-name="Grupo 153279">
              <g id="Grupo_153278-3" data-name="Grupo 153278" transform="translate(0 0)">
                <g id="Grupo_153277-3" data-name="Grupo 153277">
                  <g id="Grupo_153276-3" data-name="Grupo 153276">
                    <g id="Grupo_153275-3" data-name="Grupo 153275">
                      <g id="Grupo_153274-3" data-name="Grupo 153274">
                        <circle id="Elipse_4914-3" data-name="Elipse 4914" cx="22.216" cy="22.216" r="22.216" fill="#fa6447"/>
                      </g>
                    </g>
                  </g>
                </g>
              </g>
            </g>
          </g>
          <path id="Trazado_213181-3" data-name="Trazado 213181" d="M143.025,81.621a22.672,22.672,0,0,0-.252-3.376L127.188,64.909l1.059,16.437-3.787-5.951-3.394,7.213-4,3.516,2.09,4.667-5.423,8.789,5.423,4.49q.685.041,1.38.042A22.49,22.49,0,0,0,143.025,81.621Z" transform="translate(-98.025 -59.111)" fill="#9f321d"/>
        </g>
        <g id="signo-de-interrogacion" transform="translate(6.202 3.731)">
          <g id="Grupo_153266" data-name="Grupo 153266" transform="translate(0 0)">
            <g id="Grupo_153265" data-name="Grupo 153265" transform="translate(0 0)">
              <g id="Grupo_153264" data-name="Grupo 153264">
                <path id="Trazado_213151" data-name="Trazado 213151" d="M189.424,54.768l6.593-5.165,1.029-8.992-7.622-4.2-3.094,4.252a5.233,5.233,0,0,1-.6,9.614,7.429,7.429,0,0,0-4.928,7v1.351a3.187,3.187,0,0,0,3.186,3.187h4.66Z" transform="translate(-172.386 -33.745)" fill="#fe9738"/>
                <path id="Trazado_213152" data-name="Trazado 213152" d="M73.9,14.795H69.24a3.186,3.186,0,0,1-3.186-3.186A11.6,11.6,0,0,1,78.433.03h4.661L79.778,3.378" transform="translate(-66.054 -0.005)" fill="#fe9738"/>
              </g>
              <path id="Trazado_213153" data-name="Trazado 213153" d="M188.648,424.763h-4.66a3.186,3.186,0,0,0-3.186,3.186v.026a3.186,3.186,0,0,0,3.186,3.186h4.093" transform="translate(-172.384 -393.605)" fill="#fe9738"/>
            </g>
          </g>
          <g id="Grupo_153272" data-name="Grupo 153272" transform="translate(4.66 0)">
            <g id="Grupo_153271" data-name="Grupo 153271" transform="translate(0 0)">
              <g id="Grupo_153268" data-name="Grupo 153268" transform="translate(0 0)">
                <g id="Grupo_153267" data-name="Grupo 153267">
                  <path id="Trazado_213154" data-name="Trazado 213154" d="M141.188,28.081A3.186,3.186,0,0,1,138,24.895V23.543a7.426,7.426,0,0,1,4.928-7,5.232,5.232,0,1,0-6.922-5.668,5.328,5.328,0,0,0-.051.734,3.186,3.186,0,1,1-6.373,0,11.6,11.6,0,1,1,15.47,10.943,1.044,1.044,0,0,0-.68.992v1.352A3.186,3.186,0,0,1,141.188,28.081Z" transform="translate(-129.584 -0.005)" fill="#ffd15b"/>
                </g>
                <path id="Trazado_213155" data-name="Trazado 213155" d="M247.516,431.163a3.186,3.186,0,0,1-3.186-3.186v-.026a3.186,3.186,0,1,1,6.373,0v.026A3.186,3.186,0,0,1,247.516,431.163Z" transform="translate(-235.913 -393.606)" fill="#ffd15b"/>
              </g>
              <g id="Grupo_153270" data-name="Grupo 153270">
                <g id="Grupo_153269" data-name="Grupo 153269">
                  <path id="Trazado_213156" data-name="Trazado 213156" d="M132.512,9.99A11.614,11.614,0,0,0,132.4,11.6a3.184,3.184,0,0,0,1.778,2.859,3.187,3.187,0,0,1-4.595-2.858A11.606,11.606,0,0,1,141.962.025q.325.021.645.062a11.657,11.657,0,0,0-10.1,9.9Z" transform="translate(-129.583 0)" fill="#ffc344"/>
                  <path id="Trazado_213157" data-name="Trazado 213157" d="M252.084,97.049a7.429,7.429,0,0,0-4.929,7V105.4a3.185,3.185,0,0,0,1.779,2.858,3.187,3.187,0,0,1-4.595-2.858V104.05a7.427,7.427,0,0,1,4.929-7,5.233,5.233,0,0,0-.325-9.97,5.229,5.229,0,0,1,3.14,9.97Z" transform="translate(-235.921 -80.511)" fill="#ffc344"/>
                </g>
                <path id="Trazado_213158" data-name="Trazado 213158" d="M248.933,430.826a3.187,3.187,0,0,1-4.595-2.858v-.027a3.187,3.187,0,0,1,4.595-2.858,3.189,3.189,0,0,0-1.779,2.858v.027A3.185,3.185,0,0,0,248.933,430.826Z" transform="translate(-235.92 -393.596)" fill="#ffc344"/>
              </g>
            </g>
          </g>
        </g>
      </g>
      <rect id="Rectángulo_43028" data-name="Rectángulo 43028" width="93" height="21" transform="translate(717 8282)" fill="#636363"/>
      <rect id="Rectángulo_43030" data-name="Rectángulo 43030" width="104" height="21" transform="translate(981 8282)" fill="#636363"/>
      <rect id="Rectángulo_43029" data-name="Rectángulo 43029" width="93" height="21" transform="translate(717 8458)" fill="#636363"/>
      <rect id="Rectángulo_43031" data-name="Rectángulo 43031" width="104" height="21" transform="translate(981 8458)" fill="#636363"/>
      <path id="Trazado_213254" data-name="Trazado 213254" d="M-6184-3066.838h-551.41" transform="translate(7288.41 11701)" fill="none" stroke="#707070" stroke-width="1"/>
      <path id="Trazado_213255" data-name="Trazado 213255" d="M-6383.1-3066.838H-6735.41" transform="translate(3619.837 1898.99) rotate(-90)" fill="none" stroke="#707070" stroke-width="1"/>
      <path id="Trazado_213256" data-name="Trazado 213256" d="M0,0H820V39H0Z" transform="translate(390 8677)" fill="#9f321d"/>
      <g id="Grupo_154095" data-name="Grupo 154095" transform="translate(497 8285)">
        <g id="Grupo_154096" data-name="Grupo 154096">
          <g id="Grupo_154095-2" data-name="Grupo 154095" clip-path="url(#clip-path)">
            <path id="Trazado_215344" data-name="Trazado 215344" d="M8.023,13H.226V11.453l3.68-3.922A9.094,9.094,0,0,0,5.027,6.086,2.322,2.322,0,0,0,5.39,4.914a1.738,1.738,0,0,0-.383-1.191,1.382,1.382,0,0,0-1.093-.434,1.491,1.491,0,0,0-1.207.527A2.087,2.087,0,0,0,2.265,5.2H0a3.727,3.727,0,0,1,.5-1.9A3.482,3.482,0,0,1,1.9,1.957a4.268,4.268,0,0,1,2.055-.488,4.036,4.036,0,0,1,2.73.843A2.985,2.985,0,0,1,7.656,4.7a3.819,3.819,0,0,1-.438,1.719,9.582,9.582,0,0,1-1.5,2.039L3.132,11.18H8.023Z" fill="#9f321d"/>
            <path id="Trazado_215345" data-name="Trazado 215345" d="M17.063,8.3a5.761,5.761,0,0,1-.977,3.609,3.409,3.409,0,0,1-2.859,1.25,3.434,3.434,0,0,1-2.844-1.226A5.6,5.6,0,0,1,9.375,8.414V6.32A5.678,5.678,0,0,1,10.364,2.7a3.432,3.432,0,0,1,2.847-1.234,3.437,3.437,0,0,1,2.844,1.222A5.583,5.583,0,0,1,17.063,6.2Zm-2.258-2.3a4.163,4.163,0,0,0-.387-2.061,1.307,1.307,0,0,0-1.207-.645,1.285,1.285,0,0,0-1.176.614,3.907,3.907,0,0,0-.4,1.919V8.591a4.363,4.363,0,0,0,.379,2.068,1.289,1.289,0,0,0,1.215.677,1.268,1.268,0,0,0,1.195-.65A4.267,4.267,0,0,0,14.805,8.7Z" fill="#9f321d"/>
            <path id="Trazado_215346" data-name="Trazado 215346" d="M18.555,3.812a2.248,2.248,0,0,1,.679-1.7,2.468,2.468,0,0,1,1.781-.652,2.506,2.506,0,0,1,1.8.644,2.293,2.293,0,0,1,.68,1.746v.563a2.219,2.219,0,0,1-.68,1.7,2.491,2.491,0,0,1-1.781.641,2.506,2.506,0,0,1-1.793-.645,2.271,2.271,0,0,1-.683-1.738Zm1.5.612a1.06,1.06,0,0,0,.269.758.926.926,0,0,0,.707.287.881.881,0,0,0,.695-.291,1.129,1.129,0,0,0,.258-.778V3.818a1.1,1.1,0,0,0-.258-.761,1,1,0,0,0-1.406,0,1.128,1.128,0,0,0-.265.8Zm1.421,7.724-1.1-.593,5.554-8.891,1.1.594Zm2.516-1.937a2.217,2.217,0,0,1,.688-1.7,2.5,2.5,0,0,1,1.781-.645,2.524,2.524,0,0,1,1.793.637,2.282,2.282,0,0,1,.683,1.754v.562a2.238,2.238,0,0,1-.672,1.692,2.478,2.478,0,0,1-1.789.644,2.5,2.5,0,0,1-1.8-.648,2.267,2.267,0,0,1-.68-1.719Zm1.5.619a1.054,1.054,0,0,0,.281.738.914.914,0,0,0,.7.307q.954,0,.953-1.061v-.6a1.069,1.069,0,0,0-.265-.758,1,1,0,0,0-1.406,0,1.1,1.1,0,0,0-.266.781Z" fill="#9f321d"/>
          </g>
        </g>
        <path id="Trazado_215347" data-name="Trazado 215347" d="M5.468,80.61.757,82.3v1.82l2.7-.831V92H5.71V80.61Z" fill="#9f321d"/>
        <g id="Grupo_154098" data-name="Grupo 154098">
          <g id="Grupo_154097" data-name="Grupo 154097" clip-path="url(#clip-path)">
            <path id="Trazado_215348" data-name="Trazado 215348" d="M9.742,86.406l.656-5.781h6.375v1.883H12.25l-.281,2.445a3.582,3.582,0,0,1,1.711-.43,3.276,3.276,0,0,1,2.546,1.008,4.024,4.024,0,0,1,.922,2.82,4.123,4.123,0,0,1-.465,1.973,3.286,3.286,0,0,1-1.332,1.352,4.159,4.159,0,0,1-2.046.48,4.429,4.429,0,0,1-1.915-.418A3.393,3.393,0,0,1,10,90.562a3.2,3.2,0,0,1-.543-1.726h2.234a1.67,1.67,0,0,0,.5,1.105,1.574,1.574,0,0,0,1.114.395,1.388,1.388,0,0,0,1.179-.551,2.552,2.552,0,0,0,.414-1.559,2.114,2.114,0,0,0-.476-1.484,1.75,1.75,0,0,0-1.352-.516,1.954,1.954,0,0,0-1.3.422l-.219.2Z" fill="#9f321d"/>
            <path id="Trazado_215349" data-name="Trazado 215349" d="M18.555,82.812a2.248,2.248,0,0,1,.679-1.7,2.468,2.468,0,0,1,1.781-.652,2.506,2.506,0,0,1,1.8.644,2.293,2.293,0,0,1,.68,1.746v.563a2.219,2.219,0,0,1-.68,1.695,2.491,2.491,0,0,1-1.781.641,2.506,2.506,0,0,1-1.793-.645,2.271,2.271,0,0,1-.683-1.738Zm1.5.612a1.06,1.06,0,0,0,.269.758.926.926,0,0,0,.707.287.881.881,0,0,0,.695-.291,1.129,1.129,0,0,0,.258-.778v-.582a1.1,1.1,0,0,0-.258-.761,1,1,0,0,0-1.406,0,1.128,1.128,0,0,0-.265.8Zm1.421,7.724-1.1-.593,5.554-8.891,1.1.594Zm2.516-1.937a2.217,2.217,0,0,1,.688-1.7,2.5,2.5,0,0,1,1.781-.645,2.524,2.524,0,0,1,1.793.637,2.282,2.282,0,0,1,.683,1.754v.562a2.238,2.238,0,0,1-.672,1.692,2.478,2.478,0,0,1-1.789.644,2.5,2.5,0,0,1-1.8-.648,2.267,2.267,0,0,1-.68-1.719Zm1.5.619a1.054,1.054,0,0,0,.281.738.914.914,0,0,0,.7.307q.954,0,.953-1.061v-.6a1.069,1.069,0,0,0-.265-.758,1,1,0,0,0-1.406,0,1.1,1.1,0,0,0-.266.781Z" fill="#9f321d"/>
          </g>
        </g>
        <path id="Trazado_215350" data-name="Trazado 215350" d="M5.468,167.609.757,169.3v1.821l2.7-.832V179H5.71v-11.39Z" fill="#9f321d"/>
        <g id="Grupo_154100" data-name="Grupo 154100">
          <g id="Grupo_154099" data-name="Grupo 154099" clip-path="url(#clip-path)">
            <path id="Trazado_215351" data-name="Trazado 215351" d="M17.063,174.3a5.761,5.761,0,0,1-.977,3.609,3.409,3.409,0,0,1-2.859,1.25,3.434,3.434,0,0,1-2.844-1.226,5.6,5.6,0,0,1-1.008-3.516V172.32a5.678,5.678,0,0,1,.989-3.617,3.432,3.432,0,0,1,2.847-1.234,3.437,3.437,0,0,1,2.844,1.222,5.583,5.583,0,0,1,1.008,3.512Zm-2.258-2.3a4.163,4.163,0,0,0-.387-2.061,1.307,1.307,0,0,0-1.207-.645,1.285,1.285,0,0,0-1.176.614,3.907,3.907,0,0,0-.4,1.919v2.769a4.363,4.363,0,0,0,.379,2.068,1.289,1.289,0,0,0,1.215.677,1.268,1.268,0,0,0,1.195-.65,4.267,4.267,0,0,0,.383-1.986Z" fill="#9f321d"/>
            <path id="Trazado_215352" data-name="Trazado 215352" d="M18.555,169.812a2.248,2.248,0,0,1,.679-1.7,2.468,2.468,0,0,1,1.781-.652,2.506,2.506,0,0,1,1.8.644,2.293,2.293,0,0,1,.68,1.746v.563a2.219,2.219,0,0,1-.68,1.695,2.491,2.491,0,0,1-1.781.641,2.506,2.506,0,0,1-1.793-.645,2.271,2.271,0,0,1-.683-1.738Zm1.5.612a1.06,1.06,0,0,0,.269.758.926.926,0,0,0,.707.287.881.881,0,0,0,.695-.291,1.129,1.129,0,0,0,.258-.778v-.582a1.1,1.1,0,0,0-.258-.761,1,1,0,0,0-1.406,0,1.128,1.128,0,0,0-.265.8Zm1.421,7.724-1.1-.593,5.554-8.891,1.1.594Zm2.516-1.937a2.217,2.217,0,0,1,.688-1.7,2.5,2.5,0,0,1,1.781-.645,2.524,2.524,0,0,1,1.793.637,2.282,2.282,0,0,1,.683,1.754v.562a2.238,2.238,0,0,1-.672,1.692,2.478,2.478,0,0,1-1.789.644,2.5,2.5,0,0,1-1.8-.648,2.267,2.267,0,0,1-.68-1.719Zm1.5.619a1.054,1.054,0,0,0,.281.738.914.914,0,0,0,.7.307q.954,0,.953-1.061v-.6a1.069,1.069,0,0,0-.265-.758,1,1,0,0,0-1.406,0,1.1,1.1,0,0,0-.266.781Z" fill="#9f321d"/>
            <path id="Trazado_215353" data-name="Trazado 215353" d="M.563,274.406l.656-5.781H7.594v1.883H3.07l-.281,2.445a3.584,3.584,0,0,1,1.711-.43,3.28,3.28,0,0,1,2.547,1.008,4.028,4.028,0,0,1,.922,2.82,4.124,4.124,0,0,1-.466,1.973,3.283,3.283,0,0,1-1.331,1.352,4.163,4.163,0,0,1-2.047.48,4.425,4.425,0,0,1-1.914-.418,3.387,3.387,0,0,1-1.394-1.176,3.2,3.2,0,0,1-.544-1.726H2.507a1.674,1.674,0,0,0,.5,1.105,1.574,1.574,0,0,0,1.114.395,1.388,1.388,0,0,0,1.18-.551,2.553,2.553,0,0,0,.413-1.559,2.114,2.114,0,0,0-.476-1.484,1.749,1.749,0,0,0-1.352-.516,1.95,1.95,0,0,0-1.3.422l-.22.2Z" fill="#9f321d"/>
            <path id="Trazado_215354" data-name="Trazado 215354" d="M9.375,270.812a2.248,2.248,0,0,1,.679-1.7,2.468,2.468,0,0,1,1.781-.652,2.506,2.506,0,0,1,1.8.644,2.294,2.294,0,0,1,.681,1.746v.563a2.22,2.22,0,0,1-.681,1.7,2.491,2.491,0,0,1-1.781.641,2.506,2.506,0,0,1-1.793-.645,2.271,2.271,0,0,1-.683-1.738Zm1.5.612a1.06,1.06,0,0,0,.269.758.928.928,0,0,0,.707.287.881.881,0,0,0,.695-.291,1.129,1.129,0,0,0,.258-.778v-.582a1.1,1.1,0,0,0-.258-.761,1,1,0,0,0-1.4,0,1.129,1.129,0,0,0-.266.8Zm1.422,7.724-1.1-.593,5.554-8.891,1.1.594Zm2.516-1.937a2.216,2.216,0,0,1,.687-1.7,2.5,2.5,0,0,1,1.781-.645,2.525,2.525,0,0,1,1.793.637,2.282,2.282,0,0,1,.683,1.754v.562a2.238,2.238,0,0,1-.672,1.692,2.478,2.478,0,0,1-1.789.644,2.5,2.5,0,0,1-1.8-.648,2.266,2.266,0,0,1-.679-1.719Zm1.5.619a1.053,1.053,0,0,0,.28.738.914.914,0,0,0,.7.307q.954,0,.953-1.061v-.6a1.069,1.069,0,0,0-.265-.758,1,1,0,0,0-1.406,0,1.1,1.1,0,0,0-.265.781Z" fill="#9f321d"/>
            <path id="Trazado_215355" data-name="Trazado 215355" d="M7.883,340.3a5.761,5.761,0,0,1-.977,3.609,3.409,3.409,0,0,1-2.859,1.25A3.434,3.434,0,0,1,1.2,343.93a5.6,5.6,0,0,1-1.008-3.516V338.32a5.678,5.678,0,0,1,.989-3.617,3.432,3.432,0,0,1,2.847-1.234,3.437,3.437,0,0,1,2.844,1.222A5.583,5.583,0,0,1,7.883,338.2Zm-2.258-2.3a4.163,4.163,0,0,0-.387-2.061,1.307,1.307,0,0,0-1.207-.645,1.285,1.285,0,0,0-1.176.614,3.907,3.907,0,0,0-.4,1.919v2.769a4.363,4.363,0,0,0,.379,2.068,1.289,1.289,0,0,0,1.215.677,1.268,1.268,0,0,0,1.2-.65,4.267,4.267,0,0,0,.383-1.986Z" fill="#9f321d"/>
            <path id="Trazado_215356" data-name="Trazado 215356" d="M9.375,335.812a2.248,2.248,0,0,1,.679-1.7,2.468,2.468,0,0,1,1.781-.652,2.506,2.506,0,0,1,1.8.644,2.294,2.294,0,0,1,.681,1.746v.563a2.22,2.22,0,0,1-.681,1.7,2.491,2.491,0,0,1-1.781.641,2.506,2.506,0,0,1-1.793-.645,2.271,2.271,0,0,1-.683-1.738Zm1.5.612a1.06,1.06,0,0,0,.269.758.928.928,0,0,0,.707.287.881.881,0,0,0,.695-.291,1.129,1.129,0,0,0,.258-.778v-.582a1.1,1.1,0,0,0-.258-.761,1,1,0,0,0-1.4,0,1.129,1.129,0,0,0-.266.8Zm1.422,7.724-1.1-.593,5.554-8.891,1.1.594Zm2.516-1.937a2.216,2.216,0,0,1,.687-1.7,2.5,2.5,0,0,1,1.781-.645,2.525,2.525,0,0,1,1.793.637,2.282,2.282,0,0,1,.683,1.754v.562a2.238,2.238,0,0,1-.672,1.692,2.478,2.478,0,0,1-1.789.644,2.5,2.5,0,0,1-1.8-.648,2.266,2.266,0,0,1-.679-1.719Zm1.5.619a1.053,1.053,0,0,0,.28.738.914.914,0,0,0,.7.307q.954,0,.953-1.061v-.6a1.069,1.069,0,0,0-.265-.758,1,1,0,0,0-1.406,0,1.1,1.1,0,0,0-.265.781Z" fill="#9f321d"/>
            <path id="Trazado_215357" data-name="Trazado 215357" d="M183.563,367.406l.655-5.781h6.375v1.883H186.07l-.281,2.445a3.582,3.582,0,0,1,1.711-.43,3.278,3.278,0,0,1,2.546,1.008,4.024,4.024,0,0,1,.922,2.82,4.123,4.123,0,0,1-.465,1.973,3.286,3.286,0,0,1-1.332,1.352,4.159,4.159,0,0,1-2.046.48,4.429,4.429,0,0,1-1.915-.418,3.393,3.393,0,0,1-1.394-1.176,3.19,3.19,0,0,1-.543-1.726h2.234a1.67,1.67,0,0,0,.5,1.105,1.574,1.574,0,0,0,1.114.395,1.389,1.389,0,0,0,1.179-.551,2.552,2.552,0,0,0,.414-1.559,2.114,2.114,0,0,0-.476-1.484,1.75,1.75,0,0,0-1.352-.516,1.952,1.952,0,0,0-1.3.422l-.219.2Z" fill="#636363"/>
            <path id="Trazado_215358" data-name="Trazado 215358" d="M195.719,367.07l1.422-2.523h2.414l-2.406,4.14L199.657,373h-2.422l-1.508-2.657-1.5,2.657H191.8l2.508-4.313-2.4-4.14h2.422Z" fill="#636363"/>
          </g>
        </g>
        <path id="Trazado_215359" data-name="Trazado 215359" d="M326.711,373h-2.258v-8.715l-2.695.832V363.3l4.711-1.688h.242Z" fill="#636363"/>
        <path id="Trazado_215360" data-name="Trazado 215360" d="M333.719,367.07l1.422-2.523h2.414l-2.406,4.14L337.657,373h-2.422l-1.508-2.657-1.5,2.657H329.8l2.508-4.313-2.4-4.14h2.422Z" fill="#636363"/>
        <g id="Grupo_154102" data-name="Grupo 154102">
          <g id="Grupo_154101" data-name="Grupo 154101" clip-path="url(#clip-path)">
            <path id="Trazado_215361" data-name="Trazado 215361" d="M456.883,368.3a5.761,5.761,0,0,1-.977,3.609,3.9,3.9,0,0,1-5.7.024,5.6,5.6,0,0,1-1.008-3.516V366.32a5.678,5.678,0,0,1,.989-3.617,3.911,3.911,0,0,1,5.691-.012,5.583,5.583,0,0,1,1.008,3.512Zm-2.258-2.3a4.163,4.163,0,0,0-.387-2.061,1.307,1.307,0,0,0-1.207-.645,1.284,1.284,0,0,0-1.176.614,3.907,3.907,0,0,0-.4,1.919v2.769a4.363,4.363,0,0,0,.379,2.068,1.289,1.289,0,0,0,1.215.677,1.268,1.268,0,0,0,1.2-.65,4.28,4.28,0,0,0,.383-1.986Z" fill="#636363"/>
            <path id="Trazado_215362" data-name="Trazado 215362" d="M458.617,371.891a1.138,1.138,0,0,1,.363-.875,1.411,1.411,0,0,1,1.828,0,1.135,1.135,0,0,1,.364.875,1.119,1.119,0,0,1-.36.863,1.435,1.435,0,0,1-1.836,0,1.118,1.118,0,0,1-.359-.863" fill="#636363"/>
            <path id="Trazado_215363" data-name="Trazado 215363" d="M463.391,367.406l.656-5.781h6.375v1.883H465.9l-.281,2.445a3.581,3.581,0,0,1,1.711-.43,3.278,3.278,0,0,1,2.546,1.008,4.024,4.024,0,0,1,.922,2.82,4.123,4.123,0,0,1-.465,1.973A3.286,3.286,0,0,1,469,372.676a4.159,4.159,0,0,1-2.046.48,4.426,4.426,0,0,1-1.915-.418,3.393,3.393,0,0,1-1.394-1.176,3.191,3.191,0,0,1-.543-1.726h2.234a1.67,1.67,0,0,0,.5,1.105,1.574,1.574,0,0,0,1.114.395,1.389,1.389,0,0,0,1.179-.551,2.552,2.552,0,0,0,.414-1.559,2.114,2.114,0,0,0-.476-1.484,1.75,1.75,0,0,0-1.352-.516,1.952,1.952,0,0,0-1.3.422l-.219.2Z" fill="#636363"/>
            <path id="Trazado_215364" data-name="Trazado 215364" d="M475.547,367.07l1.422-2.523h2.414l-2.406,4.14L479.485,373h-2.422l-1.508-2.657-1.5,2.657h-2.43l2.508-4.313-2.4-4.14h2.422Z" fill="#636363"/>
            <path id="Trazado_215365" data-name="Trazado 215365" d="M602.883,368.3a5.761,5.761,0,0,1-.977,3.609,3.9,3.9,0,0,1-5.7.024,5.6,5.6,0,0,1-1.008-3.516V366.32a5.678,5.678,0,0,1,.989-3.617,3.911,3.911,0,0,1,5.691-.012,5.583,5.583,0,0,1,1.008,3.512Zm-2.258-2.3a4.163,4.163,0,0,0-.387-2.061,1.307,1.307,0,0,0-1.207-.645,1.284,1.284,0,0,0-1.176.614,3.907,3.907,0,0,0-.4,1.919v2.769a4.363,4.363,0,0,0,.379,2.068,1.289,1.289,0,0,0,1.215.677,1.268,1.268,0,0,0,1.2-.65,4.28,4.28,0,0,0,.383-1.986Z" fill="#636363"/>
          </g>
        </g>
        <path id="Trazado_215366" data-name="Trazado 215366" d="M249.313,6.742h-4.93v4.031h5.727V12h-7.227V.625h7.149V1.851h-5.649V5.515h4.93Z" fill="#fff"/>
        <g id="Grupo_154104" data-name="Grupo 154104">
          <g id="Grupo_154103" data-name="Grupo 154103" clip-path="url(#clip-path)">
            <path id="Trazado_215367" data-name="Trazado 215367" d="M256.672,9.758a1.063,1.063,0,0,0-.441-.91,4.268,4.268,0,0,0-1.539-.559,7.265,7.265,0,0,1-1.743-.562A2.489,2.489,0,0,1,252,6.945a1.863,1.863,0,0,1-.308-1.078,2.192,2.192,0,0,1,.879-1.757,3.425,3.425,0,0,1,2.246-.719,3.533,3.533,0,0,1,2.332.742,2.358,2.358,0,0,1,.894,1.9h-1.453a1.3,1.3,0,0,0-.5-1.023,1.89,1.89,0,0,0-1.269-.43,1.977,1.977,0,0,0-1.235.344,1.081,1.081,0,0,0-.445.9.878.878,0,0,0,.414.79,5.109,5.109,0,0,0,1.5.507A7.863,7.863,0,0,1,256.8,7.7a2.558,2.558,0,0,1,1,.809,1.99,1.99,0,0,1,.324,1.152,2.163,2.163,0,0,1-.906,1.817,3.8,3.8,0,0,1-2.351.683,4.264,4.264,0,0,1-1.8-.359,2.914,2.914,0,0,1-1.223-1A2.42,2.42,0,0,1,251.4,9.4h1.445a1.5,1.5,0,0,0,.582,1.152,2.258,2.258,0,0,0,1.434.426,2.335,2.335,0,0,0,1.316-.332,1.021,1.021,0,0,0,.5-.887" fill="#fff"/>
            <path id="Trazado_215368" data-name="Trazado 215368" d="M261.961,1.5V3.547h1.578V4.664h-1.578V9.913a1.173,1.173,0,0,0,.211.763.89.89,0,0,0,.719.254,3.538,3.538,0,0,0,.687-.094V12a4.234,4.234,0,0,1-1.109.155,1.8,1.8,0,0,1-1.461-.586,2.516,2.516,0,0,1-.492-1.664V4.664h-1.539V3.547h1.539V1.5Z" fill="#fff"/>
            <path id="Trazado_215369" data-name="Trazado 215369" d="M269.313,4.844a4.407,4.407,0,0,0-.712-.055A1.906,1.906,0,0,0,266.671,6v6h-1.445V3.547h1.406l.024.977a2.249,2.249,0,0,1,2.015-1.133,1.484,1.484,0,0,1,.642.109Z" fill="#fff"/>
            <path id="Trazado_215370" data-name="Trazado 215370" d="M274,12.156a3.692,3.692,0,0,1-2.8-1.129,4.189,4.189,0,0,1-1.078-3.019V7.742a5.075,5.075,0,0,1,.48-2.246,3.747,3.747,0,0,1,1.344-1.547,3.379,3.379,0,0,1,1.871-.558,3.17,3.17,0,0,1,2.563,1.085,4.706,4.706,0,0,1,.914,3.11v.6H271.57a3.013,3.013,0,0,0,.73,2.02,2.3,2.3,0,0,0,1.778.769,2.522,2.522,0,0,0,1.3-.312,3.241,3.241,0,0,0,.929-.828l.883.687A3.547,3.547,0,0,1,274,12.156m-.18-7.578a1.928,1.928,0,0,0-1.469.637A3.1,3.1,0,0,0,271.617,7h4.234V6.891a2.752,2.752,0,0,0-.594-1.708,1.816,1.816,0,0,0-1.437-.605" fill="#fff"/>
            <rect id="Rectángulo_44382" data-name="Rectángulo 44382" width="1.445" height="12" transform="translate(279.094)" fill="#fff"/>
            <rect id="Rectángulo_44383" data-name="Rectángulo 44383" width="1.445" height="12" transform="translate(282.977)" fill="#fff"/>
            <path id="Trazado_215371" data-name="Trazado 215371" d="M291.953,12a3.052,3.052,0,0,1-.2-.891,3.223,3.223,0,0,1-2.406,1.047,2.987,2.987,0,0,1-2.051-.707,2.29,2.29,0,0,1-.8-1.793,2.391,2.391,0,0,1,1-2.051,4.734,4.734,0,0,1,2.825-.73h1.406V6.211A1.627,1.627,0,0,0,291.274,5a1.822,1.822,0,0,0-1.336-.449,2.1,2.1,0,0,0-1.3.391,1.15,1.15,0,0,0-.523.945h-1.454a1.99,1.99,0,0,1,.45-1.222,3.059,3.059,0,0,1,1.218-.934,4.088,4.088,0,0,1,1.692-.344,3.338,3.338,0,0,1,2.289.731,2.631,2.631,0,0,1,.859,2.011v3.891a4.756,4.756,0,0,0,.3,1.852V12Zm-2.4-1.1a2.534,2.534,0,0,0,1.289-.352,2.13,2.13,0,0,0,.883-.914V7.9h-1.133q-2.655,0-2.656,1.555a1.315,1.315,0,0,0,.453,1.062,1.742,1.742,0,0,0,1.164.383" fill="#fff"/>
          </g>
        </g>
        <rect id="Rectángulo_44385" data-name="Rectángulo 44385" width="1.5" height="11.375" transform="translate(495.437 0.625)" fill="#fff"/>
        <g id="Grupo_154106" data-name="Grupo 154106">
          <g id="Grupo_154105" data-name="Grupo 154105" clip-path="url(#clip-path)">
            <path id="Trazado_215372" data-name="Trazado 215372" d="M500.82,3.547l.047,1.062A3.079,3.079,0,0,1,503.4,3.391q2.679,0,2.7,3.023V12h-1.445V6.406a1.947,1.947,0,0,0-.418-1.351,1.673,1.673,0,0,0-1.277-.438,2.089,2.089,0,0,0-1.235.375,2.545,2.545,0,0,0-.828.985V12h-1.445V3.547Z" fill="#fff"/>
            <path id="Trazado_215373" data-name="Trazado 215373" d="M510.242,1.5V3.547h1.578V4.664h-1.578V9.913a1.173,1.173,0,0,0,.211.763.89.89,0,0,0,.719.254,3.538,3.538,0,0,0,.687-.094V12a4.234,4.234,0,0,1-1.109.155,1.8,1.8,0,0,1-1.461-.586,2.516,2.516,0,0,1-.492-1.664V4.664h-1.539V3.547H508.8V1.5Z" fill="#fff"/>
            <path id="Trazado_215374" data-name="Trazado 215374" d="M517.016,12.156a3.692,3.692,0,0,1-2.8-1.129,4.189,4.189,0,0,1-1.078-3.019V7.742a5.076,5.076,0,0,1,.48-2.246,3.747,3.747,0,0,1,1.344-1.547,3.379,3.379,0,0,1,1.871-.558A3.17,3.17,0,0,1,519.4,4.476a4.706,4.706,0,0,1,.914,3.11v.6h-5.727a3.013,3.013,0,0,0,.73,2.02,2.3,2.3,0,0,0,1.778.769,2.522,2.522,0,0,0,1.3-.312,3.241,3.241,0,0,0,.929-.828l.883.687a3.547,3.547,0,0,1-3.187,1.633m-.18-7.578a1.928,1.928,0,0,0-1.469.637A3.1,3.1,0,0,0,514.633,7h4.234V6.891a2.752,2.752,0,0,0-.594-1.708,1.816,1.816,0,0,0-1.437-.605" fill="#fff"/>
            <path id="Trazado_215375" data-name="Trazado 215375" d="M526.07,4.844a4.386,4.386,0,0,0-.711-.055A1.906,1.906,0,0,0,523.429,6v6h-1.445V3.547h1.406l.024.977a2.249,2.249,0,0,1,2.015-1.133,1.476,1.476,0,0,1,.641.109Z" fill="#fff"/>
            <path id="Trazado_215376" data-name="Trazado 215376" d="M531.484,4.844a4.386,4.386,0,0,0-.711-.055A1.906,1.906,0,0,0,528.843,6v6H527.4V3.547H528.8l.024.977a2.249,2.249,0,0,1,2.015-1.133,1.476,1.476,0,0,1,.641.109Z" fill="#fff"/>
            <path id="Trazado_215377" data-name="Trazado 215377" d="M532.274,7.7a5,5,0,0,1,.488-2.234,3.64,3.64,0,0,1,1.36-1.532,3.7,3.7,0,0,1,1.988-.539,3.565,3.565,0,0,1,2.793,1.2,4.6,4.6,0,0,1,1.066,3.179v.1a5.036,5.036,0,0,1-.472,2.215,3.6,3.6,0,0,1-1.352,1.527,3.749,3.749,0,0,1-2.02.547,3.556,3.556,0,0,1-2.785-1.195A4.576,4.576,0,0,1,532.274,7.8Zm1.453.172a3.624,3.624,0,0,0,.652,2.258,2.211,2.211,0,0,0,3.5-.012,3.95,3.95,0,0,0,.649-2.418,3.61,3.61,0,0,0-.66-2.254,2.1,2.1,0,0,0-1.754-.863,2.078,2.078,0,0,0-1.727.851,3.929,3.929,0,0,0-.656,2.438" fill="#fff"/>
            <path id="Trazado_215378" data-name="Trazado 215378" d="M541.438,7.7a4.974,4.974,0,0,1,.914-3.145,3.151,3.151,0,0,1,4.836-.074l.07-.937h1.32V11.8a3.441,3.441,0,0,1-.972,2.586,3.592,3.592,0,0,1-2.613.945,4.343,4.343,0,0,1-1.79-.391,3.074,3.074,0,0,1-1.335-1.07l.75-.867a2.827,2.827,0,0,0,2.273,1.148,2.216,2.216,0,0,0,1.645-.594,2.268,2.268,0,0,0,.589-1.671v-.727a2.969,2.969,0,0,1-2.367,1,2.887,2.887,0,0,1-2.4-1.195,5.224,5.224,0,0,1-.918-3.258m1.453.164a3.787,3.787,0,0,0,.586,2.246,1.905,1.905,0,0,0,1.641.817,2.116,2.116,0,0,0,2.007-1.243V5.828a2.139,2.139,0,0,0-1.992-1.211,1.919,1.919,0,0,0-1.648.82,4.128,4.128,0,0,0-.594,2.43" fill="#fff"/>
            <path id="Trazado_215379" data-name="Trazado 215379" d="M555.976,12a3.052,3.052,0,0,1-.2-.891,3.223,3.223,0,0,1-2.406,1.047,2.987,2.987,0,0,1-2.051-.707,2.29,2.29,0,0,1-.8-1.793,2.391,2.391,0,0,1,1-2.051,4.734,4.734,0,0,1,2.825-.73h1.406V6.211A1.627,1.627,0,0,0,555.3,5a1.822,1.822,0,0,0-1.336-.449,2.1,2.1,0,0,0-1.3.391,1.15,1.15,0,0,0-.523.945h-1.454a1.99,1.99,0,0,1,.45-1.222,3.059,3.059,0,0,1,1.218-.934,4.088,4.088,0,0,1,1.692-.344,3.338,3.338,0,0,1,2.289.731,2.631,2.631,0,0,1,.859,2.011v3.891a4.756,4.756,0,0,0,.3,1.852V12Zm-2.4-1.1a2.534,2.534,0,0,0,1.289-.352,2.13,2.13,0,0,0,.883-.914V7.9h-1.133q-2.655,0-2.656,1.555a1.315,1.315,0,0,0,.453,1.062,1.742,1.742,0,0,0,1.164.383" fill="#fff"/>
            <path id="Trazado_215380" data-name="Trazado 215380" d="M560.828,3.547l.047,1.062a3.079,3.079,0,0,1,2.531-1.218q2.679,0,2.7,3.023V12h-1.445V6.406a1.947,1.947,0,0,0-.418-1.351,1.672,1.672,0,0,0-1.277-.438,2.089,2.089,0,0,0-1.235.375,2.545,2.545,0,0,0-.828.985V12h-1.445V3.547Z" fill="#fff"/>
            <path id="Trazado_215381" data-name="Trazado 215381" d="M570.25,1.5V3.547h1.578V4.664H570.25V9.913a1.173,1.173,0,0,0,.211.763.89.89,0,0,0,.719.254,3.538,3.538,0,0,0,.687-.094V12a4.234,4.234,0,0,1-1.109.155,1.8,1.8,0,0,1-1.461-.586,2.516,2.516,0,0,1-.492-1.664V4.664h-1.539V3.547H568.8V1.5Z" fill="#fff"/>
            <path id="Trazado_215382" data-name="Trazado 215382" d="M577.024,12.156a3.692,3.692,0,0,1-2.8-1.129,4.189,4.189,0,0,1-1.078-3.019V7.742a5.075,5.075,0,0,1,.48-2.246,3.747,3.747,0,0,1,1.344-1.547,3.379,3.379,0,0,1,1.871-.558,3.17,3.17,0,0,1,2.563,1.085,4.706,4.706,0,0,1,.914,3.11v.6h-5.727a3.013,3.013,0,0,0,.73,2.02,2.3,2.3,0,0,0,1.778.769,2.522,2.522,0,0,0,1.3-.312,3.241,3.241,0,0,0,.929-.828l.883.687a3.547,3.547,0,0,1-3.187,1.633m-.18-7.578a1.928,1.928,0,0,0-1.469.637A3.1,3.1,0,0,0,574.641,7h4.234V6.891a2.752,2.752,0,0,0-.594-1.708,1.816,1.816,0,0,0-1.437-.605" fill="#fff"/>
          </g>
        </g>
        <path id="Trazado_215383" data-name="Trazado 215383" d="M255.237,186.008l3.25-9.383h1.641L255.909,188h-1.328l-4.211-11.375H252Z" fill="#fff"/>
        <g id="Grupo_154108" data-name="Grupo 154108">
          <g id="Grupo_154107" data-name="Grupo 154107" clip-path="url(#clip-path)">
            <path id="Trazado_215384" data-name="Trazado 215384" d="M266.284,188a3.086,3.086,0,0,1-.2-.891,3.223,3.223,0,0,1-2.406,1.047,2.987,2.987,0,0,1-2.051-.707,2.293,2.293,0,0,1-.8-1.793,2.391,2.391,0,0,1,1-2.051,4.738,4.738,0,0,1,2.825-.73h1.406v-.664a1.627,1.627,0,0,0-.453-1.208,1.822,1.822,0,0,0-1.336-.449,2.106,2.106,0,0,0-1.3.391,1.15,1.15,0,0,0-.523.945h-1.454a2,2,0,0,1,.45-1.222,3.06,3.06,0,0,1,1.218-.934,4.092,4.092,0,0,1,1.692-.344,3.336,3.336,0,0,1,2.289.731,2.627,2.627,0,0,1,.859,2.011v3.891a4.775,4.775,0,0,0,.3,1.852V188Zm-2.4-1.1a2.534,2.534,0,0,0,1.289-.352,2.125,2.125,0,0,0,.883-.914V183.9h-1.133q-2.655,0-2.656,1.555a1.315,1.315,0,0,0,.453,1.062,1.744,1.744,0,0,0,1.164.383" fill="#fff"/>
            <path id="Trazado_215385" data-name="Trazado 215385" d="M273.159,186.977a2.079,2.079,0,0,0,1.352-.469,1.646,1.646,0,0,0,.64-1.172h1.367a2.6,2.6,0,0,1-.5,1.383,3.275,3.275,0,0,1-1.23,1.047,3.544,3.544,0,0,1-1.629.391A3.482,3.482,0,0,1,270.413,187a4.588,4.588,0,0,1-1.02-3.152v-.242a5.1,5.1,0,0,1,.453-2.2,3.469,3.469,0,0,1,1.3-1.493,3.7,3.7,0,0,1,2-.531,3.386,3.386,0,0,1,2.363.852,3.037,3.037,0,0,1,1,2.211h-1.367a1.986,1.986,0,0,0-.621-1.348,1.929,1.929,0,0,0-1.379-.527,2.023,2.023,0,0,0-1.707.793,3.726,3.726,0,0,0-.605,2.292v.274a3.657,3.657,0,0,0,.6,2.25,2.035,2.035,0,0,0,1.719.789" fill="#fff"/>
            <path id="Trazado_215386" data-name="Trazado 215386" d="M283.362,188a3.086,3.086,0,0,1-.2-.891,3.223,3.223,0,0,1-2.406,1.047,2.987,2.987,0,0,1-2.051-.707,2.293,2.293,0,0,1-.8-1.793,2.391,2.391,0,0,1,1-2.051,4.738,4.738,0,0,1,2.825-.73h1.406v-.664a1.627,1.627,0,0,0-.453-1.208,1.822,1.822,0,0,0-1.336-.449,2.106,2.106,0,0,0-1.3.391,1.15,1.15,0,0,0-.523.945h-1.454a2,2,0,0,1,.45-1.222,3.06,3.06,0,0,1,1.218-.934,4.092,4.092,0,0,1,1.692-.344,3.336,3.336,0,0,1,2.289.731,2.627,2.627,0,0,1,.859,2.011v3.891a4.775,4.775,0,0,0,.3,1.852V188Zm-2.4-1.1a2.534,2.534,0,0,0,1.289-.352,2.124,2.124,0,0,0,.883-.914V183.9H282q-2.655,0-2.656,1.555a1.315,1.315,0,0,0,.453,1.062,1.744,1.744,0,0,0,1.164.383" fill="#fff"/>
            <path id="Trazado_215387" data-name="Trazado 215387" d="M521.141,183.547V188h-1.5V176.625h4.2a4.215,4.215,0,0,1,2.926.953,3.234,3.234,0,0,1,1.059,2.523,3.192,3.192,0,0,1-1.035,2.551,4.4,4.4,0,0,1-2.965.9Zm0-1.227h2.7a2.7,2.7,0,0,0,1.844-.567,2.075,2.075,0,0,0,.641-1.64,2.145,2.145,0,0,0-.641-1.628,2.53,2.53,0,0,0-1.758-.634h-2.781Z" fill="#fff"/>
            <path id="Trazado_215388" data-name="Trazado 215388" d="M532.914,188.156a3.691,3.691,0,0,1-2.8-1.129,4.189,4.189,0,0,1-1.078-3.019v-.266a5.075,5.075,0,0,1,.48-2.246,3.74,3.74,0,0,1,1.344-1.547,3.379,3.379,0,0,1,1.871-.558,3.17,3.17,0,0,1,2.563,1.085,4.706,4.706,0,0,1,.914,3.11v.6h-5.727a3.008,3.008,0,0,0,.73,2.02,2.3,2.3,0,0,0,1.778.769,2.524,2.524,0,0,0,1.3-.312,3.254,3.254,0,0,0,.929-.828l.883.687a3.549,3.549,0,0,1-3.187,1.633m-.18-7.578a1.926,1.926,0,0,0-1.469.637,3.1,3.1,0,0,0-.734,1.785h4.234v-.109a2.758,2.758,0,0,0-.594-1.708,1.816,1.816,0,0,0-1.437-.6" fill="#fff"/>
            <path id="Trazado_215389" data-name="Trazado 215389" d="M541.969,180.844a4.386,4.386,0,0,0-.711-.055,1.9,1.9,0,0,0-1.93,1.211v6h-1.445v-8.453h1.406l.024.977a2.249,2.249,0,0,1,2.015-1.133,1.476,1.476,0,0,1,.641.109Z" fill="#fff"/>
            <path id="Trazado_215390" data-name="Trazado 215390" d="M547.383,180.844a4.386,4.386,0,0,0-.711-.055,1.9,1.9,0,0,0-1.93,1.211v6H543.3v-8.453H544.7l.024.977a2.249,2.249,0,0,1,2.015-1.133,1.476,1.476,0,0,1,.641.109Z" fill="#fff"/>
            <path id="Trazado_215391" data-name="Trazado 215391" d="M548.172,183.7a4.984,4.984,0,0,1,.488-2.234,3.64,3.64,0,0,1,1.36-1.532,3.7,3.7,0,0,1,1.988-.539,3.567,3.567,0,0,1,2.793,1.2,4.6,4.6,0,0,1,1.066,3.179v.1a5.051,5.051,0,0,1-.472,2.215,3.6,3.6,0,0,1-1.352,1.527,3.751,3.751,0,0,1-2.02.547,3.555,3.555,0,0,1-2.785-1.2,4.576,4.576,0,0,1-1.066-3.164Zm1.453.172a3.618,3.618,0,0,0,.652,2.258,2.211,2.211,0,0,0,3.5-.012,3.956,3.956,0,0,0,.649-2.418,3.617,3.617,0,0,0-.66-2.254,2.1,2.1,0,0,0-1.754-.863,2.078,2.078,0,0,0-1.727.851,3.929,3.929,0,0,0-.656,2.438" fill="#fff"/>
            <path id="Trazado_215392" data-name="Trazado 215392" d="M74.117,412.992V417H71.773V405.625h4.438a5.144,5.144,0,0,1,2.254.469,3.463,3.463,0,0,1,1.5,1.332,3.72,3.72,0,0,1,.523,1.965,3.271,3.271,0,0,1-1.144,2.637,4.77,4.77,0,0,1-3.168.964Zm0-1.9h2.094a2.061,2.061,0,0,0,1.418-.437,1.594,1.594,0,0,0,.488-1.25,1.877,1.877,0,0,0-.492-1.352,1.836,1.836,0,0,0-1.36-.531H74.117Z" fill="#fff"/>
            <path id="Trazado_215393" data-name="Trazado 215393" d="M86.758,417a2.489,2.489,0,0,1-.226-.758,2.731,2.731,0,0,1-2.133.915,3,3,0,0,1-2.059-.719,2.313,2.313,0,0,1-.816-1.813,2.389,2.389,0,0,1,1-2.062,4.908,4.908,0,0,1,2.879-.727h1.039v-.484a1.4,1.4,0,0,0-.3-.938,1.183,1.183,0,0,0-.949-.351,1.348,1.348,0,0,0-.9.273.934.934,0,0,0-.324.75H81.711a2.276,2.276,0,0,1,.453-1.359,3,3,0,0,1,1.282-.981,4.665,4.665,0,0,1,1.859-.355,3.694,3.694,0,0,1,2.481.785,2.747,2.747,0,0,1,.918,2.207v3.664a4.034,4.034,0,0,0,.335,1.82V417Zm-1.867-1.57a1.939,1.939,0,0,0,.922-.223,1.463,1.463,0,0,0,.625-.6v-1.453h-.844q-1.7,0-1.805,1.171l-.007.133a.9.9,0,0,0,.3.7,1.153,1.153,0,0,0,.812.273" fill="#fff"/>
            <path id="Trazado_215394" data-name="Trazado 215394" d="M95.188,410.664a6.1,6.1,0,0,0-.813-.062,1.653,1.653,0,0,0-1.68.867V417H90.438v-8.453H92.57l.062,1.008a2.09,2.09,0,0,1,1.883-1.164,2.384,2.384,0,0,1,.7.1Z" fill="#fff"/>
            <path id="Trazado_215395" data-name="Trazado 215395" d="M99.367,406.469v2.078h1.445V410.2H99.367v4.219a1.007,1.007,0,0,0,.18.672.9.9,0,0,0,.687.2,3.547,3.547,0,0,0,.664-.055v1.711a4.624,4.624,0,0,1-1.367.2,2.156,2.156,0,0,1-2.422-2.4V410.2H95.875v-1.656h1.234v-2.078Z" fill="#fff"/>
            <path id="Trazado_215396" data-name="Trazado 215396" d="M102.055,406.359a1.112,1.112,0,0,1,.34-.836,1.464,1.464,0,0,1,1.847,0,1.193,1.193,0,0,1,0,1.68,1.449,1.449,0,0,1-1.836,0,1.111,1.111,0,0,1-.347-.844m2.4,10.641h-2.266v-8.453h2.266Z" fill="#fff"/>
            <path id="Trazado_215397" data-name="Trazado 215397" d="M109.828,415.336a1.478,1.478,0,0,0,1.016-.344,1.208,1.208,0,0,0,.406-.914h2.117a2.886,2.886,0,0,1-.469,1.574,3.086,3.086,0,0,1-1.261,1.11,3.967,3.967,0,0,1-1.77.394A3.667,3.667,0,0,1,107.008,416a4.556,4.556,0,0,1-1.047-3.184v-.148A4.506,4.506,0,0,1,107,409.555a3.622,3.622,0,0,1,2.851-1.164,3.551,3.551,0,0,1,2.543.9,3.2,3.2,0,0,1,.973,2.4H111.25a1.559,1.559,0,0,0-.406-1.072,1.511,1.511,0,0,0-2.223.163,3.327,3.327,0,0,0-.4,1.866v.235a3.374,3.374,0,0,0,.4,1.878,1.376,1.376,0,0,0,1.211.571" fill="#fff"/>
            <path id="Trazado_215398" data-name="Trazado 215398" d="M114.641,406.359a1.115,1.115,0,0,1,.339-.836,1.465,1.465,0,0,1,1.848,0,1.193,1.193,0,0,1,0,1.68,1.449,1.449,0,0,1-1.836,0,1.111,1.111,0,0,1-.347-.844m2.4,10.641h-2.266v-8.453h2.266Z" fill="#fff"/>
            <path id="Trazado_215399" data-name="Trazado 215399" d="M126.508,412.852a5.071,5.071,0,0,1-.887,3.129,2.843,2.843,0,0,1-2.394,1.176,2.635,2.635,0,0,1-2.071-.891v3.984H118.9v-11.7h2.094l.078.828a2.655,2.655,0,0,1,2.141-.984,2.866,2.866,0,0,1,2.43,1.156,5.208,5.208,0,0,1,.867,3.188Zm-2.258-.172a3.352,3.352,0,0,0-.418-1.826,1.359,1.359,0,0,0-1.215-.643,1.479,1.479,0,0,0-1.461.815V414.5a1.5,1.5,0,0,0,1.477.839q1.617,0,1.617-2.656" fill="#fff"/>
            <path id="Trazado_215400" data-name="Trazado 215400" d="M132.8,417a2.488,2.488,0,0,1-.226-.758,2.731,2.731,0,0,1-2.133.915,3,3,0,0,1-2.059-.719,2.313,2.313,0,0,1-.816-1.813,2.389,2.389,0,0,1,1-2.062,4.908,4.908,0,0,1,2.879-.727h1.039v-.484a1.4,1.4,0,0,0-.3-.938,1.183,1.183,0,0,0-.949-.351,1.348,1.348,0,0,0-.895.273.934.934,0,0,0-.324.75h-2.258a2.276,2.276,0,0,1,.453-1.359,3,3,0,0,1,1.282-.981,4.665,4.665,0,0,1,1.859-.355,3.694,3.694,0,0,1,2.481.785,2.747,2.747,0,0,1,.918,2.207v3.664a4.034,4.034,0,0,0,.335,1.82V417Zm-1.866-1.57a1.938,1.938,0,0,0,.921-.223,1.463,1.463,0,0,0,.625-.6v-1.453h-.844q-1.7,0-1.8,1.171l-.007.133a.9.9,0,0,0,.3.7,1.154,1.154,0,0,0,.813.273" fill="#fff"/>
            <path id="Trazado_215401" data-name="Trazado 215401" d="M140,415.336a1.478,1.478,0,0,0,1.016-.344,1.208,1.208,0,0,0,.406-.914h2.117a2.886,2.886,0,0,1-.469,1.574,3.086,3.086,0,0,1-1.261,1.11,3.967,3.967,0,0,1-1.77.394A3.667,3.667,0,0,1,137.18,416a4.556,4.556,0,0,1-1.047-3.184v-.148a4.506,4.506,0,0,1,1.039-3.117,3.622,3.622,0,0,1,2.851-1.164,3.551,3.551,0,0,1,2.543.9,3.2,3.2,0,0,1,.973,2.4h-2.117a1.559,1.559,0,0,0-.406-1.072,1.511,1.511,0,0,0-2.223.163,3.327,3.327,0,0,0-.4,1.866v.235a3.374,3.374,0,0,0,.4,1.878,1.376,1.376,0,0,0,1.211.571" fill="#fff"/>
            <path id="Trazado_215402" data-name="Trazado 215402" d="M144.812,406.359a1.115,1.115,0,0,1,.34-.836,1.465,1.465,0,0,1,1.848,0,1.193,1.193,0,0,1,0,1.68,1.449,1.449,0,0,1-1.836,0,1.112,1.112,0,0,1-.348-.844m2.4,10.641h-2.266v-8.453h2.266Z" fill="#fff"/>
            <path id="Trazado_215403" data-name="Trazado 215403" d="M148.719,412.7a5.009,5.009,0,0,1,.484-2.242,3.548,3.548,0,0,1,1.394-1.523,4.066,4.066,0,0,1,2.114-.539,3.85,3.85,0,0,1,2.793,1.046,4.2,4.2,0,0,1,1.207,2.844l.015.578a4.418,4.418,0,0,1-1.086,3.121,4.208,4.208,0,0,1-5.832,0,4.5,4.5,0,0,1-1.089-3.187Zm2.257.16a3.167,3.167,0,0,0,.453,1.843,1.628,1.628,0,0,0,2.579.008,3.462,3.462,0,0,0,.46-2.015,3.13,3.13,0,0,0-.46-1.831,1.5,1.5,0,0,0-1.3-.649,1.476,1.476,0,0,0-1.282.645,3.527,3.527,0,0,0-.453,2m2.18-7.855h2.461l-2.164,2.422h-1.836Z" fill="#fff"/>
            <path id="Trazado_215404" data-name="Trazado 215404" d="M160.2,408.547l.07.977a2.953,2.953,0,0,1,2.43-1.133,2.45,2.45,0,0,1,2,.789,3.687,3.687,0,0,1,.672,2.359V417h-2.258v-5.419a1.474,1.474,0,0,0-.312-1.045,1.4,1.4,0,0,0-1.04-.325,1.552,1.552,0,0,0-1.429.815V417H158.07v-8.453Z" fill="#fff"/>
            <path id="Trazado_215405" data-name="Trazado 215405" d="M170.711,412.711a5.1,5.1,0,0,1,.887-3.149,2.876,2.876,0,0,1,2.426-1.171,2.589,2.589,0,0,1,2.039.921V405h2.265v12h-2.039l-.109-.9a2.655,2.655,0,0,1-2.172,1.055,2.865,2.865,0,0,1-2.394-1.176,5.256,5.256,0,0,1-.9-3.269m2.258.16a3.356,3.356,0,0,0,.414,1.829,1.347,1.347,0,0,0,1.2.636,1.511,1.511,0,0,0,1.477-.887V411.1a1.49,1.49,0,0,0-1.461-.887q-1.634,0-1.633,2.66" fill="#fff"/>
            <path id="Trazado_215406" data-name="Trazado 215406" d="M183.969,417.156a4.154,4.154,0,0,1-3.028-1.14,4.059,4.059,0,0,1-1.168-3.039v-.219a5.1,5.1,0,0,1,.493-2.277,3.616,3.616,0,0,1,1.394-1.547,3.907,3.907,0,0,1,2.059-.543,3.508,3.508,0,0,1,2.73,1.093,4.446,4.446,0,0,1,1,3.1v.922h-5.382a2.1,2.1,0,0,0,.66,1.328,2,2,0,0,0,1.394.5,2.436,2.436,0,0,0,2.039-.945l1.11,1.242a3.4,3.4,0,0,1-1.375,1.121,4.5,4.5,0,0,1-1.922.4m-.258-6.945a1.408,1.408,0,0,0-1.09.455,2.364,2.364,0,0,0-.535,1.3h3.141v-.181a1.682,1.682,0,0,0-.407-1.165,1.457,1.457,0,0,0-1.109-.412" fill="#fff"/>
            <path id="Trazado_215407" data-name="Trazado 215407" d="M194.828,408.547l.07.945a2.972,2.972,0,0,1,2.43-1.1,2.253,2.253,0,0,1,2.242,1.289,2.9,2.9,0,0,1,2.539-1.289,2.518,2.518,0,0,1,2.047.8,3.678,3.678,0,0,1,.672,2.41V417h-2.266v-5.4a1.613,1.613,0,0,0-.281-1.053,1.243,1.243,0,0,0-.992-.333,1.409,1.409,0,0,0-1.406.971L199.89,417h-2.257v-5.395a1.6,1.6,0,0,0-.289-1.065,1.255,1.255,0,0,0-.985-.329,1.463,1.463,0,0,0-1.39.8V417h-2.258v-8.453Z" fill="#fff"/>
            <path id="Trazado_215408" data-name="Trazado 215408" d="M210.453,417.156a4.154,4.154,0,0,1-3.028-1.14,4.059,4.059,0,0,1-1.168-3.039v-.219a5.1,5.1,0,0,1,.493-2.277,3.616,3.616,0,0,1,1.394-1.547,3.907,3.907,0,0,1,2.059-.543,3.508,3.508,0,0,1,2.73,1.093,4.446,4.446,0,0,1,1,3.1v.922h-5.382a2.1,2.1,0,0,0,.66,1.328,2,2,0,0,0,1.394.5,2.436,2.436,0,0,0,2.039-.945l1.11,1.242a3.4,3.4,0,0,1-1.375,1.121,4.5,4.5,0,0,1-1.922.4m-.258-6.945a1.408,1.408,0,0,0-1.09.455,2.363,2.363,0,0,0-.535,1.3h3.141v-.181a1.681,1.681,0,0,0-.407-1.165,1.457,1.457,0,0,0-1.109-.412" fill="#fff"/>
            <path id="Trazado_215409" data-name="Trazado 215409" d="M219.961,410.664a6.077,6.077,0,0,0-.812-.062,1.653,1.653,0,0,0-1.68.867V417h-2.258v-8.453h2.133l.062,1.008a2.09,2.09,0,0,1,1.883-1.164,2.384,2.384,0,0,1,.7.1Z" fill="#fff"/>
            <path id="Trazado_215410" data-name="Trazado 215410" d="M224.414,415.336a1.478,1.478,0,0,0,1.016-.344,1.208,1.208,0,0,0,.406-.914h2.117a2.886,2.886,0,0,1-.469,1.574,3.086,3.086,0,0,1-1.261,1.11,3.967,3.967,0,0,1-1.77.394A3.667,3.667,0,0,1,221.594,416a4.556,4.556,0,0,1-1.047-3.184v-.148a4.506,4.506,0,0,1,1.039-3.117,3.622,3.622,0,0,1,2.851-1.164,3.551,3.551,0,0,1,2.543.9,3.2,3.2,0,0,1,.973,2.4h-2.117a1.559,1.559,0,0,0-.406-1.072,1.511,1.511,0,0,0-2.223.163,3.327,3.327,0,0,0-.4,1.866v.235a3.374,3.374,0,0,0,.4,1.878,1.376,1.376,0,0,0,1.211.571" fill="#fff"/>
            <path id="Trazado_215411" data-name="Trazado 215411" d="M234.14,417a2.489,2.489,0,0,1-.226-.758,2.731,2.731,0,0,1-2.133.915,3,3,0,0,1-2.059-.719,2.313,2.313,0,0,1-.816-1.813,2.389,2.389,0,0,1,1-2.062,4.908,4.908,0,0,1,2.879-.727h1.039v-.484a1.4,1.4,0,0,0-.3-.938,1.183,1.183,0,0,0-.949-.351,1.348,1.348,0,0,0-.9.273.934.934,0,0,0-.324.75h-2.258a2.276,2.276,0,0,1,.453-1.359,3,3,0,0,1,1.282-.981,4.665,4.665,0,0,1,1.859-.355,3.694,3.694,0,0,1,2.481.785,2.747,2.747,0,0,1,.918,2.207v3.664a4.034,4.034,0,0,0,.335,1.82V417Zm-1.867-1.57a1.939,1.939,0,0,0,.922-.223,1.463,1.463,0,0,0,.625-.6v-1.453h-.844q-1.7,0-1.8,1.171l-.007.133a.9.9,0,0,0,.3.7,1.153,1.153,0,0,0,.812.273" fill="#fff"/>
            <path id="Trazado_215412" data-name="Trazado 215412" d="M237.469,412.711a5.1,5.1,0,0,1,.887-3.149,2.876,2.876,0,0,1,2.426-1.171,2.589,2.589,0,0,1,2.039.921V405h2.265v12h-2.039l-.109-.9a2.655,2.655,0,0,1-2.172,1.055,2.865,2.865,0,0,1-2.394-1.176,5.256,5.256,0,0,1-.9-3.269m2.258.16a3.356,3.356,0,0,0,.414,1.829,1.347,1.347,0,0,0,1.2.636,1.511,1.511,0,0,0,1.477-.887V411.1a1.49,1.49,0,0,0-1.461-.887q-1.634,0-1.633,2.66" fill="#fff"/>
            <path id="Trazado_215413" data-name="Trazado 215413" d="M246.484,412.7a5,5,0,0,1,.485-2.242,3.551,3.551,0,0,1,1.394-1.524,4.075,4.075,0,0,1,2.113-.539,3.848,3.848,0,0,1,2.793,1.047,4.2,4.2,0,0,1,1.207,2.844l.016.578a4.418,4.418,0,0,1-1.086,3.121,4.208,4.208,0,0,1-5.832,0,4.494,4.494,0,0,1-1.09-3.188Zm2.258.16a3.16,3.16,0,0,0,.453,1.843,1.629,1.629,0,0,0,2.578.008,3.454,3.454,0,0,0,.461-2.015,3.123,3.123,0,0,0-.461-1.831,1.5,1.5,0,0,0-1.3-.65,1.473,1.473,0,0,0-1.281.646,3.518,3.518,0,0,0-.453,2" fill="#fff"/>
            <path id="Trazado_215414" data-name="Trazado 215414" d="M260.484,417v-6.8h-1.258v-1.656h1.258v-.719a2.92,2.92,0,0,1,.816-2.207,3.164,3.164,0,0,1,2.286-.785,5.339,5.339,0,0,1,1.148.155l-.023,1.736a2.875,2.875,0,0,0-.688-.071q-1.273,0-1.273,1.2v.686h1.679V410.2H262.75V417Z" fill="#fff"/>
            <path id="Trazado_215415" data-name="Trazado 215415" d="M270.352,410.664a6.077,6.077,0,0,0-.812-.062,1.653,1.653,0,0,0-1.68.867V417H265.6v-8.453h2.133l.062,1.008a2.091,2.091,0,0,1,1.883-1.164,2.384,2.384,0,0,1,.7.1Z" fill="#fff"/>
            <path id="Trazado_215416" data-name="Trazado 215416" d="M275.18,417.156a4.154,4.154,0,0,1-3.028-1.14,4.058,4.058,0,0,1-1.168-3.039v-.219a5.1,5.1,0,0,1,.493-2.277,3.616,3.616,0,0,1,1.394-1.547,3.907,3.907,0,0,1,2.059-.543,3.508,3.508,0,0,1,2.73,1.093,4.446,4.446,0,0,1,1,3.1v.922h-5.382a2.1,2.1,0,0,0,.66,1.328,2,2,0,0,0,1.394.5,2.436,2.436,0,0,0,2.039-.945l1.11,1.242a3.4,3.4,0,0,1-1.375,1.121,4.5,4.5,0,0,1-1.922.4m-.258-6.945a1.408,1.408,0,0,0-1.09.455,2.363,2.363,0,0,0-.535,1.3h3.141v-.181a1.681,1.681,0,0,0-.407-1.165,1.457,1.457,0,0,0-1.109-.412" fill="#fff"/>
            <path id="Trazado_215417" data-name="Trazado 215417" d="M282.016,408.547l.07.977a2.953,2.953,0,0,1,2.43-1.133,2.45,2.45,0,0,1,2,.789,3.686,3.686,0,0,1,.672,2.359V417H284.93v-5.419a1.474,1.474,0,0,0-.312-1.045,1.4,1.4,0,0,0-1.04-.325,1.552,1.552,0,0,0-1.429.815V417h-2.258v-8.453Z" fill="#fff"/>
            <path id="Trazado_215418" data-name="Trazado 215418" d="M291.6,406.469v2.078h1.445V410.2H291.6v4.219a1.006,1.006,0,0,0,.18.672.9.9,0,0,0,.687.2,3.547,3.547,0,0,0,.664-.055v1.711a4.624,4.624,0,0,1-1.367.2,2.156,2.156,0,0,1-2.422-2.4V410.2H288.11v-1.656h1.234v-2.078Z" fill="#fff"/>
            <path id="Trazado_215419" data-name="Trazado 215419" d="M298.2,417.156a4.154,4.154,0,0,1-3.028-1.14A4.059,4.059,0,0,1,294,412.977v-.219a5.1,5.1,0,0,1,.493-2.277,3.616,3.616,0,0,1,1.394-1.547,3.907,3.907,0,0,1,2.059-.543,3.507,3.507,0,0,1,2.73,1.093,4.446,4.446,0,0,1,1,3.1v.922h-5.382a2.1,2.1,0,0,0,.66,1.328,2,2,0,0,0,1.394.5,2.436,2.436,0,0,0,2.039-.945l1.11,1.242a3.4,3.4,0,0,1-1.375,1.121,4.5,4.5,0,0,1-1.922.4m-.257-6.945a1.409,1.409,0,0,0-1.091.455,2.356,2.356,0,0,0-.534,1.3h3.14v-.181a1.682,1.682,0,0,0-.407-1.165,1.456,1.456,0,0,0-1.108-.412" fill="#fff"/>
            <path id="Trazado_215420" data-name="Trazado 215420" d="M311.836,417a2.489,2.489,0,0,1-.226-.758,2.731,2.731,0,0,1-2.133.915,3,3,0,0,1-2.059-.719,2.313,2.313,0,0,1-.816-1.813,2.389,2.389,0,0,1,1-2.062,4.908,4.908,0,0,1,2.879-.727h1.039v-.484a1.4,1.4,0,0,0-.3-.938,1.183,1.183,0,0,0-.949-.351,1.348,1.348,0,0,0-.895.273.934.934,0,0,0-.324.75h-2.258a2.276,2.276,0,0,1,.453-1.359,3,3,0,0,1,1.282-.981,4.665,4.665,0,0,1,1.859-.355,3.694,3.694,0,0,1,2.481.785,2.747,2.747,0,0,1,.918,2.207v3.664a4.034,4.034,0,0,0,.335,1.82V417Zm-1.867-1.57a1.939,1.939,0,0,0,.922-.223,1.463,1.463,0,0,0,.625-.6v-1.453h-.844q-1.7,0-1.8,1.171l-.007.133a.9.9,0,0,0,.3.7,1.153,1.153,0,0,0,.812.273" fill="#fff"/>
            <rect id="Rectángulo_44387" data-name="Rectángulo 44387" width="2.266" height="12" transform="translate(319.617 405)" fill="#fff"/>
            <path id="Trazado_215421" data-name="Trazado 215421" d="M323.39,412.7a5,5,0,0,1,.485-2.242,3.551,3.551,0,0,1,1.394-1.524,4.075,4.075,0,0,1,2.113-.539,3.848,3.848,0,0,1,2.793,1.047,4.2,4.2,0,0,1,1.207,2.844l.016.578a4.418,4.418,0,0,1-1.086,3.121,4.208,4.208,0,0,1-5.832,0,4.494,4.494,0,0,1-1.09-3.188Zm2.258.16a3.16,3.16,0,0,0,.453,1.843,1.629,1.629,0,0,0,2.578.008,3.453,3.453,0,0,0,.461-2.015,3.122,3.122,0,0,0-.461-1.831,1.5,1.5,0,0,0-1.3-.65,1.473,1.473,0,0,0-1.281.646,3.518,3.518,0,0,0-.453,2" fill="#fff"/>
            <path id="Trazado_215422" data-name="Trazado 215422" d="M337.367,414.664a.728.728,0,0,0-.41-.652,4.623,4.623,0,0,0-1.317-.426q-3.015-.633-3.015-2.563a2.324,2.324,0,0,1,.933-1.879,3.77,3.77,0,0,1,2.442-.753,4.055,4.055,0,0,1,2.574.757,2.387,2.387,0,0,1,.965,1.969h-2.258a1.094,1.094,0,0,0-.312-.8,1.324,1.324,0,0,0-.977-.316,1.351,1.351,0,0,0-.883.258.814.814,0,0,0-.312.656.694.694,0,0,0,.355.605,3.65,3.65,0,0,0,1.2.4,9.721,9.721,0,0,1,1.422.379,2.335,2.335,0,0,1,1.789,2.273,2.2,2.2,0,0,1-.992,1.871,4.274,4.274,0,0,1-2.562.715,4.468,4.468,0,0,1-1.887-.379,3.155,3.155,0,0,1-1.293-1.039,2.41,2.41,0,0,1-.469-1.426H334.5a1.176,1.176,0,0,0,.445.922,1.765,1.765,0,0,0,1.11.321,1.636,1.636,0,0,0,.98-.246.766.766,0,0,0,.332-.645" fill="#fff"/>
            <path id="Trazado_215423" data-name="Trazado 215423" d="M348.516,415.336a1.479,1.479,0,0,0,1.016-.344,1.208,1.208,0,0,0,.406-.914h2.117a2.886,2.886,0,0,1-.469,1.574,3.086,3.086,0,0,1-1.261,1.11,3.967,3.967,0,0,1-1.77.394A3.667,3.667,0,0,1,345.7,416a4.556,4.556,0,0,1-1.047-3.184v-.148a4.506,4.506,0,0,1,1.039-3.117,3.622,3.622,0,0,1,2.851-1.164,3.551,3.551,0,0,1,2.543.9,3.2,3.2,0,0,1,.973,2.4h-2.117a1.559,1.559,0,0,0-.406-1.072,1.511,1.511,0,0,0-2.223.163,3.327,3.327,0,0,0-.4,1.866v.235a3.374,3.374,0,0,0,.4,1.878,1.376,1.376,0,0,0,1.211.571" fill="#fff"/>
            <path id="Trazado_215424" data-name="Trazado 215424" d="M352.992,412.7a5,5,0,0,1,.485-2.242,3.551,3.551,0,0,1,1.394-1.524,4.075,4.075,0,0,1,2.113-.539,3.848,3.848,0,0,1,2.793,1.047,4.2,4.2,0,0,1,1.207,2.844l.016.578a4.418,4.418,0,0,1-1.086,3.121,4.208,4.208,0,0,1-5.832,0,4.494,4.494,0,0,1-1.09-3.188Zm2.258.16a3.16,3.16,0,0,0,.453,1.843,1.629,1.629,0,0,0,2.578.008,3.454,3.454,0,0,0,.461-2.015,3.123,3.123,0,0,0-.461-1.831,1.5,1.5,0,0,0-1.3-.65,1.474,1.474,0,0,0-1.281.646,3.518,3.518,0,0,0-.453,2" fill="#fff"/>
            <path id="Trazado_215425" data-name="Trazado 215425" d="M364.469,408.547l.07.977a2.953,2.953,0,0,1,2.43-1.133,2.45,2.45,0,0,1,2,.789,3.686,3.686,0,0,1,.672,2.359V417h-2.258v-5.419a1.474,1.474,0,0,0-.312-1.045,1.4,1.4,0,0,0-1.04-.325,1.552,1.552,0,0,0-1.429.815V417h-2.258v-8.453Z" fill="#fff"/>
            <path id="Trazado_215426" data-name="Trazado 215426" d="M375.93,414.664a.728.728,0,0,0-.41-.652,4.623,4.623,0,0,0-1.317-.426q-3.015-.633-3.015-2.563a2.324,2.324,0,0,1,.933-1.879,3.77,3.77,0,0,1,2.442-.753,4.055,4.055,0,0,1,2.574.757,2.387,2.387,0,0,1,.965,1.969h-2.258a1.094,1.094,0,0,0-.312-.8,1.324,1.324,0,0,0-.977-.316,1.351,1.351,0,0,0-.883.258.814.814,0,0,0-.312.656.694.694,0,0,0,.355.605,3.65,3.65,0,0,0,1.2.4,9.721,9.721,0,0,1,1.422.379,2.335,2.335,0,0,1,1.789,2.273,2.2,2.2,0,0,1-.992,1.871,4.274,4.274,0,0,1-2.562.715,4.469,4.469,0,0,1-1.887-.379,3.155,3.155,0,0,1-1.293-1.039,2.41,2.41,0,0,1-.469-1.426h2.141a1.176,1.176,0,0,0,.445.922,1.765,1.765,0,0,0,1.11.321,1.636,1.636,0,0,0,.98-.246.766.766,0,0,0,.332-.645" fill="#fff"/>
            <path id="Trazado_215427" data-name="Trazado 215427" d="M379.562,406.359a1.115,1.115,0,0,1,.34-.836,1.465,1.465,0,0,1,1.848,0,1.193,1.193,0,0,1,0,1.68,1.449,1.449,0,0,1-1.836,0,1.112,1.112,0,0,1-.348-.844m2.4,10.641H379.7v-8.453h2.266Z" fill="#fff"/>
            <path id="Trazado_215428" data-name="Trazado 215428" d="M383.469,412.711a5.1,5.1,0,0,1,.887-3.149,2.876,2.876,0,0,1,2.426-1.171,2.589,2.589,0,0,1,2.039.921V405h2.265v12h-2.039l-.109-.9a2.655,2.655,0,0,1-2.172,1.055,2.865,2.865,0,0,1-2.394-1.176,5.256,5.256,0,0,1-.9-3.269m2.258.16a3.356,3.356,0,0,0,.414,1.829,1.347,1.347,0,0,0,1.2.636,1.511,1.511,0,0,0,1.477-.887V411.1a1.49,1.49,0,0,0-1.461-.887q-1.633,0-1.633,2.66" fill="#fff"/>
            <path id="Trazado_215429" data-name="Trazado 215429" d="M396.727,417.156a4.154,4.154,0,0,1-3.028-1.14,4.058,4.058,0,0,1-1.168-3.039v-.219a5.1,5.1,0,0,1,.493-2.277,3.616,3.616,0,0,1,1.394-1.547,3.907,3.907,0,0,1,2.059-.543,3.508,3.508,0,0,1,2.73,1.093,4.446,4.446,0,0,1,1,3.1v.922h-5.382a2.1,2.1,0,0,0,.66,1.328,2,2,0,0,0,1.394.5,2.436,2.436,0,0,0,2.039-.945l1.11,1.242a3.4,3.4,0,0,1-1.375,1.121,4.5,4.5,0,0,1-1.922.4m-.258-6.945a1.408,1.408,0,0,0-1.09.455,2.364,2.364,0,0,0-.535,1.3h3.141v-.181a1.681,1.681,0,0,0-.407-1.165,1.457,1.457,0,0,0-1.109-.412" fill="#fff"/>
            <path id="Trazado_215430" data-name="Trazado 215430" d="M406.234,410.664a6.077,6.077,0,0,0-.812-.062,1.653,1.653,0,0,0-1.68.867V417h-2.258v-8.453h2.133l.062,1.008a2.091,2.091,0,0,1,1.883-1.164,2.384,2.384,0,0,1,.7.1Z" fill="#fff"/>
            <path id="Trazado_215431" data-name="Trazado 215431" d="M411.984,417a2.488,2.488,0,0,1-.226-.758,2.731,2.731,0,0,1-2.133.915,3,3,0,0,1-2.059-.719,2.313,2.313,0,0,1-.816-1.813,2.389,2.389,0,0,1,1-2.062,4.908,4.908,0,0,1,2.879-.727h1.039v-.484a1.4,1.4,0,0,0-.3-.938,1.183,1.183,0,0,0-.949-.351,1.348,1.348,0,0,0-.895.273.934.934,0,0,0-.324.75h-2.258a2.276,2.276,0,0,1,.453-1.359,3,3,0,0,1,1.282-.981,4.665,4.665,0,0,1,1.859-.355,3.694,3.694,0,0,1,2.481.785,2.747,2.747,0,0,1,.918,2.207v3.664a4.034,4.034,0,0,0,.335,1.82V417Zm-1.867-1.57a1.939,1.939,0,0,0,.922-.223,1.463,1.463,0,0,0,.625-.6v-1.453h-.844q-1.7,0-1.8,1.171l-.007.133a.9.9,0,0,0,.3.7,1.153,1.153,0,0,0,.812.273" fill="#fff"/>
            <path id="Trazado_215432" data-name="Trazado 215432" d="M415.312,412.711a5.1,5.1,0,0,1,.887-3.149,2.876,2.876,0,0,1,2.426-1.171,2.589,2.589,0,0,1,2.039.921V405h2.265v12H420.89l-.109-.9a2.655,2.655,0,0,1-2.172,1.055,2.865,2.865,0,0,1-2.394-1.176,5.256,5.256,0,0,1-.9-3.269m2.258.16a3.356,3.356,0,0,0,.414,1.829,1.347,1.347,0,0,0,1.2.636,1.511,1.511,0,0,0,1.477-.887V411.1a1.49,1.49,0,0,0-1.461-.887q-1.633,0-1.633,2.66" fill="#fff"/>
            <path id="Trazado_215433" data-name="Trazado 215433" d="M424.328,412.7a5,5,0,0,1,.485-2.242,3.551,3.551,0,0,1,1.394-1.524,4.075,4.075,0,0,1,2.113-.539,3.848,3.848,0,0,1,2.793,1.047,4.2,4.2,0,0,1,1.207,2.844l.016.578a4.418,4.418,0,0,1-1.086,3.121,4.208,4.208,0,0,1-5.832,0,4.494,4.494,0,0,1-1.09-3.188Zm2.258.16a3.16,3.16,0,0,0,.453,1.843,1.629,1.629,0,0,0,2.578.008,3.454,3.454,0,0,0,.461-2.015,3.123,3.123,0,0,0-.461-1.831,1.5,1.5,0,0,0-1.3-.65,1.474,1.474,0,0,0-1.281.646,3.518,3.518,0,0,0-.453,2" fill="#fff"/>
            <path id="Trazado_215434" data-name="Trazado 215434" d="M438.3,414.664a.728.728,0,0,0-.41-.652,4.623,4.623,0,0,0-1.317-.426q-3.015-.633-3.015-2.563a2.324,2.324,0,0,1,.933-1.879,3.77,3.77,0,0,1,2.442-.753,4.055,4.055,0,0,1,2.574.757,2.387,2.387,0,0,1,.965,1.969h-2.258a1.094,1.094,0,0,0-.312-.8,1.324,1.324,0,0,0-.977-.316,1.351,1.351,0,0,0-.883.258.814.814,0,0,0-.312.656.694.694,0,0,0,.355.605,3.65,3.65,0,0,0,1.2.4,9.721,9.721,0,0,1,1.422.379,2.335,2.335,0,0,1,1.789,2.273,2.2,2.2,0,0,1-.992,1.871,4.274,4.274,0,0,1-2.562.715,4.469,4.469,0,0,1-1.887-.379,3.155,3.155,0,0,1-1.293-1.039,2.41,2.41,0,0,1-.469-1.426h2.141a1.176,1.176,0,0,0,.445.922,1.765,1.765,0,0,0,1.11.321,1.636,1.636,0,0,0,.98-.246.766.766,0,0,0,.332-.645" fill="#fff"/>
            <path id="Trazado_215435" data-name="Trazado 215435" d="M449.453,415.336a1.478,1.478,0,0,0,1.016-.344,1.208,1.208,0,0,0,.406-.914h2.117a2.887,2.887,0,0,1-.469,1.574,3.087,3.087,0,0,1-1.261,1.11,3.967,3.967,0,0,1-1.77.394A3.667,3.667,0,0,1,446.633,416a4.556,4.556,0,0,1-1.047-3.184v-.148a4.506,4.506,0,0,1,1.039-3.117,3.622,3.622,0,0,1,2.851-1.164,3.551,3.551,0,0,1,2.543.9,3.2,3.2,0,0,1,.973,2.4h-2.117a1.559,1.559,0,0,0-.406-1.072,1.511,1.511,0,0,0-2.223.163,3.327,3.327,0,0,0-.4,1.866v.235a3.374,3.374,0,0,0,.4,1.878,1.376,1.376,0,0,0,1.211.571" fill="#fff"/>
            <path id="Trazado_215436" data-name="Trazado 215436" d="M453.929,412.7a5,5,0,0,1,.485-2.242,3.551,3.551,0,0,1,1.394-1.524,4.075,4.075,0,0,1,2.113-.539,3.846,3.846,0,0,1,2.793,1.047,4.2,4.2,0,0,1,1.207,2.844l.017.578a4.418,4.418,0,0,1-1.087,3.121,4.208,4.208,0,0,1-5.832,0,4.494,4.494,0,0,1-1.09-3.188Zm2.259.16a3.16,3.16,0,0,0,.452,1.843,1.629,1.629,0,0,0,2.578.008,3.453,3.453,0,0,0,.461-2.015,3.122,3.122,0,0,0-.461-1.831,1.5,1.5,0,0,0-1.3-.65,1.473,1.473,0,0,0-1.281.646,3.519,3.519,0,0,0-.452,2" fill="#fff"/>
            <path id="Trazado_215437" data-name="Trazado 215437" d="M465.445,408.547l.07.945a2.972,2.972,0,0,1,2.43-1.1,2.253,2.253,0,0,1,2.242,1.289,2.9,2.9,0,0,1,2.539-1.289,2.518,2.518,0,0,1,2.047.8,3.678,3.678,0,0,1,.672,2.41V417h-2.266v-5.4a1.613,1.613,0,0,0-.281-1.053,1.243,1.243,0,0,0-.992-.333,1.409,1.409,0,0,0-1.406.971l.007,5.818H468.25v-5.395a1.6,1.6,0,0,0-.289-1.065,1.255,1.255,0,0,0-.985-.329,1.463,1.463,0,0,0-1.39.8V417h-2.258v-8.453Z" fill="#fff"/>
            <path id="Trazado_215438" data-name="Trazado 215438" d="M484.789,412.852a5.071,5.071,0,0,1-.887,3.129,2.843,2.843,0,0,1-2.394,1.176,2.635,2.635,0,0,1-2.071-.891v3.984h-2.258v-11.7h2.094l.078.828a2.655,2.655,0,0,1,2.141-.984,2.866,2.866,0,0,1,2.43,1.156,5.208,5.208,0,0,1,.867,3.188Zm-2.258-.172a3.352,3.352,0,0,0-.418-1.826,1.359,1.359,0,0,0-1.215-.643,1.479,1.479,0,0,0-1.461.815V414.5a1.5,1.5,0,0,0,1.477.839q1.617,0,1.617-2.656" fill="#fff"/>
            <path id="Trazado_215439" data-name="Trazado 215439" d="M490.078,417.156a4.154,4.154,0,0,1-3.028-1.14,4.059,4.059,0,0,1-1.168-3.039v-.219a5.1,5.1,0,0,1,.493-2.277,3.616,3.616,0,0,1,1.394-1.547,3.907,3.907,0,0,1,2.059-.543,3.508,3.508,0,0,1,2.73,1.093,4.447,4.447,0,0,1,1,3.1v.922h-5.382a2.1,2.1,0,0,0,.66,1.328,2,2,0,0,0,1.394.5,2.436,2.436,0,0,0,2.039-.945l1.11,1.242A3.4,3.4,0,0,1,492,416.754a4.5,4.5,0,0,1-1.922.4m-.258-6.945a1.408,1.408,0,0,0-1.09.455,2.363,2.363,0,0,0-.535,1.3h3.141v-.181a1.681,1.681,0,0,0-.407-1.165,1.457,1.457,0,0,0-1.109-.412" fill="#fff"/>
            <path id="Trazado_215440" data-name="Trazado 215440" d="M497.539,406.469v2.078h1.445V410.2h-1.445v4.219a1.007,1.007,0,0,0,.18.672.9.9,0,0,0,.687.2,3.547,3.547,0,0,0,.664-.055v1.711a4.624,4.624,0,0,1-1.367.2,2.156,2.156,0,0,1-2.422-2.4V410.2h-1.234v-1.656h1.234v-2.078Z" fill="#fff"/>
            <path id="Trazado_215441" data-name="Trazado 215441" d="M504.133,417.156a4.154,4.154,0,0,1-3.028-1.14,4.058,4.058,0,0,1-1.168-3.039v-.219a5.1,5.1,0,0,1,.493-2.277,3.616,3.616,0,0,1,1.394-1.547,3.907,3.907,0,0,1,2.059-.543,3.508,3.508,0,0,1,2.73,1.093,4.446,4.446,0,0,1,1,3.1v.922h-5.382a2.1,2.1,0,0,0,.66,1.328,2,2,0,0,0,1.394.5,2.436,2.436,0,0,0,2.039-.945l1.11,1.242a3.4,3.4,0,0,1-1.375,1.121,4.5,4.5,0,0,1-1.922.4m-.258-6.945a1.408,1.408,0,0,0-1.09.455,2.363,2.363,0,0,0-.535,1.3h3.141v-.181a1.681,1.681,0,0,0-.407-1.165,1.457,1.457,0,0,0-1.109-.412" fill="#fff"/>
            <path id="Trazado_215442" data-name="Trazado 215442" d="M510.969,408.547l.07.977a2.953,2.953,0,0,1,2.43-1.133,2.45,2.45,0,0,1,2,.789,3.686,3.686,0,0,1,.672,2.359V417h-2.258v-5.419a1.474,1.474,0,0,0-.312-1.045,1.4,1.4,0,0,0-1.04-.325,1.552,1.552,0,0,0-1.429.815V417h-2.258v-8.453Z" fill="#fff"/>
            <path id="Trazado_215443" data-name="Trazado 215443" d="M521.367,415.336a1.478,1.478,0,0,0,1.016-.344,1.208,1.208,0,0,0,.406-.914h2.117a2.887,2.887,0,0,1-.469,1.574,3.086,3.086,0,0,1-1.261,1.11,3.967,3.967,0,0,1-1.77.394A3.667,3.667,0,0,1,518.547,416a4.556,4.556,0,0,1-1.047-3.184v-.148a4.506,4.506,0,0,1,1.039-3.117,3.622,3.622,0,0,1,2.851-1.164,3.551,3.551,0,0,1,2.543.9,3.2,3.2,0,0,1,.973,2.4h-2.117a1.559,1.559,0,0,0-.406-1.072,1.511,1.511,0,0,0-2.223.163,3.327,3.327,0,0,0-.4,1.866v.235a3.374,3.374,0,0,0,.4,1.878,1.376,1.376,0,0,0,1.211.571" fill="#fff"/>
            <path id="Trazado_215444" data-name="Trazado 215444" d="M526.18,406.359a1.112,1.112,0,0,1,.34-.836,1.464,1.464,0,0,1,1.847,0,1.193,1.193,0,0,1,0,1.68,1.449,1.449,0,0,1-1.836,0,1.111,1.111,0,0,1-.347-.844m2.4,10.641h-2.266v-8.453h2.266Z" fill="#fff"/>
            <path id="Trazado_215445" data-name="Trazado 215445" d="M535.336,417a2.489,2.489,0,0,1-.226-.758,2.731,2.731,0,0,1-2.133.915,3,3,0,0,1-2.059-.719,2.313,2.313,0,0,1-.816-1.813,2.389,2.389,0,0,1,1-2.062,4.908,4.908,0,0,1,2.879-.727h1.039v-.484a1.4,1.4,0,0,0-.3-.938,1.184,1.184,0,0,0-.949-.351,1.348,1.348,0,0,0-.9.273.934.934,0,0,0-.324.75h-2.258a2.276,2.276,0,0,1,.453-1.359,3,3,0,0,1,1.282-.981,4.665,4.665,0,0,1,1.859-.355,3.694,3.694,0,0,1,2.481.785,2.747,2.747,0,0,1,.918,2.207v3.664a4.034,4.034,0,0,0,.335,1.82V417Zm-1.867-1.57a1.939,1.939,0,0,0,.922-.223,1.463,1.463,0,0,0,.625-.6v-1.453h-.844q-1.7,0-1.8,1.171l-.007.133a.9.9,0,0,0,.3.7,1.153,1.153,0,0,0,.812.273" fill="#fff"/>
          </g>
        </g>
      </g>
    </g>
    <g id="Grupo_154094" data-name="Grupo 154094">
      <g id="Grupo_154087" data-name="Grupo 154087" transform="translate(40.196 6422.059)">
        <path id="Trazado_194909" data-name="Trazado 194909" d="M18.431,0A18.431,18.431,0,1,1,0,18.431,18.431,18.431,0,0,1,18.431,0Z" transform="translate(548.941 1985.941)" fill="#2c53a0" opacity="0.28"/>
        <path id="Trazado_191051" data-name="Trazado 191051" d="M11.3,0A11.3,11.3,0,1,1,0,11.3,11.3,11.3,0,0,1,11.3,0Z" transform="translate(555.942 1993.351)" fill="#2c53a0"/>
        <text id="_" data-name="+" transform="translate(560.941 2012.352)" fill="#fff" font-size="21" font-family="Roboto-Regular, Roboto"><tspan x="0" y="0">+</tspan></text>
      </g>
      <g id="Grupo_154088" data-name="Grupo 154088" transform="translate(313.86 6422.059)">
        <path id="Trazado_194909-2" data-name="Trazado 194909" d="M18.431,0A18.431,18.431,0,1,1,0,18.431,18.431,18.431,0,0,1,18.431,0Z" transform="translate(548.941 1985.941)" fill="#2c53a0" opacity="0.28"/>
        <path id="Trazado_191051-2" data-name="Trazado 191051" d="M11.3,0A11.3,11.3,0,1,1,0,11.3,11.3,11.3,0,0,1,11.3,0Z" transform="translate(555.942 1993.351)" fill="#2c53a0"/>
        <text id="_2" data-name="+" transform="translate(560.941 2012.352)" fill="#fff" font-size="21" font-family="Roboto-Regular, Roboto"><tspan x="0" y="0">+</tspan></text>
      </g>
      <g id="Grupo_154089" data-name="Grupo 154089" transform="translate(39.762 6609.627)">
        <path id="Trazado_194909-3" data-name="Trazado 194909" d="M18.431,0A18.431,18.431,0,1,1,0,18.431,18.431,18.431,0,0,1,18.431,0Z" transform="translate(548.941 1985.941)" fill="#2c53a0" opacity="0.28"/>
        <path id="Trazado_191051-3" data-name="Trazado 191051" d="M11.3,0A11.3,11.3,0,1,1,0,11.3,11.3,11.3,0,0,1,11.3,0Z" transform="translate(555.942 1993.351)" fill="#2c53a0"/>
        <text id="_3" data-name="+" transform="translate(560.941 2012.352)" fill="#fff" font-size="21" font-family="Roboto-Regular, Roboto"><tspan x="0" y="0">+</tspan></text>
      </g>
      <g id="Grupo_154090" data-name="Grupo 154090" transform="translate(57.034 6543.358)">
        <path id="Trazado_194909-4" data-name="Trazado 194909" d="M18.431,0A18.431,18.431,0,1,1,0,18.431,18.431,18.431,0,0,1,18.431,0Z" transform="translate(548.941 1985.941)" fill="#2c53a0" opacity="0.28"/>
        <path id="Trazado_191051-4" data-name="Trazado 191051" d="M11.3,0A11.3,11.3,0,1,1,0,11.3,11.3,11.3,0,0,1,11.3,0Z" transform="translate(555.942 1993.351)" fill="#2c53a0"/>
        <text id="_1" data-name="1" transform="translate(562.373 2010.944)" fill="#fff" font-size="18" font-family="Roboto-Bold, Roboto" font-weight="700"><tspan x="0" y="0">1</tspan></text>
      </g>
      <g id="Grupo_154091" data-name="Grupo 154091" transform="translate(123.627 6435.196)">
        <path id="Trazado_194909-5" data-name="Trazado 194909" d="M18.431,0A18.431,18.431,0,1,1,0,18.431,18.431,18.431,0,0,1,18.431,0Z" transform="translate(548.941 1985.941)" fill="#2c53a0" opacity="0.28"/>
        <path id="Trazado_191051-5" data-name="Trazado 191051" d="M11.3,0A11.3,11.3,0,1,1,0,11.3,11.3,11.3,0,0,1,11.3,0Z" transform="translate(555.942 1993.351)" fill="#2c53a0"/>
        <text id="_2-2" data-name="2" transform="translate(562.373 2010.944)" fill="#fff" font-size="18" font-family="Roboto-Bold, Roboto" font-weight="700"><tspan x="0" y="0">2</tspan></text>
      </g>
      <g id="Grupo_154092" data-name="Grupo 154092" transform="translate(338.291 6354.92)">
        <path id="Trazado_194909-6" data-name="Trazado 194909" d="M18.431,0A18.431,18.431,0,1,1,0,18.431,18.431,18.431,0,0,1,18.431,0Z" transform="translate(548.941 1985.941)" fill="#2c53a0" opacity="0.28"/>
        <path id="Trazado_191051-6" data-name="Trazado 191051" d="M11.3,0A11.3,11.3,0,1,1,0,11.3,11.3,11.3,0,0,1,11.3,0Z" transform="translate(555.942 1993.351)" fill="#2c53a0"/>
        <text id="_3-2" data-name="3" transform="translate(562.373 2010.944)" fill="#fff" font-size="18" font-family="Roboto-Bold, Roboto" font-weight="700"><tspan x="0" y="0">3</tspan></text>
      </g>
      <g id="Grupo_154093" data-name="Grupo 154093" transform="translate(315.86 6609.358)">
        <path id="Trazado_194909-7" data-name="Trazado 194909" d="M18.431,0A18.431,18.431,0,1,1,0,18.431,18.431,18.431,0,0,1,18.431,0Z" transform="translate(548.941 1985.941)" fill="#2c53a0" opacity="0.28"/>
        <path id="Trazado_191051-7" data-name="Trazado 191051" d="M11.3,0A11.3,11.3,0,1,1,0,11.3,11.3,11.3,0,0,1,11.3,0Z" transform="translate(555.942 1993.351)" fill="#2c53a0"/>
        <text id="_4" data-name="+" transform="translate(560.941 2012.352)" fill="#fff" font-size="21" font-family="Roboto-Regular, Roboto"><tspan x="0" y="0">+</tspan></text>
      </g>
    </g>
  </g>
</svg>
