<svg xmlns="http://www.w3.org/2000/svg" xmlns:xlink="http://www.w3.org/1999/xlink" width="820" height="537" viewBox="0 0 820 537">
  <defs>
    <linearGradient id="linear-gradient" x1="0.015" y1="0.527" x2="0.98" y2="0.527" gradientUnits="objectBoundingBox">
      <stop offset="0" stop-color="#fff5db"/>
      <stop offset="1" stop-color="#fffcf5"/>
    </linearGradient>
    <linearGradient id="linear-gradient-2" y1="0.099" x2="0.988" y2="0.111" gradientUnits="objectBoundingBox">
      <stop offset="0" stop-color="#e9edf5"/>
      <stop offset="1" stop-color="#fff"/>
    </linearGradient>
    <clipPath id="clip-path">
      <rect id="Rectángulo_44389" data-name="Rectángulo 44389" width="762.398" height="526.25" fill="none"/>
    </clipPath>
  </defs>
  <g id="Grupo_153968" data-name="Grupo 153968" transform="translate(-390 -9158)">
    <g id="Grupo_153320" data-name="Grupo 153320" transform="translate(0 -7)">
      <rect id="Rectángulo_43032" data-name="Rectángulo 43032" width="651" height="431" transform="translate(559 9202)" fill="url(#linear-gradient)"/>
      <rect id="Rectángulo_43033" data-name="Rectángulo 43033" width="651" height="203" transform="translate(559 9430)" fill="url(#linear-gradient-2)"/>
      <path id="Trazado_213258" data-name="Trazado 213258" d="M-6919-2343.81h753.59" transform="translate(7375.387 11774.089)" fill="none" stroke="#9f321d" stroke-width="2" stroke-dasharray="4"/>
      <rect id="Rectángulo_43034" data-name="Rectángulo 43034" width="165" height="36" transform="translate(559 9191)" fill="#e8e8e8"/>
      <rect id="Rectángulo_43035" data-name="Rectángulo 43035" width="163" height="36" transform="translate(721 9191)" fill="#f3e6e3"/>
      <rect id="Rectángulo_43036" data-name="Rectángulo 43036" width="165" height="36" transform="translate(883 9191)" fill="#e8e8e8"/>
      <rect id="Rectángulo_43037" data-name="Rectángulo 43037" width="165" height="36" transform="translate(1045 9191)" fill="#f3e6e3"/>
      <g id="Rectángulo_43038" data-name="Rectángulo 43038" transform="translate(390 9633)" fill="none" stroke="#707070" stroke-width="1">
        <rect width="820" height="42" stroke="none"/>
        <rect x="0.5" y="0.5" width="819" height="41" fill="none"/>
      </g>
      <path id="Trazado_213259" data-name="Trazado 213259" d="M-6610-2406v406.8" transform="translate(7331.44 11632.93)" fill="none" stroke="#beb9b9" stroke-width="1"/>
      <path id="Trazado_213260" data-name="Trazado 213260" d="M-6610-2406v406.8" transform="translate(7493.147 11632.93)" fill="none" stroke="#beb9b9" stroke-width="1"/>
      <path id="Trazado_213261" data-name="Trazado 213261" d="M-6610-2406v406.8" transform="translate(7654.853 11632.93)" fill="none" stroke="#beb9b9" stroke-width="1"/>
      <path id="Trazado_213257" data-name="Trazado 213257" d="M-6861.919-2071.295s40.078-5.433,46.871-11.547,21.738-19.02,21.738-19.02,13.689-15.625,17.374-20.379,54.632-80.157,62.782-93.743,19.7-27.171,21.058-31.247,57.74-86.95,65.892-105.291,20.947-60.458,38.665-70.647,59.833-27.852,75.457-25.134,36-9.51,76.76,14.266,113.443,85.591,122.953,92.385,56.383,61.816,59.778,65.213" transform="translate(7420.721 11690.469)" fill="none" stroke="#9f321d" stroke-linecap="round" stroke-width="3"/>
      <rect id="Rectángulo_43039" data-name="Rectángulo 43039" width="211" height="26" transform="translate(510 9165)" fill="#9f321d"/>
      <rect id="Rectángulo_43040" data-name="Rectángulo 43040" width="211" height="27" transform="translate(781 9675)" fill="#9f321d"/>
      <rect id="Rectángulo_43041" data-name="Rectángulo 43041" width="211" height="27" transform="translate(453 9675)" fill="#9f321d"/>
      <g id="Grupo_154109" data-name="Grupo 154109" transform="translate(390 9170.375)">
        <g id="Grupo_154110" data-name="Grupo 154110">
          <g id="Grupo_154109-2" data-name="Grupo 154109" clip-path="url(#clip-path)">
            <path id="Trazado_215446" data-name="Trazado 215446" d="M306.992,483.782V488h-1.977V476.626h4.352a4.4,4.4,0,0,1,3.027.993,3.341,3.341,0,0,1,1.121,2.628,3.229,3.229,0,0,1-1.1,2.6,4.617,4.617,0,0,1-3.074.931Zm0-1.594h2.375a2.337,2.337,0,0,0,1.609-.5,1.824,1.824,0,0,0,.555-1.434,1.966,1.966,0,0,0-.562-1.472,2.168,2.168,0,0,0-1.547-.567h-2.43Z" fill="#12263f"/>
            <path id="Trazado_215447" data-name="Trazado 215447" d="M314.6,483.7a4.985,4.985,0,0,1,.492-2.238,3.6,3.6,0,0,1,1.383-1.532,3.9,3.9,0,0,1,2.046-.535,3.691,3.691,0,0,1,2.778,1.1,4.329,4.329,0,0,1,1.152,2.922l.008.445a5.019,5.019,0,0,1-.481,2.234,3.546,3.546,0,0,1-1.375,1.524,3.926,3.926,0,0,1-2.066.539,3.667,3.667,0,0,1-2.863-1.192,4.555,4.555,0,0,1-1.074-3.175Zm1.9.164a3.408,3.408,0,0,0,.539,2.043,1.752,1.752,0,0,0,1.5.738,1.733,1.733,0,0,0,1.5-.75,3.758,3.758,0,0,0,.535-2.2,3.361,3.361,0,0,0-.55-2.031,1.761,1.761,0,0,0-1.5-.75,1.741,1.741,0,0,0-1.476.738,3.688,3.688,0,0,0-.547,2.207" fill="#12263f"/>
            <path id="Trazado_215448" data-name="Trazado 215448" d="M327.539,486.641a1.718,1.718,0,0,0,1.18-.414,1.416,1.416,0,0,0,.5-1.023h1.789a2.791,2.791,0,0,1-.492,1.472,3.233,3.233,0,0,1-1.25,1.082,3.725,3.725,0,0,1-1.7.4,3.6,3.6,0,0,1-2.812-1.149,4.553,4.553,0,0,1-1.039-3.172v-.2a4.484,4.484,0,0,1,1.031-3.09,3.574,3.574,0,0,1,2.813-1.16,3.473,3.473,0,0,1,2.457.879,3.15,3.15,0,0,1,1,2.309h-1.789a1.745,1.745,0,0,0-.5-1.2,1.6,1.6,0,0,0-1.184-.469,1.671,1.671,0,0,0-1.422.668,3.411,3.411,0,0,0-.508,2.028v.3a3.462,3.462,0,0,0,.5,2.051,1.672,1.672,0,0,0,1.434.676" fill="#12263f"/>
            <path id="Trazado_215449" data-name="Trazado 215449" d="M332.086,483.7a4.985,4.985,0,0,1,.492-2.238,3.6,3.6,0,0,1,1.383-1.532,3.9,3.9,0,0,1,2.046-.535,3.691,3.691,0,0,1,2.778,1.1,4.329,4.329,0,0,1,1.152,2.922l.008.445a5.018,5.018,0,0,1-.481,2.234,3.546,3.546,0,0,1-1.375,1.524,3.926,3.926,0,0,1-2.066.539,3.667,3.667,0,0,1-2.863-1.192,4.554,4.554,0,0,1-1.074-3.175Zm1.9.164a3.408,3.408,0,0,0,.539,2.043,1.752,1.752,0,0,0,1.5.738,1.733,1.733,0,0,0,1.5-.75,3.758,3.758,0,0,0,.535-2.2,3.361,3.361,0,0,0-.55-2.031,1.762,1.762,0,0,0-1.5-.75,1.741,1.741,0,0,0-1.476.738,3.688,3.688,0,0,0-.547,2.207" fill="#12263f"/>
            <path id="Trazado_215450" data-name="Trazado 215450" d="M1.015,447V435.625h3.9a4.763,4.763,0,0,1,2.937.773,2.725,2.725,0,0,1,1.008,2.3,2.453,2.453,0,0,1-.422,1.406,2.72,2.72,0,0,1-1.234.969,2.514,2.514,0,0,1,1.426.941,2.743,2.743,0,0,1,.5,1.66A3.028,3.028,0,0,1,8.1,446.14a4.46,4.46,0,0,1-2.941.86Zm1.977-6.586H4.929A2.247,2.247,0,0,0,6.371,440a1.432,1.432,0,0,0,.519-1.184,1.451,1.451,0,0,0-.48-1.218,2.425,2.425,0,0,0-1.5-.375H2.992Zm0,1.453v3.539H5.187a2.13,2.13,0,0,0,1.453-.459,1.807,1.807,0,0,0-1.289-3.08Z" fill="#12263f"/>
            <path id="Trazado_215451" data-name="Trazado 215451" d="M15.977,447a2.923,2.923,0,0,1-.219-.789,2.956,2.956,0,0,1-2.219.945,2.982,2.982,0,0,1-2.078-.726,2.326,2.326,0,0,1-.8-1.8,2.4,2.4,0,0,1,1-2.074,4.86,4.86,0,0,1,2.871-.723H15.7v-.555a1.477,1.477,0,0,0-.368-1.05,1.456,1.456,0,0,0-1.117-.395,1.678,1.678,0,0,0-1.062.324,1,1,0,0,0-.414.825h-1.9a2.107,2.107,0,0,1,.461-1.3,3.062,3.062,0,0,1,1.254-.949,4.387,4.387,0,0,1,1.77-.344,3.55,3.55,0,0,1,2.367.746,2.659,2.659,0,0,1,.906,2.1v3.812a4.326,4.326,0,0,0,.32,1.82V447Zm-2.086-1.367a2.164,2.164,0,0,0,1.059-.273,1.834,1.834,0,0,0,.746-.735v-1.594H14.672a2.8,2.8,0,0,0-1.586.368,1.189,1.189,0,0,0-.531,1.039,1.11,1.11,0,0,0,.363.871,1.41,1.41,0,0,0,.973.324" fill="#12263f"/>
            <path id="Trazado_215452" data-name="Trazado 215452" d="M21.563,438.547v9.2a2.781,2.781,0,0,1-.645,1.981,2.47,2.47,0,0,1-1.887.683,3.824,3.824,0,0,1-1.008-.132v-1.5a2.984,2.984,0,0,0,.672.07q.945,0,.969-1.031v-9.274Zm-2.063-2.2a1.018,1.018,0,0,1,.277-.732,1.045,1.045,0,0,1,.793-.291,1.056,1.056,0,0,1,.8.291,1.009,1.009,0,0,1,.281.732.988.988,0,0,1-.281.721,1.066,1.066,0,0,1-.8.287,1.054,1.054,0,0,1-.793-.287,1,1,0,0,1-.277-.721" fill="#12263f"/>
            <path id="Trazado_215453" data-name="Trazado 215453" d="M28.641,447a2.923,2.923,0,0,1-.219-.789,3.195,3.195,0,0,1-4.3.219,2.326,2.326,0,0,1-.8-1.8,2.4,2.4,0,0,1,1-2.074,4.86,4.86,0,0,1,2.871-.723H28.36v-.555a1.477,1.477,0,0,0-.368-1.05,1.456,1.456,0,0,0-1.117-.395,1.678,1.678,0,0,0-1.062.324,1,1,0,0,0-.414.825H23.5a2.107,2.107,0,0,1,.461-1.3,3.062,3.062,0,0,1,1.254-.949,4.387,4.387,0,0,1,1.77-.344,3.55,3.55,0,0,1,2.367.746,2.659,2.659,0,0,1,.906,2.1v3.812a4.326,4.326,0,0,0,.32,1.82V447Zm-2.086-1.367a2.164,2.164,0,0,0,1.059-.273,1.834,1.834,0,0,0,.746-.735v-1.594H27.336a2.8,2.8,0,0,0-1.586.368,1.189,1.189,0,0,0-.531,1.039,1.11,1.11,0,0,0,.363.871,1.41,1.41,0,0,0,.973.324" fill="#12263f"/>
            <path id="Trazado_215454" data-name="Trazado 215454" d="M36.984,444.7a.86.86,0,0,0-.418-.773,4.466,4.466,0,0,0-1.387-.469,7.163,7.163,0,0,1-1.617-.516,2.158,2.158,0,0,1-1.422-1.992,2.248,2.248,0,0,1,.922-1.828,3.647,3.647,0,0,1,2.344-.734,3.792,3.792,0,0,1,2.449.75,2.381,2.381,0,0,1,.934,1.945h-1.9a1.169,1.169,0,0,0-.406-.91,1.553,1.553,0,0,0-1.078-.364,1.688,1.688,0,0,0-1.02.289.912.912,0,0,0-.394.774.77.77,0,0,0,.367.68,5.06,5.06,0,0,0,1.484.488,7.012,7.012,0,0,1,1.754.586,2.485,2.485,0,0,1,.946.816,2.088,2.088,0,0,1,.308,1.156,2.2,2.2,0,0,1-.945,1.848,4.027,4.027,0,0,1-2.477.707,4.365,4.365,0,0,1-1.851-.375,3.049,3.049,0,0,1-1.266-1.031,2.443,2.443,0,0,1-.453-1.414H33.7a1.335,1.335,0,0,0,.508,1.035,1.972,1.972,0,0,0,1.242.363,1.91,1.91,0,0,0,1.14-.285.88.88,0,0,0,.391-.746" fill="#12263f"/>
          </g>
        </g>
        <path id="Trazado_215455" data-name="Trazado 215455" d="M3.578,229.625l3.281,8.719,3.274-8.719h2.554V241H10.719v-3.75l.2-5.016L7.555,241H6.141l-3.352-8.758.195,5.008V241H1.015V229.625Z" fill="#12263f"/>
        <g id="Grupo_154112" data-name="Grupo 154112">
          <g id="Grupo_154111" data-name="Grupo 154111" clip-path="url(#clip-path)">
            <path id="Trazado_215456" data-name="Trazado 215456" d="M14.485,236.7a4.985,4.985,0,0,1,.492-2.238,3.6,3.6,0,0,1,1.383-1.532,3.9,3.9,0,0,1,2.046-.535,3.691,3.691,0,0,1,2.778,1.1,4.329,4.329,0,0,1,1.152,2.922l.008.445a5.018,5.018,0,0,1-.481,2.234,3.546,3.546,0,0,1-1.375,1.524,3.927,3.927,0,0,1-2.066.539,3.667,3.667,0,0,1-2.863-1.192,4.555,4.555,0,0,1-1.074-3.175Zm1.9.164a3.408,3.408,0,0,0,.539,2.043,1.752,1.752,0,0,0,1.5.738,1.733,1.733,0,0,0,1.5-.75,3.758,3.758,0,0,0,.535-2.195,3.361,3.361,0,0,0-.55-2.031,1.762,1.762,0,0,0-1.5-.75,1.741,1.741,0,0,0-1.476.738,3.688,3.688,0,0,0-.547,2.207" fill="#12263f"/>
            <path id="Trazado_215457" data-name="Trazado 215457" d="M23.594,236.711a5.021,5.021,0,0,1,.906-3.137,2.9,2.9,0,0,1,2.429-1.183,2.759,2.759,0,0,1,2.172.937V229H31v12H29.281l-.094-.875a2.8,2.8,0,0,1-2.273,1.031,2.884,2.884,0,0,1-2.4-1.2,5.2,5.2,0,0,1-.918-3.25m1.9.164a3.519,3.519,0,0,0,.5,2.012,1.611,1.611,0,0,0,1.41.722,1.792,1.792,0,0,0,1.7-1.039v-3.609a1.765,1.765,0,0,0-1.687-1.016,1.619,1.619,0,0,0-1.422.731,3.921,3.921,0,0,0-.5,2.2" fill="#12263f"/>
            <path id="Trazado_215458" data-name="Trazado 215458" d="M36.7,241.156a3.926,3.926,0,0,1-2.926-1.137,4.118,4.118,0,0,1-1.121-3.027v-.234a5.066,5.066,0,0,1,.488-2.262,3.712,3.712,0,0,1,1.371-1.551,3.622,3.622,0,0,1,1.969-.554,3.319,3.319,0,0,1,2.668,1.1,4.661,4.661,0,0,1,.941,3.117v.766H34.571a2.535,2.535,0,0,0,.7,1.656,2.1,2.1,0,0,0,1.543.61,2.571,2.571,0,0,0,2.125-1.055l1.023.976a3.41,3.41,0,0,1-1.355,1.176,4.241,4.241,0,0,1-1.9.418m-.227-7.242a1.6,1.6,0,0,0-1.262.547,2.829,2.829,0,0,0-.613,1.523h3.617v-.14a2.308,2.308,0,0,0-.508-1.442,1.588,1.588,0,0,0-1.234-.488" fill="#12263f"/>
            <path id="Trazado_215459" data-name="Trazado 215459" d="M45.992,234.281a4.661,4.661,0,0,0-.773-.062,1.741,1.741,0,0,0-1.758,1V241h-1.9v-8.453h1.813l.047.945a2.139,2.139,0,0,1,1.906-1.1,1.778,1.778,0,0,1,.672.11Z" fill="#12263f"/>
            <path id="Trazado_215460" data-name="Trazado 215460" d="M52.008,241a2.923,2.923,0,0,1-.219-.789,3.195,3.195,0,0,1-4.3.219,2.326,2.326,0,0,1-.8-1.8,2.4,2.4,0,0,1,1-2.074,4.86,4.86,0,0,1,2.871-.723h1.164v-.555a1.477,1.477,0,0,0-.368-1.05,1.456,1.456,0,0,0-1.117-.4,1.678,1.678,0,0,0-1.062.324,1,1,0,0,0-.414.825h-1.9a2.107,2.107,0,0,1,.461-1.3,3.062,3.062,0,0,1,1.254-.949,4.387,4.387,0,0,1,1.77-.344,3.55,3.55,0,0,1,2.367.746,2.659,2.659,0,0,1,.906,2.1v3.812a4.326,4.326,0,0,0,.32,1.82V241Zm-2.086-1.367a2.164,2.164,0,0,0,1.059-.273,1.834,1.834,0,0,0,.746-.735v-1.594H50.7a2.8,2.8,0,0,0-1.586.368,1.189,1.189,0,0,0-.531,1.039,1.11,1.11,0,0,0,.363.871,1.41,1.41,0,0,0,.973.324" fill="#12263f"/>
            <path id="Trazado_215461" data-name="Trazado 215461" d="M55.258,236.711a5.021,5.021,0,0,1,.906-3.137,2.9,2.9,0,0,1,2.429-1.183,2.759,2.759,0,0,1,2.172.937V229h1.9v12H60.945l-.094-.875a2.8,2.8,0,0,1-2.273,1.031,2.884,2.884,0,0,1-2.4-1.2,5.2,5.2,0,0,1-.918-3.25m1.9.164a3.519,3.519,0,0,0,.5,2.012,1.611,1.611,0,0,0,1.41.722,1.792,1.792,0,0,0,1.7-1.039v-3.609a1.765,1.765,0,0,0-1.687-1.016,1.619,1.619,0,0,0-1.422.731,3.921,3.921,0,0,0-.5,2.2" fill="#12263f"/>
            <path id="Trazado_215462" data-name="Trazado 215462" d="M69.695,241a2.923,2.923,0,0,1-.219-.789,3.195,3.195,0,0,1-4.3.219,2.326,2.326,0,0,1-.8-1.8,2.4,2.4,0,0,1,1-2.074,4.86,4.86,0,0,1,2.871-.723h1.164v-.555a1.477,1.477,0,0,0-.368-1.05,1.456,1.456,0,0,0-1.117-.4,1.678,1.678,0,0,0-1.062.324,1,1,0,0,0-.414.825h-1.9a2.107,2.107,0,0,1,.461-1.3,3.062,3.062,0,0,1,1.254-.949,4.387,4.387,0,0,1,1.77-.344,3.55,3.55,0,0,1,2.367.746,2.659,2.659,0,0,1,.906,2.1v3.812a4.326,4.326,0,0,0,.32,1.82V241Zm-2.086-1.367a2.164,2.164,0,0,0,1.059-.273,1.834,1.834,0,0,0,.746-.735v-1.594H68.39a2.8,2.8,0,0,0-1.586.368,1.188,1.188,0,0,0-.531,1.039,1.11,1.11,0,0,0,.363.871,1.41,1.41,0,0,0,.973.324" fill="#12263f"/>
            <path id="Trazado_215463" data-name="Trazado 215463" d="M78.039,238.7a.86.86,0,0,0-.418-.773,4.466,4.466,0,0,0-1.387-.469,7.165,7.165,0,0,1-1.617-.516,2.158,2.158,0,0,1-1.422-1.992,2.248,2.248,0,0,1,.922-1.828,3.647,3.647,0,0,1,2.344-.734,3.792,3.792,0,0,1,2.449.75,2.381,2.381,0,0,1,.934,1.945h-1.9a1.169,1.169,0,0,0-.406-.91,1.553,1.553,0,0,0-1.078-.364,1.688,1.688,0,0,0-1.02.289.912.912,0,0,0-.394.774.77.77,0,0,0,.367.68,5.059,5.059,0,0,0,1.484.488,7.011,7.011,0,0,1,1.754.586,2.485,2.485,0,0,1,.946.816,2.088,2.088,0,0,1,.308,1.156,2.2,2.2,0,0,1-.945,1.848,4.027,4.027,0,0,1-2.477.707,4.365,4.365,0,0,1-1.851-.375,3.049,3.049,0,0,1-1.266-1.031,2.443,2.443,0,0,1-.453-1.414h1.844a1.335,1.335,0,0,0,.508,1.035,1.972,1.972,0,0,0,1.242.363,1.91,1.91,0,0,0,1.14-.285.88.88,0,0,0,.391-.746" fill="#12263f"/>
          </g>
        </g>
        <path id="Trazado_215464" data-name="Trazado 215464" d="M204.84,241h-1.508l-5.726-8.766V241H196.1V229.625h1.508l5.742,8.805v-8.805h1.492Z" fill="#12263f"/>
        <g id="Grupo_154114" data-name="Grupo 154114">
          <g id="Grupo_154113" data-name="Grupo 154113" clip-path="url(#clip-path)">
            <path id="Trazado_215465" data-name="Trazado 215465" d="M207.285,230.3a.858.858,0,0,1,.215-.594.807.807,0,0,1,.637-.242.82.82,0,0,1,.64.242.852.852,0,0,1,.219.594.856.856,0,1,1-1.711,0m1.563,10.7H207.4v-8.453h1.445Z" fill="#12263f"/>
            <path id="Trazado_215466" data-name="Trazado 215466" d="M213.949,239.039l2.094-6.492h1.476L214.488,241h-1.1l-3.063-8.453H211.8Z" fill="#12263f"/>
            <path id="Trazado_215467" data-name="Trazado 215467" d="M222.317,241.156a3.692,3.692,0,0,1-2.8-1.129,4.189,4.189,0,0,1-1.078-3.019v-.266a5.075,5.075,0,0,1,.48-2.246,3.74,3.74,0,0,1,1.344-1.547,3.379,3.379,0,0,1,1.871-.558,3.17,3.17,0,0,1,2.563,1.085,4.706,4.706,0,0,1,.914,3.11v.6h-5.727a3.008,3.008,0,0,0,.73,2.02,2.3,2.3,0,0,0,1.778.769,2.524,2.524,0,0,0,1.3-.312,3.241,3.241,0,0,0,.929-.828l.883.687a3.548,3.548,0,0,1-3.187,1.633m-.18-7.578a1.928,1.928,0,0,0-1.469.637,3.1,3.1,0,0,0-.734,1.785h4.234v-.109a2.752,2.752,0,0,0-.594-1.708,1.816,1.816,0,0,0-1.437-.6" fill="#12263f"/>
            <rect id="Rectángulo_44391" data-name="Rectángulo 44391" width="1.445" height="12" transform="translate(227.41 229)" fill="#12263f"/>
            <path id="Trazado_215468" data-name="Trazado 215468" d="M234.778,236.7a4.949,4.949,0,0,1,.922-3.129,3.135,3.135,0,0,1,4.765-.168V229h1.445v12h-1.328l-.07-.906a2.944,2.944,0,0,1-2.414,1.062,2.889,2.889,0,0,1-2.4-1.2,5.009,5.009,0,0,1-.925-3.141Zm1.445.164a3.75,3.75,0,0,0,.594,2.25,1.917,1.917,0,0,0,1.64.813,2.109,2.109,0,0,0,2.008-1.235v-3.883a2.123,2.123,0,0,0-1.992-1.195,1.927,1.927,0,0,0-1.656.82,4.128,4.128,0,0,0-.594,2.43" fill="#12263f"/>
            <path id="Trazado_215469" data-name="Trazado 215469" d="M247.66,241.156a3.692,3.692,0,0,1-2.8-1.129,4.189,4.189,0,0,1-1.078-3.019v-.266a5.075,5.075,0,0,1,.48-2.246,3.74,3.74,0,0,1,1.344-1.547,3.379,3.379,0,0,1,1.871-.558,3.17,3.17,0,0,1,2.563,1.085,4.706,4.706,0,0,1,.914,3.11v.6H245.23a3.008,3.008,0,0,0,.73,2.02,2.3,2.3,0,0,0,1.778.769,2.524,2.524,0,0,0,1.3-.312,3.241,3.241,0,0,0,.929-.828l.883.687a3.548,3.548,0,0,1-3.187,1.633m-.18-7.578a1.928,1.928,0,0,0-1.469.637,3.1,3.1,0,0,0-.734,1.785h4.234v-.109a2.752,2.752,0,0,0-.594-1.708,1.816,1.816,0,0,0-1.437-.6" fill="#12263f"/>
            <path id="Trazado_215470" data-name="Trazado 215470" d="M261.809,240.164a3.071,3.071,0,0,1-2.477.992,2.627,2.627,0,0,1-2.058-.785,3.393,3.393,0,0,1-.715-2.324v-5.5H258v5.461q0,1.922,1.563,1.922a2.164,2.164,0,0,0,2.2-1.235v-6.148h1.445V241H261.84Z" fill="#12263f"/>
            <path id="Trazado_215471" data-name="Trazado 215471" d="M267.371,230.5v2.047h1.578v1.117h-1.578v5.249a1.173,1.173,0,0,0,.211.763.89.89,0,0,0,.719.254,3.548,3.548,0,0,0,.687-.094V241a4.234,4.234,0,0,1-1.109.155,1.8,1.8,0,0,1-1.461-.586,2.516,2.516,0,0,1-.492-1.664v-5.242h-1.539v-1.117h1.539V230.5Z" fill="#12263f"/>
            <path id="Trazado_215472" data-name="Trazado 215472" d="M270.645,230.3a.862.862,0,0,1,.214-.594.809.809,0,0,1,.637-.242.822.822,0,0,1,.641.242.856.856,0,0,1,.218.594.855.855,0,1,1-1.71,0m1.562,10.7h-1.445v-8.453h1.445Z" fill="#12263f"/>
            <rect id="Rectángulo_44392" data-name="Rectángulo 44392" width="1.445" height="12" transform="translate(274.645 229)" fill="#12263f"/>
            <path id="Trazado_215473" data-name="Trazado 215473" d="M278.41,230.3a.858.858,0,0,1,.215-.594.807.807,0,0,1,.637-.242.82.82,0,0,1,.64.242.852.852,0,0,1,.219.594.856.856,0,1,1-1.711,0m1.563,10.7h-1.445v-8.453h1.445Z" fill="#12263f"/>
            <path id="Trazado_215474" data-name="Trazado 215474" d="M281.934,236.7a4.949,4.949,0,0,1,.922-3.129,3.135,3.135,0,0,1,4.765-.168V229h1.445v12h-1.328l-.07-.906a2.944,2.944,0,0,1-2.414,1.062,2.889,2.889,0,0,1-2.395-1.2,5.009,5.009,0,0,1-.925-3.141Zm1.445.164a3.75,3.75,0,0,0,.594,2.25,1.917,1.917,0,0,0,1.64.813,2.109,2.109,0,0,0,2.008-1.235v-3.883a2.123,2.123,0,0,0-1.992-1.195,1.927,1.927,0,0,0-1.656.82,4.128,4.128,0,0,0-.594,2.43" fill="#12263f"/>
            <path id="Trazado_215475" data-name="Trazado 215475" d="M296.527,241a3.052,3.052,0,0,1-.2-.891,3.225,3.225,0,0,1-2.406,1.047,2.987,2.987,0,0,1-2.051-.707,2.29,2.29,0,0,1-.8-1.793,2.391,2.391,0,0,1,1-2.051,4.734,4.734,0,0,1,2.825-.73H296.3v-.664a1.627,1.627,0,0,0-.453-1.208,1.824,1.824,0,0,0-1.336-.449,2.1,2.1,0,0,0-1.3.391,1.15,1.15,0,0,0-.523.945h-1.454a1.99,1.99,0,0,1,.45-1.222,3.053,3.053,0,0,1,1.218-.934,4.088,4.088,0,0,1,1.692-.344,3.338,3.338,0,0,1,2.289.731,2.634,2.634,0,0,1,.859,2.011v3.891a4.756,4.756,0,0,0,.3,1.852V241Zm-2.4-1.1a2.534,2.534,0,0,0,1.289-.352,2.13,2.13,0,0,0,.883-.914V236.9h-1.133q-2.656,0-2.656,1.555a1.315,1.315,0,0,0,.453,1.062,1.742,1.742,0,0,0,1.164.383" fill="#12263f"/>
            <path id="Trazado_215476" data-name="Trazado 215476" d="M299.66,236.7a4.949,4.949,0,0,1,.922-3.129,3.135,3.135,0,0,1,4.765-.168V229h1.445v12h-1.328l-.07-.906a2.944,2.944,0,0,1-2.414,1.062,2.889,2.889,0,0,1-2.4-1.2,5.009,5.009,0,0,1-.925-3.141Zm1.445.164a3.75,3.75,0,0,0,.594,2.25,1.917,1.917,0,0,0,1.64.813,2.109,2.109,0,0,0,2.008-1.235v-3.883a2.123,2.123,0,0,0-1.992-1.195,1.927,1.927,0,0,0-1.656.82,4.128,4.128,0,0,0-.594,2.43" fill="#12263f"/>
          </g>
        </g>
        <path id="Trazado_215477" data-name="Trazado 215477" d="M359.96,349.773h6.508V351h-8.281v-1.125l6.234-9.024h-6.133v-1.226h7.93v1.094Z" fill="#12263f"/>
        <g id="Grupo_154116" data-name="Grupo 154116">
          <g id="Grupo_154115" data-name="Grupo 154115" clip-path="url(#clip-path)">
            <path id="Trazado_215478" data-name="Trazado 215478" d="M367.64,346.7a5,5,0,0,1,.488-2.234,3.641,3.641,0,0,1,1.36-1.532,3.7,3.7,0,0,1,1.988-.539,3.565,3.565,0,0,1,2.793,1.2,4.6,4.6,0,0,1,1.066,3.179v.1a5.036,5.036,0,0,1-.472,2.215,3.6,3.6,0,0,1-1.352,1.527,3.748,3.748,0,0,1-2.02.547,3.556,3.556,0,0,1-2.785-1.2,4.576,4.576,0,0,1-1.066-3.164Zm1.453.172a3.624,3.624,0,0,0,.652,2.258,2.211,2.211,0,0,0,3.5-.012,3.95,3.95,0,0,0,.649-2.418,3.61,3.61,0,0,0-.66-2.254,2.1,2.1,0,0,0-1.754-.863,2.078,2.078,0,0,0-1.727.851,3.929,3.929,0,0,0-.656,2.438" fill="#12263f"/>
            <path id="Trazado_215479" data-name="Trazado 215479" d="M378.515,342.547l.047,1.062a3.079,3.079,0,0,1,2.531-1.218q2.679,0,2.7,3.023V351h-1.445v-5.594a1.947,1.947,0,0,0-.418-1.351,1.673,1.673,0,0,0-1.277-.438,2.089,2.089,0,0,0-1.235.375,2.545,2.545,0,0,0-.828.985V351h-1.445v-8.453Z" fill="#12263f"/>
            <path id="Trazado_215480" data-name="Trazado 215480" d="M391.194,351a3.052,3.052,0,0,1-.2-.891,3.223,3.223,0,0,1-2.406,1.047,2.987,2.987,0,0,1-2.051-.707,2.29,2.29,0,0,1-.8-1.793,2.391,2.391,0,0,1,1-2.051,4.734,4.734,0,0,1,2.825-.73h1.406v-.664a1.627,1.627,0,0,0-.453-1.208,1.822,1.822,0,0,0-1.336-.449,2.1,2.1,0,0,0-1.3.391,1.15,1.15,0,0,0-.523.945H385.9a1.99,1.99,0,0,1,.45-1.222,3.059,3.059,0,0,1,1.218-.934,4.088,4.088,0,0,1,1.692-.344,3.338,3.338,0,0,1,2.289.731,2.631,2.631,0,0,1,.859,2.011v3.891a4.756,4.756,0,0,0,.3,1.852V351Zm-2.4-1.1a2.534,2.534,0,0,0,1.289-.352,2.13,2.13,0,0,0,.883-.914V346.9h-1.133q-2.655,0-2.656,1.555a1.315,1.315,0,0,0,.453,1.062,1.743,1.743,0,0,0,1.164.383" fill="#12263f"/>
            <path id="Trazado_215481" data-name="Trazado 215481" d="M398.289,346.7a4.949,4.949,0,0,1,.922-3.129,3.135,3.135,0,0,1,4.765-.168V339h1.445v12h-1.328l-.07-.906a2.944,2.944,0,0,1-2.414,1.062,2.889,2.889,0,0,1-2.4-1.2,5.009,5.009,0,0,1-.925-3.141Zm1.445.164a3.75,3.75,0,0,0,.594,2.25,1.917,1.917,0,0,0,1.64.813,2.109,2.109,0,0,0,2.008-1.235v-3.883a2.123,2.123,0,0,0-1.992-1.2,1.927,1.927,0,0,0-1.656.82,4.128,4.128,0,0,0-.594,2.43" fill="#12263f"/>
            <path id="Trazado_215482" data-name="Trazado 215482" d="M411.172,351.156a3.692,3.692,0,0,1-2.8-1.129,4.189,4.189,0,0,1-1.078-3.019v-.266a5.075,5.075,0,0,1,.48-2.246,3.747,3.747,0,0,1,1.344-1.547,3.379,3.379,0,0,1,1.871-.558,3.17,3.17,0,0,1,2.563,1.085,4.706,4.706,0,0,1,.914,3.11v.6h-5.727a3.013,3.013,0,0,0,.73,2.02,2.3,2.3,0,0,0,1.778.769,2.522,2.522,0,0,0,1.3-.312,3.241,3.241,0,0,0,.929-.828l.883.687a3.547,3.547,0,0,1-3.187,1.633m-.18-7.578a1.928,1.928,0,0,0-1.469.637,3.1,3.1,0,0,0-.734,1.785h4.234v-.109a2.752,2.752,0,0,0-.594-1.708,1.816,1.816,0,0,0-1.437-.605" fill="#12263f"/>
            <path id="Trazado_215483" data-name="Trazado 215483" d="M423.492,349.977a2.081,2.081,0,0,0,1.352-.469,1.65,1.65,0,0,0,.64-1.172h1.367a2.612,2.612,0,0,1-.5,1.383,3.29,3.29,0,0,1-1.23,1.047,3.543,3.543,0,0,1-1.629.391A3.48,3.48,0,0,1,420.746,350a4.588,4.588,0,0,1-1.02-3.152v-.242a5.1,5.1,0,0,1,.453-2.195,3.457,3.457,0,0,1,1.3-1.493,3.7,3.7,0,0,1,2-.531,3.387,3.387,0,0,1,2.363.852,3.041,3.041,0,0,1,1,2.211h-1.367a2,2,0,0,0-.621-1.348,1.929,1.929,0,0,0-1.379-.527,2.022,2.022,0,0,0-1.707.793,3.726,3.726,0,0,0-.605,2.292v.274a3.65,3.65,0,0,0,.6,2.25,2.034,2.034,0,0,0,1.719.789" fill="#12263f"/>
            <path id="Trazado_215484" data-name="Trazado 215484" d="M428.093,346.7a5,5,0,0,1,.488-2.234,3.641,3.641,0,0,1,1.36-1.532,3.7,3.7,0,0,1,1.988-.539,3.565,3.565,0,0,1,2.793,1.2,4.6,4.6,0,0,1,1.066,3.179v.1a5.036,5.036,0,0,1-.472,2.215,3.6,3.6,0,0,1-1.352,1.527,3.749,3.749,0,0,1-2.02.547,3.556,3.556,0,0,1-2.785-1.2,4.576,4.576,0,0,1-1.066-3.164Zm1.453.172a3.624,3.624,0,0,0,.652,2.258,2.211,2.211,0,0,0,3.5-.012,3.95,3.95,0,0,0,.649-2.418,3.61,3.61,0,0,0-.66-2.254,2.1,2.1,0,0,0-1.754-.863,2.078,2.078,0,0,0-1.727.851,3.929,3.929,0,0,0-.656,2.438" fill="#12263f"/>
            <path id="Trazado_215485" data-name="Trazado 215485" d="M442.523,348.758a1.063,1.063,0,0,0-.441-.91,4.268,4.268,0,0,0-1.539-.559,7.265,7.265,0,0,1-1.743-.562,2.49,2.49,0,0,1-.953-.782,1.863,1.863,0,0,1-.308-1.078,2.192,2.192,0,0,1,.879-1.757,3.425,3.425,0,0,1,2.246-.719,3.533,3.533,0,0,1,2.332.742,2.358,2.358,0,0,1,.894,1.9h-1.453a1.3,1.3,0,0,0-.5-1.023,1.89,1.89,0,0,0-1.269-.43,1.977,1.977,0,0,0-1.235.344,1.081,1.081,0,0,0-.445.9.878.878,0,0,0,.414.79,5.109,5.109,0,0,0,1.5.507,7.862,7.862,0,0,1,1.754.578,2.558,2.558,0,0,1,1,.809,1.99,1.99,0,0,1,.324,1.152,2.163,2.163,0,0,1-.906,1.817,3.8,3.8,0,0,1-2.351.683,4.264,4.264,0,0,1-1.8-.359,2.914,2.914,0,0,1-1.223-1,2.42,2.42,0,0,1-.441-1.394H438.7a1.5,1.5,0,0,0,.582,1.152,2.258,2.258,0,0,0,1.434.426,2.335,2.335,0,0,0,1.316-.332,1.021,1.021,0,0,0,.5-.887" fill="#12263f"/>
            <path id="Trazado_215486" data-name="Trazado 215486" d="M447.812,340.5v2.047h1.578v1.117h-1.578v5.249a1.173,1.173,0,0,0,.211.763.89.89,0,0,0,.719.254,3.537,3.537,0,0,0,.687-.094V351a4.234,4.234,0,0,1-1.109.155,1.8,1.8,0,0,1-1.461-.586,2.516,2.516,0,0,1-.492-1.664v-5.242h-1.539v-1.117h1.539V340.5Z" fill="#12263f"/>
            <path id="Trazado_215487" data-name="Trazado 215487" d="M450.539,346.7a5,5,0,0,1,.488-2.234,3.64,3.64,0,0,1,1.36-1.532,3.7,3.7,0,0,1,1.988-.539,3.565,3.565,0,0,1,2.793,1.2,4.6,4.6,0,0,1,1.066,3.179v.1a5.036,5.036,0,0,1-.472,2.215,3.6,3.6,0,0,1-1.352,1.527,3.749,3.749,0,0,1-2.02.547,3.556,3.556,0,0,1-2.785-1.2,4.576,4.576,0,0,1-1.066-3.164Zm1.453.172a3.624,3.624,0,0,0,.652,2.258,2.211,2.211,0,0,0,3.5-.012,3.95,3.95,0,0,0,.649-2.418,3.61,3.61,0,0,0-.66-2.254,2.1,2.1,0,0,0-1.754-.863,2.078,2.078,0,0,0-1.727.851,3.929,3.929,0,0,0-.656,2.438" fill="#12263f"/>
            <path id="Trazado_215488" data-name="Trazado 215488" d="M464.968,348.758a1.063,1.063,0,0,0-.441-.91,4.268,4.268,0,0,0-1.539-.559,7.265,7.265,0,0,1-1.743-.562,2.489,2.489,0,0,1-.953-.782,1.863,1.863,0,0,1-.308-1.078,2.192,2.192,0,0,1,.879-1.757,3.425,3.425,0,0,1,2.246-.719,3.533,3.533,0,0,1,2.332.742,2.358,2.358,0,0,1,.894,1.9h-1.453a1.3,1.3,0,0,0-.5-1.023,1.89,1.89,0,0,0-1.269-.43,1.977,1.977,0,0,0-1.235.344,1.081,1.081,0,0,0-.445.9.878.878,0,0,0,.414.79,5.109,5.109,0,0,0,1.5.507,7.861,7.861,0,0,1,1.754.578,2.558,2.558,0,0,1,1,.809,1.99,1.99,0,0,1,.324,1.152,2.163,2.163,0,0,1-.906,1.817,3.8,3.8,0,0,1-2.351.683,4.264,4.264,0,0,1-1.8-.359,2.914,2.914,0,0,1-1.223-1,2.42,2.42,0,0,1-.441-1.394h1.445a1.5,1.5,0,0,0,.582,1.152,2.258,2.258,0,0,0,1.434.426,2.335,2.335,0,0,0,1.316-.332,1.02,1.02,0,0,0,.5-.887" fill="#12263f"/>
          </g>
        </g>
        <path id="Trazado_215489" data-name="Trazado 215489" d="M5.18,65.039l1.649,4.719h-3.3ZM4.3,62.625,0,74H2.055l.922-2.649H7.383L8.313,74h2.063L6.071,62.625Z" fill="#12263f"/>
        <rect id="Rectángulo_44395" data-name="Rectángulo 44395" width="1.898" height="12" transform="translate(11.602 62)" fill="#12263f"/>
        <g id="Grupo_154118" data-name="Grupo 154118">
          <g id="Grupo_154117" data-name="Grupo 154117" clip-path="url(#clip-path)">
            <path id="Trazado_215490" data-name="Trazado 215490" d="M17.945,63.492v2.055h1.492v1.406H17.945v4.719a1.038,1.038,0,0,0,.191.7.89.89,0,0,0,.684.215,2.985,2.985,0,0,0,.664-.078v1.468a4.672,4.672,0,0,1-1.25.18q-2.187,0-2.187-2.414V66.953H14.656V65.547h1.391V63.492Z" fill="#12263f"/>
            <path id="Trazado_215491" data-name="Trazado 215491" d="M25.938,74a2.923,2.923,0,0,1-.219-.789,3.195,3.195,0,0,1-4.3.219,2.326,2.326,0,0,1-.8-1.8,2.4,2.4,0,0,1,1-2.074,4.86,4.86,0,0,1,2.871-.723h1.164v-.555a1.477,1.477,0,0,0-.368-1.05,1.456,1.456,0,0,0-1.117-.4,1.678,1.678,0,0,0-1.062.324,1,1,0,0,0-.414.825H20.8a2.107,2.107,0,0,1,.461-1.3,3.062,3.062,0,0,1,1.254-.949,4.387,4.387,0,0,1,1.77-.344,3.55,3.55,0,0,1,2.367.746,2.659,2.659,0,0,1,.906,2.1v3.812a4.326,4.326,0,0,0,.32,1.82V74Zm-2.086-1.367a2.165,2.165,0,0,0,1.059-.273,1.834,1.834,0,0,0,.746-.735V70.031H24.633a2.8,2.8,0,0,0-1.586.368,1.189,1.189,0,0,0-.531,1.039,1.11,1.11,0,0,0,.363.871,1.41,1.41,0,0,0,.973.324" fill="#12263f"/>
            <path id="Trazado_215492" data-name="Trazado 215492" d="M34.281,71.7a.86.86,0,0,0-.418-.773,4.466,4.466,0,0,0-1.387-.469,7.164,7.164,0,0,1-1.617-.516,2.158,2.158,0,0,1-1.422-1.992,2.248,2.248,0,0,1,.922-1.828,3.647,3.647,0,0,1,2.344-.734,3.792,3.792,0,0,1,2.449.75,2.381,2.381,0,0,1,.934,1.945h-1.9a1.169,1.169,0,0,0-.406-.91,1.553,1.553,0,0,0-1.078-.364,1.688,1.688,0,0,0-1.02.289.912.912,0,0,0-.394.774.77.77,0,0,0,.367.68,5.06,5.06,0,0,0,1.484.488,7.011,7.011,0,0,1,1.754.586,2.485,2.485,0,0,1,.946.816,2.088,2.088,0,0,1,.308,1.156,2.2,2.2,0,0,1-.945,1.848,4.027,4.027,0,0,1-2.477.707,4.365,4.365,0,0,1-1.851-.375,3.049,3.049,0,0,1-1.266-1.031,2.443,2.443,0,0,1-.453-1.414H31a1.335,1.335,0,0,0,.508,1.035,1.972,1.972,0,0,0,1.242.363,1.91,1.91,0,0,0,1.14-.285.88.88,0,0,0,.391-.746" fill="#12263f"/>
          </g>
        </g>
        <path id="Trazado_215493" data-name="Trazado 215493" d="M646.383,485.352h-4.407L641.054,488H639l4.3-11.375h1.773l4.3,11.375h-2.063Zm-3.852-1.594h3.3l-1.649-4.719Z" fill="#12263f"/>
        <rect id="Rectángulo_44397" data-name="Rectángulo 44397" width="1.898" height="12" transform="translate(650.602 476)" fill="#12263f"/>
        <g id="Grupo_154120" data-name="Grupo 154120">
          <g id="Grupo_154119" data-name="Grupo 154119" clip-path="url(#clip-path)">
            <path id="Trazado_215494" data-name="Trazado 215494" d="M656.945,477.492v2.055h1.492v1.406h-1.492v4.719a1.038,1.038,0,0,0,.191.7.89.89,0,0,0,.684.215,2.985,2.985,0,0,0,.664-.078v1.468a4.672,4.672,0,0,1-1.25.18q-2.187,0-2.187-2.414v-4.789h-1.391v-1.406h1.391v-2.055Z" fill="#12263f"/>
            <path id="Trazado_215495" data-name="Trazado 215495" d="M659.3,483.7a4.985,4.985,0,0,1,.492-2.238,3.6,3.6,0,0,1,1.383-1.532,3.9,3.9,0,0,1,2.046-.535,3.691,3.691,0,0,1,2.778,1.1,4.33,4.33,0,0,1,1.152,2.922l.008.445a5.019,5.019,0,0,1-.481,2.234,3.546,3.546,0,0,1-1.375,1.524,3.926,3.926,0,0,1-2.066.539,3.668,3.668,0,0,1-2.863-1.192,4.559,4.559,0,0,1-1.074-3.175Zm1.9.164a3.408,3.408,0,0,0,.539,2.043,1.752,1.752,0,0,0,1.5.738,1.732,1.732,0,0,0,1.5-.75,3.758,3.758,0,0,0,.535-2.2,3.361,3.361,0,0,0-.55-2.031,1.762,1.762,0,0,0-1.5-.75,1.741,1.741,0,0,0-1.476.738,3.7,3.7,0,0,0-.547,2.207" fill="#12263f"/>
          </g>
        </g>
        <path id="Trazado_215496" data-name="Trazado 215496" d="M454.578,476.625l3.281,8.719,3.274-8.719h2.554V488h-1.968v-3.75l.2-5.016L458.555,488h-1.414l-3.352-8.758.195,5.008V488h-1.969V476.625Z" fill="#12263f"/>
        <g id="Grupo_154122" data-name="Grupo 154122">
          <g id="Grupo_154121" data-name="Grupo 154121" clip-path="url(#clip-path)">
            <path id="Trazado_215497" data-name="Trazado 215497" d="M465.484,483.7a4.985,4.985,0,0,1,.492-2.238,3.6,3.6,0,0,1,1.383-1.532,3.9,3.9,0,0,1,2.046-.535,3.691,3.691,0,0,1,2.778,1.1,4.329,4.329,0,0,1,1.152,2.922l.008.445a5.018,5.018,0,0,1-.481,2.234,3.546,3.546,0,0,1-1.375,1.524,3.926,3.926,0,0,1-2.066.539,3.668,3.668,0,0,1-2.863-1.192,4.559,4.559,0,0,1-1.074-3.175Zm1.9.164a3.408,3.408,0,0,0,.539,2.043,1.752,1.752,0,0,0,1.5.738,1.732,1.732,0,0,0,1.5-.75,3.758,3.758,0,0,0,.535-2.2,3.361,3.361,0,0,0-.55-2.031,1.762,1.762,0,0,0-1.5-.75,1.741,1.741,0,0,0-1.476.738,3.7,3.7,0,0,0-.547,2.207" fill="#12263f"/>
            <path id="Trazado_215498" data-name="Trazado 215498" d="M474.594,483.711a5.021,5.021,0,0,1,.906-3.137,2.9,2.9,0,0,1,2.429-1.183,2.757,2.757,0,0,1,2.172.937V476H482v12h-1.719l-.094-.875a2.8,2.8,0,0,1-2.273,1.031,2.887,2.887,0,0,1-2.4-1.2,5.2,5.2,0,0,1-.918-3.25m1.9.164a3.519,3.519,0,0,0,.5,2.012,1.611,1.611,0,0,0,1.41.722,1.791,1.791,0,0,0,1.7-1.039v-3.609a1.765,1.765,0,0,0-1.687-1.016,1.62,1.62,0,0,0-1.422.731,3.921,3.921,0,0,0-.5,2.2" fill="#12263f"/>
            <path id="Trazado_215499" data-name="Trazado 215499" d="M487.7,488.156a3.926,3.926,0,0,1-2.926-1.137,4.122,4.122,0,0,1-1.121-3.027v-.234a5.079,5.079,0,0,1,.488-2.262,3.711,3.711,0,0,1,1.371-1.551,3.624,3.624,0,0,1,1.969-.554,3.319,3.319,0,0,1,2.668,1.1,4.656,4.656,0,0,1,.941,3.117v.766H485.57a2.535,2.535,0,0,0,.7,1.656,2.1,2.1,0,0,0,1.543.61,2.571,2.571,0,0,0,2.125-1.055l1.023.976a3.411,3.411,0,0,1-1.355,1.176,4.241,4.241,0,0,1-1.9.418m-.227-7.242a1.6,1.6,0,0,0-1.262.547,2.837,2.837,0,0,0-.613,1.523h3.617v-.14a2.308,2.308,0,0,0-.508-1.442,1.587,1.587,0,0,0-1.234-.488" fill="#12263f"/>
            <path id="Trazado_215500" data-name="Trazado 215500" d="M496.992,481.281a4.663,4.663,0,0,0-.773-.062,1.741,1.741,0,0,0-1.758,1V488h-1.9v-8.453h1.813l.047.945a2.139,2.139,0,0,1,1.906-1.1,1.778,1.778,0,0,1,.672.11Z" fill="#12263f"/>
            <path id="Trazado_215501" data-name="Trazado 215501" d="M503.007,488a2.962,2.962,0,0,1-.219-.789,3.195,3.195,0,0,1-4.3.219,2.326,2.326,0,0,1-.8-1.8,2.4,2.4,0,0,1,1-2.074,4.86,4.86,0,0,1,2.871-.723h1.164v-.555a1.473,1.473,0,0,0-.368-1.05,1.456,1.456,0,0,0-1.117-.395,1.678,1.678,0,0,0-1.062.324,1,1,0,0,0-.414.825h-1.9a2.107,2.107,0,0,1,.461-1.3,3.076,3.076,0,0,1,1.254-.949,4.388,4.388,0,0,1,1.77-.344,3.55,3.55,0,0,1,2.367.746,2.656,2.656,0,0,1,.906,2.1v3.812a4.326,4.326,0,0,0,.32,1.82V488Zm-2.086-1.367a2.165,2.165,0,0,0,1.059-.273,1.828,1.828,0,0,0,.746-.735v-1.594H501.7a2.8,2.8,0,0,0-1.586.368,1.189,1.189,0,0,0-.531,1.039,1.11,1.11,0,0,0,.363.871,1.41,1.41,0,0,0,.973.324" fill="#12263f"/>
            <path id="Trazado_215502" data-name="Trazado 215502" d="M506.258,483.711a5.021,5.021,0,0,1,.906-3.137,2.9,2.9,0,0,1,2.429-1.183,2.757,2.757,0,0,1,2.172.937V476h1.9v12h-1.719l-.094-.875a2.8,2.8,0,0,1-2.273,1.031,2.887,2.887,0,0,1-2.4-1.2,5.2,5.2,0,0,1-.918-3.25m1.9.164a3.519,3.519,0,0,0,.5,2.012,1.611,1.611,0,0,0,1.41.722,1.791,1.791,0,0,0,1.7-1.039v-3.609a1.765,1.765,0,0,0-1.687-1.016,1.62,1.62,0,0,0-1.422.731,3.921,3.921,0,0,0-.5,2.2" fill="#12263f"/>
            <path id="Trazado_215503" data-name="Trazado 215503" d="M515.289,483.7a4.985,4.985,0,0,1,.492-2.238,3.6,3.6,0,0,1,1.383-1.532,3.9,3.9,0,0,1,2.046-.535,3.691,3.691,0,0,1,2.778,1.1,4.33,4.33,0,0,1,1.152,2.922l.008.445a5.019,5.019,0,0,1-.481,2.234,3.546,3.546,0,0,1-1.375,1.524,3.926,3.926,0,0,1-2.066.539,3.668,3.668,0,0,1-2.863-1.192,4.559,4.559,0,0,1-1.074-3.175Zm1.9.164a3.408,3.408,0,0,0,.539,2.043,1.752,1.752,0,0,0,1.5.738,1.732,1.732,0,0,0,1.5-.75,3.758,3.758,0,0,0,.535-2.2,3.361,3.361,0,0,0-.55-2.031,1.761,1.761,0,0,0-1.5-.75,1.741,1.741,0,0,0-1.476.738,3.7,3.7,0,0,0-.547,2.207" fill="#12263f"/>
            <path id="Trazado_215504" data-name="Trazado 215504" d="M713.062,43V31.625h3.211a5.167,5.167,0,0,1,2.625.657,4.434,4.434,0,0,1,1.762,1.867,6.086,6.086,0,0,1,.629,2.781v.727a6.088,6.088,0,0,1-.622,2.82,4.362,4.362,0,0,1-1.773,1.859A5.489,5.489,0,0,1,716.21,43Zm1.5-10.148v8.922h1.578a3.431,3.431,0,0,0,2.7-1.079,4.459,4.459,0,0,0,.965-3.073v-.665a4.534,4.534,0,0,0-.91-3.014,3.241,3.241,0,0,0-2.582-1.091Z" fill="#12263f"/>
            <path id="Trazado_215505" data-name="Trazado 215505" d="M726.836,43.156a3.691,3.691,0,0,1-2.8-1.129,4.189,4.189,0,0,1-1.078-3.019v-.266a5.075,5.075,0,0,1,.48-2.246,3.74,3.74,0,0,1,1.344-1.547,3.379,3.379,0,0,1,1.871-.558,3.17,3.17,0,0,1,2.563,1.085,4.706,4.706,0,0,1,.914,3.11v.6h-5.727a3.008,3.008,0,0,0,.73,2.02,2.3,2.3,0,0,0,1.778.769,2.524,2.524,0,0,0,1.3-.312,3.254,3.254,0,0,0,.929-.828l.883.687a3.549,3.549,0,0,1-3.187,1.633m-.18-7.578a1.926,1.926,0,0,0-1.469.637A3.1,3.1,0,0,0,724.453,38h4.234v-.109a2.758,2.758,0,0,0-.594-1.708,1.816,1.816,0,0,0-1.437-.6" fill="#12263f"/>
            <path id="Trazado_215506" data-name="Trazado 215506" d="M735.2,41.977a2.081,2.081,0,0,0,1.352-.469,1.653,1.653,0,0,0,.64-1.172h1.367a2.62,2.62,0,0,1-.5,1.383,3.291,3.291,0,0,1-1.23,1.047,3.549,3.549,0,0,1-1.629.391A3.481,3.481,0,0,1,732.449,42a4.588,4.588,0,0,1-1.02-3.152V38.61a5.087,5.087,0,0,1,.453-2.195,3.457,3.457,0,0,1,1.3-1.493,3.7,3.7,0,0,1,2-.531,3.389,3.389,0,0,1,2.363.852,3.045,3.045,0,0,1,1,2.211h-1.367a1.994,1.994,0,0,0-.621-1.348,1.931,1.931,0,0,0-1.379-.527,2.022,2.022,0,0,0-1.707.793,3.719,3.719,0,0,0-.6,2.292v.274a3.65,3.65,0,0,0,.6,2.25,2.033,2.033,0,0,0,1.719.789" fill="#12263f"/>
            <rect id="Rectángulo_44399" data-name="Rectángulo 44399" width="1.445" height="12" transform="translate(740.305 31)" fill="#12263f"/>
            <path id="Trazado_215507" data-name="Trazado 215507" d="M744.07,32.305a.858.858,0,0,1,.215-.594.805.805,0,0,1,.636-.242.821.821,0,0,1,.641.242.852.852,0,0,1,.219.594.856.856,0,1,1-1.711,0M745.632,43h-1.445V34.547h1.445Z" fill="#12263f"/>
            <path id="Trazado_215508" data-name="Trazado 215508" d="M750.734,41.039l2.094-6.492H754.3L751.273,43h-1.1l-3.063-8.453h1.477Z" fill="#12263f"/>
            <path id="Trazado_215509" data-name="Trazado 215509" d="M759.1,43.156a3.691,3.691,0,0,1-2.8-1.129,4.189,4.189,0,0,1-1.078-3.019v-.266a5.075,5.075,0,0,1,.48-2.246,3.74,3.74,0,0,1,1.344-1.547,3.379,3.379,0,0,1,1.871-.558,3.17,3.17,0,0,1,2.563,1.085,4.706,4.706,0,0,1,.914,3.11v.6h-5.727a3.008,3.008,0,0,0,.73,2.02,2.3,2.3,0,0,0,1.778.769,2.524,2.524,0,0,0,1.3-.312,3.255,3.255,0,0,0,.929-.828l.883.687a3.55,3.55,0,0,1-3.187,1.633m-.18-7.578a1.926,1.926,0,0,0-1.469.637A3.1,3.1,0,0,0,756.718,38h4.234v-.109a2.759,2.759,0,0,0-.594-1.708,1.816,1.816,0,0,0-1.437-.6" fill="#12263f"/>
          </g>
        </g>
        <path id="Trazado_215510" data-name="Trazado 215510" d="M547.523,31.625l3.719,9.281,3.718-9.281h1.946V43h-1.5V38.57l.14-4.781L551.812,43h-1.148l-3.727-9.187.149,4.757V43h-1.5V31.625Z" fill="#12263f"/>
        <g id="Grupo_154124" data-name="Grupo 154124">
          <g id="Grupo_154123" data-name="Grupo 154123" clip-path="url(#clip-path)">
            <path id="Trazado_215511" data-name="Trazado 215511" d="M564.546,43a3.052,3.052,0,0,1-.2-.891,3.223,3.223,0,0,1-2.406,1.047,2.987,2.987,0,0,1-2.051-.707,2.29,2.29,0,0,1-.8-1.793,2.391,2.391,0,0,1,1-2.051,4.734,4.734,0,0,1,2.825-.73h1.406v-.664A1.627,1.627,0,0,0,563.867,36a1.822,1.822,0,0,0-1.336-.449,2.1,2.1,0,0,0-1.3.391,1.15,1.15,0,0,0-.523.945h-1.454a1.99,1.99,0,0,1,.45-1.222,3.06,3.06,0,0,1,1.218-.934,4.088,4.088,0,0,1,1.692-.344,3.338,3.338,0,0,1,2.289.731,2.631,2.631,0,0,1,.859,2.011v3.891a4.756,4.756,0,0,0,.3,1.852V43Zm-2.4-1.1a2.534,2.534,0,0,0,1.289-.352,2.13,2.13,0,0,0,.883-.914V38.9h-1.133q-2.655,0-2.656,1.555a1.315,1.315,0,0,0,.453,1.062,1.742,1.742,0,0,0,1.164.383" fill="#12263f"/>
            <path id="Trazado_215512" data-name="Trazado 215512" d="M567.68,38.7a4.949,4.949,0,0,1,.922-3.129,3.134,3.134,0,0,1,4.764-.168V31h1.445V43h-1.328l-.07-.906A2.942,2.942,0,0,1,571,43.156a2.891,2.891,0,0,1-2.4-1.2,5.009,5.009,0,0,1-.924-3.141Zm1.445.164a3.75,3.75,0,0,0,.594,2.25,1.914,1.914,0,0,0,1.639.813,2.109,2.109,0,0,0,2.008-1.235V36.812a2.121,2.121,0,0,0-1.991-1.195,1.926,1.926,0,0,0-1.656.82,4.128,4.128,0,0,0-.594,2.43" fill="#12263f"/>
            <path id="Trazado_215513" data-name="Trazado 215513" d="M582.273,42.164a3.071,3.071,0,0,1-2.477.992,2.629,2.629,0,0,1-2.058-.785,3.393,3.393,0,0,1-.715-2.324v-5.5h1.445v5.461q0,1.922,1.563,1.922a2.163,2.163,0,0,0,2.2-1.235V34.547h1.445V43H582.3Z" fill="#12263f"/>
            <path id="Trazado_215514" data-name="Trazado 215514" d="M589.96,35.844a4.385,4.385,0,0,0-.711-.055A1.906,1.906,0,0,0,587.319,37v6h-1.445V34.547h1.406l.024.977a2.249,2.249,0,0,1,2.015-1.133,1.476,1.476,0,0,1,.641.109Z" fill="#12263f"/>
            <path id="Trazado_215515" data-name="Trazado 215515" d="M594.648,43.156a3.692,3.692,0,0,1-2.8-1.129,4.189,4.189,0,0,1-1.078-3.019v-.266a5.075,5.075,0,0,1,.48-2.246,3.747,3.747,0,0,1,1.344-1.547,3.379,3.379,0,0,1,1.871-.558,3.17,3.17,0,0,1,2.563,1.085,4.706,4.706,0,0,1,.914,3.11v.6h-5.727a3.013,3.013,0,0,0,.73,2.02,2.3,2.3,0,0,0,1.778.769,2.522,2.522,0,0,0,1.3-.312,3.241,3.241,0,0,0,.929-.828l.883.687a3.547,3.547,0,0,1-3.187,1.633m-.18-7.578a1.928,1.928,0,0,0-1.469.637A3.1,3.1,0,0,0,592.265,38H596.5v-.109a2.753,2.753,0,0,0-.594-1.708,1.816,1.816,0,0,0-1.437-.6" fill="#12263f"/>
            <path id="Trazado_215516" data-name="Trazado 215516" d="M600.976,41.82h4.945V43H599.21V41.937l4.664-6.195h-4.593v-1.2h6.406V35.57Z" fill="#12263f"/>
            <path id="Trazado_215517" data-name="Trazado 215517" d="M379.137,39.391a4.191,4.191,0,0,1-1.332,2.785,4.371,4.371,0,0,1-2.98.981,4.007,4.007,0,0,1-3.231-1.446,5.81,5.81,0,0,1-1.215-3.867V36.75a6.461,6.461,0,0,1,.567-2.789,4.225,4.225,0,0,1,1.6-1.847,4.461,4.461,0,0,1,2.406-.645,4.115,4.115,0,0,1,2.907,1.012,4.247,4.247,0,0,1,1.273,2.8h-1.508a3.281,3.281,0,0,0-.847-1.975,2.569,2.569,0,0,0-1.825-.611,2.681,2.681,0,0,0-2.254,1.063,4.879,4.879,0,0,0-.816,3.027v1.1a5.02,5.02,0,0,0,.773,2.948,2.5,2.5,0,0,0,2.165,1.1,2.883,2.883,0,0,0,1.917-.566,3.144,3.144,0,0,0,.887-1.973Z" fill="#12263f"/>
            <path id="Trazado_215518" data-name="Trazado 215518" d="M385.043,35.844a4.394,4.394,0,0,0-.711-.055A1.9,1.9,0,0,0,382.4,37v6h-1.445V34.547h1.406l.024.977a2.247,2.247,0,0,1,2.015-1.133,1.476,1.476,0,0,1,.641.109Z" fill="#12263f"/>
            <path id="Trazado_215519" data-name="Trazado 215519" d="M389.731,43.156a3.691,3.691,0,0,1-2.8-1.129,4.189,4.189,0,0,1-1.078-3.019v-.266a5.075,5.075,0,0,1,.48-2.246,3.74,3.74,0,0,1,1.344-1.547,3.377,3.377,0,0,1,1.871-.558,3.171,3.171,0,0,1,2.563,1.085,4.706,4.706,0,0,1,.914,3.11v.6H387.3a3,3,0,0,0,.73,2.02,2.3,2.3,0,0,0,1.778.769,2.527,2.527,0,0,0,1.3-.312,3.254,3.254,0,0,0,.929-.828l.883.687a3.549,3.549,0,0,1-3.187,1.633m-.18-7.578a1.925,1.925,0,0,0-1.469.637A3.1,3.1,0,0,0,387.348,38h4.234v-.109a2.764,2.764,0,0,0-.594-1.708,1.817,1.817,0,0,0-1.437-.6" fill="#12263f"/>
            <path id="Trazado_215520" data-name="Trazado 215520" d="M398.09,41.977a2.083,2.083,0,0,0,1.352-.469,1.657,1.657,0,0,0,.64-1.172h1.367a2.629,2.629,0,0,1-.5,1.383,3.306,3.306,0,0,1-1.23,1.047,3.55,3.55,0,0,1-1.629.391A3.479,3.479,0,0,1,395.344,42a4.588,4.588,0,0,1-1.02-3.152V38.61a5.087,5.087,0,0,1,.453-2.195,3.444,3.444,0,0,1,1.3-1.493,3.7,3.7,0,0,1,2-.531,3.391,3.391,0,0,1,2.363.852,3.048,3.048,0,0,1,1,2.211h-1.367a2,2,0,0,0-.621-1.348,1.931,1.931,0,0,0-1.379-.527,2.022,2.022,0,0,0-1.707.793,3.719,3.719,0,0,0-.605,2.292v.274a3.643,3.643,0,0,0,.6,2.25,2.032,2.032,0,0,0,1.719.789" fill="#12263f"/>
            <path id="Trazado_215521" data-name="Trazado 215521" d="M403.083,32.305a.857.857,0,0,1,.214-.594.809.809,0,0,1,.637-.242.824.824,0,0,1,.641.242.86.86,0,0,1,.218.594.78.78,0,0,1-.859.82.823.823,0,0,1-.637-.234.832.832,0,0,1-.214-.586M404.645,43H403.2V34.547h1.445Z" fill="#12263f"/>
            <path id="Trazado_215522" data-name="Trazado 215522" d="M408.317,34.547l.039.937a3.12,3.12,0,0,1,2.508-1.093,2.418,2.418,0,0,1,2.414,1.359,3.189,3.189,0,0,1,1.1-.984,3.234,3.234,0,0,1,1.6-.375q2.781,0,2.828,2.945V43h-1.445V37.422a1.944,1.944,0,0,0-.414-1.355,1.824,1.824,0,0,0-1.391-.45,1.913,1.913,0,0,0-1.336.481,1.943,1.943,0,0,0-.617,1.293V43h-1.453V37.461a1.613,1.613,0,0,0-1.8-1.844,1.932,1.932,0,0,0-1.945,1.211V43H406.95V34.547Z" fill="#12263f"/>
            <path id="Trazado_215523" data-name="Trazado 215523" d="M420.989,32.305a.853.853,0,0,1,.215-.594.805.805,0,0,1,.636-.242.822.822,0,0,1,.641.242.861.861,0,0,1,.219.594.782.782,0,0,1-.86.82.819.819,0,0,1-.636-.234.828.828,0,0,1-.215-.586M422.551,43h-1.445V34.547h1.445Z" fill="#12263f"/>
            <path id="Trazado_215524" data-name="Trazado 215524" d="M428.372,43.156a3.691,3.691,0,0,1-2.8-1.129,4.189,4.189,0,0,1-1.078-3.019v-.266a5.076,5.076,0,0,1,.48-2.246,3.74,3.74,0,0,1,1.344-1.547,3.377,3.377,0,0,1,1.871-.558,3.171,3.171,0,0,1,2.563,1.085,4.706,4.706,0,0,1,.914,3.11v.6h-5.727a3,3,0,0,0,.73,2.02,2.3,2.3,0,0,0,1.778.769,2.527,2.527,0,0,0,1.3-.312,3.254,3.254,0,0,0,.929-.828l.883.687a3.549,3.549,0,0,1-3.187,1.633m-.18-7.578a1.925,1.925,0,0,0-1.469.637A3.1,3.1,0,0,0,425.989,38h4.234v-.109a2.764,2.764,0,0,0-.594-1.708,1.817,1.817,0,0,0-1.437-.6" fill="#12263f"/>
            <path id="Trazado_215525" data-name="Trazado 215525" d="M434.707,34.547l.047,1.062a3.076,3.076,0,0,1,2.531-1.218q2.678,0,2.7,3.023V43h-1.445V37.406a1.952,1.952,0,0,0-.418-1.351,1.673,1.673,0,0,0-1.277-.438,2.087,2.087,0,0,0-1.235.375,2.528,2.528,0,0,0-.828.985V43H433.34V34.547Z" fill="#12263f"/>
            <path id="Trazado_215526" data-name="Trazado 215526" d="M444.129,32.5v2.047h1.578v1.117h-1.578v5.249a1.173,1.173,0,0,0,.211.763.888.888,0,0,0,.719.254,3.557,3.557,0,0,0,.687-.094V43a4.24,4.24,0,0,1-1.109.155,1.8,1.8,0,0,1-1.461-.586,2.516,2.516,0,0,1-.492-1.664V35.664h-1.539V34.547h1.539V32.5Z" fill="#12263f"/>
            <path id="Trazado_215527" data-name="Trazado 215527" d="M446.856,38.695a4.984,4.984,0,0,1,.488-2.234,3.634,3.634,0,0,1,1.36-1.532,3.7,3.7,0,0,1,1.988-.539,3.567,3.567,0,0,1,2.793,1.2,4.6,4.6,0,0,1,1.066,3.179v.1a5.05,5.05,0,0,1-.472,2.215,3.6,3.6,0,0,1-1.352,1.527,3.751,3.751,0,0,1-2.02.547,3.555,3.555,0,0,1-2.785-1.195,4.576,4.576,0,0,1-1.066-3.164Zm1.453.172a3.618,3.618,0,0,0,.652,2.258,2.211,2.211,0,0,0,3.5-.012,3.956,3.956,0,0,0,.649-2.418,3.616,3.616,0,0,0-.66-2.254,2.1,2.1,0,0,0-1.754-.863,2.076,2.076,0,0,0-1.727.851,3.929,3.929,0,0,0-.656,2.438" fill="#12263f"/>
          </g>
        </g>
        <rect id="Rectángulo_44402" data-name="Rectángulo 44402" width="1.5" height="11.375" transform="translate(208.18 31.625)" fill="#12263f"/>
        <g id="Grupo_154126" data-name="Grupo 154126">
          <g id="Grupo_154125" data-name="Grupo 154125" clip-path="url(#clip-path)">
            <path id="Trazado_215528" data-name="Trazado 215528" d="M213.563,34.547l.046,1.062a3.079,3.079,0,0,1,2.531-1.218q2.679,0,2.7,3.023V43H217.4V37.406a1.947,1.947,0,0,0-.418-1.351,1.673,1.673,0,0,0-1.277-.438,2.087,2.087,0,0,0-1.235.375,2.545,2.545,0,0,0-.828.985V43H212.2V34.547Z" fill="#12263f"/>
            <path id="Trazado_215529" data-name="Trazado 215529" d="M222.984,32.5v2.047h1.578v1.117h-1.578v5.249a1.173,1.173,0,0,0,.211.763.89.89,0,0,0,.719.254,3.547,3.547,0,0,0,.687-.094V43a4.234,4.234,0,0,1-1.109.155,1.8,1.8,0,0,1-1.461-.586,2.516,2.516,0,0,1-.492-1.664V35.664H220V34.547h1.539V32.5Z" fill="#12263f"/>
            <path id="Trazado_215530" data-name="Trazado 215530" d="M230.336,35.844a4.385,4.385,0,0,0-.711-.055A1.906,1.906,0,0,0,227.7,37v6H226.25V34.547h1.406l.024.977a2.249,2.249,0,0,1,2.015-1.133,1.476,1.476,0,0,1,.641.109Z" fill="#12263f"/>
            <path id="Trazado_215531" data-name="Trazado 215531" d="M231.125,38.695a4.984,4.984,0,0,1,.488-2.234,3.64,3.64,0,0,1,1.36-1.532,3.7,3.7,0,0,1,1.988-.539,3.565,3.565,0,0,1,2.793,1.2,4.6,4.6,0,0,1,1.066,3.179v.1a5.05,5.05,0,0,1-.472,2.215A3.6,3.6,0,0,1,237,42.609a3.748,3.748,0,0,1-2.02.547,3.555,3.555,0,0,1-2.785-1.195,4.576,4.576,0,0,1-1.066-3.164Zm1.453.172a3.618,3.618,0,0,0,.652,2.258,2.211,2.211,0,0,0,3.5-.012,3.95,3.95,0,0,0,.649-2.418,3.61,3.61,0,0,0-.66-2.254,2.1,2.1,0,0,0-1.754-.863,2.078,2.078,0,0,0-1.727.851,3.929,3.929,0,0,0-.656,2.438" fill="#12263f"/>
            <path id="Trazado_215532" data-name="Trazado 215532" d="M240.282,38.7a4.949,4.949,0,0,1,.922-3.129,3.135,3.135,0,0,1,4.765-.168V31h1.445V43h-1.328l-.07-.906a2.944,2.944,0,0,1-2.414,1.062,2.889,2.889,0,0,1-2.4-1.2,5.009,5.009,0,0,1-.925-3.141Zm1.445.164a3.75,3.75,0,0,0,.594,2.25,1.917,1.917,0,0,0,1.64.813,2.109,2.109,0,0,0,2.008-1.235V36.812a2.123,2.123,0,0,0-1.992-1.195,1.927,1.927,0,0,0-1.656.82,4.128,4.128,0,0,0-.594,2.43" fill="#12263f"/>
            <path id="Trazado_215533" data-name="Trazado 215533" d="M254.875,42.164a3.071,3.071,0,0,1-2.477.992,2.627,2.627,0,0,1-2.058-.785,3.393,3.393,0,0,1-.715-2.324v-5.5h1.445v5.461q0,1.922,1.563,1.922a2.164,2.164,0,0,0,2.2-1.235V34.547h1.445V43h-1.375Z" fill="#12263f"/>
            <path id="Trazado_215534" data-name="Trazado 215534" d="M261.867,41.977a2.081,2.081,0,0,0,1.352-.469,1.65,1.65,0,0,0,.64-1.172h1.367a2.612,2.612,0,0,1-.5,1.383,3.291,3.291,0,0,1-1.23,1.047,3.544,3.544,0,0,1-1.629.391A3.481,3.481,0,0,1,259.121,42a4.588,4.588,0,0,1-1.02-3.152V38.61a5.087,5.087,0,0,1,.453-2.195,3.457,3.457,0,0,1,1.3-1.493,3.7,3.7,0,0,1,2-.531,3.387,3.387,0,0,1,2.363.852,3.041,3.041,0,0,1,1,2.211h-1.367a2,2,0,0,0-.621-1.348,1.929,1.929,0,0,0-1.379-.527,2.022,2.022,0,0,0-1.707.793,3.719,3.719,0,0,0-.605,2.292v.274a3.65,3.65,0,0,0,.6,2.25,2.033,2.033,0,0,0,1.719.789" fill="#12263f"/>
            <path id="Trazado_215535" data-name="Trazado 215535" d="M270.242,41.977a2.081,2.081,0,0,0,1.352-.469,1.65,1.65,0,0,0,.64-1.172H273.6a2.612,2.612,0,0,1-.5,1.383,3.291,3.291,0,0,1-1.23,1.047,3.544,3.544,0,0,1-1.629.391A3.481,3.481,0,0,1,267.5,42a4.588,4.588,0,0,1-1.02-3.152V38.61a5.087,5.087,0,0,1,.453-2.195,3.457,3.457,0,0,1,1.3-1.493,3.7,3.7,0,0,1,2-.531,3.387,3.387,0,0,1,2.363.852,3.041,3.041,0,0,1,1,2.211h-1.367a2,2,0,0,0-.621-1.348,1.929,1.929,0,0,0-1.379-.527,2.022,2.022,0,0,0-1.707.793,3.719,3.719,0,0,0-.605,2.292v.274a3.65,3.65,0,0,0,.6,2.25,2.033,2.033,0,0,0,1.719.789" fill="#12263f"/>
            <path id="Trazado_215536" data-name="Trazado 215536" d="M275.234,32.305a.863.863,0,0,1,.215-.594.809.809,0,0,1,.637-.242.822.822,0,0,1,.641.242.856.856,0,0,1,.218.594.856.856,0,1,1-1.711,0M276.8,43h-1.445V34.547H276.8Z" fill="#12263f"/>
            <path id="Trazado_215537" data-name="Trazado 215537" d="M278.727,38.7a4.988,4.988,0,0,1,.488-2.235,3.636,3.636,0,0,1,1.359-1.531,3.706,3.706,0,0,1,1.989-.539,3.564,3.564,0,0,1,2.793,1.195,4.6,4.6,0,0,1,1.066,3.18v.1a5.032,5.032,0,0,1-.473,2.214A3.589,3.589,0,0,1,284.6,42.61a3.748,3.748,0,0,1-2.02.547,3.556,3.556,0,0,1-2.785-1.2,4.574,4.574,0,0,1-1.066-3.164Zm1.453.172a3.613,3.613,0,0,0,.652,2.257,2.21,2.21,0,0,0,3.5-.011,3.952,3.952,0,0,0,.649-2.418,3.61,3.61,0,0,0-.66-2.254,2.1,2.1,0,0,0-1.754-.864,2.078,2.078,0,0,0-1.727.852,3.927,3.927,0,0,0-.656,2.438m3.039-7.852h1.75l-2.094,2.3-1.164,0Z" fill="#12263f"/>
            <path id="Trazado_215538" data-name="Trazado 215538" d="M289.6,34.547l.047,1.062a3.079,3.079,0,0,1,2.531-1.218q2.679,0,2.7,3.023V43h-1.445V37.406a1.947,1.947,0,0,0-.418-1.351,1.672,1.672,0,0,0-1.277-.438,2.087,2.087,0,0,0-1.235.375,2.545,2.545,0,0,0-.828.985V43h-1.445V34.547Z" fill="#12263f"/>
          </g>
        </g>
        <path id="Trazado_215539" data-name="Trazado 215539" d="M171.125,12h-2.344l-4.562-7.484V12h-2.344V.625h2.344l4.57,7.5V.625h2.336Z" fill="#fff"/>
        <g id="Grupo_154128" data-name="Grupo 154128">
          <g id="Grupo_154127" data-name="Grupo 154127" clip-path="url(#clip-path)">
            <path id="Trazado_215540" data-name="Trazado 215540" d="M173.008,1.359a1.112,1.112,0,0,1,.34-.836,1.464,1.464,0,0,1,1.847,0,1.108,1.108,0,0,1,.344.836,1.108,1.108,0,0,1-.348.844,1.449,1.449,0,0,1-1.836,0,1.111,1.111,0,0,1-.347-.844M175.406,12H173.14V3.547h2.266Z" fill="#fff"/>
            <path id="Trazado_215541" data-name="Trazado 215541" d="M180.43,9.242,182,3.547h2.36L181.508,12h-2.156L176.5,3.547h2.36Z" fill="#fff"/>
            <path id="Trazado_215542" data-name="Trazado 215542" d="M189.141,12.156a4.152,4.152,0,0,1-3.028-1.14,4.059,4.059,0,0,1-1.168-3.039V7.758a5.1,5.1,0,0,1,.493-2.277,3.616,3.616,0,0,1,1.394-1.547,3.907,3.907,0,0,1,2.059-.543,3.508,3.508,0,0,1,2.73,1.093,4.446,4.446,0,0,1,1,3.1v.922h-5.382a2.093,2.093,0,0,0,.66,1.328,2,2,0,0,0,1.394.5,2.436,2.436,0,0,0,2.039-.945l1.11,1.242a3.4,3.4,0,0,1-1.375,1.121,4.5,4.5,0,0,1-1.922.4m-.258-6.945a1.408,1.408,0,0,0-1.09.455,2.356,2.356,0,0,0-.535,1.3H190.4V6.788a1.681,1.681,0,0,0-.407-1.165,1.457,1.457,0,0,0-1.109-.412" fill="#fff"/>
            <rect id="Rectángulo_44404" data-name="Rectángulo 44404" width="2.266" height="12" transform="translate(194.015)" fill="#fff"/>
            <path id="Trazado_215543" data-name="Trazado 215543" d="M201.773,7.711a5.1,5.1,0,0,1,.887-3.149,2.876,2.876,0,0,1,2.426-1.171,2.592,2.592,0,0,1,2.039.921V0h2.265V12h-2.039l-.109-.9a2.656,2.656,0,0,1-2.172,1.055,2.865,2.865,0,0,1-2.394-1.176,5.256,5.256,0,0,1-.9-3.269m2.258.16a3.356,3.356,0,0,0,.414,1.829,1.347,1.347,0,0,0,1.2.636,1.512,1.512,0,0,0,1.477-.887V6.1a1.49,1.49,0,0,0-1.461-.887q-1.634,0-1.633,2.66" fill="#fff"/>
            <path id="Trazado_215544" data-name="Trazado 215544" d="M215.031,12.156A4.152,4.152,0,0,1,212,11.016a4.059,4.059,0,0,1-1.168-3.039V7.758a5.1,5.1,0,0,1,.493-2.277,3.616,3.616,0,0,1,1.394-1.547,3.907,3.907,0,0,1,2.059-.543,3.508,3.508,0,0,1,2.73,1.093,4.446,4.446,0,0,1,1,3.1v.922h-5.382a2.093,2.093,0,0,0,.66,1.328,2,2,0,0,0,1.394.5,2.436,2.436,0,0,0,2.039-.945l1.11,1.242a3.4,3.4,0,0,1-1.375,1.121,4.5,4.5,0,0,1-1.922.4m-.258-6.945a1.408,1.408,0,0,0-1.09.455,2.356,2.356,0,0,0-.535,1.3h3.141V6.788a1.681,1.681,0,0,0-.407-1.165,1.457,1.457,0,0,0-1.109-.412" fill="#fff"/>
            <path id="Trazado_215545" data-name="Trazado 215545" d="M226.938,9.242l1.57-5.695h2.36L228.015,12h-2.156l-2.852-8.453h2.36Z" fill="#fff"/>
            <path id="Trazado_215546" data-name="Trazado 215546" d="M235.649,12.156a4.152,4.152,0,0,1-3.028-1.14,4.059,4.059,0,0,1-1.168-3.039V7.758a5.1,5.1,0,0,1,.493-2.277,3.616,3.616,0,0,1,1.394-1.547,3.907,3.907,0,0,1,2.059-.543,3.508,3.508,0,0,1,2.73,1.093,4.446,4.446,0,0,1,1,3.1v.922h-5.382a2.093,2.093,0,0,0,.66,1.328,2,2,0,0,0,1.394.5,2.436,2.436,0,0,0,2.039-.945l1.11,1.242a3.4,3.4,0,0,1-1.375,1.121,4.5,4.5,0,0,1-1.922.4m-.258-6.945a1.408,1.408,0,0,0-1.09.455,2.356,2.356,0,0,0-.535,1.3h3.141V6.788a1.681,1.681,0,0,0-.407-1.165,1.457,1.457,0,0,0-1.109-.412" fill="#fff"/>
            <path id="Trazado_215547" data-name="Trazado 215547" d="M242.484,3.547l.07.977a2.952,2.952,0,0,1,2.43-1.133,2.45,2.45,0,0,1,2,.789,3.686,3.686,0,0,1,.672,2.359V12H245.4V6.581a1.474,1.474,0,0,0-.312-1.045,1.4,1.4,0,0,0-1.04-.325,1.552,1.552,0,0,0-1.429.815V12h-2.258V3.547Z" fill="#fff"/>
            <path id="Trazado_215548" data-name="Trazado 215548" d="M252.07,1.469V3.547h1.445V5.2H252.07V9.422a1.007,1.007,0,0,0,.18.672.9.9,0,0,0,.687.2,3.554,3.554,0,0,0,.664-.055v1.711a4.629,4.629,0,0,1-1.367.2,2.156,2.156,0,0,1-2.422-2.4V5.2h-1.234V3.547h1.234V1.469Z" fill="#fff"/>
            <path id="Trazado_215549" data-name="Trazado 215549" d="M259.672,12a2.488,2.488,0,0,1-.226-.758,2.731,2.731,0,0,1-2.133.915,3,3,0,0,1-2.059-.719,2.313,2.313,0,0,1-.816-1.813,2.389,2.389,0,0,1,1-2.062,4.906,4.906,0,0,1,2.879-.727h1.039V6.352a1.4,1.4,0,0,0-.3-.938,1.185,1.185,0,0,0-.949-.351,1.348,1.348,0,0,0-.895.273.931.931,0,0,0-.324.75h-2.258a2.269,2.269,0,0,1,.453-1.359,3,3,0,0,1,1.282-.981,4.665,4.665,0,0,1,1.859-.355,3.694,3.694,0,0,1,2.481.785,2.75,2.75,0,0,1,.918,2.207v3.664a4.034,4.034,0,0,0,.335,1.82V12ZM257.8,10.43a1.939,1.939,0,0,0,.922-.223,1.463,1.463,0,0,0,.625-.6V8.157h-.844q-1.7,0-1.8,1.171l-.007.133a.9.9,0,0,0,.3.7,1.151,1.151,0,0,0,.812.273" fill="#fff"/>
            <path id="Trazado_215550" data-name="Trazado 215550" d="M267.93,9.664a.728.728,0,0,0-.41-.652,4.634,4.634,0,0,0-1.317-.426q-3.015-.633-3.015-2.563a2.324,2.324,0,0,1,.933-1.879,3.769,3.769,0,0,1,2.442-.753,4.055,4.055,0,0,1,2.574.757,2.39,2.39,0,0,1,.965,1.969h-2.258a1.094,1.094,0,0,0-.312-.8A1.325,1.325,0,0,0,266.555,5a1.351,1.351,0,0,0-.883.258.814.814,0,0,0-.312.656.694.694,0,0,0,.355.605,3.65,3.65,0,0,0,1.2.4,9.72,9.72,0,0,1,1.422.379,2.335,2.335,0,0,1,1.789,2.273,2.2,2.2,0,0,1-.992,1.871,4.274,4.274,0,0,1-2.562.715,4.462,4.462,0,0,1-1.887-.379,3.155,3.155,0,0,1-1.293-1.039,2.41,2.41,0,0,1-.469-1.426h2.141a1.176,1.176,0,0,0,.445.922,1.765,1.765,0,0,0,1.11.321,1.636,1.636,0,0,0,.98-.246.768.768,0,0,0,.332-.645" fill="#fff"/>
          </g>
        </g>
        <path id="Trazado_215551" data-name="Trazado 215551" d="M473.437,513.523h-3.484V523h-2.344v-9.477h-3.438v-1.9h9.266Z" fill="#fff"/>
        <g id="Grupo_154130" data-name="Grupo 154130">
          <g id="Grupo_154129" data-name="Grupo 154129" clip-path="url(#clip-path)">
            <path id="Trazado_215552" data-name="Trazado 215552" d="M474.609,512.359a1.112,1.112,0,0,1,.34-.836,1.464,1.464,0,0,1,1.847,0,1.193,1.193,0,0,1,0,1.68,1.447,1.447,0,0,1-1.835,0,1.108,1.108,0,0,1-.348-.844m2.4,10.641h-2.266v-8.453h2.266Z" fill="#fff"/>
            <path id="Trazado_215553" data-name="Trazado 215553" d="M482.758,523.156a4.155,4.155,0,0,1-3.029-1.14,4.062,4.062,0,0,1-1.168-3.039v-.219a5.1,5.1,0,0,1,.494-2.277,3.62,3.62,0,0,1,1.393-1.547,3.913,3.913,0,0,1,2.06-.543,3.507,3.507,0,0,1,2.729,1.093,4.446,4.446,0,0,1,1,3.1v.922h-5.381a2.093,2.093,0,0,0,.66,1.328,2,2,0,0,0,1.393.5,2.435,2.435,0,0,0,2.039-.945l1.111,1.242a3.408,3.408,0,0,1-1.375,1.121,4.5,4.5,0,0,1-1.922.4m-.258-6.945a1.41,1.41,0,0,0-1.091.455,2.363,2.363,0,0,0-.534,1.3h3.141v-.181a1.682,1.682,0,0,0-.408-1.165,1.455,1.455,0,0,0-1.108-.412" fill="#fff"/>
            <path id="Trazado_215554" data-name="Trazado 215554" d="M489.632,514.547l.07.945a2.972,2.972,0,0,1,2.43-1.1,2.253,2.253,0,0,1,2.242,1.289,2.9,2.9,0,0,1,2.539-1.289,2.518,2.518,0,0,1,2.047.8,3.678,3.678,0,0,1,.672,2.41V523h-2.266v-5.4a1.613,1.613,0,0,0-.281-1.053,1.243,1.243,0,0,0-.992-.333,1.409,1.409,0,0,0-1.406.971l.007,5.818h-2.257v-5.4a1.6,1.6,0,0,0-.289-1.065,1.256,1.256,0,0,0-.985-.329,1.463,1.463,0,0,0-1.39.8V523h-2.258v-8.453Z" fill="#fff"/>
            <path id="Trazado_215555" data-name="Trazado 215555" d="M508.976,518.852a5.072,5.072,0,0,1-.887,3.129,2.843,2.843,0,0,1-2.394,1.176,2.635,2.635,0,0,1-2.071-.891v3.984h-2.258v-11.7h2.094l.078.828a2.655,2.655,0,0,1,2.141-.984,2.865,2.865,0,0,1,2.43,1.156,5.208,5.208,0,0,1,.867,3.188Zm-2.258-.172a3.352,3.352,0,0,0-.418-1.826,1.359,1.359,0,0,0-1.215-.643,1.479,1.479,0,0,0-1.461.815V520.5a1.5,1.5,0,0,0,1.477.839q1.617,0,1.617-2.656" fill="#fff"/>
            <path id="Trazado_215556" data-name="Trazado 215556" d="M510.023,518.7a5,5,0,0,1,.485-2.242,3.551,3.551,0,0,1,1.394-1.524,4.074,4.074,0,0,1,2.113-.539,3.848,3.848,0,0,1,2.793,1.047,4.2,4.2,0,0,1,1.207,2.844l.016.578a4.418,4.418,0,0,1-1.086,3.121,4.208,4.208,0,0,1-5.832,0,4.494,4.494,0,0,1-1.09-3.188Zm2.258.16a3.16,3.16,0,0,0,.453,1.843,1.629,1.629,0,0,0,2.578.008,3.453,3.453,0,0,0,.461-2.015,3.122,3.122,0,0,0-.461-1.831,1.5,1.5,0,0,0-1.3-.65,1.474,1.474,0,0,0-1.281.646,3.518,3.518,0,0,0-.453,2" fill="#fff"/>
          </g>
        </g>
        <rect id="Rectángulo_44407" data-name="Rectángulo 44407" width="2.344" height="11.375" transform="translate(129.023 511.625)" fill="#fff"/>
        <g id="Grupo_154132" data-name="Grupo 154132">
          <g id="Grupo_154131" data-name="Grupo 154131" clip-path="url(#clip-path)">
            <path id="Trazado_215557" data-name="Trazado 215557" d="M135.469,514.547l.07.977a2.952,2.952,0,0,1,2.43-1.133,2.45,2.45,0,0,1,2,.789,3.686,3.686,0,0,1,.672,2.359V523h-2.258v-5.419a1.474,1.474,0,0,0-.312-1.045,1.4,1.4,0,0,0-1.04-.325,1.552,1.552,0,0,0-1.429.815V523h-2.258v-8.453Z" fill="#fff"/>
            <path id="Trazado_215558" data-name="Trazado 215558" d="M145.516,520.242l1.57-5.7h2.36L146.594,523h-2.156l-2.852-8.453h2.36Z" fill="#fff"/>
            <path id="Trazado_215559" data-name="Trazado 215559" d="M154.227,523.156a4.152,4.152,0,0,1-3.028-1.14,4.059,4.059,0,0,1-1.168-3.039v-.219a5.1,5.1,0,0,1,.493-2.277,3.616,3.616,0,0,1,1.394-1.547,3.907,3.907,0,0,1,2.059-.543,3.508,3.508,0,0,1,2.73,1.093,4.446,4.446,0,0,1,1,3.1v.922h-5.382a2.093,2.093,0,0,0,.66,1.328,2,2,0,0,0,1.394.5,2.436,2.436,0,0,0,2.039-.945l1.11,1.242a3.4,3.4,0,0,1-1.375,1.121,4.5,4.5,0,0,1-1.922.4m-.258-6.945a1.408,1.408,0,0,0-1.09.455,2.356,2.356,0,0,0-.535,1.3h3.141v-.181a1.682,1.682,0,0,0-.407-1.165,1.457,1.457,0,0,0-1.109-.412" fill="#fff"/>
            <path id="Trazado_215560" data-name="Trazado 215560" d="M163.734,516.664a6.077,6.077,0,0,0-.812-.062,1.653,1.653,0,0,0-1.68.867V523h-2.258v-8.453h2.133l.062,1.008a2.091,2.091,0,0,1,1.883-1.164,2.384,2.384,0,0,1,.7.1Z" fill="#fff"/>
            <path id="Trazado_215561" data-name="Trazado 215561" d="M169.4,520.664a.728.728,0,0,0-.41-.652,4.633,4.633,0,0,0-1.317-.426q-3.015-.633-3.015-2.563a2.324,2.324,0,0,1,.933-1.879,3.769,3.769,0,0,1,2.442-.753,4.055,4.055,0,0,1,2.574.757,2.39,2.39,0,0,1,.965,1.969h-2.258a1.094,1.094,0,0,0-.312-.8,1.325,1.325,0,0,0-.977-.316,1.351,1.351,0,0,0-.883.258.814.814,0,0,0-.312.656.694.694,0,0,0,.355.6,3.65,3.65,0,0,0,1.2.4,9.72,9.72,0,0,1,1.422.379,2.335,2.335,0,0,1,1.789,2.273,2.2,2.2,0,0,1-.992,1.871,4.274,4.274,0,0,1-2.562.715,4.461,4.461,0,0,1-1.887-.379,3.155,3.155,0,0,1-1.293-1.039,2.41,2.41,0,0,1-.469-1.426h2.141a1.176,1.176,0,0,0,.445.922,1.765,1.765,0,0,0,1.11.321,1.636,1.636,0,0,0,.98-.246.768.768,0,0,0,.332-.645" fill="#fff"/>
            <path id="Trazado_215562" data-name="Trazado 215562" d="M173.031,512.359a1.115,1.115,0,0,1,.34-.836,1.465,1.465,0,0,1,1.848,0,1.2,1.2,0,0,1,0,1.68,1.449,1.449,0,0,1-1.836,0,1.108,1.108,0,0,1-.348-.844M175.43,523h-2.266v-8.453h2.266Z" fill="#fff"/>
            <path id="Trazado_215563" data-name="Trazado 215563" d="M176.938,518.7a5.009,5.009,0,0,1,.484-2.242,3.542,3.542,0,0,1,1.394-1.523,4.064,4.064,0,0,1,2.114-.539,3.85,3.85,0,0,1,2.793,1.046,4.209,4.209,0,0,1,1.207,2.844l.015.578a4.418,4.418,0,0,1-1.086,3.121,4.208,4.208,0,0,1-5.832,0,4.5,4.5,0,0,1-1.089-3.187Zm2.257.16a3.16,3.16,0,0,0,.453,1.843,1.628,1.628,0,0,0,2.579.008,3.462,3.462,0,0,0,.46-2.015,3.13,3.13,0,0,0-.46-1.831,1.5,1.5,0,0,0-1.3-.649,1.474,1.474,0,0,0-1.282.645,3.518,3.518,0,0,0-.453,2m2.18-7.855h2.461l-2.164,2.422h-1.836Z" fill="#fff"/>
            <path id="Trazado_215564" data-name="Trazado 215564" d="M188.414,514.547l.07.977a2.952,2.952,0,0,1,2.43-1.133,2.45,2.45,0,0,1,2,.789,3.687,3.687,0,0,1,.672,2.359V523h-2.258v-5.419a1.474,1.474,0,0,0-.312-1.045,1.4,1.4,0,0,0-1.04-.325,1.552,1.552,0,0,0-1.429.815V523h-2.258v-8.453Z" fill="#fff"/>
          </g>
        </g>
      </g>
    </g>
  </g>
</svg>
