<svg xmlns="http://www.w3.org/2000/svg" xmlns:xlink="http://www.w3.org/1999/xlink" width="820" height="293" viewBox="0 0 820 293">
  <defs>
    <linearGradient id="linear-gradient" x1="0.18" y1="0.649" x2="0.966" y2="0.026" gradientUnits="objectBoundingBox">
      <stop offset="0" stop-color="#9f321d"/>
      <stop offset="1" stop-color="#f34f31"/>
    </linearGradient>
    <linearGradient id="linear-gradient-3" x1="0.18" y1="0.649" x2="0.966" y2="0.026" gradientUnits="objectBoundingBox">
      <stop offset="0" stop-color="#ca4127"/>
      <stop offset="1" stop-color="#ff7a61"/>
    </linearGradient>
    <clipPath id="clip-path">
      <rect id="Rectángulo_44429" data-name="Rectángulo 44429" width="656.535" height="258.25" fill="none"/>
    </clipPath>
  </defs>
  <g id="Grupo_154155" data-name="Grupo 154155" transform="translate(5513 -1323)">
    <rect id="Rectángulo_43155" data-name="Rectángulo 43155" width="820" height="45" transform="translate(-5513 1323)" fill="#fecd4d"/>
    <rect id="Rectángulo_43156" data-name="Rectángulo 43156" width="820" height="249" transform="translate(-5513 1367)" fill="#fff" opacity="0.9"/>
    <g id="Grupo_153468" data-name="Grupo 153468" transform="translate(36 193)">
      <path id="Trazado_213608" data-name="Trazado 213608" d="M-6899,1178.906h484.077" transform="translate(1567 24.094)" fill="none" stroke="#707070" stroke-width="1"/>
      <path id="Trazado_213609" data-name="Trazado 213609" d="M-6899,1178.906h484.077" transform="translate(1567 56.417)" fill="none" stroke="#707070" stroke-width="1"/>
      <path id="Trazado_213610" data-name="Trazado 213610" d="M-6899,1178.906h484.077" transform="translate(1567 88.74)" fill="none" stroke="#707070" stroke-width="1"/>
      <path id="Trazado_213614" data-name="Trazado 213614" d="M-6899,1178.906h484.077" transform="translate(1567 182.094)" fill="none" stroke="#707070" stroke-width="1"/>
      <rect id="Rectángulo_43174" data-name="Rectángulo 43174" width="122" height="32" transform="translate(-5332 1300)" fill="#f3e6e3"/>
      <rect id="Rectángulo_43176" data-name="Rectángulo 43176" width="121" height="32" transform="translate(-5089 1300)" fill="#f3e6e3"/>
      <rect id="Rectángulo_43175" data-name="Rectángulo 43175" width="121" height="32" transform="translate(-5210 1300)" fill="#fff5db"/>
      <rect id="Rectángulo_43177" data-name="Rectángulo 43177" width="121" height="32" transform="translate(-4968 1300)" fill="#fff5db"/>
      <g id="Grupo_153465" data-name="Grupo 153465" transform="translate(-118.49 -4)">
        <path id="Trazado_213612" data-name="Trazado 213612" d="M-5167,1224l-3.51,5.656V1304h5.311v-72.832Z" transform="translate(0 0)" fill="#e86e56"/>
        <rect id="Rectángulo_43178" data-name="Rectángulo 43178" width="33" height="80" transform="translate(-5167 1224)" fill="url(#linear-gradient)"/>
      </g>
      <g id="Grupo_153466" data-name="Grupo 153466" transform="translate(123.755 2.66)">
        <path id="Trazado_213612-2" data-name="Trazado 213612" d="M-5167,1224l-3.51,5.185v68.154h5.311v-66.768Z" fill="#e86e56"/>
        <rect id="Rectángulo_43178-2" data-name="Rectángulo 43178" width="33" height="73.34" transform="translate(-5167 1224)" fill="url(#linear-gradient)"/>
      </g>
      <g id="Grupo_153464" data-name="Grupo 153464" transform="translate(-131 15.244)">
        <path id="Trazado_213613" data-name="Trazado 213613" d="M-5167,1224l-3.51,4.3v56.46h5.311v-55.312Z" transform="translate(133.51)" fill="#e86e56"/>
        <rect id="Rectángulo_43179" data-name="Rectángulo 43179" width="33" height="60.756" transform="translate(-5033.49 1224)" fill="url(#linear-gradient-3)"/>
      </g>
      <g id="Grupo_153467" data-name="Grupo 153467" transform="translate(111.245 20.793)">
        <path id="Trazado_213613-2" data-name="Trazado 213613" d="M-5167,1224l-3.51,3.9v51.3h5.311v-50.261Z" transform="translate(133.51)" fill="#e86e56"/>
        <rect id="Rectángulo_43179-2" data-name="Rectángulo 43179" width="33" height="55.207" transform="translate(-5033.49 1224)" fill="url(#linear-gradient-3)"/>
      </g>
      <path id="Trazado_213611" data-name="Trazado 213611" d="M-6899,1178.906h484.077" transform="translate(1567 121.063)" fill="none" stroke="#707070" stroke-width="1"/>
      <path id="Trazado_213615" data-name="Trazado 213615" d="M-5187.162,1337v24.46h-92" transform="translate(-144.838)" fill="none" stroke="#707070" stroke-width="1"/>
      <rect id="Rectángulo_43180" data-name="Rectángulo 43180" width="13" height="13" transform="translate(-5358 1340)" fill="#9f321d"/>
      <path id="Trazado_213616" data-name="Trazado 213616" d="M-5085,1337v24.319" transform="translate(-125)" fill="none" stroke="#707070" stroke-width="1"/>
      <path id="Trazado_213617" data-name="Trazado 213617" d="M-5085,1337v24.319" transform="translate(-3)" fill="none" stroke="#707070" stroke-width="1"/>
      <path id="Trazado_213618" data-name="Trazado 213618" d="M-5085,1337v24.319" transform="translate(117)" fill="none" stroke="#707070" stroke-width="1"/>
      <path id="Trazado_213619" data-name="Trazado 213619" d="M-5085,1337v24.319" transform="translate(237.077)" fill="none" stroke="#707070" stroke-width="1"/>
    </g>
    <rect id="Rectángulo_43182" data-name="Rectángulo 43182" width="153" height="56" transform="translate(-5504 1380)" fill="#f7eed6"/>
    <rect id="Rectángulo_43183" data-name="Rectángulo 43183" width="173" height="30" transform="translate(-4984 1572)" fill="#f7eed6"/>
    <g id="Grupo_154156" data-name="Grupo 154156" transform="translate(-5492 1338)">
      <path id="Trazado_215671" data-name="Trazado 215671" d="M254.841,9.656h-4.11L249.95,12h-2.492L251.692.625h2.172L258.122,12H255.63Zm-3.477-1.9h2.844L252.778,3.5Z" fill="#12263f"/>
      <rect id="Rectángulo_44426" data-name="Rectángulo 44426" width="2.265" height="12" transform="translate(259.153)" fill="#12263f"/>
      <g id="Grupo_154157" data-name="Grupo 154157">
        <g id="Grupo_154156-2" data-name="Grupo 154156" clip-path="url(#clip-path)">
          <path id="Trazado_215672" data-name="Trazado 215672" d="M265.4,3.547l.069.945a2.972,2.972,0,0,1,2.431-1.1,2.252,2.252,0,0,1,2.241,1.289,2.9,2.9,0,0,1,2.539-1.289,2.519,2.519,0,0,1,2.047.8A3.678,3.678,0,0,1,275.4,6.6V12h-2.267V6.6a1.613,1.613,0,0,0-.281-1.053,1.241,1.241,0,0,0-.991-.333,1.407,1.407,0,0,0-1.406.971L270.457,12H268.2V6.605a1.6,1.6,0,0,0-.29-1.065,1.258,1.258,0,0,0-.985-.329,1.463,1.463,0,0,0-1.39.8V12h-2.257V3.547Z" fill="#12263f"/>
          <path id="Trazado_215673" data-name="Trazado 215673" d="M282.192,11.141a2.833,2.833,0,0,1-2.313,1.016,2.671,2.671,0,0,1-2.074-.782,3.334,3.334,0,0,1-.73-2.289V3.547h2.258V9.014q0,1.323,1.2,1.322a1.629,1.629,0,0,0,1.578-.8V3.547h2.266V12h-2.126Z" fill="#12263f"/>
          <path id="Trazado_215674" data-name="Trazado 215674" d="M289.974,12.156a4.152,4.152,0,0,1-3.028-1.14,4.055,4.055,0,0,1-1.168-3.039V7.758a5.1,5.1,0,0,1,.493-2.277,3.616,3.616,0,0,1,1.394-1.547,3.9,3.9,0,0,1,2.059-.543,3.508,3.508,0,0,1,2.73,1.093,4.446,4.446,0,0,1,1,3.1v.922h-5.382a2.093,2.093,0,0,0,.66,1.328,2,2,0,0,0,1.394.5,2.439,2.439,0,0,0,2.039-.945l1.11,1.242a3.4,3.4,0,0,1-1.375,1.121,4.5,4.5,0,0,1-1.922.4m-.258-6.945a1.408,1.408,0,0,0-1.09.455,2.356,2.356,0,0,0-.535,1.3h3.141V6.788a1.686,1.686,0,0,0-.407-1.165,1.457,1.457,0,0,0-1.109-.412" fill="#12263f"/>
          <path id="Trazado_215675" data-name="Trazado 215675" d="M299.481,5.664a6.075,6.075,0,0,0-.812-.062,1.653,1.653,0,0,0-1.68.867V12h-2.258V3.547h2.133l.062,1.008a2.089,2.089,0,0,1,1.883-1.164,2.384,2.384,0,0,1,.7.1Z" fill="#12263f"/>
          <path id="Trazado_215676" data-name="Trazado 215676" d="M303.161,10.18h4.133V12h-7.016V10.625l3.977-5.257H300.4V3.547h6.774v1.33Z" fill="#12263f"/>
          <path id="Trazado_215677" data-name="Trazado 215677" d="M308.231,7.7a5,5,0,0,1,.485-2.242A3.538,3.538,0,0,1,310.11,3.93a4.072,4.072,0,0,1,2.113-.539,3.848,3.848,0,0,1,2.793,1.047,4.207,4.207,0,0,1,1.207,2.844l.016.578a4.414,4.414,0,0,1-1.086,3.12,4.207,4.207,0,0,1-5.832.005,4.494,4.494,0,0,1-1.09-3.188Zm2.258.159a3.154,3.154,0,0,0,.453,1.844,1.629,1.629,0,0,0,2.578.008,3.461,3.461,0,0,0,.461-2.015,3.13,3.13,0,0,0-.461-1.831,1.5,1.5,0,0,0-1.3-.65,1.472,1.472,0,0,0-1.281.646,3.509,3.509,0,0,0-.453,2" fill="#12263f"/>
          <path id="Trazado_215678" data-name="Trazado 215678" d="M322.208,9.664a.728.728,0,0,0-.41-.652,4.635,4.635,0,0,0-1.317-.426q-3.015-.633-3.015-2.563a2.321,2.321,0,0,1,.933-1.879,3.769,3.769,0,0,1,2.442-.753,4.057,4.057,0,0,1,2.574.757,2.39,2.39,0,0,1,.965,1.969h-2.258a1.094,1.094,0,0,0-.312-.8A1.325,1.325,0,0,0,320.833,5a1.349,1.349,0,0,0-.883.258.811.811,0,0,0-.312.656.694.694,0,0,0,.355.605,3.641,3.641,0,0,0,1.2.4,9.719,9.719,0,0,1,1.422.379A2.335,2.335,0,0,1,324.4,9.57a2.2,2.2,0,0,1-.992,1.871,4.276,4.276,0,0,1-2.562.715,4.462,4.462,0,0,1-1.887-.379,3.155,3.155,0,0,1-1.293-1.039,2.41,2.41,0,0,1-.469-1.426h2.141a1.176,1.176,0,0,0,.445.922,1.765,1.765,0,0,0,1.11.321,1.638,1.638,0,0,0,.98-.246.768.768,0,0,0,.332-.645" fill="#12263f"/>
          <path id="Trazado_215679" data-name="Trazado 215679" d="M331.958,3.547l.07.945a2.972,2.972,0,0,1,2.43-1.1A2.254,2.254,0,0,1,336.7,4.68a2.9,2.9,0,0,1,2.539-1.289,2.519,2.519,0,0,1,2.047.8,3.684,3.684,0,0,1,.672,2.41V12h-2.266V6.6a1.613,1.613,0,0,0-.281-1.053,1.243,1.243,0,0,0-.992-.333,1.408,1.408,0,0,0-1.406.971L337.02,12h-2.257V6.605a1.6,1.6,0,0,0-.289-1.065,1.258,1.258,0,0,0-.985-.329,1.463,1.463,0,0,0-1.39.8V12h-2.258V3.547Z" fill="#12263f"/>
          <path id="Trazado_215680" data-name="Trazado 215680" d="M348.591,12a2.487,2.487,0,0,1-.227-.758,2.73,2.73,0,0,1-2.133.914,3,3,0,0,1-2.058-.718,2.312,2.312,0,0,1-.817-1.813,2.389,2.389,0,0,1,1-2.063,4.912,4.912,0,0,1,2.878-.726h1.039V6.352a1.4,1.4,0,0,0-.3-.938,1.187,1.187,0,0,0-.949-.352,1.341,1.341,0,0,0-.895.274.928.928,0,0,0-.324.75h-2.258A2.263,2.263,0,0,1,344,4.727a2.993,2.993,0,0,1,1.281-.981,4.67,4.67,0,0,1,1.86-.355,3.686,3.686,0,0,1,2.48.785,2.749,2.749,0,0,1,.918,2.207v3.664a4.032,4.032,0,0,0,.336,1.82V12Zm-1.867-1.57a1.947,1.947,0,0,0,.921-.223,1.454,1.454,0,0,0,.625-.6V8.156h-.843q-1.7,0-1.8,1.172l-.008.133a.9.9,0,0,0,.3.695,1.149,1.149,0,0,0,.813.274M347.583,0h2.461L347.88,2.422h-1.836Z" fill="#12263f"/>
          <path id="Trazado_215681" data-name="Trazado 215681" d="M356.849,9.664a.728.728,0,0,0-.41-.652,4.634,4.634,0,0,0-1.317-.426q-3.015-.633-3.015-2.563a2.321,2.321,0,0,1,.933-1.879,3.769,3.769,0,0,1,2.442-.753,4.057,4.057,0,0,1,2.574.757,2.39,2.39,0,0,1,.965,1.969h-2.258a1.094,1.094,0,0,0-.312-.8A1.325,1.325,0,0,0,355.474,5a1.349,1.349,0,0,0-.883.258.811.811,0,0,0-.312.656.694.694,0,0,0,.355.605,3.641,3.641,0,0,0,1.2.4,9.72,9.72,0,0,1,1.422.379,2.335,2.335,0,0,1,1.789,2.273,2.2,2.2,0,0,1-.992,1.871,4.276,4.276,0,0,1-2.562.715,4.462,4.462,0,0,1-1.887-.379,3.155,3.155,0,0,1-1.293-1.039,2.41,2.41,0,0,1-.469-1.426h2.141a1.176,1.176,0,0,0,.445.922,1.765,1.765,0,0,0,1.11.321,1.638,1.638,0,0,0,.98-.246.768.768,0,0,0,.332-.645" fill="#12263f"/>
          <path id="Trazado_215682" data-name="Trazado 215682" d="M369.06,9.664a.728.728,0,0,0-.41-.652,4.634,4.634,0,0,0-1.317-.426q-3.015-.633-3.015-2.563a2.321,2.321,0,0,1,.933-1.879,3.769,3.769,0,0,1,2.442-.753,4.057,4.057,0,0,1,2.574.757,2.39,2.39,0,0,1,.965,1.969h-2.258a1.094,1.094,0,0,0-.312-.8A1.325,1.325,0,0,0,367.685,5a1.349,1.349,0,0,0-.883.258.811.811,0,0,0-.312.656.694.694,0,0,0,.355.605,3.641,3.641,0,0,0,1.2.4,9.72,9.72,0,0,1,1.422.379,2.335,2.335,0,0,1,1.789,2.273,2.2,2.2,0,0,1-.992,1.871,4.276,4.276,0,0,1-2.562.715,4.462,4.462,0,0,1-1.887-.379,3.155,3.155,0,0,1-1.293-1.039,2.41,2.41,0,0,1-.469-1.426h2.141a1.176,1.176,0,0,0,.445.922,1.765,1.765,0,0,0,1.11.321,1.638,1.638,0,0,0,.98-.246.768.768,0,0,0,.332-.645" fill="#12263f"/>
          <path id="Trazado_215683" data-name="Trazado 215683" d="M372.356,7.7a5,5,0,0,1,.485-2.242,3.538,3.538,0,0,1,1.394-1.524,4.072,4.072,0,0,1,2.113-.539,3.848,3.848,0,0,1,2.793,1.047,4.207,4.207,0,0,1,1.207,2.844l.016.578a4.414,4.414,0,0,1-1.086,3.12,4.207,4.207,0,0,1-5.832.005,4.494,4.494,0,0,1-1.09-3.188Zm2.258.159a3.154,3.154,0,0,0,.453,1.844,1.629,1.629,0,0,0,2.578.008,3.461,3.461,0,0,0,.461-2.015,3.13,3.13,0,0,0-.461-1.831,1.5,1.5,0,0,0-1.3-.65,1.472,1.472,0,0,0-1.281.646,3.509,3.509,0,0,0-.453,2" fill="#12263f"/>
          <rect id="Rectángulo_44427" data-name="Rectángulo 44427" width="2.266" height="12" transform="translate(381.872)" fill="#12263f"/>
          <path id="Trazado_215684" data-name="Trazado 215684" d="M385.981,1.359a1.115,1.115,0,0,1,.34-.836,1.465,1.465,0,0,1,1.848,0,1.111,1.111,0,0,1,.344.836,1.112,1.112,0,0,1-.348.844,1.449,1.449,0,0,1-1.836,0,1.108,1.108,0,0,1-.348-.844M388.38,12h-2.266V3.547h2.266Z" fill="#12263f"/>
          <path id="Trazado_215685" data-name="Trazado 215685" d="M393.755,10.336a1.48,1.48,0,0,0,1.016-.344,1.211,1.211,0,0,0,.406-.914h2.117a2.9,2.9,0,0,1-.469,1.574,3.093,3.093,0,0,1-1.261,1.11,3.967,3.967,0,0,1-1.77.394A3.664,3.664,0,0,1,390.935,11a4.556,4.556,0,0,1-1.047-3.184V7.672a4.506,4.506,0,0,1,1.039-3.117,3.621,3.621,0,0,1,2.851-1.164,3.554,3.554,0,0,1,2.543.9,3.2,3.2,0,0,1,.973,2.4h-2.117a1.564,1.564,0,0,0-.406-1.072,1.511,1.511,0,0,0-2.223.163,3.327,3.327,0,0,0-.4,1.866v.235a3.374,3.374,0,0,0,.4,1.878,1.376,1.376,0,0,0,1.211.571" fill="#12263f"/>
          <path id="Trazado_215686" data-name="Trazado 215686" d="M398.567,1.359a1.115,1.115,0,0,1,.34-.836,1.465,1.465,0,0,1,1.848,0,1.111,1.111,0,0,1,.344.836,1.112,1.112,0,0,1-.348.844,1.449,1.449,0,0,1-1.836,0,1.109,1.109,0,0,1-.348-.844M400.966,12H398.7V3.547h2.266Z" fill="#12263f"/>
          <path id="Trazado_215687" data-name="Trazado 215687" d="M405.528,1.469V3.547h1.445V5.2h-1.445V9.422a1.007,1.007,0,0,0,.18.672.9.9,0,0,0,.687.2,3.554,3.554,0,0,0,.664-.055v1.711a4.628,4.628,0,0,1-1.367.2,2.156,2.156,0,0,1-2.422-2.4V5.2h-1.234V3.547h1.234V1.469Z" fill="#12263f"/>
          <path id="Trazado_215688" data-name="Trazado 215688" d="M413.13,12a2.489,2.489,0,0,1-.226-.758,2.731,2.731,0,0,1-2.133.915,3,3,0,0,1-2.059-.719,2.31,2.31,0,0,1-.816-1.813,2.389,2.389,0,0,1,1-2.062,4.906,4.906,0,0,1,2.879-.727h1.039V6.352a1.4,1.4,0,0,0-.3-.938,1.185,1.185,0,0,0-.949-.351,1.346,1.346,0,0,0-.895.273.931.931,0,0,0-.324.75h-2.258a2.269,2.269,0,0,1,.453-1.359,3,3,0,0,1,1.282-.981,4.665,4.665,0,0,1,1.859-.355,3.7,3.7,0,0,1,2.481.785,2.75,2.75,0,0,1,.918,2.207v3.664a4.034,4.034,0,0,0,.335,1.82V12Zm-1.867-1.57a1.939,1.939,0,0,0,.922-.223,1.463,1.463,0,0,0,.625-.6V8.157h-.844q-1.7,0-1.8,1.171l-.007.133a.9.9,0,0,0,.3.7,1.151,1.151,0,0,0,.812.273" fill="#12263f"/>
          <path id="Trazado_215689" data-name="Trazado 215689" d="M416.458,7.711a5.091,5.091,0,0,1,.887-3.149,2.876,2.876,0,0,1,2.426-1.171,2.592,2.592,0,0,1,2.039.921V0h2.265V12h-2.039l-.109-.9a2.656,2.656,0,0,1-2.172,1.055,2.865,2.865,0,0,1-2.394-1.176,5.256,5.256,0,0,1-.9-3.269m2.258.16A3.356,3.356,0,0,0,419.13,9.7a1.346,1.346,0,0,0,1.2.636,1.513,1.513,0,0,0,1.477-.887V6.1a1.49,1.49,0,0,0-1.461-.887q-1.633,0-1.633,2.66" fill="#12263f"/>
          <path id="Trazado_215690" data-name="Trazado 215690" d="M425.473,7.7a5,5,0,0,1,.485-2.242,3.538,3.538,0,0,1,1.394-1.524,4.072,4.072,0,0,1,2.113-.539,3.848,3.848,0,0,1,2.793,1.047,4.207,4.207,0,0,1,1.207,2.844l.016.578a4.414,4.414,0,0,1-1.086,3.12,4.207,4.207,0,0,1-5.832.005,4.494,4.494,0,0,1-1.09-3.188Zm2.258.159a3.154,3.154,0,0,0,.453,1.844,1.629,1.629,0,0,0,2.578.008,3.461,3.461,0,0,0,.461-2.015,3.13,3.13,0,0,0-.461-1.831,1.5,1.5,0,0,0-1.3-.65,1.472,1.472,0,0,0-1.281.646,3.509,3.509,0,0,0-.453,2" fill="#12263f"/>
          <path id="Trazado_215691" data-name="Trazado 215691" d="M439.45,9.664a.728.728,0,0,0-.41-.652,4.635,4.635,0,0,0-1.317-.426q-3.015-.633-3.015-2.563a2.321,2.321,0,0,1,.933-1.879,3.769,3.769,0,0,1,2.442-.753,4.057,4.057,0,0,1,2.574.757,2.39,2.39,0,0,1,.965,1.969h-2.258a1.094,1.094,0,0,0-.312-.8A1.325,1.325,0,0,0,438.075,5a1.349,1.349,0,0,0-.883.258.811.811,0,0,0-.312.656.694.694,0,0,0,.355.605,3.641,3.641,0,0,0,1.2.4,9.718,9.718,0,0,1,1.422.379,2.335,2.335,0,0,1,1.789,2.273,2.2,2.2,0,0,1-.992,1.871,4.276,4.276,0,0,1-2.562.715,4.462,4.462,0,0,1-1.887-.379,3.155,3.155,0,0,1-1.293-1.039,2.41,2.41,0,0,1-.469-1.426h2.141a1.176,1.176,0,0,0,.445.922,1.764,1.764,0,0,0,1.11.321,1.638,1.638,0,0,0,.98-.246.768.768,0,0,0,.332-.645" fill="#12263f"/>
          <path id="Trazado_215692" data-name="Trazado 215692" d="M454.693,7.852a5.071,5.071,0,0,1-.887,3.129,2.844,2.844,0,0,1-2.394,1.176,2.633,2.633,0,0,1-2.071-.891V15.25h-2.258V3.547h2.094l.078.828a2.654,2.654,0,0,1,2.141-.984,2.867,2.867,0,0,1,2.43,1.156,5.208,5.208,0,0,1,.867,3.188Zm-2.258-.172a3.352,3.352,0,0,0-.418-1.826,1.36,1.36,0,0,0-1.215-.643,1.478,1.478,0,0,0-1.461.815V9.5a1.5,1.5,0,0,0,1.477.839q1.617,0,1.617-2.656" fill="#12263f"/>
          <path id="Trazado_215693" data-name="Trazado 215693" d="M455.739,7.7a5,5,0,0,1,.485-2.242,3.538,3.538,0,0,1,1.394-1.524,4.072,4.072,0,0,1,2.113-.539,3.848,3.848,0,0,1,2.793,1.047,4.207,4.207,0,0,1,1.207,2.844l.016.578a4.414,4.414,0,0,1-1.086,3.12,4.207,4.207,0,0,1-5.832.005,4.494,4.494,0,0,1-1.09-3.188ZM458,7.855A3.154,3.154,0,0,0,458.45,9.7a1.629,1.629,0,0,0,2.578.008,3.461,3.461,0,0,0,.461-2.015,3.13,3.13,0,0,0-.461-1.831,1.5,1.5,0,0,0-1.3-.65,1.472,1.472,0,0,0-1.281.646,3.509,3.509,0,0,0-.453,2" fill="#12263f"/>
          <path id="Trazado_215694" data-name="Trazado 215694" d="M469.888,5.664a6.076,6.076,0,0,0-.812-.062,1.653,1.653,0,0,0-1.68.867V12h-2.258V3.547h2.133l.062,1.008a2.089,2.089,0,0,1,1.883-1.164,2.385,2.385,0,0,1,.7.1Z" fill="#12263f"/>
          <path id="Trazado_215695" data-name="Trazado 215695" d="M478.474,10.336a1.48,1.48,0,0,0,1.016-.344,1.211,1.211,0,0,0,.406-.914h2.117a2.9,2.9,0,0,1-.469,1.574,3.093,3.093,0,0,1-1.261,1.11,3.967,3.967,0,0,1-1.77.394A3.664,3.664,0,0,1,475.654,11a4.556,4.556,0,0,1-1.047-3.184V7.672a4.506,4.506,0,0,1,1.039-3.117A3.621,3.621,0,0,1,478.5,3.391a3.554,3.554,0,0,1,2.543.9,3.2,3.2,0,0,1,.973,2.4H479.9a1.564,1.564,0,0,0-.406-1.072,1.511,1.511,0,0,0-2.223.163,3.327,3.327,0,0,0-.4,1.866v.235a3.374,3.374,0,0,0,.4,1.878,1.376,1.376,0,0,0,1.211.571" fill="#12263f"/>
          <rect id="Rectángulo_44428" data-name="Rectángulo 44428" width="2.266" height="12" transform="translate(483.419)" fill="#12263f"/>
          <path id="Trazado_215696" data-name="Trazado 215696" d="M487.528,1.359a1.115,1.115,0,0,1,.34-.836,1.465,1.465,0,0,1,1.848,0,1.111,1.111,0,0,1,.344.836,1.112,1.112,0,0,1-.348.844,1.449,1.449,0,0,1-1.836,0,1.109,1.109,0,0,1-.348-.844M489.927,12h-2.266V3.547h2.266Z" fill="#12263f"/>
          <path id="Trazado_215697" data-name="Trazado 215697" d="M495.677,12.156a4.153,4.153,0,0,1-3.028-1.14,4.055,4.055,0,0,1-1.168-3.039V7.758a5.1,5.1,0,0,1,.493-2.277,3.616,3.616,0,0,1,1.394-1.547,3.9,3.9,0,0,1,2.059-.543,3.508,3.508,0,0,1,2.73,1.093,4.446,4.446,0,0,1,1,3.1v.922h-5.382a2.093,2.093,0,0,0,.66,1.328,2,2,0,0,0,1.394.5,2.439,2.439,0,0,0,2.039-.945l1.11,1.242a3.4,3.4,0,0,1-1.375,1.121,4.5,4.5,0,0,1-1.922.4m-.258-6.945a1.408,1.408,0,0,0-1.09.455,2.356,2.356,0,0,0-.535,1.3h3.141V6.788a1.686,1.686,0,0,0-.407-1.165,1.457,1.457,0,0,0-1.109-.412" fill="#12263f"/>
          <path id="Trazado_215698" data-name="Trazado 215698" d="M502.513,3.547l.07.977a2.952,2.952,0,0,1,2.43-1.133,2.45,2.45,0,0,1,2,.789,3.686,3.686,0,0,1,.672,2.359V12h-2.258V6.581a1.474,1.474,0,0,0-.312-1.045,1.4,1.4,0,0,0-1.04-.325,1.552,1.552,0,0,0-1.429.815V12h-2.258V3.547Z" fill="#12263f"/>
          <path id="Trazado_215699" data-name="Trazado 215699" d="M512.1,1.469V3.547h1.445V5.2H512.1V9.422a1.007,1.007,0,0,0,.18.672.9.9,0,0,0,.687.2,3.554,3.554,0,0,0,.664-.055v1.711a4.629,4.629,0,0,1-1.367.2,2.156,2.156,0,0,1-2.422-2.4V5.2h-1.234V3.547h1.234V1.469Z" fill="#12263f"/>
          <path id="Trazado_215700" data-name="Trazado 215700" d="M518.693,12.156a4.152,4.152,0,0,1-3.028-1.14A4.055,4.055,0,0,1,514.5,7.977V7.758a5.1,5.1,0,0,1,.493-2.277,3.616,3.616,0,0,1,1.394-1.547,3.9,3.9,0,0,1,2.059-.543,3.507,3.507,0,0,1,2.73,1.093,4.446,4.446,0,0,1,1,3.1v.922h-5.382a2.093,2.093,0,0,0,.66,1.328,2,2,0,0,0,1.394.5,2.439,2.439,0,0,0,2.039-.945l1.11,1.242a3.4,3.4,0,0,1-1.375,1.121,4.5,4.5,0,0,1-1.922.4m-.258-6.945a1.408,1.408,0,0,0-1.09.455,2.356,2.356,0,0,0-.535,1.3h3.141V6.788a1.686,1.686,0,0,0-.407-1.165,1.457,1.457,0,0,0-1.109-.412" fill="#12263f"/>
          <path id="Trazado_215701" data-name="Trazado 215701" d="M528.028,9.664a.728.728,0,0,0-.41-.652,4.634,4.634,0,0,0-1.317-.426q-3.015-.633-3.015-2.563a2.321,2.321,0,0,1,.933-1.879,3.769,3.769,0,0,1,2.442-.753,4.057,4.057,0,0,1,2.574.757,2.39,2.39,0,0,1,.965,1.969h-2.258a1.094,1.094,0,0,0-.312-.8A1.325,1.325,0,0,0,526.653,5a1.349,1.349,0,0,0-.883.258.811.811,0,0,0-.312.656.694.694,0,0,0,.355.605,3.641,3.641,0,0,0,1.2.4,9.72,9.72,0,0,1,1.422.379,2.335,2.335,0,0,1,1.789,2.273,2.2,2.2,0,0,1-.992,1.871,4.276,4.276,0,0,1-2.562.715,4.462,4.462,0,0,1-1.887-.379,3.155,3.155,0,0,1-1.293-1.039,2.41,2.41,0,0,1-.469-1.426h2.141a1.176,1.176,0,0,0,.445.922,1.765,1.765,0,0,0,1.11.321,1.638,1.638,0,0,0,.98-.246.768.768,0,0,0,.332-.645" fill="#12263f"/>
        </g>
      </g>
      <path id="Trazado_215702" data-name="Trazado 215702" d="M174.817,57h-1.453V47.367l-2.914,1.07V47.125l4.14-1.555h.227Z" fill="#12263f"/>
      <g id="Grupo_154159" data-name="Grupo 154159">
        <g id="Grupo_154158" data-name="Grupo 154158" clip-path="url(#clip-path)">
          <path id="Trazado_215703" data-name="Trazado 215703" d="M179.716,51.3l.578-5.672h5.828v1.336h-4.6l-.344,3.1a3.668,3.668,0,0,1,1.9-.493,3.138,3.138,0,0,1,2.469,1.028,4.025,4.025,0,0,1,.914,2.777,3.887,3.887,0,0,1-.949,2.77,3.463,3.463,0,0,1-2.652,1.011,3.588,3.588,0,0,1-2.461-.836,3.331,3.331,0,0,1-1.086-2.312h1.367a2.294,2.294,0,0,0,.695,1.473,2.16,2.16,0,0,0,1.485.5,1.952,1.952,0,0,0,1.582-.688,2.877,2.877,0,0,0,.574-1.9,2.637,2.637,0,0,0-.621-1.832,2.113,2.113,0,0,0-1.653-.692,2.381,2.381,0,0,0-1.484.414l-.383.313Z" fill="#12263f"/>
        </g>
      </g>
      <path id="Trazado_215704" data-name="Trazado 215704" d="M174.817,90h-1.453V80.367l-2.914,1.07V80.125l4.14-1.555h.227Z" fill="#12263f"/>
      <g id="Grupo_154161" data-name="Grupo 154161">
        <g id="Grupo_154160" data-name="Grupo 154160" clip-path="url(#clip-path)">
          <path id="Trazado_215705" data-name="Trazado 215705" d="M186.184,85.149a6.611,6.611,0,0,1-.867,3.773,3.6,3.6,0,0,1-5.406.027,6.259,6.259,0,0,1-.906-3.6v-1.93a6.461,6.461,0,0,1,.867-3.726,3.668,3.668,0,0,1,5.422-.043,6.233,6.233,0,0,1,.89,3.629Zm-1.445-1.977a5.294,5.294,0,0,0-.516-2.676,1.775,1.775,0,0,0-1.632-.84,1.751,1.751,0,0,0-1.618.836,5.176,5.176,0,0,0-.523,2.571v2.312a5.378,5.378,0,0,0,.535,2.723,1.771,1.771,0,0,0,1.621.879,1.751,1.751,0,0,0,1.59-.828,5.2,5.2,0,0,0,.543-2.61Z" fill="#12263f"/>
        </g>
      </g>
      <path id="Trazado_215706" data-name="Trazado 215706" d="M250.817,207h-1.453v-9.633l-2.914,1.07v-1.312l4.14-1.555h.227Z" fill="#12263f"/>
      <g id="Grupo_154163" data-name="Grupo 154163">
        <g id="Grupo_154162" data-name="Grupo 154162" clip-path="url(#clip-path)">
          <path id="Trazado_215707" data-name="Trazado 215707" d="M262.505,207h-7.453v-1.039l3.937-4.375a9.34,9.34,0,0,0,1.207-1.613,2.7,2.7,0,0,0,.332-1.286,2.035,2.035,0,0,0-.539-1.46,1.884,1.884,0,0,0-1.437-.571,2.229,2.229,0,0,0-1.676.614,2.343,2.343,0,0,0-.6,1.707h-1.445a3.355,3.355,0,0,1,1.012-2.54,3.752,3.752,0,0,1,2.707-.968,3.606,3.606,0,0,1,2.508.832,2.839,2.839,0,0,1,.922,2.215q0,1.68-2.141,4l-3.047,3.3h5.711Z" fill="#12263f"/>
        </g>
      </g>
      <path id="Trazado_215708" data-name="Trazado 215708" d="M496.817,207h-1.453v-9.633l-2.914,1.07v-1.312l4.14-1.555h.227Z" fill="#12263f"/>
      <path id="Trazado_215709" data-name="Trazado 215709" d="M505.8,207h-1.453v-9.633l-2.914,1.07v-1.312l4.14-1.555h.227Z" fill="#12263f"/>
      <g id="Grupo_154165" data-name="Grupo 154165">
        <g id="Grupo_154164" data-name="Grupo 154164" clip-path="url(#clip-path)">
          <path id="Trazado_215710" data-name="Trazado 215710" d="M624.458,198.593a2.644,2.644,0,0,1-.45,1.516,3.043,3.043,0,0,1-1.216,1.039,3.262,3.262,0,0,1,1.411,1.117,2.813,2.813,0,0,1,.519,1.664,2.971,2.971,0,0,1-.995,2.352,4.367,4.367,0,0,1-5.25,0,2.985,2.985,0,0,1-.988-2.348,2.9,2.9,0,0,1,.5-1.664,3.131,3.131,0,0,1,1.394-1.125,2.978,2.978,0,0,1-1.194-1.039,2.683,2.683,0,0,1-.439-1.508,2.947,2.947,0,0,1,.922-2.281,3.918,3.918,0,0,1,4.856,0,2.936,2.936,0,0,1,.927,2.281m-1.18,5.3a2.1,2.1,0,0,0-.606-1.555,2.147,2.147,0,0,0-1.583-.6,2.034,2.034,0,0,0-2.156,2.156,2.02,2.02,0,0,0,.575,1.524,2.569,2.569,0,0,0,3.192,0,2.02,2.02,0,0,0,.578-1.52m-2.172-7.242a1.867,1.867,0,0,0-1.379.527,2.184,2.184,0,0,0-.008,2.836,2.064,2.064,0,0,0,2.773,0,2.138,2.138,0,0,0-.02-2.816,1.835,1.835,0,0,0-1.366-.547" fill="#12263f"/>
          <path id="Trazado_215711" data-name="Trazado 215711" d="M381.1,202a3.547,3.547,0,0,1-1.082.867,2.932,2.932,0,0,1-1.379.328,3.029,3.029,0,0,1-1.715-.484,3.144,3.144,0,0,1-1.129-1.363,4.646,4.646,0,0,1-.4-1.942,4.733,4.733,0,0,1,.434-2.054,3.18,3.18,0,0,1,1.231-1.4,3.507,3.507,0,0,1,1.859-.484,3.178,3.178,0,0,1,2.66,1.261,5.508,5.508,0,0,1,.973,3.442v.422q0,3.321-1.313,4.847a5.043,5.043,0,0,1-3.961,1.567H377v-1.227h.3A3.441,3.441,0,0,0,381.1,202m-2.227,0a2.23,2.23,0,0,0,1.34-.445,2.618,2.618,0,0,0,.894-1.1v-.578a3.97,3.97,0,0,0-.617-2.312,1.839,1.839,0,0,0-1.562-.891,1.858,1.858,0,0,0-1.532.73,3.024,3.024,0,0,0-.578,1.926,3.14,3.14,0,0,0,.559,1.918,1.768,1.768,0,0,0,1.5.754" fill="#12263f"/>
          <path id="Trazado_215712" data-name="Trazado 215712" d="M175.223,113.3l.578-5.672h5.828v1.336h-4.6l-.344,3.1a3.673,3.673,0,0,1,1.9-.493,3.138,3.138,0,0,1,2.469,1.028,4.025,4.025,0,0,1,.914,2.777,3.887,3.887,0,0,1-.949,2.77,3.461,3.461,0,0,1-2.652,1.011,3.592,3.592,0,0,1-2.461-.836,3.339,3.339,0,0,1-1.086-2.312h1.367a2.3,2.3,0,0,0,.695,1.473,2.162,2.162,0,0,0,1.485.5,1.952,1.952,0,0,0,1.582-.688,2.877,2.877,0,0,0,.574-1.9,2.637,2.637,0,0,0-.621-1.832,2.113,2.113,0,0,0-1.653-.692,2.383,2.383,0,0,0-1.484.414l-.383.313Z" fill="#12263f"/>
          <path id="Trazado_215713" data-name="Trazado 215713" d="M181.691,147.149a6.612,6.612,0,0,1-.867,3.773,3.6,3.6,0,0,1-5.406.027,6.275,6.275,0,0,1-.906-3.605v-1.93a6.461,6.461,0,0,1,.867-3.726,3.668,3.668,0,0,1,5.422-.043,6.233,6.233,0,0,1,.89,3.629Zm-1.445-1.977a5.293,5.293,0,0,0-.516-2.676,1.774,1.774,0,0,0-1.632-.84,1.753,1.753,0,0,0-1.618.836,5.187,5.187,0,0,0-.523,2.571v2.312a5.389,5.389,0,0,0,.535,2.723,1.774,1.774,0,0,0,1.621.879,1.749,1.749,0,0,0,1.59-.828,5.184,5.184,0,0,0,.543-2.61Z" fill="#12263f"/>
        </g>
      </g>
      <path id="Trazado_215714" data-name="Trazado 215714" d="M229.047,174.773h5.391V176h-6.9V164.625h1.508Z" fill="#12263f"/>
      <g id="Grupo_154167" data-name="Grupo 154167">
        <g id="Grupo_154166" data-name="Grupo 154166" clip-path="url(#clip-path)">
          <path id="Trazado_215715" data-name="Trazado 215715" d="M241.14,176a3.019,3.019,0,0,1-.2-.891,3.225,3.225,0,0,1-2.406,1.047,2.984,2.984,0,0,1-2.051-.707,2.29,2.29,0,0,1-.8-1.793,2.389,2.389,0,0,1,1-2.051,4.734,4.734,0,0,1,2.825-.73h1.406v-.664a1.627,1.627,0,0,0-.453-1.208,1.825,1.825,0,0,0-1.336-.449,2.1,2.1,0,0,0-1.3.391,1.148,1.148,0,0,0-.523.945h-1.454a1.99,1.99,0,0,1,.45-1.222,3.046,3.046,0,0,1,1.218-.934,4.088,4.088,0,0,1,1.692-.344,3.34,3.34,0,0,1,2.289.731,2.634,2.634,0,0,1,.859,2.011v3.891a4.756,4.756,0,0,0,.3,1.852V176Zm-2.4-1.1a2.534,2.534,0,0,0,1.289-.352,2.13,2.13,0,0,0,.883-.914V171.9h-1.133q-2.657,0-2.656,1.555a1.312,1.312,0,0,0,.453,1.062,1.741,1.741,0,0,0,1.164.383" fill="#12263f"/>
          <path id="Trazado_215716" data-name="Trazado 215716" d="M249.547,173.758a1.063,1.063,0,0,0-.441-.91,4.275,4.275,0,0,0-1.539-.559,7.251,7.251,0,0,1-1.743-.562,2.482,2.482,0,0,1-.953-.782,1.863,1.863,0,0,1-.308-1.078,2.192,2.192,0,0,1,.879-1.757,3.425,3.425,0,0,1,2.246-.719,3.533,3.533,0,0,1,2.332.742,2.361,2.361,0,0,1,.894,1.9h-1.453a1.3,1.3,0,0,0-.5-1.023,1.892,1.892,0,0,0-1.269-.43,1.977,1.977,0,0,0-1.235.344,1.081,1.081,0,0,0-.445.9.878.878,0,0,0,.414.79,5.1,5.1,0,0,0,1.5.507,7.881,7.881,0,0,1,1.754.578,2.573,2.573,0,0,1,1,.809,1.99,1.99,0,0,1,.324,1.152,2.165,2.165,0,0,1-.906,1.817,3.8,3.8,0,0,1-2.351.683,4.261,4.261,0,0,1-1.8-.359,2.908,2.908,0,0,1-1.223-1,2.413,2.413,0,0,1-.441-1.394h1.445a1.493,1.493,0,0,0,.582,1.152,2.256,2.256,0,0,0,1.434.426,2.335,2.335,0,0,0,1.316-.332,1.023,1.023,0,0,0,.5-.887" fill="#12263f"/>
          <path id="Trazado_215717" data-name="Trazado 215717" d="M258.093,176a3.019,3.019,0,0,1-.2-.891,3.225,3.225,0,0,1-2.406,1.047,2.984,2.984,0,0,1-2.051-.707,2.29,2.29,0,0,1-.8-1.793,2.389,2.389,0,0,1,1-2.051,4.734,4.734,0,0,1,2.825-.73h1.406v-.664a1.627,1.627,0,0,0-.453-1.208,1.825,1.825,0,0,0-1.336-.449,2.1,2.1,0,0,0-1.3.391,1.148,1.148,0,0,0-.523.945H252.8a1.99,1.99,0,0,1,.45-1.222,3.046,3.046,0,0,1,1.218-.934,4.088,4.088,0,0,1,1.692-.344,3.34,3.34,0,0,1,2.289.731,2.634,2.634,0,0,1,.859,2.011v3.891a4.756,4.756,0,0,0,.3,1.852V176Zm-2.4-1.1a2.534,2.534,0,0,0,1.289-.352,2.13,2.13,0,0,0,.883-.914V171.9h-1.133q-2.657,0-2.656,1.555a1.312,1.312,0,0,0,.453,1.062,1.741,1.741,0,0,0,1.164.383" fill="#12263f"/>
          <path id="Trazado_215718" data-name="Trazado 215718" d="M261.234,171.7a4.974,4.974,0,0,1,.914-3.145,3.151,3.151,0,0,1,4.836-.074l.07-.937h1.32v8.25a3.441,3.441,0,0,1-.972,2.586,3.592,3.592,0,0,1-2.613.945,4.343,4.343,0,0,1-1.79-.391,3.068,3.068,0,0,1-1.335-1.07l.75-.867a2.826,2.826,0,0,0,2.274,1.148,2.216,2.216,0,0,0,1.644-.594,2.272,2.272,0,0,0,.589-1.671v-.727a2.969,2.969,0,0,1-2.367,1,2.884,2.884,0,0,1-2.4-1.2,5.224,5.224,0,0,1-.918-3.258m1.454.164a3.787,3.787,0,0,0,.585,2.246,1.905,1.905,0,0,0,1.641.817,2.117,2.117,0,0,0,2.007-1.243v-3.859a2.141,2.141,0,0,0-1.992-1.211,1.919,1.919,0,0,0-1.648.82,4.121,4.121,0,0,0-.593,2.43" fill="#12263f"/>
          <path id="Trazado_215719" data-name="Trazado 215719" d="M271.922,167.547l.047,1.062a3.079,3.079,0,0,1,2.531-1.218q2.679,0,2.7,3.023V176h-1.445v-5.594a1.952,1.952,0,0,0-.418-1.351,1.673,1.673,0,0,0-1.277-.438,2.087,2.087,0,0,0-1.235.375,2.536,2.536,0,0,0-.828.985V176h-1.445v-8.453Z" fill="#12263f"/>
          <path id="Trazado_215720" data-name="Trazado 215720" d="M284.6,176a3.019,3.019,0,0,1-.2-.891,3.225,3.225,0,0,1-2.406,1.047,2.983,2.983,0,0,1-2.051-.707,2.29,2.29,0,0,1-.8-1.793,2.389,2.389,0,0,1,1-2.051,4.734,4.734,0,0,1,2.825-.73h1.406v-.664a1.627,1.627,0,0,0-.453-1.208,1.825,1.825,0,0,0-1.336-.449,2.1,2.1,0,0,0-1.3.391,1.148,1.148,0,0,0-.523.945h-1.454a1.99,1.99,0,0,1,.45-1.222,3.046,3.046,0,0,1,1.218-.934,4.088,4.088,0,0,1,1.692-.344,3.34,3.34,0,0,1,2.289.731,2.634,2.634,0,0,1,.859,2.011v3.891a4.756,4.756,0,0,0,.3,1.852V176Zm-2.4-1.1a2.534,2.534,0,0,0,1.289-.352,2.13,2.13,0,0,0,.883-.914V171.9h-1.133q-2.656,0-2.656,1.555a1.312,1.312,0,0,0,.453,1.062,1.741,1.741,0,0,0,1.164.383" fill="#12263f"/>
          <path id="Trazado_215721" data-name="Trazado 215721" d="M120.926,201.547V206h-1.5V194.625h4.195a4.213,4.213,0,0,1,2.926.953,3.23,3.23,0,0,1,1.059,2.523,3.189,3.189,0,0,1-1.035,2.551,4.4,4.4,0,0,1-2.965.9Zm0-1.227h2.695a2.7,2.7,0,0,0,1.844-.567,2.075,2.075,0,0,0,.641-1.64,2.145,2.145,0,0,0-.641-1.628,2.526,2.526,0,0,0-1.758-.634h-2.781Z" fill="#12263f"/>
          <rect id="Rectángulo_44434" data-name="Rectángulo 44434" width="1.445" height="12" transform="translate(129.418 194)" fill="#12263f"/>
          <path id="Trazado_215722" data-name="Trazado 215722" d="M138.394,206a3.053,3.053,0,0,1-.2-.891,3.223,3.223,0,0,1-2.406,1.047,2.987,2.987,0,0,1-2.051-.707,2.29,2.29,0,0,1-.8-1.793,2.391,2.391,0,0,1,1-2.051,4.734,4.734,0,0,1,2.825-.73h1.406v-.664a1.627,1.627,0,0,0-.453-1.208,1.822,1.822,0,0,0-1.336-.449,2.1,2.1,0,0,0-1.3.391,1.15,1.15,0,0,0-.523.945H133.1a1.99,1.99,0,0,1,.45-1.222,3.06,3.06,0,0,1,1.218-.934,4.088,4.088,0,0,1,1.692-.344,3.338,3.338,0,0,1,2.289.731,2.631,2.631,0,0,1,.859,2.011v3.891a4.756,4.756,0,0,0,.3,1.852V206Zm-2.4-1.1a2.534,2.534,0,0,0,1.289-.352,2.13,2.13,0,0,0,.883-.914V201.9h-1.133q-2.655,0-2.656,1.555a1.315,1.315,0,0,0,.453,1.062A1.742,1.742,0,0,0,136,204.9" fill="#12263f"/>
          <path id="Trazado_215723" data-name="Trazado 215723" d="M143.84,195.5v2.047h1.578v1.117H143.84v5.249a1.173,1.173,0,0,0,.211.763.89.89,0,0,0,.719.254,3.538,3.538,0,0,0,.687-.094V206a4.234,4.234,0,0,1-1.109.155,1.8,1.8,0,0,1-1.461-.586,2.516,2.516,0,0,1-.492-1.664v-5.242h-1.539v-1.117H142.4V195.5Z" fill="#12263f"/>
          <path id="Trazado_215724" data-name="Trazado 215724" d="M146.566,201.7a5,5,0,0,1,.488-2.234,3.64,3.64,0,0,1,1.36-1.532,3.7,3.7,0,0,1,1.988-.539,3.565,3.565,0,0,1,2.793,1.2,4.6,4.6,0,0,1,1.066,3.179v.1a5.036,5.036,0,0,1-.472,2.215,3.6,3.6,0,0,1-1.351,1.527,3.754,3.754,0,0,1-2.021.547,3.556,3.556,0,0,1-2.785-1.2,4.576,4.576,0,0,1-1.066-3.164Zm1.454.172a3.624,3.624,0,0,0,.651,2.258,2.211,2.211,0,0,0,3.5-.012,3.95,3.95,0,0,0,.649-2.418,3.61,3.61,0,0,0-.66-2.254,2.1,2.1,0,0,0-1.754-.863,2.078,2.078,0,0,0-1.727.851,3.929,3.929,0,0,0-.655,2.438" fill="#12263f"/>
          <path id="Trazado_215725" data-name="Trazado 215725" d="M161,203.758a1.063,1.063,0,0,0-.441-.91,4.268,4.268,0,0,0-1.539-.559,7.266,7.266,0,0,1-1.743-.562,2.49,2.49,0,0,1-.953-.782,1.863,1.863,0,0,1-.308-1.078,2.192,2.192,0,0,1,.879-1.757,3.425,3.425,0,0,1,2.246-.719,3.533,3.533,0,0,1,2.332.742,2.358,2.358,0,0,1,.894,1.9H160.91a1.3,1.3,0,0,0-.5-1.023,1.89,1.89,0,0,0-1.269-.43,1.977,1.977,0,0,0-1.235.344,1.081,1.081,0,0,0-.445.9.878.878,0,0,0,.414.79,5.11,5.11,0,0,0,1.5.507,7.863,7.863,0,0,1,1.754.578,2.558,2.558,0,0,1,1,.809,1.99,1.99,0,0,1,.324,1.152,2.163,2.163,0,0,1-.906,1.817,3.8,3.8,0,0,1-2.351.683,4.264,4.264,0,0,1-1.8-.359,2.914,2.914,0,0,1-1.223-1,2.42,2.42,0,0,1-.441-1.394h1.445a1.5,1.5,0,0,0,.582,1.152,2.258,2.258,0,0,0,1.434.426,2.335,2.335,0,0,0,1.316-.332,1.021,1.021,0,0,0,.5-.887" fill="#12263f"/>
          <path id="Trazado_215726" data-name="Trazado 215726" d="M471.348,171.547V176h-1.5V164.625h4.2a4.213,4.213,0,0,1,2.926.953,3.23,3.23,0,0,1,1.059,2.523,3.189,3.189,0,0,1-1.035,2.551,4.4,4.4,0,0,1-2.965.9Zm0-1.227h2.7a2.7,2.7,0,0,0,1.844-.567,2.075,2.075,0,0,0,.641-1.64,2.145,2.145,0,0,0-.641-1.628,2.526,2.526,0,0,0-1.758-.634h-2.781Z" fill="#12263f"/>
          <path id="Trazado_215727" data-name="Trazado 215727" d="M483.121,176.156a3.692,3.692,0,0,1-2.8-1.129,4.189,4.189,0,0,1-1.078-3.019v-.266a5.075,5.075,0,0,1,.48-2.246,3.747,3.747,0,0,1,1.344-1.547,3.379,3.379,0,0,1,1.871-.558,3.17,3.17,0,0,1,2.563,1.085,4.706,4.706,0,0,1,.914,3.11v.6h-5.727a3.013,3.013,0,0,0,.73,2.02,2.3,2.3,0,0,0,1.778.769,2.522,2.522,0,0,0,1.3-.312,3.241,3.241,0,0,0,.929-.828l.883.687a3.547,3.547,0,0,1-3.187,1.633m-.18-7.578a1.928,1.928,0,0,0-1.469.637,3.1,3.1,0,0,0-.734,1.785h4.234v-.109a2.752,2.752,0,0,0-.594-1.708,1.816,1.816,0,0,0-1.437-.6" fill="#12263f"/>
          <path id="Trazado_215728" data-name="Trazado 215728" d="M491.48,174.977a2.081,2.081,0,0,0,1.352-.469,1.65,1.65,0,0,0,.64-1.172h1.367a2.612,2.612,0,0,1-.5,1.383,3.29,3.29,0,0,1-1.23,1.047,3.544,3.544,0,0,1-1.629.391A3.481,3.481,0,0,1,488.734,175a4.587,4.587,0,0,1-1.02-3.152v-.242a5.1,5.1,0,0,1,.453-2.2,3.457,3.457,0,0,1,1.3-1.493,3.7,3.7,0,0,1,2-.531,3.387,3.387,0,0,1,2.363.852,3.041,3.041,0,0,1,1,2.211h-1.367a1.994,1.994,0,0,0-.621-1.348,1.929,1.929,0,0,0-1.379-.527,2.022,2.022,0,0,0-1.707.793,3.726,3.726,0,0,0-.605,2.292v.274a3.65,3.65,0,0,0,.6,2.25,2.034,2.034,0,0,0,1.719.789" fill="#12263f"/>
          <path id="Trazado_215729" data-name="Trazado 215729" d="M497.91,168.57a3.075,3.075,0,0,1,2.5-1.18q2.679,0,2.7,3.024V176h-1.445v-5.594a1.95,1.95,0,0,0-.418-1.352,1.674,1.674,0,0,0-1.277-.437,2.089,2.089,0,0,0-1.235.375,2.549,2.549,0,0,0-.828.984V176h-1.445V164h1.445Z" fill="#12263f"/>
          <path id="Trazado_215730" data-name="Trazado 215730" d="M510.5,175.164a3.071,3.071,0,0,1-2.477.992,2.629,2.629,0,0,1-2.058-.785,3.393,3.393,0,0,1-.715-2.324v-5.5h1.445v5.461q0,1.922,1.563,1.922a2.163,2.163,0,0,0,2.2-1.235v-6.148H511.9V176h-1.375Z" fill="#12263f"/>
          <path id="Trazado_215731" data-name="Trazado 215731" d="M513.754,171.7a4.974,4.974,0,0,1,.914-3.145,3.151,3.151,0,0,1,4.836-.074l.07-.937h1.32v8.25a3.441,3.441,0,0,1-.972,2.586,3.591,3.591,0,0,1-2.613.945,4.343,4.343,0,0,1-1.79-.391,3.074,3.074,0,0,1-1.335-1.07l.75-.867a2.827,2.827,0,0,0,2.273,1.148,2.216,2.216,0,0,0,1.645-.594,2.268,2.268,0,0,0,.589-1.671v-.727a2.969,2.969,0,0,1-2.367,1,2.887,2.887,0,0,1-2.4-1.2,5.224,5.224,0,0,1-.918-3.258m1.453.164a3.786,3.786,0,0,0,.586,2.246,1.9,1.9,0,0,0,1.641.817,2.116,2.116,0,0,0,2.007-1.243v-3.859a2.139,2.139,0,0,0-1.992-1.211,1.919,1.919,0,0,0-1.648.82,4.128,4.128,0,0,0-.594,2.43" fill="#12263f"/>
          <path id="Trazado_215732" data-name="Trazado 215732" d="M528.292,176a3.052,3.052,0,0,1-.2-.891,3.223,3.223,0,0,1-2.406,1.047,2.987,2.987,0,0,1-2.051-.707,2.29,2.29,0,0,1-.8-1.793,2.391,2.391,0,0,1,1-2.051,4.734,4.734,0,0,1,2.825-.73h1.406v-.664a1.627,1.627,0,0,0-.453-1.208,1.822,1.822,0,0,0-1.336-.449,2.1,2.1,0,0,0-1.3.391,1.15,1.15,0,0,0-.523.945H523a1.99,1.99,0,0,1,.45-1.222,3.06,3.06,0,0,1,1.218-.934,4.088,4.088,0,0,1,1.692-.344,3.338,3.338,0,0,1,2.289.731,2.631,2.631,0,0,1,.859,2.011v3.891a4.756,4.756,0,0,0,.3,1.852V176Zm-2.4-1.1a2.534,2.534,0,0,0,1.289-.352,2.13,2.13,0,0,0,.883-.914V171.9h-1.133q-2.655,0-2.656,1.555a1.315,1.315,0,0,0,.453,1.062,1.742,1.742,0,0,0,1.164.383" fill="#12263f"/>
        </g>
      </g>
      <path id="Trazado_215733" data-name="Trazado 215733" d="M347.027,170.742H342.1v4.031h5.727V176H340.6V164.625h7.149v1.226H342.1v3.664h4.93Z" fill="#12263f"/>
      <g id="Grupo_154169" data-name="Grupo 154169">
        <g id="Grupo_154168" data-name="Grupo 154168" clip-path="url(#clip-path)">
          <path id="Trazado_215734" data-name="Trazado 215734" d="M354.387,173.758a1.063,1.063,0,0,0-.441-.91,4.268,4.268,0,0,0-1.539-.559,7.266,7.266,0,0,1-1.743-.562,2.49,2.49,0,0,1-.953-.782,1.863,1.863,0,0,1-.308-1.078,2.192,2.192,0,0,1,.879-1.757,3.425,3.425,0,0,1,2.246-.719,3.533,3.533,0,0,1,2.332.742,2.358,2.358,0,0,1,.894,1.9H354.3a1.3,1.3,0,0,0-.5-1.023,1.89,1.89,0,0,0-1.269-.43,1.977,1.977,0,0,0-1.235.344,1.081,1.081,0,0,0-.445.9.878.878,0,0,0,.414.79,5.11,5.11,0,0,0,1.5.507,7.863,7.863,0,0,1,1.754.578,2.558,2.558,0,0,1,1,.809,1.99,1.99,0,0,1,.324,1.152,2.163,2.163,0,0,1-.906,1.817,3.8,3.8,0,0,1-2.351.683,4.264,4.264,0,0,1-1.8-.359,2.914,2.914,0,0,1-1.223-1,2.42,2.42,0,0,1-.441-1.394h1.445a1.5,1.5,0,0,0,.582,1.152,2.258,2.258,0,0,0,1.434.426,2.335,2.335,0,0,0,1.316-.332,1.021,1.021,0,0,0,.5-.887" fill="#12263f"/>
          <path id="Trazado_215735" data-name="Trazado 215735" d="M364.855,171.867a5.057,5.057,0,0,1-.883,3.109,2.827,2.827,0,0,1-2.39,1.18,3.1,3.1,0,0,1-2.422-.976v4.07h-1.445v-11.7h1.32l.07.937a2.979,2.979,0,0,1,2.453-1.093,2.882,2.882,0,0,1,2.411,1.148,5.125,5.125,0,0,1,.886,3.195Zm-1.445-.164a3.737,3.737,0,0,0-.609-2.258,1.965,1.965,0,0,0-1.672-.828,2.124,2.124,0,0,0-1.969,1.164v4.039a2.129,2.129,0,0,0,1.984,1.156,1.953,1.953,0,0,0,1.653-.824,4.077,4.077,0,0,0,.613-2.449" fill="#12263f"/>
          <path id="Trazado_215736" data-name="Trazado 215736" d="M371.91,176a3.052,3.052,0,0,1-.2-.891,3.223,3.223,0,0,1-2.406,1.047,2.987,2.987,0,0,1-2.051-.707,2.29,2.29,0,0,1-.8-1.793,2.391,2.391,0,0,1,1-2.051,4.734,4.734,0,0,1,2.825-.73h1.406v-.664a1.627,1.627,0,0,0-.453-1.208,1.822,1.822,0,0,0-1.336-.449,2.1,2.1,0,0,0-1.3.391,1.15,1.15,0,0,0-.523.945h-1.454a1.99,1.99,0,0,1,.45-1.222,3.06,3.06,0,0,1,1.218-.934,4.088,4.088,0,0,1,1.692-.344,3.338,3.338,0,0,1,2.289.731,2.631,2.631,0,0,1,.859,2.011v3.891a4.756,4.756,0,0,0,.3,1.852V176Zm-2.4-1.1a2.534,2.534,0,0,0,1.289-.352,2.13,2.13,0,0,0,.883-.914V171.9h-1.133q-2.655,0-2.656,1.555a1.315,1.315,0,0,0,.453,1.062,1.742,1.742,0,0,0,1.164.383" fill="#12263f"/>
          <path id="Trazado_215737" data-name="Trazado 215737" d="M375.051,171.7a4.974,4.974,0,0,1,.914-3.145,3.151,3.151,0,0,1,4.836-.074l.07-.937h1.32v8.25a3.441,3.441,0,0,1-.972,2.586,3.591,3.591,0,0,1-2.613.945,4.343,4.343,0,0,1-1.79-.391,3.074,3.074,0,0,1-1.335-1.07l.75-.867a2.827,2.827,0,0,0,2.273,1.148,2.216,2.216,0,0,0,1.645-.594,2.268,2.268,0,0,0,.589-1.671v-.727a2.969,2.969,0,0,1-2.367,1,2.887,2.887,0,0,1-2.4-1.2,5.224,5.224,0,0,1-.918-3.258m1.453.164a3.787,3.787,0,0,0,.586,2.246,1.905,1.905,0,0,0,1.641.817,2.116,2.116,0,0,0,2.007-1.243v-3.859a2.139,2.139,0,0,0-1.992-1.211,1.919,1.919,0,0,0-1.648.82,4.128,4.128,0,0,0-.594,2.43" fill="#12263f"/>
          <path id="Trazado_215738" data-name="Trazado 215738" d="M389.59,175.164a3.071,3.071,0,0,1-2.477.992,2.629,2.629,0,0,1-2.058-.785,3.393,3.393,0,0,1-.715-2.324v-5.5h1.445v5.461q0,1.922,1.563,1.922a2.163,2.163,0,0,0,2.2-1.235v-6.148H391V176h-1.375Z" fill="#12263f"/>
          <path id="Trazado_215739" data-name="Trazado 215739" d="M396.7,176.156a3.692,3.692,0,0,1-2.8-1.129,4.189,4.189,0,0,1-1.078-3.019v-.266a5.076,5.076,0,0,1,.48-2.246,3.747,3.747,0,0,1,1.344-1.547,3.38,3.38,0,0,1,1.872-.558,3.169,3.169,0,0,1,2.562,1.085,4.706,4.706,0,0,1,.914,3.11v.6H394.27a3.007,3.007,0,0,0,.729,2.02,2.3,2.3,0,0,0,1.778.769,2.522,2.522,0,0,0,1.3-.312,3.241,3.241,0,0,0,.929-.828l.883.687a3.547,3.547,0,0,1-3.187,1.633m-.179-7.578a1.928,1.928,0,0,0-1.47.637,3.1,3.1,0,0,0-.734,1.785h4.234v-.109a2.752,2.752,0,0,0-.594-1.708,1.815,1.815,0,0,0-1.436-.6" fill="#12263f"/>
          <path id="Trazado_215740" data-name="Trazado 215740" d="M403.629,165.5v2.047h1.578v1.117h-1.578v5.249a1.173,1.173,0,0,0,.211.763.89.89,0,0,0,.719.254,3.538,3.538,0,0,0,.687-.094V176a4.234,4.234,0,0,1-1.109.155,1.8,1.8,0,0,1-1.461-.586,2.516,2.516,0,0,1-.492-1.664v-5.242h-1.539v-1.117h1.539V165.5Z" fill="#12263f"/>
          <path id="Trazado_215741" data-name="Trazado 215741" d="M406.9,165.3a.863.863,0,0,1,.215-.594.81.81,0,0,1,.637-.242.822.822,0,0,1,.641.242.856.856,0,0,1,.218.594.856.856,0,1,1-1.711,0m1.563,10.7H407.02v-8.453h1.445Z" fill="#12263f"/>
          <path id="Trazado_215742" data-name="Trazado 215742" d="M415.7,173.758a1.063,1.063,0,0,0-.441-.91,4.268,4.268,0,0,0-1.539-.559,7.266,7.266,0,0,1-1.743-.562,2.49,2.49,0,0,1-.953-.782,1.863,1.863,0,0,1-.308-1.078,2.192,2.192,0,0,1,.879-1.757,3.425,3.425,0,0,1,2.246-.719,3.533,3.533,0,0,1,2.332.742,2.358,2.358,0,0,1,.894,1.9h-1.453a1.3,1.3,0,0,0-.5-1.023,1.89,1.89,0,0,0-1.269-.43,1.977,1.977,0,0,0-1.235.344,1.081,1.081,0,0,0-.445.9.878.878,0,0,0,.414.79,5.11,5.11,0,0,0,1.5.507,7.863,7.863,0,0,1,1.754.578,2.558,2.558,0,0,1,1,.809,1.99,1.99,0,0,1,.324,1.152,2.163,2.163,0,0,1-.906,1.817,3.8,3.8,0,0,1-2.351.683,4.264,4.264,0,0,1-1.8-.359,2.914,2.914,0,0,1-1.223-1,2.42,2.42,0,0,1-.441-1.394h1.445a1.5,1.5,0,0,0,.582,1.152,2.258,2.258,0,0,0,1.434.426,2.335,2.335,0,0,0,1.316-.332,1.021,1.021,0,0,0,.5-.887" fill="#12263f"/>
        </g>
      </g>
      <path id="Trazado_215743" data-name="Trazado 215743" d="M591.637,170.742h-4.93v4.031h5.727V176h-7.227V164.625h7.149v1.226h-5.649v3.664h4.93Z" fill="#12263f"/>
      <g id="Grupo_154171" data-name="Grupo 154171">
        <g id="Grupo_154170" data-name="Grupo 154170" clip-path="url(#clip-path)">
          <path id="Trazado_215744" data-name="Trazado 215744" d="M595.441,167.547l.047,1.062a3.079,3.079,0,0,1,2.531-1.218q2.679,0,2.7,3.023V176h-1.445v-5.594a1.952,1.952,0,0,0-.418-1.351,1.673,1.673,0,0,0-1.277-.438,2.087,2.087,0,0,0-1.235.375,2.536,2.536,0,0,0-.828.985V176h-1.445v-8.453Z" fill="#12263f"/>
          <path id="Trazado_215745" data-name="Trazado 215745" d="M607.824,173.758a1.063,1.063,0,0,0-.441-.91,4.275,4.275,0,0,0-1.539-.559,7.251,7.251,0,0,1-1.743-.562,2.482,2.482,0,0,1-.953-.782,1.863,1.863,0,0,1-.308-1.078,2.192,2.192,0,0,1,.879-1.757,3.425,3.425,0,0,1,2.246-.719,3.533,3.533,0,0,1,2.332.742,2.361,2.361,0,0,1,.894,1.9h-1.453a1.3,1.3,0,0,0-.5-1.023,1.892,1.892,0,0,0-1.269-.43,1.977,1.977,0,0,0-1.235.344,1.081,1.081,0,0,0-.445.9.878.878,0,0,0,.414.79,5.1,5.1,0,0,0,1.5.507,7.88,7.88,0,0,1,1.754.578,2.573,2.573,0,0,1,1,.809,1.99,1.99,0,0,1,.324,1.152,2.165,2.165,0,0,1-.906,1.817,3.8,3.8,0,0,1-2.351.683,4.26,4.26,0,0,1-1.8-.359,2.908,2.908,0,0,1-1.223-1,2.413,2.413,0,0,1-.441-1.394H604a1.493,1.493,0,0,0,.582,1.152,2.256,2.256,0,0,0,1.434.426,2.335,2.335,0,0,0,1.316-.332,1.023,1.023,0,0,0,.5-.887" fill="#12263f"/>
          <path id="Trazado_215746" data-name="Trazado 215746" d="M616.371,176a3.018,3.018,0,0,1-.2-.891,3.225,3.225,0,0,1-2.406,1.047,2.984,2.984,0,0,1-2.051-.707,2.29,2.29,0,0,1-.8-1.793,2.389,2.389,0,0,1,1-2.051,4.734,4.734,0,0,1,2.825-.73h1.406v-.664a1.627,1.627,0,0,0-.453-1.208,1.826,1.826,0,0,0-1.336-.449,2.1,2.1,0,0,0-1.3.391,1.148,1.148,0,0,0-.523.945h-1.454a1.99,1.99,0,0,1,.45-1.222,3.046,3.046,0,0,1,1.218-.934,4.088,4.088,0,0,1,1.692-.344,3.34,3.34,0,0,1,2.289.731,2.635,2.635,0,0,1,.859,2.011v3.891a4.756,4.756,0,0,0,.3,1.852V176Zm-2.4-1.1a2.534,2.534,0,0,0,1.289-.352,2.131,2.131,0,0,0,.883-.914V171.9h-1.133q-2.656,0-2.656,1.555a1.312,1.312,0,0,0,.453,1.062,1.741,1.741,0,0,0,1.164.383" fill="#12263f"/>
          <rect id="Rectángulo_44437" data-name="Rectángulo 44437" width="1.445" height="12" transform="translate(619.981 164)" fill="#12263f"/>
          <path id="Trazado_215747" data-name="Trazado 215747" d="M628.957,176a3.02,3.02,0,0,1-.2-.891,3.225,3.225,0,0,1-2.406,1.047,2.984,2.984,0,0,1-2.051-.707,2.29,2.29,0,0,1-.8-1.793,2.389,2.389,0,0,1,1-2.051,4.734,4.734,0,0,1,2.825-.73h1.406v-.664a1.627,1.627,0,0,0-.453-1.208,1.825,1.825,0,0,0-1.336-.449,2.1,2.1,0,0,0-1.3.391,1.148,1.148,0,0,0-.523.945h-1.454a1.99,1.99,0,0,1,.45-1.222,3.046,3.046,0,0,1,1.218-.934,4.088,4.088,0,0,1,1.692-.344,3.34,3.34,0,0,1,2.289.731,2.634,2.634,0,0,1,.859,2.011v3.891a4.756,4.756,0,0,0,.3,1.852V176Zm-2.4-1.1a2.534,2.534,0,0,0,1.289-.352,2.131,2.131,0,0,0,.883-.914V171.9H627.6q-2.656,0-2.656,1.555a1.312,1.312,0,0,0,.453,1.062,1.741,1.741,0,0,0,1.164.383" fill="#12263f"/>
          <path id="Trazado_215748" data-name="Trazado 215748" d="M632.09,171.7a4.943,4.943,0,0,1,.922-3.129,3.135,3.135,0,0,1,4.765-.168V164h1.445v12h-1.328l-.07-.906a2.944,2.944,0,0,1-2.414,1.062,2.889,2.889,0,0,1-2.395-1.2,5.009,5.009,0,0,1-.925-3.141Zm1.445.164a3.742,3.742,0,0,0,.594,2.25,1.917,1.917,0,0,0,1.64.813,2.11,2.11,0,0,0,2.008-1.235v-3.883a2.123,2.123,0,0,0-1.992-1.195,1.926,1.926,0,0,0-1.656.82,4.12,4.12,0,0,0-.594,2.43" fill="#12263f"/>
          <path id="Trazado_215749" data-name="Trazado 215749" d="M646.683,176a3.02,3.02,0,0,1-.2-.891,3.225,3.225,0,0,1-2.406,1.047,2.984,2.984,0,0,1-2.051-.707,2.29,2.29,0,0,1-.8-1.793,2.389,2.389,0,0,1,1-2.051,4.734,4.734,0,0,1,2.825-.73h1.406v-.664A1.627,1.627,0,0,0,646,169a1.826,1.826,0,0,0-1.336-.449,2.1,2.1,0,0,0-1.3.391,1.148,1.148,0,0,0-.523.945h-1.454a1.99,1.99,0,0,1,.45-1.222,3.046,3.046,0,0,1,1.218-.934,4.088,4.088,0,0,1,1.692-.344,3.34,3.34,0,0,1,2.289.731,2.634,2.634,0,0,1,.859,2.011v3.891a4.756,4.756,0,0,0,.3,1.852V176Zm-2.4-1.1a2.534,2.534,0,0,0,1.289-.352,2.13,2.13,0,0,0,.883-.914V171.9h-1.133q-2.656,0-2.656,1.555a1.312,1.312,0,0,0,.453,1.062,1.741,1.741,0,0,0,1.164.383" fill="#12263f"/>
          <path id="Trazado_215750" data-name="Trazado 215750" d="M655.09,173.758a1.063,1.063,0,0,0-.441-.91,4.275,4.275,0,0,0-1.539-.559,7.251,7.251,0,0,1-1.743-.562,2.482,2.482,0,0,1-.953-.782,1.863,1.863,0,0,1-.308-1.078,2.192,2.192,0,0,1,.879-1.757,3.425,3.425,0,0,1,2.246-.719,3.532,3.532,0,0,1,2.332.742,2.361,2.361,0,0,1,.894,1.9H655a1.3,1.3,0,0,0-.5-1.023,1.892,1.892,0,0,0-1.269-.43,1.978,1.978,0,0,0-1.235.344,1.081,1.081,0,0,0-.445.9.878.878,0,0,0,.414.79,5.1,5.1,0,0,0,1.5.507,7.881,7.881,0,0,1,1.754.578,2.573,2.573,0,0,1,1,.809,1.99,1.99,0,0,1,.324,1.152,2.165,2.165,0,0,1-.906,1.817,3.8,3.8,0,0,1-2.351.683,4.26,4.26,0,0,1-1.8-.359,2.908,2.908,0,0,1-1.223-1,2.413,2.413,0,0,1-.441-1.394h1.445a1.493,1.493,0,0,0,.582,1.152,2.256,2.256,0,0,0,1.434.426,2.335,2.335,0,0,0,1.316-.332,1.023,1.023,0,0,0,.5-.887" fill="#12263f"/>
        </g>
      </g>
      <path id="Trazado_215751" data-name="Trazado 215751" d="M6.914,51.625v7.5l-4.57-7.5H0V63H2.344V55.516L6.907,63H9.25V51.625Z" fill="#12263f"/>
      <g id="Grupo_154173" data-name="Grupo 154173">
        <g id="Grupo_154172" data-name="Grupo 154172" clip-path="url(#clip-path)">
          <path id="Trazado_215752" data-name="Trazado 215752" d="M16.211,62.141A2.832,2.832,0,0,1,13.9,63.157a2.671,2.671,0,0,1-2.074-.782,3.339,3.339,0,0,1-.73-2.289V54.547h2.258v5.467q0,1.323,1.2,1.322a1.628,1.628,0,0,0,1.578-.8V54.547H18.4V63H16.273Z" fill="#12263f"/>
          <path id="Trazado_215753" data-name="Trazado 215753" d="M22.219,54.547l.07.945a2.973,2.973,0,0,1,2.43-1.1,2.253,2.253,0,0,1,2.242,1.289A2.9,2.9,0,0,1,29.5,54.391a2.516,2.516,0,0,1,2.047.8,3.678,3.678,0,0,1,.672,2.41V63H29.953V57.6a1.613,1.613,0,0,0-.281-1.053,1.242,1.242,0,0,0-.992-.333,1.409,1.409,0,0,0-1.406.971L27.281,63H25.024V57.6a1.594,1.594,0,0,0-.289-1.065,1.255,1.255,0,0,0-.985-.329,1.464,1.464,0,0,0-1.39.8V63H20.1V54.547Z" fill="#12263f"/>
          <path id="Trazado_215754" data-name="Trazado 215754" d="M37.844,63.156a4.156,4.156,0,0,1-3.028-1.14,4.059,4.059,0,0,1-1.168-3.039v-.219a5.1,5.1,0,0,1,.493-2.277,3.616,3.616,0,0,1,1.394-1.547,3.907,3.907,0,0,1,2.059-.543,3.508,3.508,0,0,1,2.73,1.093,4.446,4.446,0,0,1,1,3.1v.922H35.938a2.1,2.1,0,0,0,.66,1.328,2,2,0,0,0,1.394.5,2.436,2.436,0,0,0,2.039-.945l1.11,1.242a3.394,3.394,0,0,1-1.375,1.121,4.5,4.5,0,0,1-1.922.4m-.258-6.945a1.411,1.411,0,0,0-1.09.455,2.364,2.364,0,0,0-.535,1.3H39.1v-.181a1.677,1.677,0,0,0-.407-1.165,1.455,1.455,0,0,0-1.109-.412" fill="#12263f"/>
          <path id="Trazado_215755" data-name="Trazado 215755" d="M47.352,56.664a6.064,6.064,0,0,0-.812-.062,1.654,1.654,0,0,0-1.68.867V63H42.6V54.547h2.133l.062,1.008a2.09,2.09,0,0,1,1.883-1.164,2.384,2.384,0,0,1,.7.1Z" fill="#12263f"/>
          <path id="Trazado_215756" data-name="Trazado 215756" d="M47.8,58.7a5.009,5.009,0,0,1,.485-2.242,3.551,3.551,0,0,1,1.394-1.524,4.077,4.077,0,0,1,2.113-.539,3.845,3.845,0,0,1,2.793,1.047A4.2,4.2,0,0,1,55.8,58.282l.017.578a4.41,4.41,0,0,1-1.087,3.12,4.207,4.207,0,0,1-5.832.005A4.494,4.494,0,0,1,47.8,58.8Zm2.259.159a3.162,3.162,0,0,0,.452,1.844,1.629,1.629,0,0,0,2.578.008,3.453,3.453,0,0,0,.461-2.015,3.122,3.122,0,0,0-.461-1.831,1.5,1.5,0,0,0-1.3-.65,1.475,1.475,0,0,0-1.281.646,3.518,3.518,0,0,0-.452,2" fill="#12263f"/>
          <path id="Trazado_215757" data-name="Trazado 215757" d="M60.836,58.711a5.1,5.1,0,0,1,.887-3.149,2.879,2.879,0,0,1,2.426-1.171,2.589,2.589,0,0,1,2.039.921V51h2.265V63H66.414l-.109-.9a2.655,2.655,0,0,1-2.172,1.055,2.866,2.866,0,0,1-2.394-1.176,5.256,5.256,0,0,1-.9-3.269m2.258.16a3.365,3.365,0,0,0,.414,1.829,1.348,1.348,0,0,0,1.2.636,1.511,1.511,0,0,0,1.477-.887V57.1a1.489,1.489,0,0,0-1.461-.887q-1.632,0-1.633,2.66" fill="#12263f"/>
          <path id="Trazado_215758" data-name="Trazado 215758" d="M74.094,63.156a4.156,4.156,0,0,1-3.028-1.14A4.059,4.059,0,0,1,69.9,58.977v-.219a5.1,5.1,0,0,1,.493-2.277,3.616,3.616,0,0,1,1.394-1.547,3.907,3.907,0,0,1,2.059-.543,3.507,3.507,0,0,1,2.73,1.093,4.446,4.446,0,0,1,1,3.1v.922H72.188a2.1,2.1,0,0,0,.66,1.328,2,2,0,0,0,1.394.5,2.436,2.436,0,0,0,2.039-.945l1.11,1.242a3.394,3.394,0,0,1-1.375,1.121,4.5,4.5,0,0,1-1.922.4m-.258-6.945a1.411,1.411,0,0,0-1.09.455,2.364,2.364,0,0,0-.535,1.3h3.141v-.181a1.677,1.677,0,0,0-.407-1.165,1.455,1.455,0,0,0-1.109-.412" fill="#12263f"/>
          <path id="Trazado_215759" data-name="Trazado 215759" d="M90.445,58.852a5.065,5.065,0,0,1-.887,3.129,2.842,2.842,0,0,1-2.394,1.176,2.636,2.636,0,0,1-2.071-.891V66.25H82.835v-11.7h2.094l.078.828a2.655,2.655,0,0,1,2.141-.984,2.866,2.866,0,0,1,2.43,1.156,5.208,5.208,0,0,1,.867,3.188Zm-2.257-.172a3.343,3.343,0,0,0-.419-1.826,1.359,1.359,0,0,0-1.215-.643,1.479,1.479,0,0,0-1.461.815V60.5a1.5,1.5,0,0,0,1.477.839q1.617,0,1.618-2.656" fill="#12263f"/>
          <rect id="Rectángulo_44439" data-name="Rectángulo 44439" width="2.266" height="12" transform="translate(91.961 51)" fill="#12263f"/>
          <path id="Trazado_215760" data-name="Trazado 215760" d="M100.984,63a2.517,2.517,0,0,1-.226-.758,2.731,2.731,0,0,1-2.133.915,3,3,0,0,1-2.059-.719,2.313,2.313,0,0,1-.816-1.813,2.389,2.389,0,0,1,1-2.062,4.908,4.908,0,0,1,2.879-.727h1.039v-.484a1.392,1.392,0,0,0-.3-.938,1.183,1.183,0,0,0-.949-.351,1.35,1.35,0,0,0-.9.273.934.934,0,0,0-.324.75H95.937a2.276,2.276,0,0,1,.453-1.359,3.01,3.01,0,0,1,1.282-.981,4.669,4.669,0,0,1,1.859-.355,3.692,3.692,0,0,1,2.481.785,2.747,2.747,0,0,1,.918,2.207v3.664a4.048,4.048,0,0,0,.335,1.82V63Zm-1.867-1.57a1.936,1.936,0,0,0,.922-.223,1.458,1.458,0,0,0,.625-.6V59.157H99.82q-1.695,0-1.805,1.171l-.007.133a.905.905,0,0,0,.3.7,1.153,1.153,0,0,0,.812.273" fill="#12263f"/>
          <path id="Trazado_215761" data-name="Trazado 215761" d="M107.367,52.469v2.078h1.445V56.2h-1.445v4.219a1.012,1.012,0,0,0,.18.672.9.9,0,0,0,.687.2,3.546,3.546,0,0,0,.664-.055v1.711a4.624,4.624,0,0,1-1.367.2,2.156,2.156,0,0,1-2.422-2.4V56.2h-1.234V54.547h1.234V52.469Z" fill="#12263f"/>
          <path id="Trazado_215762" data-name="Trazado 215762" d="M109.484,58.7a5.009,5.009,0,0,1,.485-2.242,3.551,3.551,0,0,1,1.394-1.524,4.077,4.077,0,0,1,2.113-.539,3.846,3.846,0,0,1,2.793,1.047,4.2,4.2,0,0,1,1.207,2.844l.016.578a4.409,4.409,0,0,1-1.086,3.12,4.207,4.207,0,0,1-5.832.005,4.494,4.494,0,0,1-1.09-3.188Zm2.258.159a3.161,3.161,0,0,0,.453,1.844,1.629,1.629,0,0,0,2.578.008,3.454,3.454,0,0,0,.461-2.015,3.122,3.122,0,0,0-.461-1.831,1.5,1.5,0,0,0-1.3-.65,1.475,1.475,0,0,0-1.281.646,3.517,3.517,0,0,0-.453,2" fill="#12263f"/>
          <path id="Trazado_215763" data-name="Trazado 215763" d="M123.461,60.664a.728.728,0,0,0-.41-.652,4.623,4.623,0,0,0-1.317-.426q-3.014-.633-3.015-2.563a2.324,2.324,0,0,1,.933-1.879,3.772,3.772,0,0,1,2.442-.753,4.053,4.053,0,0,1,2.574.757,2.387,2.387,0,0,1,.965,1.969h-2.258a1.09,1.09,0,0,0-.312-.8,1.322,1.322,0,0,0-.977-.316,1.353,1.353,0,0,0-.883.258.814.814,0,0,0-.312.656.7.7,0,0,0,.355.6,3.65,3.65,0,0,0,1.2.4,9.718,9.718,0,0,1,1.422.379,2.334,2.334,0,0,1,1.789,2.273,2.2,2.2,0,0,1-.992,1.871,4.274,4.274,0,0,1-2.562.715,4.468,4.468,0,0,1-1.887-.379,3.161,3.161,0,0,1-1.293-1.039,2.41,2.41,0,0,1-.469-1.426h2.141a1.182,1.182,0,0,0,.445.922,1.766,1.766,0,0,0,1.11.321,1.634,1.634,0,0,0,.98-.246.766.766,0,0,0,.332-.645" fill="#12263f"/>
          <path id="Trazado_215764" data-name="Trazado 215764" d="M9.965,78.852a5.065,5.065,0,0,1-.887,3.129,2.842,2.842,0,0,1-2.394,1.176,2.636,2.636,0,0,1-2.071-.891V86.25H2.355v-11.7H4.449l.078.828a2.655,2.655,0,0,1,2.141-.984A2.866,2.866,0,0,1,9.1,75.547a5.208,5.208,0,0,1,.867,3.188ZM7.707,78.68a3.344,3.344,0,0,0-.418-1.826,1.359,1.359,0,0,0-1.215-.643,1.479,1.479,0,0,0-1.461.815V80.5a1.5,1.5,0,0,0,1.477.839q1.617,0,1.617-2.656" fill="#12263f"/>
          <path id="Trazado_215765" data-name="Trazado 215765" d="M16.113,76.664A6.064,6.064,0,0,0,15.3,76.6a1.654,1.654,0,0,0-1.68.867V83H11.363V74.547H13.5l.062,1.008a2.09,2.09,0,0,1,1.883-1.164,2.385,2.385,0,0,1,.7.1Z" fill="#12263f"/>
          <path id="Trazado_215766" data-name="Trazado 215766" d="M16.566,78.7a5.009,5.009,0,0,1,.485-2.242,3.551,3.551,0,0,1,1.394-1.524,4.077,4.077,0,0,1,2.113-.539,3.846,3.846,0,0,1,2.793,1.047,4.2,4.2,0,0,1,1.207,2.844l.016.578a4.409,4.409,0,0,1-1.086,3.12,3.771,3.771,0,0,1-2.914,1.177,3.8,3.8,0,0,1-2.918-1.172,4.494,4.494,0,0,1-1.09-3.188Zm2.258.159a3.161,3.161,0,0,0,.453,1.844,1.629,1.629,0,0,0,2.578.008,3.453,3.453,0,0,0,.461-2.015,3.122,3.122,0,0,0-.461-1.831,1.5,1.5,0,0,0-1.3-.65,1.475,1.475,0,0,0-1.281.646,3.517,3.517,0,0,0-.453,2" fill="#12263f"/>
          <path id="Trazado_215767" data-name="Trazado 215767" d="M28.082,74.547l.07.945a2.973,2.973,0,0,1,2.43-1.1,2.253,2.253,0,0,1,2.242,1.289,2.9,2.9,0,0,1,2.539-1.289,2.516,2.516,0,0,1,2.047.8,3.678,3.678,0,0,1,.672,2.41V83H35.816V77.6a1.613,1.613,0,0,0-.281-1.053,1.242,1.242,0,0,0-.992-.333,1.409,1.409,0,0,0-1.406.971L33.144,83H30.887V77.605A1.594,1.594,0,0,0,30.6,76.54a1.255,1.255,0,0,0-.985-.329,1.464,1.464,0,0,0-1.39.8V83H25.965V74.547Z" fill="#12263f"/>
          <path id="Trazado_215768" data-name="Trazado 215768" d="M43.707,83.156a4.156,4.156,0,0,1-3.028-1.14,4.059,4.059,0,0,1-1.168-3.039v-.219A5.1,5.1,0,0,1,40,76.481,3.616,3.616,0,0,1,41.4,74.934a3.907,3.907,0,0,1,2.059-.543,3.507,3.507,0,0,1,2.73,1.093,4.446,4.446,0,0,1,1,3.1v.922H41.8a2.1,2.1,0,0,0,.66,1.328,2,2,0,0,0,1.394.5,2.436,2.436,0,0,0,2.039-.945L47,81.633a3.394,3.394,0,0,1-1.375,1.121,4.5,4.5,0,0,1-1.922.4m-.258-6.945a1.411,1.411,0,0,0-1.09.455,2.364,2.364,0,0,0-.535,1.3h3.141v-.181a1.677,1.677,0,0,0-.407-1.165,1.455,1.455,0,0,0-1.109-.412" fill="#12263f"/>
          <path id="Trazado_215769" data-name="Trazado 215769" d="M48.113,78.711A5.1,5.1,0,0,1,49,75.562a2.879,2.879,0,0,1,2.426-1.171,2.589,2.589,0,0,1,2.039.921V71H55.73V83H53.691l-.109-.9a2.655,2.655,0,0,1-2.172,1.055,2.866,2.866,0,0,1-2.394-1.176,5.256,5.256,0,0,1-.9-3.269m2.258.16a3.365,3.365,0,0,0,.414,1.829,1.348,1.348,0,0,0,1.2.636,1.511,1.511,0,0,0,1.477-.887V77.1A1.489,1.489,0,0,0,52,76.211q-1.632,0-1.633,2.66" fill="#12263f"/>
          <path id="Trazado_215770" data-name="Trazado 215770" d="M57.465,72.359a1.112,1.112,0,0,1,.34-.836,1.464,1.464,0,0,1,1.847,0,1.193,1.193,0,0,1,0,1.68,1.447,1.447,0,0,1-1.835,0,1.109,1.109,0,0,1-.348-.844M59.863,83H57.6V74.547h2.266Z" fill="#12263f"/>
          <path id="Trazado_215771" data-name="Trazado 215771" d="M61.371,78.7a5.009,5.009,0,0,1,.485-2.242A3.551,3.551,0,0,1,63.25,74.93a4.077,4.077,0,0,1,2.113-.539,3.846,3.846,0,0,1,2.793,1.047,4.2,4.2,0,0,1,1.207,2.844l.016.578a4.409,4.409,0,0,1-1.086,3.12,4.207,4.207,0,0,1-5.832,0,4.494,4.494,0,0,1-1.09-3.188Zm2.258.159a3.161,3.161,0,0,0,.453,1.844,1.629,1.629,0,0,0,2.578.008,3.454,3.454,0,0,0,.461-2.015,3.122,3.122,0,0,0-.461-1.831,1.5,1.5,0,0,0-1.3-.65,1.475,1.475,0,0,0-1.281.646,3.517,3.517,0,0,0-.453,2" fill="#12263f"/>
          <path id="Trazado_215772" data-name="Trazado 215772" d="M82.363,78.852a5.065,5.065,0,0,1-.887,3.129,2.842,2.842,0,0,1-2.394,1.176,2.636,2.636,0,0,1-2.071-.891V86.25H74.753v-11.7h2.094l.078.828a2.655,2.655,0,0,1,2.141-.984,2.866,2.866,0,0,1,2.43,1.156,5.208,5.208,0,0,1,.867,3.188Zm-2.258-.172a3.344,3.344,0,0,0-.418-1.826,1.359,1.359,0,0,0-1.215-.643,1.479,1.479,0,0,0-1.461.815V80.5a1.5,1.5,0,0,0,1.477.839q1.617,0,1.617-2.656" fill="#12263f"/>
          <path id="Trazado_215773" data-name="Trazado 215773" d="M83.41,78.7a5.009,5.009,0,0,1,.485-2.242,3.551,3.551,0,0,1,1.394-1.524,4.077,4.077,0,0,1,2.113-.539,3.846,3.846,0,0,1,2.793,1.047A4.2,4.2,0,0,1,91.4,78.282l.016.578a4.409,4.409,0,0,1-1.086,3.12,4.207,4.207,0,0,1-5.832,0A4.494,4.494,0,0,1,83.41,78.8Zm2.258.159a3.161,3.161,0,0,0,.453,1.844,1.629,1.629,0,0,0,2.578.008,3.453,3.453,0,0,0,.461-2.015,3.122,3.122,0,0,0-.461-1.831,1.5,1.5,0,0,0-1.3-.65,1.475,1.475,0,0,0-1.281.646,3.517,3.517,0,0,0-.453,2" fill="#12263f"/>
          <path id="Trazado_215774" data-name="Trazado 215774" d="M97.559,76.664a6.064,6.064,0,0,0-.812-.062,1.654,1.654,0,0,0-1.68.867V83H92.809V74.547h2.133L95,75.555a2.09,2.09,0,0,1,1.883-1.164,2.385,2.385,0,0,1,.7.1Z" fill="#12263f"/>
          <path id="Trazado_215775" data-name="Trazado 215775" d="M102.277,78.711a5.1,5.1,0,0,1,.887-3.149,2.879,2.879,0,0,1,2.426-1.171,2.589,2.589,0,0,1,2.039.921V71h2.265V83h-2.039l-.109-.9a2.655,2.655,0,0,1-2.172,1.055,2.866,2.866,0,0,1-2.394-1.176,5.256,5.256,0,0,1-.9-3.269m2.258.16a3.365,3.365,0,0,0,.414,1.829,1.348,1.348,0,0,0,1.2.636,1.511,1.511,0,0,0,1.477-.887V77.1a1.489,1.489,0,0,0-1.461-.887q-1.632,0-1.633,2.66" fill="#12263f"/>
          <path id="Trazado_215776" data-name="Trazado 215776" d="M114.082,83h-2.258V74.547h2.258Zm-.664-11.883h2.461l-2.164,2.422h-1.836Z" fill="#12263f"/>
          <path id="Trazado_215777" data-name="Trazado 215777" d="M120.926,83a2.517,2.517,0,0,1-.226-.758,2.731,2.731,0,0,1-2.133.915,3,3,0,0,1-2.059-.719,2.313,2.313,0,0,1-.816-1.813,2.389,2.389,0,0,1,1-2.062,4.908,4.908,0,0,1,2.879-.727h1.039v-.484a1.392,1.392,0,0,0-.3-.938,1.183,1.183,0,0,0-.949-.351,1.35,1.35,0,0,0-.9.273.934.934,0,0,0-.324.75h-2.258a2.276,2.276,0,0,1,.453-1.359,3.01,3.01,0,0,1,1.282-.981,4.669,4.669,0,0,1,1.859-.355,3.692,3.692,0,0,1,2.481.785,2.747,2.747,0,0,1,.918,2.207v3.664a4.048,4.048,0,0,0,.335,1.82V83Zm-1.867-1.57a1.936,1.936,0,0,0,.922-.223,1.458,1.458,0,0,0,.625-.6V79.157h-.844q-1.695,0-1.805,1.171l-.007.133a.905.905,0,0,0,.3.7,1.153,1.153,0,0,0,.812.273" fill="#12263f"/>
        </g>
      </g>
      <path id="Trazado_215778" data-name="Trazado 215778" d="M552.477,245.523h-3.484V255h-2.344v-9.477h-3.438v-1.9h9.266Z" fill="#12263f"/>
      <g id="Grupo_154175" data-name="Grupo 154175">
        <g id="Grupo_154174" data-name="Grupo 154174" clip-path="url(#clip-path)">
          <path id="Trazado_215779" data-name="Trazado 215779" d="M553.649,244.359a1.115,1.115,0,0,1,.34-.836,1.465,1.465,0,0,1,1.848,0,1.193,1.193,0,0,1,0,1.68,1.449,1.449,0,0,1-1.836,0,1.109,1.109,0,0,1-.348-.844m2.4,10.641h-2.266v-8.453h2.266Z" fill="#12263f"/>
          <path id="Trazado_215780" data-name="Trazado 215780" d="M565.517,250.852a5.071,5.071,0,0,1-.887,3.129,2.844,2.844,0,0,1-2.394,1.176,2.633,2.633,0,0,1-2.071-.891v3.984h-2.258v-11.7H560l.078.828a2.654,2.654,0,0,1,2.141-.984,2.867,2.867,0,0,1,2.43,1.156,5.208,5.208,0,0,1,.867,3.188Zm-2.258-.172a3.352,3.352,0,0,0-.418-1.826,1.36,1.36,0,0,0-1.215-.643,1.478,1.478,0,0,0-1.461.815V252.5a1.5,1.5,0,0,0,1.477.839q1.617,0,1.617-2.656" fill="#12263f"/>
          <path id="Trazado_215781" data-name="Trazado 215781" d="M566.563,250.7a5,5,0,0,1,.485-2.242,3.539,3.539,0,0,1,1.394-1.524,4.072,4.072,0,0,1,2.113-.539,3.848,3.848,0,0,1,2.793,1.047,4.207,4.207,0,0,1,1.207,2.844l.016.578a4.418,4.418,0,0,1-1.086,3.121,4.208,4.208,0,0,1-5.832,0,4.494,4.494,0,0,1-1.09-3.188Zm2.258.16a3.153,3.153,0,0,0,.453,1.843,1.629,1.629,0,0,0,2.578.008,3.461,3.461,0,0,0,.461-2.015,3.13,3.13,0,0,0-.461-1.831,1.5,1.5,0,0,0-1.3-.65,1.472,1.472,0,0,0-1.281.646,3.51,3.51,0,0,0-.453,2" fill="#12263f"/>
          <path id="Trazado_215782" data-name="Trazado 215782" d="M580.54,252.664a.728.728,0,0,0-.41-.652,4.635,4.635,0,0,0-1.317-.426q-3.015-.633-3.015-2.563a2.321,2.321,0,0,1,.933-1.879,3.768,3.768,0,0,1,2.442-.753,4.057,4.057,0,0,1,2.574.757,2.39,2.39,0,0,1,.965,1.969h-2.258a1.094,1.094,0,0,0-.312-.8,1.326,1.326,0,0,0-.977-.316,1.349,1.349,0,0,0-.883.258.811.811,0,0,0-.312.656.694.694,0,0,0,.355.6,3.64,3.64,0,0,0,1.2.4,9.721,9.721,0,0,1,1.422.379,2.335,2.335,0,0,1,1.789,2.273,2.2,2.2,0,0,1-.992,1.871,4.276,4.276,0,0,1-2.562.715,4.462,4.462,0,0,1-1.887-.379A3.155,3.155,0,0,1,576,253.738a2.41,2.41,0,0,1-.469-1.426h2.141a1.176,1.176,0,0,0,.445.922,1.765,1.765,0,0,0,1.11.321,1.638,1.638,0,0,0,.98-.246.768.768,0,0,0,.332-.645" fill="#12263f"/>
          <path id="Trazado_215783" data-name="Trazado 215783" d="M587.821,250.711a5.092,5.092,0,0,1,.887-3.149,2.876,2.876,0,0,1,2.426-1.171,2.592,2.592,0,0,1,2.039.921V243h2.265v12H593.4l-.109-.9a2.656,2.656,0,0,1-2.172,1.055,2.865,2.865,0,0,1-2.394-1.176,5.256,5.256,0,0,1-.9-3.269m2.258.16a3.356,3.356,0,0,0,.414,1.829,1.346,1.346,0,0,0,1.2.636,1.513,1.513,0,0,0,1.477-.887V249.1a1.49,1.49,0,0,0-1.461-.887q-1.633,0-1.633,2.66" fill="#12263f"/>
          <path id="Trazado_215784" data-name="Trazado 215784" d="M601.079,255.156a4.152,4.152,0,0,1-3.028-1.14,4.055,4.055,0,0,1-1.168-3.039v-.219a5.1,5.1,0,0,1,.493-2.277,3.616,3.616,0,0,1,1.394-1.547,3.9,3.9,0,0,1,2.059-.543,3.508,3.508,0,0,1,2.73,1.093,4.446,4.446,0,0,1,1,3.1v.922h-5.382a2.093,2.093,0,0,0,.66,1.328,2,2,0,0,0,1.394.5,2.439,2.439,0,0,0,2.039-.945l1.11,1.242A3.4,3.4,0,0,1,603,254.754a4.5,4.5,0,0,1-1.922.4m-.258-6.945a1.408,1.408,0,0,0-1.09.455,2.356,2.356,0,0,0-.535,1.3h3.141v-.181a1.686,1.686,0,0,0-.407-1.165,1.457,1.457,0,0,0-1.109-.412" fill="#12263f"/>
          <path id="Trazado_215785" data-name="Trazado 215785" d="M612.313,250.992V255h-2.344V243.625h4.438a5.147,5.147,0,0,1,2.254.469,3.468,3.468,0,0,1,1.5,1.332,3.72,3.72,0,0,1,.523,1.965,3.271,3.271,0,0,1-1.144,2.637,4.772,4.772,0,0,1-3.168.964Zm0-1.9h2.094a2.064,2.064,0,0,0,1.418-.437,1.594,1.594,0,0,0,.488-1.25,1.877,1.877,0,0,0-.492-1.352,1.836,1.836,0,0,0-1.36-.531h-2.148Z" fill="#12263f"/>
          <rect id="Rectángulo_44441" data-name="Rectángulo 44441" width="2.266" height="12" transform="translate(620.258 243)" fill="#12263f"/>
          <path id="Trazado_215786" data-name="Trazado 215786" d="M629.282,255a2.488,2.488,0,0,1-.226-.758,2.731,2.731,0,0,1-2.133.915,3,3,0,0,1-2.059-.719,2.31,2.31,0,0,1-.816-1.813,2.389,2.389,0,0,1,1-2.062,4.906,4.906,0,0,1,2.879-.727h1.039v-.484a1.4,1.4,0,0,0-.3-.938,1.185,1.185,0,0,0-.949-.351,1.346,1.346,0,0,0-.895.273.931.931,0,0,0-.324.75h-2.258a2.269,2.269,0,0,1,.453-1.359,3,3,0,0,1,1.282-.981,4.665,4.665,0,0,1,1.859-.355,3.7,3.7,0,0,1,2.481.785,2.75,2.75,0,0,1,.918,2.207v3.664a4.033,4.033,0,0,0,.335,1.82V255Zm-1.867-1.57a1.939,1.939,0,0,0,.922-.223,1.463,1.463,0,0,0,.625-.6v-1.453h-.844q-1.7,0-1.8,1.171l-.007.133a.9.9,0,0,0,.3.7,1.151,1.151,0,0,0,.812.273" fill="#12263f"/>
          <path id="Trazado_215787" data-name="Trazado 215787" d="M635.665,244.469v2.078h1.445V248.2h-1.445v4.219a1.007,1.007,0,0,0,.18.672.9.9,0,0,0,.687.2,3.553,3.553,0,0,0,.664-.055v1.711a4.629,4.629,0,0,1-1.367.2,2.156,2.156,0,0,1-2.422-2.4V248.2h-1.234v-1.656h1.234v-2.078Z" fill="#12263f"/>
          <path id="Trazado_215788" data-name="Trazado 215788" d="M637.782,250.7a5,5,0,0,1,.485-2.242,3.538,3.538,0,0,1,1.394-1.524,4.072,4.072,0,0,1,2.113-.539,3.848,3.848,0,0,1,2.793,1.047,4.207,4.207,0,0,1,1.207,2.844l.016.578a4.418,4.418,0,0,1-1.086,3.121,4.208,4.208,0,0,1-5.832,0,4.494,4.494,0,0,1-1.09-3.188Zm2.258.16a3.153,3.153,0,0,0,.453,1.843,1.629,1.629,0,0,0,2.578.008,3.461,3.461,0,0,0,.461-2.015,3.13,3.13,0,0,0-.461-1.831,1.5,1.5,0,0,0-1.3-.65,1.472,1.472,0,0,0-1.281.646,3.51,3.51,0,0,0-.453,2" fill="#12263f"/>
        </g>
      </g>
    </g>
  </g>
</svg>
