<svg xmlns="http://www.w3.org/2000/svg" width="38.37" height="38.37" viewBox="0 0 38.37 38.37">
  <g id="Grupo_153416" data-name="Grupo 153416" transform="translate(-1139.049 -5205.461)">
    <path id="Trazado_213561" data-name="Trazado 213561" d="M411.042,77.347a1.836,1.836,0,0,1-1.3-.537L392.749,59.818a1.841,1.841,0,0,1,0-2.6l16.992-16.992a1.842,1.842,0,0,1,2.6,0l16.992,16.993a1.842,1.842,0,0,1,0,2.6L412.343,76.81a1.834,1.834,0,0,1-1.3.537m-.609-1.229a.862.862,0,0,0,1.217,0l16.993-16.992a.862.862,0,0,0,0-1.217L411.651,40.915a.862.862,0,0,0-1.217,0L393.441,57.908a.862.862,0,0,0,0,1.217Z" transform="translate(747.127 5166.194)" fill="#231f20"/>
    <path id="Trazado_213562" data-name="Trazado 213562" d="M411.042,77.347a1.836,1.836,0,0,1-1.3-.537L392.749,59.818a1.841,1.841,0,0,1,0-2.6l16.992-16.992a1.842,1.842,0,0,1,2.6,0l16.992,16.993a1.842,1.842,0,0,1,0,2.6L412.343,76.81A1.834,1.834,0,0,1,411.042,77.347Zm-.609-1.229a.862.862,0,0,0,1.217,0l16.993-16.992a.862.862,0,0,0,0-1.217L411.651,40.915a.862.862,0,0,0-1.217,0L393.441,57.908a.862.862,0,0,0,0,1.217Z" transform="translate(747.127 5166.194)" fill="none" stroke="#231f20" stroke-miterlimit="10" stroke-width="0.579"/>
    <path id="Trazado_213563" data-name="Trazado 213563" d="M405.026,67.565a.488.488,0,0,1-.346-.144L398.7,61.439a1.1,1.1,0,0,1,0-1.553l6.226-6.226a.489.489,0,0,1,.692.692l-6.226,6.226a.12.12,0,0,0,0,.169l5.982,5.983a.489.489,0,0,1-.346.835" transform="translate(746.17 5164.048)" fill="#231f20"/>
    <path id="Trazado_213564" data-name="Trazado 213564" d="M404.981,67.764a.728.728,0,0,1-.519-.215l-5.982-5.983a1.342,1.342,0,0,1,0-1.9l6.226-6.226a.734.734,0,1,1,1.037,1.038l-6.137,6.137,5.894,5.894a.733.733,0,0,1-.52,1.252m.243-14.047a.24.24,0,0,0-.172.072l-6.226,6.226a.853.853,0,0,0,0,1.206l5.983,5.982a.25.25,0,0,0,.346,0,.245.245,0,0,0,0-.346l-5.982-5.982a.365.365,0,0,1,0-.515l6.226-6.226a.245.245,0,0,0-.173-.417" transform="translate(746.215 5164.093)" fill="#231f20"/>
    <path id="Trazado_213565" data-name="Trazado 213565" d="M422.511,67.456a.489.489,0,0,1-.346-.835l5.982-5.983a.118.118,0,0,0,0-.169l-6.821-6.821a.489.489,0,1,1,.692-.692l6.821,6.821a1.1,1.1,0,0,1,0,1.553l-5.983,5.982a.488.488,0,0,1-.346.144" transform="translate(742.631 5164.158)" fill="#231f20"/>
    <path id="Trazado_213566" data-name="Trazado 213566" d="M422.466,67.655a.733.733,0,0,1-.519-1.252l5.894-5.894-6.733-6.733a.734.734,0,0,1,1.037-1.038l6.821,6.822a1.342,1.342,0,0,1,0,1.9l-5.982,5.983a.729.729,0,0,1-.519.215m-.839-14.643a.245.245,0,0,0-.244.244.245.245,0,0,0,.071.173l6.822,6.821a.364.364,0,0,1,0,.515l-5.983,5.983a.244.244,0,0,0,0,.346.249.249,0,0,0,.346,0l5.983-5.982a.855.855,0,0,0,0-1.206L421.8,53.084a.243.243,0,0,0-.173-.072" transform="translate(742.676 5164.203)" fill="#231f20"/>
    <path id="Trazado_213567" data-name="Trazado 213567" d="M415.592,64.29h-3.375a.49.49,0,0,1-.487-.44l-1.053-10.533a3.19,3.19,0,0,1,3.174-3.507h.108a3.189,3.189,0,0,1,3.173,3.507L416.079,63.85a.489.489,0,0,1-.487.44m-2.932-.978h2.49l1.01-10.092a2.212,2.212,0,0,0-2.2-2.431h-.108a2.211,2.211,0,0,0-2.2,2.431Z" transform="translate(744.264 5164.624)" fill="#231f20"/>
    <path id="Trazado_213568" data-name="Trazado 213568" d="M415.592,64.29h-3.375a.49.49,0,0,1-.487-.44l-1.053-10.533a3.19,3.19,0,0,1,3.174-3.507h.108a3.189,3.189,0,0,1,3.173,3.507L416.079,63.85A.489.489,0,0,1,415.592,64.29Zm-2.932-.978h2.49l1.01-10.092a2.212,2.212,0,0,0-2.2-2.431h-.108a2.211,2.211,0,0,0-2.2,2.431Z" transform="translate(744.264 5164.624)" fill="none" stroke="#231f20" stroke-miterlimit="10" stroke-width="0.579"/>
    <path id="Trazado_213569" data-name="Trazado 213569" d="M414.439,73.34h-.675a1.841,1.841,0,0,1-1.839-1.839v-.675a1.842,1.842,0,0,1,1.839-1.839h.675a1.842,1.842,0,0,1,1.839,1.839V71.5a1.841,1.841,0,0,1-1.839,1.839m-.675-3.375a.862.862,0,0,0-.861.861V71.5a.862.862,0,0,0,.861.861h.675a.862.862,0,0,0,.861-.861v-.675a.862.862,0,0,0-.861-.861Z" transform="translate(744.068 5161.648)" fill="#231f20"/>
    <path id="Trazado_213570" data-name="Trazado 213570" d="M414.439,73.34h-.675a1.841,1.841,0,0,1-1.839-1.839v-.675a1.842,1.842,0,0,1,1.839-1.839h.675a1.842,1.842,0,0,1,1.839,1.839V71.5A1.841,1.841,0,0,1,414.439,73.34Zm-.675-3.375a.862.862,0,0,0-.861.861V71.5a.862.862,0,0,0,.861.861h.675a.862.862,0,0,0,.861-.861v-.675a.862.862,0,0,0-.861-.861Z" transform="translate(744.068 5161.648)" fill="none" stroke="#231f20" stroke-miterlimit="10" stroke-width="0.579"/>
  </g>
</svg>
