<svg xmlns="http://www.w3.org/2000/svg" xmlns:xlink="http://www.w3.org/1999/xlink" width="295" height="142" viewBox="0 0 295 142">
  <defs>
    <clipPath id="clip-path">
      <rect id="Rectángulo_43865" data-name="Rectángulo 43865" width="295" height="140.359" transform="translate(0 17)" fill="none"/>
    </clipPath>
    <clipPath id="clip-path-2">
      <rect id="Rectángulo_43854" data-name="Rectángulo 43854" width="295" height="157.359" fill="none"/>
    </clipPath>
    <clipPath id="clip-path-3">
      <path id="Trazado_214208" data-name="Trazado 214208" d="M157.917,68.717C73,72.671,24.727,131.1,22.481,213.851H310.559c-12-77.34-52.92-146.2-134.578-146.2a157.32,157.32,0,0,0-18.064,1.069" transform="translate(-22.481 -67.648)" fill="none"/>
    </clipPath>
    <clipPath id="clip-path-7">
      <rect id="Rectángulo_43885" data-name="Rectángulo 43885" width="226.753" height="134.909" fill="none"/>
    </clipPath>
    <clipPath id="clip-path-9">
      <rect id="Rectángulo_43875" data-name="Rectángulo 43875" width="6.319" height="30.92" fill="none"/>
    </clipPath>
    <clipPath id="clip-path-11">
      <rect id="Rectángulo_43878" data-name="Rectángulo 43878" width="6.389" height="25.115" fill="none"/>
    </clipPath>
    <clipPath id="clip-path-12">
      <rect id="Rectángulo_43879" data-name="Rectángulo 43879" width="4.152" height="25.118" fill="none"/>
    </clipPath>
    <clipPath id="clip-path-13">
      <path id="Trazado_214339" data-name="Trazado 214339" d="M1103.6,277.607l-19.91,2.2s-4.922-.294-5.354-.2-6.464,2.35-6.176,2.59a2.884,2.884,0,0,0,1.365.577,21.752,21.752,0,0,0,3.166-.392,18.441,18.441,0,0,1,3.507-.272s-3.141,1.7-3.045,1.887a2.679,2.679,0,0,0,1.386.478c1.005-.12,4.851-1.368,4.851-1.368l21.132,1.458a6.836,6.836,0,0,0,2.169-.2l5.921-1.518-3.626-6.941Z" transform="translate(-1072.154 -275.905)" fill="none"/>
    </clipPath>
    <clipPath id="clip-path-15">
      <path id="Trazado_214344" data-name="Trazado 214344" d="M1445.812,103.587c-.932,3.358.386,7.861,3.147,8.628a4.579,4.579,0,0,0,3.256-.345l.535,4.085,4.981-3.209-2.232-4.756h0c.053-.154.1-.309.148-.469.932-3.358-.549-6.7-3.31-7.468a6.632,6.632,0,0,0-1.769-.251,4.737,4.737,0,0,0-4.754,3.783" transform="translate(-1445.515 -99.804)" fill="none"/>
    </clipPath>
    <clipPath id="clip-path-17">
      <path id="Trazado_214355" data-name="Trazado 214355" d="M1624.357,297.681l3.679,4.286,9.834,17.451s-.352,2.491.263,3.339,2.094,1.841,2.892,1.51,2.264-3.453,2.264-3.973-2.264-1.9-2.264-1.9l-6.953-20.008a6.835,6.835,0,0,0-1.034-1.917l-3.72-4.849Z" transform="translate(-1624.357 -291.622)" fill="none"/>
    </clipPath>
  </defs>
  <g id="Grupo_153713" data-name="Grupo 153713" transform="translate(-464 9208)">
    <g id="Grupo_153684" data-name="Grupo 153684" transform="translate(464 -9223.358)">
      <g id="Enmascarar_grupo_153682" data-name="Enmascarar grupo 153682" clip-path="url(#clip-path)">
        <g id="Grupo_153646" data-name="Grupo 153646" transform="translate(0 0)">
          <g id="Grupo_153645" data-name="Grupo 153645" clip-path="url(#clip-path-2)">
            <path id="Trazado_214205" data-name="Trazado 214205" d="M22.481,203.01H310.559c-12.856-76.7-58.891-144.4-152.642-134.372C73,72.3,24.727,126.394,22.481,203.01" transform="translate(-19.794 -45.651)" fill="#f3e6e3"/>
          </g>
        </g>
        <g id="Grupo_153681" data-name="Grupo 153681" transform="translate(0 0)">
          <g id="Grupo_153680" data-name="Grupo 153680" clip-path="url(#clip-path-2)">
            <path id="Trazado_214283" data-name="Trazado 214283" d="M2136.487,1043.506c-.5-.173-21-6.915-36.3-17.689l.1-.136c14.373,10.167,34.009,16.912,35.951,17.565-.6-1.886-6.491-20.331-13.085-32.513l.147-.079c7.017,13.026,13.041,32.37,13.195,32.853" transform="translate(-1849.154 -889.853)" fill="#324d90"/>
            <path id="Trazado_214284" data-name="Trazado 214284" d="M2320.083,1192.424s.99-6.324-3.7-9.826a9.384,9.384,0,0,0,3.7,9.826" transform="translate(-2039.297 -1041.245)" fill="#324d90"/>
            <path id="Trazado_214285" data-name="Trazado 214285" d="M2389.7,1185.143s4.013-4.987,1.695-10.362a9.383,9.383,0,0,0-1.695,10.362" transform="translate(-2103.276 -1034.363)" fill="#324d90"/>
            <path id="Trazado_214286" data-name="Trazado 214286" d="M2307.923,1208.413s-4.719-4.325-10.232-2.358a9.383,9.383,0,0,0,10.232,2.358" transform="translate(-2023.055 -1061.447)" fill="#324d90"/>
            <path id="Trazado_214287" data-name="Trazado 214287" d="M2303.441,1160.867s-3.985-3.652-8.64-1.991a7.923,7.923,0,0,0,8.64,1.991" transform="translate(-2020.51 -1019.978)" fill="#324d90"/>
            <path id="Trazado_214288" data-name="Trazado 214288" d="M2371.585,1137.215s4.3-3.269,3.5-8.146a7.923,7.923,0,0,0-3.5,8.146" transform="translate(-2087.981 -994.114)" fill="#324d90"/>
            <path id="Trazado_214289" data-name="Trazado 214289" d="M2351.815,1096.428s3.536-2.686,2.875-6.692a6.509,6.509,0,0,0-2.875,6.692" transform="translate(-2070.598 -959.483)" fill="#324d90"/>
            <path id="Trazado_214290" data-name="Trazado 214290" d="M2335.683,1061.123s2.952-2.242,2.4-5.587a5.434,5.434,0,0,0-2.4,5.587" transform="translate(-2056.412 -929.371)" fill="#324d90"/>
            <path id="Trazado_214291" data-name="Trazado 214291" d="M2288.406,1072.954s2.211,2.169,4.909,1.308a4.54,4.54,0,0,0-4.909-1.308" transform="translate(-2014.88 -944.472)" fill="#324d90"/>
            <path id="Trazado_214292" data-name="Trazado 214292" d="M2319.668,1031.734a4.5,4.5,0,0,0-.819,4.235,3.855,3.855,0,0,0,.819-4.235" transform="translate(-2041.458 -908.414)" fill="#324d90"/>
            <path id="Trazado_214293" data-name="Trazado 214293" d="M2287.127,1043.33a3.891,3.891,0,0,0-3.561-1.113,3.334,3.334,0,0,0,3.561,1.113" transform="translate(-2010.618 -917.546)" fill="#324d90"/>
            <path id="Trazado_214294" data-name="Trazado 214294" d="M2306.371,1017.489a3.3,3.3,0,0,0,.512-3.12,2.826,2.826,0,0,0-.512,3.12" transform="translate(-2030.46 -893.124)" fill="#324d90"/>
            <path id="Trazado_214295" data-name="Trazado 214295" d="M2286.792,997.224a3.3,3.3,0,0,0-1.377-2.847,2.826,2.826,0,0,0,1.377,2.847" transform="translate(-2012.222 -875.522)" fill="#324d90"/>
            <path id="Trazado_214296" data-name="Trazado 214296" d="M2297.491,1109.474s2.475,2.886,5.865,2.119a5.573,5.573,0,0,0-5.865-2.119" transform="translate(-2022.879 -976.7)" fill="#324d90"/>
            <path id="Trazado_214297" data-name="Trazado 214297" d="M2278.01,1183.438s.872-5.571-3.26-8.657a8.266,8.266,0,0,0,3.26,8.657" transform="translate(-2002.666 -1034.363)" fill="#324d90"/>
            <path id="Trazado_214298" data-name="Trazado 214298" d="M2257.863,1249.142s-5.156-2.283-9.205.911a8.266,8.266,0,0,0,9.205-.911" transform="translate(-1979.882 -1099.139)" fill="#324d90"/>
            <path id="Trazado_214299" data-name="Trazado 214299" d="M2200.68,1226.7s-5.315-1.884-9.109,1.609a8.267,8.267,0,0,0,9.109-1.609" transform="translate(-1929.619 -1079.631)" fill="#324d90"/>
            <path id="Trazado_214300" data-name="Trazado 214300" d="M2166.337,1205.816s-4.461-1.3-7.417,1.755a6.811,6.811,0,0,0,7.417-1.755" transform="translate(-1900.87 -1061.446)" fill="#324d90"/>
            <path id="Trazado_214301" data-name="Trazado 214301" d="M2134.726,1183.19s-3.513-1.022-5.841,1.382a5.364,5.364,0,0,0,5.841-1.382" transform="translate(-1874.426 -1041.577)" fill="#324d90"/>
            <path id="Trazado_214302" data-name="Trazado 214302" d="M2109.054,1161.779a4.439,4.439,0,0,0-4.142.98,3.8,3.8,0,0,0,4.142-.98" transform="translate(-1853.318 -1022.78)" fill="#324d90"/>
            <path id="Trazado_214303" data-name="Trazado 214303" d="M2231.64,1170.63s.754-4.817-2.819-7.484a7.147,7.147,0,0,0,2.819,7.484" transform="translate(-1962.253 -1024.118)" fill="#324d90"/>
            <path id="Trazado_214304" data-name="Trazado 214304" d="M2189.268,1155.508s.641-4.1-2.4-6.366a6.079,6.079,0,0,0,2.4,6.366" transform="translate(-1925.341 -1011.788)" fill="#324d90"/>
            <path id="Trazado_214305" data-name="Trazado 214305" d="M2147.022,1142.418a5.047,5.047,0,0,0-1.705-4.528,4.324,4.324,0,0,0,1.705,4.528" transform="translate(-1888.794 -1001.881)" fill="#324d90"/>
            <path id="Trazado_214306" data-name="Trazado 214306" d="M2096.779,1127.011a5.046,5.046,0,0,0-3.465-3.377,4.324,4.324,0,0,0,3.465,3.377" transform="translate(-1843.106 -989.329)" fill="#324d90"/>
            <path id="Trazado_214307" data-name="Trazado 214307" d="M2327.009,1242.634c-1.225-4.393,16.847-12.294,14.35-.064Z" transform="translate(-2048.816 -1088.302)" fill="#2a437d"/>
            <path id="Trazado_214308" data-name="Trazado 214308" d="M236.366,1078.537c-2.951,5.08-1.4,8.5-1.4,8.5,3.9-4.432,1.4-8.5,1.4-8.5" transform="translate(-206.524 -949.622)" fill="#636363"/>
            <path id="Trazado_214309" data-name="Trazado 214309" d="M278.215,1063.449c-2.481,4.272-1.175,7.145-1.175,7.145,3.278-3.727,1.175-7.145,1.175-7.145" transform="translate(-243.624 -936.338)" fill="#636363"/>
            <path id="Trazado_214310" data-name="Trazado 214310" d="M56.463,950.228c-4.045.29-5.39,2.5-5.39,2.5l.1.01q-2.092.96-4.111,2.024a4.953,4.953,0,0,0,.79-5.657c-1.8,3.095-1.173,5.294-1,5.768A113.013,113.013,0,0,0,33.8,963.056l.007.005q-.715.518-1.4,1.03c3.867-5.023,1.128-9.474,1.128-9.474-3.07,5.285-2.049,9.059-1.74,9.933-1.966,1.482-3.754,2.917-5.333,4.237,4.018-5.1,2.683-9.764,1.925-11.529a11.239,11.239,0,0,0,.606-1.008s-4.977-.97-7.509,4.479q.147-1.244.28-2.523h.009c.058-.815.161-1.641.223-2.467a7.4,7.4,0,0,0,6.016-4.1,5.6,5.6,0,0,0-5.974,3.6c.117-1.437.21-2.879.271-4.3a6.525,6.525,0,0,0,5.211-3.6,4.91,4.91,0,0,0-5.189,3.021q.027-.727.041-1.443l.078.013a10.66,10.66,0,0,1-.065-1.923,5.167,5.167,0,0,0,4.226-2.867,3.932,3.932,0,0,0-4.228,2.628c-.007-.7-.025-1.395-.055-2.07h.006c-.035-.422-.044-.848-.079-1.259a4.347,4.347,0,0,0,2.627-3.271,3.234,3.234,0,0,0-2.682,2.582,27.452,27.452,0,0,0-.7-4.365,3.706,3.706,0,0,0-.582-3.4c-1.314,1.889.53,2.968.731,5.617a3.707,3.707,0,0,0-2.6-2.25,2.82,2.82,0,0,0,2.644,2.525c.135.934.233,1.928.3,2.968a4.663,4.663,0,0,0-3.021-2.312,3.486,3.486,0,0,0,3.064,3.114c.051,1.1.068,2.236.058,3.4a4.665,4.665,0,0,0-3.007-2.287,3.478,3.478,0,0,0,3,3.1c-.024,1.226-.076,2.478-.15,3.739a6.216,6.216,0,0,0-4.335-3.705s.137,3.51,4.3,4.209c-.094,1.468-.217,2.945-.36,4.4a7.77,7.77,0,0,0-5.408-4.607s.17,4.367,5.343,5.255c-.186,1.814-.4,3.592-.628,5.278a9.369,9.369,0,0,0-6.665-5.9s.205,5.363,6.6,6.381c-.255,1.864-.52,3.606-.772,5.152a9.382,9.382,0,0,0-6.626-5.791s.2,5.326,6.531,6.371c-.188,1.134-.364,2.148-.52,3.01-6.307-3.294-8.806,1.242-9.421,4.9H26.429a34.511,34.511,0,0,0-5.1-3.852c.594-.556,1.3-1.2,2.1-1.916,6.99,5.641,13.02,1.587,13.02,1.587-7.264-3.837-12.166-2-12.94-1.658a134.98,134.98,0,0,1,10.543-8.475c4.763,3.625,8.757,1.006,8.757,1.006-3.83-2.026-6.691-1.812-8.076-1.5,1.514-1.08,3.109-2.167,4.776-3.238,4.062,3.174,7.489.931,7.489.931-3.5-1.851-6.039-1.485-7.077-1.194,1.426-.908,2.9-1.8,4.421-2.667a4.507,4.507,0,0,0,5.177.626,6.847,6.847,0,0,0-4.738-.875c1.453-.818,2.945-1.608,4.468-2.358a3.544,3.544,0,0,0,4.087.508,5.372,5.372,0,0,0-3.724-.687c3.462-1.821,5.331-.67,6.857-3.579M21.4,961.419a9.116,9.116,0,0,0,5.265-2.207,18.637,18.637,0,0,0-1.117,3.622,7.251,7.251,0,0,0-4.927,4.237c.265-1.738.533-3.649.779-5.652m-.335,12.137c-.454-.268-.922-.524-1.4-.759.159-.882.342-1.926.535-3.1h0c.095-.578.193-1.186.292-1.821a9.1,9.1,0,0,0,4.766-1.814,10.248,10.248,0,0,0,.557,3.265c-1.972,1.669-3.58,3.127-4.754,4.228" transform="translate(-8.78 -823.232)" fill="#636363"/>
            <path id="Trazado_214311" data-name="Trazado 214311" d="M167.958,1200.448c5.66,4.543,10.462,1.394,10.462,1.394-6.391-3.38-10.462-1.394-10.462-1.394" transform="translate(-147.882 -1056.451)" fill="#636363"/>
          </g>
        </g>
      </g>
    </g>
    <g id="Grupo_153710" data-name="Grupo 153710" transform="translate(502.123 -9200.909)">
      <g id="Grupo_153709" data-name="Grupo 153709" clip-path="url(#clip-path-7)">
        <g id="Grupo_153686" data-name="Grupo 153686" transform="translate(0 0)">
          <g id="Grupo_153685" data-name="Grupo 153685" clip-path="url(#clip-path-7)">
            <path id="Trazado_214312" data-name="Trazado 214312" d="M252.275,635.66s-23.752-1.087-29.69-22.744c0,0,19.6,6.857,24.6,11.372,0,0-13.794-15.328-13.312-31.53,0,0,20.084,14.773,22.856,24.7,0,0-6.977-22.948-3.368-34.691,0,0,12.03,21.383,12.751,29.481,0,0-7.545-24.119,4.648-32.551,0,0,10,25.056,10.269,35.356s1.519,20.608,1.519,20.608Z" transform="translate(-199.405 -519.325)" fill="#fff"/>
            <path id="Trazado_214313" data-name="Trazado 214313" d="M1056.321,635.66s23.752-1.087,29.69-22.744c0,0-19.6,6.857-24.595,11.372,0,0,13.794-15.328,13.313-31.53,0,0-20.084,14.773-22.856,24.7,0,0,6.977-22.948,3.368-34.691,0,0-12.03,21.383-12.751,29.481,0,0,7.545-24.119-4.648-32.551,0,0-10,25.056-10.269,35.356s-1.519,20.608-1.519,20.608Z" transform="translate(-919.198 -519.325)" fill="#fff"/>
            <path id="Trazado_214314" data-name="Trazado 214314" d="M647.637.223l.9,1.83a.4.4,0,0,0,.3.218l2.019.293a.4.4,0,0,1,.221.679l-1.461,1.424a.4.4,0,0,0-.115.353l.345,2.011a.4.4,0,0,1-.578.42l-1.806-.95a.4.4,0,0,0-.371,0l-1.806.95a.4.4,0,0,1-.578-.42l.345-2.011a.4.4,0,0,0-.115-.353L643.48,3.244a.4.4,0,0,1,.221-.679l2.019-.293a.4.4,0,0,0,.3-.218l.9-1.83a.4.4,0,0,1,.714,0" transform="translate(-576.358 -0.001)" fill="#fff5db"/>
            <path id="Trazado_214315" data-name="Trazado 214315" d="M765.11.223l.9,1.83a.4.4,0,0,0,.3.218l2.019.293a.4.4,0,0,1,.221.679l-1.461,1.424a.4.4,0,0,0-.115.353l.345,2.011a.4.4,0,0,1-.578.42l-1.806-.95a.4.4,0,0,0-.371,0l-1.806.95a.4.4,0,0,1-.578-.42l.345-2.011a.4.4,0,0,0-.115-.353l-1.461-1.424a.4.4,0,0,1,.221-.679l2.019-.293a.4.4,0,0,0,.3-.218l.9-1.83a.4.4,0,0,1,.714,0" transform="translate(-681.597 -0.001)" fill="#fff5db"/>
            <path id="Trazado_214316" data-name="Trazado 214316" d="M882.584.223l.9,1.83a.4.4,0,0,0,.3.218l2.019.293a.4.4,0,0,1,.221.679l-1.461,1.424a.4.4,0,0,0-.115.353l.345,2.011a.4.4,0,0,1-.578.42l-1.806-.95a.4.4,0,0,0-.371,0l-1.806.95a.4.4,0,0,1-.578-.42L880,5.021a.4.4,0,0,0-.115-.353l-1.461-1.424a.4.4,0,0,1,.221-.679l2.019-.293a.4.4,0,0,0,.3-.218l.9-1.83a.4.4,0,0,1,.714,0" transform="translate(-786.837 -0.001)" fill="#fff5db"/>
            <path id="Trazado_214317" data-name="Trazado 214317" d="M1000.057.223l.9,1.83a.4.4,0,0,0,.3.218l2.019.293a.4.4,0,0,1,.221.679l-1.461,1.424a.4.4,0,0,0-.115.353l.345,2.011a.4.4,0,0,1-.578.42l-1.806-.95a.4.4,0,0,0-.371,0l-1.806.95a.4.4,0,0,1-.578-.42l.345-2.011a.4.4,0,0,0-.115-.353L995.9,3.244a.4.4,0,0,1,.221-.679l2.019-.293a.4.4,0,0,0,.3-.218l.9-1.83a.4.4,0,0,1,.714,0" transform="translate(-892.076 -0.001)" fill="#fff5db"/>
            <path id="Trazado_214318" data-name="Trazado 214318" d="M1117.53.223l.9,1.83a.4.4,0,0,0,.3.218l2.019.293a.4.4,0,0,1,.221.679l-1.461,1.424a.4.4,0,0,0-.115.353l.345,2.011a.4.4,0,0,1-.578.42l-1.806-.95a.4.4,0,0,0-.371,0l-1.806.95a.4.4,0,0,1-.578-.42l.345-2.011a.4.4,0,0,0-.115-.353l-1.461-1.424a.4.4,0,0,1,.221-.679l2.019-.293a.4.4,0,0,0,.3-.218l.9-1.83a.4.4,0,0,1,.714,0" transform="translate(-997.315 -0.001)" fill="#fff5db"/>
            <rect id="Rectángulo_43866" data-name="Rectángulo 43866" width="21.559" height="0.19" transform="translate(141.648 103.32)" fill="#152e60"/>
            <rect id="Rectángulo_43867" data-name="Rectángulo 43867" width="10.81" height="0.19" transform="translate(167.46 103.32)" fill="#152e60"/>
            <rect id="Rectángulo_43868" data-name="Rectángulo 43868" width="28.132" height="0.19" transform="translate(198.621 90.711)" fill="#152e60"/>
            <rect id="Rectángulo_43869" data-name="Rectángulo 43869" width="28.132" height="0.19" transform="translate(178.006 97.016)" fill="#152e60"/>
            <rect id="Rectángulo_43870" data-name="Rectángulo 43870" width="22.278" height="0.19" transform="translate(139.934 69.214)" fill="#152e60"/>
            <rect id="Rectángulo_43871" data-name="Rectángulo 43871" width="25.52" height="0.19" transform="translate(165.038 69.214)" fill="#152e60"/>
            <path id="Trazado_214319" data-name="Trazado 214319" d="M216.261,264.079H190.478a4.694,4.694,0,0,1,4.995-2.02,6.069,6.069,0,0,1,10.912-1.506,3,3,0,0,1,4.749.978,6.93,6.93,0,0,1,5.127,2.549" transform="translate(-170.641 -230.922)" fill="#fff"/>
            <path id="Trazado_214320" data-name="Trazado 214320" d="M1213.147,317.2h-26.511a4.754,4.754,0,0,1,4.55-2.348,5.64,5.64,0,0,1,9.984-1.626,2.96,2.96,0,0,1,4.1,1.543c2.774-1.291,6.566-.331,7.881,2.431" transform="translate(-1063.057 -278.492)" fill="#fff"/>
            <path id="Trazado_214321" data-name="Trazado 214321" d="M1490.081,123.27h-11.873a2.224,2.224,0,0,1,1.592-.76,1.934,1.934,0,0,0,.539-.036,1.5,1.5,0,0,0,.532-.383,4.475,4.475,0,0,1,5.054-.614,1.866,1.866,0,0,0,.529.237,3.3,3.3,0,0,0,.606,0,1.464,1.464,0,0,1,1.251.747,1.663,1.663,0,0,1,1.77.811" transform="translate(-1324.264 -108.364)" fill="#fff"/>
            <path id="Trazado_214322" data-name="Trazado 214322" d="M0,1134.834c65.368-.416,133.655-.418,199.034-.085l13.269.085-13.269.085c-65.382.332-133.663.331-199.034-.085" transform="translate(0 -1016.359)" fill="#152e60"/>
            <rect id="Rectángulo_43872" data-name="Rectángulo 43872" width="6.319" height="30.92" transform="translate(92.008 39.971)" fill="#f9ce68"/>
          </g>
        </g>
        <g id="Grupo_153688" data-name="Grupo 153688" transform="translate(92.008 39.971)">
          <g id="Grupo_153687" data-name="Grupo 153687" clip-path="url(#clip-path-9)">
            <rect id="Rectángulo_43874" data-name="Rectángulo 43874" width="8.75" height="6.851" transform="translate(-1.173 -0.835)" fill="#f08f3c"/>
          </g>
        </g>
        <g id="Grupo_153696" data-name="Grupo 153696" transform="translate(0 0)">
          <g id="Grupo_153695" data-name="Grupo 153695" clip-path="url(#clip-path-7)">
            <rect id="Rectángulo_43876" data-name="Rectángulo 43876" width="29.658" height="10.337" transform="translate(80.338 68.108)" fill="#2a437d"/>
            <rect id="Rectángulo_43877" data-name="Rectángulo 43877" width="22.731" height="7.267" transform="translate(83.802 69.574)" fill="#324d90"/>
            <path id="Trazado_214323" data-name="Trazado 214323" d="M814.893,675.484a.578.578,0,1,1-.578-.578.578.578,0,0,1,.578.578" transform="translate(-728.993 -604.62)" fill="#2a437d"/>
            <path id="Trazado_214324" data-name="Trazado 214324" d="M814.893,720.854a.578.578,0,1,1-.578-.578.578.578,0,0,1,.578.578" transform="translate(-728.993 -645.265)" fill="#2a437d"/>
            <path id="Trazado_214325" data-name="Trazado 214325" d="M1004.92,675.3a.578.578,0,1,1-.578-.578.578.578,0,0,1,.578.578" transform="translate(-899.23 -604.459)" fill="#2a437d"/>
            <path id="Trazado_214326" data-name="Trazado 214326" d="M1004.92,720.674a.578.578,0,1,1-.578-.578.578.578,0,0,1,.578.578" transform="translate(-899.23 -645.104)" fill="#2a437d"/>
            <path id="Trazado_214327" data-name="Trazado 214327" d="M708.334,132.776a10.31,10.31,0,0,0-12.37-10.025v-3.33H666.306v3.33a10.31,10.31,0,0,0-12.37,10.025,13.274,13.274,0,0,0,3.488,9.846c3.12,3.35,8,5.191,14.549,5.5a14.766,14.766,0,0,0,9.161,3.168h0a14.766,14.766,0,0,0,9.161-3.168c6.547-.3,11.43-2.145,14.549-5.5a13.274,13.274,0,0,0,3.488-9.846M659.667,140.6a10.164,10.164,0,0,1-2.726-7.568l.011-.091v-.091a7.3,7.3,0,0,1,9.354-7v10.6a14.759,14.759,0,0,0,2.563,8.335,22.561,22.561,0,0,1-3.551-.814,13.145,13.145,0,0,1-5.651-3.373m42.937,0a13.144,13.144,0,0,1-5.651,3.373,22.561,22.561,0,0,1-3.551.814,14.76,14.76,0,0,0,2.563-8.335v-10.6a7.3,7.3,0,0,1,9.354,7v.091l.011.091A10.164,10.164,0,0,1,702.6,140.6" transform="translate(-585.804 -106.984)" fill="#f9ce68"/>
            <path id="Trazado_214328" data-name="Trazado 214328" d="M813,133.151l3.679,7.454,8.226,1.2-5.952,5.8,1.405,8.192L813,151.926l-7.357,3.868,1.405-8.192-5.952-5.8,8.226-1.2Z" transform="translate(-717.665 -119.284)" fill="#f08f3c"/>
            <g id="Grupo_153691" data-name="Grupo 153691" transform="translate(100.847 14.626)" opacity="0.18">
              <g id="Grupo_153690" data-name="Grupo 153690">
                <g id="Grupo_153689" data-name="Grupo 153689" clip-path="url(#clip-path-11)">
                  <path id="Trazado_214329" data-name="Trazado 214329" d="M968.357,140.44h6.389v13.109s-.259,8.643-6.389,12.006Z" transform="translate(-968.357 -140.44)" fill="#fff"/>
                </g>
              </g>
            </g>
            <g id="Grupo_153694" data-name="Grupo 153694" transform="translate(94.957 14.626)" opacity="0.18">
              <g id="Grupo_153693" data-name="Grupo 153693">
                <g id="Grupo_153692" data-name="Grupo 153692" clip-path="url(#clip-path-12)">
                  <path id="Trazado_214330" data-name="Trazado 214330" d="M915.955,140.44v25.118L911.8,140.44Z" transform="translate(-911.803 -140.44)" fill="#fff"/>
                </g>
              </g>
            </g>
            <rect id="Rectángulo_43880" data-name="Rectángulo 43880" width="38.196" height="26.272" transform="translate(76.234 78.445)" fill="#324d90"/>
            <path id="Trazado_214331" data-name="Trazado 214331" d="M506.18,1128.072c0,7.221-24.056,13.1-53.625,13.1s-53.625-5.875-53.625-13.1l-.554-3.987,107.134-.85Z" transform="translate(-356.888 -1006.26)" fill="#f08f3c"/>
            <path id="Trazado_214332" data-name="Trazado 214332" d="M450.887,1023.675c-29.569,0-53.625-5.875-53.625-13.1s24.056-13.1,53.625-13.1,53.625,5.875,53.625,13.1-24.056,13.1-53.625,13.1" transform="translate(-355.89 -893.602)" fill="#f9ce68"/>
            <path id="Trazado_214333" data-name="Trazado 214333" d="M552.287,1045.56c-23.069,0-41.837-4.584-41.837-10.217s18.768-10.218,41.837-10.218,41.838,4.584,41.838,10.218-18.768,10.217-41.838,10.217" transform="translate(-457.291 -918.366)" fill="#fff"/>
            <path id="Trazado_214334" data-name="Trazado 214334" d="M653.687,1067.445c-16.57,0-30.05-3.292-30.05-7.339s13.48-7.339,30.05-7.339,30.05,3.292,30.05,7.339-13.48,7.339-30.05,7.339" transform="translate(-558.69 -943.13)" fill="#f9ce68"/>
            <path id="Trazado_214335" data-name="Trazado 214335" d="M755.086,1089.33c-10.07,0-18.262-2-18.262-4.46s8.193-4.46,18.262-4.46,18.262,2,18.262,4.46-8.193,4.46-18.262,4.46" transform="translate(-660.089 -967.894)" fill="#fff"/>
            <path id="Trazado_214336" data-name="Trazado 214336" d="M862.962,1109.634c0,.873-2.9,1.581-6.475,1.581s-6.475-.708-6.475-1.581,2.9-1.581,6.475-1.581,6.475.708,6.475,1.581" transform="translate(-761.49 -992.658)" fill="#f9ce68"/>
            <path id="Trazado_214337" data-name="Trazado 214337" d="M1083.4,283.1l21.132,1.458a6.837,6.837,0,0,0,2.169-.2l5.921-1.518-3.626-6.941-5.386,1.7-19.91,2.2s-4.922-.295-5.354-.2-6.464,2.35-6.176,2.59a2.883,2.883,0,0,0,1.365.577,21.763,21.763,0,0,0,3.166-.392,18.444,18.444,0,0,1,3.507-.272s-3.141,1.7-3.045,1.887a2.679,2.679,0,0,0,1.386.478c1.005-.12,4.851-1.368,4.851-1.368" transform="translate(-960.499 -247.171)" fill="#f4d2c6"/>
          </g>
        </g>
        <g id="Grupo_153698" data-name="Grupo 153698" transform="translate(111.657 28.733)">
          <g id="Grupo_153697" data-name="Grupo 153697" clip-path="url(#clip-path-13)">
            <path id="Trazado_214338" data-name="Trazado 214338" d="M1368.133,274.536l5.738,7.348,3.183-1.339-4.162-7.5Z" transform="translate(-1337.309 -273.342)" fill="#eda19d"/>
          </g>
        </g>
        <g id="Grupo_153700" data-name="Grupo 153700" transform="translate(0 0)">
          <g id="Grupo_153699" data-name="Grupo 153699" clip-path="url(#clip-path-7)">
            <path id="Trazado_214340" data-name="Trazado 214340" d="M1413.966,206.965l-14.9,7.363,4.148,8.113,13.84-3.165Z" transform="translate(-1253.366 -185.411)" fill="#9f321d"/>
            <path id="Trazado_214341" data-name="Trazado 214341" d="M1457.73,112.746l-2.232-4.756h0c.053-.154.1-.309.148-.469.932-3.358-.549-6.7-3.31-7.468s-5.591.175-6.524,3.533.386,7.861,3.147,8.628a4.579,4.579,0,0,0,3.256-.344l.535,4.085Z" transform="translate(-1294.976 -89.41)" fill="#f4d2c6"/>
          </g>
        </g>
        <g id="Grupo_153702" data-name="Grupo 153702" transform="translate(150.539 10.394)">
          <g id="Grupo_153701" data-name="Grupo 153701" clip-path="url(#clip-path-15)">
            <path id="Trazado_214342" data-name="Trazado 214342" d="M1432.629,128.374a5.854,5.854,0,0,0,5.649,1.229h0l-2.907-3.863Z" transform="translate(-1433.971 -123.039)" fill="#eda19d"/>
            <path id="Trazado_214343" data-name="Trazado 214343" d="M1465.216,202.223s.932-.848.949-1.563c0,0-2.648,2.371-5.064,1.523h0a3.493,3.493,0,0,0,4.115.04" transform="translate(-1458.516 -190.157)" fill="#eda19d"/>
          </g>
        </g>
        <g id="Grupo_153704" data-name="Grupo 153704" transform="translate(0 0)">
          <g id="Grupo_153703" data-name="Grupo 153703" clip-path="url(#clip-path-7)">
            <path id="Trazado_214345" data-name="Trazado 214345" d="M1981.71,895.615l1.329,1.37-.723,6.116a1.834,1.834,0,0,0,.906,1.8l5.835-10.131-5.375-2.584Z" transform="translate(-1775.33 -799.276)" fill="#152e60"/>
            <path id="Trazado_214346" data-name="Trazado 214346" d="M1074.921,953.238l-1.212,1.476-6.159-.028a1.834,1.834,0,0,0-1.691,1.1l10.724,4.654,1.961-5.633Z" transform="translate(-954.859 -853.966)" fill="#152e60"/>
            <path id="Trazado_214347" data-name="Trazado 214347" d="M1164.537,467.582l33.271-12.927-8.733-18.279-30.364,21.118a10.613,10.613,0,0,0-3.461,4.024l-14.159,28.751,5.205,2.46Z" transform="translate(-1022.255 -390.931)" fill="#afafaf"/>
            <path id="Trazado_214348" data-name="Trazado 214348" d="M1526.7,486.458l-15.909-25.2,18.216-7.154,9.714,29.069,24.083,16.5-2.335,5.137-27-12.041a14.253,14.253,0,0,1-6.767-6.3" transform="translate(-1353.456 -406.808)" fill="#afafaf"/>
            <path id="Trazado_214349" data-name="Trazado 214349" d="M1224.3,596.662l-3.834-6.075L1198.95,602.7l-17.2,27.717.971.459,18.241-25.146Z" transform="translate(-1058.676 -529.082)" fill="#636363"/>
            <path id="Trazado_214350" data-name="Trazado 214350" d="M1484.069,224.878l2.671-27.139,4.425-4.871a20.717,20.717,0,0,1,9.365,8.218c3.538,5.98,7.491,26.151,7.491,26.151a29.028,29.028,0,0,1-23.951-2.359" transform="translate(-1329.515 -172.782)" fill="#9f321d"/>
            <path id="Trazado_214351" data-name="Trazado 214351" d="M1432.289,84.44v0a4.709,4.709,0,0,0-.818-.607c-3.606-2.109-10.8,1.2-10.707,7.273a16.316,16.316,0,0,1,2.289-3.078,5.21,5.21,0,0,0-1.392,4.452s1.585-3.11,2.734-3.94a6.037,6.037,0,0,0,5.781,3.381l2.293,2.225,1.109-.5s3.084-7.177-1.287-9.211" transform="translate(-1272.801 -74.533)" fill="#59445a"/>
            <path id="Trazado_214352" data-name="Trazado 214352" d="M1488.935,147.307a1.179,1.179,0,1,1-.8-1.635,1.3,1.3,0,0,1,.8,1.635" transform="translate(-1331.816 -130.478)" fill="#f4d2c6"/>
            <path id="Trazado_214353" data-name="Trazado 214353" d="M1641.024,318.4h0l-6.953-20.008a6.832,6.832,0,0,0-1.034-1.917l-3.72-4.849-4.961,6.059,3.68,4.286,9.834,17.451s-.352,2.491.263,3.339,2.094,1.841,2.892,1.51,2.264-3.453,2.264-3.973-2.264-1.9-2.264-1.9" transform="translate(-1455.192 -261.252)" fill="#f4d2c6"/>
          </g>
        </g>
        <g id="Grupo_153706" data-name="Grupo 153706" transform="translate(169.164 30.37)">
          <g id="Grupo_153705" data-name="Grupo 153705" clip-path="url(#clip-path-17)">
            <path id="Trazado_214354" data-name="Trazado 214354" d="M1628.442,306.079l4.942-7.635-1.665-1.464-5.265,6.772Z" transform="translate(-1626.235 -296.422)" fill="#eda19d"/>
          </g>
        </g>
        <g id="Grupo_153708" data-name="Grupo 153708" transform="translate(0 0)">
          <g id="Grupo_153707" data-name="Grupo 153707" clip-path="url(#clip-path-7)">
            <path id="Trazado_214356" data-name="Trazado 214356" d="M1554.149,230.264l8.789,8.411-6.763,6.488-8.356-6.7Z" transform="translate(-1386.625 -206.284)" fill="#9f321d"/>
            <path id="Trazado_214357" data-name="Trazado 214357" d="M1476.89,272.9l.787-8s-3.414,6.29-3.435,8.6Z" transform="translate(-1320.711 -237.314)" fill="#742313"/>
            <path id="Trazado_214358" data-name="Trazado 214358" d="M1570.473,317.85l-.867.832-6.795-6.353s5.547,8.092,7.018,9.149a13.777,13.777,0,0,0,4.5,1.573l-1.428-2.534Z" transform="translate(-1400.056 -279.802)" fill="#742313"/>
            <path id="Trazado_214359" data-name="Trazado 214359" d="M1512.575,197.411l2.136,1.394s3.5-3.581,1.99-5.937Z" transform="translate(-1355.052 -172.782)" fill="#fff"/>
            <path id="Trazado_214360" data-name="Trazado 214360" d="M1496.53,236.489l1.4.913-.969,1.36,2.32,14.231L1497,257.9l-2.332-5.16,1.411-14.337Z" transform="translate(-1339.007 -211.86)" fill="#fecd4d"/>
          </g>
        </g>
      </g>
    </g>
    <g id="Grupo_153712" data-name="Grupo 153712" transform="translate(271.957 -9421.926)">
      <path id="Trazado_190764" data-name="Trazado 190764" d="M314.177,292.445a2.861,2.861,0,1,1-2.86-2.86,2.86,2.86,0,0,1,2.86,2.86" transform="translate(-109.14 -56)" fill="#191a1a"/>
      <path id="Trazado_190765" data-name="Trazado 190765" d="M314.177,277.786a2.861,2.861,0,1,1-2.86-2.86,2.86,2.86,0,0,1,2.86,2.86" transform="translate(-109.14 -56)" fill="#191a1a"/>
      <path id="Trazado_190766" data-name="Trazado 190766" d="M329.227,292.445a2.86,2.86,0,1,1-2.86-2.86,2.86,2.86,0,0,1,2.86,2.86" transform="translate(-109.14 -56)" fill="#191a1a"/>
      <path id="Trazado_190767" data-name="Trazado 190767" d="M329.227,277.786a2.86,2.86,0,1,1-2.86-2.86,2.86,2.86,0,0,1,2.86,2.86" transform="translate(-109.14 -56)" fill="#191a1a"/>
      <path id="Trazado_190768" data-name="Trazado 190768" d="M342.85,292.445a2.861,2.861,0,1,1-2.86-2.86,2.86,2.86,0,0,1,2.86,2.86" transform="translate(-109.14 -56)" fill="#191a1a"/>
      <path id="Trazado_190769" data-name="Trazado 190769" d="M342.85,277.786a2.861,2.861,0,1,1-2.86-2.86,2.86,2.86,0,0,1,2.86,2.86" transform="translate(-109.14 -56)" fill="#191a1a"/>
    </g>
    <rect id="Rectángulo_43887" data-name="Rectángulo 43887" width="284" height="55" transform="translate(471 -9208)" fill="none"/>
  </g>
</svg>
