<svg xmlns="http://www.w3.org/2000/svg" width="85" height="85" viewBox="0 0 85 85">
  <g id="Grupo_154294" data-name="Grupo 154294" transform="translate(-705.066 -740)">
    <g id="Grupo_153830" data-name="Grupo 153830" transform="translate(1714.875 -331.029)">
      <path id="Trazado_120034" data-name="Trazado 120034" d="M42.5,0A42.5,42.5,0,1,1,0,42.5,42.5,42.5,0,0,1,42.5,0Z" transform="translate(-1009.808 1071.03)" fill="#2c53a0"/>
      <path id="Trazado_101024" data-name="Trazado 101024" d="M-935.427,1096.2a41.334,41.334,0,0,0-2.083-12.965,42.352,42.352,0,0,0-29.8-12.206,42.5,42.5,0,0,0-42.5,42.5,42.642,42.642,0,0,0,.936,8.881,41.316,41.316,0,0,0,32.044,15.191A41.4,41.4,0,0,0-935.427,1096.2Z" transform="translate(0 0)" fill="#5b82cf"/>
      <g id="layer1" transform="translate(-991.56 809.958)">
        <path id="path17996-0" d="M.529,284.035V319.01a2.393,2.393,0,0,0,2.383,2.381H45.837a2.392,2.392,0,0,0,2.381-2.381V284.035Z" transform="translate(0 6.892)" fill="#fff"/>
        <path id="path17998-2" d="M2.912,280.6a2.394,2.394,0,0,0-2.383,2.383v8.745H48.219v-8.745a2.393,2.393,0,0,0-2.381-2.383Z" transform="translate(0 0)" fill="#33658a"/>
        <g id="Grupo_153828" data-name="Grupo 153828" transform="translate(26.71 283.777)">
          <path id="path18000-9" d="M3.97,281.655a2.385,2.385,0,1,0,2.388,2.382,2.393,2.393,0,0,0-2.388-2.382Z" transform="translate(-1.588 -281.655)" fill="#fecd4d"/>
          <path id="path18002-0" d="M6.087,281.655a2.385,2.385,0,1,0,2.382,2.382A2.393,2.393,0,0,0,6.087,281.655Z" transform="translate(2.655 -281.655)" fill="#fecd4d"/>
          <path id="path18004-80" d="M8.208,281.655a2.385,2.385,0,1,0,2.382,2.382,2.4,2.4,0,0,0-2.382-2.382Z" transform="translate(6.894 -281.655)" fill="#9f321d"/>
        </g>
        <path id="path18615" d="M2.914,285.358a.8.8,0,0,0-.8.792v20.671a.8.8,0,0,0,.8.792H39.473a.8.8,0,0,0,.8-.792V286.15a.8.8,0,0,0-.8-.792Z" transform="translate(3.18 9.543)" fill="red"/>
        <path id="path16811" d="M39.5,295.416a.8.8,0,0,0,0-1.59H2.9a.8.8,0,1,0,.041,1.59Z" transform="translate(3.158 26.513)" fill="#33658a"/>
        <path id="path16813" d="M5.543,293.292a.8.8,0,0,0-.78.8v3.18a.8.8,0,0,0,1.59,0V294.1a.795.795,0,0,0-.81-.8Z" transform="translate(8.484 25.443)" fill="#33658a"/>
        <path id="path18623" d="M7.143,288.26v7.95a.8.8,0,0,0,1.215.675l6.36-3.978a.8.8,0,0,0,0-1.344l-6.36-3.978a.831.831,0,0,0-1.215.675Z" transform="translate(13.255 13.794)" fill="#fff"/>
      </g>
    </g>
    <path id="Trazado_216843" data-name="Trazado 216843" d="M220.127,8.71a4.526,4.526,0,0,1-1.525,3.252,5.352,5.352,0,0,1-3.625,1.186,4.81,4.81,0,0,1-3.871-1.656,6.786,6.786,0,0,1-1.412-4.549V6.161a7.668,7.668,0,0,1,.651-3.252A4.868,4.868,0,0,1,212.2.752a5.807,5.807,0,0,1,6.377.435,4.869,4.869,0,0,1,1.565,3.331h-2.637a2.675,2.675,0,0,0-.69-1.8,2.557,2.557,0,0,0-1.806-.559,2.241,2.241,0,0,0-1.973.945,5.293,5.293,0,0,0-.673,2.931v.967a5.676,5.676,0,0,0,.628,3.032,2.2,2.2,0,0,0,1.983.958,2.608,2.608,0,0,0,1.824-.557,2.529,2.529,0,0,0,.689-1.728Z" transform="translate(519.066 754.426)" fill="#fff"/>
  </g>
</svg>
