<svg xmlns="http://www.w3.org/2000/svg" xmlns:xlink="http://www.w3.org/1999/xlink" width="85" height="85.001" viewBox="0 0 85 85.001">
  <defs>
    <clipPath id="clip-path">
      <path id="Unión_9" data-name="Unión 9" d="M1308,11742.5a42.5,42.5,0,0,1,42-42.5v0h43v46h-.142a42.5,42.5,0,0,1-84.857-3.5Z" transform="translate(-393.001 -7276)" fill="#fecd4d"/>
    </clipPath>
  </defs>
  <g id="Grupo_154382" data-name="Grupo 154382" transform="translate(-285 -4360)">
    <circle id="Elipse_4966" data-name="Elipse 4966" cx="42.5" cy="42.5" r="42.5" transform="translate(285 4360)" fill="#fecd4d"/>
    <g id="Enmascarar_grupo_153686" data-name="Enmascarar grupo 153686" transform="translate(-630 -64)" clip-path="url(#clip-path)">
      <g id="editar-documento_1_" data-name="editar-documento (1)" transform="translate(923.509 4439.49)">
        <g id="Grupo_153725" data-name="Grupo 153725" transform="translate(2 2)">
          <path id="Trazado_214442" data-name="Trazado 214442" d="M42.721,2H2V75.88H59.2v-57.4Z" transform="translate(-2 -2)" fill="#eff3f5"/>
          <path id="Trazado_214443" data-name="Trazado 214443" d="M282,18.478h16.478L282,2Z" transform="translate(-241.279 -2)" fill="#dbdfe0"/>
          <g id="Grupo_153724" data-name="Grupo 153724" transform="translate(8.755 24.331)">
            <path id="Trazado_214445" data-name="Trazado 214445" d="M62.2,169.3h39.689v4.378H62.2Z" transform="translate(-62.2 -169.3)" fill="#dbdfe0"/>
            <path id="Trazado_214446" data-name="Trazado 214446" d="M62.2,253.4h39.689v4.378H62.2Z" transform="translate(-62.2 -241.169)" fill="#dbdfe0"/>
            <path id="Trazado_214447" data-name="Trazado 214447" d="M62.2,337.5h39.689v4.378H62.2Z" transform="translate(-62.2 -313.038)" fill="#dbdfe0"/>
            <path id="Trazado_214448" data-name="Trazado 214448" d="M62.2,417.3h39.689v4.378H62.2Z" transform="translate(-62.2 -381.233)" fill="#dbdfe0"/>
          </g>
        </g>
      </g>
    </g>
    <g id="roto" transform="translate(285 4360)">
      <path id="Trazado_214362" data-name="Trazado 214362" d="M55.006,229.861a18.64,18.64,0,0,0-26.36,0L18.2,240.309a18.82,18.82,0,0,0-2.945,3.824,42.624,42.624,0,0,0,25.483,25.483,18.643,18.643,0,0,0,3.824-2.945l10.446-10.449a18.637,18.637,0,0,0,0-26.36Zm-8.037,18.323L36.523,258.633a7.274,7.274,0,0,1-10.287-10.287L36.683,237.9a7.274,7.274,0,0,1,10.286,10.286Zm0,0" transform="translate(-12.722 -187.148)" fill="#5a9ed1"/>
      <path id="Trazado_214363" data-name="Trazado 214363" d="M264.089,8.152a18.639,18.639,0,0,0-26.36,0L227.281,18.6a18.639,18.639,0,0,0,26.36,26.36l10.448-10.447a18.639,18.639,0,0,0,0-26.36ZM245.6,36.923a7.274,7.274,0,0,1-10.286-10.287l10.447-10.447a7.274,7.274,0,0,1,10.287,10.286Zm0,0" transform="translate(-184.996 -2.245)" fill="#5a9ed1"/>
      <g id="Grupo_153714" data-name="Grupo 153714" transform="translate(2.532 0.447)">
        <path id="Trazado_214364" data-name="Trazado 214364" d="M315,116.037a7.27,7.27,0,0,0,11.689,1.974l10.448-10.448a7.27,7.27,0,0,0-1.974-11.689,7.284,7.284,0,0,1-1.4,8.313l-10.448,10.448A7.284,7.284,0,0,1,315,116.037Zm0,0" transform="translate(-265.241 -80.405)" fill="#2d81b5"/>
        <path id="Trazado_214365" data-name="Trazado 214365" d="M230.656,21.975,241.1,11.528a18.638,18.638,0,0,1,24.561-1.576,18.608,18.608,0,0,0-27.936-1.8L227.281,18.6a18.611,18.611,0,0,0,1.8,27.936A18.638,18.638,0,0,1,230.656,21.975Zm0,0" transform="translate(-187.528 -2.693)" fill="#2d81b5"/>
        <path id="Trazado_214366" data-name="Trazado 214366" d="M93.293,337.749a7.269,7.269,0,0,0,11.689,1.973l10.447-10.447a7.271,7.271,0,0,0-1.973-11.689,7.285,7.285,0,0,1-1.4,8.314l-10.447,10.447A7.285,7.285,0,0,1,93.293,337.749Zm0,0" transform="translate(-80.337 -265.309)" fill="#2d81b5"/>
        <path id="Trazado_214367" data-name="Trazado 214367" d="M56.583,231.662a18.639,18.639,0,0,0-24.562,1.575L21.576,243.686a18.542,18.542,0,0,0-3.945,5.809,42.655,42.655,0,0,1-2.377-5.361h0a18.82,18.82,0,0,1,2.945-3.824l10.447-10.448a18.607,18.607,0,0,1,27.937,1.8Zm0,0" transform="translate(-15.254 -187.595)" fill="#2d81b5"/>
        <path id="Trazado_214368" data-name="Trazado 214368" d="M170.3,146.519l-26.36,26.359a7.284,7.284,0,0,1-8.1,1.5,7.186,7.186,0,0,1-2.185-1.5,7.282,7.282,0,0,1,0-10.286l26.36-26.36a7.282,7.282,0,0,1,10.286,0,7.192,7.192,0,0,1,1.5,2.186,7.284,7.284,0,0,1-1.5,8.1Zm0,0" transform="translate(-112.221 -112.289)" fill="#2d81b5"/>
      </g>
      <path id="Trazado_214369" data-name="Trazado 214369" d="M188.818,165.043,162.458,191.4a7.284,7.284,0,0,1-8.1,1.5,7.283,7.283,0,0,1,1.5-8.1l26.36-26.359a7.282,7.282,0,0,1,8.1-1.5A7.284,7.284,0,0,1,188.818,165.043Zm0,0" transform="translate(-128.21 -130.365)" fill="#5a9ed1"/>
      <path id="Trazado_214370" data-name="Trazado 214370" d="M30.086,172.71H17.2a2.225,2.225,0,0,1,0-4.451H30.044A2.225,2.225,0,0,1,31.715,172l-.66.707Zm0,0" transform="translate(-12.487 -140.324)" fill="#9f321d"/>
      <path id="Trazado_214371" data-name="Trazado 214371" d="M173.678,29.113a2.225,2.225,0,0,1-2.224-2.3V14a2.225,2.225,0,1,1,4.451,0V27.765l-.6.641a2.219,2.219,0,0,1-1.628.708Zm0,0" transform="translate(-142.989 -9.819)" fill="#9f321d"/>
      <path id="Trazado_214372" data-name="Trazado 214372" d="M72.146,71.177a2.216,2.216,0,0,1-1.573-.652L61.46,61.411a2.225,2.225,0,0,1,3.147-3.147l9.113,9.113a2.225,2.225,0,0,1-1.574,3.8Zm0,0" transform="translate(-50.713 -48.048)" fill="#9f321d"/>
    </g>
  </g>
</svg>
