<svg xmlns="http://www.w3.org/2000/svg" xmlns:xlink="http://www.w3.org/1999/xlink" width="85.001" height="85.001" viewBox="0 0 85.001 85.001">
  <defs>
    <clipPath id="clip-path">
      <path id="Unión_6" data-name="Unión 6" d="M1308,11742.5a42.5,42.5,0,0,1,42-42.5v0h43v46h-.142a42.5,42.5,0,0,1-84.857-3.5Z" transform="translate(-708 -7276)" fill="#fecd4d"/>
    </clipPath>
  </defs>
  <g id="Grupo_154385" data-name="Grupo 154385" transform="translate(-600 -4360)">
    <path id="Trazado_214402" data-name="Trazado 214402" d="M437.578,391.131a4.469,4.469,0,0,0-.892-5.046l-6.995-6.995a.8.8,0,0,0-1.13,0l-3.6,3.6-.522,2.082,6.548,6.783A4.885,4.885,0,0,0,437.578,391.131Z" transform="translate(247.005 4046.537)" fill="#9f321d"/>
    <g id="Grupo_154384" data-name="Grupo 154384">
      <g id="Grupo_154383" data-name="Grupo 154383">
        <circle id="Elipse_4967" data-name="Elipse 4967" cx="42.5" cy="42.5" r="42.5" transform="translate(600 4360)" fill="#fecd4d"/>
        <g id="Enmascarar_grupo_153683" data-name="Enmascarar grupo 153683" transform="translate(0 -64)" clip-path="url(#clip-path)">
          <g id="search" transform="translate(607 4431.757)">
            <g id="Grupo_153716" data-name="Grupo 153716" transform="translate(0)">
              <path id="Trazado_214373" data-name="Trazado 214373" d="M0,0H6.408V9.091H0Z" transform="translate(58.51 57.302) rotate(-45)" fill="#ecdaec"/>
              <path id="Trazado_214374" data-name="Trazado 214374" d="M400.858,347.387l-6.428-6.428-2.374,2.374,2.136,4.923,4.293,1.5h2.374Z" transform="translate(-331.377 -288.189)" fill="#afafaf"/>
              <path id="Trazado_214375" data-name="Trazado 214375" d="M380.277,356.3l-2.157,2.157,6.428,6.428h2.157v-2.157Z" transform="translate(-319.598 -301.154)" fill="#636363"/>
              <path id="Trazado_214376" data-name="Trazado 214376" d="M2.4,77.76H55.179c1.323,0,2.4-.914,2.4-3.789V17.724L42.728,0H2.4A2.4,2.4,0,0,0,0,2.4V73.97c0,2.876,1.073,3.789,2.4,3.789Z" transform="translate(0 0)" fill="#f9f6f6"/>
              <path id="Trazado_214377" data-name="Trazado 214377" d="M276.072,80.451a2.4,2.4,0,0,0,2.4,2.4" transform="translate(-233.344 -68)" fill="#e2cbe2"/>
              <g id="Grupo_153715" data-name="Grupo 153715" transform="translate(21.12 22.04)">
                <path id="Trazado_214378" data-name="Trazado 214378" d="M164.411,144.8H137.658a1.2,1.2,0,0,1,0-2.4h26.752a1.2,1.2,0,1,1,0,2.4Z" transform="translate(-136.46 -142.403)" fill="#365e7d"/>
                <path id="Trazado_214379" data-name="Trazado 214379" d="M153.031,182.515H137.658a1.2,1.2,0,1,1,0-2.4h15.372a1.2,1.2,0,1,1,0,2.4Z" transform="translate(-136.46 -174.282)" fill="#365e7d"/>
                <path id="Trazado_214380" data-name="Trazado 214380" d="M147.31,253.353h-9.652a1.2,1.2,0,0,1,0-2.4h9.652a1.2,1.2,0,0,1,0,2.4Z" transform="translate(-136.46 -234.156)" fill="#365e7d"/>
                <path id="Trazado_214381" data-name="Trazado 214381" d="M147.4,291.068h-9.737a1.2,1.2,0,1,1,0-2.4H147.4a1.2,1.2,0,1,1,0,2.4Z" transform="translate(-136.46 -266.034)" fill="#365e7d"/>
                <path id="Trazado_214382" data-name="Trazado 214382" d="M152.694,364.112H137.658a1.2,1.2,0,0,1,0-2.4h15.035a1.2,1.2,0,0,1,0,2.4Z" transform="translate(-136.46 -327.773)" fill="#365e7d"/>
                <path id="Trazado_214383" data-name="Trazado 214383" d="M164.218,401.827H137.658a1.2,1.2,0,0,1,0-2.4h26.559a1.2,1.2,0,0,1,0,2.4Z" transform="translate(-136.46 -359.651)" fill="#365e7d"/>
              </g>
              <path id="Trazado_214384" data-name="Trazado 214384" d="M193.415,182.89a19.888,19.888,0,0,0,28.126,0,20.382,20.382,0,0,0,5.773-14.295,19.888,19.888,0,0,0-39.672,0A20.76,20.76,0,0,0,193.415,182.89Z" transform="translate(-158.6 -126.907)" fill="#afafaf"/>
              <path id="Trazado_214385" data-name="Trazado 214385" d="M223.238,198.568a14.783,14.783,0,0,0,4.145,10.377,14.4,14.4,0,0,0,20.364,0,15.343,15.343,0,0,0,4.145-10.377,14.4,14.4,0,0,0-28.654,0Z" transform="translate(-188.687 -156.88)" fill="#fff"/>
              <path id="Trazado_214386" data-name="Trazado 214386" d="M272.791,247.157a15.966,15.966,0,0,1,.309,1.759l3.3,3.213a2.518,2.518,0,0,0,3.558-.047l4.725-4.845,1.543-1.582a16.625,16.625,0,0,1,.262-1.714,2.513,2.513,0,0,0-3.867-.319l-4.512,4.626-1.5-1.46a2.5,2.5,0,0,0-3.82.369Z" transform="translate(-230.571 -205.275)" fill="#fecd4d"/>
              <path id="Trazado_214389" data-name="Trazado 214389" d="M54.422,149.215h5.242c.818,0,1.482-1.166,1.482-2.875v-2.366a1.482,1.482,0,0,0-1.482-1.482H54.422a1.482,1.482,0,0,0-1.482,1.482v2.366C52.94,148.122,53.6,149.215,54.422,149.215Z" transform="translate(-44.746 -120.438)" fill="#5a9ed1"/>
              <path id="Trazado_214390" data-name="Trazado 214390" d="M276.072,80.451v2.876a2.4,2.4,0,0,0,2.4,2.4H290.92V82.847Z" transform="translate(-233.344 -68)" fill="#afafaf"/>
              <path id="Trazado_214391" data-name="Trazado 214391" d="M278.468,14.848H290.92L276.072,0V12.451A2.4,2.4,0,0,0,278.468,14.848Z" transform="translate(-233.344)" fill="#e8e8e8"/>
              <path id="Trazado_214392" data-name="Trazado 214392" d="M283.765,250.153,277.5,256.58a2.518,2.518,0,0,1-3.558.047l-3.3-3.213a2.528,2.528,0,0,1-.309-.366,2.516,2.516,0,0,0,.309,3.242l3.3,3.213a2.518,2.518,0,0,0,3.558-.047l6.267-6.427a2.518,2.518,0,0,0,.262-3.2A2.526,2.526,0,0,1,283.765,250.153Z" transform="translate(-228.106 -211.165)" fill="#e7b73a"/>
              <path id="Trazado_214394" data-name="Trazado 214394" d="M54.422,257.769h5.242c.818,0,1.482-1.166,1.482-2.875v-2.366a1.482,1.482,0,0,0-1.482-1.482H54.422a1.482,1.482,0,0,0-1.482,1.482v2.366C52.94,256.676,53.6,257.769,54.422,257.769Z" transform="translate(-44.746 -212.191)" fill="#5a9ed1"/>
              <path id="Trazado_214396" data-name="Trazado 214396" d="M54.422,368.528h5.242c.818,0,1.482-1.166,1.482-2.875v-2.366a1.482,1.482,0,0,0-1.482-1.482H54.422a1.482,1.482,0,0,0-1.482,1.482v2.366C52.94,367.435,53.6,368.528,54.422,368.528Z" transform="translate(-44.746 -305.808)" fill="#5a9ed1"/>
              <path id="Trazado_214398" data-name="Trazado 214398" d="M55.179,480.331H2.4a2.4,2.4,0,0,1-2.4-2.4v2.876a2.4,2.4,0,0,0,2.4,2.4H55.179a2.4,2.4,0,0,0,2.4-2.4v-2.876A2.4,2.4,0,0,1,55.179,480.331Z" transform="translate(0 -403.965)" fill="#e8e8e8"/>
              <path id="Trazado_214399" data-name="Trazado 214399" d="M221.259,281.979a19.888,19.888,0,0,1-33.9-12.625,19.888,19.888,0,1,0,39.672,0A19.811,19.811,0,0,1,221.259,281.979Z" transform="translate(-158.318 -227.666)" fill="#636363"/>
              <path id="Trazado_214400" data-name="Trazado 214400" d="M247.356,278.1a14.4,14.4,0,0,1-24.509-8.744,14.4,14.4,0,1,0,28.654,0A14.339,14.339,0,0,1,247.356,278.1Z" transform="translate(-188.296 -227.667)" fill="#e8e8e8"/>
            </g>
          </g>
        </g>
      </g>
      <path id="Trazado_214403" data-name="Trazado 214403" d="M425.4,411.162l-7.557-7.557-1.592,1.592a.8.8,0,0,0,0,1.13l6.995,6.995a4.47,4.47,0,0,0,7.21-1.272A4.469,4.469,0,0,1,425.4,411.162Z" transform="translate(254.128 4025.619)" fill="#862b19"/>
    </g>
  </g>
</svg>
