<svg xmlns="http://www.w3.org/2000/svg" xmlns:xlink="http://www.w3.org/1999/xlink" width="85.001" height="85.001" viewBox="0 0 85.001 85.001">
  <defs>
    <clipPath id="clip-path">
      <path id="Uni칩n_8" data-name="Uni칩n 8" d="M1308.074,11745H1308v-45h85v45h-.072a42.5,42.5,0,0,1-84.855,0Z" transform="translate(-78 -7276)" fill="#fecd4d"/>
    </clipPath>
  </defs>
  <g id="Grupo_154388" data-name="Grupo 154388" transform="translate(-1230 -4360)">
    <g id="Grupo_154387" data-name="Grupo 154387">
      <circle id="Elipse_4969" data-name="Elipse 4969" cx="42.5" cy="42.5" r="42.5" transform="translate(1230 4360)" fill="#fecd4d"/>
      <g id="Enmascarar_grupo_153685" data-name="Enmascarar grupo 153685" transform="translate(0 -64)" clip-path="url(#clip-path)">
        <g id="formulario-de-adopcion" transform="translate(1234 4430)">
          <g id="Grupo_153722" data-name="Grupo 153722">
            <path id="Trazado_214419" data-name="Trazado 214419" d="M8.916,108.137H54.307a8.926,8.926,0,0,0,8.916-8.916v-60.3A8.926,8.926,0,0,0,54.307,30H8.916A8.926,8.926,0,0,0,0,38.916v60.3A8.926,8.926,0,0,0,8.916,108.137Z" transform="translate(0 -25.137)" fill="#b48e6e"/>
            <path id="Trazado_214420" data-name="Trazado 214420" d="M203.916,30h22.7v78.137h-22.7A8.926,8.926,0,0,1,195,99.221v-60.3A8.926,8.926,0,0,1,203.916,30Z" transform="translate(-195 -25.137)" fill="#9d5e4a"/>
            <path id="Trazado_214421" data-name="Trazado 214421" d="M79.443,60A4.057,4.057,0,0,1,83.5,64.053v60.3a4.057,4.057,0,0,1-4.053,4.053H34.053A4.057,4.057,0,0,1,30,124.357v-60.3A4.057,4.057,0,0,1,34.053,60Z" transform="translate(-25.137 -50.273)" fill="#f9f9f9"/>
            <path id="Trazado_214422" data-name="Trazado 214422" d="M199.053,60h22.7v68.41h-22.7A4.057,4.057,0,0,1,195,124.357v-60.3A4.057,4.057,0,0,1,199.053,60Z" transform="translate(-190.137 -50.273)" fill="#e8e8e8"/>
            <path id="Trazado_214423" data-name="Trazado 214423" d="M127.295,49.59h9.727a7.3,7.3,0,0,0,7.295-7.295V37.432A2.432,2.432,0,0,0,141.885,35H122.432A2.432,2.432,0,0,0,120,37.432v4.863A7.3,7.3,0,0,0,127.295,49.59Z" transform="translate(-100.547 -29.326)" fill="#ffc178"/>
            <path id="Trazado_214424" data-name="Trazado 214424" d="M197.432,35h9.727V49.59h-4.863A7.3,7.3,0,0,1,195,42.295V37.432A2.432,2.432,0,0,1,197.432,35Z" transform="translate(-175.547 -29.326)" fill="#ff936b"/>
            <g id="Grupo_153721" data-name="Grupo 153721" transform="translate(9.727 28.369)">
              <path id="Trazado_214425" data-name="Trazado 214425" d="M62.432,179.863h4.863a2.432,2.432,0,1,0,0-4.863H62.432a2.432,2.432,0,1,0,0,4.863Z" transform="translate(-25.957 -175)" fill="#0d8ebc"/>
              <path id="Trazado_214427" data-name="Trazado 214427" d="M62.432,299.863h4.863a2.432,2.432,0,0,0,0-4.863H62.432a2.432,2.432,0,0,0,0,4.863Z" transform="translate(-25.957 -275.547)" fill="#0d8ebc"/>
              <path id="Trazado_214428" data-name="Trazado 214428" d="M62.432,359.863h4.863a2.432,2.432,0,0,0,0-4.863H62.432a2.432,2.432,0,0,0,0,4.863Z" transform="translate(-25.957 -316.094)" fill="#0d8ebc"/>
              <path id="Trazado_214429" data-name="Trazado 214429" d="M152.432,179.863h24.316a2.432,2.432,0,1,0,0-4.863H152.432a2.432,2.432,0,1,0,0,4.863Z" transform="translate(-150 -175)" fill="#0d8ebc"/>
            </g>
            <path id="Trazado_214430" data-name="Trazado 214430" d="M197.432,175h19.453v4.863H197.432a2.432,2.432,0,1,1,0-4.863Z" transform="translate(-185.273 -146.631)" fill="#0a617d"/>
            <path id="Trazado_214431" data-name="Trazado 214431" d="M152.432,239.863h19.453a2.432,2.432,0,1,0,0-4.863H152.432a2.432,2.432,0,1,0,0,4.863Z" transform="translate(-135.41 -196.904)" fill="#0d8ebc"/>
            <path id="Trazado_214432" data-name="Trazado 214432" d="M197.432,235h14.59v4.863h-14.59a2.432,2.432,0,1,1,0-4.863Z" transform="translate(-180.41 -196.904)" fill="#0a617d"/>
            <path id="Trazado_214433" data-name="Trazado 214433" d="M152.432,299.863h24.316a2.432,2.432,0,0,0,0-4.863H152.432a2.432,2.432,0,0,0,0,4.863Z" transform="translate(-140.273 -247.178)" fill="#0d8ebc"/>
            <path id="Trazado_214434" data-name="Trazado 214434" d="M197.432,295h19.453v4.863H197.432a2.432,2.432,0,0,1,0-4.863Z" transform="translate(-185.273 -247.178)" fill="#0a617d"/>
            <path id="Trazado_214435" data-name="Trazado 214435" d="M152.432,359.863h16.211a2.432,2.432,0,0,0,0-4.863H152.432a2.432,2.432,0,0,0,0,4.863Z" transform="translate(-132.168 -297.451)" fill="#0d8ebc"/>
            <path id="Trazado_214436" data-name="Trazado 214436" d="M197.432,355h11.348v4.863H197.432a2.432,2.432,0,1,1,0-4.863Z" transform="translate(-177.168 -297.451)" fill="#0a617d"/>
            <path id="Trazado_214437" data-name="Trazado 214437" d="M242.432,419.863h9.727a2.432,2.432,0,0,0,0-4.863h-9.727a2.432,2.432,0,0,0,0,4.863Z" transform="translate(-230.273 -347.725)" fill="#0a617d"/>
            <path id="Trazado_214438" data-name="Trazado 214438" d="M124.043,5.674a5.674,5.674,0,0,1-5.674,5.674h-22.7A5.674,5.674,0,0,1,95.674,0h22.7A5.674,5.674,0,0,1,124.043,5.674Z" transform="translate(-75.41)" fill="#fff16b"/>
            <path id="Trazado_214439" data-name="Trazado 214439" d="M200.674,0h11.348V11.348H200.674a5.674,5.674,0,1,1,0-11.348Z" transform="translate(-180.41)" fill="#ffc178"/>
          </g>
        </g>
      </g>
    </g>
    <g id="Layer_x0020_1" transform="translate(1270.656 4400.598)">
      <g id="_337037224" transform="translate(-0.051)">
        <g id="Grupo_153723" data-name="Grupo 153723" transform="translate(0)">
          <path id="Trazado_214440" data-name="Trazado 214440" d="M34.99,44.4a9.393,9.393,0,0,1-9-11.94l-14.1-14.125a8.681,8.681,0,0,1-2.575.364,9.326,9.326,0,0,1-6.633-2.731A9.425,9.425,0,0,1,.263,6.945a1.115,1.115,0,0,1,.728-.754,1.113,1.113,0,0,1,1.014.286l4.37,4.344,4.4-4.422L6.428,2.055A1.113,1.113,0,0,1,6.142,1.04,1.115,1.115,0,0,1,6.9.312,9.345,9.345,0,0,1,18.29,11.94l14.125,14.1a9.475,9.475,0,0,1,2.575-.364A9.291,9.291,0,0,1,41.6,28.432a9.4,9.4,0,0,1,2.445,9.026,1.065,1.065,0,0,1-.754.728.991.991,0,0,1-.988-.26l-4.37-4.37-4.422,4.422,4.37,4.37a.991.991,0,0,1,.26.988,1.065,1.065,0,0,1-.728.754A9.5,9.5,0,0,1,34.99,44.4Z" transform="translate(0.051)" fill="#dedfcf" fill-rule="evenodd"/>
          <path id="Trazado_214441" data-name="Trazado 214441" d="M61.437,70a9.253,9.253,0,0,0,2.237-.286.305.305,0,0,0,.234-.26.339.339,0,0,0-.078-.338l-4.838-4.838,5.385-5.385,4.838,4.838a.339.339,0,0,0,.338.078.305.305,0,0,0,.26-.234,8.694,8.694,0,0,0-2.263-8.35,8.536,8.536,0,0,0-6.113-2.549,8.314,8.314,0,0,0-2.393.338l-.39.1-14.7-14.671.13-.39a8.755,8.755,0,0,0-2.211-8.532A8.555,8.555,0,0,0,35.763,27a8.124,8.124,0,0,0-2.237.286.343.343,0,0,0-.26.234.325.325,0,0,0,.1.338L38.208,32.7l-5.385,5.411-4.864-4.838a.325.325,0,0,0-.338-.1.343.343,0,0,0-.234.26,8.761,8.761,0,0,0,2.237,8.35,8.64,8.64,0,0,0,6.139,2.549,9.325,9.325,0,0,0,2.393-.338l.39-.13,14.671,14.7-.1.39a8.708,8.708,0,0,0,2.211,8.506A8.58,8.58,0,0,0,61.437,70Z" transform="translate(-26.397 -26.298)" fill="#c8c9ba" fill-rule="evenodd"/>
        </g>
        <rect id="Rect치ngulo_43892" data-name="Rect치ngulo 43892" width="15.009" height="3.095" rx="1.548" transform="translate(17.983 15.798) rotate(45)" fill="#4d4d4d"/>
      </g>
    </g>
  </g>
</svg>
