<svg id="Grupo_154069" data-name="Grupo 154069" xmlns="http://www.w3.org/2000/svg" xmlns:xlink="http://www.w3.org/1999/xlink" width="505" height="386" viewBox="0 0 505 386">
  <defs>
    <clipPath id="clip-path">
      <rect id="Rectángulo_44364" data-name="Rectángulo 44364" width="505" height="386" fill="none"/>
    </clipPath>
    <linearGradient id="linear-gradient" x1="0.25" y1="0.75" x2="0.251" y2="0.75" gradientUnits="objectBoundingBox">
      <stop offset="0" stop-color="#f3e6e3"/>
      <stop offset="1" stop-color="#fff1ef"/>
    </linearGradient>
  </defs>
  <g id="Grupo_154070" data-name="Grupo 154070">
    <g id="Grupo_154069-2" data-name="Grupo 154069" clip-path="url(#clip-path)">
      <path id="Trazado_215223" data-name="Trazado 215223" d="M255.23,578.989,757.485,190.914,249.77-192.989-252.485,195.086Z" fill="url(#linear-gradient)"/>
    </g>
  </g>
  <g id="Grupo_154072" data-name="Grupo 154072">
    <g id="Grupo_154071" data-name="Grupo 154071" clip-path="url(#clip-path)">
      <path id="Trazado_215224" data-name="Trazado 215224" d="M46.567,30.974a4.271,4.271,0,0,1-1.44,3.07A5.049,5.049,0,0,1,41.7,35.165,4.549,4.549,0,0,1,38.046,33.6a6.42,6.42,0,0,1-1.332-4.3v-.74a7.246,7.246,0,0,1,.614-3.07,4.616,4.616,0,0,1,1.756-2.039,5.48,5.48,0,0,1,6.022.413,4.591,4.591,0,0,1,1.478,3.144H44.093a2.516,2.516,0,0,0-.651-1.7,2.411,2.411,0,0,0-1.706-.529,2.118,2.118,0,0,0-1.864.893,5.017,5.017,0,0,0-.635,2.77v.911a5.356,5.356,0,0,0,.594,2.865,2.078,2.078,0,0,0,1.872.9,2.455,2.455,0,0,0,1.722-.528,2.379,2.379,0,0,0,.652-1.631Z" fill="#12263f"/>
      <path id="Trazado_215225" data-name="Trazado 215225" d="M53.091,28.267a6.559,6.559,0,0,0-.863-.066,1.757,1.757,0,0,0-1.785.921V35h-2.4V26.018H50.31l.067,1.071a2.221,2.221,0,0,1,2-1.237,2.507,2.507,0,0,1,.747.108Z" fill="#12263f"/>
      <path id="Trazado_215226" data-name="Trazado 215226" d="M58.221,35.166a4.407,4.407,0,0,1-3.216-1.212,4.305,4.305,0,0,1-1.242-3.229v-.233a5.434,5.434,0,0,1,.523-2.419,3.838,3.838,0,0,1,1.482-1.643,4.154,4.154,0,0,1,2.187-.578,3.725,3.725,0,0,1,2.9,1.163,4.718,4.718,0,0,1,1.059,3.3v.979H56.2a2.227,2.227,0,0,0,.7,1.412,2.121,2.121,0,0,0,1.482.531,2.588,2.588,0,0,0,2.166-1l1.179,1.32a3.6,3.6,0,0,1-1.461,1.191,4.793,4.793,0,0,1-2.042.428m-.274-7.379a1.5,1.5,0,0,0-1.158.483,2.507,2.507,0,0,0-.569,1.384h3.337v-.191a1.786,1.786,0,0,0-.431-1.239,1.551,1.551,0,0,0-1.179-.437" fill="#12263f"/>
      <path id="Trazado_215227" data-name="Trazado 215227" d="M67.012,33.232a1.575,1.575,0,0,0,1.079-.365,1.281,1.281,0,0,0,.432-.972h2.249a3.073,3.073,0,0,1-.5,1.673,3.286,3.286,0,0,1-1.341,1.179,4.2,4.2,0,0,1-1.879.419,3.9,3.9,0,0,1-3.039-1.225A4.846,4.846,0,0,1,62.9,30.558V30.4a4.789,4.789,0,0,1,1.1-3.312,3.853,3.853,0,0,1,3.03-1.237,3.775,3.775,0,0,1,2.7.959,3.392,3.392,0,0,1,1.033,2.552H68.523a1.647,1.647,0,0,0-.432-1.139,1.607,1.607,0,0,0-2.362.173,3.548,3.548,0,0,0-.427,1.982v.25a3.591,3.591,0,0,0,.423,2,1.465,1.465,0,0,0,1.287.607" fill="#12263f"/>
      <path id="Trazado_215228" data-name="Trazado 215228" d="M72.125,23.694a1.185,1.185,0,0,1,.361-.888,1.555,1.555,0,0,1,1.963,0,1.266,1.266,0,0,1,0,1.785,1.54,1.54,0,0,1-1.95,0,1.178,1.178,0,0,1-.37-.9M74.673,35H72.266V26.019h2.407Z" fill="#12263f"/>
      <path id="Trazado_215229" data-name="Trazado 215229" d="M78.9,26.018l.075,1.005a3.154,3.154,0,0,1,2.581-1.171,2.4,2.4,0,0,1,2.383,1.37,3.081,3.081,0,0,1,2.7-1.37,2.677,2.677,0,0,1,2.175.851,3.907,3.907,0,0,1,.714,2.56V35H87.117V29.258a1.714,1.714,0,0,0-.3-1.118,1.322,1.322,0,0,0-1.054-.353,1.5,1.5,0,0,0-1.494,1.031L84.278,35h-2.4V29.267a1.7,1.7,0,0,0-.307-1.132,1.339,1.339,0,0,0-1.046-.348,1.555,1.555,0,0,0-1.478.847V35h-2.4V26.018Z" fill="#12263f"/>
      <path id="Trazado_215230" data-name="Trazado 215230" d="M91.35,23.694a1.182,1.182,0,0,1,.361-.888,1.555,1.555,0,0,1,1.963,0,1.269,1.269,0,0,1,0,1.785,1.541,1.541,0,0,1-1.951,0,1.181,1.181,0,0,1-.369-.9M93.9,35H91.491V26.019H93.9Z" fill="#12263f"/>
      <path id="Trazado_215231" data-name="Trazado 215231" d="M100.008,35.166a4.407,4.407,0,0,1-3.216-1.212,4.305,4.305,0,0,1-1.242-3.229v-.233a5.434,5.434,0,0,1,.523-2.419,3.838,3.838,0,0,1,1.482-1.643,4.154,4.154,0,0,1,2.187-.578,3.725,3.725,0,0,1,2.9,1.163,4.718,4.718,0,0,1,1.059,3.3v.979H97.983a2.227,2.227,0,0,0,.7,1.412,2.121,2.121,0,0,0,1.482.531,2.588,2.588,0,0,0,2.166-1l1.179,1.32a3.6,3.6,0,0,1-1.461,1.191,4.793,4.793,0,0,1-2.042.428m-.274-7.379a1.5,1.5,0,0,0-1.158.483,2.507,2.507,0,0,0-.569,1.384h3.337v-.191a1.786,1.786,0,0,0-.431-1.239,1.551,1.551,0,0,0-1.179-.437" fill="#12263f"/>
      <path id="Trazado_215232" data-name="Trazado 215232" d="M107.271,26.018l.075,1.038a3.134,3.134,0,0,1,2.581-1.2,2.6,2.6,0,0,1,2.125.839,3.907,3.907,0,0,1,.714,2.506V35h-2.4V29.242a1.567,1.567,0,0,0-.332-1.111,1.484,1.484,0,0,0-1.1-.344,1.651,1.651,0,0,0-1.519.864V35h-2.4V26.018Z" fill="#12263f"/>
      <path id="Trazado_215233" data-name="Trazado 215233" d="M117.456,23.81v2.208h1.536v1.76h-1.536V32.26a1.065,1.065,0,0,0,.191.714.958.958,0,0,0,.73.216,3.9,3.9,0,0,0,.706-.058V34.95a4.968,4.968,0,0,1-1.453.215,2.29,2.29,0,0,1-2.573-2.548V27.778h-1.311v-1.76h1.311V23.81Z" fill="#12263f"/>
      <path id="Trazado_215234" data-name="Trazado 215234" d="M119.705,30.426a5.315,5.315,0,0,1,.515-2.382,3.759,3.759,0,0,1,1.481-1.618,4.315,4.315,0,0,1,2.246-.573,4.09,4.09,0,0,1,2.967,1.112,4.464,4.464,0,0,1,1.283,3.022l.016.614a4.7,4.7,0,0,1-1.153,3.316,4.476,4.476,0,0,1-6.2,0,4.776,4.776,0,0,1-1.158-3.386Zm2.4.17a3.366,3.366,0,0,0,.481,1.959,1.729,1.729,0,0,0,2.74.008,3.676,3.676,0,0,0,.489-2.141,3.326,3.326,0,0,0-.489-1.945,1.594,1.594,0,0,0-1.378-.691,1.568,1.568,0,0,0-1.362.687A3.741,3.741,0,0,0,122.1,30.6" fill="#12263f"/>
      <path id="Trazado_215235" data-name="Trazado 215235" d="M133.551,30.443a5.416,5.416,0,0,1,.942-3.346,3.057,3.057,0,0,1,2.578-1.245,2.748,2.748,0,0,1,2.166.98V22.25h2.407V35h-2.166l-.116-.955a2.822,2.822,0,0,1-2.308,1.121,3.048,3.048,0,0,1-2.544-1.249,5.584,5.584,0,0,1-.959-3.474m2.4.17a3.556,3.556,0,0,0,.44,1.943,1.43,1.43,0,0,0,1.278.676,1.6,1.6,0,0,0,1.569-.942V28.728a1.581,1.581,0,0,0-1.552-.941q-1.735,0-1.735,2.826" fill="#12263f"/>
      <path id="Trazado_215236" data-name="Trazado 215236" d="M147.637,35.166a4.407,4.407,0,0,1-3.216-1.212,4.305,4.305,0,0,1-1.242-3.229v-.233a5.434,5.434,0,0,1,.523-2.419,3.837,3.837,0,0,1,1.482-1.643,4.154,4.154,0,0,1,2.187-.578,3.725,3.725,0,0,1,2.9,1.163,4.718,4.718,0,0,1,1.059,3.3v.979h-5.719a2.227,2.227,0,0,0,.7,1.412,2.121,2.121,0,0,0,1.482.531,2.588,2.588,0,0,0,2.166-1l1.179,1.32a3.6,3.6,0,0,1-1.461,1.191,4.793,4.793,0,0,1-2.042.428m-.274-7.379a1.5,1.5,0,0,0-1.158.483,2.507,2.507,0,0,0-.569,1.384h3.337v-.191a1.786,1.786,0,0,0-.431-1.239,1.551,1.551,0,0,0-1.179-.437" fill="#12263f"/>
      <rect id="Rectángulo_44365" data-name="Rectángulo 44365" width="2.407" height="12.75" transform="translate(152.817 22.25)" fill="#12263f"/>
      <path id="Trazado_215237" data-name="Trazado 215237" d="M169.518,30.592a5.39,5.39,0,0,1-.942,3.325,3.021,3.021,0,0,1-2.544,1.249,2.8,2.8,0,0,1-2.2-.946v4.233h-2.4V26.018h2.225l.083.88a2.82,2.82,0,0,1,2.274-1.046,3.043,3.043,0,0,1,2.582,1.229,5.535,5.535,0,0,1,.921,3.387Zm-2.4-.183a3.551,3.551,0,0,0-.444-1.939,1.443,1.443,0,0,0-1.291-.683,1.57,1.57,0,0,0-1.552.865v3.689a1.6,1.6,0,0,0,1.569.891q1.718,0,1.718-2.823" fill="#12263f"/>
      <path id="Trazado_215238" data-name="Trazado 215238" d="M176.051,28.267a6.559,6.559,0,0,0-.863-.066,1.757,1.757,0,0,0-1.785.921V35H171V26.018h2.266l.067,1.071a2.221,2.221,0,0,1,2-1.237,2.507,2.507,0,0,1,.747.108Z" fill="#12263f"/>
      <path id="Trazado_215239" data-name="Trazado 215239" d="M176.532,30.426a5.315,5.315,0,0,1,.515-2.382,3.759,3.759,0,0,1,1.481-1.618,4.315,4.315,0,0,1,2.246-.573,4.09,4.09,0,0,1,2.967,1.112,4.464,4.464,0,0,1,1.283,3.022l.016.614a4.7,4.7,0,0,1-1.153,3.316,4.476,4.476,0,0,1-6.2,0,4.776,4.776,0,0,1-1.158-3.386Zm2.4.17a3.366,3.366,0,0,0,.481,1.959,1.729,1.729,0,0,0,2.74.008,3.676,3.676,0,0,0,.489-2.141,3.326,3.326,0,0,0-.489-1.945,1.594,1.594,0,0,0-1.378-.691,1.568,1.568,0,0,0-1.362.687,3.741,3.741,0,0,0-.481,2.123" fill="#12263f"/>
      <path id="Trazado_215240" data-name="Trazado 215240" d="M186.145,30.443a5.416,5.416,0,0,1,.942-3.346,3.057,3.057,0,0,1,2.578-1.245,2.748,2.748,0,0,1,2.166.98V22.25h2.407V35h-2.166l-.116-.955a2.822,2.822,0,0,1-2.308,1.121,3.047,3.047,0,0,1-2.544-1.249,5.584,5.584,0,0,1-.959-3.474m2.4.17a3.556,3.556,0,0,0,.44,1.943,1.43,1.43,0,0,0,1.278.676,1.6,1.6,0,0,0,1.569-.942V28.728a1.581,1.581,0,0,0-1.552-.941q-1.736,0-1.735,2.826" fill="#12263f"/>
      <path id="Trazado_215241" data-name="Trazado 215241" d="M201.476,34.087a3.006,3.006,0,0,1-2.457,1.079,2.835,2.835,0,0,1-2.2-.83,3.546,3.546,0,0,1-.776-2.432V26.019h2.4v5.808q0,1.406,1.278,1.406a1.733,1.733,0,0,0,1.677-.849V26.019H203.8V35h-2.258Z" fill="#12263f"/>
      <path id="Trazado_215242" data-name="Trazado 215242" d="M209.345,33.232a1.575,1.575,0,0,0,1.079-.365,1.281,1.281,0,0,0,.432-.972H213.1a3.073,3.073,0,0,1-.5,1.673,3.286,3.286,0,0,1-1.341,1.179,4.2,4.2,0,0,1-1.879.419,3.9,3.9,0,0,1-3.039-1.225,4.846,4.846,0,0,1-1.112-3.383V30.4a4.79,4.79,0,0,1,1.1-3.312,3.853,3.853,0,0,1,3.03-1.237,3.775,3.775,0,0,1,2.7.959,3.392,3.392,0,0,1,1.033,2.552h-2.249a1.647,1.647,0,0,0-.432-1.139,1.607,1.607,0,0,0-2.362.173,3.548,3.548,0,0,0-.427,1.982v.25a3.591,3.591,0,0,0,.423,2,1.465,1.465,0,0,0,1.287.607" fill="#12263f"/>
      <path id="Trazado_215243" data-name="Trazado 215243" d="M217.347,23.81v2.208h1.536v1.76h-1.536V32.26a1.065,1.065,0,0,0,.191.714.958.958,0,0,0,.73.216,3.9,3.9,0,0,0,.706-.058V34.95a4.968,4.968,0,0,1-1.453.215,2.29,2.29,0,0,1-2.573-2.548V27.778h-1.311v-1.76h1.311V23.81Z" fill="#12263f"/>
      <path id="Trazado_215244" data-name="Trazado 215244" d="M219.6,30.426a5.315,5.315,0,0,1,.515-2.382,3.759,3.759,0,0,1,1.481-1.618,4.315,4.315,0,0,1,2.246-.573,4.09,4.09,0,0,1,2.967,1.112,4.464,4.464,0,0,1,1.283,3.022l.016.614a4.7,4.7,0,0,1-1.153,3.316,4.476,4.476,0,0,1-6.2,0,4.776,4.776,0,0,1-1.158-3.386Zm2.4.17a3.366,3.366,0,0,0,.481,1.959,1.729,1.729,0,0,0,2.74.008,3.676,3.676,0,0,0,.489-2.141,3.326,3.326,0,0,0-.489-1.945,1.594,1.594,0,0,0-1.378-.691,1.568,1.568,0,0,0-1.362.687A3.741,3.741,0,0,0,222,30.6" fill="#12263f"/>
      <path id="Trazado_215245" data-name="Trazado 215245" d="M40.57,71h-7.8V69.453l3.68-3.922a9.094,9.094,0,0,0,1.121-1.445,2.322,2.322,0,0,0,.363-1.172,1.738,1.738,0,0,0-.383-1.191,1.382,1.382,0,0,0-1.093-.434,1.491,1.491,0,0,0-1.207.527,2.087,2.087,0,0,0-.442,1.387H32.547a3.727,3.727,0,0,1,.5-1.9,3.482,3.482,0,0,1,1.4-1.348,4.268,4.268,0,0,1,2.055-.488,4.036,4.036,0,0,1,2.73.843,2.985,2.985,0,0,1,.973,2.383,3.82,3.82,0,0,1-.438,1.719,9.582,9.582,0,0,1-1.5,2.039L35.679,69.18H40.57Z" fill="#9f321d"/>
      <path id="Trazado_215246" data-name="Trazado 215246" d="M49.61,66.3a5.761,5.761,0,0,1-.977,3.609,3.9,3.9,0,0,1-5.7.024,5.6,5.6,0,0,1-1.008-3.516V64.32a5.678,5.678,0,0,1,.989-3.617,3.911,3.911,0,0,1,5.691-.012A5.583,5.583,0,0,1,49.61,64.2Zm-2.258-2.3a4.163,4.163,0,0,0-.387-2.061,1.307,1.307,0,0,0-1.207-.645,1.285,1.285,0,0,0-1.176.614,3.907,3.907,0,0,0-.4,1.919v2.769a4.363,4.363,0,0,0,.379,2.068,1.289,1.289,0,0,0,1.215.677,1.268,1.268,0,0,0,1.2-.65,4.267,4.267,0,0,0,.383-1.986Z" fill="#9f321d"/>
      <path id="Trazado_215247" data-name="Trazado 215247" d="M51.1,61.812a2.248,2.248,0,0,1,.679-1.7,2.468,2.468,0,0,1,1.781-.652,2.506,2.506,0,0,1,1.8.644,2.293,2.293,0,0,1,.68,1.746v.563a2.219,2.219,0,0,1-.68,1.695,2.8,2.8,0,0,1-3.574,0,2.271,2.271,0,0,1-.683-1.738Zm1.5.612a1.06,1.06,0,0,0,.269.758.926.926,0,0,0,.707.287.881.881,0,0,0,.695-.291,1.129,1.129,0,0,0,.258-.778v-.582a1.1,1.1,0,0,0-.258-.761,1,1,0,0,0-1.406,0,1.128,1.128,0,0,0-.265.8Zm1.421,7.724-1.1-.593,5.554-8.891,1.1.594Zm2.516-1.937a2.217,2.217,0,0,1,.688-1.7,2.5,2.5,0,0,1,1.781-.645A2.524,2.524,0,0,1,60.8,66.5a2.282,2.282,0,0,1,.683,1.754v.562a2.238,2.238,0,0,1-.672,1.692,2.478,2.478,0,0,1-1.789.644,2.5,2.5,0,0,1-1.8-.648,2.267,2.267,0,0,1-.68-1.719Zm1.5.619a1.054,1.054,0,0,0,.281.738.914.914,0,0,0,.7.307q.954,0,.953-1.061v-.6a1.069,1.069,0,0,0-.265-.758,1,1,0,0,0-1.406,0,1.1,1.1,0,0,0-.266.781Z" fill="#9f321d"/>
    </g>
  </g>
  <path id="Trazado_215248" data-name="Trazado 215248" d="M38.258,204H36v-8.715l-2.695.832V194.3l4.711-1.688h.242Z" fill="#9f321d"/>
  <g id="Grupo_154074" data-name="Grupo 154074">
    <g id="Grupo_154073" data-name="Grupo 154073" clip-path="url(#clip-path)">
      <path id="Trazado_215249" data-name="Trazado 215249" d="M49.61,199.3a5.761,5.761,0,0,1-.977,3.609,3.9,3.9,0,0,1-5.7.024,5.6,5.6,0,0,1-1.008-3.516V197.32a5.678,5.678,0,0,1,.989-3.617,3.911,3.911,0,0,1,5.691-.012A5.583,5.583,0,0,1,49.61,197.2Zm-2.258-2.3a4.163,4.163,0,0,0-.387-2.061,1.307,1.307,0,0,0-1.207-.645,1.285,1.285,0,0,0-1.176.614,3.907,3.907,0,0,0-.4,1.919v2.769a4.363,4.363,0,0,0,.379,2.068,1.289,1.289,0,0,0,1.215.677,1.268,1.268,0,0,0,1.2-.65,4.267,4.267,0,0,0,.383-1.986Z" fill="#9f321d"/>
      <path id="Trazado_215250" data-name="Trazado 215250" d="M51.1,194.812a2.248,2.248,0,0,1,.679-1.7,2.468,2.468,0,0,1,1.781-.652,2.506,2.506,0,0,1,1.8.644,2.293,2.293,0,0,1,.68,1.746v.563a2.219,2.219,0,0,1-.68,1.695,2.8,2.8,0,0,1-3.574,0,2.271,2.271,0,0,1-.683-1.738Zm1.5.612a1.06,1.06,0,0,0,.269.758.926.926,0,0,0,.707.287.881.881,0,0,0,.695-.291,1.129,1.129,0,0,0,.258-.778v-.582a1.1,1.1,0,0,0-.258-.761,1,1,0,0,0-1.406,0,1.128,1.128,0,0,0-.265.8Zm1.421,7.724-1.1-.593,5.554-8.891,1.1.594Zm2.516-1.937a2.217,2.217,0,0,1,.688-1.7,2.5,2.5,0,0,1,1.781-.645,2.524,2.524,0,0,1,1.793.637,2.282,2.282,0,0,1,.683,1.754v.562a2.238,2.238,0,0,1-.672,1.692,2.478,2.478,0,0,1-1.789.644,2.5,2.5,0,0,1-1.8-.648,2.267,2.267,0,0,1-.68-1.719Zm1.5.619a1.054,1.054,0,0,0,.281.738.914.914,0,0,0,.7.307q.954,0,.953-1.061v-.6a1.069,1.069,0,0,0-.265-.758,1,1,0,0,0-1.406,0,1.1,1.1,0,0,0-.266.781Z" fill="#9f321d"/>
    </g>
  </g>
  <path id="Trazado_215251" data-name="Trazado 215251" d="M38.258,139H36v-8.715l-2.695.832V129.3l4.711-1.688h.242Z" fill="#9f321d"/>
  <g id="Grupo_154076" data-name="Grupo 154076">
    <g id="Grupo_154075" data-name="Grupo 154075" clip-path="url(#clip-path)">
      <path id="Trazado_215252" data-name="Trazado 215252" d="M42.289,133.406l.656-5.781H49.32v1.883H44.8l-.281,2.445a3.582,3.582,0,0,1,1.711-.43,3.276,3.276,0,0,1,2.546,1.008,4.024,4.024,0,0,1,.922,2.82,4.123,4.123,0,0,1-.465,1.973,3.286,3.286,0,0,1-1.332,1.352,4.159,4.159,0,0,1-2.046.48,4.429,4.429,0,0,1-1.915-.418,3.393,3.393,0,0,1-1.394-1.176A3.2,3.2,0,0,1,42,135.836h2.234a1.67,1.67,0,0,0,.5,1.1,1.574,1.574,0,0,0,1.114.4,1.388,1.388,0,0,0,1.179-.551,2.552,2.552,0,0,0,.414-1.559,2.114,2.114,0,0,0-.476-1.484,1.75,1.75,0,0,0-1.352-.516,1.954,1.954,0,0,0-1.3.422l-.219.2Z" fill="#9f321d"/>
      <path id="Trazado_215253" data-name="Trazado 215253" d="M51.1,129.812a2.248,2.248,0,0,1,.679-1.7,2.468,2.468,0,0,1,1.781-.652,2.506,2.506,0,0,1,1.8.644,2.293,2.293,0,0,1,.68,1.746v.563a2.219,2.219,0,0,1-.68,1.695,2.8,2.8,0,0,1-3.574,0,2.271,2.271,0,0,1-.683-1.738Zm1.5.612a1.06,1.06,0,0,0,.269.758.926.926,0,0,0,.707.287.881.881,0,0,0,.695-.291,1.129,1.129,0,0,0,.258-.778v-.582a1.1,1.1,0,0,0-.258-.761,1,1,0,0,0-1.406,0,1.128,1.128,0,0,0-.265.8Zm1.421,7.724-1.1-.593,5.554-8.891,1.1.594Zm2.516-1.937a2.217,2.217,0,0,1,.688-1.7,2.5,2.5,0,0,1,1.781-.645,2.524,2.524,0,0,1,1.793.637,2.282,2.282,0,0,1,.683,1.754v.562a2.238,2.238,0,0,1-.672,1.692,2.478,2.478,0,0,1-1.789.644,2.5,2.5,0,0,1-1.8-.648,2.267,2.267,0,0,1-.68-1.719Zm1.5.619a1.054,1.054,0,0,0,.281.738.914.914,0,0,0,.7.307q.954,0,.953-1.061v-.6a1.069,1.069,0,0,0-.265-.758,1,1,0,0,0-1.406,0,1.1,1.1,0,0,0-.266.781Z" fill="#9f321d"/>
      <path id="Trazado_215254" data-name="Trazado 215254" d="M33.11,258.406l.655-5.781H40.14v1.883H35.618l-.282,2.445a3.583,3.583,0,0,1,1.712-.43,3.274,3.274,0,0,1,2.545,1.008,4.024,4.024,0,0,1,.922,2.82,4.112,4.112,0,0,1-.465,1.973,3.286,3.286,0,0,1-1.332,1.352,4.158,4.158,0,0,1-2.045.48,4.437,4.437,0,0,1-1.916-.418,3.394,3.394,0,0,1-1.394-1.176,3.2,3.2,0,0,1-.543-1.726h2.235a1.664,1.664,0,0,0,.495,1.105,1.574,1.574,0,0,0,1.114.395,1.387,1.387,0,0,0,1.179-.551,2.552,2.552,0,0,0,.414-1.559,2.114,2.114,0,0,0-.476-1.484,1.746,1.746,0,0,0-1.351-.516,1.955,1.955,0,0,0-1.305.422l-.219.2Z" fill="#9f321d"/>
      <path id="Trazado_215255" data-name="Trazado 215255" d="M41.923,254.812a2.248,2.248,0,0,1,.678-1.7,2.47,2.47,0,0,1,1.781-.652,2.51,2.51,0,0,1,1.8.644,2.3,2.3,0,0,1,.68,1.746v.563a2.223,2.223,0,0,1-.68,1.7,2.806,2.806,0,0,1-3.575,0,2.27,2.27,0,0,1-.682-1.738Zm1.5.612a1.06,1.06,0,0,0,.268.758.926.926,0,0,0,.707.287.881.881,0,0,0,.695-.291,1.129,1.129,0,0,0,.258-.778v-.582a1.1,1.1,0,0,0-.258-.761,1,1,0,0,0-1.4,0,1.124,1.124,0,0,0-.265.8Zm1.42,7.724-1.1-.593,5.553-8.891,1.1.594Zm2.517-1.937a2.213,2.213,0,0,1,.688-1.7,2.493,2.493,0,0,1,1.78-.645,2.523,2.523,0,0,1,1.793.637,2.283,2.283,0,0,1,.684,1.754v.562a2.239,2.239,0,0,1-.673,1.692,2.478,2.478,0,0,1-1.789.644,2.506,2.506,0,0,1-1.8-.648,2.266,2.266,0,0,1-.679-1.719Zm1.5.619a1.053,1.053,0,0,0,.28.738.915.915,0,0,0,.7.307q.954,0,.953-1.061v-.6a1.069,1.069,0,0,0-.265-.758,1,1,0,0,0-1.406,0,1.1,1.1,0,0,0-.265.781Z" fill="#9f321d"/>
      <path id="Trazado_215256" data-name="Trazado 215256" d="M40.43,324.3a5.761,5.761,0,0,1-.977,3.609,3.409,3.409,0,0,1-2.859,1.25,3.434,3.434,0,0,1-2.844-1.226,5.6,5.6,0,0,1-1.008-3.516V322.32a5.678,5.678,0,0,1,.989-3.617,3.432,3.432,0,0,1,2.847-1.234,3.437,3.437,0,0,1,2.844,1.222A5.583,5.583,0,0,1,40.43,322.2Zm-2.258-2.3a4.163,4.163,0,0,0-.387-2.061,1.307,1.307,0,0,0-1.207-.645,1.285,1.285,0,0,0-1.176.614,3.907,3.907,0,0,0-.4,1.919v2.769a4.363,4.363,0,0,0,.379,2.068,1.289,1.289,0,0,0,1.215.677,1.268,1.268,0,0,0,1.195-.65,4.267,4.267,0,0,0,.383-1.986Z" fill="#9f321d"/>
      <path id="Trazado_215257" data-name="Trazado 215257" d="M41.923,319.812a2.248,2.248,0,0,1,.678-1.7,2.47,2.47,0,0,1,1.781-.652,2.51,2.51,0,0,1,1.8.644,2.3,2.3,0,0,1,.68,1.746v.563a2.223,2.223,0,0,1-.68,1.7,2.806,2.806,0,0,1-3.575,0,2.27,2.27,0,0,1-.682-1.738Zm1.5.612a1.06,1.06,0,0,0,.268.758.926.926,0,0,0,.707.287.881.881,0,0,0,.695-.291,1.129,1.129,0,0,0,.258-.778v-.582a1.1,1.1,0,0,0-.258-.761,1,1,0,0,0-1.4,0,1.124,1.124,0,0,0-.265.8Zm1.42,7.724-1.1-.593,5.553-8.891,1.1.594Zm2.517-1.937a2.213,2.213,0,0,1,.688-1.7,2.493,2.493,0,0,1,1.78-.645,2.523,2.523,0,0,1,1.793.637,2.283,2.283,0,0,1,.684,1.754v.562a2.239,2.239,0,0,1-.673,1.692,2.478,2.478,0,0,1-1.789.644,2.506,2.506,0,0,1-1.8-.648,2.266,2.266,0,0,1-.679-1.719Zm1.5.619a1.053,1.053,0,0,0,.28.738.915.915,0,0,0,.7.307q.954,0,.953-1.061v-.6a1.069,1.069,0,0,0-.265-.758,1,1,0,0,0-1.406,0,1.1,1.1,0,0,0-.265.781Z" fill="#9f321d"/>
      <path id="Trazado_215258" data-name="Trazado 215258" d="M155.109,360.406l.656-5.781h6.375v1.883h-4.523l-.281,2.445a3.582,3.582,0,0,1,1.711-.43,3.276,3.276,0,0,1,2.546,1.008,4.024,4.024,0,0,1,.922,2.82,4.123,4.123,0,0,1-.465,1.973,3.286,3.286,0,0,1-1.332,1.352,4.159,4.159,0,0,1-2.046.48,4.429,4.429,0,0,1-1.915-.418,3.393,3.393,0,0,1-1.394-1.176,3.2,3.2,0,0,1-.543-1.726h2.234a1.67,1.67,0,0,0,.5,1.105,1.574,1.574,0,0,0,1.114.395,1.388,1.388,0,0,0,1.179-.551,2.552,2.552,0,0,0,.414-1.559,2.114,2.114,0,0,0-.476-1.484,1.75,1.75,0,0,0-1.352-.516,1.954,1.954,0,0,0-1.3.422l-.219.2Z" fill="#636363"/>
      <path id="Trazado_215259" data-name="Trazado 215259" d="M167.266,360.07l1.422-2.523H171.1l-2.406,4.14L171.2,366h-2.422l-1.508-2.657-1.5,2.657h-2.43l2.508-4.313-2.4-4.14h2.422Z" fill="#636363"/>
    </g>
  </g>
  <path id="Trazado_215260" data-name="Trazado 215260" d="M250.258,366H248v-8.715l-2.695.832V356.3l4.711-1.688h.242Z" fill="#636363"/>
  <path id="Trazado_215261" data-name="Trazado 215261" d="M257.266,360.07l1.422-2.523H261.1l-2.406,4.14L261.2,366h-2.422l-1.508-2.657-1.5,2.657h-2.43l2.508-4.313-2.4-4.14h2.422Z" fill="#636363"/>
  <g id="Grupo_154078" data-name="Grupo 154078">
    <g id="Grupo_154077" data-name="Grupo 154077" clip-path="url(#clip-path)">
      <path id="Trazado_215262" data-name="Trazado 215262" d="M341.43,361.3a5.761,5.761,0,0,1-.977,3.609,3.9,3.9,0,0,1-5.7.024,5.6,5.6,0,0,1-1.008-3.516V359.32a5.679,5.679,0,0,1,.989-3.617,3.911,3.911,0,0,1,5.691-.012,5.583,5.583,0,0,1,1.008,3.512Zm-2.258-2.3a4.163,4.163,0,0,0-.387-2.061,1.307,1.307,0,0,0-1.207-.645,1.285,1.285,0,0,0-1.176.614,3.907,3.907,0,0,0-.4,1.919v2.769a4.363,4.363,0,0,0,.379,2.068,1.289,1.289,0,0,0,1.215.677,1.268,1.268,0,0,0,1.2-.65,4.267,4.267,0,0,0,.383-1.986Z" fill="#636363"/>
      <path id="Trazado_215263" data-name="Trazado 215263" d="M343.633,368.851l-1.18-.617.282-.508a4.081,4.081,0,0,0,.539-1.9v-1.75h1.906l-.008,1.562a4.064,4.064,0,0,1-.437,1.75,4.5,4.5,0,0,1-1.1,1.461" fill="#636363"/>
      <path id="Trazado_215264" data-name="Trazado 215264" d="M347.2,360.406l.656-5.781h6.375v1.883H349.7l-.281,2.445a3.582,3.582,0,0,1,1.711-.43,3.276,3.276,0,0,1,2.546,1.008,4.024,4.024,0,0,1,.922,2.82,4.123,4.123,0,0,1-.465,1.973,3.286,3.286,0,0,1-1.332,1.352,4.159,4.159,0,0,1-2.046.48,4.429,4.429,0,0,1-1.915-.418,3.394,3.394,0,0,1-1.394-1.176,3.2,3.2,0,0,1-.543-1.726h2.234a1.67,1.67,0,0,0,.5,1.105,1.574,1.574,0,0,0,1.114.395,1.388,1.388,0,0,0,1.179-.551,2.552,2.552,0,0,0,.414-1.559,2.114,2.114,0,0,0-.476-1.484,1.75,1.75,0,0,0-1.352-.516,1.954,1.954,0,0,0-1.3.422l-.219.2Z" fill="#636363"/>
      <path id="Trazado_215265" data-name="Trazado 215265" d="M363.336,360.07l1.422-2.523h2.414l-2.406,4.14L367.274,366h-2.422l-1.508-2.657-1.5,2.657h-2.43l2.508-4.313-2.4-4.14h2.422Z" fill="#636363"/>
      <path id="Trazado_215266" data-name="Trazado 215266" d="M437.43,361.3a5.761,5.761,0,0,1-.977,3.609,3.9,3.9,0,0,1-5.7.024,5.6,5.6,0,0,1-1.008-3.516V359.32a5.679,5.679,0,0,1,.989-3.617,3.911,3.911,0,0,1,5.691-.012,5.583,5.583,0,0,1,1.008,3.512Zm-2.258-2.3a4.163,4.163,0,0,0-.387-2.061,1.307,1.307,0,0,0-1.207-.645,1.285,1.285,0,0,0-1.176.614,3.907,3.907,0,0,0-.4,1.919v2.769a4.363,4.363,0,0,0,.379,2.068,1.289,1.289,0,0,0,1.215.677,1.268,1.268,0,0,0,1.2-.65,4.267,4.267,0,0,0,.383-1.986Z" fill="#636363"/>
    </g>
  </g>
  <rect id="Rectángulo_44370" data-name="Rectángulo 44370" width="364" height="275" transform="translate(75.001 58)" fill="#fff"/>
  <path id="Trazado_215267" data-name="Trazado 215267" d="M145.647,179.746h-4.781V183h5.611v2h-8.1V172.914h8.084v2.018h-5.594v2.879h4.781Z" fill="#12263f"/>
  <g id="Grupo_154080" data-name="Grupo 154080">
    <g id="Grupo_154079" data-name="Grupo 154079" clip-path="url(#clip-path)">
      <path id="Trazado_215268" data-name="Trazado 215268" d="M152.644,182.517a.771.771,0,0,0-.436-.692,4.934,4.934,0,0,0-1.4-.453q-3.205-.673-3.205-2.722a2.468,2.468,0,0,1,.993-2,4,4,0,0,1,2.593-.8,4.307,4.307,0,0,1,2.736.806,2.536,2.536,0,0,1,1.025,2.091h-2.4a1.162,1.162,0,0,0-.332-.851,1.408,1.408,0,0,0-1.038-.336,1.444,1.444,0,0,0-.938.273.869.869,0,0,0-.332.7.739.739,0,0,0,.378.643,3.878,3.878,0,0,0,1.274.424,10.478,10.478,0,0,1,1.511.4,2.483,2.483,0,0,1,1.9,2.415,2.343,2.343,0,0,1-1.055,1.989,4.54,4.54,0,0,1-2.722.759,4.741,4.741,0,0,1-2-.4,3.364,3.364,0,0,1-1.374-1.1,2.567,2.567,0,0,1-.5-1.515H149.6a1.247,1.247,0,0,0,.473.979,1.874,1.874,0,0,0,1.178.341,1.746,1.746,0,0,0,1.042-.261.816.816,0,0,0,.353-.686" fill="#12263f"/>
      <path id="Trazado_215269" data-name="Trazado 215269" d="M159.393,173.81v2.208h1.536v1.76h-1.536v4.482a1.065,1.065,0,0,0,.191.714.958.958,0,0,0,.73.216,3.9,3.9,0,0,0,.706-.058v1.818a4.968,4.968,0,0,1-1.453.215,2.29,2.29,0,0,1-2.573-2.548v-4.839h-1.311v-1.76h1.311V173.81Z" fill="#12263f"/>
      <path id="Trazado_215270" data-name="Trazado 215270" d="M167.312,178.267a6.56,6.56,0,0,0-.863-.066,1.757,1.757,0,0,0-1.785.921V185h-2.4v-8.981h2.266l.067,1.071a2.221,2.221,0,0,1,2-1.237,2.507,2.507,0,0,1,.747.108Z" fill="#12263f"/>
      <path id="Trazado_215271" data-name="Trazado 215271" d="M172.442,185.166a4.407,4.407,0,0,1-3.216-1.212,4.305,4.305,0,0,1-1.242-3.229v-.233a5.434,5.434,0,0,1,.523-2.419,3.838,3.838,0,0,1,1.482-1.643,4.155,4.155,0,0,1,2.187-.578,3.725,3.725,0,0,1,2.9,1.163,4.718,4.718,0,0,1,1.059,3.295v.979h-5.719a2.227,2.227,0,0,0,.7,1.412,2.121,2.121,0,0,0,1.482.531,2.588,2.588,0,0,0,2.166-1l1.179,1.32a3.6,3.6,0,0,1-1.461,1.191,4.793,4.793,0,0,1-2.042.428m-.274-7.379a1.5,1.5,0,0,0-1.158.483,2.507,2.507,0,0,0-.569,1.384h3.337v-.191a1.786,1.786,0,0,0-.431-1.239,1.551,1.551,0,0,0-1.179-.437" fill="#12263f"/>
      <rect id="Rectángulo_44371" data-name="Rectángulo 44371" width="2.407" height="12.75" transform="translate(177.621 172.25)" fill="#12263f"/>
      <rect id="Rectángulo_44372" data-name="Rectángulo 44372" width="2.407" height="12.75" transform="translate(182.129 172.25)" fill="#12263f"/>
      <path id="Trazado_215272" data-name="Trazado 215272" d="M191.716,185a2.66,2.66,0,0,1-.241-.8,2.9,2.9,0,0,1-2.266.971,3.188,3.188,0,0,1-2.187-.764,2.452,2.452,0,0,1-.868-1.925,2.537,2.537,0,0,1,1.059-2.192,5.218,5.218,0,0,1,3.059-.771h1.1V179a1.484,1.484,0,0,0-.32-1,1.26,1.26,0,0,0-1.009-.373,1.429,1.429,0,0,0-.95.291.984.984,0,0,0-.344.8h-2.4a2.415,2.415,0,0,1,.481-1.446,3.191,3.191,0,0,1,1.361-1.041,4.959,4.959,0,0,1,1.976-.377,3.928,3.928,0,0,1,2.636.833,2.92,2.92,0,0,1,.975,2.345v3.894a4.278,4.278,0,0,0,.357,1.934V185Zm-1.984-1.668a2.059,2.059,0,0,0,.979-.237,1.556,1.556,0,0,0,.665-.635v-1.544h-.9q-1.8,0-1.917,1.245l-.009.142a.956.956,0,0,0,.316.738,1.228,1.228,0,0,0,.863.291" fill="#12263f"/>
    </g>
  </g>
  <rect id="Rectángulo_44374" data-name="Rectángulo 44374" width="2.49" height="12.086" transform="translate(291.841 172.914)" fill="#12263f"/>
  <g id="Grupo_154082" data-name="Grupo 154082">
    <g id="Grupo_154081" data-name="Grupo 154081" clip-path="url(#clip-path)">
      <path id="Trazado_215273" data-name="Trazado 215273" d="M298.689,176.018l.075,1.038a3.134,3.134,0,0,1,2.581-1.2,2.6,2.6,0,0,1,2.125.839,3.906,3.906,0,0,1,.714,2.506V185h-2.4v-5.757a1.567,1.567,0,0,0-.332-1.111,1.484,1.484,0,0,0-1.1-.344,1.651,1.651,0,0,0-1.519.864V185h-2.4v-8.981Z" fill="#12263f"/>
      <path id="Trazado_215274" data-name="Trazado 215274" d="M308.874,173.81v2.208h1.536v1.76h-1.536v4.482a1.065,1.065,0,0,0,.191.714.958.958,0,0,0,.73.216,3.9,3.9,0,0,0,.706-.058v1.818a4.968,4.968,0,0,1-1.453.215,2.29,2.29,0,0,1-2.573-2.548v-4.839h-1.311v-1.76h1.311V173.81Z" fill="#12263f"/>
      <path id="Trazado_215275" data-name="Trazado 215275" d="M315.88,185.166a4.407,4.407,0,0,1-3.216-1.212,4.305,4.305,0,0,1-1.242-3.229v-.233a5.434,5.434,0,0,1,.523-2.419,3.838,3.838,0,0,1,1.482-1.643,4.155,4.155,0,0,1,2.187-.578,3.725,3.725,0,0,1,2.9,1.163,4.718,4.718,0,0,1,1.059,3.295v.979h-5.719a2.227,2.227,0,0,0,.7,1.412,2.121,2.121,0,0,0,1.482.531,2.588,2.588,0,0,0,2.166-1l1.179,1.32a3.6,3.6,0,0,1-1.461,1.191,4.793,4.793,0,0,1-2.042.428m-.274-7.379a1.5,1.5,0,0,0-1.158.483,2.507,2.507,0,0,0-.569,1.384h3.337v-.191a1.786,1.786,0,0,0-.431-1.239,1.551,1.551,0,0,0-1.179-.437" fill="#12263f"/>
      <path id="Trazado_215276" data-name="Trazado 215276" d="M325.982,178.267a6.56,6.56,0,0,0-.863-.066,1.757,1.757,0,0,0-1.785.921V185h-2.4v-8.981H323.2l.067,1.071a2.221,2.221,0,0,1,2-1.237,2.507,2.507,0,0,1,.747.108Z" fill="#12263f"/>
      <path id="Trazado_215277" data-name="Trazado 215277" d="M332.182,178.267a6.561,6.561,0,0,0-.863-.066,1.757,1.757,0,0,0-1.785.921V185h-2.4v-8.981H329.4l.067,1.071a2.221,2.221,0,0,1,2-1.237,2.507,2.507,0,0,1,.747.108Z" fill="#12263f"/>
      <path id="Trazado_215278" data-name="Trazado 215278" d="M332.664,180.426a5.315,5.315,0,0,1,.515-2.382,3.759,3.759,0,0,1,1.481-1.618,4.315,4.315,0,0,1,2.246-.573,4.09,4.09,0,0,1,2.967,1.112,4.464,4.464,0,0,1,1.283,3.022l.016.614a4.7,4.7,0,0,1-1.153,3.316,4.476,4.476,0,0,1-6.2,0,4.778,4.778,0,0,1-1.158-3.386Zm2.4.17a3.366,3.366,0,0,0,.481,1.959,1.731,1.731,0,0,0,2.74.008,3.677,3.677,0,0,0,.489-2.141,3.326,3.326,0,0,0-.489-1.945,1.594,1.594,0,0,0-1.378-.691,1.568,1.568,0,0,0-1.362.687,3.739,3.739,0,0,0-.481,2.123" fill="#12263f"/>
      <path id="Trazado_215279" data-name="Trazado 215279" d="M342.3,180.443a5.261,5.261,0,0,1,.984-3.329,3.187,3.187,0,0,1,2.652-1.262,2.8,2.8,0,0,1,2.3,1.013l.1-.847h2.175V184.7a3.843,3.843,0,0,1-.536,2.051,3.45,3.45,0,0,1-1.506,1.328,5.306,5.306,0,0,1-2.275.456,4.925,4.925,0,0,1-1.926-.395,3.411,3.411,0,0,1-1.419-1.016l1.062-1.461a2.81,2.81,0,0,0,2.175,1,2.059,2.059,0,0,0,1.486-.51,1.916,1.916,0,0,0,.531-1.449v-.481a2.775,2.775,0,0,1-2.183.938A3.176,3.176,0,0,1,343.3,183.9a5.261,5.261,0,0,1-1-3.357Zm2.4.17a3.3,3.3,0,0,0,.49,1.923,1.556,1.556,0,0,0,1.344.7,1.663,1.663,0,0,0,1.569-.826v-3.794a1.658,1.658,0,0,0-1.552-.825,1.564,1.564,0,0,0-1.357.708,3.716,3.716,0,0,0-.494,2.118" fill="#12263f"/>
      <path id="Trazado_215280" data-name="Trazado 215280" d="M357.558,185a2.66,2.66,0,0,1-.241-.8,2.9,2.9,0,0,1-2.266.971,3.188,3.188,0,0,1-2.187-.764,2.452,2.452,0,0,1-.868-1.925,2.537,2.537,0,0,1,1.059-2.192,5.218,5.218,0,0,1,3.059-.771h1.1V179a1.484,1.484,0,0,0-.32-1,1.26,1.26,0,0,0-1.009-.373,1.429,1.429,0,0,0-.95.291.984.984,0,0,0-.344.8h-2.4a2.415,2.415,0,0,1,.481-1.446,3.191,3.191,0,0,1,1.361-1.041,4.959,4.959,0,0,1,1.976-.377,3.928,3.928,0,0,1,2.636.833,2.92,2.92,0,0,1,.975,2.345v3.894a4.278,4.278,0,0,0,.357,1.934V185Zm-1.984-1.668a2.059,2.059,0,0,0,.979-.237,1.555,1.555,0,0,0,.665-.635v-1.544h-.9q-1.8,0-1.917,1.245l-.009.142a.956.956,0,0,0,.316.738,1.228,1.228,0,0,0,.863.291" fill="#12263f"/>
      <path id="Trazado_215281" data-name="Trazado 215281" d="M363.675,176.018l.075,1.038a3.134,3.134,0,0,1,2.581-1.2,2.6,2.6,0,0,1,2.125.839,3.907,3.907,0,0,1,.714,2.506V185h-2.4v-5.757a1.567,1.567,0,0,0-.332-1.111,1.484,1.484,0,0,0-1.1-.344,1.651,1.651,0,0,0-1.519.864V185h-2.4v-8.981Z" fill="#12263f"/>
      <path id="Trazado_215282" data-name="Trazado 215282" d="M373.861,173.81v2.208H375.4v1.76h-1.535v4.482a1.066,1.066,0,0,0,.19.714.958.958,0,0,0,.73.216,3.888,3.888,0,0,0,.706-.058v1.818a4.963,4.963,0,0,1-1.453.215,2.29,2.29,0,0,1-2.573-2.548v-4.839H370.15v-1.76h1.311V173.81Z" fill="#12263f"/>
      <path id="Trazado_215283" data-name="Trazado 215283" d="M380.866,185.166a4.407,4.407,0,0,1-3.216-1.212,4.305,4.305,0,0,1-1.242-3.229v-.233a5.434,5.434,0,0,1,.523-2.419,3.838,3.838,0,0,1,1.482-1.643,4.155,4.155,0,0,1,2.187-.578,3.725,3.725,0,0,1,2.9,1.163,4.718,4.718,0,0,1,1.059,3.295v.979h-5.719a2.227,2.227,0,0,0,.7,1.412,2.121,2.121,0,0,0,1.482.531,2.588,2.588,0,0,0,2.166-1l1.179,1.32a3.6,3.6,0,0,1-1.461,1.191,4.793,4.793,0,0,1-2.042.428m-.274-7.379a1.5,1.5,0,0,0-1.158.483,2.507,2.507,0,0,0-.569,1.384H382.2v-.191a1.786,1.786,0,0,0-.431-1.239,1.551,1.551,0,0,0-1.179-.437" fill="#12263f"/>
    </g>
  </g>
  <path id="Trazado_215284" data-name="Trazado 215284" d="M152.632,313l2.739-9.09h2.773L153.934,316h-2.6l-4.192-12.086h2.764Z" fill="#12263f"/>
  <g id="Grupo_154084" data-name="Grupo 154084">
    <g id="Grupo_154083" data-name="Grupo 154083" clip-path="url(#clip-path)">
      <path id="Trazado_215285" data-name="Trazado 215285" d="M163.946,316a2.661,2.661,0,0,1-.241-.8,2.9,2.9,0,0,1-2.266.971,3.188,3.188,0,0,1-2.187-.764,2.452,2.452,0,0,1-.868-1.925,2.537,2.537,0,0,1,1.059-2.192,5.218,5.218,0,0,1,3.059-.771h1.1V310a1.484,1.484,0,0,0-.32-1,1.26,1.26,0,0,0-1.009-.373,1.429,1.429,0,0,0-.95.291.984.984,0,0,0-.344.8h-2.4a2.415,2.415,0,0,1,.481-1.446,3.191,3.191,0,0,1,1.361-1.041,4.959,4.959,0,0,1,1.976-.377,3.928,3.928,0,0,1,2.636.833,2.92,2.92,0,0,1,.975,2.345v3.894a4.278,4.278,0,0,0,.357,1.934V316Zm-1.984-1.668a2.059,2.059,0,0,0,.979-.237,1.555,1.555,0,0,0,.665-.635v-1.544h-.9q-1.8,0-1.917,1.245l-.009.142a.956.956,0,0,0,.316.738,1.228,1.228,0,0,0,.863.291" fill="#12263f"/>
      <path id="Trazado_215286" data-name="Trazado 215286" d="M171.59,314.232a1.576,1.576,0,0,0,1.079-.365,1.281,1.281,0,0,0,.432-.972h2.249a3.073,3.073,0,0,1-.5,1.673,3.286,3.286,0,0,1-1.341,1.179,4.2,4.2,0,0,1-1.879.419,3.9,3.9,0,0,1-3.039-1.225,4.846,4.846,0,0,1-1.112-3.383V311.4a4.789,4.789,0,0,1,1.1-3.312,3.853,3.853,0,0,1,3.03-1.237,3.775,3.775,0,0,1,2.7.959,3.392,3.392,0,0,1,1.033,2.552H173.1a1.647,1.647,0,0,0-.432-1.139,1.607,1.607,0,0,0-2.362.173,3.548,3.548,0,0,0-.427,1.982v.25a3.591,3.591,0,0,0,.423,2,1.465,1.465,0,0,0,1.287.607" fill="#12263f"/>
      <path id="Trazado_215287" data-name="Trazado 215287" d="M181.925,316a2.66,2.66,0,0,1-.241-.8,2.9,2.9,0,0,1-2.266.971,3.188,3.188,0,0,1-2.187-.764,2.452,2.452,0,0,1-.868-1.925,2.537,2.537,0,0,1,1.059-2.192,5.218,5.218,0,0,1,3.059-.771h1.1V310a1.484,1.484,0,0,0-.32-1,1.26,1.26,0,0,0-1.009-.373,1.429,1.429,0,0,0-.95.291.984.984,0,0,0-.344.8h-2.4a2.415,2.415,0,0,1,.481-1.446,3.191,3.191,0,0,1,1.361-1.041,4.959,4.959,0,0,1,1.976-.377,3.928,3.928,0,0,1,2.636.833,2.92,2.92,0,0,1,.975,2.345v3.894a4.278,4.278,0,0,0,.357,1.934V316Zm-1.984-1.668a2.059,2.059,0,0,0,.979-.237,1.555,1.555,0,0,0,.665-.635v-1.544h-.9q-1.8,0-1.917,1.245l-.009.142a.956.956,0,0,0,.316.738,1.228,1.228,0,0,0,.863.291" fill="#12263f"/>
      <path id="Trazado_215288" data-name="Trazado 215288" d="M334.189,311.743V316H331.7V303.914h4.715a5.437,5.437,0,0,1,2.394.5,3.663,3.663,0,0,1,1.59,1.415,3.941,3.941,0,0,1,.556,2.087,3.469,3.469,0,0,1-1.216,2.8,5.063,5.063,0,0,1-3.366,1.026Zm0-2.018h2.225a2.186,2.186,0,0,0,1.506-.465,1.69,1.69,0,0,0,.519-1.328,1.993,1.993,0,0,0-.523-1.436,1.954,1.954,0,0,0-1.444-.564h-2.283Z" fill="#12263f"/>
      <path id="Trazado_215289" data-name="Trazado 215289" d="M346.533,316.166a4.408,4.408,0,0,1-3.217-1.212,4.306,4.306,0,0,1-1.242-3.229v-.233a5.434,5.434,0,0,1,.524-2.419,3.835,3.835,0,0,1,1.481-1.643,4.161,4.161,0,0,1,2.188-.578,3.727,3.727,0,0,1,2.9,1.163,4.718,4.718,0,0,1,1.059,3.295v.979h-5.719a2.231,2.231,0,0,0,.7,1.412,2.123,2.123,0,0,0,1.482.531,2.59,2.59,0,0,0,2.167-1.005l1.178,1.32a3.585,3.585,0,0,1-1.461,1.191,4.785,4.785,0,0,1-2.041.428m-.274-7.379a1.5,1.5,0,0,0-1.159.483,2.522,2.522,0,0,0-.569,1.384h3.337v-.191a1.781,1.781,0,0,0-.43-1.239,1.554,1.554,0,0,0-1.179-.437" fill="#12263f"/>
      <path id="Trazado_215290" data-name="Trazado 215290" d="M356.634,309.267a6.558,6.558,0,0,0-.863-.066,1.757,1.757,0,0,0-1.785.921V316h-2.4v-8.981h2.266l.067,1.071a2.221,2.221,0,0,1,2-1.237,2.508,2.508,0,0,1,.747.108Z" fill="#12263f"/>
      <path id="Trazado_215291" data-name="Trazado 215291" d="M362.835,309.267a6.558,6.558,0,0,0-.863-.066,1.757,1.757,0,0,0-1.785.921V316h-2.4v-8.981h2.266l.067,1.071a2.221,2.221,0,0,1,2-1.237,2.508,2.508,0,0,1,.747.108Z" fill="#12263f"/>
      <path id="Trazado_215292" data-name="Trazado 215292" d="M363.316,311.425a5.3,5.3,0,0,1,.516-2.381,3.755,3.755,0,0,1,1.481-1.619,4.322,4.322,0,0,1,2.246-.572,4.091,4.091,0,0,1,2.967,1.112,4.462,4.462,0,0,1,1.283,3.022l.015.614a4.7,4.7,0,0,1-1.152,3.316,4.477,4.477,0,0,1-6.2,0,4.782,4.782,0,0,1-1.158-3.386Zm2.4.171a3.353,3.353,0,0,0,.481,1.958,1.729,1.729,0,0,0,2.739.009,3.668,3.668,0,0,0,.49-2.141,3.318,3.318,0,0,0-.49-1.945,1.592,1.592,0,0,0-1.377-.691,1.566,1.566,0,0,0-1.362.687,3.729,3.729,0,0,0-.481,2.123" fill="#12263f"/>
    </g>
  </g>
  <line id="Línea_178" data-name="Línea 178" y2="275" transform="translate(257.501 58.001)" fill="none" stroke="#bdbdbd" stroke-width="1"/>
  <line id="Línea_179" data-name="Línea 179" x1="364" transform="translate(75 195.5)" fill="none" stroke="#bdbdbd" stroke-width="1"/>
  <g id="Grupo_154086" data-name="Grupo 154086">
    <g id="Grupo_154085" data-name="Grupo 154085" clip-path="url(#clip-path)">
      <path id="Trazado_215293" data-name="Trazado 215293" d="M166,152c19.33,0,35,1.343,35,3s-15.67,3-35,3-35-1.343-35-3,15.67-3,35-3" fill="#e8e8e8"/>
      <path id="Trazado_215294" data-name="Trazado 215294" d="M166,289c19.33,0,35,1.343,35,3s-15.67,3-35,3-35-1.343-35-3,15.67-3,35-3" fill="#e8e8e8"/>
      <path id="Trazado_215295" data-name="Trazado 215295" d="M348,152c19.33,0,35,1.343,35,3s-15.67,3-35,3-35-1.343-35-3,15.67-3,35-3" fill="#e8e8e8"/>
      <path id="Trazado_215296" data-name="Trazado 215296" d="M348,289c19.33,0,35,1.343,35,3s-15.67,3-35,3-35-1.343-35-3,15.67-3,35-3" fill="#e8e8e8"/>
      <path id="Trazado_215297" data-name="Trazado 215297" d="M166,218a37,37,0,1,1-37,37,37,37,0,0,1,37-37" fill="#fa6447"/>
      <path id="Trazado_215298" data-name="Trazado 215298" d="M202.967,255a37.214,37.214,0,0,0-.414-5.549l-22.068-22.066-1.81,27.163-27.163-27.163,1.01,22.513-8.646,2.605,18.355,18.355-9.964,9.577L163.731,291.9q1.126.068,2.269.068A36.967,36.967,0,0,0,202.967,255Z" fill="#9f321d"/>
      <path id="Trazado_215299" data-name="Trazado 215299" d="M158.841,239.4s-6.69-2.721-7.329-12.01c0,0-7.517,11.371,1.384,18.186s5.945-6.176,5.945-6.176" fill="#555a66"/>
      <path id="Trazado_215300" data-name="Trazado 215300" d="M152.962,247.549s-5.112-6.551-12.939-6.072c0,0-1.6,12.193,11.661,14.8Z" fill="#ffb89c"/>
      <path id="Trazado_215301" data-name="Trazado 215301" d="M173.159,239.4s6.69-2.721,7.329-12.01c0,0,7.517,11.371-1.384,18.186s-5.945-6.176-5.945-6.176" fill="#333940"/>
      <path id="Trazado_215302" data-name="Trazado 215302" d="M179.039,247.549s5.112-6.551,12.939-6.072c0,0,1.6,12.193-11.661,14.8Z" fill="#ff936b"/>
      <path id="Trazado_215303" data-name="Trazado 215303" d="M167.778,235.936h-4.641a13.514,13.514,0,0,0-13.4,15.25l2.658,20.531H179.61l1.627-12.563Z" fill="#fff"/>
      <path id="Trazado_215304" data-name="Trazado 215304" d="M167.778,235.936H166v35.781h13.608l1.627-12.563-.926-7.83Z" fill="#e9edf5"/>
      <path id="Trazado_215305" data-name="Trazado 215305" d="M174.549,282.615h-17.1a7.259,7.259,0,0,1-7.259-7.259v-1.915a7.259,7.259,0,0,1,7.259-7.259h17.1a7.259,7.259,0,0,1,7.259,7.259v1.914a7.259,7.259,0,0,1-7.258,7.26Z" fill="#ffb89c"/>
      <path id="Trazado_215306" data-name="Trazado 215306" d="M174.548,266.183H166v16.432h8.548a7.259,7.259,0,0,0,7.259-7.259v-1.915a7.259,7.259,0,0,0-7.259-7.258" fill="#ff936b"/>
      <path id="Trazado_215307" data-name="Trazado 215307" d="M159.313,272.147a2.788,2.788,0,1,1-2.788,2.788,2.788,2.788,0,0,1,2.788-2.788" fill="#555a66"/>
      <path id="Trazado_215308" data-name="Trazado 215308" d="M172.688,272.147a2.788,2.788,0,1,1-2.788,2.788,2.788,2.788,0,0,1,2.788-2.788" fill="#333940"/>
      <path id="Trazado_215309" data-name="Trazado 215309" d="M158.747,253.564a2.716,2.716,0,1,1-2.716,2.716,2.716,2.716,0,0,1,2.716-2.716" fill="#555a66"/>
      <path id="Trazado_215310" data-name="Trazado 215310" d="M173.255,253.564a2.716,2.716,0,1,1-2.716,2.716,2.716,2.716,0,0,1,2.716-2.716" fill="#333940"/>
      <path id="Trazado_215311" data-name="Trazado 215311" d="M168.864,235.936H166.7a9.961,9.961,0,0,1,3.2,5.112c1.113,4.686,1.094,9.158,5.576,9.371,2.684.128,4.63,4.915,5.759,8.736l1.032-7.968A13.515,13.515,0,0,0,170.6,236.049a13.373,13.373,0,0,0-1.732-.112Z" fill="#555a66"/>
      <path id="Trazado_215312" data-name="Trazado 215312" d="M351.5,218c20.711,0,37.5,16.565,37.5,37s-16.789,37-37.5,37S314,275.435,314,255s16.789-37,37.5-37" fill="#fa6447"/>
      <path id="Trazado_215313" data-name="Trazado 215313" d="M388.2,254.6a36.988,36.988,0,0,0-2.584-13.629l-3.753-3.711-51.754,4.091-3.883,11.612,8.654,8.652,8.168,20.417,9.632,9.632A37.1,37.1,0,0,0,388.2,254.6" fill="#9f321d"/>
      <path id="Trazado_215314" data-name="Trazado 215314" d="M344.243,237.492s-6.951-5.64-9.2-5.366-4.933,8.112-4.933,8.112,3.954,7.11,5.383,10.35Z" fill="#b56f40"/>
      <path id="Trazado_215315" data-name="Trazado 215315" d="M336.887,232.589a5.739,5.739,0,0,0-5-.584,62.583,62.583,0,0,0-9.794,3.8c-2.989,1.488-2.989,4.312-1,8.5,1.389,2.92,4.958,10.135,6.5,9.156.732-.465,5.053-12.612,5.944-14.989.737-1.957,3.073-5.06,3.35-5.883" fill="#cc8656"/>
      <path id="Trazado_215316" data-name="Trazado 215316" d="M357.96,237.492s6.951-5.64,9.2-5.366,4.933,8.112,4.933,8.112-3.954,7.11-5.383,10.35Z" fill="#a35d2e"/>
      <path id="Trazado_215317" data-name="Trazado 215317" d="M365.315,232.589a5.739,5.739,0,0,1,5-.584,62.583,62.583,0,0,1,9.794,3.8c2.989,1.488,2.989,4.312,1,8.5-1.389,2.92-4.958,10.135-6.5,9.156-.732-.465-5.053-12.612-5.944-14.989-.737-1.957-3.073-5.06-3.35-5.883" fill="#b56f40"/>
      <path id="Trazado_215318" data-name="Trazado 215318" d="M367.828,264.465q-.287.594-.628,1.243c-5.11,9.719-3.264,18.7-15.9,18.7s-10.79-8.981-15.9-18.7q-.342-.65-.628-1.243a69.352,69.352,0,0,0,4.283-14.6c1.292-7.256,8.808-14.6,8.808-14.6a18.55,18.55,0,0,1,6.872,0s7.309,7.349,8.6,14.6a62.694,62.694,0,0,0,4.493,14.6" fill="#fcf0e5"/>
      <path id="Trazado_215319" data-name="Trazado 215319" d="M367.828,264.465c-.191.4-.4.81-.628,1.243-5.112,9.719-3.265,18.7-15.9,18.7h-.2V234.935h.2a18.424,18.424,0,0,1,3.436.32s7.31,7.349,8.6,14.606a62.687,62.687,0,0,0,4.491,14.6" fill="#eaddd3"/>
      <path id="Trazado_215320" data-name="Trazado 215320" d="M351.1,267.853c-3.68,0-6.915.226-5.966,4.5.613,2.766,4.517,4.741,5.966,4.741s5.353-1.976,5.966-4.741c.949-4.274-2.286-4.5-5.966-4.5" fill="#70695e"/>
      <path id="Trazado_215321" data-name="Trazado 215321" d="M357.068,272.357c-.613,2.765-4.517,4.74-5.967,4.74v-9.244c3.68,0,6.916.225,5.967,4.5Z" fill="#5b554a"/>
      <path id="Trazado_215322" data-name="Trazado 215322" d="M345.9,260.814c-2.838,1.8-8.183,3.111-11.125,3.651-4.11-8.492.044-8.865,1.536-17.237a14.131,14.131,0,0,1,11.755-11.973c.409,6.441,2.673,22.5-2.166,25.559" fill="#cc8656"/>
      <path id="Trazado_215323" data-name="Trazado 215323" d="M367.828,264.465c-2.942-.539-8.2-1.8-11.036-3.594-4.839-3.061-2.664-19.174-2.255-25.615a14.132,14.132,0,0,1,11.753,11.972c1.494,8.372,5.648,8.745,1.538,17.237" fill="#b56f40"/>
      <path id="Trazado_215324" data-name="Trazado 215324" d="M340.07,251.521a2.326,2.326,0,1,1-.523,3.248,2.327,2.327,0,0,1,.523-3.248" fill="#5b554a"/>
      <path id="Trazado_215325" data-name="Trazado 215325" d="M359.46,251.512a2.326,2.326,0,1,1-.523,3.248,2.327,2.327,0,0,1,.523-3.248" fill="#3a352e"/>
      <path id="Trazado_215326" data-name="Trazado 215326" d="M166,81a37,37,0,1,1-37,37,37,37,0,0,1,37-37" fill="#fa6447"/>
      <path id="Trazado_215327" data-name="Trazado 215327" d="M202.967,118a37.214,37.214,0,0,0-.414-5.549L166.275,88.339l12.4,29.208-12.4-13.038L152.522,112.9l-8.646,2.6,18.355,18.355-13.85,9.069,15.35,11.973q1.126.067,2.269.068A36.967,36.967,0,0,0,202.967,118" fill="#9f321d"/>
      <path id="Trazado_215328" data-name="Trazado 215328" d="M165.913,88l-9.46,17.38L137,109.006l17.957,7.621,10.955,1.5,1.581-11.548Z" fill="#ffdd46"/>
      <path id="Trazado_215329" data-name="Trazado 215329" d="M194.826,109.006l-18.974,3.555-9.939,5.562,6.1,11.6,11.77,13.267-2.562-19.621Z" fill="#ff9e00"/>
      <path id="Trazado_215330" data-name="Trazado 215330" d="M148.044,143l17.869-8.5,1.468-6.687-1.468-9.685-9.261,7.426Z" fill="#ffdd46"/>
      <path id="Trazado_215331" data-name="Trazado 215331" d="M165.913,118.123V134.5l17.869,8.5Z" fill="#fcbe00"/>
      <path id="Trazado_215332" data-name="Trazado 215332" d="M194.826,109.006l-19.453-3.626L165.913,88v30.123Z" fill="#fcbe00"/>
      <path id="Trazado_215333" data-name="Trazado 215333" d="M137,109.006l13.606,14.368L148.044,143l17.869-24.872Z" fill="#fcbe00"/>
      <path id="Trazado_215334" data-name="Trazado 215334" d="M348,81a37,37,0,1,1-37,37,37,37,0,0,1,37-37" fill="#fa6447"/>
      <path id="Trazado_215335" data-name="Trazado 215335" d="M384.967,118a37.349,37.349,0,0,0-.414-5.549L358.935,90.53l1.741,27.018-6.224-9.782-5.58,11.855L342.3,125.4l3.435,7.672-8.915,14.449,8.914,7.38q1.126.067,2.269.068A36.967,36.967,0,0,0,384.967,118Z" fill="#9f321d"/>
      <path id="Trazado_215336" data-name="Trazado 215336" d="M349.2,121.689l10.837-8.489,1.692-14.78L349.2,91.52l-5.086,6.99a8.6,8.6,0,0,1-.985,15.8,12.211,12.211,0,0,0-8.1,11.508v2.221a5.239,5.239,0,0,0,5.237,5.238h7.66Z" fill="#fe9738"/>
      <path id="Trazado_215337" data-name="Trazado 215337" d="M334.092,111.443h-7.66a5.238,5.238,0,0,1-5.238-5.238,19.061,19.061,0,0,1,19.05-19.074c.432,0,.865.014,1.3.043H349.2l-5.45,5.5" fill="#fe9738"/>
      <path id="Trazado_215338" data-name="Trazado 215338" d="M347.929,138.349h-7.66a5.238,5.238,0,0,0-5.24,5.236h0v.043a5.238,5.238,0,0,0,5.238,5.238h6.728" fill="#fe9738"/>
      <path id="Trazado_215339" data-name="Trazado 215339" d="M347.927,133.283a5.238,5.238,0,0,1-5.238-5.238v-2.217a12.206,12.206,0,0,1,8.1-11.507A8.6,8.6,0,1,0,339.411,105a8.851,8.851,0,0,0-.083,1.206,5.238,5.238,0,1,1-10.475.144q0-.072,0-.144A19.074,19.074,0,1,1,354.281,124.2a1.716,1.716,0,0,0-1.118,1.631v2.222a5.237,5.237,0,0,1-5.236,5.232" fill="#ffd15b"/>
      <path id="Trazado_215340" data-name="Trazado 215340" d="M347.928,148.868a5.238,5.238,0,0,1-5.238-5.238v-.045a5.238,5.238,0,0,1,10.475,0v.043a5.237,5.237,0,0,1-5.234,5.24Z" fill="#ffd15b"/>
      <path id="Trazado_215341" data-name="Trazado 215341" d="M333.671,103.553a19,19,0,0,0-.183,2.653,5.234,5.234,0,0,0,2.922,4.7,5.238,5.238,0,0,1-7.553-4.7,19.077,19.077,0,0,1,19.079-19.075c.422,0,.845.014,1.266.042.356.023.709.057,1.06.1a19.162,19.162,0,0,0-16.591,16.28" fill="#ffc344"/>
      <path id="Trazado_215342" data-name="Trazado 215342" d="M355.421,114.316a12.211,12.211,0,0,0-8.1,11.508v2.221a5.236,5.236,0,0,0,2.925,4.7,5.238,5.238,0,0,1-7.553-4.7v-2.221a12.207,12.207,0,0,1,8.1-11.508,8.6,8.6,0,0,0-.534-16.387,8.6,8.6,0,0,1,5.162,16.387" fill="#ffc344"/>
      <path id="Trazado_215343" data-name="Trazado 215343" d="M350.244,148.327a5.238,5.238,0,0,1-7.553-4.7v-.045a5.239,5.239,0,0,1,7.553-4.7,5.242,5.242,0,0,0-2.925,4.7v.044a5.234,5.234,0,0,0,2.925,4.7" fill="#ffc344"/>
    </g>
  </g>
</svg>
