<svg xmlns="http://www.w3.org/2000/svg" xmlns:xlink="http://www.w3.org/1999/xlink" width="820" height="537" viewBox="0 0 820 537">
  <defs>
    <linearGradient id="linear-gradient" x1="0.015" y1="0.527" x2="0.98" y2="0.527" gradientUnits="objectBoundingBox">
      <stop offset="0" stop-color="#fff5db"/>
      <stop offset="1" stop-color="#fffcf5"/>
    </linearGradient>
    <linearGradient id="linear-gradient-2" y1="0.099" x2="0.988" y2="0.111" gradientUnits="objectBoundingBox">
      <stop offset="0" stop-color="#e9edf5"/>
      <stop offset="1" stop-color="#fff"/>
    </linearGradient>
    <clipPath id="clip-path">
      <rect id="Rectángulo_44409" data-name="Rectángulo 44409" width="762.398" height="526.25" fill="none"/>
    </clipPath>
  </defs>
  <g id="Grupo_153970" data-name="Grupo 153970" transform="translate(-390 -11160)">
    <g id="Grupo_153438" data-name="Grupo 153438" transform="translate(0 1995)">
      <rect id="Rectángulo_43032" data-name="Rectángulo 43032" width="651" height="431" transform="translate(559 9202)" fill="url(#linear-gradient)"/>
      <rect id="Rectángulo_43033" data-name="Rectángulo 43033" width="651" height="203" transform="translate(559 9430)" fill="url(#linear-gradient-2)"/>
      <path id="Trazado_213258" data-name="Trazado 213258" d="M-6919-2343.81h753.59" transform="translate(7375.387 11774.089)" fill="none" stroke="#9f321d" stroke-width="2" stroke-dasharray="4"/>
      <rect id="Rectángulo_43034" data-name="Rectángulo 43034" width="165" height="36" transform="translate(559 9191)" fill="#e8e8e8"/>
      <rect id="Rectángulo_43035" data-name="Rectángulo 43035" width="163" height="36" transform="translate(721 9191)" fill="#f3e6e3"/>
      <rect id="Rectángulo_43036" data-name="Rectángulo 43036" width="165" height="36" transform="translate(883 9191)" fill="#e8e8e8"/>
      <rect id="Rectángulo_43037" data-name="Rectángulo 43037" width="165" height="36" transform="translate(1045 9191)" fill="#f3e6e3"/>
      <g id="Rectángulo_43038" data-name="Rectángulo 43038" transform="translate(390 9633)" fill="none" stroke="#707070" stroke-width="1">
        <rect width="820" height="42" stroke="none"/>
        <rect x="0.5" y="0.5" width="819" height="41" fill="none"/>
      </g>
      <path id="Trazado_213259" data-name="Trazado 213259" d="M-6610-2406v406.8" transform="translate(7331.44 11632.93)" fill="none" stroke="#beb9b9" stroke-width="1"/>
      <path id="Trazado_213260" data-name="Trazado 213260" d="M-6610-2406v406.8" transform="translate(7493.147 11632.93)" fill="none" stroke="#beb9b9" stroke-width="1"/>
      <path id="Trazado_213261" data-name="Trazado 213261" d="M-6610-2406v406.8" transform="translate(7654.853 11632.93)" fill="none" stroke="#beb9b9" stroke-width="1"/>
      <path id="Trazado_213257" data-name="Trazado 213257" d="M-6861.919-2071.295s40.078-5.433,46.871-11.547,21.738-19.02,21.738-19.02,13.689-15.625,17.374-20.379,54.632-80.157,62.782-93.743,19.7-27.171,21.058-31.247,57.74-86.95,65.892-105.291,20.947-60.458,38.665-70.647,59.833-27.852,75.457-25.134,36-9.51,76.76,14.266,113.443,85.591,122.953,92.385,56.383,61.816,59.778,65.213" transform="translate(7420.721 11690.469)" fill="none" stroke="#9f321d" stroke-linecap="round" stroke-width="3"/>
      <rect id="Rectángulo_43039" data-name="Rectángulo 43039" width="211" height="26" transform="translate(510 9165)" fill="#9f321d"/>
      <rect id="Rectángulo_43040" data-name="Rectángulo 43040" width="211" height="27" transform="translate(781 9675)" fill="#9f321d"/>
      <rect id="Rectángulo_43041" data-name="Rectángulo 43041" width="211" height="27" transform="translate(453 9675)" fill="#9f321d"/>
      <g id="Grupo_154133" data-name="Grupo 154133" transform="translate(390 9170)">
        <g id="Grupo_154134" data-name="Grupo 154134">
          <g id="Grupo_154133-2" data-name="Grupo 154133" clip-path="url(#clip-path)">
            <path id="Trazado_215565" data-name="Trazado 215565" d="M306.992,483.782V488h-1.977V476.626h4.352a4.4,4.4,0,0,1,3.027.993,3.341,3.341,0,0,1,1.121,2.628,3.229,3.229,0,0,1-1.1,2.6,4.619,4.619,0,0,1-3.074.931Zm0-1.594h2.375a2.337,2.337,0,0,0,1.609-.5,1.824,1.824,0,0,0,.555-1.434,1.966,1.966,0,0,0-.562-1.472,2.168,2.168,0,0,0-1.547-.567h-2.43Z" fill="#12263f"/>
            <path id="Trazado_215566" data-name="Trazado 215566" d="M314.6,483.7a4.985,4.985,0,0,1,.492-2.238,3.6,3.6,0,0,1,1.383-1.532,3.9,3.9,0,0,1,2.046-.535,3.691,3.691,0,0,1,2.778,1.1,4.329,4.329,0,0,1,1.152,2.922l.008.445a5.019,5.019,0,0,1-.481,2.234,3.553,3.553,0,0,1-1.375,1.524,3.926,3.926,0,0,1-2.066.539,3.667,3.667,0,0,1-2.863-1.192,4.555,4.555,0,0,1-1.074-3.175Zm1.9.164a3.408,3.408,0,0,0,.539,2.043,1.752,1.752,0,0,0,1.5.738,1.733,1.733,0,0,0,1.5-.75,3.758,3.758,0,0,0,.535-2.2,3.361,3.361,0,0,0-.55-2.031,1.761,1.761,0,0,0-1.5-.75,1.741,1.741,0,0,0-1.476.738,3.688,3.688,0,0,0-.547,2.207" fill="#12263f"/>
            <path id="Trazado_215567" data-name="Trazado 215567" d="M327.539,486.641a1.718,1.718,0,0,0,1.18-.414,1.42,1.42,0,0,0,.5-1.023h1.789a2.808,2.808,0,0,1-.492,1.472,3.233,3.233,0,0,1-1.25,1.082,3.725,3.725,0,0,1-1.7.4,3.6,3.6,0,0,1-2.812-1.149,4.553,4.553,0,0,1-1.039-3.172v-.2a4.484,4.484,0,0,1,1.031-3.09,3.574,3.574,0,0,1,2.813-1.16,3.473,3.473,0,0,1,2.457.879,3.15,3.15,0,0,1,1,2.309h-1.789a1.749,1.749,0,0,0-.5-1.2,1.6,1.6,0,0,0-1.184-.469,1.671,1.671,0,0,0-1.422.668,3.4,3.4,0,0,0-.508,2.028v.3a3.462,3.462,0,0,0,.5,2.051,1.67,1.67,0,0,0,1.434.676" fill="#12263f"/>
            <path id="Trazado_215568" data-name="Trazado 215568" d="M332.086,483.7a4.985,4.985,0,0,1,.492-2.238,3.6,3.6,0,0,1,1.383-1.532,3.9,3.9,0,0,1,2.046-.535,3.691,3.691,0,0,1,2.778,1.1,4.329,4.329,0,0,1,1.152,2.922l.008.445a5.018,5.018,0,0,1-.481,2.234,3.552,3.552,0,0,1-1.375,1.524,3.926,3.926,0,0,1-2.066.539,3.667,3.667,0,0,1-2.863-1.192,4.554,4.554,0,0,1-1.074-3.175Zm1.9.164a3.408,3.408,0,0,0,.539,2.043,1.752,1.752,0,0,0,1.5.738,1.733,1.733,0,0,0,1.5-.75,3.758,3.758,0,0,0,.535-2.2,3.361,3.361,0,0,0-.55-2.031,1.762,1.762,0,0,0-1.5-.75,1.741,1.741,0,0,0-1.476.738,3.688,3.688,0,0,0-.547,2.207" fill="#12263f"/>
            <path id="Trazado_215569" data-name="Trazado 215569" d="M1.015,447V435.625h3.9a4.763,4.763,0,0,1,2.937.773,2.725,2.725,0,0,1,1.008,2.3,2.453,2.453,0,0,1-.422,1.406,2.72,2.72,0,0,1-1.234.969,2.514,2.514,0,0,1,1.426.941,2.743,2.743,0,0,1,.5,1.66A3.028,3.028,0,0,1,8.1,446.14a4.462,4.462,0,0,1-2.941.86Zm1.977-6.586H4.929A2.247,2.247,0,0,0,6.371,440a1.432,1.432,0,0,0,.519-1.184,1.451,1.451,0,0,0-.48-1.218,2.425,2.425,0,0,0-1.5-.375H2.992Zm0,1.453v3.539H5.187a2.131,2.131,0,0,0,1.453-.459,1.807,1.807,0,0,0-1.289-3.08Z" fill="#12263f"/>
            <path id="Trazado_215570" data-name="Trazado 215570" d="M15.977,447a2.923,2.923,0,0,1-.219-.789,2.956,2.956,0,0,1-2.219.945,2.982,2.982,0,0,1-2.078-.726,2.323,2.323,0,0,1-.8-1.8,2.4,2.4,0,0,1,1-2.074,4.86,4.86,0,0,1,2.871-.723H15.7v-.555a1.477,1.477,0,0,0-.368-1.05,1.456,1.456,0,0,0-1.117-.395,1.676,1.676,0,0,0-1.062.324,1,1,0,0,0-.414.825h-1.9a2.107,2.107,0,0,1,.461-1.3,3.062,3.062,0,0,1,1.254-.949,4.387,4.387,0,0,1,1.77-.344,3.55,3.55,0,0,1,2.367.746,2.659,2.659,0,0,1,.906,2.1v3.812a4.326,4.326,0,0,0,.32,1.82V447Zm-2.086-1.367a2.164,2.164,0,0,0,1.059-.273,1.834,1.834,0,0,0,.746-.735v-1.594H14.672a2.8,2.8,0,0,0-1.586.368,1.189,1.189,0,0,0-.531,1.039,1.11,1.11,0,0,0,.363.871,1.41,1.41,0,0,0,.973.324" fill="#12263f"/>
            <path id="Trazado_215571" data-name="Trazado 215571" d="M21.563,438.547v9.2a2.781,2.781,0,0,1-.645,1.981,2.47,2.47,0,0,1-1.887.683,3.824,3.824,0,0,1-1.008-.132v-1.5a2.984,2.984,0,0,0,.672.07q.945,0,.969-1.031v-9.274Zm-2.063-2.2a1.018,1.018,0,0,1,.277-.732,1.045,1.045,0,0,1,.793-.291,1.056,1.056,0,0,1,.8.291,1.009,1.009,0,0,1,.281.732.988.988,0,0,1-.281.721,1.066,1.066,0,0,1-.8.287,1.054,1.054,0,0,1-.793-.287,1,1,0,0,1-.277-.721" fill="#12263f"/>
            <path id="Trazado_215572" data-name="Trazado 215572" d="M28.641,447a2.923,2.923,0,0,1-.219-.789,3.195,3.195,0,0,1-4.3.219,2.323,2.323,0,0,1-.8-1.8,2.4,2.4,0,0,1,1-2.074,4.86,4.86,0,0,1,2.871-.723H28.36v-.555a1.477,1.477,0,0,0-.368-1.05,1.456,1.456,0,0,0-1.117-.395,1.676,1.676,0,0,0-1.062.324,1,1,0,0,0-.414.825H23.5a2.107,2.107,0,0,1,.461-1.3,3.062,3.062,0,0,1,1.254-.949,4.387,4.387,0,0,1,1.77-.344,3.55,3.55,0,0,1,2.367.746,2.659,2.659,0,0,1,.906,2.1v3.812a4.326,4.326,0,0,0,.32,1.82V447Zm-2.086-1.367a2.164,2.164,0,0,0,1.059-.273,1.834,1.834,0,0,0,.746-.735v-1.594H27.336a2.8,2.8,0,0,0-1.586.368,1.189,1.189,0,0,0-.531,1.039,1.11,1.11,0,0,0,.363.871,1.41,1.41,0,0,0,.973.324" fill="#12263f"/>
            <path id="Trazado_215573" data-name="Trazado 215573" d="M36.984,444.7a.86.86,0,0,0-.418-.773,4.466,4.466,0,0,0-1.387-.469,7.163,7.163,0,0,1-1.617-.516,2.158,2.158,0,0,1-1.422-1.992,2.248,2.248,0,0,1,.922-1.828,3.647,3.647,0,0,1,2.344-.734,3.793,3.793,0,0,1,2.449.75,2.381,2.381,0,0,1,.934,1.945h-1.9a1.169,1.169,0,0,0-.406-.91,1.555,1.555,0,0,0-1.078-.364,1.688,1.688,0,0,0-1.02.289.912.912,0,0,0-.394.774.77.77,0,0,0,.367.68,5.048,5.048,0,0,0,1.484.488,7.012,7.012,0,0,1,1.754.586,2.492,2.492,0,0,1,.946.816,2.088,2.088,0,0,1,.308,1.156,2.2,2.2,0,0,1-.945,1.848,4.029,4.029,0,0,1-2.477.707,4.365,4.365,0,0,1-1.851-.375,3.049,3.049,0,0,1-1.266-1.031,2.436,2.436,0,0,1-.453-1.414H33.7a1.332,1.332,0,0,0,.508,1.035,1.972,1.972,0,0,0,1.242.363,1.91,1.91,0,0,0,1.14-.285.883.883,0,0,0,.391-.746" fill="#12263f"/>
          </g>
        </g>
        <path id="Trazado_215574" data-name="Trazado 215574" d="M3.578,229.625l3.281,8.719,3.274-8.719h2.554V241H10.719v-3.75l.2-5.016L7.555,241H6.141l-3.352-8.758.195,5.008V241H1.015V229.625Z" fill="#12263f"/>
        <g id="Grupo_154136" data-name="Grupo 154136">
          <g id="Grupo_154135" data-name="Grupo 154135" clip-path="url(#clip-path)">
            <path id="Trazado_215575" data-name="Trazado 215575" d="M14.485,236.7a4.985,4.985,0,0,1,.492-2.238,3.6,3.6,0,0,1,1.383-1.532,3.9,3.9,0,0,1,2.046-.535,3.691,3.691,0,0,1,2.778,1.1,4.329,4.329,0,0,1,1.152,2.922l.008.445a5.018,5.018,0,0,1-.481,2.234,3.553,3.553,0,0,1-1.375,1.524,3.927,3.927,0,0,1-2.066.539,3.667,3.667,0,0,1-2.863-1.192,4.555,4.555,0,0,1-1.074-3.175Zm1.9.164a3.408,3.408,0,0,0,.539,2.043,1.752,1.752,0,0,0,1.5.738,1.733,1.733,0,0,0,1.5-.75,3.758,3.758,0,0,0,.535-2.195,3.361,3.361,0,0,0-.55-2.031,1.762,1.762,0,0,0-1.5-.75,1.741,1.741,0,0,0-1.476.738,3.688,3.688,0,0,0-.547,2.207" fill="#12263f"/>
            <path id="Trazado_215576" data-name="Trazado 215576" d="M23.594,236.711a5.021,5.021,0,0,1,.906-3.137,2.9,2.9,0,0,1,2.429-1.183,2.759,2.759,0,0,1,2.172.937V229H31v12H29.281l-.094-.875a2.8,2.8,0,0,1-2.273,1.031,2.884,2.884,0,0,1-2.4-1.2,5.2,5.2,0,0,1-.918-3.25m1.9.164a3.519,3.519,0,0,0,.5,2.012,1.61,1.61,0,0,0,1.41.722,1.792,1.792,0,0,0,1.7-1.039v-3.609a1.766,1.766,0,0,0-1.687-1.016,1.619,1.619,0,0,0-1.422.731,3.913,3.913,0,0,0-.5,2.2" fill="#12263f"/>
            <path id="Trazado_215577" data-name="Trazado 215577" d="M36.7,241.156a3.926,3.926,0,0,1-2.926-1.137,4.118,4.118,0,0,1-1.121-3.027v-.234a5.066,5.066,0,0,1,.488-2.262,3.712,3.712,0,0,1,1.371-1.551,3.619,3.619,0,0,1,1.969-.554,3.321,3.321,0,0,1,2.668,1.1,4.661,4.661,0,0,1,.941,3.117v.766H34.571a2.53,2.53,0,0,0,.7,1.656,2.1,2.1,0,0,0,1.543.61,2.572,2.572,0,0,0,2.125-1.055l1.023.976a3.417,3.417,0,0,1-1.355,1.176,4.241,4.241,0,0,1-1.9.418m-.227-7.242a1.6,1.6,0,0,0-1.262.547,2.829,2.829,0,0,0-.613,1.523h3.617v-.14a2.308,2.308,0,0,0-.508-1.442,1.589,1.589,0,0,0-1.234-.488" fill="#12263f"/>
            <path id="Trazado_215578" data-name="Trazado 215578" d="M45.992,234.281a4.661,4.661,0,0,0-.773-.062,1.741,1.741,0,0,0-1.758,1V241h-1.9v-8.453h1.813l.047.945a2.139,2.139,0,0,1,1.906-1.1,1.782,1.782,0,0,1,.672.11Z" fill="#12263f"/>
            <path id="Trazado_215579" data-name="Trazado 215579" d="M52.008,241a2.923,2.923,0,0,1-.219-.789,3.195,3.195,0,0,1-4.3.219,2.323,2.323,0,0,1-.8-1.8,2.4,2.4,0,0,1,1-2.074,4.86,4.86,0,0,1,2.871-.723h1.164v-.555a1.477,1.477,0,0,0-.368-1.05,1.456,1.456,0,0,0-1.117-.4,1.676,1.676,0,0,0-1.062.324,1,1,0,0,0-.414.825h-1.9a2.107,2.107,0,0,1,.461-1.3,3.062,3.062,0,0,1,1.254-.949,4.387,4.387,0,0,1,1.77-.344,3.55,3.55,0,0,1,2.367.746,2.659,2.659,0,0,1,.906,2.1v3.812a4.326,4.326,0,0,0,.32,1.82V241Zm-2.086-1.367a2.164,2.164,0,0,0,1.059-.273,1.834,1.834,0,0,0,.746-.735v-1.594H50.7a2.8,2.8,0,0,0-1.586.368,1.189,1.189,0,0,0-.531,1.039,1.11,1.11,0,0,0,.363.871,1.41,1.41,0,0,0,.973.324" fill="#12263f"/>
            <path id="Trazado_215580" data-name="Trazado 215580" d="M55.258,236.711a5.021,5.021,0,0,1,.906-3.137,2.9,2.9,0,0,1,2.429-1.183,2.759,2.759,0,0,1,2.172.937V229h1.9v12H60.945l-.094-.875a2.8,2.8,0,0,1-2.273,1.031,2.884,2.884,0,0,1-2.4-1.2,5.2,5.2,0,0,1-.918-3.25m1.9.164a3.519,3.519,0,0,0,.5,2.012,1.61,1.61,0,0,0,1.41.722,1.792,1.792,0,0,0,1.7-1.039v-3.609a1.766,1.766,0,0,0-1.687-1.016,1.619,1.619,0,0,0-1.422.731,3.913,3.913,0,0,0-.5,2.2" fill="#12263f"/>
            <path id="Trazado_215581" data-name="Trazado 215581" d="M69.695,241a2.923,2.923,0,0,1-.219-.789,3.195,3.195,0,0,1-4.3.219,2.323,2.323,0,0,1-.8-1.8,2.4,2.4,0,0,1,1-2.074,4.86,4.86,0,0,1,2.871-.723h1.164v-.555a1.477,1.477,0,0,0-.368-1.05,1.456,1.456,0,0,0-1.117-.4,1.676,1.676,0,0,0-1.062.324,1,1,0,0,0-.414.825h-1.9a2.107,2.107,0,0,1,.461-1.3,3.062,3.062,0,0,1,1.254-.949,4.387,4.387,0,0,1,1.77-.344,3.55,3.55,0,0,1,2.367.746,2.659,2.659,0,0,1,.906,2.1v3.812a4.326,4.326,0,0,0,.32,1.82V241Zm-2.086-1.367a2.164,2.164,0,0,0,1.059-.273,1.834,1.834,0,0,0,.746-.735v-1.594H68.39a2.8,2.8,0,0,0-1.586.368,1.188,1.188,0,0,0-.531,1.039,1.11,1.11,0,0,0,.363.871,1.41,1.41,0,0,0,.973.324" fill="#12263f"/>
            <path id="Trazado_215582" data-name="Trazado 215582" d="M78.039,238.7a.86.86,0,0,0-.418-.773,4.466,4.466,0,0,0-1.387-.469,7.165,7.165,0,0,1-1.617-.516,2.158,2.158,0,0,1-1.422-1.992,2.248,2.248,0,0,1,.922-1.828,3.647,3.647,0,0,1,2.344-.734,3.793,3.793,0,0,1,2.449.75,2.381,2.381,0,0,1,.934,1.945h-1.9a1.169,1.169,0,0,0-.406-.91,1.555,1.555,0,0,0-1.078-.364,1.688,1.688,0,0,0-1.02.289.912.912,0,0,0-.394.774.77.77,0,0,0,.367.68,5.048,5.048,0,0,0,1.484.488,7.011,7.011,0,0,1,1.754.586,2.492,2.492,0,0,1,.946.816,2.088,2.088,0,0,1,.308,1.156,2.2,2.2,0,0,1-.945,1.848,4.029,4.029,0,0,1-2.477.707,4.365,4.365,0,0,1-1.851-.375,3.049,3.049,0,0,1-1.266-1.031,2.436,2.436,0,0,1-.453-1.414h1.844a1.332,1.332,0,0,0,.508,1.035,1.972,1.972,0,0,0,1.242.363,1.91,1.91,0,0,0,1.14-.285.883.883,0,0,0,.391-.746" fill="#12263f"/>
          </g>
        </g>
        <path id="Trazado_215583" data-name="Trazado 215583" d="M359.961,349.773h6.508V351h-8.281v-1.125l6.234-9.024h-6.133v-1.226h7.93v1.094Z" fill="#12263f"/>
        <g id="Grupo_154138" data-name="Grupo 154138">
          <g id="Grupo_154137" data-name="Grupo 154137" clip-path="url(#clip-path)">
            <path id="Trazado_215584" data-name="Trazado 215584" d="M367.641,346.7a4.984,4.984,0,0,1,.488-2.234,3.634,3.634,0,0,1,1.36-1.532,3.7,3.7,0,0,1,1.988-.539,3.567,3.567,0,0,1,2.793,1.2,4.6,4.6,0,0,1,1.066,3.179v.1a5.05,5.05,0,0,1-.472,2.215,3.6,3.6,0,0,1-1.352,1.527,3.751,3.751,0,0,1-2.02.547,3.555,3.555,0,0,1-2.785-1.2,4.576,4.576,0,0,1-1.066-3.164Zm1.453.172a3.618,3.618,0,0,0,.652,2.258,2.211,2.211,0,0,0,3.5-.012,3.956,3.956,0,0,0,.649-2.418,3.616,3.616,0,0,0-.66-2.254,2.1,2.1,0,0,0-1.754-.863,2.076,2.076,0,0,0-1.727.851,3.929,3.929,0,0,0-.656,2.438" fill="#12263f"/>
            <path id="Trazado_215585" data-name="Trazado 215585" d="M378.516,342.547l.047,1.062a3.076,3.076,0,0,1,2.531-1.218q2.678,0,2.7,3.023V351h-1.445v-5.594a1.952,1.952,0,0,0-.418-1.351,1.673,1.673,0,0,0-1.277-.438,2.087,2.087,0,0,0-1.235.375,2.528,2.528,0,0,0-.828.985V351h-1.445v-8.453Z" fill="#12263f"/>
            <path id="Trazado_215586" data-name="Trazado 215586" d="M391.2,351a2.986,2.986,0,0,1-.2-.891,3.225,3.225,0,0,1-2.406,1.047,2.983,2.983,0,0,1-2.051-.707,2.286,2.286,0,0,1-.8-1.793,2.389,2.389,0,0,1,1-2.051,4.73,4.73,0,0,1,2.825-.73h1.406v-.664a1.631,1.631,0,0,0-.453-1.208,1.826,1.826,0,0,0-1.336-.449,2.1,2.1,0,0,0-1.3.391,1.148,1.148,0,0,0-.523.945h-1.454a1.984,1.984,0,0,1,.45-1.222,3.046,3.046,0,0,1,1.218-.934,4.085,4.085,0,0,1,1.692-.344,3.342,3.342,0,0,1,2.289.731,2.638,2.638,0,0,1,.859,2.011v3.891a4.738,4.738,0,0,0,.3,1.852V351Zm-2.4-1.1a2.534,2.534,0,0,0,1.289-.352,2.136,2.136,0,0,0,.883-.914V346.9h-1.133q-2.656,0-2.656,1.555a1.312,1.312,0,0,0,.453,1.062,1.739,1.739,0,0,0,1.164.383" fill="#12263f"/>
            <path id="Trazado_215587" data-name="Trazado 215587" d="M398.289,346.7a4.943,4.943,0,0,1,.922-3.129,3.135,3.135,0,0,1,4.765-.168V339h1.445v12h-1.328l-.07-.906a2.944,2.944,0,0,1-2.414,1.062,2.888,2.888,0,0,1-2.4-1.2,5.009,5.009,0,0,1-.925-3.141Zm1.445.164a3.743,3.743,0,0,0,.594,2.25,1.914,1.914,0,0,0,1.64.813,2.11,2.11,0,0,0,2.008-1.235v-3.883a2.125,2.125,0,0,0-1.992-1.2,1.925,1.925,0,0,0-1.656.82,4.121,4.121,0,0,0-.594,2.43" fill="#12263f"/>
            <path id="Trazado_215588" data-name="Trazado 215588" d="M411.172,351.156a3.691,3.691,0,0,1-2.8-1.129,4.189,4.189,0,0,1-1.078-3.019v-.266a5.075,5.075,0,0,1,.48-2.246,3.74,3.74,0,0,1,1.344-1.547,3.377,3.377,0,0,1,1.871-.558,3.171,3.171,0,0,1,2.563,1.085,4.706,4.706,0,0,1,.914,3.11v.6h-5.727a3,3,0,0,0,.73,2.02,2.3,2.3,0,0,0,1.778.769,2.527,2.527,0,0,0,1.3-.312,3.255,3.255,0,0,0,.929-.828l.883.687a3.55,3.55,0,0,1-3.187,1.633m-.18-7.578a1.925,1.925,0,0,0-1.469.637,3.1,3.1,0,0,0-.734,1.785h4.234v-.109a2.764,2.764,0,0,0-.594-1.708,1.817,1.817,0,0,0-1.437-.605" fill="#12263f"/>
            <path id="Trazado_215589" data-name="Trazado 215589" d="M423.492,349.977a2.083,2.083,0,0,0,1.352-.469,1.657,1.657,0,0,0,.64-1.172h1.367a2.629,2.629,0,0,1-.5,1.383,3.306,3.306,0,0,1-1.23,1.047,3.549,3.549,0,0,1-1.629.391A3.479,3.479,0,0,1,420.746,350a4.588,4.588,0,0,1-1.02-3.152v-.242a5.087,5.087,0,0,1,.453-2.195,3.444,3.444,0,0,1,1.3-1.493,3.7,3.7,0,0,1,2-.531,3.391,3.391,0,0,1,2.363.852,3.048,3.048,0,0,1,1,2.211h-1.367a2,2,0,0,0-.621-1.348,1.931,1.931,0,0,0-1.379-.527,2.022,2.022,0,0,0-1.707.793,3.719,3.719,0,0,0-.605,2.292v.274a3.643,3.643,0,0,0,.6,2.25,2.032,2.032,0,0,0,1.719.789" fill="#12263f"/>
            <path id="Trazado_215590" data-name="Trazado 215590" d="M428.094,346.7a4.984,4.984,0,0,1,.488-2.234,3.634,3.634,0,0,1,1.36-1.532,3.7,3.7,0,0,1,1.988-.539,3.567,3.567,0,0,1,2.793,1.2,4.6,4.6,0,0,1,1.066,3.179v.1a5.05,5.05,0,0,1-.472,2.215,3.6,3.6,0,0,1-1.352,1.527,3.751,3.751,0,0,1-2.02.547,3.555,3.555,0,0,1-2.785-1.2,4.576,4.576,0,0,1-1.066-3.164Zm1.453.172a3.618,3.618,0,0,0,.652,2.258,2.211,2.211,0,0,0,3.5-.012,3.956,3.956,0,0,0,.649-2.418,3.616,3.616,0,0,0-.66-2.254,2.1,2.1,0,0,0-1.754-.863,2.076,2.076,0,0,0-1.727.851,3.929,3.929,0,0,0-.656,2.438" fill="#12263f"/>
            <path id="Trazado_215591" data-name="Trazado 215591" d="M442.523,348.758a1.066,1.066,0,0,0-.441-.91,4.284,4.284,0,0,0-1.539-.559,7.25,7.25,0,0,1-1.743-.562,2.482,2.482,0,0,1-.953-.782,1.856,1.856,0,0,1-.308-1.078,2.192,2.192,0,0,1,.879-1.757,3.425,3.425,0,0,1,2.246-.719,3.536,3.536,0,0,1,2.332.742,2.361,2.361,0,0,1,.894,1.9h-1.453a1.3,1.3,0,0,0-.5-1.023,1.892,1.892,0,0,0-1.269-.43,1.975,1.975,0,0,0-1.235.344,1.081,1.081,0,0,0-.445.9.876.876,0,0,0,.414.79,5.086,5.086,0,0,0,1.5.507,7.9,7.9,0,0,1,1.754.578,2.573,2.573,0,0,1,1,.809,2,2,0,0,1,.324,1.152,2.165,2.165,0,0,1-.906,1.817,3.8,3.8,0,0,1-2.351.683,4.257,4.257,0,0,1-1.8-.359,2.9,2.9,0,0,1-1.223-1,2.413,2.413,0,0,1-.441-1.394H438.7a1.49,1.49,0,0,0,.582,1.152,2.256,2.256,0,0,0,1.434.426,2.337,2.337,0,0,0,1.316-.332,1.023,1.023,0,0,0,.5-.887" fill="#12263f"/>
            <path id="Trazado_215592" data-name="Trazado 215592" d="M447.813,340.5v2.047h1.577v1.117h-1.577v5.249a1.173,1.173,0,0,0,.21.763.888.888,0,0,0,.719.254,3.556,3.556,0,0,0,.687-.094V351a4.24,4.24,0,0,1-1.109.155,1.8,1.8,0,0,1-1.461-.586,2.516,2.516,0,0,1-.492-1.664v-5.242h-1.539v-1.117h1.539V340.5Z" fill="#12263f"/>
            <path id="Trazado_215593" data-name="Trazado 215593" d="M450.539,346.7a4.984,4.984,0,0,1,.488-2.234,3.634,3.634,0,0,1,1.36-1.532,3.7,3.7,0,0,1,1.988-.539,3.567,3.567,0,0,1,2.793,1.2,4.6,4.6,0,0,1,1.066,3.179v.1a5.05,5.05,0,0,1-.472,2.215,3.6,3.6,0,0,1-1.352,1.527,3.751,3.751,0,0,1-2.02.547,3.555,3.555,0,0,1-2.785-1.2,4.576,4.576,0,0,1-1.066-3.164Zm1.453.172a3.618,3.618,0,0,0,.652,2.258,2.211,2.211,0,0,0,3.5-.012,3.957,3.957,0,0,0,.649-2.418,3.616,3.616,0,0,0-.66-2.254,2.1,2.1,0,0,0-1.754-.863,2.076,2.076,0,0,0-1.727.851,3.929,3.929,0,0,0-.656,2.438" fill="#12263f"/>
            <path id="Trazado_215594" data-name="Trazado 215594" d="M464.969,348.758a1.066,1.066,0,0,0-.441-.91,4.284,4.284,0,0,0-1.539-.559,7.249,7.249,0,0,1-1.743-.562,2.482,2.482,0,0,1-.953-.782,1.856,1.856,0,0,1-.308-1.078,2.192,2.192,0,0,1,.879-1.757,3.425,3.425,0,0,1,2.246-.719,3.536,3.536,0,0,1,2.332.742,2.361,2.361,0,0,1,.894,1.9h-1.453a1.3,1.3,0,0,0-.5-1.023,1.892,1.892,0,0,0-1.269-.43,1.975,1.975,0,0,0-1.235.344,1.081,1.081,0,0,0-.445.9.876.876,0,0,0,.414.79,5.087,5.087,0,0,0,1.5.507,7.9,7.9,0,0,1,1.754.578,2.573,2.573,0,0,1,1,.809,2,2,0,0,1,.324,1.152,2.165,2.165,0,0,1-.906,1.817,3.8,3.8,0,0,1-2.351.683,4.257,4.257,0,0,1-1.8-.359,2.9,2.9,0,0,1-1.223-1,2.413,2.413,0,0,1-.441-1.394h1.445a1.49,1.49,0,0,0,.582,1.152,2.256,2.256,0,0,0,1.434.426,2.337,2.337,0,0,0,1.316-.332,1.023,1.023,0,0,0,.5-.887" fill="#12263f"/>
          </g>
        </g>
        <path id="Trazado_215595" data-name="Trazado 215595" d="M5.18,65.039l1.649,4.719h-3.3ZM4.3,62.625,0,74H2.055l.922-2.649H7.383L8.313,74h2.063L6.071,62.625Z" fill="#12263f"/>
        <rect id="Rectángulo_44412" data-name="Rectángulo 44412" width="1.898" height="12" transform="translate(11.602 62)" fill="#12263f"/>
        <g id="Grupo_154140" data-name="Grupo 154140">
          <g id="Grupo_154139" data-name="Grupo 154139" clip-path="url(#clip-path)">
            <path id="Trazado_215596" data-name="Trazado 215596" d="M17.945,63.492v2.055h1.492v1.406H17.945v4.719a1.038,1.038,0,0,0,.191.7.889.889,0,0,0,.684.215,2.992,2.992,0,0,0,.664-.078v1.468a4.678,4.678,0,0,1-1.25.18q-2.188,0-2.187-2.414V66.953H14.656V65.547h1.391V63.492Z" fill="#12263f"/>
            <path id="Trazado_215597" data-name="Trazado 215597" d="M25.938,74a2.923,2.923,0,0,1-.219-.789,3.195,3.195,0,0,1-4.3.219,2.323,2.323,0,0,1-.8-1.8,2.4,2.4,0,0,1,1-2.074,4.86,4.86,0,0,1,2.871-.723h1.164v-.555a1.477,1.477,0,0,0-.368-1.05,1.456,1.456,0,0,0-1.117-.4,1.676,1.676,0,0,0-1.062.324,1,1,0,0,0-.414.825H20.8a2.107,2.107,0,0,1,.461-1.3,3.062,3.062,0,0,1,1.254-.949,4.387,4.387,0,0,1,1.77-.344,3.55,3.55,0,0,1,2.367.746,2.659,2.659,0,0,1,.906,2.1v3.812a4.326,4.326,0,0,0,.32,1.82V74Zm-2.086-1.367a2.165,2.165,0,0,0,1.059-.273,1.834,1.834,0,0,0,.746-.735V70.031H24.633a2.8,2.8,0,0,0-1.586.368,1.189,1.189,0,0,0-.531,1.039,1.11,1.11,0,0,0,.363.871,1.41,1.41,0,0,0,.973.324" fill="#12263f"/>
            <path id="Trazado_215598" data-name="Trazado 215598" d="M34.281,71.7a.86.86,0,0,0-.418-.773,4.466,4.466,0,0,0-1.387-.469,7.164,7.164,0,0,1-1.617-.516,2.158,2.158,0,0,1-1.422-1.992,2.248,2.248,0,0,1,.922-1.828,3.647,3.647,0,0,1,2.344-.734,3.793,3.793,0,0,1,2.449.75,2.381,2.381,0,0,1,.934,1.945h-1.9a1.169,1.169,0,0,0-.406-.91,1.555,1.555,0,0,0-1.078-.364,1.688,1.688,0,0,0-1.02.289.912.912,0,0,0-.394.774.77.77,0,0,0,.367.68,5.049,5.049,0,0,0,1.484.488,7.011,7.011,0,0,1,1.754.586,2.492,2.492,0,0,1,.946.816,2.088,2.088,0,0,1,.308,1.156,2.2,2.2,0,0,1-.945,1.848,4.029,4.029,0,0,1-2.477.707,4.365,4.365,0,0,1-1.851-.375,3.049,3.049,0,0,1-1.266-1.031,2.436,2.436,0,0,1-.453-1.414H31a1.332,1.332,0,0,0,.508,1.035,1.972,1.972,0,0,0,1.242.363,1.91,1.91,0,0,0,1.14-.285.883.883,0,0,0,.391-.746" fill="#12263f"/>
          </g>
        </g>
        <path id="Trazado_215599" data-name="Trazado 215599" d="M646.383,485.352h-4.407L641.054,488H639l4.3-11.375h1.773l4.3,11.375h-2.063Zm-3.852-1.594h3.3l-1.649-4.719Z" fill="#12263f"/>
        <rect id="Rectángulo_44414" data-name="Rectángulo 44414" width="1.898" height="12" transform="translate(650.602 476)" fill="#12263f"/>
        <g id="Grupo_154142" data-name="Grupo 154142">
          <g id="Grupo_154141" data-name="Grupo 154141" clip-path="url(#clip-path)">
            <path id="Trazado_215600" data-name="Trazado 215600" d="M656.945,477.492v2.055h1.492v1.406h-1.492v4.719a1.038,1.038,0,0,0,.191.7.889.889,0,0,0,.684.215,2.992,2.992,0,0,0,.664-.078v1.468a4.678,4.678,0,0,1-1.25.18q-2.188,0-2.187-2.414v-4.789h-1.391v-1.406h1.391v-2.055Z" fill="#12263f"/>
            <path id="Trazado_215601" data-name="Trazado 215601" d="M659.3,483.7a4.985,4.985,0,0,1,.492-2.238,3.6,3.6,0,0,1,1.383-1.532,3.9,3.9,0,0,1,2.046-.535,3.691,3.691,0,0,1,2.778,1.1,4.33,4.33,0,0,1,1.152,2.922l.008.445a5.019,5.019,0,0,1-.481,2.234,3.553,3.553,0,0,1-1.375,1.524,3.926,3.926,0,0,1-2.066.539,3.667,3.667,0,0,1-2.863-1.192,4.555,4.555,0,0,1-1.074-3.175Zm1.9.164a3.408,3.408,0,0,0,.539,2.043,1.752,1.752,0,0,0,1.5.738,1.733,1.733,0,0,0,1.5-.75,3.758,3.758,0,0,0,.535-2.2,3.361,3.361,0,0,0-.55-2.031,1.762,1.762,0,0,0-1.5-.75,1.741,1.741,0,0,0-1.476.738,3.688,3.688,0,0,0-.547,2.207" fill="#12263f"/>
          </g>
        </g>
        <path id="Trazado_215602" data-name="Trazado 215602" d="M454.578,476.625l3.281,8.719,3.274-8.719h2.554V488h-1.968v-3.75l.2-5.016L458.555,488h-1.414l-3.352-8.758.195,5.008V488h-1.969V476.625Z" fill="#12263f"/>
        <g id="Grupo_154144" data-name="Grupo 154144">
          <g id="Grupo_154143" data-name="Grupo 154143" clip-path="url(#clip-path)">
            <path id="Trazado_215603" data-name="Trazado 215603" d="M465.485,483.7a4.985,4.985,0,0,1,.492-2.238,3.6,3.6,0,0,1,1.383-1.532,3.9,3.9,0,0,1,2.046-.535,3.691,3.691,0,0,1,2.778,1.1,4.329,4.329,0,0,1,1.152,2.922l.008.445a5.019,5.019,0,0,1-.481,2.234,3.553,3.553,0,0,1-1.375,1.524,3.926,3.926,0,0,1-2.066.539,3.667,3.667,0,0,1-2.863-1.192,4.555,4.555,0,0,1-1.074-3.175Zm1.9.164a3.408,3.408,0,0,0,.539,2.043,1.752,1.752,0,0,0,1.5.738,1.733,1.733,0,0,0,1.5-.75,3.758,3.758,0,0,0,.535-2.2,3.361,3.361,0,0,0-.55-2.031,1.762,1.762,0,0,0-1.5-.75,1.741,1.741,0,0,0-1.476.738,3.688,3.688,0,0,0-.547,2.207" fill="#12263f"/>
            <path id="Trazado_215604" data-name="Trazado 215604" d="M474.594,483.711a5.021,5.021,0,0,1,.906-3.137,2.9,2.9,0,0,1,2.429-1.183,2.759,2.759,0,0,1,2.172.937V476H482v12h-1.719l-.094-.875a2.8,2.8,0,0,1-2.273,1.031,2.884,2.884,0,0,1-2.4-1.2,5.2,5.2,0,0,1-.918-3.25m1.9.164a3.519,3.519,0,0,0,.5,2.012,1.61,1.61,0,0,0,1.41.722,1.792,1.792,0,0,0,1.7-1.039v-3.609a1.766,1.766,0,0,0-1.687-1.016,1.619,1.619,0,0,0-1.422.731,3.912,3.912,0,0,0-.5,2.2" fill="#12263f"/>
            <path id="Trazado_215605" data-name="Trazado 215605" d="M487.7,488.156a3.926,3.926,0,0,1-2.926-1.137,4.118,4.118,0,0,1-1.121-3.027v-.234a5.066,5.066,0,0,1,.488-2.262,3.712,3.712,0,0,1,1.371-1.551,3.62,3.62,0,0,1,1.969-.554,3.321,3.321,0,0,1,2.668,1.1,4.661,4.661,0,0,1,.941,3.117v.766h-5.523a2.53,2.53,0,0,0,.7,1.656,2.1,2.1,0,0,0,1.543.61,2.572,2.572,0,0,0,2.125-1.055l1.023.976a3.418,3.418,0,0,1-1.355,1.176,4.24,4.24,0,0,1-1.9.418m-.227-7.242a1.6,1.6,0,0,0-1.262.547,2.829,2.829,0,0,0-.613,1.523h3.617v-.14a2.308,2.308,0,0,0-.508-1.442,1.589,1.589,0,0,0-1.234-.488" fill="#12263f"/>
            <path id="Trazado_215606" data-name="Trazado 215606" d="M496.992,481.281a4.663,4.663,0,0,0-.773-.062,1.741,1.741,0,0,0-1.758,1V488h-1.9v-8.453h1.813l.047.945a2.139,2.139,0,0,1,1.906-1.1,1.782,1.782,0,0,1,.672.11Z" fill="#12263f"/>
            <path id="Trazado_215607" data-name="Trazado 215607" d="M503.008,488a2.923,2.923,0,0,1-.219-.789,3.195,3.195,0,0,1-4.3.219,2.323,2.323,0,0,1-.8-1.8,2.4,2.4,0,0,1,1-2.074,4.86,4.86,0,0,1,2.871-.723h1.164v-.555a1.477,1.477,0,0,0-.368-1.05,1.456,1.456,0,0,0-1.117-.395,1.676,1.676,0,0,0-1.062.324,1,1,0,0,0-.414.825h-1.9a2.107,2.107,0,0,1,.461-1.3,3.062,3.062,0,0,1,1.254-.949,4.387,4.387,0,0,1,1.77-.344,3.55,3.55,0,0,1,2.367.746,2.659,2.659,0,0,1,.906,2.1v3.812a4.326,4.326,0,0,0,.32,1.82V488Zm-2.086-1.367a2.164,2.164,0,0,0,1.059-.273,1.834,1.834,0,0,0,.746-.735v-1.594H501.7a2.8,2.8,0,0,0-1.586.368,1.189,1.189,0,0,0-.531,1.039,1.11,1.11,0,0,0,.363.871,1.41,1.41,0,0,0,.973.324" fill="#12263f"/>
            <path id="Trazado_215608" data-name="Trazado 215608" d="M506.258,483.711a5.021,5.021,0,0,1,.906-3.137,2.9,2.9,0,0,1,2.429-1.183,2.759,2.759,0,0,1,2.172.937V476h1.9v12h-1.719l-.094-.875a2.8,2.8,0,0,1-2.273,1.031,2.884,2.884,0,0,1-2.4-1.2,5.2,5.2,0,0,1-.918-3.25m1.9.164a3.519,3.519,0,0,0,.5,2.012,1.61,1.61,0,0,0,1.41.722,1.792,1.792,0,0,0,1.7-1.039v-3.609a1.766,1.766,0,0,0-1.687-1.016,1.619,1.619,0,0,0-1.422.731,3.912,3.912,0,0,0-.5,2.2" fill="#12263f"/>
            <path id="Trazado_215609" data-name="Trazado 215609" d="M515.289,483.7a4.985,4.985,0,0,1,.492-2.238,3.6,3.6,0,0,1,1.383-1.532,3.9,3.9,0,0,1,2.046-.535,3.691,3.691,0,0,1,2.778,1.1,4.33,4.33,0,0,1,1.152,2.922l.008.445a5.019,5.019,0,0,1-.481,2.234,3.553,3.553,0,0,1-1.375,1.524,3.926,3.926,0,0,1-2.066.539,3.667,3.667,0,0,1-2.863-1.192,4.555,4.555,0,0,1-1.074-3.175Zm1.9.164a3.408,3.408,0,0,0,.538,2.043,1.752,1.752,0,0,0,1.5.738,1.733,1.733,0,0,0,1.5-.75,3.758,3.758,0,0,0,.535-2.2,3.361,3.361,0,0,0-.55-2.031,1.761,1.761,0,0,0-1.5-.75,1.741,1.741,0,0,0-1.476.738,3.688,3.688,0,0,0-.546,2.207" fill="#12263f"/>
            <path id="Trazado_215610" data-name="Trazado 215610" d="M713.063,43V31.625h3.21a5.167,5.167,0,0,1,2.625.657,4.434,4.434,0,0,1,1.762,1.867,6.086,6.086,0,0,1,.629,2.781v.727a6.088,6.088,0,0,1-.622,2.82,4.362,4.362,0,0,1-1.773,1.859A5.489,5.489,0,0,1,716.21,43Zm1.5-10.148v8.922h1.577a3.431,3.431,0,0,0,2.7-1.079,4.459,4.459,0,0,0,.965-3.073v-.665a4.534,4.534,0,0,0-.91-3.014,3.24,3.24,0,0,0-2.581-1.091Z" fill="#12263f"/>
            <path id="Trazado_215611" data-name="Trazado 215611" d="M726.836,43.156a3.691,3.691,0,0,1-2.8-1.129,4.189,4.189,0,0,1-1.078-3.019v-.266a5.075,5.075,0,0,1,.48-2.246,3.74,3.74,0,0,1,1.344-1.547,3.379,3.379,0,0,1,1.871-.558,3.17,3.17,0,0,1,2.563,1.085,4.706,4.706,0,0,1,.914,3.11v.6h-5.727a3.008,3.008,0,0,0,.73,2.02,2.3,2.3,0,0,0,1.778.769,2.524,2.524,0,0,0,1.3-.312,3.254,3.254,0,0,0,.929-.828l.883.687a3.549,3.549,0,0,1-3.187,1.633m-.18-7.578a1.926,1.926,0,0,0-1.469.637A3.1,3.1,0,0,0,724.453,38h4.234v-.109a2.758,2.758,0,0,0-.594-1.708,1.816,1.816,0,0,0-1.437-.6" fill="#12263f"/>
            <path id="Trazado_215612" data-name="Trazado 215612" d="M735.2,41.977a2.081,2.081,0,0,0,1.352-.469,1.653,1.653,0,0,0,.64-1.172h1.367a2.62,2.62,0,0,1-.5,1.383,3.291,3.291,0,0,1-1.23,1.047,3.549,3.549,0,0,1-1.629.391A3.481,3.481,0,0,1,732.449,42a4.588,4.588,0,0,1-1.02-3.152V38.61a5.087,5.087,0,0,1,.453-2.195,3.457,3.457,0,0,1,1.3-1.493,3.7,3.7,0,0,1,2-.531,3.389,3.389,0,0,1,2.363.852,3.045,3.045,0,0,1,1,2.211h-1.367a1.994,1.994,0,0,0-.621-1.348,1.931,1.931,0,0,0-1.379-.527,2.022,2.022,0,0,0-1.707.793,3.719,3.719,0,0,0-.6,2.292v.274a3.65,3.65,0,0,0,.6,2.25,2.033,2.033,0,0,0,1.719.789" fill="#12263f"/>
            <rect id="Rectángulo_44416" data-name="Rectángulo 44416" width="1.445" height="12" transform="translate(740.305 31)" fill="#12263f"/>
            <path id="Trazado_215613" data-name="Trazado 215613" d="M744.07,32.305a.863.863,0,0,1,.215-.594.809.809,0,0,1,.637-.242.82.82,0,0,1,.64.242.852.852,0,0,1,.219.594.9.9,0,0,1-1.5.586.838.838,0,0,1-.215-.586M745.633,43h-1.445V34.547h1.445Z" fill="#12263f"/>
            <path id="Trazado_215614" data-name="Trazado 215614" d="M750.734,41.039l2.094-6.492H754.3L751.273,43h-1.1l-3.063-8.453h1.477Z" fill="#12263f"/>
            <path id="Trazado_215615" data-name="Trazado 215615" d="M759.1,43.156a3.691,3.691,0,0,1-2.8-1.129,4.189,4.189,0,0,1-1.078-3.019v-.266a5.076,5.076,0,0,1,.48-2.246,3.74,3.74,0,0,1,1.344-1.547,3.379,3.379,0,0,1,1.871-.558,3.17,3.17,0,0,1,2.563,1.085,4.706,4.706,0,0,1,.914,3.11v.6h-5.727a3.008,3.008,0,0,0,.73,2.02,2.3,2.3,0,0,0,1.778.769,2.524,2.524,0,0,0,1.3-.312,3.254,3.254,0,0,0,.929-.828l.883.687a3.549,3.549,0,0,1-3.187,1.633m-.18-7.578a1.926,1.926,0,0,0-1.469.637A3.1,3.1,0,0,0,756.719,38h4.234v-.109a2.758,2.758,0,0,0-.594-1.708,1.816,1.816,0,0,0-1.437-.6" fill="#12263f"/>
          </g>
        </g>
        <path id="Trazado_215616" data-name="Trazado 215616" d="M547.523,31.625l3.719,9.281,3.718-9.281h1.946V43h-1.5V38.57l.14-4.781L551.812,43h-1.148l-3.727-9.187.149,4.757V43h-1.5V31.625Z" fill="#12263f"/>
        <g id="Grupo_154146" data-name="Grupo 154146">
          <g id="Grupo_154145" data-name="Grupo 154145" clip-path="url(#clip-path)">
            <path id="Trazado_215617" data-name="Trazado 215617" d="M564.546,43a2.985,2.985,0,0,1-.2-.891,3.225,3.225,0,0,1-2.406,1.047,2.984,2.984,0,0,1-2.051-.707,2.286,2.286,0,0,1-.8-1.793,2.389,2.389,0,0,1,1-2.051,4.73,4.73,0,0,1,2.825-.73h1.406v-.664A1.631,1.631,0,0,0,563.867,36a1.825,1.825,0,0,0-1.336-.449,2.1,2.1,0,0,0-1.3.391,1.148,1.148,0,0,0-.523.945h-1.454a1.984,1.984,0,0,1,.45-1.222,3.046,3.046,0,0,1,1.218-.934,4.085,4.085,0,0,1,1.692-.344,3.342,3.342,0,0,1,2.289.731,2.638,2.638,0,0,1,.859,2.011v3.891a4.737,4.737,0,0,0,.3,1.852V43Zm-2.4-1.1a2.534,2.534,0,0,0,1.289-.352,2.136,2.136,0,0,0,.883-.914V38.9h-1.133q-2.656,0-2.656,1.555a1.312,1.312,0,0,0,.453,1.062,1.739,1.739,0,0,0,1.164.383" fill="#12263f"/>
            <path id="Trazado_215618" data-name="Trazado 215618" d="M567.68,38.7a4.943,4.943,0,0,1,.922-3.129,3.135,3.135,0,0,1,4.765-.168V31h1.445V43h-1.328l-.07-.906A2.944,2.944,0,0,1,571,43.156a2.888,2.888,0,0,1-2.4-1.2,5.009,5.009,0,0,1-.925-3.141Zm1.445.164a3.743,3.743,0,0,0,.594,2.25,1.914,1.914,0,0,0,1.64.813,2.11,2.11,0,0,0,2.008-1.235V36.812a2.125,2.125,0,0,0-1.992-1.195,1.925,1.925,0,0,0-1.656.82,4.121,4.121,0,0,0-.594,2.43" fill="#12263f"/>
            <path id="Trazado_215619" data-name="Trazado 215619" d="M582.273,42.164a3.072,3.072,0,0,1-2.477.992,2.626,2.626,0,0,1-2.058-.785,3.383,3.383,0,0,1-.715-2.324v-5.5h1.445v5.461q0,1.922,1.563,1.922a2.165,2.165,0,0,0,2.2-1.235V34.547h1.445V43H582.3Z" fill="#12263f"/>
            <path id="Trazado_215620" data-name="Trazado 215620" d="M589.961,35.844a4.394,4.394,0,0,0-.711-.055A1.9,1.9,0,0,0,587.32,37v6h-1.445V34.547h1.406l.024.977a2.247,2.247,0,0,1,2.015-1.133,1.476,1.476,0,0,1,.641.109Z" fill="#12263f"/>
            <path id="Trazado_215621" data-name="Trazado 215621" d="M594.649,43.156a3.691,3.691,0,0,1-2.8-1.129,4.189,4.189,0,0,1-1.078-3.019v-.266a5.075,5.075,0,0,1,.48-2.246,3.739,3.739,0,0,1,1.344-1.547,3.377,3.377,0,0,1,1.871-.558,3.171,3.171,0,0,1,2.563,1.085,4.706,4.706,0,0,1,.914,3.11v.6h-5.727a3,3,0,0,0,.73,2.02,2.3,2.3,0,0,0,1.778.769,2.527,2.527,0,0,0,1.3-.312,3.254,3.254,0,0,0,.929-.828l.883.687a3.549,3.549,0,0,1-3.187,1.633m-.18-7.578a1.925,1.925,0,0,0-1.469.637A3.1,3.1,0,0,0,592.266,38H596.5v-.109a2.764,2.764,0,0,0-.594-1.708,1.817,1.817,0,0,0-1.437-.6" fill="#12263f"/>
            <path id="Trazado_215622" data-name="Trazado 215622" d="M600.977,41.82h4.945V43h-6.711V41.937l4.664-6.195h-4.593v-1.2h6.406V35.57Z" fill="#12263f"/>
            <path id="Trazado_215623" data-name="Trazado 215623" d="M379.137,39.391a4.187,4.187,0,0,1-1.332,2.785,4.37,4.37,0,0,1-2.98.981,4.008,4.008,0,0,1-3.231-1.446,5.81,5.81,0,0,1-1.215-3.867V36.75a6.475,6.475,0,0,1,.567-2.789,4.225,4.225,0,0,1,1.6-1.847,4.464,4.464,0,0,1,2.406-.645,4.112,4.112,0,0,1,2.907,1.012,4.242,4.242,0,0,1,1.273,2.8h-1.508a3.275,3.275,0,0,0-.847-1.975,2.569,2.569,0,0,0-1.825-.611,2.682,2.682,0,0,0-2.254,1.063,4.879,4.879,0,0,0-.816,3.027v1.1a5.02,5.02,0,0,0,.773,2.948,2.5,2.5,0,0,0,2.165,1.1,2.882,2.882,0,0,0,1.917-.566,3.144,3.144,0,0,0,.887-1.973Z" fill="#12263f"/>
            <path id="Trazado_215624" data-name="Trazado 215624" d="M385.043,35.844a4.385,4.385,0,0,0-.711-.055A1.9,1.9,0,0,0,382.4,37v6h-1.445V34.547h1.406l.024.977a2.249,2.249,0,0,1,2.015-1.133,1.476,1.476,0,0,1,.641.109Z" fill="#12263f"/>
            <path id="Trazado_215625" data-name="Trazado 215625" d="M389.731,43.156a3.691,3.691,0,0,1-2.8-1.129,4.189,4.189,0,0,1-1.078-3.019v-.266a5.075,5.075,0,0,1,.48-2.246,3.74,3.74,0,0,1,1.344-1.547,3.379,3.379,0,0,1,1.871-.558,3.17,3.17,0,0,1,2.563,1.085,4.706,4.706,0,0,1,.914,3.11v.6H387.3a3.008,3.008,0,0,0,.73,2.02,2.3,2.3,0,0,0,1.778.769,2.524,2.524,0,0,0,1.3-.312,3.254,3.254,0,0,0,.929-.828l.883.687a3.549,3.549,0,0,1-3.187,1.633m-.18-7.578a1.926,1.926,0,0,0-1.469.637A3.1,3.1,0,0,0,387.348,38h4.234v-.109a2.758,2.758,0,0,0-.594-1.708,1.816,1.816,0,0,0-1.437-.6" fill="#12263f"/>
            <path id="Trazado_215626" data-name="Trazado 215626" d="M398.09,41.977a2.081,2.081,0,0,0,1.352-.469,1.653,1.653,0,0,0,.64-1.172h1.367a2.62,2.62,0,0,1-.5,1.383,3.291,3.291,0,0,1-1.23,1.047,3.55,3.55,0,0,1-1.629.391A3.481,3.481,0,0,1,395.344,42a4.588,4.588,0,0,1-1.02-3.152V38.61a5.087,5.087,0,0,1,.453-2.195,3.457,3.457,0,0,1,1.3-1.493,3.7,3.7,0,0,1,2-.531,3.389,3.389,0,0,1,2.363.852,3.045,3.045,0,0,1,1,2.211h-1.367a1.994,1.994,0,0,0-.621-1.348,1.931,1.931,0,0,0-1.379-.527,2.022,2.022,0,0,0-1.707.793,3.719,3.719,0,0,0-.605,2.292v.274a3.65,3.65,0,0,0,.6,2.25,2.033,2.033,0,0,0,1.719.789" fill="#12263f"/>
            <path id="Trazado_215627" data-name="Trazado 215627" d="M403.082,32.305a.858.858,0,0,1,.215-.594.806.806,0,0,1,.637-.242.82.82,0,0,1,.64.242.852.852,0,0,1,.219.594.856.856,0,1,1-1.711,0M404.645,43H403.2V34.547h1.445Z" fill="#12263f"/>
            <path id="Trazado_215628" data-name="Trazado 215628" d="M408.316,34.547l.039.937a3.12,3.12,0,0,1,2.508-1.093,2.418,2.418,0,0,1,2.414,1.359,3.189,3.189,0,0,1,1.1-.984,3.237,3.237,0,0,1,1.6-.375q2.781,0,2.828,2.945V43h-1.445V37.422a1.944,1.944,0,0,0-.414-1.355,1.823,1.823,0,0,0-1.391-.45,1.913,1.913,0,0,0-1.336.481,1.947,1.947,0,0,0-.617,1.293V43h-1.453V37.461a1.613,1.613,0,0,0-1.805-1.844,1.934,1.934,0,0,0-1.945,1.211V43h-1.445V34.547Z" fill="#12263f"/>
            <path id="Trazado_215629" data-name="Trazado 215629" d="M420.988,32.305a.863.863,0,0,1,.215-.594.809.809,0,0,1,.637-.242.82.82,0,0,1,.64.242.852.852,0,0,1,.219.594.9.9,0,0,1-1.5.586.837.837,0,0,1-.215-.586M422.551,43h-1.445V34.547h1.445Z" fill="#12263f"/>
            <path id="Trazado_215630" data-name="Trazado 215630" d="M428.371,43.156a3.691,3.691,0,0,1-2.8-1.129,4.189,4.189,0,0,1-1.078-3.019v-.266a5.075,5.075,0,0,1,.48-2.246,3.74,3.74,0,0,1,1.344-1.547,3.379,3.379,0,0,1,1.871-.558,3.17,3.17,0,0,1,2.563,1.085,4.706,4.706,0,0,1,.914,3.11v.6h-5.727a3.008,3.008,0,0,0,.73,2.02,2.3,2.3,0,0,0,1.778.769,2.524,2.524,0,0,0,1.3-.312,3.254,3.254,0,0,0,.929-.828l.883.687a3.55,3.55,0,0,1-3.187,1.633m-.18-7.578a1.926,1.926,0,0,0-1.469.637A3.1,3.1,0,0,0,425.988,38h4.234v-.109a2.758,2.758,0,0,0-.594-1.708,1.816,1.816,0,0,0-1.437-.6" fill="#12263f"/>
            <path id="Trazado_215631" data-name="Trazado 215631" d="M434.707,34.547l.047,1.062a3.079,3.079,0,0,1,2.531-1.218q2.679,0,2.7,3.023V43h-1.445V37.406a1.952,1.952,0,0,0-.418-1.351,1.673,1.673,0,0,0-1.277-.438,2.087,2.087,0,0,0-1.235.375,2.536,2.536,0,0,0-.828.985V43H433.34V34.547Z" fill="#12263f"/>
            <path id="Trazado_215632" data-name="Trazado 215632" d="M444.129,32.5v2.047h1.578v1.117h-1.578v5.249a1.173,1.173,0,0,0,.211.763.89.89,0,0,0,.719.254,3.547,3.547,0,0,0,.687-.094V43a4.24,4.24,0,0,1-1.109.155,1.8,1.8,0,0,1-1.461-.586,2.516,2.516,0,0,1-.492-1.664V35.664h-1.539V34.547h1.539V32.5Z" fill="#12263f"/>
            <path id="Trazado_215633" data-name="Trazado 215633" d="M446.856,38.695a4.984,4.984,0,0,1,.488-2.234,3.641,3.641,0,0,1,1.36-1.532,3.7,3.7,0,0,1,1.988-.539,3.567,3.567,0,0,1,2.793,1.2,4.6,4.6,0,0,1,1.066,3.179v.1a5.05,5.05,0,0,1-.472,2.215,3.6,3.6,0,0,1-1.352,1.527,3.751,3.751,0,0,1-2.02.547,3.555,3.555,0,0,1-2.785-1.195,4.576,4.576,0,0,1-1.066-3.164Zm1.453.172a3.618,3.618,0,0,0,.652,2.258,2.211,2.211,0,0,0,3.5-.012,3.956,3.956,0,0,0,.649-2.418,3.616,3.616,0,0,0-.66-2.254,2.1,2.1,0,0,0-1.754-.863,2.078,2.078,0,0,0-1.727.851,3.929,3.929,0,0,0-.656,2.438" fill="#12263f"/>
          </g>
        </g>
        <rect id="Rectángulo_44419" data-name="Rectángulo 44419" width="1.5" height="11.375" transform="translate(208.18 31.625)" fill="#12263f"/>
        <g id="Grupo_154148" data-name="Grupo 154148">
          <g id="Grupo_154147" data-name="Grupo 154147" clip-path="url(#clip-path)">
            <path id="Trazado_215634" data-name="Trazado 215634" d="M213.563,34.547l.046,1.062a3.079,3.079,0,0,1,2.531-1.218q2.679,0,2.7,3.023V43H217.4V37.406a1.947,1.947,0,0,0-.418-1.351,1.673,1.673,0,0,0-1.277-.438,2.089,2.089,0,0,0-1.235.375,2.545,2.545,0,0,0-.828.985V43H212.2V34.547Z" fill="#12263f"/>
            <path id="Trazado_215635" data-name="Trazado 215635" d="M222.984,32.5v2.047h1.578v1.117h-1.578v5.249a1.173,1.173,0,0,0,.211.763.89.89,0,0,0,.719.254,3.538,3.538,0,0,0,.687-.094V43a4.234,4.234,0,0,1-1.109.155,1.8,1.8,0,0,1-1.461-.586,2.516,2.516,0,0,1-.492-1.664V35.664H220V34.547h1.539V32.5Z" fill="#12263f"/>
            <path id="Trazado_215636" data-name="Trazado 215636" d="M230.336,35.844a4.385,4.385,0,0,0-.711-.055A1.906,1.906,0,0,0,227.7,37v6H226.25V34.547h1.406l.024.977a2.249,2.249,0,0,1,2.015-1.133,1.476,1.476,0,0,1,.641.109Z" fill="#12263f"/>
            <path id="Trazado_215637" data-name="Trazado 215637" d="M231.125,38.695a5,5,0,0,1,.488-2.234,3.64,3.64,0,0,1,1.36-1.532,3.7,3.7,0,0,1,1.988-.539,3.565,3.565,0,0,1,2.793,1.2,4.6,4.6,0,0,1,1.066,3.179v.1a5.036,5.036,0,0,1-.472,2.215A3.6,3.6,0,0,1,237,42.609a3.748,3.748,0,0,1-2.02.547,3.556,3.556,0,0,1-2.785-1.195,4.576,4.576,0,0,1-1.066-3.164Zm1.453.172a3.624,3.624,0,0,0,.652,2.258,2.211,2.211,0,0,0,3.5-.012,3.95,3.95,0,0,0,.649-2.418,3.61,3.61,0,0,0-.66-2.254,2.1,2.1,0,0,0-1.754-.863,2.078,2.078,0,0,0-1.727.851,3.929,3.929,0,0,0-.656,2.438" fill="#12263f"/>
            <path id="Trazado_215638" data-name="Trazado 215638" d="M240.282,38.7a4.949,4.949,0,0,1,.922-3.129,3.135,3.135,0,0,1,4.765-.168V31h1.445V43h-1.328l-.07-.906a2.944,2.944,0,0,1-2.414,1.062,2.889,2.889,0,0,1-2.4-1.2,5.009,5.009,0,0,1-.925-3.141Zm1.445.164a3.75,3.75,0,0,0,.594,2.25,1.917,1.917,0,0,0,1.64.813,2.109,2.109,0,0,0,2.008-1.235V36.812a2.123,2.123,0,0,0-1.992-1.195,1.927,1.927,0,0,0-1.656.82,4.128,4.128,0,0,0-.594,2.43" fill="#12263f"/>
            <path id="Trazado_215639" data-name="Trazado 215639" d="M254.875,42.164a3.071,3.071,0,0,1-2.477.992,2.629,2.629,0,0,1-2.058-.785,3.393,3.393,0,0,1-.715-2.324v-5.5h1.445v5.461q0,1.922,1.563,1.922a2.163,2.163,0,0,0,2.2-1.235V34.547h1.445V43h-1.375Z" fill="#12263f"/>
            <path id="Trazado_215640" data-name="Trazado 215640" d="M261.867,41.977a2.081,2.081,0,0,0,1.352-.469,1.65,1.65,0,0,0,.64-1.172h1.367a2.612,2.612,0,0,1-.5,1.383,3.291,3.291,0,0,1-1.23,1.047,3.544,3.544,0,0,1-1.629.391A3.481,3.481,0,0,1,259.121,42a4.588,4.588,0,0,1-1.02-3.152V38.61a5.1,5.1,0,0,1,.453-2.195,3.457,3.457,0,0,1,1.3-1.493,3.7,3.7,0,0,1,2-.531,3.387,3.387,0,0,1,2.363.852,3.041,3.041,0,0,1,1,2.211h-1.367a2,2,0,0,0-.621-1.348,1.929,1.929,0,0,0-1.379-.527,2.022,2.022,0,0,0-1.707.793,3.726,3.726,0,0,0-.605,2.292v.274a3.65,3.65,0,0,0,.6,2.25,2.034,2.034,0,0,0,1.719.789" fill="#12263f"/>
            <path id="Trazado_215641" data-name="Trazado 215641" d="M270.242,41.977a2.081,2.081,0,0,0,1.352-.469,1.65,1.65,0,0,0,.64-1.172H273.6a2.612,2.612,0,0,1-.5,1.383,3.291,3.291,0,0,1-1.23,1.047,3.544,3.544,0,0,1-1.629.391A3.481,3.481,0,0,1,267.5,42a4.588,4.588,0,0,1-1.02-3.152V38.61a5.1,5.1,0,0,1,.453-2.195,3.457,3.457,0,0,1,1.3-1.493,3.7,3.7,0,0,1,2-.531,3.387,3.387,0,0,1,2.363.852,3.041,3.041,0,0,1,1,2.211h-1.367a2,2,0,0,0-.621-1.348,1.929,1.929,0,0,0-1.379-.527,2.022,2.022,0,0,0-1.707.793,3.726,3.726,0,0,0-.605,2.292v.274a3.65,3.65,0,0,0,.6,2.25,2.034,2.034,0,0,0,1.719.789" fill="#12263f"/>
            <path id="Trazado_215642" data-name="Trazado 215642" d="M275.234,32.305a.863.863,0,0,1,.215-.594.81.81,0,0,1,.637-.242.822.822,0,0,1,.641.242.856.856,0,0,1,.218.594.856.856,0,1,1-1.711,0M276.8,43h-1.445V34.547H276.8Z" fill="#12263f"/>
            <path id="Trazado_215643" data-name="Trazado 215643" d="M278.727,38.7a5,5,0,0,1,.488-2.235,3.636,3.636,0,0,1,1.359-1.531,3.709,3.709,0,0,1,1.989-.539,3.564,3.564,0,0,1,2.793,1.195,4.6,4.6,0,0,1,1.066,3.18v.1a5.018,5.018,0,0,1-.473,2.214A3.589,3.589,0,0,1,284.6,42.61a3.748,3.748,0,0,1-2.02.547,3.557,3.557,0,0,1-2.785-1.2,4.574,4.574,0,0,1-1.066-3.164Zm1.453.172a3.619,3.619,0,0,0,.652,2.257,2.21,2.21,0,0,0,3.5-.011,3.952,3.952,0,0,0,.649-2.418,3.61,3.61,0,0,0-.66-2.254,2.1,2.1,0,0,0-1.754-.864,2.078,2.078,0,0,0-1.727.852,3.927,3.927,0,0,0-.656,2.438m3.039-7.852h1.75l-2.094,2.3-1.164,0Z" fill="#12263f"/>
            <path id="Trazado_215644" data-name="Trazado 215644" d="M289.6,34.547l.047,1.062a3.079,3.079,0,0,1,2.531-1.218q2.679,0,2.7,3.023V43h-1.445V37.406a1.947,1.947,0,0,0-.418-1.351,1.672,1.672,0,0,0-1.277-.438,2.089,2.089,0,0,0-1.235.375,2.545,2.545,0,0,0-.828.985V43h-1.445V34.547Z" fill="#12263f"/>
          </g>
        </g>
        <path id="Trazado_215645" data-name="Trazado 215645" d="M171.125,12h-2.344l-4.562-7.484V12h-2.344V.625h2.344l4.57,7.5V.625h2.336Z" fill="#fff"/>
        <g id="Grupo_154150" data-name="Grupo 154150">
          <g id="Grupo_154149" data-name="Grupo 154149" clip-path="url(#clip-path)">
            <path id="Trazado_215646" data-name="Trazado 215646" d="M173.008,1.359a1.112,1.112,0,0,1,.34-.836,1.464,1.464,0,0,1,1.847,0,1.108,1.108,0,0,1,.344.836,1.108,1.108,0,0,1-.348.844,1.449,1.449,0,0,1-1.836,0,1.108,1.108,0,0,1-.347-.844M175.406,12H173.14V3.547h2.266Z" fill="#fff"/>
            <path id="Trazado_215647" data-name="Trazado 215647" d="M180.43,9.242,182,3.547h2.36L181.508,12h-2.156L176.5,3.547h2.36Z" fill="#fff"/>
            <path id="Trazado_215648" data-name="Trazado 215648" d="M189.141,12.156a4.152,4.152,0,0,1-3.028-1.14,4.055,4.055,0,0,1-1.168-3.039V7.758a5.1,5.1,0,0,1,.493-2.277,3.616,3.616,0,0,1,1.394-1.547,3.9,3.9,0,0,1,2.059-.543,3.508,3.508,0,0,1,2.73,1.093,4.446,4.446,0,0,1,1,3.1v.922h-5.382a2.093,2.093,0,0,0,.66,1.328,2,2,0,0,0,1.394.5,2.439,2.439,0,0,0,2.039-.945l1.11,1.242a3.4,3.4,0,0,1-1.375,1.121,4.5,4.5,0,0,1-1.922.4m-.258-6.945a1.408,1.408,0,0,0-1.09.455,2.356,2.356,0,0,0-.535,1.3H190.4V6.788a1.686,1.686,0,0,0-.407-1.165,1.457,1.457,0,0,0-1.109-.412" fill="#fff"/>
            <rect id="Rectángulo_44421" data-name="Rectángulo 44421" width="2.266" height="12" transform="translate(194.015)" fill="#fff"/>
            <path id="Trazado_215649" data-name="Trazado 215649" d="M201.773,7.711a5.091,5.091,0,0,1,.887-3.149,2.876,2.876,0,0,1,2.426-1.171,2.592,2.592,0,0,1,2.039.921V0h2.265V12h-2.039l-.109-.9a2.656,2.656,0,0,1-2.172,1.055,2.865,2.865,0,0,1-2.394-1.176,5.256,5.256,0,0,1-.9-3.269m2.258.16a3.356,3.356,0,0,0,.414,1.829,1.346,1.346,0,0,0,1.2.636,1.513,1.513,0,0,0,1.477-.887V6.1a1.49,1.49,0,0,0-1.461-.887q-1.634,0-1.633,2.66" fill="#fff"/>
            <path id="Trazado_215650" data-name="Trazado 215650" d="M215.031,12.156A4.152,4.152,0,0,1,212,11.016a4.055,4.055,0,0,1-1.168-3.039V7.758a5.1,5.1,0,0,1,.493-2.277,3.616,3.616,0,0,1,1.394-1.547,3.9,3.9,0,0,1,2.059-.543,3.508,3.508,0,0,1,2.73,1.093,4.446,4.446,0,0,1,1,3.1v.922h-5.382a2.093,2.093,0,0,0,.66,1.328,2,2,0,0,0,1.394.5,2.439,2.439,0,0,0,2.039-.945l1.11,1.242a3.4,3.4,0,0,1-1.375,1.121,4.5,4.5,0,0,1-1.922.4m-.258-6.945a1.408,1.408,0,0,0-1.09.455,2.356,2.356,0,0,0-.535,1.3h3.141V6.788a1.686,1.686,0,0,0-.407-1.165,1.457,1.457,0,0,0-1.109-.412" fill="#fff"/>
            <path id="Trazado_215651" data-name="Trazado 215651" d="M226.938,9.242l1.57-5.695h2.36L228.015,12h-2.156l-2.852-8.453h2.36Z" fill="#fff"/>
            <path id="Trazado_215652" data-name="Trazado 215652" d="M235.649,12.156a4.152,4.152,0,0,1-3.028-1.14,4.055,4.055,0,0,1-1.168-3.039V7.758a5.1,5.1,0,0,1,.493-2.277,3.616,3.616,0,0,1,1.394-1.547,3.9,3.9,0,0,1,2.059-.543,3.508,3.508,0,0,1,2.73,1.093,4.446,4.446,0,0,1,1,3.1v.922h-5.382a2.093,2.093,0,0,0,.66,1.328,2,2,0,0,0,1.394.5,2.439,2.439,0,0,0,2.039-.945l1.11,1.242a3.4,3.4,0,0,1-1.375,1.121,4.5,4.5,0,0,1-1.922.4m-.258-6.945a1.408,1.408,0,0,0-1.09.455,2.356,2.356,0,0,0-.535,1.3h3.141V6.788a1.686,1.686,0,0,0-.407-1.165,1.457,1.457,0,0,0-1.109-.412" fill="#fff"/>
            <path id="Trazado_215653" data-name="Trazado 215653" d="M242.484,3.547l.07.977a2.952,2.952,0,0,1,2.43-1.133,2.45,2.45,0,0,1,2,.789,3.686,3.686,0,0,1,.672,2.359V12H245.4V6.581a1.474,1.474,0,0,0-.312-1.045,1.4,1.4,0,0,0-1.04-.325,1.552,1.552,0,0,0-1.429.815V12h-2.258V3.547Z" fill="#fff"/>
            <path id="Trazado_215654" data-name="Trazado 215654" d="M252.07,1.469V3.547h1.445V5.2H252.07V9.422a1.007,1.007,0,0,0,.18.672.9.9,0,0,0,.687.2,3.554,3.554,0,0,0,.664-.055v1.711a4.629,4.629,0,0,1-1.367.2,2.156,2.156,0,0,1-2.422-2.4V5.2h-1.234V3.547h1.234V1.469Z" fill="#fff"/>
            <path id="Trazado_215655" data-name="Trazado 215655" d="M259.672,12a2.488,2.488,0,0,1-.226-.758,2.731,2.731,0,0,1-2.133.915,3,3,0,0,1-2.059-.719,2.31,2.31,0,0,1-.816-1.813,2.389,2.389,0,0,1,1-2.062,4.906,4.906,0,0,1,2.879-.727h1.039V6.352a1.4,1.4,0,0,0-.3-.938,1.185,1.185,0,0,0-.949-.351,1.346,1.346,0,0,0-.895.273.931.931,0,0,0-.324.75h-2.258a2.269,2.269,0,0,1,.453-1.359,3,3,0,0,1,1.282-.981,4.665,4.665,0,0,1,1.859-.355,3.7,3.7,0,0,1,2.481.785,2.75,2.75,0,0,1,.918,2.207v3.664a4.034,4.034,0,0,0,.335,1.82V12ZM257.8,10.43a1.939,1.939,0,0,0,.922-.223,1.463,1.463,0,0,0,.625-.6V8.157h-.844q-1.7,0-1.8,1.171l-.007.133a.9.9,0,0,0,.3.7,1.151,1.151,0,0,0,.812.273" fill="#fff"/>
            <path id="Trazado_215656" data-name="Trazado 215656" d="M267.93,9.664a.728.728,0,0,0-.41-.652,4.634,4.634,0,0,0-1.317-.426q-3.015-.633-3.015-2.563a2.321,2.321,0,0,1,.933-1.879,3.769,3.769,0,0,1,2.442-.753,4.057,4.057,0,0,1,2.574.757,2.39,2.39,0,0,1,.965,1.969h-2.258a1.094,1.094,0,0,0-.312-.8A1.325,1.325,0,0,0,266.555,5a1.349,1.349,0,0,0-.883.258.811.811,0,0,0-.312.656.694.694,0,0,0,.355.605,3.641,3.641,0,0,0,1.2.4,9.72,9.72,0,0,1,1.422.379,2.335,2.335,0,0,1,1.789,2.273,2.2,2.2,0,0,1-.992,1.871,4.276,4.276,0,0,1-2.562.715,4.462,4.462,0,0,1-1.887-.379,3.155,3.155,0,0,1-1.293-1.039,2.41,2.41,0,0,1-.469-1.426h2.141a1.176,1.176,0,0,0,.445.922,1.765,1.765,0,0,0,1.11.321,1.638,1.638,0,0,0,.98-.246.768.768,0,0,0,.332-.645" fill="#fff"/>
          </g>
        </g>
        <path id="Trazado_215657" data-name="Trazado 215657" d="M473.438,513.523h-3.484V523h-2.344v-9.477h-3.438v-1.9h9.266Z" fill="#fff"/>
        <g id="Grupo_154152" data-name="Grupo 154152">
          <g id="Grupo_154151" data-name="Grupo 154151" clip-path="url(#clip-path)">
            <path id="Trazado_215658" data-name="Trazado 215658" d="M474.609,512.359a1.115,1.115,0,0,1,.34-.836,1.465,1.465,0,0,1,1.848,0,1.193,1.193,0,0,1,0,1.68,1.449,1.449,0,0,1-1.836,0,1.108,1.108,0,0,1-.348-.844m2.4,10.641h-2.266v-8.453h2.266Z" fill="#fff"/>
            <path id="Trazado_215659" data-name="Trazado 215659" d="M482.758,523.156a4.152,4.152,0,0,1-3.028-1.14,4.055,4.055,0,0,1-1.168-3.039v-.219a5.1,5.1,0,0,1,.493-2.277,3.616,3.616,0,0,1,1.394-1.547,3.9,3.9,0,0,1,2.059-.543,3.508,3.508,0,0,1,2.73,1.093,4.446,4.446,0,0,1,1,3.1v.922h-5.382a2.093,2.093,0,0,0,.66,1.328,2,2,0,0,0,1.394.5,2.439,2.439,0,0,0,2.039-.945l1.11,1.242a3.4,3.4,0,0,1-1.375,1.121,4.5,4.5,0,0,1-1.922.4m-.258-6.945a1.408,1.408,0,0,0-1.09.455,2.356,2.356,0,0,0-.535,1.3h3.141v-.181a1.686,1.686,0,0,0-.407-1.165,1.457,1.457,0,0,0-1.109-.412" fill="#fff"/>
            <path id="Trazado_215660" data-name="Trazado 215660" d="M489.633,514.547l.07.945a2.972,2.972,0,0,1,2.43-1.1,2.254,2.254,0,0,1,2.242,1.289,2.9,2.9,0,0,1,2.539-1.289,2.519,2.519,0,0,1,2.047.8,3.684,3.684,0,0,1,.672,2.41V523h-2.266v-5.4a1.613,1.613,0,0,0-.281-1.053,1.243,1.243,0,0,0-.992-.333,1.407,1.407,0,0,0-1.406.971L494.7,523h-2.257v-5.4a1.6,1.6,0,0,0-.289-1.065,1.258,1.258,0,0,0-.985-.329,1.463,1.463,0,0,0-1.39.8V523h-2.258v-8.453Z" fill="#fff"/>
            <path id="Trazado_215661" data-name="Trazado 215661" d="M508.977,518.852a5.072,5.072,0,0,1-.887,3.129,2.844,2.844,0,0,1-2.394,1.176,2.633,2.633,0,0,1-2.071-.891v3.984h-2.258v-11.7h2.094l.078.828a2.654,2.654,0,0,1,2.141-.984,2.867,2.867,0,0,1,2.43,1.156,5.208,5.208,0,0,1,.867,3.188Zm-2.258-.172a3.352,3.352,0,0,0-.418-1.826,1.36,1.36,0,0,0-1.215-.643,1.478,1.478,0,0,0-1.461.815V520.5a1.5,1.5,0,0,0,1.477.839q1.617,0,1.617-2.656" fill="#fff"/>
            <path id="Trazado_215662" data-name="Trazado 215662" d="M510.023,518.7a5,5,0,0,1,.485-2.242,3.538,3.538,0,0,1,1.394-1.524,4.072,4.072,0,0,1,2.113-.539,3.848,3.848,0,0,1,2.793,1.047,4.207,4.207,0,0,1,1.207,2.844l.016.578a4.418,4.418,0,0,1-1.086,3.121,4.208,4.208,0,0,1-5.832,0,4.494,4.494,0,0,1-1.09-3.188Zm2.258.16a3.152,3.152,0,0,0,.453,1.843,1.629,1.629,0,0,0,2.578.008,3.461,3.461,0,0,0,.461-2.015,3.13,3.13,0,0,0-.461-1.831,1.5,1.5,0,0,0-1.3-.65,1.472,1.472,0,0,0-1.281.646,3.51,3.51,0,0,0-.453,2" fill="#fff"/>
          </g>
        </g>
        <rect id="Rectángulo_44424" data-name="Rectángulo 44424" width="2.344" height="11.375" transform="translate(129.023 511.625)" fill="#fff"/>
        <g id="Grupo_154154" data-name="Grupo 154154">
          <g id="Grupo_154153" data-name="Grupo 154153" clip-path="url(#clip-path)">
            <path id="Trazado_215663" data-name="Trazado 215663" d="M135.469,514.547l.07.977a2.952,2.952,0,0,1,2.43-1.133,2.45,2.45,0,0,1,2,.789,3.686,3.686,0,0,1,.672,2.359V523h-2.258v-5.419a1.474,1.474,0,0,0-.312-1.045,1.4,1.4,0,0,0-1.04-.325,1.552,1.552,0,0,0-1.429.815V523h-2.258v-8.453Z" fill="#fff"/>
            <path id="Trazado_215664" data-name="Trazado 215664" d="M145.516,520.242l1.57-5.7h2.36L146.594,523h-2.156l-2.852-8.453h2.36Z" fill="#fff"/>
            <path id="Trazado_215665" data-name="Trazado 215665" d="M154.227,523.156a4.152,4.152,0,0,1-3.028-1.14,4.055,4.055,0,0,1-1.168-3.039v-.219a5.1,5.1,0,0,1,.493-2.277,3.616,3.616,0,0,1,1.394-1.547,3.9,3.9,0,0,1,2.059-.543,3.508,3.508,0,0,1,2.73,1.093,4.446,4.446,0,0,1,1,3.1v.922h-5.382a2.093,2.093,0,0,0,.66,1.328,2,2,0,0,0,1.394.5,2.439,2.439,0,0,0,2.039-.945l1.11,1.242a3.4,3.4,0,0,1-1.375,1.121,4.5,4.5,0,0,1-1.922.4m-.258-6.945a1.408,1.408,0,0,0-1.09.455,2.356,2.356,0,0,0-.535,1.3h3.141v-.181a1.686,1.686,0,0,0-.407-1.165,1.457,1.457,0,0,0-1.109-.412" fill="#fff"/>
            <path id="Trazado_215666" data-name="Trazado 215666" d="M163.734,516.664a6.077,6.077,0,0,0-.812-.062,1.653,1.653,0,0,0-1.68.867V523h-2.258v-8.453h2.133l.062,1.008a2.089,2.089,0,0,1,1.883-1.164,2.384,2.384,0,0,1,.7.1Z" fill="#fff"/>
            <path id="Trazado_215667" data-name="Trazado 215667" d="M169.4,520.664a.728.728,0,0,0-.41-.652,4.633,4.633,0,0,0-1.317-.426q-3.015-.633-3.015-2.563a2.321,2.321,0,0,1,.933-1.879,3.769,3.769,0,0,1,2.442-.753,4.057,4.057,0,0,1,2.574.757,2.39,2.39,0,0,1,.965,1.969h-2.258a1.094,1.094,0,0,0-.312-.8,1.325,1.325,0,0,0-.977-.316,1.349,1.349,0,0,0-.883.258.811.811,0,0,0-.312.656.694.694,0,0,0,.355.6,3.641,3.641,0,0,0,1.2.4,9.72,9.72,0,0,1,1.422.379,2.335,2.335,0,0,1,1.789,2.273,2.2,2.2,0,0,1-.992,1.871,4.276,4.276,0,0,1-2.562.715,4.461,4.461,0,0,1-1.887-.379,3.155,3.155,0,0,1-1.293-1.039,2.41,2.41,0,0,1-.469-1.426h2.141a1.176,1.176,0,0,0,.445.922,1.765,1.765,0,0,0,1.11.321,1.638,1.638,0,0,0,.98-.246.768.768,0,0,0,.332-.645" fill="#fff"/>
            <path id="Trazado_215668" data-name="Trazado 215668" d="M173.031,512.359a1.115,1.115,0,0,1,.34-.836,1.465,1.465,0,0,1,1.848,0,1.2,1.2,0,0,1,0,1.68,1.449,1.449,0,0,1-1.836,0,1.1,1.1,0,0,1-.348-.844M175.43,523h-2.266v-8.453h2.266Z" fill="#fff"/>
            <path id="Trazado_215669" data-name="Trazado 215669" d="M176.938,518.7a5.009,5.009,0,0,1,.484-2.242,3.536,3.536,0,0,1,1.394-1.523,4.064,4.064,0,0,1,2.114-.539,3.85,3.85,0,0,1,2.793,1.046,4.213,4.213,0,0,1,1.207,2.844l.015.578a4.418,4.418,0,0,1-1.086,3.121,4.208,4.208,0,0,1-5.832,0,4.5,4.5,0,0,1-1.089-3.187Zm2.257.16a3.16,3.16,0,0,0,.453,1.843,1.628,1.628,0,0,0,2.579.008,3.47,3.47,0,0,0,.46-2.015,3.138,3.138,0,0,0-.46-1.831,1.5,1.5,0,0,0-1.3-.649,1.474,1.474,0,0,0-1.282.645,3.518,3.518,0,0,0-.453,2m2.18-7.855h2.461l-2.164,2.422h-1.836Z" fill="#fff"/>
            <path id="Trazado_215670" data-name="Trazado 215670" d="M188.414,514.547l.07.977a2.952,2.952,0,0,1,2.43-1.133,2.45,2.45,0,0,1,2,.789,3.687,3.687,0,0,1,.672,2.359V523h-2.258v-5.419a1.474,1.474,0,0,0-.312-1.045,1.4,1.4,0,0,0-1.04-.325,1.552,1.552,0,0,0-1.429.815V523h-2.258v-8.453Z" fill="#fff"/>
          </g>
        </g>
      </g>
    </g>
    <g id="Grupo_153439" data-name="Grupo 153439" transform="translate(745.875 11234)">
      <g id="cow" transform="translate(0 0)">
        <g id="Grupo_153280" data-name="Grupo 153280" transform="translate(0 0)">
          <g id="Grupo_153279" data-name="Grupo 153279">
            <g id="Grupo_153278" data-name="Grupo 153278">
              <g id="Grupo_153277" data-name="Grupo 153277">
                <g id="Grupo_153276" data-name="Grupo 153276">
                  <g id="Grupo_153275" data-name="Grupo 153275">
                    <g id="Grupo_153274" data-name="Grupo 153274">
                      <circle id="Elipse_4914" data-name="Elipse 4914" cx="32" cy="32" r="32" transform="translate(0.125 -0.001)" fill="#fa6447"/>
                    </g>
                  </g>
                </g>
              </g>
            </g>
          </g>
        </g>
        <path id="Trazado_213181" data-name="Trazado 213181" d="M153.961,87.869a30.95,30.95,0,0,0-.358-4.705L122.188,62.718l10.738,24.767L122.188,76.43l-11.91,7.113-7.487,2.209,15.894,15.564L106.692,109l13.292,10.152q.975.058,1.965.058C139.629,119.215,153.961,105.181,153.961,87.869Z" transform="translate(-90.177 -55.459)" fill="#9f321d"/>
      </g>
      <g id="estrella_1_" data-name="estrella (1)" transform="translate(6.784 6.972)">
        <path id="Trazado_213145" data-name="Trazado 213145" d="M24.516,12.53,16.495,27.267,0,30.342,15.227,36.8l9.289,1.269,1.341-9.792Z" transform="translate(0 -12.53)" fill="#ffdd46"/>
        <path id="Trazado_213146" data-name="Trazado 213146" d="M280.516,198.524l-16.089,3.014L256,206.255l5.171,9.84,9.981,11.25-2.173-16.638Z" transform="translate(-231.484 -180.712)" fill="#ff9e00"/>
        <path id="Trazado_213147" data-name="Trazado 213147" d="M97.783,300.339l15.152-7.208,1.245-5.67-1.245-8.212-7.853,6.3Z" transform="translate(-88.419 -253.706)" fill="#ffdd46"/>
        <g id="Grupo_153262" data-name="Grupo 153262" transform="translate(0 0)">
          <path id="Trazado_213148" data-name="Trazado 213148" d="M256,279.249v13.882l15.152,7.208Z" transform="translate(-231.484 -253.706)" fill="#fcbe00"/>
          <path id="Trazado_213149" data-name="Trazado 213149" d="M280.516,30.342l-16.495-3.075L256,12.53V38.073Z" transform="translate(-231.484 -12.53)" fill="#fcbe00"/>
          <path id="Trazado_213150" data-name="Trazado 213150" d="M0,198.524l11.537,12.183L9.364,227.345l15.152-21.09Z" transform="translate(0 -180.712)" fill="#fcbe00"/>
        </g>
      </g>
    </g>
    <g id="cow-2" data-name="cow" transform="translate(956.185 11279.783)">
      <g id="Grupo_153280-2" data-name="Grupo 153280" transform="translate(0 0)">
        <g id="Grupo_153279-2" data-name="Grupo 153279" transform="translate(0 0)">
          <g id="Grupo_153278-2" data-name="Grupo 153278">
            <g id="Grupo_153277-2" data-name="Grupo 153277">
              <g id="Grupo_153276-2" data-name="Grupo 153276">
                <g id="Grupo_153275-2" data-name="Grupo 153275">
                  <g id="Grupo_153274-2" data-name="Grupo 153274">
                    <circle id="Elipse_4914-2" data-name="Elipse 4914" cx="32" cy="32" r="32" transform="translate(-0.185 0.216)" fill="#fa6447"/>
                  </g>
                </g>
              </g>
            </g>
          </g>
        </g>
      </g>
      <path id="Trazado_213181-2" data-name="Trazado 213181" d="M153.7,88.554a32.1,32.1,0,0,0-.356-4.78l-19.01-19.01-1.561,23.4-23.4-23.4.87,19.394L102.791,86.4,118.6,102.215l-8.584,8.25,9.876,9.876q.97.059,1.955.059A31.846,31.846,0,0,0,153.7,88.554Z" transform="translate(-89.976 -56.678)" fill="#9f321d"/>
      <g id="Grupo_153281" data-name="Grupo 153281" transform="translate(16.839 8.086)">
        <path id="Trazado_213182" data-name="Trazado 213182" d="M144.005,75.11s-5.763-2.344-6.313-10.346c0,0-6.476,9.8,1.193,15.667S144.005,75.11,144.005,75.11Z" transform="translate(-135.137 -64.764)" fill="#555a66"/>
      </g>
      <g id="Grupo_153282" data-name="Grupo 153282" transform="translate(9.444 20.204)">
        <path id="Trazado_213183" data-name="Trazado 213183" d="M86.888,167.43s-4.4-5.643-11.147-5.231c0,0-1.376,10.5,10.046,12.752Z" transform="translate(-75.69 -162.177)" fill="#ffb89c"/>
      </g>
      <g id="Grupo_153283" data-name="Grupo 153283" transform="translate(37.636 8.086)">
        <path id="Trazado_213184" data-name="Trazado 213184" d="M302.716,75.11s5.763-2.344,6.313-10.346c0,0,6.476,9.8-1.193,15.667S302.716,75.11,302.716,75.11Z" transform="translate(-302.31 -64.764)" fill="#333940"/>
      </g>
      <g id="Grupo_153284" data-name="Grupo 153284" transform="translate(43.107 20.204)">
        <path id="Trazado_213185" data-name="Trazado 213185" d="M346.291,167.43s4.4-5.643,11.146-5.231c0,0,1.376,10.5-10.046,12.752Z" transform="translate(-346.291 -162.177)" fill="#ff936b"/>
      </g>
      <g id="Grupo_153285" data-name="Grupo 153285" transform="translate(17.764 15.455)">
        <path id="Trazado_213186" data-name="Trazado 213186" d="M158.211,124h-4a11.643,11.643,0,0,0-11.546,13.138l2.29,17.687H168.4l1.4-10.823Z" transform="translate(-142.568 -124.003)" fill="#fff"/>
      </g>
      <g id="Grupo_153286" data-name="Grupo 153286" transform="translate(31.875 15.455)">
        <path id="Trazado_213187" data-name="Trazado 213187" d="M257.532,124H256v30.825h11.723l1.4-10.823-.8-6.745Z" transform="translate(-256 -124.003)" fill="#e9edf5"/>
      </g>
      <g id="Grupo_153287" data-name="Grupo 153287" transform="translate(18.257 41.51)">
        <path id="Trazado_213188" data-name="Trazado 213188" d="M167.514,347.6H152.786a6.254,6.254,0,0,1-6.254-6.254V339.7a6.254,6.254,0,0,1,6.254-6.254h14.728a6.254,6.254,0,0,1,6.254,6.254v1.649A6.254,6.254,0,0,1,167.514,347.6Z" transform="translate(-146.532 -333.442)" fill="#ffb89c"/>
      </g>
      <g id="Grupo_153288" data-name="Grupo 153288" transform="translate(31.875 41.51)">
        <path id="Trazado_213189" data-name="Trazado 213189" d="M263.364,333.442H256V347.6h7.364a6.254,6.254,0,0,0,6.254-6.254V339.7A6.254,6.254,0,0,0,263.364,333.442Z" transform="translate(-256 -333.442)" fill="#ff936b"/>
      </g>
      <g id="Grupo_153291" data-name="Grupo 153291" transform="translate(23.712 46.647)">
        <g id="Grupo_153289" data-name="Grupo 153289">
          <ellipse id="Elipse_4915" data-name="Elipse 4915" cx="2.402" cy="2.402" rx="2.402" ry="2.402" fill="#555a66"/>
        </g>
        <g id="Grupo_153290" data-name="Grupo 153290" transform="translate(11.522)">
          <ellipse id="Elipse_4916" data-name="Elipse 4916" cx="2.402" cy="2.402" rx="2.402" ry="2.402" fill="#333940"/>
        </g>
      </g>
      <g id="Grupo_153294" data-name="Grupo 153294" transform="translate(23.286 30.639)">
        <g id="Grupo_153292" data-name="Grupo 153292">
          <ellipse id="Elipse_4917" data-name="Elipse 4917" cx="2.339" cy="2.339" rx="2.339" ry="2.339" fill="#555a66"/>
        </g>
        <g id="Grupo_153293" data-name="Grupo 153293" transform="translate(12.498)">
          <ellipse id="Elipse_4918" data-name="Elipse 4918" cx="2.339" cy="2.339" rx="2.339" ry="2.339" fill="#333940"/>
        </g>
      </g>
      <g id="Grupo_153295" data-name="Grupo 153295" transform="translate(32.475 15.455)">
        <path id="Trazado_213190" data-name="Trazado 213190" d="M262.69,124h-1.866a8.582,8.582,0,0,1,2.759,4.4c.958,4.037.942,7.89,4.8,8.073,2.313.11,3.989,4.234,4.961,7.526l.889-6.865A11.643,11.643,0,0,0,262.69,124Z" transform="translate(-260.824 -124.003)" fill="#555a66"/>
      </g>
    </g>
    <g id="Grupo_153440" data-name="Grupo 153440" transform="translate(1086.799 11448.728)">
      <g id="perro" transform="translate(0 0)">
        <g id="XMLID_181_" transform="translate(0 0)">
          <g id="XMLID_182_">
            <g id="XMLID_183_">
              <g id="XMLID_184_">
                <g id="XMLID_185_">
                  <g id="XMLID_186_">
                    <g id="XMLID_187_">
                      <g id="XMLID_188_">
                        <g id="XMLID_189_">
                          <g id="XMLID_190_">
                            <g id="XMLID_191_">
                              <g id="XMLID_192_">
                                <g id="XMLID_193_">
                                  <g id="XMLID_194_">
                                    <circle id="XMLID_195_" cx="32.5" cy="32.5" r="32.5" transform="translate(0.201 0.273)" fill="#fa6447"/>
                                  </g>
                                </g>
                              </g>
                            </g>
                          </g>
                        </g>
                      </g>
                    </g>
                  </g>
                </g>
              </g>
            </g>
          </g>
        </g>
        <path id="Trazado_213191" data-name="Trazado 213191" d="M138.181,151.407a32.127,32.127,0,0,0-2.243-11.833l-3.258-3.222L87.746,139.9l-3.371,10.082,7.514,7.512,7.091,17.726,8.363,8.363A32.21,32.21,0,0,0,138.181,151.407Z" transform="translate(-73.539 -120.197)" fill="#9f321d"/>
        <g id="Grupo_153304" data-name="Grupo 153304" transform="translate(5.173 11.345)">
          <g id="Grupo_153298" data-name="Grupo 153298">
            <g id="Grupo_153296" data-name="Grupo 153296">
              <path id="Trazado_213192" data-name="Trazado 213192" d="M123.436,105.523s-6.035-4.9-7.986-4.658-4.283,7.043-4.283,7.043,3.432,6.173,4.674,8.986Z" transform="translate(-102.134 -100.512)" fill="#b56f40"/>
              <path id="Trazado_213193" data-name="Trazado 213193" d="M54.285,98.874a4.984,4.984,0,0,0-4.343-.507,54.355,54.355,0,0,0-8.5,3.3c-2.6,1.292-2.6,3.744-.864,7.382,1.206,2.535,4.3,8.8,5.642,7.949.635-.4,4.387-10.95,5.161-13.013C52.017,102.282,54.045,99.588,54.285,98.874Z" transform="translate(-39.368 -98.119)" fill="#cc8656"/>
            </g>
            <g id="Grupo_153297" data-name="Grupo 153297" transform="translate(33.213)">
              <path id="Trazado_213194" data-name="Trazado 213194" d="M303.328,105.523s6.035-4.9,7.985-4.658,4.283,7.043,4.283,7.043-3.433,6.173-4.674,8.986Z" transform="translate(-303.328 -100.512)" fill="#a35d2e"/>
              <path id="Trazado_213195" data-name="Trazado 213195" d="M354.079,98.874a4.984,4.984,0,0,1,4.343-.507,54.358,54.358,0,0,1,8.5,3.3c2.6,1.292,2.6,3.744.864,7.382-1.206,2.535-4.3,8.8-5.642,7.949-.635-.4-4.387-10.95-5.161-13.013C356.347,102.282,354.319,99.588,354.079,98.874Z" transform="translate(-347.693 -98.119)" fill="#b56f40"/>
            </g>
          </g>
          <g id="Grupo_153302" data-name="Grupo 153302" transform="translate(11.548 2.79)">
            <path id="Trazado_213196" data-name="Trazado 213196" d="M172.032,145.934q-.249.516-.545,1.079c-4.437,8.438-2.834,16.235-13.8,16.235s-9.368-7.8-13.8-16.235q-.3-.564-.545-1.079a60.22,60.22,0,0,0,3.719-12.68c1.122-6.3,7.647-12.68,7.647-12.68a16.091,16.091,0,0,1,5.966,0s6.346,6.38,7.468,12.68A54.405,54.405,0,0,0,172.032,145.934Z" transform="translate(-141.8 -120.295)" fill="#fcf0e5"/>
            <path id="Trazado_213197" data-name="Trazado 213197" d="M270.523,145.938c-.166.345-.347.7-.545,1.08-4.438,8.438-2.835,16.235-13.805,16.235H256V120.3h.172a15.987,15.987,0,0,1,2.983.278s6.347,6.381,7.469,12.681A54.41,54.41,0,0,0,270.523,145.938Z" transform="translate(-240.291 -120.299)" fill="#eaddd3"/>
            <g id="Grupo_153299" data-name="Grupo 153299" transform="translate(10.384 28.58)">
              <path id="Trazado_213198" data-name="Trazado 213198" d="M219,347.437c-3.2,0-6,.2-5.18,3.911.533,2.4,3.921,4.116,5.18,4.116s4.647-1.715,5.18-4.116C225.006,347.633,222.2,347.437,219,347.437Z" transform="translate(-213.677 -347.437)" fill="#70695e"/>
            </g>
            <g id="Grupo_153300" data-name="Grupo 153300" transform="translate(15.709 28.58)">
              <path id="Trazado_213199" data-name="Trazado 213199" d="M261.18,351.351c-.532,2.4-3.922,4.116-5.18,4.116V347.44C259.195,347.44,262,347.635,261.18,351.351Z" transform="translate(-256 -347.44)" fill="#5b554a"/>
            </g>
            <g id="Grupo_153301" data-name="Grupo 153301" transform="translate(0 0.279)">
              <path id="Trazado_213200" data-name="Trazado 213200" d="M142.342,144.7c-2.464,1.56-7.1,2.7-9.659,3.169-3.568-7.372.038-7.7,1.334-14.965a12.269,12.269,0,0,1,10.205-10.4C144.578,128.1,146.543,142.044,142.342,144.7Z" transform="translate(-131.15 -122.511)" fill="#cc8656"/>
              <path id="Trazado_213201" data-name="Trazado 213201" d="M286.175,147.872c-2.554-.468-7.118-1.56-9.582-3.121-4.2-2.658-2.313-16.647-1.957-22.239a12.268,12.268,0,0,1,10.205,10.4C286.138,140.175,289.744,140.5,286.175,147.872Z" transform="translate(-255.944 -122.512)" fill="#b56f40"/>
            </g>
          </g>
          <g id="Grupo_153303" data-name="Grupo 153303" transform="translate(16.045 15.999)">
            <ellipse id="Elipse_4919" data-name="Elipse 4919" cx="2.02" cy="2.02" rx="2.02" ry="2.02" transform="translate(0 2.375) rotate(-35.851)" fill="#5b554a"/>
            <ellipse id="Elipse_4920" data-name="Elipse 4920" cx="2.02" cy="2.02" rx="2.02" ry="2.02" transform="translate(16.834 2.367) rotate(-35.851)" fill="#3a352e"/>
          </g>
        </g>
      </g>
    </g>
    <g id="Grupo_153441" data-name="Grupo 153441" transform="translate(610 11344)">
      <g id="cow-3" data-name="cow" transform="translate(0 0)">
        <g id="Grupo_153280-3" data-name="Grupo 153280" transform="translate(0 0)">
          <g id="Grupo_153279-3" data-name="Grupo 153279" transform="translate(0 0)">
            <g id="Grupo_153278-3" data-name="Grupo 153278">
              <g id="Grupo_153277-3" data-name="Grupo 153277">
                <g id="Grupo_153276-3" data-name="Grupo 153276">
                  <g id="Grupo_153275-3" data-name="Grupo 153275">
                    <g id="Grupo_153274-3" data-name="Grupo 153274">
                      <ellipse id="Elipse_4914-3" data-name="Elipse 4914" cx="31.49" cy="31.49" rx="31.49" ry="31.49" fill="#fa6447"/>
                    </g>
                  </g>
                </g>
              </g>
            </g>
          </g>
        </g>
        <path id="Trazado_213181-3" data-name="Trazado 213181" d="M155.253,88.6a32.136,32.136,0,0,0-.357-4.785L132.8,64.909l1.5,23.3-5.367-8.435L124.127,90l-5.67,4.983,2.962,6.616-7.687,12.457,7.687,6.364q.971.059,1.957.059A31.878,31.878,0,0,0,155.253,88.6Z" transform="translate(-91.469 -56.691)" fill="#9f321d"/>
      </g>
      <g id="signo-de-interrogacion" transform="translate(8.79 5.289)">
        <g id="Grupo_153266" data-name="Grupo 153266" transform="translate(0 0)">
          <g id="Grupo_153265" data-name="Grupo 153265" transform="translate(0 0)">
            <g id="Grupo_153264" data-name="Grupo 153264">
              <path id="Trazado_213151" data-name="Trazado 213151" d="M193.023,62.429l9.345-7.321,1.459-12.745-10.8-5.948-4.386,6.027a7.418,7.418,0,0,1-.849,13.627,10.529,10.529,0,0,0-6.985,9.924V67.91a4.517,4.517,0,0,0,4.516,4.517h6.606Z" transform="translate(-168.872 -32.63)" fill="#fe9738"/>
              <path id="Trazado_213152" data-name="Trazado 213152" d="M77.176,20.968H70.57a4.516,4.516,0,0,1-4.516-4.516A16.438,16.438,0,0,1,83.6.04h6.606l-4.7,4.746" transform="translate(-66.054 -0.005)" fill="#fe9738"/>
            </g>
            <path id="Trazado_213153" data-name="Trazado 213153" d="M191.923,424.763h-6.605a4.517,4.517,0,0,0-4.516,4.517v.037a4.516,4.516,0,0,0,4.516,4.516h5.8" transform="translate(-168.87 -380.599)" fill="#fe9738"/>
          </g>
        </g>
        <g id="Grupo_153272" data-name="Grupo 153272" transform="translate(6.605 0)">
          <g id="Grupo_153271" data-name="Grupo 153271" transform="translate(0 0)">
            <g id="Grupo_153268" data-name="Grupo 153268" transform="translate(0 0)">
              <g id="Grupo_153267" data-name="Grupo 153267">
                <path id="Trazado_213154" data-name="Trazado 213154" d="M146.031,39.8a4.516,4.516,0,0,1-4.516-4.516V33.369a10.526,10.526,0,0,1,6.986-9.923,7.416,7.416,0,1,0-9.812-8.034,7.55,7.55,0,0,0-.072,1.04,4.516,4.516,0,1,1-9.033,0,16.448,16.448,0,1,1,21.928,15.51,1.48,1.48,0,0,0-.964,1.407v1.916A4.517,4.517,0,0,1,146.031,39.8Z" transform="translate(-129.584 -0.005)" fill="#ffd15b"/>
              </g>
              <path id="Trazado_213155" data-name="Trazado 213155" d="M248.846,433.834a4.516,4.516,0,0,1-4.516-4.516v-.037a4.516,4.516,0,1,1,9.033,0v.037A4.516,4.516,0,0,1,248.846,433.834Z" transform="translate(-232.399 -380.6)" fill="#ffd15b"/>
            </g>
            <g id="Grupo_153270" data-name="Grupo 153270">
              <g id="Grupo_153269" data-name="Grupo 153269">
                <path id="Trazado_213156" data-name="Trazado 213156" d="M133.734,14.16a16.462,16.462,0,0,0-.158,2.288A4.513,4.513,0,0,0,136.1,20.5a4.517,4.517,0,0,1-6.513-4.052A16.451,16.451,0,0,1,147.13.036q.46.03.914.088A16.523,16.523,0,0,0,133.734,14.16Z" transform="translate(-129.583 0)" fill="#ffc344"/>
                <path id="Trazado_213157" data-name="Trazado 213157" d="M255.316,101.291a10.53,10.53,0,0,0-6.987,9.924v1.915a4.515,4.515,0,0,0,2.522,4.052,4.517,4.517,0,0,1-6.513-4.052v-1.915a10.527,10.527,0,0,1,6.987-9.924,7.417,7.417,0,0,0-.46-14.131,7.412,7.412,0,0,1,4.451,14.131Z" transform="translate(-232.407 -77.851)" fill="#ffc344"/>
              </g>
              <path id="Trazado_213158" data-name="Trazado 213158" d="M250.851,433.36a4.517,4.517,0,0,1-6.513-4.051v-.039a4.517,4.517,0,0,1,6.513-4.051,4.52,4.52,0,0,0-2.522,4.052v.038A4.515,4.515,0,0,0,250.851,433.36Z" transform="translate(-232.406 -380.59)" fill="#ffc344"/>
            </g>
          </g>
        </g>
      </g>
    </g>
  </g>
</svg>
