<svg xmlns="http://www.w3.org/2000/svg" xmlns:xlink="http://www.w3.org/1999/xlink" width="820" height="325" viewBox="0 0 820 325">
  <defs>
    <linearGradient id="linear-gradient" x1="0.559" y1="0.877" x2="1.276" y2="-0.162" gradientUnits="objectBoundingBox">
      <stop offset="0" stop-color="#9f321d"/>
      <stop offset="1" stop-color="#efa091"/>
    </linearGradient>
    <clipPath id="clip-path">
      <rect id="Rectángulo_44443" data-name="Rectángulo 44443" width="748.457" height="245.707" fill="none"/>
    </clipPath>
  </defs>
  <g id="Grupo_153981" data-name="Grupo 153981" transform="translate(5554 -2541)">
    <path id="Trazado_213641" data-name="Trazado 213641" d="M0,0H820V325H0Z" transform="translate(-5554 2541)" fill="#fff"/>
    <ellipse id="Elipse_4957" data-name="Elipse 4957" cx="177" cy="101" rx="177" ry="101" transform="translate(-5329 2625)" fill="#f3f3f3"/>
    <g id="Grupo_153480" data-name="Grupo 153480" transform="translate(-1330 28.559)">
      <path id="Unión_4" data-name="Unión 4" d="M0,82q0-1.679.138-3.345L0,78.455V43.1l12.027-2.946,8.795,2.323C49.5,17.156,104.879,0,168.5,0c68.358,0,127.209,19.81,153.636,48.276l4.051-.984H337V83.624l-.034.042C335.146,128.185,260.419,164,168.5,164,75.44,164,0,127.287,0,82Z" transform="translate(-3982 2616.441)" fill="#c9c9c9"/>
      <path id="Intersección_4" data-name="Intersección 4" d="M0,124.339V90.161l11.585-1.468S157.321,34.924,161.219,34.924c2.416,0,31.03-19.836,52.448-34.924,10.589,5.964,19.449,12.679,26.194,19.958l4.051-.985h10.813v36.4l-.035.042c-1.82,44.6-76.547,80.482-168.465,80.482C54.712,135.9,25.226,131.68,0,124.339Z" transform="translate(-3899.725 2644.987)" fill="#cd7c6c"/>
      <ellipse id="Elipse_4950" data-name="Elipse 4950" cx="168.5" cy="82" rx="168.5" ry="82" transform="translate(-3982 2583.441)" fill="#afafaf"/>
      <path id="Intersección_3" data-name="Intersección 3" d="M0,26.536C30.7,10.228,74.861,0,123.942,0q7.632,0,15.1.325L123.9,70Z" transform="translate(-3937.442 2583.6)" fill="#fecd4d"/>
      <path id="Intersección_2" data-name="Intersección 2" d="M0,0C75.869,0,139.982,24.444,160.79,58l-.509,1.747L.018,70.184Z" transform="translate(-3813.497 2583.6)" fill="#2c53a0"/>
      <path id="Intersección_1" data-name="Intersección 1" d="M-.046,107.365,86.32,25.34,236.691-.042c11.535,11.117,18.033,23.686,18.033,37,0,45.321-75.344,82.061-168.286,82.061C54.812,119.016,25.23,114.764-.046,107.365Z" transform="translate(-3899.725 2628.425)" fill="url(#linear-gradient)"/>
    </g>
    <circle id="Elipse_4953" data-name="Elipse 4953" cx="4" cy="4" r="4" transform="translate(-5076 2625)" fill="#648ee2"/>
    <circle id="Elipse_4954" data-name="Elipse 4954" cx="4" cy="4" r="4" transform="translate(-4942 2586)" fill="#648ee2"/>
    <circle id="Elipse_4958" data-name="Elipse 4958" cx="4" cy="4" r="4" transform="translate(-4852 2750)" fill="#cd7c6c"/>
    <circle id="Elipse_4961" data-name="Elipse 4961" cx="4" cy="4" r="4" transform="translate(-5071 2710)" fill="#cd7c6c"/>
    <circle id="Elipse_4959" data-name="Elipse 4959" cx="4" cy="4" r="4" transform="translate(-5446.5 2750)" fill="#c9c9c9"/>
    <circle id="Elipse_4960" data-name="Elipse 4960" cx="4" cy="4" r="4" transform="translate(-5258.929 2710.124)" fill="#c9c9c9"/>
    <path id="Trazado_213639" data-name="Trazado 213639" d="M-5072,2408l39.469-39.469h95.314" transform="translate(0 221)" fill="none" stroke="#648ee2" stroke-width="2"/>
    <g id="Grupo_153481" data-name="Grupo 153481" transform="translate(-5345 2586)">
      <circle id="Elipse_4955" data-name="Elipse 4955" cx="4" cy="4" r="4" transform="translate(134 39)" fill="#ffe297"/>
      <circle id="Elipse_4956" data-name="Elipse 4956" cx="4" cy="4" r="4" fill="#ffe297"/>
      <path id="Trazado_213640" data-name="Trazado 213640" d="M-4937.217,2408l-39.469-39.469H-5072" transform="translate(5075.217 -2365)" fill="none" stroke="#ffe297" stroke-width="2"/>
    </g>
    <rect id="Rectángulo_43200" data-name="Rectángulo 43200" width="65" height="23" transform="translate(-4878 2629)" fill="#e8e8e8"/>
    <rect id="Rectángulo_43202" data-name="Rectángulo 43202" width="65" height="23" transform="translate(-5479 2629)" fill="#e8e8e8"/>
    <rect id="Rectángulo_43201" data-name="Rectángulo 43201" width="65" height="23" transform="translate(-4878 2811)" fill="#e8e8e8"/>
    <rect id="Rectángulo_43203" data-name="Rectángulo 43203" width="65" height="23" transform="translate(-5477 2811)" fill="#e8e8e8"/>
    <path id="Trazado_213642" data-name="Trazado 213642" d="M-4848,2562l-39.876-39.876h-180.05" transform="translate(0 192)" fill="none" stroke="#cd7c6c" stroke-width="2"/>
    <path id="Trazado_213643" data-name="Trazado 213643" d="M-5067.927,2562l39.876-39.876h147.695" transform="translate(-374.573 192)" fill="none" stroke="#c9c9c9" stroke-width="2"/>
    <g id="Grupo_153482" data-name="Grupo 153482" transform="translate(-4776.382 2833.374)">
      <g id="Grupo_80140" data-name="Grupo 80140" transform="translate(0)">
        <path id="Trazado_190753" data-name="Trazado 190753" d="M255.543,617.852a2.14,2.14,0,1,0,2.14-2.14,2.139,2.139,0,0,0-2.14,2.14" transform="translate(-224.591 -593.783)" fill="#afafaf"/>
        <path id="Trazado_190754" data-name="Trazado 190754" d="M275.279,617.852a2.14,2.14,0,1,0,2.14-2.14,2.139,2.139,0,0,0-2.14,2.14" transform="translate(-255.584 -593.783)" fill="#afafaf"/>
        <path id="Trazado_190755" data-name="Trazado 190755" d="M293.144,617.852a2.14,2.14,0,1,0,2.14-2.14,2.139,2.139,0,0,0-2.14,2.14" transform="translate(-283.639 -593.783)" fill="#afafaf"/>
        <path id="Trazado_190756" data-name="Trazado 190756" d="M309.808,617.852a2.14,2.14,0,1,0,2.14-2.14,2.139,2.139,0,0,0-2.14,2.14" transform="translate(-309.808 -593.783)" fill="#afafaf"/>
        <path id="Trazado_190757" data-name="Trazado 190757" d="M309.808,598.629a2.14,2.14,0,1,0,2.14-2.14,2.139,2.139,0,0,0-2.14,2.14" transform="translate(-309.808 -585.524)" fill="#afafaf"/>
        <path id="Trazado_190758" data-name="Trazado 190758" d="M255.543,598.629a2.14,2.14,0,1,0,2.14-2.14,2.139,2.139,0,0,0-2.14,2.14" transform="translate(-224.591 -585.524)" fill="#afafaf"/>
        <path id="Trazado_190759" data-name="Trazado 190759" d="M255.543,579.406a2.14,2.14,0,1,0,2.14-2.14,2.139,2.139,0,0,0-2.14,2.14" transform="translate(-224.591 -577.266)" fill="#afafaf"/>
        <path id="Trazado_190760" data-name="Trazado 190760" d="M275.279,598.629a2.14,2.14,0,1,0,2.14-2.14,2.139,2.139,0,0,0-2.14,2.14" transform="translate(-255.584 -585.524)" fill="#afafaf"/>
        <path id="Trazado_190761" data-name="Trazado 190761" d="M275.279,579.406a2.14,2.14,0,1,0,2.14-2.14,2.139,2.139,0,0,0-2.14,2.14" transform="translate(-255.584 -577.266)" fill="#afafaf"/>
        <path id="Trazado_190762" data-name="Trazado 190762" d="M293.144,598.629a2.14,2.14,0,1,0,2.14-2.14,2.139,2.139,0,0,0-2.14,2.14" transform="translate(-283.639 -585.524)" fill="#afafaf"/>
        <path id="Trazado_190763" data-name="Trazado 190763" d="M293.144,579.406a2.14,2.14,0,1,0,2.14-2.14,2.139,2.139,0,0,0-2.14,2.14" transform="translate(-283.639 -577.266)" fill="#afafaf"/>
      </g>
    </g>
    <g id="Grupo_153483" data-name="Grupo 153483" transform="translate(-5510.384 2574.583) rotate(180)">
      <g id="Grupo_80140-2" data-name="Grupo 80140" transform="translate(0)">
        <path id="Trazado_190753-2" data-name="Trazado 190753" d="M255.543,617.852a2.14,2.14,0,1,0,2.14-2.14,2.139,2.139,0,0,0-2.14,2.14" transform="translate(-224.591 -593.783)" fill="#fecd4d"/>
        <path id="Trazado_190754-2" data-name="Trazado 190754" d="M275.279,617.852a2.14,2.14,0,1,0,2.14-2.14,2.139,2.139,0,0,0-2.14,2.14" transform="translate(-255.584 -593.783)" fill="#fecd4d"/>
        <path id="Trazado_190755-2" data-name="Trazado 190755" d="M293.144,617.852a2.14,2.14,0,1,0,2.14-2.14,2.139,2.139,0,0,0-2.14,2.14" transform="translate(-283.639 -593.783)" fill="#fecd4d"/>
        <path id="Trazado_190756-2" data-name="Trazado 190756" d="M309.808,617.852a2.14,2.14,0,1,0,2.14-2.14,2.139,2.139,0,0,0-2.14,2.14" transform="translate(-309.808 -593.783)" fill="#fecd4d"/>
        <path id="Trazado_190757-2" data-name="Trazado 190757" d="M309.808,598.629a2.14,2.14,0,1,0,2.14-2.14,2.139,2.139,0,0,0-2.14,2.14" transform="translate(-309.808 -585.524)" fill="#fecd4d"/>
        <path id="Trazado_190758-2" data-name="Trazado 190758" d="M255.543,598.629a2.14,2.14,0,1,0,2.14-2.14,2.139,2.139,0,0,0-2.14,2.14" transform="translate(-224.591 -585.524)" fill="#fecd4d"/>
        <path id="Trazado_190759-2" data-name="Trazado 190759" d="M255.543,579.406a2.14,2.14,0,1,0,2.14-2.14,2.139,2.139,0,0,0-2.14,2.14" transform="translate(-224.591 -577.266)" fill="#fecd4d"/>
        <path id="Trazado_190760-2" data-name="Trazado 190760" d="M275.279,598.629a2.14,2.14,0,1,0,2.14-2.14,2.139,2.139,0,0,0-2.14,2.14" transform="translate(-255.584 -585.524)" fill="#fecd4d"/>
        <path id="Trazado_190761-2" data-name="Trazado 190761" d="M275.279,579.406a2.14,2.14,0,1,0,2.14-2.14,2.139,2.139,0,0,0-2.14,2.14" transform="translate(-255.584 -577.266)" fill="#fecd4d"/>
        <path id="Trazado_190762-2" data-name="Trazado 190762" d="M293.144,598.629a2.14,2.14,0,1,0,2.14-2.14,2.139,2.139,0,0,0-2.14,2.14" transform="translate(-283.639 -585.524)" fill="#fecd4d"/>
        <path id="Trazado_190763-2" data-name="Trazado 190763" d="M293.144,579.406a2.14,2.14,0,1,0,2.14-2.14,2.139,2.139,0,0,0-2.14,2.14" transform="translate(-283.639 -577.266)" fill="#fecd4d"/>
      </g>
    </g>
    <g id="Grupo_154176" data-name="Grupo 154176" transform="translate(-5514.229 2582.646)">
      <path id="Trazado_215789" data-name="Trazado 215789" d="M596.894.1l-4.141,1.554V2.969l2.914-1.07v9.633h1.454V.1Z" fill="#12263f"/>
      <path id="Trazado_215790" data-name="Trazado 215790" d="M605.879.1l-4.141,1.554V2.969l2.914-1.07v9.633h1.454V.1Z" fill="#12263f"/>
      <g id="Grupo_154177" data-name="Grupo 154177">
        <g id="Grupo_154176-2" data-name="Grupo 154176" clip-path="url(#clip-path)">
          <path id="Trazado_215791" data-name="Trazado 215791" d="M610.441,10.773a.9.9,0,0,1,.223-.625.847.847,0,0,1,.668-.25.873.873,0,0,1,.676.25.89.89,0,0,1,.23.625.841.841,0,0,1-.23.6.892.892,0,0,1-.676.242.864.864,0,0,1-.668-.242.853.853,0,0,1-.223-.6m.008-6.9a.9.9,0,0,1,.223-.625A.847.847,0,0,1,611.34,3a.871.871,0,0,1,.675.25.886.886,0,0,1,.231.625.841.841,0,0,1-.231.6.89.89,0,0,1-.675.242.864.864,0,0,1-.668-.242.856.856,0,0,1-.223-.6" fill="#12263f"/>
          <path id="Trazado_215792" data-name="Trazado 215792" d="M616.316,5.141H617.4a2.386,2.386,0,0,0,1.609-.539,1.8,1.8,0,0,0,.586-1.414,1.764,1.764,0,0,0-1.992-2,2.074,2.074,0,0,0-1.5.535,1.873,1.873,0,0,0-.559,1.418H614.1a2.9,2.9,0,0,1,.988-2.246A3.6,3.6,0,0,1,617.6,0a3.564,3.564,0,0,1,2.524.852,3.075,3.075,0,0,1,.914,2.367,2.5,2.5,0,0,1-.481,1.438A2.913,2.913,0,0,1,619.254,5.7a2.8,2.8,0,0,1,1.449.984,2.736,2.736,0,0,1,.511,1.68,3.1,3.1,0,0,1-1,2.429,3.745,3.745,0,0,1-2.6.9,3.845,3.845,0,0,1-2.606-.867,2.877,2.877,0,0,1-1-2.289h1.454a1.858,1.858,0,0,0,.586,1.437,2.229,2.229,0,0,0,1.57.539,2.184,2.184,0,0,0,1.6-.547,2.1,2.1,0,0,0,.555-1.57,1.912,1.912,0,0,0-.609-1.523,2.647,2.647,0,0,0-1.758-.547h-1.086Z" fill="#12263f"/>
          <path id="Trazado_215793" data-name="Trazado 215793" d="M630.332,6.68a6.612,6.612,0,0,1-.867,3.773,3.6,3.6,0,0,1-5.406.027,6.267,6.267,0,0,1-.906-3.6V4.945a6.461,6.461,0,0,1,.867-3.726,3.668,3.668,0,0,1,5.422-.043,6.233,6.233,0,0,1,.89,3.629ZM628.887,4.7a5.293,5.293,0,0,0-.516-2.676,1.774,1.774,0,0,0-1.632-.84,1.754,1.754,0,0,0-1.618.836,5.187,5.187,0,0,0-.523,2.571V6.906a5.389,5.389,0,0,0,.535,2.723,1.772,1.772,0,0,0,1.621.879,1.75,1.75,0,0,0,1.59-.828,5.185,5.185,0,0,0,.543-2.61Z" fill="#12263f"/>
          <path id="Trazado_215794" data-name="Trazado 215794" d="M641.511,11.532a3.052,3.052,0,0,1-.2-.891,3.223,3.223,0,0,1-2.406,1.047,2.987,2.987,0,0,1-2.051-.707,2.29,2.29,0,0,1-.8-1.793,2.391,2.391,0,0,1,1-2.051,4.734,4.734,0,0,1,2.825-.73h1.406V5.743a1.627,1.627,0,0,0-.453-1.208,1.822,1.822,0,0,0-1.336-.449,2.1,2.1,0,0,0-1.3.391,1.15,1.15,0,0,0-.523.945h-1.454a1.99,1.99,0,0,1,.45-1.222,3.06,3.06,0,0,1,1.218-.934,4.088,4.088,0,0,1,1.692-.344,3.338,3.338,0,0,1,2.289.731,2.631,2.631,0,0,1,.859,2.011V9.555a4.756,4.756,0,0,0,.3,1.852v.125Zm-2.4-1.1a2.534,2.534,0,0,0,1.289-.352,2.13,2.13,0,0,0,.883-.914V7.43h-1.133q-2.655,0-2.656,1.555a1.315,1.315,0,0,0,.453,1.062,1.742,1.742,0,0,0,1.164.383" fill="#12263f"/>
          <path id="Trazado_215795" data-name="Trazado 215795" d="M646.356,3.078l.038.937A3.126,3.126,0,0,1,648.9,2.922a2.418,2.418,0,0,1,2.414,1.359,3.194,3.194,0,0,1,1.1-.984,3.245,3.245,0,0,1,1.6-.375q2.784,0,2.828,2.945v5.664h-1.445V5.953a1.944,1.944,0,0,0-.413-1.355,1.822,1.822,0,0,0-1.392-.45,1.92,1.92,0,0,0-1.336.481,1.956,1.956,0,0,0-.617,1.293v5.609h-1.453V5.992a1.612,1.612,0,0,0-1.8-1.844,1.934,1.934,0,0,0-1.945,1.211v6.172h-1.444V3.078Z" fill="#12263f"/>
          <path id="Trazado_215796" data-name="Trazado 215796" d="M659.051,10.773a.9.9,0,0,1,.223-.625.847.847,0,0,1,.668-.25.871.871,0,0,1,.675.25.886.886,0,0,1,.231.625.841.841,0,0,1-.231.6.89.89,0,0,1-.675.242.8.8,0,0,1-.891-.844" fill="#12263f"/>
          <path id="Trazado_215797" data-name="Trazado 215797" d="M672.41,11.532a3.054,3.054,0,0,1-.2-.891,3.223,3.223,0,0,1-2.406,1.047,2.987,2.987,0,0,1-2.051-.707,2.29,2.29,0,0,1-.8-1.793,2.391,2.391,0,0,1,1-2.051,4.734,4.734,0,0,1,2.825-.73h1.406V5.743a1.627,1.627,0,0,0-.453-1.208,1.822,1.822,0,0,0-1.336-.449,2.1,2.1,0,0,0-1.3.391,1.15,1.15,0,0,0-.523.945h-1.454a1.99,1.99,0,0,1,.45-1.222,3.06,3.06,0,0,1,1.218-.934,4.088,4.088,0,0,1,1.692-.344,3.338,3.338,0,0,1,2.289.731,2.631,2.631,0,0,1,.859,2.011V9.555a4.756,4.756,0,0,0,.3,1.852v.125Zm-2.4-1.1a2.534,2.534,0,0,0,1.289-.352,2.131,2.131,0,0,0,.883-.914V7.43h-1.133q-2.655,0-2.656,1.555a1.315,1.315,0,0,0,.453,1.062,1.742,1.742,0,0,0,1.164.383" fill="#12263f"/>
          <path id="Trazado_215798" data-name="Trazado 215798" d="M684.457,11.531H683V1.9l-2.914,1.07V1.656L684.23.1h.227Z" fill="#12263f"/>
          <path id="Trazado_215799" data-name="Trazado 215799" d="M696.144,11.531h-7.453V10.492l3.937-4.375A9.338,9.338,0,0,0,693.835,4.5a2.687,2.687,0,0,0,.332-1.286,2.035,2.035,0,0,0-.539-1.46,1.884,1.884,0,0,0-1.437-.571,2.229,2.229,0,0,0-1.676.614,2.343,2.343,0,0,0-.6,1.707h-1.445a3.356,3.356,0,0,1,1.012-2.54A3.755,3.755,0,0,1,692.191,0,3.6,3.6,0,0,1,694.7.832a2.839,2.839,0,0,1,.922,2.215q0,1.68-2.141,4l-3.047,3.3h5.711Z" fill="#12263f"/>
          <path id="Trazado_215800" data-name="Trazado 215800" d="M697.777,10.773a.9.9,0,0,1,.223-.625.847.847,0,0,1,.668-.25.873.873,0,0,1,.676.25.89.89,0,0,1,.23.625.841.841,0,0,1-.23.6.892.892,0,0,1-.676.242.864.864,0,0,1-.668-.242.853.853,0,0,1-.223-.6m.008-6.9a.9.9,0,0,1,.223-.625.847.847,0,0,1,.668-.25.871.871,0,0,1,.675.25.886.886,0,0,1,.231.625.841.841,0,0,1-.231.6.89.89,0,0,1-.675.242.864.864,0,0,1-.668-.242.856.856,0,0,1-.223-.6" fill="#12263f"/>
          <path id="Trazado_215801" data-name="Trazado 215801" d="M703.652,5.141h1.086a2.386,2.386,0,0,0,1.609-.539,1.8,1.8,0,0,0,.586-1.414,1.764,1.764,0,0,0-1.992-2,2.074,2.074,0,0,0-1.5.535,1.873,1.873,0,0,0-.559,1.418h-1.445a2.9,2.9,0,0,1,.988-2.246A3.6,3.6,0,0,1,704.941,0a3.564,3.564,0,0,1,2.524.852,3.075,3.075,0,0,1,.914,2.367,2.5,2.5,0,0,1-.481,1.438A2.913,2.913,0,0,1,706.59,5.7a2.8,2.8,0,0,1,1.449.984,2.736,2.736,0,0,1,.511,1.68,3.1,3.1,0,0,1-1,2.429,3.745,3.745,0,0,1-2.6.9,3.845,3.845,0,0,1-2.606-.867,2.877,2.877,0,0,1-1-2.289h1.454a1.857,1.857,0,0,0,.586,1.437,2.229,2.229,0,0,0,1.57.539,2.184,2.184,0,0,0,1.6-.547,2.1,2.1,0,0,0,.555-1.57,1.912,1.912,0,0,0-.609-1.523,2.647,2.647,0,0,0-1.758-.547h-1.086Z" fill="#12263f"/>
          <path id="Trazado_215802" data-name="Trazado 215802" d="M717.668,6.68a6.611,6.611,0,0,1-.867,3.773,3.6,3.6,0,0,1-5.406.027,6.267,6.267,0,0,1-.906-3.6V4.945a6.461,6.461,0,0,1,.867-3.726,3.668,3.668,0,0,1,5.422-.043,6.233,6.233,0,0,1,.89,3.629ZM716.223,4.7a5.293,5.293,0,0,0-.516-2.676,1.774,1.774,0,0,0-1.632-.84,1.754,1.754,0,0,0-1.618.836,5.187,5.187,0,0,0-.523,2.571V6.906a5.389,5.389,0,0,0,.535,2.723,1.772,1.772,0,0,0,1.621.879,1.75,1.75,0,0,0,1.59-.828,5.185,5.185,0,0,0,.543-2.61Z" fill="#12263f"/>
          <path id="Trazado_215803" data-name="Trazado 215803" d="M730.769,7.4a5.058,5.058,0,0,1-.883,3.109,2.827,2.827,0,0,1-2.39,1.18,3.1,3.1,0,0,1-2.422-.976v4.07h-1.445V3.078h1.32l.07.937a2.979,2.979,0,0,1,2.453-1.093,2.882,2.882,0,0,1,2.411,1.148,5.125,5.125,0,0,1,.886,3.195Zm-1.445-.164a3.738,3.738,0,0,0-.609-2.258,1.965,1.965,0,0,0-1.672-.828,2.125,2.125,0,0,0-1.969,1.164V9.351a2.129,2.129,0,0,0,1.984,1.156,1.953,1.953,0,0,0,1.653-.824,4.077,4.077,0,0,0,.613-2.449" fill="#12263f"/>
          <path id="Trazado_215804" data-name="Trazado 215804" d="M733.965,3.078l.039.937a3.122,3.122,0,0,1,2.508-1.093,2.417,2.417,0,0,1,2.414,1.359,3.2,3.2,0,0,1,1.1-.984,3.24,3.24,0,0,1,1.6-.375q2.783,0,2.828,2.945v5.664H743V5.953A1.939,1.939,0,0,0,742.59,4.6a1.821,1.821,0,0,0-1.391-.45,1.916,1.916,0,0,0-1.336.481,1.952,1.952,0,0,0-.617,1.293v5.609h-1.453V5.992a1.613,1.613,0,0,0-1.805-1.844,1.934,1.934,0,0,0-1.945,1.211v6.172H732.6V3.078Z" fill="#12263f"/>
          <path id="Trazado_215805" data-name="Trazado 215805" d="M746.66,10.773a.9.9,0,0,1,.223-.625.847.847,0,0,1,.668-.25.871.871,0,0,1,.675.25.886.886,0,0,1,.231.625.841.841,0,0,1-.231.6.89.89,0,0,1-.675.242.8.8,0,0,1-.891-.844" fill="#12263f"/>
        </g>
      </g>
      <path id="Trazado_215806" data-name="Trazado 215806" d="M601.476,198.531h-1.453V188.9l-2.914,1.07v-1.312l4.14-1.555h.227Z" fill="#12263f"/>
      <g id="Grupo_154179" data-name="Grupo 154179">
        <g id="Grupo_154178" data-name="Grupo 154178" clip-path="url(#clip-path)">
          <path id="Trazado_215807" data-name="Trazado 215807" d="M613.163,198.531H605.71v-1.039l3.937-4.375a9.233,9.233,0,0,0,1.207-1.613,2.687,2.687,0,0,0,.332-1.286,2.035,2.035,0,0,0-.539-1.46,1.884,1.884,0,0,0-1.437-.571,2.229,2.229,0,0,0-1.676.614,2.343,2.343,0,0,0-.6,1.707h-1.445a3.359,3.359,0,0,1,1.012-2.54A3.755,3.755,0,0,1,609.21,187a3.6,3.6,0,0,1,2.508.832,2.836,2.836,0,0,1,.922,2.215q0,1.68-2.141,4l-3.047,3.3h5.711Z" fill="#12263f"/>
          <path id="Trazado_215808" data-name="Trazado 215808" d="M614.8,197.773a.9.9,0,0,1,.223-.625.847.847,0,0,1,.668-.25.873.873,0,0,1,.676.25.885.885,0,0,1,.23.625.836.836,0,0,1-.23.6.892.892,0,0,1-.676.242.864.864,0,0,1-.668-.242.853.853,0,0,1-.223-.6m.008-6.9a.9.9,0,0,1,.223-.625.847.847,0,0,1,.668-.25.871.871,0,0,1,.675.25.882.882,0,0,1,.231.625.836.836,0,0,1-.231.6.89.89,0,0,1-.675.242.8.8,0,0,1-.891-.844" fill="#12263f"/>
          <path id="Trazado_215809" data-name="Trazado 215809" d="M620.671,192.141h1.086a2.386,2.386,0,0,0,1.609-.539,1.8,1.8,0,0,0,.586-1.414,1.764,1.764,0,0,0-1.992-2,2.076,2.076,0,0,0-1.5.535,1.873,1.873,0,0,0-.559,1.418H618.46a2.9,2.9,0,0,1,.988-2.246,3.6,3.6,0,0,1,2.512-.9,3.563,3.563,0,0,1,2.524.852,3.075,3.075,0,0,1,.914,2.367,2.5,2.5,0,0,1-.481,1.438,2.907,2.907,0,0,1-1.308,1.039,2.8,2.8,0,0,1,1.449.984,2.729,2.729,0,0,1,.511,1.68,3.1,3.1,0,0,1-1,2.429,3.742,3.742,0,0,1-2.6.9,3.846,3.846,0,0,1-2.606-.867,2.877,2.877,0,0,1-1-2.289h1.454a1.858,1.858,0,0,0,.586,1.437,2.229,2.229,0,0,0,1.57.539,2.182,2.182,0,0,0,1.6-.547,2.1,2.1,0,0,0,.555-1.57,1.912,1.912,0,0,0-.609-1.523,2.648,2.648,0,0,0-1.758-.547h-1.086Z" fill="#12263f"/>
          <path id="Trazado_215810" data-name="Trazado 215810" d="M634.686,193.68a6.611,6.611,0,0,1-.867,3.773,3.6,3.6,0,0,1-5.406.027,6.275,6.275,0,0,1-.906-3.6v-1.93a6.461,6.461,0,0,1,.867-3.726,3.668,3.668,0,0,1,5.422-.043,6.233,6.233,0,0,1,.89,3.629Zm-1.445-1.977a5.294,5.294,0,0,0-.516-2.676,1.774,1.774,0,0,0-1.632-.84,1.754,1.754,0,0,0-1.618.836,5.187,5.187,0,0,0-.523,2.571v2.312a5.389,5.389,0,0,0,.535,2.723,1.774,1.774,0,0,0,1.621.879,1.749,1.749,0,0,0,1.59-.828,5.185,5.185,0,0,0,.543-2.61Z" fill="#12263f"/>
          <path id="Trazado_215811" data-name="Trazado 215811" d="M647.788,194.4a5.058,5.058,0,0,1-.883,3.109,2.824,2.824,0,0,1-2.39,1.18,3.1,3.1,0,0,1-2.422-.976v4.07h-1.445v-11.7h1.32l.07.937a2.979,2.979,0,0,1,2.453-1.093,2.882,2.882,0,0,1,2.411,1.148,5.119,5.119,0,0,1,.886,3.195Zm-1.445-.164a3.737,3.737,0,0,0-.609-2.258,1.963,1.963,0,0,0-1.672-.828,2.125,2.125,0,0,0-1.969,1.164v4.039a2.129,2.129,0,0,0,1.984,1.156,1.951,1.951,0,0,0,1.653-.824,4.077,4.077,0,0,0,.613-2.449" fill="#12263f"/>
          <path id="Trazado_215812" data-name="Trazado 215812" d="M650.983,190.078l.039.937a3.123,3.123,0,0,1,2.508-1.093,2.417,2.417,0,0,1,2.414,1.359,3.2,3.2,0,0,1,1.1-.984,3.242,3.242,0,0,1,1.6-.375q2.783,0,2.828,2.945v5.664h-1.445v-5.578a1.939,1.939,0,0,0-.414-1.355,1.819,1.819,0,0,0-1.391-.45,1.916,1.916,0,0,0-1.336.481,1.956,1.956,0,0,0-.617,1.293v5.609h-1.453v-5.539a1.613,1.613,0,0,0-1.8-1.844,1.936,1.936,0,0,0-1.945,1.211v6.172h-1.445v-8.453Z" fill="#12263f"/>
          <path id="Trazado_215813" data-name="Trazado 215813" d="M663.679,197.773a.9.9,0,0,1,.223-.625.847.847,0,0,1,.668-.25.871.871,0,0,1,.675.25.882.882,0,0,1,.231.625.836.836,0,0,1-.231.6.89.89,0,0,1-.675.242.8.8,0,0,1-.891-.844" fill="#12263f"/>
          <path id="Trazado_215814" data-name="Trazado 215814" d="M677.038,198.532a3.085,3.085,0,0,1-.2-.891,3.223,3.223,0,0,1-2.406,1.047,2.987,2.987,0,0,1-2.051-.707,2.293,2.293,0,0,1-.8-1.793,2.391,2.391,0,0,1,1-2.051,4.738,4.738,0,0,1,2.825-.73h1.406v-.664a1.627,1.627,0,0,0-.453-1.208,1.822,1.822,0,0,0-1.336-.449,2.106,2.106,0,0,0-1.3.391,1.15,1.15,0,0,0-.523.945h-1.454a2,2,0,0,1,.45-1.222,3.06,3.06,0,0,1,1.218-.934,4.092,4.092,0,0,1,1.692-.344,3.336,3.336,0,0,1,2.289.731,2.628,2.628,0,0,1,.859,2.011v3.891a4.775,4.775,0,0,0,.3,1.852v.125Zm-2.4-1.1a2.534,2.534,0,0,0,1.289-.352,2.125,2.125,0,0,0,.883-.914V194.43h-1.133q-2.655,0-2.656,1.555a1.315,1.315,0,0,0,.453,1.062,1.744,1.744,0,0,0,1.164.383" fill="#12263f"/>
          <path id="Trazado_215815" data-name="Trazado 215815" d="M689.085,198.531h-1.453V188.9l-2.914,1.07v-1.312l4.14-1.555h.227Z" fill="#12263f"/>
          <path id="Trazado_215816" data-name="Trazado 215816" d="M693.421,197.773a.9.9,0,0,1,.223-.625.847.847,0,0,1,.668-.25.873.873,0,0,1,.676.25.885.885,0,0,1,.23.625.836.836,0,0,1-.23.6.892.892,0,0,1-.676.242.864.864,0,0,1-.668-.242.853.853,0,0,1-.223-.6m.008-6.9a.9.9,0,0,1,.223-.625.847.847,0,0,1,.668-.25.871.871,0,0,1,.675.25.882.882,0,0,1,.231.625.836.836,0,0,1-.231.6.89.89,0,0,1-.675.242.8.8,0,0,1-.891-.844" fill="#12263f"/>
          <path id="Trazado_215817" data-name="Trazado 215817" d="M699.3,192.141h1.086a2.386,2.386,0,0,0,1.609-.539,1.8,1.8,0,0,0,.586-1.414,1.764,1.764,0,0,0-1.992-2,2.076,2.076,0,0,0-1.5.535,1.873,1.873,0,0,0-.559,1.418h-1.445a2.9,2.9,0,0,1,.988-2.246,3.6,3.6,0,0,1,2.512-.9,3.563,3.563,0,0,1,2.524.852,3.075,3.075,0,0,1,.914,2.367,2.5,2.5,0,0,1-.481,1.438,2.907,2.907,0,0,1-1.308,1.039,2.8,2.8,0,0,1,1.449.984,2.729,2.729,0,0,1,.511,1.68,3.1,3.1,0,0,1-1,2.429,3.742,3.742,0,0,1-2.6.9,3.846,3.846,0,0,1-2.606-.867,2.877,2.877,0,0,1-1-2.289h1.454a1.858,1.858,0,0,0,.586,1.437,2.229,2.229,0,0,0,1.57.539,2.182,2.182,0,0,0,1.6-.547,2.1,2.1,0,0,0,.555-1.57,1.912,1.912,0,0,0-.609-1.523,2.648,2.648,0,0,0-1.758-.547H699.3Z" fill="#12263f"/>
          <path id="Trazado_215818" data-name="Trazado 215818" d="M713.311,193.68a6.611,6.611,0,0,1-.867,3.773,3.6,3.6,0,0,1-5.406.027,6.275,6.275,0,0,1-.906-3.6v-1.93a6.461,6.461,0,0,1,.867-3.726,3.668,3.668,0,0,1,5.422-.043,6.233,6.233,0,0,1,.89,3.629Zm-1.445-1.977a5.294,5.294,0,0,0-.516-2.676,1.774,1.774,0,0,0-1.632-.84,1.754,1.754,0,0,0-1.618.836,5.187,5.187,0,0,0-.523,2.571v2.312a5.389,5.389,0,0,0,.535,2.723,1.774,1.774,0,0,0,1.621.879,1.749,1.749,0,0,0,1.59-.828,5.185,5.185,0,0,0,.543-2.61Z" fill="#12263f"/>
          <path id="Trazado_215819" data-name="Trazado 215819" d="M726.413,194.4a5.058,5.058,0,0,1-.883,3.109,2.824,2.824,0,0,1-2.39,1.18,3.1,3.1,0,0,1-2.422-.976v4.07h-1.445v-11.7h1.32l.07.937a2.979,2.979,0,0,1,2.453-1.093,2.882,2.882,0,0,1,2.411,1.148,5.119,5.119,0,0,1,.886,3.195Zm-1.445-.164a3.737,3.737,0,0,0-.609-2.258,1.963,1.963,0,0,0-1.672-.828,2.125,2.125,0,0,0-1.969,1.164v4.039a2.129,2.129,0,0,0,1.984,1.156,1.951,1.951,0,0,0,1.653-.824,4.077,4.077,0,0,0,.613-2.449" fill="#12263f"/>
          <path id="Trazado_215820" data-name="Trazado 215820" d="M729.608,190.078l.039.937a3.123,3.123,0,0,1,2.508-1.093,2.417,2.417,0,0,1,2.414,1.359,3.2,3.2,0,0,1,1.1-.984,3.242,3.242,0,0,1,1.6-.375q2.783,0,2.828,2.945v5.664h-1.445v-5.578a1.939,1.939,0,0,0-.414-1.355,1.819,1.819,0,0,0-1.391-.45,1.916,1.916,0,0,0-1.336.481,1.956,1.956,0,0,0-.617,1.293v5.609h-1.453v-5.539a1.613,1.613,0,0,0-1.8-1.844,1.936,1.936,0,0,0-1.945,1.211v6.172h-1.445v-8.453Z" fill="#12263f"/>
          <path id="Trazado_215821" data-name="Trazado 215821" d="M742.3,197.773a.9.9,0,0,1,.223-.625.847.847,0,0,1,.668-.25.871.871,0,0,1,.675.25.882.882,0,0,1,.231.625.836.836,0,0,1-.231.6.89.89,0,0,1-.675.242.8.8,0,0,1-.891-.844" fill="#12263f"/>
        </g>
      </g>
      <path id="Trazado_215822" data-name="Trazado 215822" d="M6.969,198.531H5.516V188.9L2.6,189.968v-1.312l4.14-1.555h.227Z" fill="#12263f"/>
      <g id="Grupo_154181" data-name="Grupo 154181">
        <g id="Grupo_154180" data-name="Grupo 154180" clip-path="url(#clip-path)">
          <path id="Trazado_215823" data-name="Trazado 215823" d="M11.3,197.773a.9.9,0,0,1,.223-.625.847.847,0,0,1,.668-.25.877.877,0,0,1,.677.25.894.894,0,0,1,.229.625.844.844,0,0,1-.229.6.9.9,0,0,1-.677.242.864.864,0,0,1-.668-.242.853.853,0,0,1-.223-.6m.009-6.9a.9.9,0,0,1,.222-.625A.847.847,0,0,1,12.2,190a.871.871,0,0,1,.675.25.886.886,0,0,1,.231.625.841.841,0,0,1-.231.6.89.89,0,0,1-.675.242.864.864,0,0,1-.668-.242.855.855,0,0,1-.222-.6" fill="#12263f"/>
          <path id="Trazado_215824" data-name="Trazado 215824" d="M17.18,192.141h1.086a2.386,2.386,0,0,0,1.609-.539,1.8,1.8,0,0,0,.586-1.414,1.764,1.764,0,0,0-1.992-2,2.074,2.074,0,0,0-1.5.535,1.873,1.873,0,0,0-.559,1.418H14.969a2.9,2.9,0,0,1,.988-2.246,3.6,3.6,0,0,1,2.512-.9,3.563,3.563,0,0,1,2.524.852,3.075,3.075,0,0,1,.914,2.367,2.5,2.5,0,0,1-.481,1.438,2.912,2.912,0,0,1-1.308,1.039,2.8,2.8,0,0,1,1.449.984,2.736,2.736,0,0,1,.511,1.68,3.1,3.1,0,0,1-1,2.429,3.745,3.745,0,0,1-2.6.9,3.845,3.845,0,0,1-2.606-.867,2.877,2.877,0,0,1-1-2.289h1.454a1.858,1.858,0,0,0,.586,1.437,2.229,2.229,0,0,0,1.57.539,2.184,2.184,0,0,0,1.6-.547,2.1,2.1,0,0,0,.555-1.57,1.912,1.912,0,0,0-.609-1.523,2.648,2.648,0,0,0-1.758-.547H17.18Z" fill="#12263f"/>
          <path id="Trazado_215825" data-name="Trazado 215825" d="M31.195,193.68a6.612,6.612,0,0,1-.867,3.773,3.083,3.083,0,0,1-2.711,1.234,3.1,3.1,0,0,1-2.695-1.207,6.267,6.267,0,0,1-.906-3.6v-1.93a6.461,6.461,0,0,1,.867-3.726A3.106,3.106,0,0,1,27.6,187a3.134,3.134,0,0,1,2.7,1.176,6.233,6.233,0,0,1,.89,3.629ZM29.75,191.7a5.294,5.294,0,0,0-.516-2.676,1.774,1.774,0,0,0-1.632-.84,1.753,1.753,0,0,0-1.618.836,5.187,5.187,0,0,0-.523,2.571v2.312A5.389,5.389,0,0,0,26,196.629a1.772,1.772,0,0,0,1.621.879,1.75,1.75,0,0,0,1.59-.828,5.184,5.184,0,0,0,.543-2.61Z" fill="#12263f"/>
          <path id="Trazado_215826" data-name="Trazado 215826" d="M44.3,194.4a5.057,5.057,0,0,1-.883,3.109,2.827,2.827,0,0,1-2.39,1.18,3.1,3.1,0,0,1-2.422-.976v4.07H37.157v-11.7h1.32l.07.937A2.979,2.979,0,0,1,41,189.922a2.882,2.882,0,0,1,2.411,1.148,5.125,5.125,0,0,1,.886,3.195Zm-1.445-.164a3.737,3.737,0,0,0-.609-2.258,1.965,1.965,0,0,0-1.672-.828,2.125,2.125,0,0,0-1.969,1.164v4.039a2.129,2.129,0,0,0,1.984,1.156,1.953,1.953,0,0,0,1.653-.824,4.077,4.077,0,0,0,.613-2.449" fill="#12263f"/>
          <path id="Trazado_215827" data-name="Trazado 215827" d="M47.492,190.078l.039.937a3.122,3.122,0,0,1,2.508-1.093,2.417,2.417,0,0,1,2.414,1.359,3.2,3.2,0,0,1,1.1-.984,3.24,3.24,0,0,1,1.6-.375q2.782,0,2.828,2.945v5.664H56.531v-5.578a1.939,1.939,0,0,0-.414-1.355,1.821,1.821,0,0,0-1.391-.45,1.916,1.916,0,0,0-1.336.481,1.952,1.952,0,0,0-.617,1.293v5.609H51.32v-5.539a1.613,1.613,0,0,0-1.805-1.844,1.934,1.934,0,0,0-1.945,1.211v6.172H46.125v-8.453Z" fill="#12263f"/>
          <path id="Trazado_215828" data-name="Trazado 215828" d="M60.188,197.773a.9.9,0,0,1,.222-.625.847.847,0,0,1,.668-.25.871.871,0,0,1,.675.25.886.886,0,0,1,.231.625.841.841,0,0,1-.231.6.89.89,0,0,1-.675.242.864.864,0,0,1-.668-.242.855.855,0,0,1-.222-.6" fill="#12263f"/>
          <path id="Trazado_215829" data-name="Trazado 215829" d="M73.546,198.532a3.052,3.052,0,0,1-.2-.891,3.223,3.223,0,0,1-2.406,1.047,2.987,2.987,0,0,1-2.051-.707,2.29,2.29,0,0,1-.8-1.793,2.391,2.391,0,0,1,1-2.051,4.734,4.734,0,0,1,2.825-.73H73.32v-.664a1.627,1.627,0,0,0-.453-1.208,1.822,1.822,0,0,0-1.336-.449,2.1,2.1,0,0,0-1.3.391,1.15,1.15,0,0,0-.523.945H68.257a1.99,1.99,0,0,1,.45-1.222,3.059,3.059,0,0,1,1.218-.934,4.088,4.088,0,0,1,1.692-.344,3.338,3.338,0,0,1,2.289.731,2.631,2.631,0,0,1,.859,2.011v3.891a4.756,4.756,0,0,0,.3,1.852v.125Zm-2.4-1.1a2.534,2.534,0,0,0,1.289-.352,2.13,2.13,0,0,0,.883-.914V194.43H72.187q-2.655,0-2.656,1.555a1.315,1.315,0,0,0,.453,1.062,1.742,1.742,0,0,0,1.164.383" fill="#12263f"/>
          <path id="Trazado_215830" data-name="Trazado 215830" d="M88.3,198.531H80.844v-1.039l3.937-4.375a9.338,9.338,0,0,0,1.207-1.613,2.687,2.687,0,0,0,.332-1.286,2.035,2.035,0,0,0-.539-1.46,1.884,1.884,0,0,0-1.437-.571,2.229,2.229,0,0,0-1.676.614,2.343,2.343,0,0,0-.6,1.707H80.625a3.355,3.355,0,0,1,1.012-2.54A3.755,3.755,0,0,1,84.344,187a3.6,3.6,0,0,1,2.508.832,2.839,2.839,0,0,1,.922,2.215q0,1.68-2.141,4l-3.047,3.3H88.3Z" fill="#12263f"/>
          <path id="Trazado_215831" data-name="Trazado 215831" d="M89.929,197.773a.9.9,0,0,1,.223-.625.847.847,0,0,1,.668-.25.874.874,0,0,1,.676.25.89.89,0,0,1,.23.625.841.841,0,0,1-.23.6.892.892,0,0,1-.676.242.864.864,0,0,1-.668-.242.853.853,0,0,1-.223-.6m.009-6.9a.9.9,0,0,1,.222-.625.847.847,0,0,1,.668-.25.871.871,0,0,1,.675.25.886.886,0,0,1,.231.625.841.841,0,0,1-.231.6.89.89,0,0,1-.675.242.864.864,0,0,1-.668-.242.855.855,0,0,1-.222-.6" fill="#12263f"/>
          <path id="Trazado_215832" data-name="Trazado 215832" d="M95.805,192.141h1.086A2.386,2.386,0,0,0,98.5,191.6a1.8,1.8,0,0,0,.586-1.414,1.764,1.764,0,0,0-1.992-2,2.074,2.074,0,0,0-1.5.535,1.873,1.873,0,0,0-.559,1.418H93.594a2.9,2.9,0,0,1,.988-2.246,3.6,3.6,0,0,1,2.512-.9,3.563,3.563,0,0,1,2.524.852,3.075,3.075,0,0,1,.914,2.367,2.5,2.5,0,0,1-.481,1.438,2.912,2.912,0,0,1-1.308,1.039,2.8,2.8,0,0,1,1.449.984,2.736,2.736,0,0,1,.511,1.68,3.1,3.1,0,0,1-1,2.429,3.745,3.745,0,0,1-2.6.9,3.845,3.845,0,0,1-2.606-.867,2.877,2.877,0,0,1-1-2.289h1.454a1.858,1.858,0,0,0,.586,1.437,2.229,2.229,0,0,0,1.57.539,2.184,2.184,0,0,0,1.6-.547,2.1,2.1,0,0,0,.555-1.57,1.912,1.912,0,0,0-.609-1.523,2.648,2.648,0,0,0-1.758-.547H95.805Z" fill="#12263f"/>
          <path id="Trazado_215833" data-name="Trazado 215833" d="M109.82,193.68a6.612,6.612,0,0,1-.867,3.773,3.6,3.6,0,0,1-5.406.027,6.267,6.267,0,0,1-.906-3.6v-1.93a6.461,6.461,0,0,1,.867-3.726,3.668,3.668,0,0,1,5.422-.043,6.233,6.233,0,0,1,.89,3.629Zm-1.445-1.977a5.294,5.294,0,0,0-.516-2.676,1.774,1.774,0,0,0-1.632-.84,1.753,1.753,0,0,0-1.618.836,5.187,5.187,0,0,0-.523,2.571v2.312a5.389,5.389,0,0,0,.535,2.723,1.772,1.772,0,0,0,1.621.879,1.75,1.75,0,0,0,1.59-.828,5.184,5.184,0,0,0,.543-2.61Z" fill="#12263f"/>
          <path id="Trazado_215834" data-name="Trazado 215834" d="M122.922,194.4a5.057,5.057,0,0,1-.883,3.109,2.827,2.827,0,0,1-2.39,1.18,3.1,3.1,0,0,1-2.422-.976v4.07h-1.445v-11.7h1.32l.07.937a2.979,2.979,0,0,1,2.453-1.093,2.882,2.882,0,0,1,2.411,1.148,5.125,5.125,0,0,1,.886,3.195Zm-1.445-.164a3.737,3.737,0,0,0-.609-2.258,1.965,1.965,0,0,0-1.672-.828,2.125,2.125,0,0,0-1.969,1.164v4.039a2.129,2.129,0,0,0,1.984,1.156,1.953,1.953,0,0,0,1.653-.824,4.077,4.077,0,0,0,.613-2.449" fill="#12263f"/>
          <path id="Trazado_215835" data-name="Trazado 215835" d="M126.117,190.078l.039.937a3.122,3.122,0,0,1,2.508-1.093,2.417,2.417,0,0,1,2.414,1.359,3.2,3.2,0,0,1,1.1-.984,3.24,3.24,0,0,1,1.6-.375q2.783,0,2.828,2.945v5.664h-1.445v-5.578a1.939,1.939,0,0,0-.414-1.355,1.821,1.821,0,0,0-1.391-.45,1.916,1.916,0,0,0-1.336.481,1.952,1.952,0,0,0-.617,1.293v5.609h-1.453v-5.539a1.613,1.613,0,0,0-1.805-1.844,1.934,1.934,0,0,0-1.945,1.211v6.172H124.75v-8.453Z" fill="#12263f"/>
          <path id="Trazado_215836" data-name="Trazado 215836" d="M138.813,197.773a.9.9,0,0,1,.222-.625.847.847,0,0,1,.668-.25.871.871,0,0,1,.675.25.886.886,0,0,1,.231.625.841.841,0,0,1-.231.6.89.89,0,0,1-.675.242.864.864,0,0,1-.668-.242.855.855,0,0,1-.222-.6" fill="#12263f"/>
          <path id="Trazado_215837" data-name="Trazado 215837" d="M7.672,11.531H.219V10.492L4.156,6.117A9.338,9.338,0,0,0,5.363,4.5,2.687,2.687,0,0,0,5.7,3.218a2.035,2.035,0,0,0-.539-1.46,1.884,1.884,0,0,0-1.437-.571A2.229,2.229,0,0,0,2.043,1.8a2.343,2.343,0,0,0-.6,1.707H0A3.355,3.355,0,0,1,1.012.968,3.755,3.755,0,0,1,3.719,0,3.6,3.6,0,0,1,6.227.832a2.839,2.839,0,0,1,.922,2.215q0,1.68-2.141,4l-3.047,3.3H7.672Z" fill="#12263f"/>
          <path id="Trazado_215838" data-name="Trazado 215838" d="M9.3,10.773a.9.9,0,0,1,.223-.625.847.847,0,0,1,.668-.25.877.877,0,0,1,.677.25.894.894,0,0,1,.229.625.844.844,0,0,1-.229.6.9.9,0,0,1-.677.242.864.864,0,0,1-.668-.242.853.853,0,0,1-.223-.6m.009-6.9a.9.9,0,0,1,.222-.625A.847.847,0,0,1,10.2,3a.871.871,0,0,1,.675.25.886.886,0,0,1,.231.625.841.841,0,0,1-.231.6.89.89,0,0,1-.675.242.864.864,0,0,1-.668-.242.855.855,0,0,1-.222-.6" fill="#12263f"/>
          <path id="Trazado_215839" data-name="Trazado 215839" d="M15.18,5.141h1.086A2.386,2.386,0,0,0,17.875,4.6a1.8,1.8,0,0,0,.586-1.414,1.764,1.764,0,0,0-1.992-2,2.074,2.074,0,0,0-1.5.535,1.873,1.873,0,0,0-.559,1.418H12.969A2.9,2.9,0,0,1,13.957.895,3.6,3.6,0,0,1,16.469,0a3.563,3.563,0,0,1,2.524.852,3.075,3.075,0,0,1,.914,2.367,2.5,2.5,0,0,1-.481,1.438A2.912,2.912,0,0,1,18.118,5.7a2.8,2.8,0,0,1,1.449.984,2.736,2.736,0,0,1,.511,1.68,3.1,3.1,0,0,1-1,2.429,3.745,3.745,0,0,1-2.6.9,3.845,3.845,0,0,1-2.606-.867,2.877,2.877,0,0,1-1-2.289h1.454a1.858,1.858,0,0,0,.586,1.437,2.229,2.229,0,0,0,1.57.539,2.184,2.184,0,0,0,1.6-.547,2.1,2.1,0,0,0,.555-1.57,1.912,1.912,0,0,0-.609-1.523,2.648,2.648,0,0,0-1.758-.547H15.18Z" fill="#12263f"/>
          <path id="Trazado_215840" data-name="Trazado 215840" d="M29.195,6.68a6.611,6.611,0,0,1-.867,3.773,3.083,3.083,0,0,1-2.711,1.234,3.1,3.1,0,0,1-2.695-1.207,6.267,6.267,0,0,1-.906-3.6V4.945a6.461,6.461,0,0,1,.867-3.726A3.106,3.106,0,0,1,25.6,0a3.134,3.134,0,0,1,2.7,1.176,6.233,6.233,0,0,1,.89,3.629ZM27.75,4.7a5.294,5.294,0,0,0-.516-2.676,1.774,1.774,0,0,0-1.632-.84,1.753,1.753,0,0,0-1.618.836,5.187,5.187,0,0,0-.523,2.571V6.906A5.389,5.389,0,0,0,24,9.629a1.772,1.772,0,0,0,1.621.879,1.75,1.75,0,0,0,1.59-.828,5.184,5.184,0,0,0,.543-2.61Z" fill="#12263f"/>
          <path id="Trazado_215841" data-name="Trazado 215841" d="M42.3,7.4a5.057,5.057,0,0,1-.883,3.109,2.827,2.827,0,0,1-2.39,1.18,3.1,3.1,0,0,1-2.422-.976v4.07H35.157V3.078h1.32l.07.937A2.979,2.979,0,0,1,39,2.922,2.882,2.882,0,0,1,41.411,4.07,5.125,5.125,0,0,1,42.3,7.265Zm-1.445-.164a3.737,3.737,0,0,0-.609-2.258,1.965,1.965,0,0,0-1.672-.828A2.125,2.125,0,0,0,36.6,5.312V9.351a2.129,2.129,0,0,0,1.984,1.156,1.953,1.953,0,0,0,1.653-.824,4.077,4.077,0,0,0,.613-2.449" fill="#12263f"/>
          <path id="Trazado_215842" data-name="Trazado 215842" d="M45.492,3.078l.039.937a3.122,3.122,0,0,1,2.508-1.093,2.417,2.417,0,0,1,2.414,1.359,3.2,3.2,0,0,1,1.1-.984,3.24,3.24,0,0,1,1.6-.375q2.782,0,2.828,2.945v5.664H54.531V5.953A1.939,1.939,0,0,0,54.117,4.6a1.821,1.821,0,0,0-1.391-.45,1.916,1.916,0,0,0-1.336.481,1.952,1.952,0,0,0-.617,1.293v5.609H49.32V5.992a1.613,1.613,0,0,0-1.805-1.844A1.934,1.934,0,0,0,45.57,5.359v6.172H44.125V3.078Z" fill="#12263f"/>
          <path id="Trazado_215843" data-name="Trazado 215843" d="M58.188,10.773a.9.9,0,0,1,.222-.625.847.847,0,0,1,.668-.25.871.871,0,0,1,.675.25.886.886,0,0,1,.231.625.841.841,0,0,1-.231.6.89.89,0,0,1-.675.242.864.864,0,0,1-.668-.242.855.855,0,0,1-.222-.6" fill="#12263f"/>
          <path id="Trazado_215844" data-name="Trazado 215844" d="M71.546,11.532a3.052,3.052,0,0,1-.2-.891,3.223,3.223,0,0,1-2.406,1.047,2.987,2.987,0,0,1-2.051-.707,2.29,2.29,0,0,1-.8-1.793,2.391,2.391,0,0,1,1-2.051,4.734,4.734,0,0,1,2.825-.73H71.32V5.743a1.627,1.627,0,0,0-.453-1.208,1.822,1.822,0,0,0-1.336-.449,2.1,2.1,0,0,0-1.3.391,1.15,1.15,0,0,0-.523.945H66.257a1.99,1.99,0,0,1,.45-1.222,3.06,3.06,0,0,1,1.218-.934,4.088,4.088,0,0,1,1.692-.344,3.338,3.338,0,0,1,2.289.731,2.631,2.631,0,0,1,.859,2.011V9.555a4.756,4.756,0,0,0,.3,1.852v.125Zm-2.4-1.1a2.534,2.534,0,0,0,1.289-.352,2.13,2.13,0,0,0,.883-.914V7.43H70.187q-2.655,0-2.656,1.555a1.315,1.315,0,0,0,.453,1.062,1.742,1.742,0,0,0,1.164.383" fill="#12263f"/>
          <path id="Trazado_215845" data-name="Trazado 215845" d="M84.945,7.711h1.578v1.18H84.945v2.64H83.492V8.891h-5.18V8.039L83.406.156h1.539Zm-4.992,0h3.539V2.133l-.172.312Z" fill="#12263f"/>
          <path id="Trazado_215846" data-name="Trazado 215846" d="M87.929,10.773a.9.9,0,0,1,.223-.625.847.847,0,0,1,.668-.25.873.873,0,0,1,.676.25.89.89,0,0,1,.23.625.841.841,0,0,1-.23.6.892.892,0,0,1-.676.242.864.864,0,0,1-.668-.242.853.853,0,0,1-.223-.6m.009-6.9a.9.9,0,0,1,.222-.625A.847.847,0,0,1,88.828,3a.871.871,0,0,1,.675.25.886.886,0,0,1,.231.625.841.841,0,0,1-.231.6.89.89,0,0,1-.675.242.864.864,0,0,1-.668-.242.855.855,0,0,1-.222-.6" fill="#12263f"/>
          <path id="Trazado_215847" data-name="Trazado 215847" d="M98.836,6.68a6.612,6.612,0,0,1-.867,3.773,3.6,3.6,0,0,1-5.406.027,6.267,6.267,0,0,1-.906-3.6V4.945a6.461,6.461,0,0,1,.867-3.726,3.668,3.668,0,0,1,5.422-.043,6.233,6.233,0,0,1,.89,3.629ZM97.391,4.7a5.294,5.294,0,0,0-.516-2.676,1.774,1.774,0,0,0-1.632-.84,1.753,1.753,0,0,0-1.618.836A5.187,5.187,0,0,0,93.1,4.594V6.906a5.389,5.389,0,0,0,.535,2.723,1.772,1.772,0,0,0,1.621.879,1.75,1.75,0,0,0,1.59-.828,5.184,5.184,0,0,0,.543-2.61Z" fill="#12263f"/>
          <path id="Trazado_215848" data-name="Trazado 215848" d="M107.82,6.68a6.612,6.612,0,0,1-.867,3.773,3.6,3.6,0,0,1-5.406.027,6.267,6.267,0,0,1-.906-3.6V4.945a6.461,6.461,0,0,1,.867-3.726,3.668,3.668,0,0,1,5.422-.043,6.233,6.233,0,0,1,.89,3.629ZM106.375,4.7a5.294,5.294,0,0,0-.516-2.676,1.774,1.774,0,0,0-1.632-.84,1.753,1.753,0,0,0-1.618.836,5.187,5.187,0,0,0-.523,2.571V6.906a5.389,5.389,0,0,0,.535,2.723,1.772,1.772,0,0,0,1.621.879,1.75,1.75,0,0,0,1.59-.828,5.184,5.184,0,0,0,.543-2.61Z" fill="#12263f"/>
          <path id="Trazado_215849" data-name="Trazado 215849" d="M120.922,7.4a5.057,5.057,0,0,1-.883,3.109,2.827,2.827,0,0,1-2.39,1.18,3.1,3.1,0,0,1-2.422-.976v4.07h-1.445V3.078h1.32l.07.937a2.979,2.979,0,0,1,2.453-1.093,2.882,2.882,0,0,1,2.411,1.148,5.125,5.125,0,0,1,.886,3.195Zm-1.445-.164a3.737,3.737,0,0,0-.609-2.258,1.965,1.965,0,0,0-1.672-.828,2.125,2.125,0,0,0-1.969,1.164V9.351a2.129,2.129,0,0,0,1.984,1.156,1.953,1.953,0,0,0,1.653-.824,4.077,4.077,0,0,0,.613-2.449" fill="#12263f"/>
          <path id="Trazado_215850" data-name="Trazado 215850" d="M124.117,3.078l.039.937a3.122,3.122,0,0,1,2.508-1.093,2.417,2.417,0,0,1,2.414,1.359,3.2,3.2,0,0,1,1.1-.984,3.24,3.24,0,0,1,1.6-.375q2.783,0,2.828,2.945v5.664h-1.445V5.953a1.939,1.939,0,0,0-.414-1.355,1.821,1.821,0,0,0-1.391-.45,1.916,1.916,0,0,0-1.336.481,1.952,1.952,0,0,0-.617,1.293v5.609h-1.453V5.992a1.613,1.613,0,0,0-1.805-1.844,1.934,1.934,0,0,0-1.945,1.211v6.172H122.75V3.078Z" fill="#12263f"/>
          <path id="Trazado_215851" data-name="Trazado 215851" d="M136.813,10.773a.9.9,0,0,1,.222-.625.847.847,0,0,1,.668-.25.871.871,0,0,1,.675.25.886.886,0,0,1,.231.625.841.841,0,0,1-.231.6.89.89,0,0,1-.675.242.864.864,0,0,1-.668-.242.855.855,0,0,1-.222-.6" fill="#12263f"/>
          <path id="Trazado_215852" data-name="Trazado 215852" d="M674.633,28.136a2.971,2.971,0,0,1-.466,1.652,3.344,3.344,0,0,1-1.283,1.152,3.721,3.721,0,0,1,1.477,1.234,3.174,3.174,0,0,1,.545,1.851,3.356,3.356,0,0,1-1.161,2.694,5.534,5.534,0,0,1-6.319-.005,3.347,3.347,0,0,1-1.169-2.689,3.191,3.191,0,0,1,.545-1.855,3.646,3.646,0,0,1,1.468-1.23,3.32,3.32,0,0,1-1.28-1.152,3,3,0,0,1-.46-1.652,3.319,3.319,0,0,1,1.089-2.606,5.012,5.012,0,0,1,5.919-.008,3.3,3.3,0,0,1,1.095,2.614m-2.276,5.7a1.84,1.84,0,0,0-.484-1.336,1.934,1.934,0,0,0-2.593,0,2.083,2.083,0,0,0-.008,2.658,1.982,1.982,0,0,0,2.614.018,1.838,1.838,0,0,0,.471-1.336m-.264-5.581a1.76,1.76,0,0,0-.4-1.2,1.609,1.609,0,0,0-2.223-.013,1.746,1.746,0,0,0-.4,1.213,1.833,1.833,0,0,0,.4,1.23,1.383,1.383,0,0,0,1.116.466,1.366,1.366,0,0,0,1.111-.466,1.847,1.847,0,0,0,.392-1.23" fill="#12263f"/>
          <path id="Trazado_215853" data-name="Trazado 215853" d="M72.183,24.6v2.092h-.247a4.312,4.312,0,0,0-2.773.9A3.65,3.65,0,0,0,67.9,30.008a3.457,3.457,0,0,1,2.575-1.037,3.265,3.265,0,0,1,2.655,1.194,4.8,4.8,0,0,1,.984,3.148,4.719,4.719,0,0,1-.541,2.259,3.879,3.879,0,0,1-1.529,1.573,4.442,4.442,0,0,1-2.237.561A4.151,4.151,0,0,1,66.544,36.3,5.459,5.459,0,0,1,65.3,32.548v-.915a8.205,8.205,0,0,1,.786-3.677,5.771,5.771,0,0,1,2.259-2.47,6.63,6.63,0,0,1,3.415-.883ZM69.7,31.018a2.017,2.017,0,0,0-1.116.321,1.909,1.909,0,0,0-.738.847v.77a3.435,3.435,0,0,0,.5,1.989,1.621,1.621,0,0,0,1.407.715,1.6,1.6,0,0,0,1.322-.646,3.022,3.022,0,0,0,0-3.354,1.66,1.66,0,0,0-1.371-.642" fill="#12263f"/>
        </g>
      </g>
      <path id="Trazado_215854" data-name="Trazado 215854" d="M667.3,219.531h-2.54v-9.805l-3.032.937v-2.048l5.3-1.9h.272Z" fill="#12263f"/>
      <g id="Grupo_154183" data-name="Grupo 154183">
        <g id="Grupo_154182" data-name="Grupo 154182" clip-path="url(#clip-path)">
          <path id="Trazado_215855" data-name="Trazado 215855" d="M671.834,213.238l.738-6.5h7.172v2.118h-5.089l-.316,2.751a4.028,4.028,0,0,1,1.925-.483,3.688,3.688,0,0,1,2.865,1.134,4.528,4.528,0,0,1,1.037,3.172,4.657,4.657,0,0,1-.522,2.22,3.7,3.7,0,0,1-1.5,1.52,4.673,4.673,0,0,1-2.3.541,4.965,4.965,0,0,1-2.154-.471,3.8,3.8,0,0,1-1.568-1.322,3.594,3.594,0,0,1-.611-1.943h2.513a1.874,1.874,0,0,0,.559,1.244,1.765,1.765,0,0,0,1.252.444,1.559,1.559,0,0,0,1.327-.62,2.863,2.863,0,0,0,.466-1.753,2.376,2.376,0,0,0-.536-1.67,1.967,1.967,0,0,0-1.521-.58,2.2,2.2,0,0,0-1.467.474l-.247.229Z" fill="#12263f"/>
        </g>
      </g>
      <path id="Trazado_215856" data-name="Trazado 215856" d="M68.3,219.531h-2.54v-9.805l-3.032.937v-2.048l5.3-1.9H68.3Z" fill="#12263f"/>
      <path id="Trazado_215857" data-name="Trazado 215857" d="M78.626,219.531h-2.54v-9.805l-3.032.937v-2.048l5.3-1.9h.272Z" fill="#12263f"/>
      <g id="Grupo_154185" data-name="Grupo 154185">
        <g id="Grupo_154184" data-name="Grupo 154184" clip-path="url(#clip-path)">
          <path id="Trazado_215858" data-name="Trazado 215858" d="M663.255,63.531h-8.771v-1.74l4.14-4.412a10.2,10.2,0,0,0,1.261-1.626,2.62,2.62,0,0,0,.409-1.319,1.956,1.956,0,0,0-.432-1.341,1.557,1.557,0,0,0-1.23-.487,1.676,1.676,0,0,0-1.357.593,2.348,2.348,0,0,0-.5,1.561H654.23a4.193,4.193,0,0,1,.557-2.136,3.94,3.94,0,0,1,1.577-1.517,4.816,4.816,0,0,1,2.313-.549,4.537,4.537,0,0,1,3.071.95,3.355,3.355,0,0,1,1.1,2.68,4.3,4.3,0,0,1-.492,1.934,10.747,10.747,0,0,1-1.688,2.294l-2.91,3.067h5.5Z" fill="#12263f"/>
          <path id="Trazado_215859" data-name="Trazado 215859" d="M673.425,58.24a6.478,6.478,0,0,1-1.1,4.06,4.389,4.389,0,0,1-6.416.027,6.293,6.293,0,0,1-1.132-3.955V56.016a6.4,6.4,0,0,1,1.111-4.069,4.4,4.4,0,0,1,6.4-.014,6.276,6.276,0,0,1,1.135,3.951Zm-2.541-2.59a4.685,4.685,0,0,0-.435-2.318,1.47,1.47,0,0,0-1.358-.726,1.445,1.445,0,0,0-1.322.69,4.386,4.386,0,0,0-.453,2.161v3.114a4.924,4.924,0,0,0,.426,2.327,1.453,1.453,0,0,0,1.367.761,1.425,1.425,0,0,0,1.345-.731,4.793,4.793,0,0,0,.43-2.234Z" fill="#12263f"/>
          <path id="Trazado_215860" data-name="Trazado 215860" d="M675.1,53.195a2.534,2.534,0,0,1,.766-1.912,2.779,2.779,0,0,1,2-.733,2.808,2.808,0,0,1,2.021.726,2.572,2.572,0,0,1,.764,1.963v.633a2.5,2.5,0,0,1-.764,1.907,3.159,3.159,0,0,1-4.021,0,2.564,2.564,0,0,1-.77-1.957Zm1.688.688a1.192,1.192,0,0,0,.3.853,1.041,1.041,0,0,0,.795.323,1,1,0,0,0,.782-.327,1.273,1.273,0,0,0,.291-.875V53.2a1.246,1.246,0,0,0-.291-.857,1.126,1.126,0,0,0-1.582-.005,1.269,1.269,0,0,0-.3.9Zm1.6,8.69-1.238-.668,6.248-10,1.24.668Zm2.831-2.179a2.493,2.493,0,0,1,.773-1.911,2.807,2.807,0,0,1,2-.726,2.842,2.842,0,0,1,2.017.716,2.565,2.565,0,0,1,.77,1.973v.633a2.522,2.522,0,0,1-.756,1.9,3.176,3.176,0,0,1-4.043-.005,2.549,2.549,0,0,1-.765-1.934Zm1.687.7a1.184,1.184,0,0,0,.316.831,1.029,1.029,0,0,0,.791.345q1.073,0,1.073-1.194V60.4a1.21,1.21,0,0,0-.3-.854,1.133,1.133,0,0,0-1.582,0,1.248,1.248,0,0,0-.3.88Z" fill="#12263f"/>
        </g>
      </g>
      <path id="Trazado_215861" data-name="Trazado 215861" d="M59.654,63.531h-2.54v-9.8l-3.032.937V52.615l5.3-1.9h.272Z" fill="#12263f"/>
      <g id="Grupo_154187" data-name="Grupo 154187">
        <g id="Grupo_154186" data-name="Grupo 154186" clip-path="url(#clip-path)">
          <path id="Trazado_215862" data-name="Trazado 215862" d="M64.189,57.238l.738-6.5H72.1v2.118H67.01L66.694,55.6a4.028,4.028,0,0,1,1.925-.483,3.688,3.688,0,0,1,2.865,1.134,4.528,4.528,0,0,1,1.037,3.172A4.647,4.647,0,0,1,72,61.646a3.687,3.687,0,0,1-1.5,1.52,4.673,4.673,0,0,1-2.3.541,4.965,4.965,0,0,1-2.154-.471,3.812,3.812,0,0,1-1.569-1.322,3.6,3.6,0,0,1-.61-1.943h2.513a1.877,1.877,0,0,0,.558,1.244,1.769,1.769,0,0,0,1.253.444,1.559,1.559,0,0,0,1.327-.62,2.864,2.864,0,0,0,.466-1.753,2.375,2.375,0,0,0-.536-1.67,1.967,1.967,0,0,0-1.521-.58,2.2,2.2,0,0,0-1.467.474l-.247.229Z" fill="#12263f"/>
          <path id="Trazado_215863" data-name="Trazado 215863" d="M74.1,53.195a2.533,2.533,0,0,1,.765-1.912,2.779,2.779,0,0,1,2-.733,2.808,2.808,0,0,1,2.021.726,2.573,2.573,0,0,1,.765,1.963v.633a2.5,2.5,0,0,1-.765,1.907,3.159,3.159,0,0,1-4.021,0,2.563,2.563,0,0,1-.769-1.957Zm1.688.688a1.192,1.192,0,0,0,.3.853,1.041,1.041,0,0,0,.795.323,1,1,0,0,0,.783-.327,1.273,1.273,0,0,0,.29-.875V53.2a1.246,1.246,0,0,0-.29-.857,1.126,1.126,0,0,0-1.582-.005,1.269,1.269,0,0,0-.3.9Zm1.6,8.69L76.151,61.9l6.249-10,1.239.668Zm2.831-2.179a2.493,2.493,0,0,1,.773-1.911,2.807,2.807,0,0,1,2-.726,2.839,2.839,0,0,1,2.016.716,2.565,2.565,0,0,1,.77,1.973v.633a2.522,2.522,0,0,1-.756,1.9,2.792,2.792,0,0,1-2.013.724,2.821,2.821,0,0,1-2.03-.729,2.549,2.549,0,0,1-.764-1.934Zm1.687.7a1.184,1.184,0,0,0,.316.831,1.029,1.029,0,0,0,.791.345q1.073,0,1.073-1.194V60.4a1.21,1.21,0,0,0-.3-.854,1.133,1.133,0,0,0-1.582,0,1.248,1.248,0,0,0-.3.88Z" fill="#12263f"/>
          <path id="Trazado_215864" data-name="Trazado 215864" d="M657.067,238.008h1.354a1.909,1.909,0,0,0,1.433-.483,1.771,1.771,0,0,0,.465-1.284,1.565,1.565,0,0,0-.461-1.2,1.787,1.787,0,0,0-1.27-.43,1.878,1.878,0,0,0-1.222.4,1.281,1.281,0,0,0-.492,1.042h-2.539a3.122,3.122,0,0,1,.54-1.8,3.61,3.61,0,0,1,1.511-1.243,5.045,5.045,0,0,1,2.14-.448,4.793,4.793,0,0,1,3.182.97,3.32,3.32,0,0,1,1.152,2.677,2.7,2.7,0,0,1-.537,1.617,3.475,3.475,0,0,1-1.406,1.134,3.19,3.19,0,0,1,1.613,1.16,3.152,3.152,0,0,1,.531,1.829,3.369,3.369,0,0,1-1.243,2.733,5,5,0,0,1-3.292,1.028,4.741,4.741,0,0,1-3.133-1.011,3.3,3.3,0,0,1-1.217-2.671h2.539a1.471,1.471,0,0,0,.541,1.177,2.255,2.255,0,0,0,2.751-.022,1.65,1.65,0,0,0,.515-1.27q0-1.916-2.109-1.916h-1.346Z" fill="#12263f"/>
          <path id="Trazado_215865" data-name="Trazado 215865" d="M673.513,234.152l-4.949,11.379h-2.68l4.957-10.749h-6.363v-2.048h9.035Z" fill="#12263f"/>
          <path id="Trazado_215866" data-name="Trazado 215866" d="M675.1,235.2a2.534,2.534,0,0,1,.766-1.912,2.779,2.779,0,0,1,2-.733,2.808,2.808,0,0,1,2.021.726,2.572,2.572,0,0,1,.764,1.963v.633a2.5,2.5,0,0,1-.764,1.907,3.159,3.159,0,0,1-4.021,0,2.564,2.564,0,0,1-.77-1.957Zm1.688.688a1.192,1.192,0,0,0,.3.853,1.041,1.041,0,0,0,.795.323,1,1,0,0,0,.782-.327,1.273,1.273,0,0,0,.291-.875V235.2a1.246,1.246,0,0,0-.291-.857,1.126,1.126,0,0,0-1.582-.005,1.269,1.269,0,0,0-.3.9Zm1.6,8.69-1.238-.668,6.248-10,1.24.668Zm2.831-2.179a2.493,2.493,0,0,1,.773-1.911,2.807,2.807,0,0,1,2-.726,2.842,2.842,0,0,1,2.017.716,2.565,2.565,0,0,1,.77,1.973v.633a2.522,2.522,0,0,1-.756,1.9,3.176,3.176,0,0,1-4.043-.005,2.549,2.549,0,0,1-.765-1.934Zm1.687.7a1.184,1.184,0,0,0,.316.831,1.029,1.029,0,0,0,.791.345q1.073,0,1.073-1.194V242.4a1.21,1.21,0,0,0-.3-.854,1.133,1.133,0,0,0-1.582,0,1.248,1.248,0,0,0-.3.88Z" fill="#12263f"/>
          <path id="Trazado_215867" data-name="Trazado 215867" d="M64.256,245.531H55.485v-1.74l4.139-4.412a10.194,10.194,0,0,0,1.261-1.626,2.62,2.62,0,0,0,.409-1.319,1.956,1.956,0,0,0-.431-1.341,1.557,1.557,0,0,0-1.23-.487,1.678,1.678,0,0,0-1.358.593,2.353,2.353,0,0,0-.5,1.561H55.23a4.193,4.193,0,0,1,.557-2.136,3.943,3.943,0,0,1,1.578-1.517,4.813,4.813,0,0,1,2.312-.549,4.537,4.537,0,0,1,3.071.95,3.355,3.355,0,0,1,1.095,2.68,4.3,4.3,0,0,1-.492,1.934,10.747,10.747,0,0,1-1.688,2.294l-2.909,3.067h5.5Z" fill="#12263f"/>
          <path id="Trazado_215868" data-name="Trazado 215868" d="M74.152,236.136a2.971,2.971,0,0,1-.466,1.652A3.344,3.344,0,0,1,72.4,238.94a3.721,3.721,0,0,1,1.477,1.234,3.174,3.174,0,0,1,.545,1.851,3.355,3.355,0,0,1-1.161,2.694,5.534,5.534,0,0,1-6.319,0,3.347,3.347,0,0,1-1.169-2.689,3.191,3.191,0,0,1,.545-1.855,3.646,3.646,0,0,1,1.468-1.23,3.321,3.321,0,0,1-1.28-1.152,3,3,0,0,1-.46-1.652,3.319,3.319,0,0,1,1.089-2.606,5.012,5.012,0,0,1,5.919-.008,3.3,3.3,0,0,1,1.1,2.614m-2.276,5.7a1.84,1.84,0,0,0-.484-1.336,1.934,1.934,0,0,0-2.593,0,2.083,2.083,0,0,0-.008,2.658,1.982,1.982,0,0,0,2.614.018,1.837,1.837,0,0,0,.471-1.336m-.264-5.581a1.76,1.76,0,0,0-.4-1.2,1.609,1.609,0,0,0-2.223-.013,1.746,1.746,0,0,0-.4,1.213,1.832,1.832,0,0,0,.4,1.23,1.383,1.383,0,0,0,1.116.466,1.366,1.366,0,0,0,1.111-.466,1.846,1.846,0,0,0,.392-1.23" fill="#12263f"/>
          <path id="Trazado_215869" data-name="Trazado 215869" d="M76.1,235.2a2.533,2.533,0,0,1,.765-1.912,2.779,2.779,0,0,1,2-.733,2.808,2.808,0,0,1,2.021.726,2.573,2.573,0,0,1,.765,1.963v.633a2.5,2.5,0,0,1-.765,1.907,3.159,3.159,0,0,1-4.021,0,2.563,2.563,0,0,1-.769-1.957Zm1.688.688a1.192,1.192,0,0,0,.3.853,1.041,1.041,0,0,0,.795.323,1,1,0,0,0,.783-.327,1.273,1.273,0,0,0,.29-.875V235.2a1.246,1.246,0,0,0-.29-.857,1.126,1.126,0,0,0-1.582-.005,1.269,1.269,0,0,0-.3.9Zm1.6,8.69-1.239-.668,6.249-10,1.239.668Zm2.831-2.179a2.493,2.493,0,0,1,.773-1.911,2.807,2.807,0,0,1,2-.726,2.839,2.839,0,0,1,2.016.716,2.565,2.565,0,0,1,.77,1.973v.633a2.522,2.522,0,0,1-.756,1.9,2.792,2.792,0,0,1-2.013.724,2.821,2.821,0,0,1-2.03-.729,2.549,2.549,0,0,1-.764-1.934Zm1.687.7a1.184,1.184,0,0,0,.316.831,1.029,1.029,0,0,0,.791.345q1.073,0,1.073-1.194V242.4a1.21,1.21,0,0,0-.3-.854,1.133,1.133,0,0,0-1.582,0,1.248,1.248,0,0,0-.3.88Z" fill="#12263f"/>
        </g>
      </g>
    </g>
  </g>
</svg>
