<svg xmlns="http://www.w3.org/2000/svg" xmlns:xlink="http://www.w3.org/1999/xlink" width="400" height="362.902" viewBox="0 0 400 362.902">
  <defs>
    <linearGradient id="linear-gradient" x1="0.5" x2="0.5" y2="1" gradientUnits="objectBoundingBox">
      <stop offset="0" stop-color="#f3e6e3"/>
      <stop offset="1" stop-color="#fff"/>
    </linearGradient>
    <clipPath id="clip-path">
      <rect id="Rectángulo_43105" data-name="Rectángulo 43105" width="400" height="338.972" fill="none"/>
    </clipPath>
    <clipPath id="clip-path-2">
      <path id="Trazado_213269" data-name="Trazado 213269" d="M426.412,196.757,246.7,376.471l-8.843,8.843-18.88,18.88-43.781,43.781L40.014,312.795,72.9,279.918l40.247,40.247,38.682,38.682,23.367,23.367,23.367-23.367,142.388-142.4,52.578-52.578Z" transform="translate(-40.014 -163.873)" fill="none"/>
    </clipPath>
    <linearGradient id="linear-gradient-2" x1="0.067" y1="0.848" x2="0.067" y2="0.848" gradientUnits="objectBoundingBox">
      <stop offset="0" stop-color="#ff9f55"/>
      <stop offset="1" stop-color="#ffd255"/>
    </linearGradient>
    <clipPath id="clip-path-3">
      <path id="Trazado_213271" data-name="Trazado 213271" d="M450.332,450.032a12.172,12.172,0,0,0-12.176,12.176V606.735a12.177,12.177,0,0,0,12.176,12.176H562.866L677.539,504.238v-42.03a12.173,12.173,0,0,0-11.579-12.16c-.2-.008-.4-.016-.6-.016Z" transform="translate(-438.156 -450.032)" fill="none"/>
    </clipPath>
    <linearGradient id="linear-gradient-3" x1="-0.336" y1="1.518" x2="-0.335" y2="1.518" xlink:href="#linear-gradient-2"/>
    <clipPath id="clip-path-5">
      <rect id="Rectángulo_43085" data-name="Rectángulo 43085" width="10.229" height="66.886" transform="matrix(0.169, -0.986, 0.986, 0.169, 0, 10.083)" fill="none"/>
    </clipPath>
    <linearGradient id="linear-gradient-4" x1="-3.05" y1="3.527" x2="-3.048" y2="3.527" gradientUnits="objectBoundingBox">
      <stop offset="0" stop-color="#40d5e6"/>
      <stop offset="1" stop-color="#57f"/>
    </linearGradient>
    <clipPath id="clip-path-7">
      <rect id="Rectángulo_43087" data-name="Rectángulo 43087" width="62.014" height="62.014" fill="none"/>
    </clipPath>
    <clipPath id="clip-path-8">
      <rect id="Rectángulo_43088" data-name="Rectángulo 43088" width="52.059" height="45.715" fill="none"/>
    </clipPath>
    <clipPath id="clip-path-9">
      <rect id="Rectángulo_43089" data-name="Rectángulo 43089" width="97.406" height="113.131" fill="none"/>
    </clipPath>
    <clipPath id="clip-path-10">
      <path id="Trazado_213420" data-name="Trazado 213420" d="M1910.3,118.487l.548.548,9.871-9.871,20.8,20.795.548-.548-21.343-21.343Z" transform="translate(-1910.299 -108.067)" fill="none"/>
    </clipPath>
    <linearGradient id="linear-gradient-5" x1="-11.047" y1="14.578" x2="-11.042" y2="14.578" xlink:href="#linear-gradient-2"/>
  </defs>
  <g id="Grupo_153484" data-name="Grupo 153484" transform="translate(-180 -1121)">
    <path id="Trazado_213422" data-name="Trazado 213422" d="M0,0H356.964L400,33.4V312.544H0Z" transform="translate(580 1483.902) rotate(180)" fill="url(#linear-gradient)"/>
    <g id="Grupo_153348" data-name="Grupo 153348" transform="translate(496 626)">
      <g id="Grupo_153347" data-name="Grupo 153347" transform="translate(-316 495)">
        <g id="Grupo_153346" data-name="Grupo 153346" clip-path="url(#clip-path)">
          <g id="Grupo_153326" data-name="Grupo 153326" transform="translate(7.35 30.1)">
            <g id="Grupo_153325" data-name="Grupo 153325" clip-path="url(#clip-path-2)">
              <rect id="Rectángulo_43055" data-name="Rectángulo 43055" width="462.777" height="479.27" transform="translate(-138.358 174.229) rotate(-51.546)" fill="url(#linear-gradient-2)"/>
            </g>
          </g>
          <path id="Trazado_213270" data-name="Trazado 213270" d="M1042.04,1148.6v31.722l-8.843,8.843-18.88,18.879V1148.6Z" transform="translate(-828.006 -937.621)" fill="#e3892b"/>
          <g id="Grupo_153328" data-name="Grupo 153328" transform="translate(80.481 82.663)">
            <g id="Grupo_153327" data-name="Grupo 153327" clip-path="url(#clip-path-3)">
              <rect id="Rectángulo_43056" data-name="Rectángulo 43056" width="239.383" height="168.879" transform="translate(0 0)" fill="url(#linear-gradient-3)"/>
            </g>
          </g>
          <g id="Grupo_153330" data-name="Grupo 153330" transform="translate(0 -0.001)">
            <g id="Grupo_153329" data-name="Grupo 153329" clip-path="url(#clip-path)">
              <path id="Trazado_213272" data-name="Trazado 213272" d="M709.812,352.185v81.548l-78.836,78.836H489.169V352.185Z" transform="translate(-399.317 -287.494)" fill="#fff"/>
              <path id="Trazado_213421" data-name="Trazado 213421" d="M0,0H220.639V19.372H0Z" transform="translate(89.853 64.689)" fill="#9f321d"/>
              <path id="Trazado_213273" data-name="Trazado 213273" d="M568.187,392.3H541.98a2.631,2.631,0,0,1-2.631-2.631v-2.057a2.631,2.631,0,0,1,2.631-2.631h26.207a2.631,2.631,0,0,1,2.631,2.631v2.057a2.631,2.631,0,0,1-2.631,2.631" transform="translate(-440.28 -314.266)" fill="#f5f7ff"/>
              <path id="Trazado_213274" data-name="Trazado 213274" d="M1742.252,1286.719a.018.018,0,0,1,.011,0c-.047.021-.054.023-.011,0" transform="translate(-1422.209 -1050.37)" fill="#323657"/>
              <path id="Trazado_213275" data-name="Trazado 213275" d="M1865.477,956.643l22.026-12.319-7.571-.5Z" transform="translate(-1522.823 -770.461)" fill="#d6d6d6"/>
              <path id="Trazado_213276" data-name="Trazado 213276" d="M1865.477,964.486l6.778-10.9,5.687-.151Z" transform="translate(-1522.823 -778.304)" fill="#e8e8e8"/>
              <path id="Trazado_213277" data-name="Trazado 213277" d="M1882.437,961.966l.441,2.776-17.4,6.71Z" transform="translate(-1522.823 -785.27)" fill="#c2c2c2"/>
              <path id="Trazado_213278" data-name="Trazado 213278" d="M289.991,258.03c-.072-.865-.139-1.739-.2-2.6l.6-.043c.061.857.128,1.728.2,2.591Zm311.854-2.742-.343-.5a25.049,25.049,0,0,0,2.48-2.056l.41.442a25.139,25.139,0,0,1-2.547,2.111m-312.261-3.11c-.061-1.085-.113-2.181-.156-3.256l.6-.024c.043,1.073.1,2.165.156,3.247Zm317.1-1.362-.454-.4a27.928,27.928,0,0,0,1.979-2.543l.5.341a28.573,28.573,0,0,1-2.021,2.6m-317.359-5.153c-.026-1.086-.043-2.183-.051-3.26l.6,0c.008,1.073.025,2.167.051,3.25Zm321.062-.28-.539-.27a19.812,19.812,0,0,0,1.206-2.968l.576.18a20.414,20.414,0,0,1-1.243,3.058m-320.505-6.234-.6-.006c.011-1.087.031-2.184.061-3.26l.6.017c-.03,1.073-.051,2.166-.061,3.249m322.44-.057-.6-.07a16.175,16.175,0,0,0,.108-1.855c0-.443-.019-.891-.056-1.333l.6-.05c.038.459.058.924.058,1.384a16.794,16.794,0,0,1-.112,1.924m-1.122-6.4a18.985,18.985,0,0,0-1.136-2.992l.544-.26a19.629,19.629,0,0,1,1.172,3.087Zm-321.136-.042-.6-.028c.05-1.086.111-2.181.18-3.255l.6.039c-.069,1.07-.13,2.162-.18,3.244m318.413-5.739a28.671,28.671,0,0,0-1.932-2.575l.462-.387a29.267,29.267,0,0,1,1.972,2.63Zm-317.992-.745-.6-.051c.091-1.083.194-2.175.306-3.246l.6.063c-.111,1.066-.214,2.154-.3,3.234m313.873-4.2-.262-.258a23.758,23.758,0,0,0-2.143-1.853l.367-.479a24.386,24.386,0,0,1,2.2,1.9l.266.262Zm-313.2-2.258-.6-.075c.135-1.078.283-2.165.439-3.23l.6.087c-.156,1.061-.3,2.144-.437,3.218m308.129-1.631a29.314,29.314,0,0,0-2.865-1.452l.244-.552a30.011,30.011,0,0,1,2.924,1.482Zm-5.87-2.618c-.974-.331-1.987-.637-3.1-.934l.156-.582c1.122.3,2.147.61,3.133.945Zm-6.246-1.7c-.959-.211-2-.423-3.183-.649l.113-.592c1.188.227,2.235.441,3.2.653Zm-295.07-.48-.595-.1c.181-1.072.376-2.151.578-3.209l.592.114c-.2,1.053-.4,2.128-.576,3.2m288.687-.758-.972-.174q-1.112-.2-2.235-.4l.108-.593q1.121.2,2.233.4l.972.174Zm-6.412-1.183c-1.151-.229-2.2-.45-3.193-.678l.134-.588c.992.226,2.032.447,3.177.674Zm-6.364-1.464c-1.083-.292-2.137-.605-3.134-.928l.186-.573c.987.321,2.031.63,3.1.92Zm-6.212-2.03c-1.029-.4-2.039-.841-3-1.3l.259-.544c.95.451,1.947.883,2.963,1.282Zm-268.475-.942-.589-.127c.229-1.063.473-2.132.724-3.179l.586.141c-.251,1.042-.493,2.107-.721,3.165M555.9,205.037c-.948-.541-1.881-1.124-2.774-1.732l.339-.5c.879.6,1.8,1.173,2.734,1.707Zm-5.4-3.68c-.84-.677-1.668-1.4-2.461-2.151l.414-.438c.782.739,1.6,1.452,2.425,2.119Zm-255.656-.764-.583-.155c.279-1.049.574-2.106.876-3.141l.579.169c-.3,1.03-.595,2.082-.872,3.127m250.909-3.72c-.72-.792-1.43-1.631-2.109-2.494l.474-.373c.671.852,1.371,1.68,2.082,2.462Zm-249.086-2.511-.574-.184c.331-1.034.679-2.075,1.034-3.093l.569.2c-.353,1.014-.7,2.049-1.028,3.079m245.042-2.614c-.6-.878-1.2-1.8-1.768-2.744l.516-.312c.564.933,1.152,1.846,1.749,2.714ZM298.8,188.234l-.564-.213c.384-1.015.786-2.036,1.194-3.035l.558.228c-.407.994-.807,2.01-1.188,3.02m239.527-2.066c-.5-.938-.994-1.919-1.467-2.914l.545-.258c.468.987.957,1.959,1.453,2.889Zm-237.069-3.94-.552-.243c.438-.993.895-1.991,1.358-2.966l.545.258c-.461.97-.915,1.962-1.351,2.951m234.269-1.951c-.414-.979-.821-2-1.211-3.028l.564-.213c.387,1.023.792,2.035,1.2,3.006Zm-231.486-3.911-.537-.274c.492-.966,1-1.936,1.522-2.885l.529.289c-.515.944-1.024,1.91-1.514,2.87m229.174-2.185c-.342-1.006-.678-2.05-1-3.1l.577-.176c.32,1.047.654,2.085.994,3.085ZM307.15,170.669l-.521-.3c.547-.937,1.113-1.876,1.685-2.794l.512.319c-.568.912-1.132,1.847-1.676,2.779m224.158-2.724c-.282-1.026-.56-2.088-.825-3.156l.585-.145c.264,1.063.54,2.12.821,3.141Zm-220.726-2.784-.5-.333c.6-.9,1.219-1.807,1.845-2.691l.492.348c-.622.879-1.239,1.78-1.834,2.676M529.7,161.642c-.286-1.025-.618-2.057-.987-3.067l.566-.207c.374,1.025.711,2.071,1,3.111Zm-215.368-1.778-.482-.362c.651-.866,1.324-1.733,2-2.578l.471.377c-.672.84-1.341,1.7-1.989,2.564m213.16-4.276c-.438-.968-.922-1.941-1.437-2.892l.53-.287c.522.963,1.012,1.95,1.457,2.931ZM318.38,154.8l-.46-.39c.7-.826,1.423-1.652,2.148-2.456l.448.4c-.721.8-1.439,1.622-2.136,2.443m4.343-4.822-.436-.416c.747-.783,1.517-1.565,2.288-2.327l.424.429c-.766.757-1.532,1.536-2.275,2.314m201.691-.066c-.568-.9-1.179-1.8-1.816-2.675l.488-.354c.645.888,1.263,1.8,1.838,2.707Zm-197.075-4.5-.411-.441c.791-.737,1.6-1.474,2.418-2.191l.4.452c-.81.713-1.619,1.446-2.405,2.179m193.28-.74c-.674-.821-1.388-1.643-2.122-2.444l.444-.408c.742.809,1.464,1.639,2.144,2.469Zm-188.409-3.549-.386-.464c.831-.691,1.685-1.381,2.538-2.05l.372.474c-.849.666-1.7,1.353-2.525,2.04M516.246,139.9c-.757-.745-1.553-1.49-2.365-2.215l.4-.449c.819.731,1.621,1.483,2.386,2.235Zm-178.938-2.779-.359-.484c.865-.642,1.753-1.282,2.64-1.9l.346.494c-.882.618-1.766,1.254-2.626,1.893m174.109-1.541c-.825-.673-1.684-1.345-2.555-2l.361-.483c.877.657,1.743,1.334,2.574,2.013Zm-168.8-2.174-.332-.5c.9-.595,1.822-1.187,2.741-1.76l.319.512c-.914.57-1.832,1.159-2.727,1.751m163.616-1.716c-.877-.6-1.786-1.208-2.7-1.793l.324-.508c.924.589,1.84,1.2,2.722,1.805Zm-158.115-1.716-.306-.519c.928-.546,1.88-1.09,2.83-1.617l.292.527c-.946.524-1.893,1.066-2.817,1.609M500.757,128.2c-.918-.542-1.867-1.082-2.822-1.6l.289-.529c.96.526,1.915,1.069,2.839,1.614Zm-146.97-1.372-.279-.534c.957-.5,1.937-1,2.91-1.474l.266.541c-.969.476-1.943.969-2.9,1.467m141.277-1.746c-.951-.483-1.932-.964-2.916-1.428l.258-.545c.99.467,1.976.95,2.932,1.436Zm-135.448-1.116-.253-.547c.98-.452,1.982-.9,2.979-1.332l.24.553c-.992.43-1.99.876-2.966,1.326m129.577-1.658c-.979-.429-1.986-.855-2.992-1.265l.228-.558c1.011.412,2.022.84,3.006,1.271Zm-123.615-.924-.226-.559c1-.406,2.022-.806,3.038-1.191l.214.564c-1.012.383-2.029.782-3.025,1.186m117.6-1.528c-1-.379-2.03-.753-3.053-1.111l.2-.569c1.027.36,2.059.736,3.067,1.116Zm-111.522-.776-.2-.568c1.019-.36,2.059-.715,3.089-1.053l.188.573c-1.026.337-2.061.69-3.076,1.049m105.39-1.374c-1.021-.331-2.065-.656-3.1-.966l.173-.577c1.041.312,2.09.638,3.115.97Zm-99.216-.657-.176-.577c1.034-.315,2.087-.624,3.131-.918l.163.58c-1.04.293-2.089.6-3.119.915m92.99-1.206c-1.036-.285-2.094-.564-3.142-.828l.147-.584c1.053.265,2.114.545,3.155.832Zm-86.734-.557-.151-.584c1.043-.27,2.108-.535,3.166-.786l.139.587c-1.054.25-2.115.513-3.154.783m80.432-1.033c-1.049-.241-2.117-.475-3.175-.7l.123-.59c1.062.221,2.134.456,3.187.7Zm-74.109-.468-.127-.589c1.057-.228,2.131-.449,3.194-.656l.115.592c-1.059.206-2.13.426-3.183.653m67.746-.859c-1.057-.2-2.134-.389-3.2-.568l.1-.595c1.07.179,2.151.371,3.212.57Zm-61.369-.384-.1-.594c1.061-.185,2.143-.363,3.216-.528l.092.6c-1.069.165-2.148.342-3.2.527m54.957-.689c-1.065-.157-2.148-.306-3.22-.443l.076-.6c1.076.137,2.163.287,3.231.444Zm-48.539-.3-.081-.6c1.071-.144,2.158-.28,3.233-.4l.069.6c-1.07.123-2.154.259-3.221.4m42.091-.522c-1.073-.116-2.161-.224-3.235-.32l.054-.6c1.077.1,2.169.2,3.246.321Zm-35.643-.221-.057-.6c1.075-.1,2.167-.2,3.243-.281l.046.6c-1.073.083-2.16.177-3.232.28m29.168-.359c-1.073-.076-2.165-.143-3.245-.2l.032-.6c1.084.057,2.179.124,3.256.2Zm-22.7-.141-.035-.6c1.076-.063,2.17-.116,3.249-.16l.024.6c-1.076.043-2.165.1-3.238.159m16.208-.2c-1.076-.036-2.168-.063-3.245-.08l.009-.6c1.081.017,2.176.044,3.256.08Zm-9.731-.06-.013-.6c1.076-.023,2.169-.037,3.25-.04l0,.6c-1.077,0-2.167.017-3.239.04" transform="translate(-236.14 -89.311)" fill="#e0e0e0"/>
              <path id="Trazado_213279" data-name="Trazado 213279" d="M1685,1264.826a31.633,31.633,0,1,0-27.058,57.188c.643.3,1.293.586,1.945.844A31.634,31.634,0,0,0,1685,1264.826m7.909,38.738a23.691,23.691,0,0,1-30.123,11.927q-.734-.29-1.459-.632a23.717,23.717,0,1,1,31.583-11.294" transform="translate(-1338.625 -1030.013)" fill="#f0f0f0"/>
              <path id="Trazado_213280" data-name="Trazado 213280" d="M1650.464,1348.629l-7.013,3.675a31.678,31.678,0,0,1,4.987-36.382l5.764,5.429a23.753,23.753,0,0,0-3.738,27.277" transform="translate(-1338.624 -1074.21)" fill="#9f321d"/>
              <path id="Trazado_213281" data-name="Trazado 213281" d="M1678.879,1505.042l-2.9,7.368c-.652-.258-1.3-.539-1.945-.844a31.489,31.489,0,0,1-14.491-13.908l7.013-3.675a23.61,23.61,0,0,0,10.864,10.427q.724.342,1.459.632" transform="translate(-1354.715 -1219.565)" fill="#4dafff"/>
              <path id="Trazado_213282" data-name="Trazado 213282" d="M1758.062,1563.661a31.48,31.48,0,0,1-9.036-2.1l2.9-7.368a23.589,23.589,0,0,0,6.774,1.576Z" transform="translate(-1427.762 -1268.715)" fill="#4dafff"/>
              <path id="Trazado_213283" data-name="Trazado 213283" d="M1496.66,1602.821h-59.07v-1.174h57.9v-25.025h1.174Z" transform="translate(-1173.531 -1287.025)" fill="#4dafff"/>
              <rect id="Rectángulo_43058" data-name="Rectángulo 43058" width="31.093" height="7.044" transform="translate(264.059 302.403)" fill="#e0e0e0"/>
              <rect id="Rectángulo_43059" data-name="Rectángulo 43059" width="3.661" height="24.277" transform="translate(0 60.513)" fill="#e0e0e0"/>
              <rect id="Rectángulo_43060" data-name="Rectángulo 43060" width="3.661" height="19.344" transform="translate(9.09 65.446)" fill="#e0e0e0"/>
              <rect id="Rectángulo_43061" data-name="Rectángulo 43061" width="3.661" height="22.974" transform="translate(18.18 61.816)" fill="#e0e0e0"/>
              <rect id="Rectángulo_43062" data-name="Rectángulo 43062" width="3.661" height="15.807" transform="translate(27.271 68.983)" fill="#e0e0e0"/>
              <rect id="Rectángulo_43063" data-name="Rectángulo 43063" width="3.661" height="22.229" transform="translate(36.361 62.561)" fill="#e0e0e0"/>
              <rect id="Rectángulo_43064" data-name="Rectángulo 43064" width="3.661" height="25.58" transform="translate(45.451 59.21)" fill="#e0e0e0"/>
              <rect id="Rectángulo_43065" data-name="Rectángulo 43065" width="3.661" height="26.976" transform="translate(54.541 57.814)" fill="#e0e0e0"/>
              <rect id="Rectángulo_43066" data-name="Rectángulo 43066" width="3.661" height="15.231" transform="translate(0 69.559)" fill="#5d96ff"/>
              <rect id="Rectángulo_43067" data-name="Rectángulo 43067" width="3.661" height="12.136" transform="translate(9.09 72.654)" fill="#9f321d"/>
              <rect id="Rectángulo_43068" data-name="Rectángulo 43068" width="3.661" height="14.413" transform="translate(18.18 70.377)" fill="#fecd4d"/>
              <rect id="Rectángulo_43069" data-name="Rectángulo 43069" width="3.661" height="9.917" transform="translate(27.271 74.873)" fill="#5d96ff"/>
              <rect id="Rectángulo_43070" data-name="Rectángulo 43070" width="3.661" height="13.946" transform="translate(36.361 70.844)" fill="#9f321d"/>
              <rect id="Rectángulo_43071" data-name="Rectángulo 43071" width="3.661" height="16.048" transform="translate(45.451 68.742)" fill="#fecd4d"/>
              <rect id="Rectángulo_43072" data-name="Rectángulo 43072" width="3.661" height="16.924" transform="translate(54.541 67.866)" fill="#5d96ff"/>
              <rect id="Rectángulo_43073" data-name="Rectángulo 43073" width="21.159" height="3.056" transform="translate(61.269 22.638)" fill="#d9d9d9"/>
              <rect id="Rectángulo_43074" data-name="Rectángulo 43074" width="30.014" height="3.056" transform="translate(61.269 28.287)" fill="#d9d9d9"/>
              <path id="Trazado_213284" data-name="Trazado 213284" d="M1963.092,1035.542a23.978,23.978,0,1,0-45.155,16.149c.181.508.379,1.007.59,1.495a23.978,23.978,0,0,0,44.564-17.643m-16.523,25a17.956,17.956,0,0,1-22.538-9.753q-.238-.549-.444-1.121a17.977,17.977,0,1,1,22.981,10.874" transform="translate(-1564.498 -832.344)" fill="#f0f0f0"/>
              <path id="Trazado_213285" data-name="Trazado 213285" d="M1928.219,1038.307l-5.729-1.789a24.01,24.01,0,0,1,22.173-16.826l.179,6a18,18,0,0,0-16.623,12.616" transform="translate(-1569.364 -832.392)" fill="#9f321d"/>
              <path id="Trazado_213286" data-name="Trazado 213286" d="M1924.031,1125.619l-5.5,2.395c-.212-.487-.409-.987-.59-1.495a23.868,23.868,0,0,1-.312-15.221l5.729,1.789a17.9,17.9,0,0,0,.234,11.411q.205.571.444,1.121" transform="translate(-1564.498 -907.172)" fill="#fecd4d"/>
              <path id="Trazado_213287" data-name="Trazado 213287" d="M1931.123,1197.629a23.852,23.852,0,0,1-3.717-5.969l5.5-2.4a17.87,17.87,0,0,0,2.786,4.476Z" transform="translate(-1573.377 -970.818)" fill="#4dafff"/>
              <rect id="Rectángulo_43075" data-name="Rectángulo 43075" width="111.207" height="3.873" transform="translate(130.841 110.227)" fill="#e8e8e8"/>
              <rect id="Rectángulo_43076" data-name="Rectángulo 43076" width="111.207" height="3.873" transform="translate(130.841 122.849)" fill="#e8e8e8"/>
              <rect id="Rectángulo_43077" data-name="Rectángulo 43077" width="111.207" height="3.873" transform="translate(130.841 135.025)" fill="#e8e8e8"/>
              <rect id="Rectángulo_43078" data-name="Rectángulo 43078" width="111.207" height="3.873" transform="translate(130.841 147.647)" fill="#e8e8e8"/>
              <rect id="Rectángulo_43079" data-name="Rectángulo 43079" width="111.207" height="3.873" transform="translate(130.841 161.827)" fill="#e8e8e8"/>
              <rect id="Rectángulo_43080" data-name="Rectángulo 43080" width="111.207" height="3.873" transform="translate(130.841 174.448)" fill="#e8e8e8"/>
              <rect id="Rectángulo_43081" data-name="Rectángulo 43081" width="111.207" height="3.873" transform="translate(130.841 186.624)" fill="#e8e8e8"/>
              <rect id="Rectángulo_43082" data-name="Rectángulo 43082" width="111.207" height="3.873" transform="translate(130.841 199.246)" fill="#e8e8e8"/>
              <path id="Trazado_213288" data-name="Trazado 213288" d="M576.614,597.792h9.515a3.133,3.133,0,0,0,3.133-3.133v-9.515a3.133,3.133,0,0,0-3.133-3.133h-9.515a3.133,3.133,0,0,0-3.133,3.133v9.515a3.133,3.133,0,0,0,3.133,3.133" transform="translate(-468.143 -475.106)" fill="#afafaf"/>
              <path id="Trazado_213289" data-name="Trazado 213289" d="M576.614,867.1h9.515a3.133,3.133,0,0,0,3.133-3.133V854.45a3.133,3.133,0,0,0-3.133-3.133h-9.515a3.133,3.133,0,0,0-3.133,3.133v9.515a3.133,3.133,0,0,0,3.133,3.133" transform="translate(-468.143 -694.945)" fill="#afafaf"/>
              <path id="Trazado_213290" data-name="Trazado 213290" d="M592.727,881.138l-4.379-3.8a.861.861,0,1,1,1.13-1.3l3.1,2.691,4.4-4.926a.861.861,0,1,1,1.284,1.148Z" transform="translate(-480.037 -713.062)" fill="#fff"/>
              <path id="Trazado_213291" data-name="Trazado 213291" d="M576.614,731.917h9.515a3.133,3.133,0,0,0,3.133-3.133v-9.515a3.133,3.133,0,0,0-3.133-3.133h-9.515a3.133,3.133,0,0,0-3.133,3.133v9.515a3.133,3.133,0,0,0,3.133,3.133" transform="translate(-468.143 -584.594)" fill="#afafaf"/>
              <path id="Trazado_213292" data-name="Trazado 213292" d="M592.727,745.957l-4.379-3.8a.861.861,0,1,1,1.13-1.3l3.1,2.691,4.4-4.926a.861.861,0,1,1,1.284,1.148Z" transform="translate(-480.037 -602.711)" fill="#fff"/>
              <path id="Trazado_213293" data-name="Trazado 213293" d="M576.614,1002.28h9.515a3.133,3.133,0,0,0,3.133-3.133v-9.515a3.133,3.133,0,0,0-3.133-3.133h-9.515a3.133,3.133,0,0,0-3.133,3.133v9.515a3.133,3.133,0,0,0,3.133,3.133" transform="translate(-468.143 -805.296)" fill="#afafaf"/>
              <path id="Trazado_213294" data-name="Trazado 213294" d="M592.727,1016.32l-4.379-3.8a.861.861,0,0,1,1.13-1.3l3.1,2.691,4.4-4.926a.861.861,0,1,1,1.284,1.148Z" transform="translate(-480.037 -823.413)" fill="#fff"/>
              <path id="Trazado_213295" data-name="Trazado 213295" d="M601.96,603.4a4.14,4.14,0,0,1,.04-.587,2.086,2.086,0,0,1,.154-.541,1.7,1.7,0,0,1,.327-.487,2.177,2.177,0,0,1,.561-.414l.461-.247a4.7,4.7,0,0,0,.561-.354,2.332,2.332,0,0,0,.474-.461.929.929,0,0,0,.2-.581.818.818,0,0,0-.32-.687,1.17,1.17,0,0,0-.734-.247,1.073,1.073,0,0,0-.474.1,1.773,1.773,0,0,0-.374.24,1.575,1.575,0,0,0-.287.314l-.214.307-1.375-.961a2.662,2.662,0,0,1,1.1-1.268,3.236,3.236,0,0,1,1.7-.454,3.634,3.634,0,0,1,1.014.147,2.589,2.589,0,0,1,.908.467,2.431,2.431,0,0,1,.654.828,2.724,2.724,0,0,1,.254,1.228,2.407,2.407,0,0,1-.314,1.275,2.817,2.817,0,0,1-.928.9,5.7,5.7,0,0,1-.567.334,5.352,5.352,0,0,0-.527.307,1.513,1.513,0,0,0-.387.361.788.788,0,0,0-.147.481Zm.04,1.268h1.749v2H602Z" transform="translate(-490.574 -487.401)" fill="#fff"/>
              <path id="Trazado_213296" data-name="Trazado 213296" d="M815.154,564.388a18.045,18.045,0,0,0-2.764,3.238c-1.308,1.962-4.78,2.066-4.928,4.744s4.72,2.76,7.276,1.889,2.943-3.488,4.489-4.141,2.348-1.183,2.23-2.46a15.564,15.564,0,0,0-.974-3.349,10.544,10.544,0,0,1-1.525.369,12.642,12.642,0,0,1-3.8-.289" transform="translate(-659.143 -460.654)" fill="#252840"/>
              <path id="Trazado_213297" data-name="Trazado 213297" d="M864.4,135.014s-.98,5.826-1.769,9.675h0a23.051,23.051,0,0,1-.789,3.185,44.775,44.775,0,0,1-4.315,4.781c-3.949,4.065-9.167,9.185-9.167,9.185l-2.04-3.872s4.635-5.433,7.776-9.058c1.454-1.678,2.589-2.968,2.8-3.154.657-.588,1.419-6.378,2.491-11.148A19.215,19.215,0,0,1,862.6,127.2Z" transform="translate(-690.866 -103.836)" fill="#ffbf55"/>
              <path id="Trazado_213298" data-name="Trazado 213298" d="M857.526,249.134c-3.949,4.065-9.167,9.185-9.167,9.185l-2.04-3.872s4.635-5.433,7.776-9.058a6.59,6.59,0,0,1,3.43,3.745" transform="translate(-690.866 -200.315)" fill="#eea886"/>
              <path id="Trazado_213299" data-name="Trazado 213299" d="M1018.42,555.463s1.341,1.483,2.134,2.382,3.831,2.506,3.847,5.176c.018,2.9-2.241,2.642-4.251,2.536a5.554,5.554,0,0,1-4.489-3.133c-.846-1.639-3.1-2.07-3.256-3.392s1.043-3.7,1.043-3.7Z" transform="translate(-826.434 -453.325)" fill="#252840"/>
              <path id="Trazado_213300" data-name="Trazado 213300" d="M1018.411,541.912l-.259,2.464s4.194,1.828,4.97.134l-.18-2.2Z" transform="translate(-831.135 -442.372)" fill="#5f8cc9"/>
              <path id="Trazado_213301" data-name="Trazado 213301" d="M849.586,555.028l-.229,1.784a8.8,8.8,0,0,0,5.327-.08l.057-1.586Z" transform="translate(-693.346 -453.079)" fill="#5f8cc9"/>
              <path id="Trazado_213302" data-name="Trazado 213302" d="M927.183,146.3c.146.519-26.848,0-26.848,0s7.467-5.435,7.951-6.887-1.9-10.164-2.212-13c-.249-2.268-.873-12.416.622-13.966,1.563-1.62,7.19-3.319,7.19-3.319l8.2.3a12.882,12.882,0,0,1,2.322.733c.968.449,6.5,2.421,7.4,5.187s-5.524,11.657-5.524,11.657-.012.4-.031,1.055h0c-.025.873-.062,2.2-.1,3.64-.043,1.864-.08,3.917-.08,5.417a53.541,53.541,0,0,0,1.1,9.177" transform="translate(-734.96 -89.087)" fill="#ffbf55"/>
              <path id="Trazado_213303" data-name="Trazado 213303" d="M842.733,305.286s3.672,5.393,3.723,9.074-1.36,13.89-1.464,15.912-2.005,18.875-2.005,18.875-1.469,1.366-5.877-.346c0,0-.973-15.982-1.077-17.693s-.1-9.593-1.089-10.733-6.948-4.718-7.726-5.393-14.328,2.561-15.747,2.928c-3.676.953-2,7.35-1.187,10.218,1.361,4.8,2.55,22.125,2.55,22.125a12.485,12.485,0,0,1-7,.173s-8.613-31.286-8.889-34.4-.412-8.241,20.812-12.141Z" transform="translate(-650.51 -248.069)" fill="#323657"/>
              <path id="Trazado_213304" data-name="Trazado 213304" d="M960.872,11.589s-7.122-1.606-5.5,7.356,3.34,9.667,7.636,7.813,3.912-7.6,4.128-10.413-4-4.658-6.27-4.756" transform="translate(-779.694 -9.368)" fill="#eea886"/>
              <path id="Trazado_213305" data-name="Trazado 213305" d="M976.107,71.473s3.154,3.344,8.139.3c0,0-1.115-7.247-.528-10.777s-6.5,5.469-6.5,5.469c.094.049.155.386.169.865a9.658,9.658,0,0,1-.074,1.436c-.146,1.173-.511,2.413-1.2,2.7" transform="translate(-796.814 -49.126)" fill="#eea886"/>
              <path id="Trazado_213306" data-name="Trazado 213306" d="M1006.87,42.6a.909.909,0,0,1,1.783.1c.126,1.185-.71,3.266-1.3,3.062s-.609-2.076-.479-3.166" transform="translate(-821.873 -34.209)" fill="#eea886"/>
              <path id="Trazado_213307" data-name="Trazado 213307" d="M964.953,11.572s-.184-2.824-1.215-2.912-1.19,1.049-1.19,1.049l-1.042.2s.329-2.475-.7-2.908-6.673,1.363-7.5.636-.438-5.748,1.057-6.435,5.625-2.227,8.65-.179c0,0,2.359-.269,2.708,1.634s-.127,7.5-.768,8.917" transform="translate(-777.853 0.004)" fill="#3a3f47"/>
              <path id="Trazado_213308" data-name="Trazado 213308" d="M982.65,85.929c5.143-1.586,5.53-4.682,5.536-4.731-1.694,2.91-5.461,3.295-5.461,3.295a9.642,9.642,0,0,1-.074,1.436" transform="translate(-802.155 -66.283)" fill="#a77860"/>
              <path id="Trazado_213309" data-name="Trazado 213309" d="M974.826,108.063s-3.766,7.5-9.85,7.013-1.037-8.02-.761-8.089c.3-.077,6.24-1.556,10.611,1.076" transform="translate(-785.288 -86.941)" fill="#eea886"/>
              <path id="Trazado_213310" data-name="Trazado 213310" d="M883.524,299.134s18.642,2.3,29.936.38l-21.581-2.7s-.127.55-8.355,2.316" transform="translate(-721.237 -242.297)" fill="#ffbf55"/>
              <path id="Trazado_213311" data-name="Trazado 213311" d="M953.26,292.194l-1.389.7s.316,2.206,1.077,2.874l1.558-.4s-.325-2.42-1.247-3.18" transform="translate(-777.03 -238.523)" fill="#eea886"/>
              <path id="Trazado_213312" data-name="Trazado 213312" d="M981,162.746a70.522,70.522,0,0,1-8.083,3.39h0c-5.656,2.179-12.036,4.24-12.036,4.24l-1.452-3.113s6.681-3.631,11.2-6.177c2.133-1.2,3.782-2.163,4.015-2.385.726-.691.914-1.8.38-3.734s-1.763-10.82-1.9-11.857.346-3.8,2.939-3.941a7.781,7.781,0,0,1,3.912.593s.651.271,1.135,6.563.553,15.66-.1,16.421" transform="translate(-783.201 -113.592)" fill="#ffbf55"/>
              <path id="Trazado_213313" data-name="Trazado 213313" d="M1034.449,178.467h0c-.025.873-.062,2.2-.1,3.64a18.184,18.184,0,0,1-1.044-11.236c-.274,1.683,1.119,7.513,1.139,7.6" transform="translate(-843.148 -139.484)" fill="#b08439"/>
              <path id="Trazado_213314" data-name="Trazado 213314" d="M929.8,194.174h0a23.036,23.036,0,0,1-.789,3.185,32.914,32.914,0,0,1-.087-9.538,53.809,53.809,0,0,0,.876,6.353" transform="translate(-758.036 -153.321)" fill="#b08439"/>
              <path id="Trazado_213315" data-name="Trazado 213315" d="M972.92,263.619h0c-5.656,2.179-12.242,4.307-12.242,4.307l-1.247-3.18s6.681-3.631,11.2-6.177c0,0,1.642.8,2.293,5.05" transform="translate(-783.201 -211.074)" fill="#eea886"/>
              <path id="Trazado_213316" data-name="Trazado 213316" d="M839.487,308.781l-26.5-.39,13.378,6.793Z" transform="translate(-663.659 -251.745)" fill="#5e5853"/>
              <path id="Trazado_213317" data-name="Trazado 213317" d="M881.213,316.916l13.119-5.082v-1.321l-14.156,5.106Z" transform="translate(-718.504 -253.477)" fill="#91887f"/>
              <path id="Trazado_213318" data-name="Trazado 213318" d="M912.464,293.66s-1.655-.258-2.8-.524c-.885-.206-3.087.078-3.647.646s-2.343,4.527-2.681,4.768.173.8.765.52c0,0,.544,1.732,1.885,1.084s2.253-2.064,2.956-2.314,4.8-1.507,4.8-1.507-.22-3.094-1.274-2.673" transform="translate(-737.322 -239.237)" fill="#eea886"/>
              <path id="Trazado_213319" data-name="Trazado 213319" d="M906.952,295.538a11.563,11.563,0,0,0-1.341.742c-.278.229-1.4,1.071-1.675,1.269s.411.762,2.423-.11.593-1.9.593-1.9" transform="translate(-737.853 -241.252)" fill="#eea886"/>
              <path id="Trazado_213320" data-name="Trazado 213320" d="M737.879,249.738,730,228.22l-25.408.415,7.512,19.83Z" transform="translate(-575.169 -186.299)" fill="#6e6760"/>
              <path id="Trazado_213321" data-name="Trazado 213321" d="M779.5,271.139c.775,1.55.541,3.238-.523,3.77s-2.556-.292-3.331-1.843-.541-3.238.523-3.77,2.555.293,3.331,1.842" transform="translate(-632.797 -219.699)" fill="#807066"/>
              <path id="Trazado_213322" data-name="Trazado 213322" d="M1367.838,790.555h-10.314a.63.63,0,0,1-.63-.63V787.7a.63.63,0,0,1,.63-.63h10.314a.63.63,0,0,1,.631.63v2.227a.63.63,0,0,1-.631.63" transform="translate(-1107.657 -642.496)" fill="#e0e0e0"/>
              <path id="Trazado_213323" data-name="Trazado 213323" d="M1367.838,836.094h-10.314a.63.63,0,0,1-.63-.631v-2.227a.63.63,0,0,1,.63-.63h10.314a.63.63,0,0,1,.631.63v2.227a.631.631,0,0,1-.631.631" transform="translate(-1107.657 -679.671)" fill="#e0e0e0"/>
              <path id="Trazado_213324" data-name="Trazado 213324" d="M1367.838,881.633h-10.314a.63.63,0,0,1-.63-.631v-2.227a.63.63,0,0,1,.63-.63h10.314a.63.63,0,0,1,.631.63V881a.631.631,0,0,1-.631.631" transform="translate(-1107.657 -716.845)" fill="#e0e0e0"/>
              <path id="Trazado_213325" data-name="Trazado 213325" d="M1367.838,927.172h-10.314a.63.63,0,0,1-.63-.631v-2.227a.63.63,0,0,1,.63-.63h10.314a.63.63,0,0,1,.631.63v2.227a.631.631,0,0,1-.631.631" transform="translate(-1107.657 -754.019)" fill="#e0e0e0"/>
              <path id="Trazado_213326" data-name="Trazado 213326" d="M1367.838,972.71h-10.314a.63.63,0,0,1-.63-.631v-2.227a.63.63,0,0,1,.63-.63h10.314a.631.631,0,0,1,.631.63v2.227a.63.63,0,0,1-.631.631" transform="translate(-1107.657 -791.193)" fill="#e0e0e0"/>
              <path id="Trazado_213327" data-name="Trazado 213327" d="M1367.838,1018.249h-10.314a.63.63,0,0,1-.63-.631v-2.227a.63.63,0,0,1,.63-.63h10.314a.63.63,0,0,1,.631.63v2.227a.631.631,0,0,1-.631.631" transform="translate(-1107.657 -828.367)" fill="#e0e0e0"/>
              <path id="Trazado_213328" data-name="Trazado 213328" d="M1448.592,790.555h-2.032a.631.631,0,0,1-.631-.63V787.7a.631.631,0,0,1,.631-.63h2.032a.63.63,0,0,1,.63.63v2.227a.63.63,0,0,1-.63.63" transform="translate(-1180.338 -642.496)" fill="#e0e0e0"/>
              <path id="Trazado_213329" data-name="Trazado 213329" d="M1448.592,836.094h-2.032a.631.631,0,0,1-.631-.631v-2.227a.631.631,0,0,1,.631-.63h2.032a.63.63,0,0,1,.63.63v2.227a.631.631,0,0,1-.63.631" transform="translate(-1180.338 -679.671)" fill="#e0e0e0"/>
              <path id="Trazado_213330" data-name="Trazado 213330" d="M1448.592,881.633h-2.032a.631.631,0,0,1-.631-.631v-2.227a.631.631,0,0,1,.631-.63h2.032a.63.63,0,0,1,.63.63V881a.63.63,0,0,1-.63.631" transform="translate(-1180.338 -716.845)" fill="#e0e0e0"/>
              <path id="Trazado_213331" data-name="Trazado 213331" d="M1448.592,927.172h-2.032a.631.631,0,0,1-.631-.631v-2.227a.631.631,0,0,1,.631-.63h2.032a.63.63,0,0,1,.63.63v2.227a.631.631,0,0,1-.63.631" transform="translate(-1180.338 -754.019)" fill="#e0e0e0"/>
              <path id="Trazado_213332" data-name="Trazado 213332" d="M1448.592,972.71h-2.032a.631.631,0,0,1-.631-.631v-2.227a.631.631,0,0,1,.631-.63h2.032a.631.631,0,0,1,.63.63v2.227a.63.63,0,0,1-.63.631" transform="translate(-1180.338 -791.193)" fill="#e0e0e0"/>
              <path id="Trazado_213333" data-name="Trazado 213333" d="M1448.592,1018.249h-2.032a.631.631,0,0,1-.631-.631v-2.227a.631.631,0,0,1,.631-.63h2.032a.63.63,0,0,1,.63.63v2.227a.631.631,0,0,1-.63.631" transform="translate(-1180.338 -828.367)" fill="#e0e0e0"/>
              <path id="Trazado_213334" data-name="Trazado 213334" d="M1442.565,991.15s-4.947-11.207.792-10.279a20.906,20.906,0,0,1,3.959,4.905c1.519,2.493,4.676,9.088,4.56,11.319s-1.7,3.894-3.417,7.477c0,0-3.562,6.65-3.712,7.451l-3.765-1.955s3.191-6.358,5.439-11.947Z" transform="translate(-1175.975 -800.657)" fill="#6f5be0"/>
            </g>
          </g>
          <g id="Grupo_153332" data-name="Grupo 153332" transform="translate(217.802 197.331)">
            <g id="Grupo_153331" data-name="Grupo 153331" transform="translate(0 0)" clip-path="url(#clip-path-5)">
              <rect id="Rectángulo_43084" data-name="Rectángulo 43084" width="70.873" height="43.268" transform="translate(-6.878 2.51) rotate(-20.045)" fill="url(#linear-gradient-4)"/>
            </g>
          </g>
          <g id="Grupo_153343" data-name="Grupo 153343" transform="translate(0 -0.001)">
            <g id="Grupo_153342" data-name="Grupo 153342" clip-path="url(#clip-path)">
              <rect id="Rectángulo_43086" data-name="Rectángulo 43086" width="7.764" height="3.214" transform="matrix(0.168, -0.986, 0.986, 0.168, 214.845, 205.661)" fill="#2d3038"/>
              <path id="Trazado_213335" data-name="Trazado 213335" d="M1234.806,1505.274h-.933s.311-3.525-.553-3.56-3.007,2.868-4.286,3.318-7.845.829-7.879-.38,2.522-1.694,3.317-2.039,4.666-4.113,5.357-4.562,1.871-3.573,1.871-3.573l3.665-.163s.207,2.92.429,4.466a13.6,13.6,0,0,1,.151,1.448,26.709,26.709,0,0,1-1.14,5.046" transform="translate(-996.85 -1219.836)" fill="#eea886"/>
              <path id="Trazado_213336" data-name="Trazado 213336" d="M1372.73,1502.627h-.778v-3.281c-.648.054-2.826,2.115-3.5,2.712s-1.6.569-4.437.75-3.106-1.519-2.657-2.1,1.9-.831,2.657-1.192,3.737-3.724,4.532-4.519a8.249,8.249,0,0,0,1.279-3.073l3.318.289a20.309,20.309,0,0,0,.357,3.832h0a.066.066,0,0,1,0,.013q.048.223.106.438c.493,1.817-.881,6.128-.881,6.128" transform="translate(-1111.16 -1217.886)" fill="#eea886"/>
              <path id="Trazado_213337" data-name="Trazado 213337" d="M1288.669,1134.693a33.188,33.188,0,0,0-1.365,3.714c-.11.749-3.046,7.844-3.895,12.628-.508,2.864-1.911,11.828-2.025,12.968-.195,1.951-1.113,6.257-1.254,8.249-.079,1.114-5.565,18.21-6.893,27.136a16.453,16.453,0,0,0,5.525-.159,93.515,93.515,0,0,0,7.49-22.31,89.872,89.872,0,0,1,4.282-15.329c1.248-3.246,8.315-12.438,9.052-13.471s5.359-6.74.983-12.923-11.9-.5-11.9-.5" transform="translate(-1039.367 -924.325)" fill="#292c47"/>
              <path id="Trazado_213338" data-name="Trazado 213338" d="M1384.531,1154.535c-.4,2.662.02,6.159.856,15.892s-1.463,21.517-1.463,21.517a11.678,11.678,0,0,1-6.216,0c.077-.684,0-23.723,0-25.776s-.589-4.383-.741-6.739a48.017,48.017,0,0,0-1.691-7.589c-.252-.905-.512-1.816-.765-2.7h0c-.142-.494-.282-.98-.417-1.45-1.184-4.106-2.776-19.96-2.776-19.96s8.824-7.108,13.12-.417,2.091,11.557,1.939,12.393-1.445,12.166-1.845,14.827" transform="translate(-1119.431 -917.905)" fill="#292c47"/>
              <path id="Trazado_213339" data-name="Trazado 213339" d="M1395.064,1210.414c-.068.151-4.465,9.911-5.6,11.6-.252-.906-.512-1.816-.765-2.7h0s6.215-8.691,6.362-8.905" transform="translate(-1133.623 -988.082)" fill="#191b2b"/>
              <path id="Trazado_213340" data-name="Trazado 213340" d="M1372.73,1518.156h-.778v-3.281c-.648.054-2.826,2.115-3.5,2.712s-1.6.569-4.437.75-3.106-1.519-2.657-2.1,1.9-.831,2.657-1.192c3.037.162,6.742-4.107,8.521-4.1.945,0,.936.528.965.627h0a.068.068,0,0,1,0,.013q.048.224.106.438c.493,1.817-.881,6.128-.881,6.128" transform="translate(-1111.16 -1233.415)" fill="#c6c9cc"/>
              <path id="Trazado_213341" data-name="Trazado 213341" d="M1234.806,1524.639h-.933s.311-3.525-.553-3.56-3.007,2.868-4.286,3.318-7.845.829-7.879-.38,2.522-1.694,3.317-2.039c2.708-.006,7.113-2.987,8.479-3.591a4.932,4.932,0,0,1,2.844-.241,13.6,13.6,0,0,1,.151,1.448,26.707,26.707,0,0,1-1.14,5.046" transform="translate(-996.85 -1239.201)" fill="#c6c9cc"/>
              <path id="Trazado_213342" data-name="Trazado 213342" d="M1399.665,931.178s1.408,3.725.313,6.6c0,0,5.163-.336,5.358-.938s-.208-6.184.5-7.834-6.174,2.168-6.174,2.168" transform="translate(-1142.572 -758.03)" fill="#eea886"/>
              <path id="Trazado_213343" data-name="Trazado 213343" d="M1359.3,969.779s-3.051,1.085-4.429,1.386-4.263,1.668-4.029,6.811a107.475,107.475,0,0,0,1.408,11.814,46.586,46.586,0,0,1-.391,10.568,38.665,38.665,0,0,0,15.919,0s-1.525-4.661-1.486-5.867,5.084-11.131,5.319-12.7,1.252-8.479-1.056-10.006-4.185-1.326-5.163-2.009-4.664-.49-6.092,0" transform="translate(-1102.707 -791.286)" fill="#6f5be0"/>
              <path id="Trazado_213344" data-name="Trazado 213344" d="M1361.311,1029.678a42.764,42.764,0,0,1-22.44.013,30.937,30.937,0,0,0,2.057-5.524v0a33.015,33.015,0,0,0,.769-3.707h0a33.572,33.572,0,0,0-.309-12.021c1.443-11.871,19.4-15.414,20.843-11.651s-2.788,19.934-3,21.321,2.081,11.571,2.081,11.571" transform="translate(-1092.945 -812.522)" fill="#6f5be0"/>
              <path id="Trazado_213345" data-name="Trazado 213345" d="M1382.025,859.493c-2.076-.712-7.686-1.47-9.123,7.141s1.693,8.759,4.909,8.514,8.246-6.058,8.631-7.824,1.5-5.8-4.418-7.831" transform="translate(-1120.432 -701.291)" fill="#eea886"/>
              <path id="Trazado_213346" data-name="Trazado 213346" d="M1380.792,859.747s1.714,3.666,3.962,4.944c0,0,1.408,3.9,4.458,5.471,0,0,8.093-5.361,3.4-11.731s-11.286-1.3-11.816,1.316" transform="translate(-1127.166 -698.238)" fill="#0f324f"/>
              <path id="Trazado_213347" data-name="Trazado 213347" d="M1399.215,896.5a1.057,1.057,0,0,1,1.939.052c.544,1.229-1.409,3.394-1.944,3.278s-.685-1.63.005-3.33" transform="translate(-1141.826 -731.317)" fill="#eea886"/>
              <path id="Trazado_213348" data-name="Trazado 213348" d="M1429.521,873.772c.177-.276,5.536-2.757,6.651,2.427s-4.316,11.212-5.268,13.8.43,8.667.43,8.667-3.268-3.089-4.256-6.322c-1.085-3.55-1.45-12.5,2.443-18.575" transform="translate(-1164.353 -712.595)" fill="#0f324f"/>
              <path id="Trazado_213349" data-name="Trazado 213349" d="M1436.553,876.437a5.407,5.407,0,0,0-1.852,3.346,4.021,4.021,0,0,1,.354-2.573,1.479,1.479,0,0,1,1.5-.772" transform="translate(-1171.114 -715.437)" fill="#e54242"/>
              <path id="Trazado_213350" data-name="Trazado 213350" d="M1350.073,1074.791c.342-1.272.786-4.056.964-5.249a3.019,3.019,0,0,0,.907-1.047c.268-.841,2.347-11.128,2.347-11.128s2.189,9.665-4.218,17.424" transform="translate(-1102.089 -863.147)" fill="#1d3b54"/>
              <path id="Trazado_213351" data-name="Trazado 213351" d="M1262.181,1138.62s-2.234,1.037-2.755,1.2-1.526-.726-5.226-1c-.325-.024-.9.268-.762.7a5.78,5.78,0,0,0,2.434,1.775c.689.179,3.941,1.47,5.526.836a6.5,6.5,0,0,0,2.663-2.651Z" transform="translate(-1023.188 -929.476)" fill="#eea886"/>
              <path id="Trazado_213352" data-name="Trazado 213352" d="M1301.784,980.83s-4.279,1.7-4.532,7.643a84.078,84.078,0,0,1-.718,9.97c-.232.918-.676,4.608-1.753,6.827-1.045,2.154-7.927,5.558-7.927,5.558l2.093,2.663s10.81-5.722,11.39-7.476,2.97-13.958,3.161-16.015c.154-1.658,2.341-9.048-1.713-9.171" transform="translate(-1050.482 -800.669)" fill="#6f5be0"/>
              <path id="Trazado_213353" data-name="Trazado 213353" d="M844.747,891.494c-.006.159-.017.318-.028.478h6.124c.011-.159.017-.318.022-.478Zm-68.3-1.692c0,.187,0,.368.005.555.011.774.044,1.543.11,2.307a36.341,36.341,0,0,0,1.038,6.36,37.049,37.049,0,0,0,9.782,17.125c.181.187.363.363.544.538.731.7,1.494,1.378,2.285,2.016a37.044,37.044,0,0,0,23.469,8.332c.148,0,.3,0,.445-.006a37.021,37.021,0,0,0,18.5-5.174,37.352,37.352,0,0,0,16.345-20.173q.437-1.31.785-2.658a37.457,37.457,0,0,0,.906-4.927v-.006c.039-.357.077-.714.1-1.076.033-.346.06-.692.077-1.044.011-.159.017-.318.022-.478.016-.352.028-.7.033-1.049.005-.214.005-.428.005-.643a37.232,37.232,0,0,0-31.57-36.8c-.346-.055-.692-.1-1.044-.148-.384-.044-.769-.088-1.154-.121-.346-.033-.7-.06-1.044-.082-.8-.055-1.609-.077-2.417-.077-.686,0-1.367.017-2.043.055-1.159.061-2.3.181-3.433.346a37.327,37.327,0,0,0-28.736,22.117c-.055.121-.1.247-.153.368s-.1.236-.143.352c-.285.687-.544,1.384-.78,2.087a36.546,36.546,0,0,0-1.417,5.652c-.093.511-.165,1.027-.236,1.549-.005.088-.016.176-.027.269-.005.005-.005.011-.005.022a1.018,1.018,0,0,0-.011.132,1.255,1.255,0,0,0-.022.154v.038a.317.317,0,0,0-.011.077.849.849,0,0,0-.011.115c-.011.094-.022.187-.028.28-.055.571-.1,1.148-.126,1.724-.006.077-.011.159-.011.236q-.008.19-.016.379c-.016.423-.022.846-.022,1.274m8.343,11.583-.143-.362c-.1-.269-.2-.538-.3-.813l-.225-.659c-.055-.165-.11-.33-.159-.495-.006-.011-.006-.022-.011-.033a.6.6,0,0,1-.028-.093c-.088-.275-.165-.555-.242-.835l-.088-.324c-.083-.3-.154-.6-.225-.9-.005-.028-.017-.06-.022-.093-.06-.28-.121-.56-.176-.84-.028-.115-.05-.231-.071-.346-.066-.351-.126-.708-.181-1.066-.1-.626-.17-1.257-.231-1.895-.022-.214-.038-.434-.055-.654,0,0,.005,0,0-.005,0-.071-.006-.137-.011-.209-.017-.3-.033-.593-.044-.89v-.088c-.006-.066-.006-.137-.006-.209-.005-.258-.011-.516-.011-.774,0-.241,0-.483.011-.719a27.158,27.158,0,0,1,.2-2.856,2.686,2.686,0,0,1,.033-.3.02.02,0,0,1,.006-.016c-.006-.005,0-.005,0-.005a.01.01,0,0,1,0-.017.209.209,0,0,1,.005-.06v-.011c0-.011,0-.016.006-.022a30.9,30.9,0,0,1,4.619-12.726,31.238,31.238,0,0,1,11.292-10.562,30.263,30.263,0,0,1,3.779-1.758c.412-.159.835-.313,1.258-.45a30.438,30.438,0,0,1,7.42-1.51c.824-.071,1.653-.1,2.493-.1.253,0,.5,0,.753.011.291.005.577.016.868.027.208.011.417.027.626.044a1.672,1.672,0,0,1,.17.011c.346.022.7.055,1.044.093l.264.033c.137.016.28.033.417.055.159.017.313.038.472.066.352.05.7.11,1.044.17l.094.016q.4.074.807.165c.017.006.033.006.05.011.11.022.225.049.335.077.253.055.5.115.747.181a3.092,3.092,0,0,1,.324.082c.286.077.571.154.857.242s.544.165.813.253c.126.038.253.082.373.126.538.181,1.071.379,1.593.593.143.055.286.115.429.176.22.094.434.187.654.286.176.077.351.154.522.242.258.115.511.242.763.368q.428.214.84.445c.318.17.626.346.934.527.637.374,1.252.769,1.857,1.186.258.176.511.357.763.549.318.225.626.461.928.7.269.214.538.434.8.659s.538.461.8.7A31.036,31.036,0,0,1,844.791,889.8c0,.214,0,.429-.006.643-.006.352-.017.7-.038,1.049-.006.159-.017.318-.028.478-.027.351-.055.7-.093,1.044q-.148,1.483-.439,2.922a30.227,30.227,0,0,1-.785,3.087c-.247.8-.527,1.593-.84,2.362a31.106,31.106,0,0,1-28.439,19.531c-.148.005-.3.005-.445.005A31.113,31.113,0,0,1,786.188,904.4c-.137-.264-.275-.527-.407-.791l-.242-.505c-.1-.2-.187-.4-.28-.6l-.088-.2c-.077-.176-.154-.351-.225-.533Z" transform="translate(-633.825 -695.972)" fill="#3f444f"/>
              <g id="Grupo_153335" data-name="Grupo 153335" transform="translate(148.843 162.825)" opacity="0.1">
                <g id="Grupo_153334" data-name="Grupo 153334">
                  <g id="Grupo_153333" data-name="Grupo 153333" clip-path="url(#clip-path-7)">
                    <path id="Trazado_213354" data-name="Trazado 213354" d="M810.333,917.454a31.007,31.007,0,1,0,31.007-31.007,31.007,31.007,0,0,0-31.007,31.007" transform="translate(-810.333 -886.447)" fill="#b8b8b8"/>
                  </g>
                </g>
              </g>
              <g id="Grupo_153338" data-name="Grupo 153338" transform="translate(148.733 162.715)" opacity="0.3">
                <g id="Grupo_153337" data-name="Grupo 153337">
                  <g id="Grupo_153336" data-name="Grupo 153336" clip-path="url(#clip-path-8)">
                    <path id="Trazado_213355" data-name="Trazado 213355" d="M861.789,893.947s-40.382-5.005-48.429,37.614h0a31.121,31.121,0,0,1,48.429-37.613" transform="translate(-809.731 -885.846)" fill="#869ac2"/>
                  </g>
                </g>
              </g>
              <path id="Trazado_213356" data-name="Trazado 213356" d="M359.636,1158.3l13.493,7.417,13.55-21.323L370.29,1138.7Z" transform="translate(-293.577 -929.54)" fill="#292c47"/>
              <path id="Trazado_213357" data-name="Trazado 213357" d="M364.294,1160.457l12.618,6.936,12.672-19.941-15.326-5.323Z" transform="translate(-297.38 -932.339)" fill="#e2d2ca"/>
              <path id="Trazado_213358" data-name="Trazado 213358" d="M339.136,1201.914s2.349-1.123,3.379-1.71,3.683-1.393,3.9-1.584,7.861-.663,8.324-1.063.915.938-1.067,1.372-4.74,1.5-4.891,2.27,2.036.958,2.257,1.6-.062.495-.376.632-2.6-1.13-3.606-.771-2.543-.138-3.314.126-4.519,1.525-4.519,1.525Z" transform="translate(-276.843 -977.526)" fill="#eea886"/>
              <path id="Trazado_213359" data-name="Trazado 213359" d="M426.8,1211.123s1.973-1.776,2.928-2.519,2.747-2.928,3.01-3.055,3.686-7.149,4.243-7.431-.528-1.227-1.708.472-3.255,3.884-4.043,3.725-.11-2.291-.625-2.748-.491-.134-.742.108.052,2.891-.678,3.7-.86,2.451-1.409,3.074-3.2,3.665-3.2,3.665Z" transform="translate(-346.595 -977.623)" fill="#eea886"/>
              <path id="Trazado_213360" data-name="Trazado 213360" d="M180.428,1786.233s-.427,2.962-.48,3.407-4.748-.262-4.748-.262l-.38-3.526s5.021-.036,5.608.381" transform="translate(-142.709 -1457.822)" fill="#424773"/>
              <path id="Trazado_213361" data-name="Trazado 213361" d="M176.737,1803.54a12.674,12.674,0,0,0,2.926,2.563c1.439.778,3.7,1.086,4.55,1.892.614.581,2.237,3.084-3.738,3.034s-8.855.354-9.5-.606.926-7.083.926-7.083a12.649,12.649,0,0,0,4.832.2" transform="translate(-139.448 -1472.098)" fill="#292c47"/>
              <path id="Trazado_213362" data-name="Trazado 213362" d="M363.546,1786.233s-.427,2.962-.48,3.407-4.748-.262-4.748-.262l-.38-3.526s5.021-.036,5.608.381" transform="translate(-292.191 -1457.822)" fill="#424773"/>
              <path id="Trazado_213363" data-name="Trazado 213363" d="M359.854,1803.54a12.679,12.679,0,0,0,2.926,2.563c1.439.778,6.732,1.417,7.583,2.222.614.582,1.635,2.922-6.771,2.7-5.973-.155-8.855.354-9.5-.606s.926-7.083.926-7.083,1.333.544,4.832.2" transform="translate(-288.93 -1472.098)" fill="#292c47"/>
              <path id="Trazado_213364" data-name="Trazado 213364" d="M181.055,1373.525s-4.411,7.008-4.082,13.343-1.6,13.251-2.262,19.868c-.739,7.377-3.762,24.843-3.871,28.789s.469,16.547.469,16.547l6.051.139s5.082-30.533,6.4-33.649,7.844-25.326,8.063-27.818-10.767-17.219-10.767-17.219" transform="translate(-139.448 -1121.233)" fill="#292c47"/>
              <path id="Trazado_213365" data-name="Trazado 213365" d="M239.868,1369.109s3.324,17.363,3.763,21.24.731,18.763.951,21.186,1.463,31.71,2.633,35.31h-7.736s-5.939-21.291-5.939-31.364-4.588-21.9-7.55-28.545-9.741-6.8-11.561-19.135c0,0,22.975-2.6,25.439,1.308" transform="translate(-175.042 -1115.868)" fill="#292c47"/>
              <path id="Trazado_213366" data-name="Trazado 213366" d="M250.118,1050.348s5.92-2.211,8.65,2.3,2.467,13.529-.517,14.638-7.467.53-8.995-2.291-2.907-6.9-2.841-9.621,2.149-4.235,3.7-5.022" transform="translate(-201.151 -856.975)" fill="#eea886"/>
              <path id="Trazado_213367" data-name="Trazado 213367" d="M265.1,1121.1a5.119,5.119,0,0,0,.161,2.386c.407.787-7.67.808-7.67.808a53.211,53.211,0,0,0-1.9-7.9c-1.243-3.619,9.408,4.708,9.408,4.708" transform="translate(-208.645 -910.587)" fill="#eea886"/>
              <path id="Trazado_213368" data-name="Trazado 213368" d="M246.01,1059.749s.557.92,2.833.563,5.052-3.385,6-3.717.959-.891.959-.891l.595.869,1.009.064s-.921-2.709.468-3.813-1.441-8.766-8.739-6.215c0,0-5.605,1.545-5.4,4.733s1.02,6.82,2.275,8.407" transform="translate(-198.962 -853.943)" fill="#3a3f47"/>
              <path id="Trazado_213369" data-name="Trazado 213369" d="M270.532,1148.711s-.026-1.5-.708-1.649-7.527-.8-8.364-.473v1.753s1.613.993,9.072.37" transform="translate(-213.435 -935.907)" fill="#e2d2ca"/>
              <path id="Trazado_213370" data-name="Trazado 213370" d="M299.189,1086.947c-.127-.534-1.488-2.062-2.008-.426s.787,3.837,1.516,3.648.816-1.866.492-3.222" transform="translate(-242.497 -886.346)" fill="#eea886"/>
              <path id="Trazado_213371" data-name="Trazado 213371" d="M458.7,1255.317a.017.017,0,0,0-.011,0c.047.02.054.022.011,0" transform="translate(-374.44 -1024.736)" fill="#323657"/>
              <path id="Trazado_213372" data-name="Trazado 213372" d="M193.307,1213.086a62.591,62.591,0,0,0,9.822,1.752c6.192.682,21.661-.247,21.759-.978s-3.328-27.237-3.133-28.6.3-6.229.3-6.229a34.275,34.275,0,0,0,3.073,9.744c.592,1.072,2.579,4.432,3.536,3.668,4.635-3.7,11.811-17.644,12.266-17.762-.383-.166-3.4-1.556-3.825-1.7-.371-.124-3.714,3.416-5.74,5.61-.9.978-1.545,1.689-1.545,1.689-.585-1.316-2.716-9.608-3.378-12.477-1.493-6.472-1.264-6.741-1.264-6.741-4.53-1.37-11.4-4.159-11.4-4.159l-9.072-.37s-8.326,1.833-11.605,3.314c-.311.14-.312,7.428-1.166,9.339l2.719,5.735s1.57,11.361,1.9,16.414c.15,2.32-3.239,21.75-3.239,21.75" transform="translate(-156.677 -944.099)" fill="#323657"/>
              <path id="Trazado_213373" data-name="Trazado 213373" d="M186.7,1193.375a3.583,3.583,0,0,0,2.011,1.693,2.6,2.6,0,0,0,1.452.146l.355-.066h0l6.217-1.153s1.36-15.666-8.493-19.42c-.26.085-3.719,11.785-1.543,18.8" transform="translate(-151.824 -958.826)" fill="#323657"/>
              <path id="Trazado_213374" data-name="Trazado 213374" d="M200.829,1250.919h0a2.6,2.6,0,0,0,1.452.146l.355-.066h0l-.613-8.005Z" transform="translate(-163.94 -1014.678)" fill="#252840"/>
              <path id="Trazado_213375" data-name="Trazado 213375" d="M398.209,1278.311l.76,3.218a25.439,25.439,0,0,0,.785-4.907c-.9.978-1.545,1.689-1.545,1.689" transform="translate(-325.065 -1042.129)" fill="#252840"/>
              <path id="Trazado_213376" data-name="Trazado 213376" d="M241.9,1055.594s-7.76-.9-.133,12.065Z" transform="translate(-194.621 -861.69)" fill="#3a3f47"/>
              <path id="Trazado_213377" data-name="Trazado 213377" d="M445.3,1147.914l.789-1.355-6.212-2.143-.789,1.348Z" transform="translate(-358.433 -934.206)" fill="#292c47"/>
              <path id="Trazado_213378" data-name="Trazado 213378" d="M901.017,1204.948s1.231-1.141.986-2a3.661,3.661,0,0,1,.183-1.877c.1-.449.147-1.9.481-1.82.565.136.434,2.454.5,2.947s1.565-1.16,2.076-1.247,3.109,2.545,1.951,3.561a16.627,16.627,0,0,1-2.922,1.647,9.068,9.068,0,0,1-.961.821Z" transform="translate(-735.517 -978.971)" fill="#eea987"/>
              <path id="Trazado_213379" data-name="Trazado 213379" d="M922.271,1196.778s3.75-2.874,4.16-2.857.554.23.215.513-3.543,2.882-3.543,2.882,5.01-2.656,5.349-2.715c.2-.034.349.345.181.513s-4.83,3.1-4.83,3.1,4.682-2.471,4.981-2.436a.364.364,0,0,1,.114.67c-.335.207-4.551,2.746-4.551,2.746s3.521-1.584,3.756-1.406c.144.109.346.35-.575.73a32.922,32.922,0,0,0-2.926,1.595Z" transform="translate(-752.867 -974.619)" fill="#eea987"/>
              <path id="Trazado_213380" data-name="Trazado 213380" d="M759.132,1041.449s8.97-.746,8.725,8.691-1.741,10.856,0,17.524-8.746-3.786-8.746-3.786Z" transform="translate(-619.68 -850.142)" fill="#e8734d"/>
              <path id="Trazado_213381" data-name="Trazado 213381" d="M597.471,1777.419s-3.331,4.679-2.874,5.421,3.96.848,6.092,0,2.183-6.332,3.147-8.688c.4-.986-.46-3.9-1.675-4.109a4.933,4.933,0,0,0-2.536.409s1.26,3.319-2.154,6.967" transform="translate(-485.345 -1444.882)" fill="#363a5e"/>
              <path id="Trazado_213382" data-name="Trazado 213382" d="M607.674,1770.117a22.888,22.888,0,0,0-.957,3.9c-.212,1.578-2.373,4.929-2.271,5.352s2.843.807,3.96-.285,1.836-4.27,2.081-6.17a15.839,15.839,0,0,1,.518-2.644s-2.265-1.313-3.331-.148" transform="translate(-493.417 -1444.584)" fill="#eea886"/>
              <path id="Trazado_213383" data-name="Trazado 213383" d="M755.838,1777.508s-3.211,4.6-2.754,5.343,3.96.847,6.092,0,2.183-6.332,3.148-8.688c.4-.986-.461-3.9-1.676-4.109a5.261,5.261,0,0,0-2.64.454s1.244,3.352-2.17,7" transform="translate(-614.72 -1444.893)" fill="#363a5e"/>
              <path id="Trazado_213384" data-name="Trazado 213384" d="M766.088,1769.737a32.574,32.574,0,0,1-.66,3.708c-.406,1.536-2.589,5.032-2.487,5.456s2.843.807,3.96-.285,1.98-4.256,2.081-6.17a10.607,10.607,0,0,0-.254-3.164,2.4,2.4,0,0,0-2.64.454" transform="translate(-622.8 -1444.122)" fill="#eea886"/>
              <path id="Trazado_213385" data-name="Trazado 213385" d="M632.381,1313.014s-2.858,13.875-3.515,17.369-2.495,20.413-2.691,23.29-2.983,13.717-2.851,14.745-4.524,21.394-4.524,21.394,3.3.356,4.613-.194c.9-.376,8.12-18.745,8.12-23.882,0-7.1,3.966-16.372,4.541-17.99,5.659-15.91,6.7-19.686,7.484-20.645,0,0,.119,1.3.388,3.454.309,2.48,1.66,20.187,2.25,22.516s.132,10.207.46,14.179.937,22.1.937,22.1,2.963.129,4.269-.65c.438-.261,1.949-19.474,2.014-24.2s.136-11.245.263-13.289c1.216-19.587,4.206-22.384-.5-36.246-8.815-25.954-21.256-1.947-21.256-1.947" transform="translate(-505.138 -1063.58)" fill="#313657"/>
              <path id="Trazado_213386" data-name="Trazado 213386" d="M642.867,1790.369v4.9h-.609v-3.786Z" transform="translate(-524.287 -1461.51)" fill="#363a5e"/>
              <path id="Trazado_213387" data-name="Trazado 213387" d="M801.362,1790.369v4.9h-.609v-3.786Z" transform="translate(-653.67 -1461.51)" fill="#363a5e"/>
              <path id="Trazado_213388" data-name="Trazado 213388" d="M738.876,1134.1a37.267,37.267,0,0,0,1.375-3.934c.028-.1.054-.2.079-.3.07-.271.134-.545.192-.817.033-.155.063-.309.091-.462a6.476,6.476,0,0,0,0-3.024c-.87-2.569,5.454-.791,5.454-.791s-1.226,6.8,0,9.089-7.192.238-7.192.238" transform="translate(-603.158 -917.68)" fill="#eea886"/>
              <path id="Trazado_213389" data-name="Trazado 213389" d="M689.712,1170.1c.7-.882-4.248-1.189-4.248-1.189l-5.778-.5a51.541,51.541,0,0,0-7.055,1.729c-3.083,1.067-7.121,6.907-7.121,6.907s5.572,13.081,6.639,16.835-1.21,13.306-1.21,13.306c6.679,3.636,19.869.388,19.869.388s-5.258-32.267-1.1-37.477" transform="translate(-543.268 -953.796)" fill="#eddad3"/>
              <path id="Trazado_213390" data-name="Trazado 213390" d="M803.794,1234.491s-.26.548-.972,2.707a43.239,43.239,0,0,1-.346-9.22,22.783,22.783,0,0,0,1.319,6.513" transform="translate(-654.994 -1002.42)" fill="#cfbeb8"/>
              <path id="Trazado_213391" data-name="Trazado 213391" d="M745.674,1167.349l-6.8,5.543.7-5.839s3.965-.856,6.1.3" transform="translate(-603.156 -952.436)" fill="#eea886"/>
              <path id="Trazado_213392" data-name="Trazado 213392" d="M756.208,1193.006c-.936,3.878,3.8,16.017,3.8,16.017l-7.985,2.7a1.7,1.7,0,0,1-2.223-1.314c-.9-5.05-3.234-18.589-3.5-24.592-.328-7.458,5.1-16.256,5.1-16.256,9.651,1.656,7,16.256,7,16.256s-.35.92-.818,2.357h0c-.118.361-.243.755-.372,1.175-.33,1.079-.686,2.332-1,3.651" transform="translate(-609.204 -954.737)" fill="#494f80"/>
              <path id="Trazado_213393" data-name="Trazado 213393" d="M673.833,1168.731l.119-.319a33.153,33.153,0,0,0-7.454,2.006c-2.512,1.255-7.32,7.736-7.32,7.736l6.289,8.3c.007,6.381-2.219,21.352-2.219,21.352l4.371,1.788a1.044,1.044,0,0,0,1.44-.95c.071-4.557.282-18.054.39-23.32.131-6.382,4.684-16.7,4.684-16.7-.1.034-.2.071-.3.107" transform="translate(-538.098 -953.795)" fill="#494f80"/>
              <path id="Trazado_213394" data-name="Trazado 213394" d="M690.181,1310.641a53.783,53.783,0,0,0,5.48,0c.738-.184,5.659-2.318,5.954-4.426s-11.434,1.889-11.434,1.889Z" transform="translate(-563.407 -1065.785)" fill="#eea886"/>
              <path id="Trazado_213395" data-name="Trazado 213395" d="M684.756,1287.171l-19.245-2.253,8.694,7.074Z" transform="translate(-543.269 -1048.902)" fill="#707070"/>
              <path id="Trazado_213396" data-name="Trazado 213396" d="M711.261,1302l10.551-3.6v-1.225l-10.907,3.5Z" transform="translate(-580.325 -1058.913)" fill="#a1a1a1"/>
              <path id="Trazado_213397" data-name="Trazado 213397" d="M720.517,1162.547l-3.655,5.8-1.769,1.115,4.121-5.777Z" transform="translate(-583.744 -949.008)" fill="#fae6de"/>
              <path id="Trazado_213398" data-name="Trazado 213398" d="M724.721,1168.349l2.6,1.115.7-5.839.355-1.077Z" transform="translate(-591.603 -949.008)" fill="#d6c5be"/>
              <path id="Trazado_213399" data-name="Trazado 213399" d="M630.93,1302.459a14.62,14.62,0,0,0,0,2.964s-11.868-1.186-12.975-2.845a7.154,7.154,0,0,1-1.067-3.675Z" transform="translate(-503.577 -1060.318)" fill="#494f80"/>
              <path id="Trazado_213400" data-name="Trazado 213400" d="M593.066,1220.69l-5.611-20.865-21.34-2.252,5.849,19.205Z" transform="translate(-462.13 -977.599)" fill="#a1a1a1"/>
              <path id="Trazado_213401" data-name="Trazado 213401" d="M800.111,1205.781c1.07-.883,1.7-1.206,2.989-2.317,2.007-1.728,4.573-3.916,4.573-3.916l2.438,3.581s-5.9,5.185-9.032,8.263c0,0-3.967,4.26-4.854,3.883s-4.049-4.962-6.575-9.369-3.657-7.222-3.783-9.141,6.228-2.844,6.228-2.844l4.975,10.865a16.081,16.081,0,0,0,1.336,2.024s1.119-.636,1.706-1.029" transform="translate(-641.516 -974.619)" fill="#494f80"/>
              <path id="Trazado_213402" data-name="Trazado 213402" d="M721.421,1046.33a7.624,7.624,0,0,0-8.753,6.032,18.571,18.571,0,0,0,.24,2.917c.244,1.3-1.3,4.871-1.031,5.087a8.177,8.177,0,0,0,1.458.588s.842,4.192,2.265,4.32a11.844,11.844,0,0,0,10.029-5.108c3.105-4.74,4.77-12.367-4.209-13.837" transform="translate(-581.092 -854.067)" fill="#eea886"/>
              <path id="Trazado_213403" data-name="Trazado 213403" d="M716.325,1048.456a20.229,20.229,0,0,0,6.891,3.8c3.545.912,5.422,4.894,5.422,4.894s6.272-6.256,2.487-12.327-14.794-3.364-14.8,3.632" transform="translate(-584.749 -850.161)" fill="#e8734d"/>
              <path id="Trazado_213404" data-name="Trazado 213404" d="M757.394,1097.961s3.711,9.738,3.276,12.085a12.588,12.588,0,0,1,5.252.726s-1.652-17.395-8.528-12.811" transform="translate(-618.275 -895.657)" fill="#e8734d"/>
              <path id="Trazado_213405" data-name="Trazado 213405" d="M740.839,1169.839l-1.965.941,6.678-6.62Z" transform="translate(-603.157 -950.325)" fill="#d6c5be"/>
              <path id="Trazado_213406" data-name="Trazado 213406" d="M754.286,1164.16l-4.713,5.679,2.579,2.3,2.783-6.8Z" transform="translate(-611.89 -950.325)" fill="#fae6de"/>
              <path id="Trazado_213407" data-name="Trazado 213407" d="M750.722,1140.137a8.216,8.216,0,0,1-3.93,2.761c.07-.271.134-.545.192-.817.033-.155.063-.309.091-.462a13.337,13.337,0,0,0,3.647-1.482" transform="translate(-609.62 -930.714)" fill="#a77860"/>
              <path id="Trazado_213408" data-name="Trazado 213408" d="M631.452,1250.561c.594,1.117.584,2.283-.021,2.605s-1.578-.323-2.171-1.44-.584-2.283.022-2.605,1.578.323,2.171,1.44" transform="translate(-513.317 -1019.612)" fill="#828282"/>
              <path id="Trazado_213409" data-name="Trazado 213409" d="M778.765,1170.426a7.394,7.394,0,0,1,8.026,5.664s-7.9-.85-8.026-5.664" transform="translate(-635.72 -955.41)" fill="#494f80"/>
              <g id="Grupo_153341" data-name="Grupo 153341" transform="translate(247.046 35.42)" style="mix-blend-mode: hard-light;isolation: isolate">
                <g id="Grupo_153340" data-name="Grupo 153340">
                  <g id="Grupo_153339" data-name="Grupo 153339" clip-path="url(#clip-path-9)">
                    <path id="Trazado_213410" data-name="Trazado 213410" d="M1435.413,305.962h-83.487a6.96,6.96,0,0,1-6.96-6.96V199.79a6.96,6.96,0,0,1,6.96-6.96h83.487a6.96,6.96,0,0,1,6.96,6.96V299a6.96,6.96,0,0,1-6.96,6.96" transform="translate(-1344.967 -192.83)" fill="#f5f5f5"/>
                  </g>
                </g>
              </g>
              <path id="Trazado_213411" data-name="Trazado 213411" d="M1452.075,374.892a24.892,24.892,0,1,0-46.877,16.765c.188.527.393,1.046.613,1.552a24.893,24.893,0,0,0,46.264-18.317m-17.154,25.956a18.642,18.642,0,0,1-23.4-10.125q-.247-.57-.46-1.164a18.663,18.663,0,1,1,23.858,11.289" transform="translate(-1145.896 -292.548)" fill="#fecd4d"/>
              <path id="Trazado_213412" data-name="Trazado 213412" d="M1415.872,377.761l-5.947-1.857a24.928,24.928,0,0,1,23.019-17.469l.186,6.228a18.69,18.69,0,0,0-17.257,13.1" transform="translate(-1150.948 -292.596)" fill="#9f321d"/>
              <path id="Trazado_213413" data-name="Trazado 213413" d="M1411.524,468.406l-5.713,2.487q-.33-.759-.613-1.552a24.78,24.78,0,0,1-.325-15.8l5.947,1.857a18.58,18.58,0,0,0,.243,11.847q.213.593.46,1.164" transform="translate(-1145.896 -370.231)" fill="#afafaf"/>
              <path id="Trazado_213414" data-name="Trazado 213414" d="M1418.886,543.163a24.76,24.76,0,0,1-3.859-6.2l5.713-2.487a18.549,18.549,0,0,0,2.892,4.646Z" transform="translate(-1155.112 -436.305)" fill="#3788cc"/>
              <path id="Trazado_213415" data-name="Trazado 213415" d="M1719.057,526.672a10.3,10.3,0,1,0-8.808,18.615c.209.1.421.191.633.275a10.3,10.3,0,0,0,8.175-18.89m2.575,12.609a7.712,7.712,0,0,1-9.805,3.882q-.239-.094-.475-.206a7.72,7.72,0,1,1,10.281-3.677" transform="translate(-1391.295 -429.122)" fill="#4aafff"/>
              <path id="Trazado_213416" data-name="Trazado 213416" d="M1707.815,553.951l-2.283,1.2a10.311,10.311,0,0,1,1.623-11.842l1.876,1.767a7.732,7.732,0,0,0-1.217,8.879" transform="translate(-1391.295 -443.509)" fill="#1a598c"/>
              <path id="Trazado_213417" data-name="Trazado 213417" d="M1717.063,604.863l-.944,2.4c-.212-.084-.424-.176-.633-.275a10.249,10.249,0,0,1-4.717-4.527l2.283-1.2a7.685,7.685,0,0,0,3.536,3.394q.236.111.475.206" transform="translate(-1396.532 -490.821)" fill="#2273b5"/>
              <path id="Trazado_213418" data-name="Trazado 213418" d="M1657.751,640.608h-19.228v-.382h18.846v-7.264h.382Z" transform="translate(-1337.556 -516.698)" fill="#e2f3fe"/>
              <rect id="Rectángulo_43090" data-name="Rectángulo 43090" width="17.207" height="2.293" transform="translate(258.977 119.551)" fill="#4aafff"/>
              <rect id="Rectángulo_43091" data-name="Rectángulo 43091" width="10.121" height="2.293" transform="translate(300.967 119.551)" fill="#4aafff"/>
              <rect id="Rectángulo_43092" data-name="Rectángulo 43092" width="8.236" height="1.76" transform="translate(255.079 45.131)" fill="#4aafff"/>
              <rect id="Rectángulo_43093" data-name="Rectángulo 43093" width="12.777" height="1.76" transform="translate(289.411 51.758)" fill="#4aafff"/>
              <rect id="Rectángulo_43094" data-name="Rectángulo 43094" width="7.8" height="1.76" transform="translate(272.89 51.758)" fill="#4aafff"/>
              <rect id="Rectángulo_43095" data-name="Rectángulo 43095" width="15.454" height="1.76" transform="translate(255.079 51.758)" fill="#4aafff"/>
              <rect id="Rectángulo_43096" data-name="Rectángulo 43096" width="12.203" height="1.76" transform="translate(265.822 45.131)" fill="#4aafff"/>
              <rect id="Rectángulo_43097" data-name="Rectángulo 43097" width="3.352" height="1.76" transform="translate(283.132 51.758)" fill="#4aafff"/>
              <rect id="Rectángulo_43098" data-name="Rectángulo 43098" width="9.116" height="1.76" transform="translate(293.073 45.229)" fill="#4aafff"/>
              <rect id="Rectángulo_43099" data-name="Rectángulo 43099" width="7.773" height="1.76" transform="translate(305.44 51.758)" fill="#4aafff"/>
              <rect id="Rectángulo_43100" data-name="Rectángulo 43100" width="9.663" height="1.76" transform="translate(281.025 45.229)" fill="#4aafff"/>
              <path id="Trazado_213419" data-name="Trazado 213419" d="M1563.085,757.2h-15.323a4.645,4.645,0,0,1-4.645-4.645V737.232a4.645,4.645,0,0,1,4.645-4.645h15.323a4.645,4.645,0,0,1,4.645,4.645v15.323a4.645,4.645,0,0,1-4.645,4.645" transform="translate(-1259.675 -598.023)" fill="#fff"/>
              <rect id="Rectángulo_43101" data-name="Rectángulo 43101" width="2.329" height="9.793" transform="translate(294.585 141.974)" fill="#c5ccd1"/>
              <rect id="Rectángulo_43102" data-name="Rectángulo 43102" width="9.793" height="2.329" transform="translate(290.852 145.706)" fill="#c5ccd1"/>
            </g>
          </g>
          <g id="Grupo_153345" data-name="Grupo 153345" transform="translate(350.887 19.85)">
            <g id="Grupo_153344" data-name="Grupo 153344" clip-path="url(#clip-path-10)">
              <rect id="Rectángulo_43104" data-name="Rectángulo 43104" width="31.762" height="21.891" transform="translate(0 0)" fill="url(#linear-gradient-5)"/>
            </g>
          </g>
        </g>
      </g>
    </g>
  </g>
</svg>
