<svg xmlns="http://www.w3.org/2000/svg" xmlns:xlink="http://www.w3.org/1999/xlink" width="295" height="175" viewBox="0 0 295 175">
  <defs>
    <clipPath id="clip-path">
      <rect id="Rectángulo_43865" data-name="Rectángulo 43865" width="295" height="157.359" fill="none"/>
    </clipPath>
    <clipPath id="clip-path-3">
      <path id="Trazado_214208" data-name="Trazado 214208" d="M157.917,68.717C73,72.671,24.727,131.1,22.481,213.851H310.559c-12-77.34-52.92-146.2-134.578-146.2a157.32,157.32,0,0,0-18.064,1.069" transform="translate(-22.481 -67.648)" fill="none"/>
    </clipPath>
    <clipPath id="clip-path-5">
      <rect id="Rectángulo_43855" data-name="Rectángulo 43855" width="48.95" height="55.65" fill="none"/>
    </clipPath>
    <clipPath id="clip-path-6">
      <path id="Trazado_214224" data-name="Trazado 214224" d="M535.945,536.428l1.584,83.015h5.583l11.7-83.2Z" transform="translate(-535.945 -536.241)" fill="none"/>
    </clipPath>
    <clipPath id="clip-path-8">
      <path id="Trazado_214227" data-name="Trazado 214227" d="M648.645,585.045l.057.009-5.75,33.3,5.575,1.77,9.365-27.641c3.466-7.592,2.2-47.381,2.915-56.058l-18.87-.187Z" transform="translate(-641.937 -536.241)" fill="none"/>
    </clipPath>
    <clipPath id="clip-path-10">
      <path id="Trazado_214234" data-name="Trazado 214234" d="M639.99,97.943c.162,10.413,12.854,10.411,13.015,0-.081-5.206-3.294-7.808-6.507-7.809s-6.427,2.6-6.507,7.809" transform="translate(-639.99 -90.134)" fill="none"/>
    </clipPath>
    <clipPath id="clip-path-12">
      <path id="Trazado_214258" data-name="Trazado 214258" d="M1584.1,522.5c1.293,8.619,1.875,47.306,6.922,54.415l12.786,26.234,5.306-2.461-9.917-32.307.056-.016,3.1-49.83Z" transform="translate(-1584.104 -518.539)" fill="none"/>
    </clipPath>
    <clipPath id="clip-path-14">
      <path id="Trazado_214261" data-name="Trazado 214261" d="M1262.971,252.081l16.2,16.6a7.352,7.352,0,0,0,3.689,1.963c2.966.973,10.453-3.03,13.25-3.814l-4.561-8.646-7.281,2.906-19.055-13.181Z" transform="translate(-1262.971 -247.907)" fill="none"/>
    </clipPath>
    <clipPath id="clip-path-16">
      <path id="Trazado_214266" data-name="Trazado 214266" d="M1560.411,111.343c2.142,10.19,14.6,7.773,12.776-2.48-.944-4.493-3.894-6.535-6.742-6.535-3.61,0-7.054,3.283-6.034,9.015" transform="translate(-1560.229 -102.328)" fill="none"/>
    </clipPath>
    <clipPath id="clip-path-18">
      <path id="Trazado_214279" data-name="Trazado 214279" d="M1771.5,391.879l7.132,6.2c5.719,2.208,29.961,14.12,35.425,15.881a4.282,4.282,0,0,0,3.793-1.544c.237-.3-4.375-3.027-4.375-3.027s2.831-.119,3.187-.712-6.388-1-6.388-1c-4.292-2.922-29.085-17.516-31.509-21.74Z" transform="translate(-1771.499 -385.938)" fill="#eea886"/>
    </clipPath>
  </defs>
  <g id="Grupo_153711" data-name="Grupo 153711" transform="translate(-390 -2470)">
    <g id="Grupo_80142" data-name="Grupo 80142" transform="translate(199.957 2258.074)">
      <path id="Trazado_190764" data-name="Trazado 190764" d="M314.177,292.445a2.861,2.861,0,1,1-2.86-2.86,2.86,2.86,0,0,1,2.86,2.86" transform="translate(-109.14 -56)" fill="#191a1a"/>
      <path id="Trazado_190765" data-name="Trazado 190765" d="M314.177,277.786a2.861,2.861,0,1,1-2.86-2.86,2.86,2.86,0,0,1,2.86,2.86" transform="translate(-109.14 -56)" fill="#191a1a"/>
      <path id="Trazado_190766" data-name="Trazado 190766" d="M329.227,292.445a2.86,2.86,0,1,1-2.86-2.86,2.86,2.86,0,0,1,2.86,2.86" transform="translate(-109.14 -56)" fill="#191a1a"/>
      <path id="Trazado_190767" data-name="Trazado 190767" d="M329.227,277.786a2.86,2.86,0,1,1-2.86-2.86,2.86,2.86,0,0,1,2.86,2.86" transform="translate(-109.14 -56)" fill="#191a1a"/>
      <path id="Trazado_190768" data-name="Trazado 190768" d="M342.85,292.445a2.861,2.861,0,1,1-2.86-2.86,2.86,2.86,0,0,1,2.86,2.86" transform="translate(-109.14 -56)" fill="#191a1a"/>
      <path id="Trazado_190769" data-name="Trazado 190769" d="M342.85,277.786a2.861,2.861,0,1,1-2.86-2.86,2.86,2.86,0,0,1,2.86,2.86" transform="translate(-109.14 -56)" fill="#191a1a"/>
    </g>
    <g id="Grupo_153683" data-name="Grupo 153683" transform="translate(390 2487.642)">
      <g id="Enmascarar_grupo_153682" data-name="Enmascarar grupo 153682" clip-path="url(#clip-path)">
        <g id="Grupo_153646" data-name="Grupo 153646" transform="translate(0 0)">
          <g id="Grupo_153645" data-name="Grupo 153645" clip-path="url(#clip-path)">
            <path id="Trazado_214205" data-name="Trazado 214205" d="M22.481,216.921H310.559C297.7,132.335,251.668,57.682,157.917,68.739,73,72.777,24.727,132.431,22.481,216.921" transform="translate(-19.794 -59.562)" fill="#f3e6e3"/>
          </g>
        </g>
        <g id="Grupo_153653" data-name="Grupo 153653" transform="translate(0 0)">
          <g id="Grupo_153652" data-name="Grupo 153652" clip-path="url(#clip-path)">
            <path id="Trazado_214209" data-name="Trazado 214209" d="M1079.157,910.8a3.183,3.183,0,0,1-3.648-3.471l3.648-35.59,6.5-.994-3.817,37.233a3.183,3.183,0,0,1-2.685,2.822" transform="translate(-946.942 -766.665)" fill="#636363"/>
            <path id="Trazado_214210" data-name="Trazado 214210" d="M929.85,875.4c-2.449.177-3.6-3-3.014-3.989L941.415,819h6.5l-15.05,54.1a3.133,3.133,0,0,1-3.018,2.293" transform="translate(-815.923 -721.107)" fill="#636363"/>
            <path id="Trazado_214211" data-name="Trazado 214211" d="M1296.875,875.4a3.133,3.133,0,0,0,3.018-3.973L1285.31,819h-6.5l15.05,54.1a3.133,3.133,0,0,0,3.018,2.293" transform="translate(-1125.954 -721.107)" fill="#636363"/>
            <path id="Trazado_214212" data-name="Trazado 214212" d="M888.019,343.069c-5.933-56.146-101.519-63.888-96.857.555,5.934,56.144,101.52,63.885,96.857-.555" transform="translate(-696.451 -262.456)" fill="#55170b"/>
            <path id="Trazado_214213" data-name="Trazado 214213" d="M868.48,349.993c-59.189,1.249-78.906-88.23-11.389-91.836,59.187-1.248,78.9,88.231,11.389,91.836" transform="translate(-717.203 -227.288)" fill="#9f321d"/>
            <path id="Trazado_214214" data-name="Trazado 214214" d="M945.306,414.273c-46.178.974-61.561-68.836-8.886-71.649,46.177-.973,61.56,68.836,8.886,71.649" transform="translate(-795.281 -301.662)" fill="#fff"/>
            <path id="Trazado_214215" data-name="Trazado 214215" d="M1022.13,478.553c-33.168.7-44.216-49.441-6.382-51.462,33.166-.7,44.216,49.442,6.382,51.462" transform="translate(-873.357 -376.035)" fill="#9f321d"/>
            <path id="Trazado_214216" data-name="Trazado 214216" d="M1098.955,542.833c-20.157.425-26.872-30.047-3.879-31.275,20.156-.425,26.871,30.048,3.879,31.275" transform="translate(-951.434 -450.408)" fill="#fff"/>
            <path id="Trazado_214217" data-name="Trazado 214217" d="M1180.6,602.125c.569,7.783-10.985,6.847-11.694.067-.569-7.783,10.985-6.847,11.694-.067" transform="translate(-1029.176 -525.371)" fill="#9f321d"/>
            <g id="Grupo_153651" data-name="Grupo 153651" transform="translate(145.582 31.149)" style="mix-blend-mode: color-burn;isolation: isolate">
              <g id="Grupo_153650" data-name="Grupo 153650">
                <g id="Grupo_153649" data-name="Grupo 153649" clip-path="url(#clip-path-5)">
                  <path id="Trazado_214218" data-name="Trazado 214218" d="M1217.979,260.6s15.57,52.894,48.479,55.649c3.154-10.386-9.184-52.539-48.479-55.649" transform="translate(-1217.979 -260.601)" fill="#f08f3c"/>
                </g>
              </g>
            </g>
            <path id="Trazado_214219" data-name="Trazado 214219" d="M1139.114,185.653a2.537,2.537,0,0,0,1.23-1.2c.847-1.738,2.829-5.659,3.558-5.829.938-.219-2.29,8.073-1.259,7.7.76-.278,1.886-1.8,2.743-1.682s.111,1.664-.908,3.073c-.654.9-4.872,2.945-4.872,2.945l-1.683-4.46Z" transform="translate(-1001.91 -157.271)" fill="#eea886"/>
            <path id="Trazado_214220" data-name="Trazado 214220" d="M257.275,16.264s-.338-4.854-1.362-5.506-5.167-1.3-5.912-.233-1.257,4.422-.838,4.888,4.777,3.77,4.777,3.77Z" transform="translate(-219.25 -8.766)" fill="#eea886"/>
            <path id="Trazado_214221" data-name="Trazado 214221" d="M650.911,1229.351c.154-1.978-2.842-2.532-4.137-3.22l-2.6-1.875-.132-2.241-4.534-1.009-2.029,6.712,7.338,1.633.02-.029Z" transform="translate(-561.279 -1075.063)" fill="#152e60"/>
            <path id="Trazado_214222" data-name="Trazado 214222" d="M535.946,536.428l1.584,83.014h5.583l11.7-83.2Z" transform="translate(-471.886 -472.145)" fill="#888080"/>
          </g>
        </g>
        <g id="Grupo_153655" data-name="Grupo 153655" transform="translate(64.06 64.095)">
          <g id="Grupo_153654" data-name="Grupo 153654" clip-path="url(#clip-path-6)">
            <path id="Trazado_214223" data-name="Trazado 214223" d="M585.1,722.787c-8.113,10.777-10.556,46.519-11.2,62.031h4.9l6.058-38.032Z" transform="translate(-569.364 -700.49)" fill="#636363"/>
          </g>
        </g>
        <g id="Grupo_153657" data-name="Grupo 153657" transform="translate(0 0)">
          <g id="Grupo_153656" data-name="Grupo 153656" clip-path="url(#clip-path)">
            <path id="Trazado_214225" data-name="Trazado 214225" d="M641.937,536.241l6.708,48.8.057.009-5.75,33.3,5.575,1.77,9.365-27.641c1.636-3.583,2.459-25.917,2.459-25.917s.081-25.559.456-30.141Z" transform="translate(-565.208 -472.145)" fill="#888080"/>
          </g>
        </g>
        <g id="Grupo_153659" data-name="Grupo 153659" transform="translate(76.729 64.095)">
          <g id="Grupo_153658" data-name="Grupo 153658" clip-path="url(#clip-path-8)">
            <path id="Trazado_214226" data-name="Trazado 214226" d="M635.386,722.787c12.618,33.883,8.627,27.98.025,60.9l-4.4-1.353,5.357-34.767Z" transform="translate(-632.321 -700.49)" fill="#636363"/>
          </g>
        </g>
        <g id="Grupo_153661" data-name="Grupo 153661" transform="translate(0 0)">
          <g id="Grupo_153660" data-name="Grupo 153660" clip-path="url(#clip-path)">
            <path id="Trazado_214228" data-name="Trazado 214228" d="M493.855,1232.327l-.616,2.158-6.656,2.852a2.156,2.156,0,0,0-1.307,1.982h13.746l-.521-6.992Z" transform="translate(-427.272 -1085.03)" fill="#152e60"/>
            <path id="Trazado_214229" data-name="Trazado 214229" d="M537.093,606.871h31.244l-31.108,6.044Z" transform="translate(-472.896 -534.333)" fill="#636363"/>
            <path id="Trazado_214230" data-name="Trazado 214230" d="M325.723,73.223l-22.952-4.278-19-21.823-5.2,4.548,16.089,25.865a7.319,7.319,0,0,0,4.03,3.119l20.36,4.379Z" transform="translate(-245.282 -41.489)" fill="#d2e1f1"/>
            <path id="Trazado_214231" data-name="Trazado 214231" d="M731.465,103.977c.458.455,2.213,4.06.877,6.154l-2.244-4.944Z" transform="translate(-642.832 -91.549)" fill="#1a1949"/>
            <path id="Trazado_214232" data-name="Trazado 214232" d="M639.99,97.943c.162,10.412,12.854,10.411,13.015,0-.162-10.412-12.854-10.411-13.015,0" transform="translate(-563.494 -79.36)" fill="#eea886"/>
          </g>
        </g>
        <g id="Grupo_153663" data-name="Grupo 153663" transform="translate(76.496 10.773)">
          <g id="Grupo_153662" data-name="Grupo 153662" clip-path="url(#clip-path-10)">
            <path id="Trazado_214233" data-name="Trazado 214233" d="M668.178,111.007s-7.328,2.346-9.839-1.158h0l8.43-1.931Z" transform="translate(-655.163 -105.792)" fill="#d99574"/>
          </g>
        </g>
        <g id="Grupo_153665" data-name="Grupo 153665" transform="translate(0 0)">
          <g id="Grupo_153664" data-name="Grupo 153664" clip-path="url(#clip-path)">
            <path id="Trazado_214235" data-name="Trazado 214235" d="M635.306,151.1s.637,12.221-.652,15.842a15.431,15.431,0,0,0,8.041,0s-2.517-10.433-2.026-12.827Z" transform="translate(-558.796 -133.041)" fill="#eea886"/>
            <path id="Trazado_214236" data-name="Trazado 214236" d="M665.345,210.286a5.791,5.791,0,0,1-3.2-1.5s.4,3.3,3.57,3.489Z" transform="translate(-582.999 -183.828)" fill="#d99574"/>
            <path id="Trazado_214237" data-name="Trazado 214237" d="M650.687,69.818c-1.505.668-9.046,2.261-11.308-.322,0,0-1.525-2.949.358-4.038s11.621-1.94,11.621-1.94,1.058,4.79-.671,6.3" transform="translate(-562.443 -55.927)" fill="#59445a"/>
            <path id="Trazado_214238" data-name="Trazado 214238" d="M623.752,99.805c1.232,5.055-.063,6.286-2.79,9.963-1.847-3.783-5.011-6.865-.3-11.064Z" transform="translate(-544.306 -86.906)" fill="#59445a"/>
            <path id="Trazado_214239" data-name="Trazado 214239" d="M638.8,147.779a1.659,1.659,0,0,0,3.318,0,1.659,1.659,0,0,0-3.318,0" transform="translate(-562.443 -128.683)" fill="#eea886"/>
            <path id="Trazado_214240" data-name="Trazado 214240" d="M548.837,263.1c-1.255-8.346-7.628-12.53-14.772-11.6-5.673,0-10.534,4.883-11.552,11.6l-4.656,30.755h35.637Z" transform="translate(-455.959 -221.32)" fill="#d2e1f1"/>
            <path id="Trazado_214241" data-name="Trazado 214241" d="M635.924,248.684a3.841,3.841,0,0,0,7.427,0,9.188,9.188,0,0,0-7.427,0" transform="translate(-559.914 -218.286)" fill="#eea886"/>
            <path id="Trazado_214242" data-name="Trazado 214242" d="M627,254.311l3.543,2.871-1.467.927c-2.359,1.221-2.709-2-3.288-3.453a5.137,5.137,0,0,1,1.212-.345" transform="translate(-550.986 -223.914)" fill="#fff"/>
            <path id="Trazado_214243" data-name="Trazado 214243" d="M673,257.115l1.38.856a1.626,1.626,0,0,0,2.454-1.073l.428-2.216s-.967-.321-1.265-.369Z" transform="translate(-592.555 -223.915)" fill="#fff"/>
            <path id="Trazado_214244" data-name="Trazado 214244" d="M648.253,277.828l-2.35,21,3.237,5.961,2.666-5.981-2.664-21.053Z" transform="translate(-568.7 -244.559)" fill="#9f321d"/>
            <path id="Trazado_214245" data-name="Trazado 214245" d="M724.732,241.22l22.259,7.044,27.042-10.295,2.438,6.46-26.384,15.229a7.321,7.321,0,0,1-5.025.852l-14.417-2.739Z" transform="translate(-638.107 -209.525)" fill="#d2e1f1"/>
            <path id="Trazado_214246" data-name="Trazado 214246" d="M777.932,351.894l-1.037-7.317,14.1,9.8Z" transform="translate(-684.035 -303.39)" fill="#b0c0d2"/>
            <path id="Trazado_214247" data-name="Trazado 214247" d="M460.044,311.857l.851-5.111-13.988,2.5Z" transform="translate(-393.49 -270.081)" fill="#b0c0d2"/>
            <path id="Trazado_214248" data-name="Trazado 214248" d="M266.857,18.482s4.029.484,3.683,1.947a3.349,3.349,0,0,1-3.683,2.748,3.894,3.894,0,0,0,2.567.954c1.527-.037,2.44-3.549,1.871-4.318-1.075-1.453-4.439-1.33-4.439-1.33" transform="translate(-234.96 -16.271)" fill="#d99574"/>
            <path id="Trazado_214249" data-name="Trazado 214249" d="M1914.832,15.078c-10.7,2.418-12.662,4.378-15.08,15.08-2.418-10.7-4.378-12.662-15.08-15.08,10.7-2.418,12.662-4.378,15.08-15.08,2.418,10.7,4.378,12.662,15.08,15.08" transform="translate(-1659.403 0.002)" fill="#fff5db"/>
            <path id="Trazado_214250" data-name="Trazado 214250" d="M1807.689,17.346c-4.908,1.109-5.807,2.008-6.916,6.916-1.109-4.908-2.008-5.807-6.916-6.916,4.908-1.109,5.807-2.008,6.916-6.916,1.109,4.908,2.008,5.807,6.916,6.916" transform="translate(-1579.442 -9.183)" fill="#fff5db"/>
            <path id="Trazado_214251" data-name="Trazado 214251" d="M41.14,310.548c2.7-9.756,1.96-12.2-5.688-18.835,9.755,2.7,12.2,1.96,18.835-5.688-2.7,9.755-1.96,12.2,5.688,18.835-9.756-2.7-12.2-1.96-18.835,5.688" transform="translate(-31.215 -251.838)" fill="#fff5db"/>
            <path id="Trazado_214252" data-name="Trazado 214252" d="M210,248.656c1.238-4.474.9-5.6-2.609-8.639,4.475,1.238,5.6.9,8.639-2.609-1.238,4.474-.9,5.6,2.609,8.639-4.474-1.238-5.6-.9-8.639,2.609" transform="translate(-182.605 -209.032)" fill="#fff5db"/>
            <path id="Trazado_214253" data-name="Trazado 214253" d="M2115.6,928.65l-3.386-.293.54-5.25,4.217.757c4.06,2.5,1.421,4.048-1.371,4.786" transform="translate(-1859.747 -812.771)" fill="#f4d2c6"/>
            <path id="Trazado_214254" data-name="Trazado 214254" d="M2139.547,935.325l1.929-13.273a10.185,10.185,0,0,0-6.249.276c3.5.433,2.554,3.7.564,4.946,0,0,.4,7.407,3.756,8.051" transform="translate(-1880.01 -811.513)" fill="#152e60"/>
            <path id="Trazado_214255" data-name="Trazado 214255" d="M1686.811,554.213l-4.626-42.764-18.742,2.2,11.672,42.747a11.542,11.542,0,0,0,4.327,6.28c3.213,3.851,33.74,2.694,38.47,3.528l1-5.493Z" transform="translate(-1464.617 -450.317)" fill="#324d90"/>
            <path id="Trazado_214256" data-name="Trazado 214256" d="M1602.362,518.539l-3.1,49.83-.056.017,9.917,32.307-5.306,2.461-12.786-26.234c-5.048-7.109-5.629-45.8-6.922-54.415Z" transform="translate(-1394.761 -456.559)" fill="#324d90"/>
          </g>
        </g>
        <g id="Grupo_153667" data-name="Grupo 153667" transform="translate(189.343 61.979)">
          <g id="Grupo_153666" data-name="Grupo 153666" clip-path="url(#clip-path-12)">
            <path id="Trazado_214257" data-name="Trazado 214257" d="M1682.885,803.721l-.326.148s-12.182-28.831-12.821-30.884,6.278-25.209,6.278-25.209l1.019,20.386,9.712,33.81-3.864,1.751" transform="translate(-1659.466 -720.375)" fill="#2a437d"/>
          </g>
        </g>
        <g id="Grupo_153669" data-name="Grupo 153669" transform="translate(0 0)">
          <g id="Grupo_153668" data-name="Grupo 153668" clip-path="url(#clip-path)">
            <path id="Trazado_214259" data-name="Trazado 214259" d="M1291.552,258.182l-7.281,2.906-19.055-13.181-2.245,4.174,16.2,16.6a7.353,7.353,0,0,0,3.689,1.963c2.966.973,10.453-3.03,13.25-3.814Z" transform="translate(-1112.012 -218.275)" fill="#eea886"/>
          </g>
        </g>
        <g id="Grupo_153671" data-name="Grupo 153671" transform="translate(150.959 29.632)">
          <g id="Grupo_153670" data-name="Grupo 153670" clip-path="url(#clip-path-14)">
            <path id="Trazado_214260" data-name="Trazado 214260" d="M1457.5,324.709l1.525,13.509,9.085-4.974-6.3-11.1Z" transform="translate(-1434.248 -313.268)" fill="#d99574"/>
          </g>
        </g>
        <g id="Grupo_153673" data-name="Grupo 153673" transform="translate(0 0)">
          <g id="Grupo_153672" data-name="Grupo 153672" clip-path="url(#clip-path)">
            <path id="Trazado_214262" data-name="Trazado 214262" d="M1606.477,51.053c-.077,4.536-6.825,4.535-6.9,0,.078-4.536,6.825-4.535,6.9,0" transform="translate(-1408.382 -41.956)" fill="#59445a"/>
            <path id="Trazado_214263" data-name="Trazado 214263" d="M1545.612,101.445c-5.672,2.166-6.369,8.034-1.449,11.491,1.6-1.865,6.542-8.643,1.449-11.491" transform="translate(-1356.699 -89.319)" fill="#59445a"/>
            <path id="Trazado_214264" data-name="Trazado 214264" d="M1573.187,108.863c1.825,10.253-10.634,12.67-12.776,2.48-1.825-10.252,10.634-12.669,12.776-2.48" transform="translate(-1373.74 -90.097)" fill="#eea886"/>
          </g>
        </g>
        <g id="Grupo_153675" data-name="Grupo 153675" transform="translate(186.49 12.231)">
          <g id="Grupo_153674" data-name="Grupo 153674" clip-path="url(#clip-path-16)">
            <path id="Trazado_214265" data-name="Trazado 214265" d="M1555.311,88.246c9.311,4.448,14.085-2.351,5.134-8.354-2.148,2.383-4.492,5.124-5.134,8.354" transform="translate(-1555.899 -82.574)" fill="#d99574"/>
          </g>
        </g>
        <g id="Grupo_153677" data-name="Grupo 153677" transform="translate(0 0)">
          <g id="Grupo_153676" data-name="Grupo 153676" clip-path="url(#clip-path)">
            <path id="Trazado_214267" data-name="Trazado 214267" d="M1633.137,152.741s1.7,12.118,3.659,15.427a15.432,15.432,0,0,1-7.894,1.532s.483-10.722-.455-12.978Z" transform="translate(-1433.803 -134.484)" fill="#eea886"/>
            <path id="Trazado_214268" data-name="Trazado 214268" d="M1633.149,215.648a5.791,5.791,0,0,0,2.857-2.085s.241,3.314-2.84,4.1Z" transform="translate(-1437.943 -188.036)" fill="#d99574"/>
            <path id="Trazado_214269" data-name="Trazado 214269" d="M1574.962,88.5s.4,3.847,5.213,4.38l-1.884-1.832s3.193,2.64,5.81,3.217a3.335,3.335,0,0,1,2.718,3c7.7-10.193-10.531-18.106-11.856-8.763" transform="translate(-1386.711 -74.255)" fill="#59445a"/>
            <path id="Trazado_214270" data-name="Trazado 214270" d="M1522.49,269.248l-11.708-11.125a11.819,11.819,0,0,0-13.1-2.6L1479,264.068l5.827,11.045,5.422-2.219-1.079,21.09c18.338,9.637,32.924-4.2,32.924-4.2L1517,273.671Z" transform="translate(-1302.219 -224.137)" fill="#fecd4d"/>
            <path id="Trazado_214271" data-name="Trazado 214271" d="M1721.894,389.467l-3.927,3.267-6.261-6.653,13.609,20.868,1.669-1.366Z" transform="translate(-1507.11 -339.933)" fill="#c29728"/>
            <path id="Trazado_214272" data-name="Trazado 214272" d="M1533.071,332.433a62.6,62.6,0,0,1,1.295-10.292,20.68,20.68,0,0,0-6.62,12.472Z" transform="translate(-1345.138 -283.636)" fill="#c29728"/>
            <path id="Trazado_214273" data-name="Trazado 214273" d="M1615.195,255.682c2.956-2.23,8.232-2.987,11.536-1.188-2.223,1.356-9.531,5.694-11.536,1.188" transform="translate(-1422.135 -223.192)" fill="#eea886"/>
            <path id="Trazado_214274" data-name="Trazado 214274" d="M1236.79,192.031a2.536,2.536,0,0,1-.97-1.417c-.488-1.871-1.658-6.105-2.339-6.416-.876-.4.654,8.366-.282,7.793-.69-.422-1.494-2.138-2.358-2.19s-.437,1.609.285,3.191c.463,1.015,4.2,3.848,4.2,3.848l2.529-4.041Z" transform="translate(-1083.298 -162.169)" fill="#eea886"/>
            <path id="Trazado_214275" data-name="Trazado 214275" d="M1754.807,1211.144l-1.48-3.059,4.787-2.221,1.507,4.011c-.072,4.767-2.752,3.291-4.814,1.269" transform="translate(-1543.757 -1061.73)" fill="#f4d2c6"/>
            <path id="Trazado_214276" data-name="Trazado 214276" d="M1703.575,1245.562h13.243a1.065,1.065,0,0,0,.98-1.482l-1.983-4.662c.074,3.523-3.3,3.06-4.814,1.27,0,0-7.272,1.461-7.427,4.875" transform="translate(-1499.952 -1091.274)" fill="#152e60"/>
            <path id="Trazado_214277" data-name="Trazado 214277" d="M1813.475,409.386s2.831-.119,3.187-.712-6.388-1-6.388-1c-4.292-2.922-29.085-17.516-31.509-21.74l-7.266,5.941,7.132,6.2c5.719,2.208,29.961,14.119,35.425,15.88a4.281,4.281,0,0,0,3.793-1.544c.237-.3-4.374-3.027-4.374-3.027" transform="translate(-1559.757 -339.807)" fill="#eea886"/>
          </g>
        </g>
        <g id="Grupo_153679" data-name="Grupo 153679" transform="translate(211.742 46.13)">
          <g id="Grupo_153678" data-name="Grupo 153678" clip-path="url(#clip-path-18)">
            <path id="Trazado_214278" data-name="Trazado 214278" d="M1765.382,376.247l-5.262,9.657-5.836-5.264,8.843-6.88Z" transform="translate(-1756.342 -375.216)" fill="#d99574"/>
          </g>
        </g>
        <g id="Grupo_153681" data-name="Grupo 153681" transform="translate(0 0)">
          <g id="Grupo_153680" data-name="Grupo 153680" clip-path="url(#clip-path)">
            <path id="Trazado_214280" data-name="Trazado 214280" d="M1688.742,566.911a33.47,33.47,0,0,0,16.354-6.245l.906,8.378s-11,2.447-17.26-2.133" transform="translate(-1486.892 -493.651)" fill="#2a437d"/>
            <path id="Trazado_214281" data-name="Trazado 214281" d="M1338.229,392.355l8.89-8.444-1.921-7.483-9.031,8.578Z" transform="translate(-1176.459 -331.434)" fill="#afafaf"/>
            <path id="Trazado_214282" data-name="Trazado 214282" d="M1358.08,452.381l8.89-8.444,7.374,2.3-9.031,8.578Z" transform="translate(-1195.753 -390.874)" fill="#afafaf"/>
            <rect id="Rectángulo_43863" data-name="Rectángulo 43863" width="35.183" height="1.858" transform="matrix(0.725, -0.689, 0.689, 0.725, 144.789, 76.326)" fill="#152e60"/>
            <path id="Trazado_214283" data-name="Trazado 214283" d="M2136.487,1043.506c-.5-.173-21-6.915-36.3-17.689l.1-.136c14.373,10.167,34.009,16.912,35.951,17.565-.6-1.886-6.491-20.331-13.085-32.513l.147-.079c7.017,13.026,13.041,32.37,13.195,32.853" transform="translate(-1849.154 -889.853)" fill="#636363"/>
            <path id="Trazado_214284" data-name="Trazado 214284" d="M2320.083,1192.424s.99-6.324-3.7-9.826a9.384,9.384,0,0,0,3.7,9.826" transform="translate(-2039.297 -1041.245)" fill="#636363"/>
            <path id="Trazado_214285" data-name="Trazado 214285" d="M2389.7,1185.143s4.013-4.987,1.695-10.362a9.383,9.383,0,0,0-1.695,10.362" transform="translate(-2103.276 -1034.363)" fill="#636363"/>
            <path id="Trazado_214286" data-name="Trazado 214286" d="M2307.923,1208.413s-4.719-4.325-10.232-2.358a9.383,9.383,0,0,0,10.232,2.358" transform="translate(-2023.055 -1061.447)" fill="#636363"/>
            <path id="Trazado_214287" data-name="Trazado 214287" d="M2303.441,1160.867s-3.985-3.652-8.64-1.991a7.923,7.923,0,0,0,8.64,1.991" transform="translate(-2020.51 -1019.978)" fill="#636363"/>
            <path id="Trazado_214288" data-name="Trazado 214288" d="M2371.585,1137.215s4.3-3.269,3.5-8.146a7.923,7.923,0,0,0-3.5,8.146" transform="translate(-2087.981 -994.114)" fill="#636363"/>
            <path id="Trazado_214289" data-name="Trazado 214289" d="M2351.815,1096.428s3.536-2.686,2.875-6.692a6.509,6.509,0,0,0-2.875,6.692" transform="translate(-2070.598 -959.483)" fill="#636363"/>
            <path id="Trazado_214290" data-name="Trazado 214290" d="M2335.683,1061.123s2.952-2.242,2.4-5.587a5.434,5.434,0,0,0-2.4,5.587" transform="translate(-2056.412 -929.371)" fill="#636363"/>
            <path id="Trazado_214291" data-name="Trazado 214291" d="M2288.406,1072.954s2.211,2.169,4.909,1.308a4.54,4.54,0,0,0-4.909-1.308" transform="translate(-2014.88 -944.472)" fill="#636363"/>
            <path id="Trazado_214292" data-name="Trazado 214292" d="M2319.668,1031.734a4.5,4.5,0,0,0-.819,4.235,3.855,3.855,0,0,0,.819-4.235" transform="translate(-2041.458 -908.414)" fill="#636363"/>
            <path id="Trazado_214293" data-name="Trazado 214293" d="M2287.127,1043.33a3.891,3.891,0,0,0-3.561-1.113,3.334,3.334,0,0,0,3.561,1.113" transform="translate(-2010.618 -917.546)" fill="#636363"/>
            <path id="Trazado_214294" data-name="Trazado 214294" d="M2306.371,1017.489a3.3,3.3,0,0,0,.512-3.12,2.826,2.826,0,0,0-.512,3.12" transform="translate(-2030.46 -893.124)" fill="#636363"/>
            <path id="Trazado_214295" data-name="Trazado 214295" d="M2286.792,997.224a3.3,3.3,0,0,0-1.377-2.847,2.826,2.826,0,0,0,1.377,2.847" transform="translate(-2012.222 -875.522)" fill="#636363"/>
            <path id="Trazado_214296" data-name="Trazado 214296" d="M2297.491,1109.474s2.475,2.886,5.865,2.119a5.573,5.573,0,0,0-5.865-2.119" transform="translate(-2022.879 -976.7)" fill="#636363"/>
            <path id="Trazado_214297" data-name="Trazado 214297" d="M2278.01,1183.438s.872-5.571-3.26-8.657a8.266,8.266,0,0,0,3.26,8.657" transform="translate(-2002.666 -1034.363)" fill="#636363"/>
            <path id="Trazado_214298" data-name="Trazado 214298" d="M2257.863,1249.142s-5.156-2.283-9.205.911a8.266,8.266,0,0,0,9.205-.911" transform="translate(-1979.882 -1099.139)" fill="#636363"/>
            <path id="Trazado_214299" data-name="Trazado 214299" d="M2200.68,1226.7s-5.315-1.884-9.109,1.609a8.267,8.267,0,0,0,9.109-1.609" transform="translate(-1929.619 -1079.631)" fill="#636363"/>
            <path id="Trazado_214300" data-name="Trazado 214300" d="M2166.337,1205.816s-4.461-1.3-7.417,1.755a6.811,6.811,0,0,0,7.417-1.755" transform="translate(-1900.87 -1061.446)" fill="#636363"/>
            <path id="Trazado_214301" data-name="Trazado 214301" d="M2134.726,1183.19s-3.513-1.022-5.841,1.382a5.364,5.364,0,0,0,5.841-1.382" transform="translate(-1874.426 -1041.577)" fill="#636363"/>
            <path id="Trazado_214302" data-name="Trazado 214302" d="M2109.054,1161.779a4.439,4.439,0,0,0-4.142.98,3.8,3.8,0,0,0,4.142-.98" transform="translate(-1853.318 -1022.78)" fill="#636363"/>
            <path id="Trazado_214303" data-name="Trazado 214303" d="M2231.64,1170.63s.754-4.817-2.819-7.484a7.147,7.147,0,0,0,2.819,7.484" transform="translate(-1962.253 -1024.118)" fill="#636363"/>
            <path id="Trazado_214304" data-name="Trazado 214304" d="M2189.268,1155.508s.641-4.1-2.4-6.366a6.079,6.079,0,0,0,2.4,6.366" transform="translate(-1925.341 -1011.788)" fill="#636363"/>
            <path id="Trazado_214305" data-name="Trazado 214305" d="M2147.022,1142.418a5.047,5.047,0,0,0-1.705-4.528,4.324,4.324,0,0,0,1.705,4.528" transform="translate(-1888.794 -1001.881)" fill="#636363"/>
            <path id="Trazado_214306" data-name="Trazado 214306" d="M2096.779,1127.011a5.046,5.046,0,0,0-3.465-3.377,4.324,4.324,0,0,0,3.465,3.377" transform="translate(-1843.106 -989.329)" fill="#636363"/>
            <path id="Trazado_214307" data-name="Trazado 214307" d="M2327.009,1242.634c-1.225-4.393,16.847-12.294,14.35-.064Z" transform="translate(-2048.816 -1088.302)" fill="#636363"/>
            <path id="Trazado_214308" data-name="Trazado 214308" d="M236.366,1078.537c-2.951,5.08-1.4,8.5-1.4,8.5,3.9-4.432,1.4-8.5,1.4-8.5" transform="translate(-206.524 -949.622)" fill="#636363"/>
            <path id="Trazado_214309" data-name="Trazado 214309" d="M278.215,1063.449c-2.481,4.272-1.175,7.145-1.175,7.145,3.278-3.727,1.175-7.145,1.175-7.145" transform="translate(-243.624 -936.338)" fill="#636363"/>
            <path id="Trazado_214310" data-name="Trazado 214310" d="M56.463,950.228c-4.045.29-5.39,2.5-5.39,2.5l.1.01q-2.092.96-4.111,2.024a4.953,4.953,0,0,0,.79-5.657c-1.8,3.095-1.173,5.294-1,5.768A113.013,113.013,0,0,0,33.8,963.056l.007.005q-.715.518-1.4,1.03c3.867-5.023,1.128-9.474,1.128-9.474-3.07,5.285-2.049,9.059-1.74,9.933-1.966,1.482-3.754,2.917-5.333,4.237,4.018-5.1,2.683-9.764,1.925-11.529a11.239,11.239,0,0,0,.606-1.008s-4.977-.97-7.509,4.479q.147-1.244.28-2.523h.009c.058-.815.161-1.641.223-2.467a7.4,7.4,0,0,0,6.016-4.1,5.6,5.6,0,0,0-5.974,3.6c.117-1.437.21-2.879.271-4.3a6.525,6.525,0,0,0,5.211-3.6,4.91,4.91,0,0,0-5.189,3.021q.027-.727.041-1.443l.078.013a10.66,10.66,0,0,1-.065-1.923,5.167,5.167,0,0,0,4.226-2.867,3.932,3.932,0,0,0-4.228,2.628c-.007-.7-.025-1.395-.055-2.07h.006c-.035-.422-.044-.848-.079-1.259a4.347,4.347,0,0,0,2.627-3.271,3.234,3.234,0,0,0-2.682,2.582,27.452,27.452,0,0,0-.7-4.365,3.706,3.706,0,0,0-.582-3.4c-1.314,1.889.53,2.968.731,5.617a3.707,3.707,0,0,0-2.6-2.25,2.82,2.82,0,0,0,2.644,2.525c.135.934.233,1.928.3,2.968a4.663,4.663,0,0,0-3.021-2.312,3.486,3.486,0,0,0,3.064,3.114c.051,1.1.068,2.236.058,3.4a4.665,4.665,0,0,0-3.007-2.287,3.478,3.478,0,0,0,3,3.1c-.024,1.226-.076,2.478-.15,3.739a6.216,6.216,0,0,0-4.335-3.705s.137,3.51,4.3,4.209c-.094,1.468-.217,2.945-.36,4.4a7.77,7.77,0,0,0-5.408-4.607s.17,4.367,5.343,5.255c-.186,1.814-.4,3.592-.628,5.278a9.369,9.369,0,0,0-6.665-5.9s.205,5.363,6.6,6.381c-.255,1.864-.52,3.606-.772,5.152a9.382,9.382,0,0,0-6.626-5.791s.2,5.326,6.531,6.371c-.188,1.134-.364,2.148-.52,3.01-6.307-3.294-8.806,1.242-9.421,4.9H26.429a34.511,34.511,0,0,0-5.1-3.852c.594-.556,1.3-1.2,2.1-1.916,6.99,5.641,13.02,1.587,13.02,1.587-7.264-3.837-12.166-2-12.94-1.658a134.98,134.98,0,0,1,10.543-8.475c4.763,3.625,8.757,1.006,8.757,1.006-3.83-2.026-6.691-1.812-8.076-1.5,1.514-1.08,3.109-2.167,4.776-3.238,4.062,3.174,7.489.931,7.489.931-3.5-1.851-6.039-1.485-7.077-1.194,1.426-.908,2.9-1.8,4.421-2.667a4.507,4.507,0,0,0,5.177.626,6.847,6.847,0,0,0-4.738-.875c1.453-.818,2.945-1.608,4.468-2.358a3.544,3.544,0,0,0,4.087.508,5.372,5.372,0,0,0-3.724-.687c3.462-1.821,5.331-.67,6.857-3.579M21.4,961.419a9.116,9.116,0,0,0,5.265-2.207,18.637,18.637,0,0,0-1.117,3.622,7.251,7.251,0,0,0-4.927,4.237c.265-1.738.533-3.649.779-5.652m-.335,12.137c-.454-.268-.922-.524-1.4-.759.159-.882.342-1.926.535-3.1h0c.095-.578.193-1.186.292-1.821a9.1,9.1,0,0,0,4.766-1.814,10.248,10.248,0,0,0,.557,3.265c-1.972,1.669-3.58,3.127-4.754,4.228" transform="translate(-8.78 -823.232)" fill="#636363"/>
            <path id="Trazado_214311" data-name="Trazado 214311" d="M167.958,1200.448c5.66,4.543,10.462,1.394,10.462,1.394-6.391-3.38-10.462-1.394-10.462-1.394" transform="translate(-147.882 -1056.451)" fill="#636363"/>
          </g>
        </g>
      </g>
    </g>
    <rect id="Rectángulo_43886" data-name="Rectángulo 43886" width="295" height="40" transform="translate(390 2470)" fill="none"/>
  </g>
</svg>
