<svg xmlns="http://www.w3.org/2000/svg" width="35.489" height="34.869" viewBox="0 0 35.489 34.869">
  <g id="Grupo_149911" data-name="Grupo 149911" transform="translate(-905.234 -441.328)">
    <path id="Trazado_198314" data-name="Trazado 198314" d="M1019.277,515.406a2.951,2.951,0,1,1-2.952-2.952,2.952,2.952,0,0,1,2.952,2.952" transform="translate(-108.14 -56)" fill="#e3f4fe"/>
    <path id="Trazado_198315" data-name="Trazado 198315" d="M1019.277,500.28a2.951,2.951,0,1,1-2.952-2.952,2.952,2.952,0,0,1,2.952,2.952" transform="translate(-108.14 -56)" fill="#e3f4fe"/>
    <path id="Trazado_198316" data-name="Trazado 198316" d="M1034.806,515.406a2.952,2.952,0,1,1-2.952-2.952,2.952,2.952,0,0,1,2.952,2.952" transform="translate(-108.14 -56)" fill="#e3f4fe"/>
    <path id="Trazado_198317" data-name="Trazado 198317" d="M1034.806,500.28a2.952,2.952,0,1,1-2.952-2.952,2.952,2.952,0,0,1,2.952,2.952" transform="translate(-108.14 -56)" fill="#e3f4fe"/>
    <path id="Trazado_198318" data-name="Trazado 198318" d="M1048.863,515.406a2.952,2.952,0,1,1-2.952-2.952,2.952,2.952,0,0,1,2.952,2.952" transform="translate(-108.14 -56)" fill="#e3f4fe"/>
    <path id="Trazado_198319" data-name="Trazado 198319" d="M1019.277,529.245a2.951,2.951,0,1,1-2.952-2.952,2.952,2.952,0,0,1,2.952,2.952" transform="translate(-108.14 -56)" fill="#e3f4fe"/>
    <path id="Trazado_198320" data-name="Trazado 198320" d="M1034.806,529.245a2.952,2.952,0,1,1-2.952-2.952,2.952,2.952,0,0,1,2.952,2.952" transform="translate(-108.14 -56)" fill="#e3f4fe"/>
    <path id="Trazado_198321" data-name="Trazado 198321" d="M1048.863,529.245a2.952,2.952,0,1,1-2.952-2.952,2.952,2.952,0,0,1,2.952,2.952" transform="translate(-108.14 -56)" fill="#e3f4fe"/>
    <path id="Trazado_198322" data-name="Trazado 198322" d="M1048.863,500.28a2.952,2.952,0,1,1-2.952-2.952,2.952,2.952,0,0,1,2.952,2.952" transform="translate(-108.14 -56)" fill="#e3f4fe"/>
  </g>
</svg>
