<svg xmlns="http://www.w3.org/2000/svg" width="68.379" height="37.989" viewBox="0 0 68.379 37.989">
  <g id="Grupo_80176" data-name="Grupo 80176" transform="translate(-1378.876 -84.817)">
    <path id="Trazado_190770" data-name="Trazado 190770" d="M1540.625,143.918a3.1,3.1,0,1,1-3.1-3.1,3.1,3.1,0,0,1,3.1,3.1" transform="translate(-108.14 -56)" fill="#e3f4fe"/>
    <path id="Trazado_190771" data-name="Trazado 190771" d="M1555.4,143.918a3.1,3.1,0,1,1-3.1-3.1,3.1,3.1,0,0,1,3.1,3.1" transform="translate(-108.14 -56)" fill="#e3f4fe"/>
    <path id="Trazado_190772" data-name="Trazado 190772" d="M1493.219,143.918a3.1,3.1,0,1,1-3.1-3.1,3.1,3.1,0,0,1,3.1,3.1" transform="translate(-108.14 -56)" fill="#e3f4fe"/>
    <path id="Trazado_190773" data-name="Trazado 190773" d="M1509.536,143.918a3.1,3.1,0,1,1-3.1-3.1,3.1,3.1,0,0,1,3.1,3.1" transform="translate(-108.14 -56)" fill="#e3f4fe"/>
    <path id="Trazado_190774" data-name="Trazado 190774" d="M1524.307,143.918a3.1,3.1,0,1,1-3.1-3.1,3.1,3.1,0,0,1,3.1,3.1" transform="translate(-108.14 -56)" fill="#e3f4fe"/>
    <path id="Trazado_190775" data-name="Trazado 190775" d="M1540.625,175.705a3.1,3.1,0,1,1-3.1-3.1,3.1,3.1,0,0,1,3.1,3.1" transform="translate(-108.14 -56)" fill="#e3f4fe"/>
    <path id="Trazado_190776" data-name="Trazado 190776" d="M1540.625,159.811a3.1,3.1,0,1,1-3.1-3.1,3.1,3.1,0,0,1,3.1,3.1" transform="translate(-108.14 -56)" fill="#e3f4fe"/>
    <path id="Trazado_190777" data-name="Trazado 190777" d="M1555.4,175.705a3.1,3.1,0,1,1-3.1-3.1,3.1,3.1,0,0,1,3.1,3.1" transform="translate(-108.14 -56)" fill="#e3f4fe"/>
    <path id="Trazado_190778" data-name="Trazado 190778" d="M1555.4,159.811a3.1,3.1,0,1,1-3.1-3.1,3.1,3.1,0,0,1,3.1,3.1" transform="translate(-108.14 -56)" fill="#e3f4fe"/>
    <path id="Trazado_190779" data-name="Trazado 190779" d="M1493.219,175.705a3.1,3.1,0,1,1-3.1-3.1,3.1,3.1,0,0,1,3.1,3.1" transform="translate(-108.14 -56)" fill="#e3f4fe"/>
    <path id="Trazado_190780" data-name="Trazado 190780" d="M1493.219,159.811a3.1,3.1,0,1,1-3.1-3.1,3.1,3.1,0,0,1,3.1,3.1" transform="translate(-108.14 -56)" fill="#e3f4fe"/>
    <path id="Trazado_190781" data-name="Trazado 190781" d="M1509.536,175.705a3.1,3.1,0,1,1-3.1-3.1,3.1,3.1,0,0,1,3.1,3.1" transform="translate(-108.14 -56)" fill="#e3f4fe"/>
    <path id="Trazado_190782" data-name="Trazado 190782" d="M1509.536,159.811a3.1,3.1,0,1,1-3.1-3.1,3.1,3.1,0,0,1,3.1,3.1" transform="translate(-108.14 -56)" fill="#e3f4fe"/>
    <path id="Trazado_190783" data-name="Trazado 190783" d="M1524.307,175.705a3.1,3.1,0,1,1-3.1-3.1,3.1,3.1,0,0,1,3.1,3.1" transform="translate(-108.14 -56)" fill="#e3f4fe"/>
    <path id="Trazado_190784" data-name="Trazado 190784" d="M1524.307,159.811a3.1,3.1,0,1,1-3.1-3.1,3.1,3.1,0,0,1,3.1,3.1" transform="translate(-108.14 -56)" fill="#e3f4fe"/>
  </g>
</svg>
