<svg xmlns="http://www.w3.org/2000/svg" width="49.85" height="37.083" viewBox="0 0 49.85 37.083">
  <g id="Grupo_80141" data-name="Grupo 80141" transform="translate(-146.403 -521.266)">
    <g id="Grupo_80140" data-name="Grupo 80140" transform="translate(146.403 521.266)">
      <path id="Trazado_190753" data-name="Trazado 190753" d="M261.6,618.739a3.027,3.027,0,1,1-3.027-3.027,3.027,3.027,0,0,1,3.027,3.027" transform="translate(-255.543 -584.684)" fill="#2a2a2a"/>
      <path id="Trazado_190754" data-name="Trazado 190754" d="M281.334,618.739a3.027,3.027,0,1,1-3.027-3.027,3.027,3.027,0,0,1,3.027,3.027" transform="translate(-259.351 -584.684)" fill="#2a2a2a"/>
      <path id="Trazado_190755" data-name="Trazado 190755" d="M299.2,618.739a3.027,3.027,0,1,1-3.027-3.027,3.027,3.027,0,0,1,3.027,3.027" transform="translate(-262.798 -584.684)" fill="#2a2a2a"/>
      <path id="Trazado_190756" data-name="Trazado 190756" d="M315.863,618.739a3.027,3.027,0,1,1-3.027-3.027,3.027,3.027,0,0,1,3.027,3.027" transform="translate(-266.013 -584.684)" fill="#2a2a2a"/>
      <path id="Trazado_190757" data-name="Trazado 190757" d="M315.863,599.516a3.027,3.027,0,1,1-3.027-3.027,3.027,3.027,0,0,1,3.027,3.027" transform="translate(-266.013 -580.975)" fill="#2a2a2a"/>
      <path id="Trazado_190758" data-name="Trazado 190758" d="M261.6,599.516a3.027,3.027,0,1,1-3.027-3.027,3.027,3.027,0,0,1,3.027,3.027" transform="translate(-255.543 -580.975)" fill="#2a2a2a"/>
      <path id="Trazado_190759" data-name="Trazado 190759" d="M261.6,580.293a3.027,3.027,0,1,1-3.027-3.027,3.027,3.027,0,0,1,3.027,3.027" transform="translate(-255.543 -577.266)" fill="#2a2a2a"/>
      <path id="Trazado_190760" data-name="Trazado 190760" d="M281.334,599.516a3.027,3.027,0,1,1-3.027-3.027,3.027,3.027,0,0,1,3.027,3.027" transform="translate(-259.351 -580.975)" fill="#2a2a2a"/>
      <path id="Trazado_190761" data-name="Trazado 190761" d="M281.334,580.293a3.027,3.027,0,1,1-3.027-3.027,3.027,3.027,0,0,1,3.027,3.027" transform="translate(-259.351 -577.266)" fill="#2a2a2a"/>
      <path id="Trazado_190762" data-name="Trazado 190762" d="M299.2,599.516a3.027,3.027,0,1,1-3.027-3.027,3.027,3.027,0,0,1,3.027,3.027" transform="translate(-262.798 -580.975)" fill="#2a2a2a"/>
      <path id="Trazado_190763" data-name="Trazado 190763" d="M299.2,580.293a3.027,3.027,0,1,1-3.027-3.027,3.027,3.027,0,0,1,3.027,3.027" transform="translate(-262.798 -577.266)" fill="#2a2a2a"/>
    </g>
  </g>
</svg>
