<svg xmlns="http://www.w3.org/2000/svg" width="41.258" height="26.968" viewBox="0 0 41.258 26.968">
  <g id="Grupo_153414" data-name="Grupo 153414" transform="translate(-248.215 -4767.226)">
    <path id="Trazado_213509" data-name="Trazado 213509" d="M43.607,69.206h-1.3a1.829,1.829,0,0,1-1.827-1.828v-.12H39.71a1.83,1.83,0,0,1-1.828-1.828V56.986a1.83,1.83,0,0,1,1.828-1.828h.771v-.121a1.829,1.829,0,0,1,1.827-1.827h1.3a.528.528,0,0,1,.528.528V68.677a.528.528,0,0,1-.528.528m-3.9-12.991a.772.772,0,0,0-.771.771V65.43a.772.772,0,0,0,.771.771h1.3a.529.529,0,0,1,.528.528v.649a.772.772,0,0,0,.77.771h.771V54.267h-.771a.771.771,0,0,0-.77.77v.65a.529.529,0,0,1-.528.528Z" transform="translate(210.622 4719.501)" fill="#231f20"/>
    <path id="Trazado_213510" data-name="Trazado 213510" d="M43.607,69.206h-1.3a1.829,1.829,0,0,1-1.827-1.828v-.12H39.71a1.83,1.83,0,0,1-1.828-1.828V56.986a1.83,1.83,0,0,1,1.828-1.828h.771v-.121a1.829,1.829,0,0,1,1.827-1.827h1.3a.528.528,0,0,1,.528.528V68.677A.528.528,0,0,1,43.607,69.206Zm-3.9-12.991a.772.772,0,0,0-.771.771V65.43a.772.772,0,0,0,.771.771h1.3a.529.529,0,0,1,.528.528v.649a.772.772,0,0,0,.77.771h.771V54.267h-.771a.771.771,0,0,0-.77.77v.65a.529.529,0,0,1-.528.528Z" transform="translate(210.622 4719.501)" fill="none" stroke="#231f20" stroke-miterlimit="10" stroke-width="0.579"/>
    <path id="Trazado_213511" data-name="Trazado 213511" d="M47.353,73.9h-2.6a1.179,1.179,0,0,1-1.178-1.178V48.693a1.179,1.179,0,0,1,1.178-1.178h2.6a1.179,1.179,0,0,1,1.178,1.178V72.726A1.179,1.179,0,0,1,47.353,73.9m-2.6-25.332a.122.122,0,0,0-.121.121V72.726a.122.122,0,0,0,.121.121h2.6a.121.121,0,0,0,.121-.121V48.693a.121.121,0,0,0-.121-.121Z" transform="translate(210.124 4720)" fill="#231f20"/>
    <path id="Trazado_213512" data-name="Trazado 213512" d="M47.353,73.9h-2.6a1.179,1.179,0,0,1-1.178-1.178V48.693a1.179,1.179,0,0,1,1.178-1.178h2.6a1.179,1.179,0,0,1,1.178,1.178V72.726A1.179,1.179,0,0,1,47.353,73.9Zm-2.6-25.332a.122.122,0,0,0-.121.121V72.726a.122.122,0,0,0,.121.121h2.6a.121.121,0,0,0,.121-.121V48.693a.121.121,0,0,0-.121-.121Z" transform="translate(210.124 4720)" fill="none" stroke="#231f20" stroke-miterlimit="10" stroke-width="0.579"/>
    <path id="Trazado_213513" data-name="Trazado 213513" d="M51.624,73.9h-2.6a1.179,1.179,0,0,1-1.178-1.178V48.693a1.179,1.179,0,0,1,1.178-1.178h2.6A1.179,1.179,0,0,1,52.8,48.693V72.726A1.179,1.179,0,0,1,51.624,73.9m-2.6-25.332a.122.122,0,0,0-.121.121V72.726a.122.122,0,0,0,.121.121h2.6a.121.121,0,0,0,.121-.121V48.693a.121.121,0,0,0-.121-.121Z" transform="translate(209.75 4720)" fill="#231f20"/>
    <path id="Trazado_213514" data-name="Trazado 213514" d="M51.624,73.9h-2.6a1.179,1.179,0,0,1-1.178-1.178V48.693a1.179,1.179,0,0,1,1.178-1.178h2.6A1.179,1.179,0,0,1,52.8,48.693V72.726A1.179,1.179,0,0,1,51.624,73.9Zm-2.6-25.332a.122.122,0,0,0-.121.121V72.726a.122.122,0,0,0,.121.121h2.6a.121.121,0,0,0,.121-.121V48.693a.121.121,0,0,0-.121-.121Z" transform="translate(209.75 4720)" fill="none" stroke="#231f20" stroke-miterlimit="10" stroke-width="0.579"/>
    <path id="Trazado_213515" data-name="Trazado 213515" d="M77.438,69.206h-1.3a.528.528,0,0,1-.528-.528V53.737a.529.529,0,0,1,.528-.528h1.3a1.83,1.83,0,0,1,1.827,1.828v.121h.771a1.83,1.83,0,0,1,1.828,1.828V65.43a1.83,1.83,0,0,1-1.828,1.827h-.771v.121a1.829,1.829,0,0,1-1.827,1.828m-.771-1.057h.771a.772.772,0,0,0,.77-.771v-.65a.528.528,0,0,1,.528-.527h1.3a.772.772,0,0,0,.771-.771V56.986a.772.772,0,0,0-.771-.771h-1.3a.529.529,0,0,1-.528-.528v-.65a.772.772,0,0,0-.77-.771h-.771Z" transform="translate(207.32 4719.501)" fill="#231f20"/>
    <path id="Trazado_213516" data-name="Trazado 213516" d="M77.438,69.206h-1.3a.528.528,0,0,1-.528-.528V53.737a.529.529,0,0,1,.528-.528h1.3a1.83,1.83,0,0,1,1.827,1.828v.121h.771a1.83,1.83,0,0,1,1.828,1.828V65.43a1.83,1.83,0,0,1-1.828,1.827h-.771v.121A1.829,1.829,0,0,1,77.438,69.206Zm-.771-1.057h.771a.772.772,0,0,0,.77-.771v-.65a.528.528,0,0,1,.528-.527h1.3a.772.772,0,0,0,.771-.771V56.986a.772.772,0,0,0-.771-.771h-1.3a.529.529,0,0,1-.528-.528v-.65a.772.772,0,0,0-.77-.771h-.771Z" transform="translate(207.32 4719.501)" fill="none" stroke="#231f20" stroke-miterlimit="10" stroke-width="0.579"/>
    <path id="Trazado_213517" data-name="Trazado 213517" d="M75.115,73.9h-2.6a1.179,1.179,0,0,1-1.178-1.178V48.693a1.179,1.179,0,0,1,1.178-1.178h2.6a1.179,1.179,0,0,1,1.178,1.178V72.726A1.179,1.179,0,0,1,75.115,73.9m-2.6-25.332a.122.122,0,0,0-.121.121V72.726a.122.122,0,0,0,.121.121h2.6a.121.121,0,0,0,.121-.121V48.693a.121.121,0,0,0-.121-.121Z" transform="translate(207.694 4720)" fill="#231f20"/>
    <path id="Trazado_213518" data-name="Trazado 213518" d="M75.115,73.9h-2.6a1.179,1.179,0,0,1-1.178-1.178V48.693a1.179,1.179,0,0,1,1.178-1.178h2.6a1.179,1.179,0,0,1,1.178,1.178V72.726A1.179,1.179,0,0,1,75.115,73.9Zm-2.6-25.332a.122.122,0,0,0-.121.121V72.726a.122.122,0,0,0,.121.121h2.6a.121.121,0,0,0,.121-.121V48.693a.121.121,0,0,0-.121-.121Z" transform="translate(207.694 4720)" fill="none" stroke="#231f20" stroke-miterlimit="10" stroke-width="0.579"/>
    <path id="Trazado_213519" data-name="Trazado 213519" d="M70.844,73.9h-2.6a1.179,1.179,0,0,1-1.178-1.178V48.693a1.179,1.179,0,0,1,1.178-1.178h2.6a1.179,1.179,0,0,1,1.178,1.178V72.726A1.179,1.179,0,0,1,70.844,73.9m-2.6-25.332a.122.122,0,0,0-.121.121V72.726a.122.122,0,0,0,.121.121h2.6a.121.121,0,0,0,.121-.121V48.693a.121.121,0,0,0-.121-.121Z" transform="translate(208.068 4720)" fill="#231f20"/>
    <path id="Trazado_213520" data-name="Trazado 213520" d="M70.844,73.9h-2.6a1.179,1.179,0,0,1-1.178-1.178V48.693a1.179,1.179,0,0,1,1.178-1.178h2.6a1.179,1.179,0,0,1,1.178,1.178V72.726A1.179,1.179,0,0,1,70.844,73.9Zm-2.6-25.332a.122.122,0,0,0-.121.121V72.726a.122.122,0,0,0,.121.121h2.6a.121.121,0,0,0,.121-.121V48.693a.121.121,0,0,0-.121-.121Z" transform="translate(208.068 4720)" fill="none" stroke="#231f20" stroke-miterlimit="10" stroke-width="0.579"/>
    <path id="Trazado_213521" data-name="Trazado 213521" d="M66.288,64.508H52.647a.528.528,0,0,1-.528-.528V59.433a.528.528,0,0,1,.528-.528H66.288a.528.528,0,0,1,.528.528v4.546a.528.528,0,0,1-.528.528M53.176,63.452H65.76v-3.49H53.176Z" transform="translate(209.376 4719.003)" fill="#231f20"/>
    <path id="Trazado_213522" data-name="Trazado 213522" d="M66.288,64.508H52.647a.528.528,0,0,1-.528-.528V59.433a.528.528,0,0,1,.528-.528H66.288a.528.528,0,0,1,.528.528v4.546A.528.528,0,0,1,66.288,64.508ZM53.176,63.452H65.76v-3.49H53.176Z" transform="translate(209.376 4719.003)" fill="none" stroke="#231f20" stroke-miterlimit="10" stroke-width="0.579"/>
  </g>
</svg>
