<svg xmlns="http://www.w3.org/2000/svg" width="39.025" height="36.974" viewBox="0 0 39.025 36.974">
  <g id="Grupo_153417" data-name="Grupo 153417" transform="translate(-365.746 -4759.982)">
    <path id="Trazado_213523" data-name="Trazado 213523" d="M169.259,57.513a5.664,5.664,0,0,1,4.018,1.664c.05.05.094.105.142.157l-1.7,1.7c-.047-.054-.083-.113-.135-.165a3.287,3.287,0,0,0-4.652,0l-7.19,7.19a3.29,3.29,0,1,0,4.652,4.653l7.035-7.035,1.692,1.692L166.087,74.4a5.682,5.682,0,1,1-8.036-8.036l7.19-7.19a5.664,5.664,0,0,1,4.018-1.664m0-.973a6.615,6.615,0,0,0-4.706,1.949l-7.19,7.19a6.656,6.656,0,0,0,9.413,9.413l7.035-7.035a.973.973,0,0,0,0-1.376l-1.692-1.692a.974.974,0,0,0-1.377,0l-7.035,7.035a2.316,2.316,0,0,1-3.276-3.276l7.19-7.19a2.316,2.316,0,0,1,3.259-.018l.008.011c.024.032.058.076.1.125a.974.974,0,0,0,.7.33h.031a.971.971,0,0,0,.688-.286l1.7-1.7a.975.975,0,0,0,.025-1.351l-.036-.041c-.034-.04-.077-.088-.131-.142a6.615,6.615,0,0,0-4.706-1.949" transform="translate(210.622 4717.36)" fill="#231f20"/>
    <path id="Trazado_213524" data-name="Trazado 213524" d="M169.259,57.513a5.664,5.664,0,0,1,4.018,1.664c.05.05.094.105.142.157l-1.7,1.7c-.047-.054-.083-.113-.135-.165a3.287,3.287,0,0,0-4.652,0l-7.19,7.19a3.29,3.29,0,1,0,4.652,4.653l7.035-7.035,1.692,1.692L166.087,74.4a5.682,5.682,0,1,1-8.036-8.036l7.19-7.19A5.664,5.664,0,0,1,169.259,57.513Zm0-.973a6.615,6.615,0,0,0-4.706,1.949l-7.19,7.19a6.656,6.656,0,0,0,9.413,9.413l7.035-7.035a.973.973,0,0,0,0-1.376l-1.692-1.692a.974.974,0,0,0-1.377,0l-7.035,7.035a2.316,2.316,0,0,1-3.276-3.276l7.19-7.19a2.316,2.316,0,0,1,3.259-.018l.008.011c.024.032.058.076.1.125a.974.974,0,0,0,.7.33h.031a.971.971,0,0,0,.688-.286l1.7-1.7a.975.975,0,0,0,.025-1.351l-.036-.041c-.034-.04-.077-.088-.131-.142A6.615,6.615,0,0,0,169.259,56.54Z" transform="translate(210.622 4717.36)" fill="none" stroke="#231f20" stroke-miterlimit="10" stroke-width="0.579"/>
    <path id="Trazado_213525" data-name="Trazado 213525" d="M190.852,43.993a5.682,5.682,0,0,1,4.018,9.7l-7.19,7.19a5.682,5.682,0,0,1-8.036,0q-.2-.2-.372-.41l1.85-1.542a3.123,3.123,0,0,0,.214.261,3.29,3.29,0,0,0,4.652,0L193.178,52a3.289,3.289,0,1,0-4.652-4.652l-5.839,5.838L181,51.5l5.839-5.838a5.665,5.665,0,0,1,4.018-1.664m0-.973a6.615,6.615,0,0,0-4.706,1.949l-5.839,5.839a.973.973,0,0,0,0,1.376L182,53.876a.974.974,0,0,0,1.377,0l5.838-5.838a2.317,2.317,0,0,1,3.277,3.276L185.3,58.5a2.317,2.317,0,0,1-3.276,0c-.01-.011-.039-.048-.059-.076s-.057-.075-.087-.111a.976.976,0,0,0-.662-.355.883.883,0,0,0-.094-.005.969.969,0,0,0-.623.226l-1.851,1.542a.974.974,0,0,0-.128,1.367,6.411,6.411,0,0,0,.435.48,6.656,6.656,0,0,0,9.413,0l7.19-7.19a6.656,6.656,0,0,0-4.706-11.362" transform="translate(206.974 4719.516)" fill="#231f20"/>
    <path id="Trazado_213526" data-name="Trazado 213526" d="M190.852,43.993a5.682,5.682,0,0,1,4.018,9.7l-7.19,7.19a5.682,5.682,0,0,1-8.036,0q-.2-.2-.372-.41l1.85-1.542a3.123,3.123,0,0,0,.214.261,3.29,3.29,0,0,0,4.652,0L193.178,52a3.289,3.289,0,1,0-4.652-4.652l-5.839,5.838L181,51.5l5.839-5.838A5.665,5.665,0,0,1,190.852,43.993Zm0-.973a6.615,6.615,0,0,0-4.706,1.949l-5.839,5.839a.973.973,0,0,0,0,1.376L182,53.876a.974.974,0,0,0,1.377,0l5.838-5.838a2.317,2.317,0,0,1,3.277,3.276L185.3,58.5a2.317,2.317,0,0,1-3.276,0c-.01-.011-.039-.048-.059-.076s-.057-.075-.087-.111a.976.976,0,0,0-.662-.355.883.883,0,0,0-.094-.005.969.969,0,0,0-.623.226l-1.851,1.542a.974.974,0,0,0-.128,1.367,6.411,6.411,0,0,0,.435.48,6.656,6.656,0,0,0,9.413,0l7.19-7.19a6.656,6.656,0,0,0-4.706-11.362Z" transform="translate(206.974 4719.516)" fill="none" stroke="#231f20" stroke-miterlimit="10" stroke-width="0.579"/>
    <path id="Trazado_213527" data-name="Trazado 213527" d="M178.112,46.253h0a.9.9,0,0,1-.9-.9V41.168a.9.9,0,1,1,1.794,0v4.188a.9.9,0,0,1-.9.9" transform="translate(207.146 4719.954)" fill="#231f20"/>
    <path id="Trazado_213528" data-name="Trazado 213528" d="M178.066,46.45a1.142,1.142,0,0,1-1.141-1.141V41.123a1.141,1.141,0,0,1,2.281,0V45.31a1.142,1.142,0,0,1-1.141,1.141m0-5.982a.655.655,0,0,0-.654.654V45.31a.654.654,0,0,0,1.308,0V41.123a.655.655,0,0,0-.654-.654" transform="translate(207.193 4720)" fill="#231f20"/>
    <path id="Trazado_213529" data-name="Trazado 213529" d="M170.336,48.337h0a.9.9,0,0,1-1.226-.329l-2.094-3.626a.9.9,0,1,1,1.554-.9l2.094,3.626a.9.9,0,0,1-.329,1.226" transform="translate(208.791 4719.513)" fill="#231f20"/>
    <path id="Trazado_213530" data-name="Trazado 213530" d="M169.842,48.654a1.12,1.12,0,0,1-.3-.04,1.133,1.133,0,0,1-.693-.531l-2.094-3.626a1.141,1.141,0,1,1,1.975-1.141l2.094,3.626a1.141,1.141,0,0,1-.986,1.711m-2.1-5.421a.653.653,0,0,0-.565.981l2.093,3.626a.654.654,0,0,0,.894.239.654.654,0,0,0,.24-.893l-2.094-3.626a.655.655,0,0,0-.567-.327" transform="translate(208.838 4719.56)" fill="#231f20"/>
    <path id="Trazado_213531" data-name="Trazado 213531" d="M164.643,54.029h0a.9.9,0,0,1-1.226.329l-3.626-2.094a.9.9,0,1,1,.9-1.554l3.626,2.094a.9.9,0,0,1,.329,1.226" transform="translate(209.996 4718.309)" fill="#231f20"/>
    <path id="Trazado_213532" data-name="Trazado 213532" d="M163.818,54.674a1.125,1.125,0,0,1-.568-.153l-3.626-2.093a1.141,1.141,0,0,1,1.141-1.975l3.626,2.093a1.14,1.14,0,0,1-.572,2.128M160.2,50.787a.654.654,0,0,0-.328,1.221l3.626,2.093a.654.654,0,0,0,.654-1.132l-3.626-2.094a.649.649,0,0,0-.326-.087" transform="translate(210.042 4718.355)" fill="#231f20"/>
    <path id="Trazado_213533" data-name="Trazado 213533" d="M178.112,76.563h0a.9.9,0,0,1,.9.9v4.188a.9.9,0,1,1-1.794,0V77.46a.9.9,0,0,1,.9-.9" transform="translate(207.146 4714.168)" fill="#231f20"/>
    <path id="Trazado_213534" data-name="Trazado 213534" d="M178.066,82.741a1.142,1.142,0,0,1-1.141-1.141V77.414a1.141,1.141,0,0,1,2.281,0V81.6a1.142,1.142,0,0,1-1.141,1.141m0-5.982a.655.655,0,0,0-.654.654V81.6a.654.654,0,1,0,1.308,0V77.414a.655.655,0,0,0-.654-.654" transform="translate(207.193 4714.214)" fill="#231f20"/>
    <path id="Trazado_213535" data-name="Trazado 213535" d="M185.491,74.585h0a.9.9,0,0,1,1.226.33l2.094,3.625a.9.9,0,0,1-1.554.9l-2.094-3.627a.9.9,0,0,1,.329-1.226" transform="translate(205.898 4714.503)" fill="#231f20"/>
    <path id="Trazado_213536" data-name="Trazado 213536" d="M187.988,80.084a1.156,1.156,0,0,1-.3-.04,1.136,1.136,0,0,1-.693-.531L184.9,75.887a1.141,1.141,0,0,1,1.975-1.141l2.094,3.626a1.142,1.142,0,0,1-.986,1.711m-2.1-5.422a.654.654,0,0,0-.565.981l2.093,3.626a.654.654,0,1,0,1.133-.654l-2.094-3.626a.657.657,0,0,0-.567-.327" transform="translate(205.945 4714.549)" fill="#231f20"/>
    <path id="Trazado_213537" data-name="Trazado 213537" d="M190.892,69.184h0a.9.9,0,0,1,1.226-.329l3.626,2.094a.9.9,0,1,1-.9,1.554l-3.626-2.094a.9.9,0,0,1-.329-1.226" transform="translate(204.985 4715.416)" fill="#231f20"/>
    <path id="Trazado_213538" data-name="Trazado 213538" d="M195.247,72.821a1.123,1.123,0,0,1-.568-.154l-3.626-2.093a1.141,1.141,0,0,1,1.141-1.976l3.626,2.094a1.141,1.141,0,0,1-.275,2.09,1.162,1.162,0,0,1-.3.04m-3.623-3.889a.694.694,0,0,0-.171.023.654.654,0,0,0-.157,1.2l3.626,2.093a.654.654,0,0,0,.654-1.133l-3.626-2.092a.645.645,0,0,0-.326-.089" transform="translate(205.031 4715.462)" fill="#231f20"/>
  </g>
</svg>
