<svg xmlns="http://www.w3.org/2000/svg" width="35.531" height="33.263" viewBox="0 0 35.531 33.263">
  <g id="Grupo_153418" data-name="Grupo 153418" transform="translate(-485.216 -4760.798)">
    <path id="Trazado_213539" data-name="Trazado 213539" d="M295.3,59.546a.454.454,0,0,1-.255-.831l16.76-11.354a.454.454,0,1,1,.51.752l-16.76,11.354a.447.447,0,0,1-.254.079" transform="translate(206.275 4718.608)" fill="#231f20"/>
    <path id="Trazado_213540" data-name="Trazado 213540" d="M295.24,59.712a.681.681,0,0,1-.67-.81.674.674,0,0,1,.287-.436l16.76-11.354a.682.682,0,0,1,.766,1.129L295.622,59.6a.681.681,0,0,1-.382.117M312,47.449a.227.227,0,0,0-.127.039l-16.76,11.354a.227.227,0,0,0-.06.316.233.233,0,0,0,.316.06l16.76-11.354a.227.227,0,0,0-.085-.412.268.268,0,0,0-.043,0" transform="translate(206.337 4718.67)" fill="#231f20"/>
    <path id="Trazado_213541" data-name="Trazado 213541" d="M306.317,53.009a.455.455,0,0,1-.437-.58l1.081-3.785a.458.458,0,0,1,.177-.247l5.406-3.785a.455.455,0,0,1,.715.363l.068,3.215a.456.456,0,0,1-.2.389l-6.556,4.354a.458.458,0,0,1-.251.076m1.474-3.96-.7,2.443,5.32-3.533-.045-2.114Z" transform="translate(203.911 4719.199)" fill="#231f20"/>
    <path id="Trazado_213542" data-name="Trazado 213542" d="M306.317,53.009a.455.455,0,0,1-.437-.58l1.081-3.785a.458.458,0,0,1,.177-.247l5.406-3.785a.455.455,0,0,1,.715.363l.068,3.215a.456.456,0,0,1-.2.389l-6.556,4.354A.458.458,0,0,1,306.317,53.009Zm1.474-3.96-.7,2.443,5.32-3.533-.045-2.114Z" transform="translate(203.911 4719.199)" fill="none" stroke="#231f20" stroke-miterlimit="10" stroke-width="0.579"/>
    <path id="Trazado_213543" data-name="Trazado 213543" d="M310.1,54.436a.444.444,0,0,1-.064,0l-3.785-.54a.455.455,0,0,1-.188-.829l6.488-4.325a.454.454,0,0,1,.369-.061l3.284.874a.454.454,0,0,1,.136.818l-5.988,3.992a.451.451,0,0,1-.252.076m-2.542-1.277,2.435.348L315,50.17l-2.113-.562Z" transform="translate(203.911 4718.313)" fill="#231f20"/>
    <path id="Trazado_213544" data-name="Trazado 213544" d="M310.1,54.436a.444.444,0,0,1-.064,0l-3.785-.54a.455.455,0,0,1-.188-.829l6.488-4.325a.454.454,0,0,1,.369-.061l3.284.874a.454.454,0,0,1,.136.818l-5.988,3.992A.451.451,0,0,1,310.1,54.436Zm-2.542-1.277,2.435.348L315,50.17l-2.113-.562Z" transform="translate(203.911 4718.313)" fill="none" stroke="#231f20" stroke-miterlimit="10" stroke-width="0.579"/>
    <path id="Trazado_213545" data-name="Trazado 213545" d="M293.8,67.216A7.213,7.213,0,1,1,297.474,53.8a.455.455,0,0,1-.463.782A6.3,6.3,0,1,0,300.1,60a6.47,6.47,0,0,0-.069-.94.455.455,0,0,1,.9-.134A7.318,7.318,0,0,1,301.012,60a7.221,7.221,0,0,1-7.213,7.213" transform="translate(208.048 4717.426)" fill="#231f20"/>
    <path id="Trazado_213546" data-name="Trazado 213546" d="M293.737,67.382a7.44,7.44,0,1,1,3.79-13.844.682.682,0,0,1-.7,1.173,6.072,6.072,0,1,0,2.914,4.324.683.683,0,0,1,.574-.775.68.68,0,0,1,.775.574,7.443,7.443,0,0,1-7.358,8.548m0-14.426a6.986,6.986,0,1,0,6.986,6.986,7.077,7.077,0,0,0-.077-1.041.227.227,0,0,0-.09-.149.224.224,0,0,0-.169-.042.228.228,0,0,0-.192.258,6.605,6.605,0,0,1,.072.974,6.528,6.528,0,1,1-3.2-5.622.228.228,0,0,0,.311-.079.227.227,0,0,0-.079-.312,6.977,6.977,0,0,0-3.558-.973" transform="translate(208.11 4717.488)" fill="#231f20"/>
    <path id="Trazado_213547" data-name="Trazado 213547" d="M292.617,70.36a11.538,11.538,0,1,1,5.878-21.469.455.455,0,0,1-.464.782,10.63,10.63,0,1,0,5.216,9.149,10.865,10.865,0,0,0-.117-1.584.455.455,0,1,1,.9-.134,11.71,11.71,0,0,1,.127,1.718A11.552,11.552,0,0,1,292.617,70.36" transform="translate(209.23 4718.608)" fill="#231f20"/>
    <path id="Trazado_213548" data-name="Trazado 213548" d="M292.555,70.525a11.765,11.765,0,1,1,5.993-21.892.682.682,0,0,1-.7,1.173,10.4,10.4,0,1,0,5.1,8.953,10.506,10.506,0,0,0-.115-1.55.682.682,0,0,1,1.349-.2,11.775,11.775,0,0,1-11.636,13.518m0-23.076a11.311,11.311,0,1,0,11.311,11.311,11.46,11.46,0,0,0-.124-1.685.228.228,0,0,0-.259-.192.225.225,0,0,0-.148.09.221.221,0,0,0-.042.169,11,11,0,0,1,.119,1.618,10.851,10.851,0,1,1-5.326-9.344.228.228,0,0,0,.311-.079.227.227,0,0,0-.079-.312,11.3,11.3,0,0,0-5.761-1.575" transform="translate(209.292 4718.67)" fill="#231f20"/>
    <path id="Trazado_213549" data-name="Trazado 213549" d="M291.287,73.9a16.4,16.4,0,1,1,9.14-30.028.455.455,0,0,1-.507.755,15.466,15.466,0,1,0,6.385,9.039.455.455,0,1,1,.881-.224,16.415,16.415,0,0,1-15.9,20.458" transform="translate(210.56 4719.938)" fill="#231f20"/>
    <path id="Trazado_213550" data-name="Trazado 213550" d="M291.225,74.061a16.631,16.631,0,1,1,9.266-30.444.682.682,0,1,1-.761,1.132,15.24,15.24,0,1,0,6.292,8.907.682.682,0,1,1,1.323-.336,16.645,16.645,0,0,1-16.119,20.742m0-32.808A16.158,16.158,0,1,0,306.9,53.43a.227.227,0,1,0-.441.112,15.725,15.725,0,1,1-6.479-9.171.227.227,0,1,0,.254-.377,16.1,16.1,0,0,0-9.013-2.742" transform="translate(210.622 4720)" fill="#231f20"/>
  </g>
</svg>
